<?xml version="1.0" encoding="UTF-8"?>
<!DOCTYPE svg PUBLIC "-//W3C//DTD SVG 1.1//EN" "http://www.w3.org/Graphics/SVG/1.1/DTD/svg11.dtd">
<!-- Creator: CorelDRAW -->
<svg xmlns="http://www.w3.org/2000/svg" xml:space="preserve" width="74mm" height="40mm" style="shape-rendering:geometricPrecision; text-rendering:geometricPrecision; image-rendering:optimizeQuality; fill-rule:evenodd; clip-rule:evenodd"
viewBox="0 0 74 40">
 <defs>
  <style type="text/css">
   <![CDATA[
    .str1 {stroke:#1F1A17;stroke-width:0.1764}
    .str2 {stroke:#131516;stroke-width:0.1764}
    .str0 {stroke:#1F1A17;stroke-width:0.3528}
    .fil0 {fill:none}
    .fil1 {fill:#1F1A17;fill-rule:nonzero}
    .fil2 {fill:url(#id0)}
   ]]>
  </style>
  <linearGradient id="id0" gradientUnits="userSpaceOnUse" x1="71.0857" y1="14.3544" x2="71.8064" y2="14.3544">
   <stop offset="0" style="stop-color:white"/>
   <stop offset="1" style="stop-color:white"/>
  </linearGradient>
 </defs>
 <g id="Layer_x0020_1">
  <metadata id="CorelCorpID_0Corel-Layer"/>
  <polyline class="fil0 str0" points="72.155,24.6403 55.8976,36.1807 37.5272,39.5458 "/>
  <polyline class="fil0 str0" points="2.6446,24.6403 19.7007,34.7217 37.3996,39.6042 "/>
  <line class="fil0 str1" x1="2.6446" y1="24.6402" x2="72.1551" y2= "24.6402" />
  <line class="fil0 str1" x1="20.0998" y1="34.7217" x2="20.0998" y2= "24.199" />
  <line class="fil0 str1" x1="55.8977" y1="36.1807" x2="55.9504" y2= "24.6402" />
  <line class="fil0 str1" x1="37.5272" y1="39.5458" x2="37.5272" y2= "24.6402" />
  <path class="fil1" d="M52.0137 29.3091l0.2589 2.2578 1.6263 -2.2578 0.6844 0 0 0.077c-0.1489,0.0091 -0.2364,0.019 -0.2625,0.0289 -0.0459,0.0176 -0.0875,0.0536 -0.1249,0.1072 -0.0381,0.0536 -0.079,0.1574 -0.1235,0.3105l-0.5185 1.7772c-0.0304,0.1038 -0.0452,0.1849 -0.0452,0.2442 0,0.0536 0.0184,0.0945 0.0557,0.122 0.0523,0.0395 0.1348,0.06 0.2477,0.06l0.0501 0 -0.0191 0.0762 -1.1803 0 0.0211 -0.0762 0.0558 0c0.1044,0 0.1841,-0.0155 0.2398,-0.0459 0.0424,-0.0218 0.0805,-0.0635 0.1143,-0.1248 0.0339,-0.0614 0.0812,-0.1976 0.1419,-0.4086l0.4628 -1.6241 -1.6348 2.2796 -0.0825 0 -0.2632 -2.2796 -0.5002 1.7342c-0.0423,0.1475 -0.0635,0.2462 -0.0635,0.297 0,0.0516 0.0183,0.0904 0.0557,0.1172 0.0367,0.0268 0.127,0.0451 0.271,0.055l-0.0233 0.0762 -0.9236 0 0.0226 -0.0762 0.0557 0c0.1362,0 0.235,-0.0346 0.2957,-0.1037 0.0437,-0.0494 0.0903,-0.1574 0.1382,-0.3225l0.6103 -2.0898c-0.0458,-0.0466 -0.0889,-0.0783 -0.1305,-0.0952 -0.0416,-0.0163 -0.1178,-0.0297 -0.2293,-0.0388l0.0205 -0.077 0.6964 0z"/>
  <path class="fil1" d="M55.1688 32.6887l-0.098 0.2696 -0.8269 0 0 -0.0381c0.2434,-0.2223 0.4148,-0.4029 0.5136,-0.544 0.0995,-0.1404 0.1489,-0.2688 0.1489,-0.3853 0,-0.0889 -0.0268,-0.1622 -0.0812,-0.2194 -0.0543,-0.0571 -0.1199,-0.0854 -0.1954,-0.0854 -0.0692,0 -0.1305,0.0198 -0.1856,0.06 -0.055,0.0409 -0.0952,0.0995 -0.1213,0.1778l-0.0381 0c0.0169,-0.1277 0.0614,-0.2258 0.1326,-0.2935 0.0713,-0.0684 0.1602,-0.1023 0.2667,-0.1023 0.1143,0 0.2089,0.036 0.2851,0.1094 0.0762,0.0726 0.1143,0.1594 0.1143,0.2582 0,0.0713 -0.017,0.1418 -0.0494,0.2131 -0.0515,0.1114 -0.1341,0.23 -0.2484,0.3542 -0.1714,0.1876 -0.2787,0.3005 -0.3217,0.3393l0.3662 0c0.0741,0 0.1263,-0.0028 0.1566,-0.0084 0.0296,-0.0057 0.0571,-0.017 0.0811,-0.0339 0.024,-0.0162 0.0452,-0.0402 0.0628,-0.0713l0.0381 0z"/>
  <path class="fil1" d="M39.9657 29.3091l0.2589 2.2578 1.6263 -2.2578 0.6844 0 0 0.077c-0.1489,0.0091 -0.2364,0.019 -0.2625,0.0289 -0.0459,0.0176 -0.0875,0.0536 -0.1249,0.1072 -0.0381,0.0536 -0.079,0.1574 -0.1235,0.3105l-0.5185 1.7772c-0.0304,0.1038 -0.0452,0.1849 -0.0452,0.2442 0,0.0536 0.0184,0.0945 0.0557,0.122 0.0523,0.0395 0.1348,0.06 0.2477,0.06l0.0501 0 -0.0191 0.0762 -1.1803 0 0.0211 -0.0762 0.0558 0c0.1044,0 0.1841,-0.0155 0.2398,-0.0459 0.0424,-0.0218 0.0805,-0.0635 0.1143,-0.1248 0.0339,-0.0614 0.0812,-0.1976 0.1419,-0.4086l0.4628 -1.6241 -1.6348 2.2796 -0.0825 0 -0.2632 -2.2796 -0.5002 1.7342c-0.0423,0.1475 -0.0635,0.2462 -0.0635,0.297 0,0.0516 0.0183,0.0904 0.0557,0.1172 0.0367,0.0268 0.127,0.0451 0.271,0.055l-0.0233 0.0762 -0.9236 0 0.0226 -0.0762 0.0557 0c0.1362,0 0.235,-0.0346 0.2957,-0.1037 0.0437,-0.0494 0.0903,-0.1574 0.1382,-0.3225l0.6103 -2.0898c-0.0458,-0.0466 -0.0889,-0.0783 -0.1305,-0.0952 -0.0416,-0.0163 -0.1178,-0.0297 -0.2293,-0.0388l0.0205 -0.077 0.6964 0z"/>
  <path class="fil1" d="M42.3991 31.6939l0.3407 -0.1658 0.0339 0 0 1.1832c0,0.0783 0.0035,0.1277 0.0099,0.1468 0.007,0.019 0.0204,0.0338 0.0409,0.0444 0.0205,0.0106 0.0628,0.0162 0.1263,0.0177l0 0.0381 -0.5271 0 0 -0.0381c0.0657,-0.0015 0.1087,-0.0071 0.1278,-0.017 0.0197,-0.0106 0.0331,-0.024 0.0402,-0.0409 0.0077,-0.0162 0.012,-0.067 0.012,-0.151l0 -0.7563c0,-0.1023 -0.0036,-0.168 -0.0106,-0.1969 -0.005,-0.0219 -0.0134,-0.0381 -0.0261,-0.0487 -0.0127,-0.0098 -0.0282,-0.0155 -0.0466,-0.0155 -0.0254,0 -0.0607,0.0113 -0.1058,0.0325l-0.0155 -0.0325z"/>
  <path class="fil1" d="M22.6739 28.2061l0.2589 2.2578 1.6263 -2.2578 0.6844 0 0 0.077c-0.1489,0.0091 -0.2364,0.019 -0.2625,0.0289 -0.0459,0.0176 -0.0875,0.0536 -0.1249,0.1072 -0.0381,0.0536 -0.079,0.1574 -0.1235,0.3105l-0.5185 1.7772c-0.0304,0.1038 -0.0452,0.1849 -0.0452,0.2442 0,0.0536 0.0184,0.0945 0.0557,0.122 0.0523,0.0395 0.1348,0.06 0.2477,0.06l0.0501 0 -0.0191 0.0762 -1.1803 0 0.0211 -0.0762 0.0558 0c0.1044,0 0.1841,-0.0155 0.2398,-0.0459 0.0424,-0.0218 0.0805,-0.0635 0.1143,-0.1248 0.0339,-0.0614 0.0812,-0.1976 0.1419,-0.4086l0.4628 -1.6241 -1.6348 2.2796 -0.0825 0 -0.2632 -2.2796 -0.5002 1.7342c-0.0423,0.1475 -0.0635,0.2462 -0.0635,0.297 0,0.0516 0.0183,0.0904 0.0557,0.1172 0.0367,0.0268 0.127,0.0451 0.271,0.055l-0.0233 0.0762 -0.9236 0 0.0226 -0.0762 0.0557 0c0.1362,0 0.235,-0.0346 0.2957,-0.1037 0.0437,-0.0494 0.0903,-0.1574 0.1382,-0.3225l0.6103 -2.0898c-0.0458,-0.0466 -0.0889,-0.0783 -0.1305,-0.0952 -0.0416,-0.0163 -0.1178,-0.0297 -0.2293,-0.0388l0.0205 -0.077 0.6964 0z"/>
  <path class="fil1" d="M25.829 31.5857l-0.098 0.2696 -0.8269 0 0 -0.0381c0.2434,-0.2223 0.4148,-0.4029 0.5136,-0.544 0.0995,-0.1404 0.1489,-0.2688 0.1489,-0.3853 0,-0.0889 -0.0268,-0.1622 -0.0812,-0.2194 -0.0543,-0.0571 -0.1199,-0.0854 -0.1954,-0.0854 -0.0692,0 -0.1305,0.0198 -0.1856,0.06 -0.055,0.0409 -0.0952,0.0995 -0.1213,0.1778l-0.0381 0c0.0169,-0.1277 0.0614,-0.2258 0.1326,-0.2935 0.0713,-0.0684 0.1602,-0.1023 0.2667,-0.1023 0.1143,0 0.2089,0.036 0.2851,0.1094 0.0762,0.0726 0.1143,0.1594 0.1143,0.2582 0,0.0713 -0.017,0.1418 -0.0494,0.2131 -0.0515,0.1114 -0.1341,0.23 -0.2484,0.3542 -0.1714,0.1876 -0.2787,0.3005 -0.3217,0.3393l0.3662 0c0.0741,0 0.1263,-0.0028 0.1566,-0.0084 0.0296,-0.0057 0.0571,-0.017 0.0811,-0.0339 0.024,-0.0162 0.0452,-0.0402 0.0628,-0.0713l0.0381 0z"/>
  <polygon class="fil0 str2" points="2.4604,14.5657 3.1158,15.3817 3.7713,16.1977 2.4604,16.1977 1.1495,16.1977 1.8049,15.3817 "/>
  <g id="_155630728">
   <line id="_156372712" class="fil0 str2" x1="4.2308" y1="16.2019" x2="0.9668" y2= "16.2019" />
   <g>
    <line id="_156420328" class="fil0 str2" x1="3.9164" y1="16.2468" x2="4.2008" y2= "16.8906" />
    <line id="_155095392" class="fil0 str2" x1="3.3338" y1="16.2468" x2="3.6183" y2= "16.8906" />
    <line id="_155915224" class="fil0 str2" x1="2.7512" y1="16.2468" x2="3.0357" y2= "16.8906" />
    <line id="_157663376" class="fil0 str2" x1="2.1686" y1="16.2468" x2="2.4531" y2= "16.8906" />
    <line id="_155900544" class="fil0 str2" x1="1.586" y1="16.2468" x2="1.8705" y2= "16.8906" />
    <line id="_156528056" class="fil0 str2" x1="1.0034" y1="16.2468" x2="1.2879" y2= "16.8906" />
   </g>
  </g>
  <polygon class="fil0 str2" points="71.446,14.7391 72.1015,15.5551 72.757,16.3711 71.446,16.3711 70.1351,16.3711 70.7906,15.5551 "/>
  <g id="_155840472">
   <line id="_154517720" class="fil0 str2" x1="73.2164" y1="16.3752" x2="69.9524" y2= "16.3752" />
   <g>
    <line id="_155330448" class="fil0 str2" x1="72.902" y1="16.4202" x2="73.1865" y2= "17.064" />
    <line id="_156700240" class="fil0 str2" x1="72.3194" y1="16.4202" x2="72.6039" y2= "17.064" />
    <line id="_156167120" class="fil0 str2" x1="71.7368" y1="16.4202" x2="72.0213" y2= "17.064" />
    <line id="_155714792" class="fil0 str2" x1="71.1542" y1="16.4202" x2="71.4387" y2= "17.064" />
    <line id="_155095712" class="fil0 str2" x1="70.5717" y1="16.4202" x2="70.8561" y2= "17.064" />
    <line id="_155098976" class="fil0 str2" x1="69.9891" y1="16.4202" x2="70.2736" y2= "17.064" />
   </g>
  </g>
  <circle class="fil2 str2" cx="71.446" cy="14.3544" r="0.360343"/>
  <circle class="fil2 str2" cx="2.46039" cy="14.1811" r="0.360343"/>
  <line class="fil0 str0" x1="2.8207" y1="14.1811" x2="71.446" y2= "14.1811" />
  <g>
   <path class="fil1" d="M36.6594 12.2596l0 -8.5041 0.1764 0 0 8.5041 -0.1764 0zm-0.061 0.3726l0.2984 -0.1935 -0.2984 0.0001 0.9096 -1.4032 0.2984 0.1934 -0.9096 1.4032 -0.2984 0zm0 0l0.2984 0 -0.1491 0.23 -0.1493 -0.23zm-0.7611 -1.4999l0.1491 -0.0968 0.9104 1.4032 -0.2984 0.1935 -0.9103 -1.4032 0.1492 -0.0967z"/>
  </g>
  <g>
   <path class="fil1" d="M36.3948 11.7801l0 -8.0246 0.7056 0 0 8.0246 -0.7056 0zm0.0568 0.7395l0.592 -0.384 -0.592 0.0001 1.8049 -2.7843 0.5921 0.3838 -1.805 2.7843 -0.592 0.0001zm0 0l0.592 -0.0001 -0.2959 0.4565 -0.2961 -0.4564zm-1.5103 -2.9763l0.2959 -0.192 1.8064 2.7843 -0.592 0.384 -1.8063 -2.7843 0.296 -0.192z"/>
  </g>
  <g>
   <path class="fil1" d="M19.188 12.1615l0 -8.0246 0.7056 0 0 8.0246 -0.7056 0zm0.0568 0.7395l0.592 -0.384 -0.592 0.0001 1.8049 -2.7843 0.5921 0.3838 -1.805 2.7843 -0.592 0.0001zm0 0l0.592 -0.0001 -0.2959 0.4565 -0.2961 -0.4564zm-1.5103 -2.9763l0.2959 -0.192 1.8064 2.7843 -0.592 0.384 -1.8063 -2.7843 0.296 -0.192z"/>
  </g>
  <g>
   <path class="fil1" d="M54.9859 11.2189l0 -8.0246 0.7056 0 0 8.0246 -0.7056 0zm0.0568 0.7395l0.592 -0.384 -0.592 0.0001 1.8049 -2.7843 0.5921 0.3838 -1.805 2.7843 -0.592 0.0001zm0 0l0.592 -0.0001 -0.2959 0.4565 -0.2961 -0.4564zm-1.5103 -2.9763l0.2959 -0.192 1.8064 2.7843 -0.592 0.384 -1.8063 -2.7843 0.296 -0.192z"/>
  </g>
  <path class="fil1" d="M40.9667 0.7436l-0.3309 1.1106 0.3683 0c0.1651,0 0.2893,-0.0261 0.3711,-0.0769 0.0819,-0.0508 0.1666,-0.1595 0.2533,-0.3267l0.0784 0 -0.2914 1.0209 -0.0826 0c0.0205,-0.0825 0.0311,-0.1503 0.0311,-0.2046 0,-0.084 -0.0283,-0.1489 -0.084,-0.1947 -0.0557,-0.0466 -0.1602,-0.0699 -0.3133,-0.0699l-0.3718 0 -0.2441 0.846c-0.0438,0.1503 -0.0663,0.2497 -0.0663,0.2991 0,0.0515 0.019,0.0903 0.0571,0.1179 0.0381,0.0282 0.1305,0.0465 0.278,0.0564l-0.0247 0.0762 -1.1077 0 0.0268 -0.0762c0.1072,-0.0028 0.1792,-0.0127 0.2145,-0.0289 0.055,-0.024 0.0959,-0.0558 0.122,-0.0953 0.0374,-0.0564 0.0812,-0.1728 0.1327,-0.3492l0.4939 -1.6891c0.0395,-0.1362 0.0599,-0.2434 0.0599,-0.3203 0,-0.036 -0.0091,-0.0664 -0.0268,-0.0918 -0.0183,-0.0254 -0.0444,-0.0444 -0.0797,-0.0571 -0.0353,-0.012 -0.1051,-0.0183 -0.2095,-0.0183l0.0247 -0.077 2.1745 0 -0.2068 0.7091 -0.079 0c0.0155,-0.0853 0.0233,-0.1552 0.0233,-0.2109 0,-0.091 -0.0254,-0.163 -0.0755,-0.2159 -0.0508,-0.0529 -0.115,-0.0903 -0.1933,-0.1122 -0.0551,-0.0141 -0.1785,-0.0212 -0.3704,-0.0212l-0.5518 0z"/>
  <path class="fil1" d="M42.4244 2.9795l0.3407 -0.1658 0.0339 0 0 1.1832c0,0.0783 0.0035,0.1277 0.0099,0.1468 0.007,0.019 0.0204,0.0338 0.0409,0.0444 0.0205,0.0106 0.0628,0.0162 0.1263,0.0177l0 0.0381 -0.5271 0 0 -0.0381c0.0657,-0.0015 0.1087,-0.0071 0.1278,-0.017 0.0197,-0.0106 0.0331,-0.024 0.0402,-0.0409 0.0077,-0.0162 0.012,-0.067 0.012,-0.151l0 -0.7563c0,-0.1023 -0.0036,-0.168 -0.0106,-0.1969 -0.005,-0.0219 -0.0134,-0.0381 -0.0261,-0.0487 -0.0127,-0.0098 -0.0282,-0.0155 -0.0466,-0.0155 -0.0254,0 -0.0607,0.0113 -0.1058,0.0325l-0.0155 -0.0325z"/>
  <path class="fil1" d="M58.3828 3.362l-0.3309 1.1106 0.3683 0c0.1651,0 0.2893,-0.0261 0.3711,-0.0769 0.0819,-0.0508 0.1666,-0.1595 0.2533,-0.3267l0.0784 0 -0.2914 1.0209 -0.0826 0c0.0205,-0.0825 0.0311,-0.1503 0.0311,-0.2046 0,-0.084 -0.0283,-0.1489 -0.084,-0.1947 -0.0557,-0.0466 -0.1602,-0.0699 -0.3133,-0.0699l-0.3718 0 -0.2441 0.846c-0.0438,0.1503 -0.0663,0.2497 -0.0663,0.2991 0,0.0515 0.019,0.0903 0.0571,0.1179 0.0381,0.0282 0.1305,0.0465 0.278,0.0564l-0.0247 0.0762 -1.1077 0 0.0268 -0.0762c0.1072,-0.0028 0.1792,-0.0127 0.2145,-0.0289 0.055,-0.024 0.0959,-0.0558 0.122,-0.0953 0.0374,-0.0564 0.0812,-0.1728 0.1327,-0.3492l0.4939 -1.6891c0.0395,-0.1362 0.0599,-0.2434 0.0599,-0.3203 0,-0.036 -0.0091,-0.0664 -0.0268,-0.0918 -0.0183,-0.0254 -0.0444,-0.0444 -0.0797,-0.0571 -0.0353,-0.012 -0.1051,-0.0183 -0.2095,-0.0183l0.0247 -0.077 2.1745 0 -0.2068 0.7091 -0.079 0c0.0155,-0.0853 0.0233,-0.1552 0.0233,-0.2109 0,-0.091 -0.0254,-0.163 -0.0755,-0.2159 -0.0508,-0.0529 -0.115,-0.0903 -0.1933,-0.1122 -0.0551,-0.0141 -0.1785,-0.0212 -0.3704,-0.0212l-0.5518 0z"/>
  <path class="fil1" d="M60.5622 6.5927l-0.098 0.2696 -0.8269 0 0 -0.0381c0.2434,-0.2223 0.4148,-0.4029 0.5136,-0.544 0.0995,-0.1404 0.1489,-0.2688 0.1489,-0.3853 0,-0.0889 -0.0268,-0.1622 -0.0812,-0.2194 -0.0543,-0.0571 -0.1199,-0.0854 -0.1954,-0.0854 -0.0692,0 -0.1305,0.0198 -0.1856,0.06 -0.055,0.0409 -0.0952,0.0995 -0.1213,0.1778l-0.0381 0c0.0169,-0.1277 0.0614,-0.2258 0.1326,-0.2935 0.0713,-0.0684 0.1602,-0.1023 0.2667,-0.1023 0.1143,0 0.2089,0.036 0.2851,0.1094 0.0762,0.0726 0.1143,0.1594 0.1143,0.2582 0,0.0713 -0.017,0.1418 -0.0494,0.2131 -0.0515,0.1114 -0.1341,0.23 -0.2484,0.3542 -0.1714,0.1876 -0.2787,0.3005 -0.3217,0.3393l0.3662 0c0.0741,0 0.1263,-0.0028 0.1566,-0.0084 0.0296,-0.0057 0.0571,-0.017 0.0811,-0.0339 0.024,-0.0162 0.0452,-0.0402 0.0628,-0.0713l0.0381 0z"/>
  <path class="fil1" d="M21.2897 3.8684l-0.3309 1.1106 0.3683 0c0.1651,0 0.2893,-0.0261 0.3711,-0.0769 0.0819,-0.0508 0.1666,-0.1595 0.2533,-0.3267l0.0784 0 -0.2914 1.0209 -0.0826 0c0.0205,-0.0825 0.0311,-0.1503 0.0311,-0.2046 0,-0.084 -0.0283,-0.1489 -0.084,-0.1947 -0.0557,-0.0466 -0.1602,-0.0699 -0.3133,-0.0699l-0.3718 0 -0.2441 0.846c-0.0438,0.1503 -0.0663,0.2497 -0.0663,0.2991 0,0.0515 0.019,0.0903 0.0571,0.1179 0.0381,0.0282 0.1305,0.0465 0.278,0.0564l-0.0247 0.0762 -1.1077 0 0.0268 -0.0762c0.1072,-0.0028 0.1792,-0.0127 0.2145,-0.0289 0.055,-0.024 0.0959,-0.0558 0.122,-0.0953 0.0374,-0.0564 0.0812,-0.1728 0.1327,-0.3492l0.4939 -1.6891c0.0395,-0.1362 0.0599,-0.2434 0.0599,-0.3203 0,-0.036 -0.0091,-0.0664 -0.0268,-0.0918 -0.0183,-0.0254 -0.0444,-0.0444 -0.0797,-0.0571 -0.0353,-0.012 -0.1051,-0.0183 -0.2095,-0.0183l0.0247 -0.077 2.1745 0 -0.2068 0.7091 -0.079 0c0.0155,-0.0853 0.0233,-0.1552 0.0233,-0.2109 0,-0.091 -0.0254,-0.163 -0.0755,-0.2159 -0.0508,-0.0529 -0.115,-0.0903 -0.1933,-0.1122 -0.0551,-0.0141 -0.1785,-0.0212 -0.3704,-0.0212l-0.5518 0z"/>
  <path class="fil1" d="M23.4691 7.0991l-0.098 0.2696 -0.8269 0 0 -0.0381c0.2434,-0.2223 0.4148,-0.4029 0.5136,-0.544 0.0995,-0.1404 0.1489,-0.2688 0.1489,-0.3853 0,-0.0889 -0.0268,-0.1622 -0.0812,-0.2194 -0.0543,-0.0571 -0.1199,-0.0854 -0.1954,-0.0854 -0.0692,0 -0.1305,0.0198 -0.1856,0.06 -0.055,0.0409 -0.0952,0.0995 -0.1213,0.1778l-0.0381 0c0.0169,-0.1277 0.0614,-0.2258 0.1326,-0.2935 0.0713,-0.0684 0.1602,-0.1023 0.2667,-0.1023 0.1143,0 0.2089,0.036 0.2851,0.1094 0.0762,0.0726 0.1143,0.1594 0.1143,0.2582 0,0.0713 -0.017,0.1418 -0.0494,0.2131 -0.0515,0.1114 -0.1341,0.23 -0.2484,0.3542 -0.1714,0.1876 -0.2787,0.3005 -0.3217,0.3393l0.3662 0c0.0741,0 0.1263,-0.0028 0.1566,-0.0084 0.0296,-0.0057 0.0571,-0.017 0.0811,-0.0339 0.024,-0.0162 0.0452,-0.0402 0.0628,-0.0713l0.0381 0z"/>
 </g>
</svg>
