<?xml version="1.0" encoding="UTF-8"?>
<!DOCTYPE svg PUBLIC "-//W3C//DTD SVG 1.1//EN" "http://www.w3.org/Graphics/SVG/1.1/DTD/svg11.dtd">
<!-- Creator: CorelDRAW -->
<svg xmlns="http://www.w3.org/2000/svg" xml:space="preserve" width="27mm" height="32mm" style="shape-rendering:geometricPrecision; text-rendering:geometricPrecision; image-rendering:optimizeQuality; fill-rule:evenodd; clip-rule:evenodd"
viewBox="0 0 27 32">
 <defs>
  <style type="text/css">
   <![CDATA[
    .str1 {stroke:#131516;stroke-width:0.1764}
    .str0 {stroke:#1F1A17;stroke-width:0.3528}
    .fil0 {fill:none}
    .fil1 {fill:#1F1A17;fill-rule:nonzero}
   ]]>
  </style>
 </defs>
 <g id="Layer_x0020_1">
  <metadata id="CorelCorpID_0Corel-Layer"/>
  <line class="fil0 str0" x1="17.9559" y1="29.7091" x2="17.9559" y2= "5.8633" />
  <g>
   <path class="fil1" d="M18.8328 5.8584l8.0799 0 0 0.1764 -8.0799 0 0 -0.1764zm-0.3726 -0.061l0.1935 0.2984 -0.0001 -0.2984 1.4032 0.9096 -0.1934 0.2984 -1.4032 -0.9096 0 -0.2984zm0 0l0 0.2984 -0.23 -0.1491 0.23 -0.1493zm1.4999 -0.7611l0.0968 0.1491 -1.4032 0.9104 -0.1935 -0.2984 1.4032 -0.9103 0.0967 0.1492z"/>
  </g>
  <g>
   <line class="fil0 str1" x1="20.9692" y1="29.7268" x2="15.152" y2= "29.7268" />
   <g id="_156220032">
    <line id="_155714392" class="fil0 str1" x1="20.4088" y1="29.8068" x2="20.9158" y2= "30.9543" />
    <line id="_155449728" class="fil0 str1" x1="19.3705" y1="29.8068" x2="19.8775" y2= "30.9543" />
    <line id="_156181688" class="fil0 str1" x1="18.3322" y1="29.8068" x2="18.8392" y2= "30.9543" />
    <line id="_156334824" class="fil0 str1" x1="17.2939" y1="29.8068" x2="17.8009" y2= "30.9543" />
    <line id="_154481688" class="fil0 str1" x1="16.2556" y1="29.8068" x2="16.7626" y2= "30.9543" />
    <line id="_153022672" class="fil0 str1" x1="15.2173" y1="29.8068" x2="15.7243" y2= "30.9543" />
   </g>
  </g>
  <path class="fil1" d="M22.2295 1.0185l1.1035 0c0.2893,0 0.5059,0.0628 0.6491,0.187 0.1432,0.1249 0.2152,0.2773 0.2152,0.4558 0,0.1425 -0.0459,0.2801 -0.1369,0.4135 -0.091,0.134 -0.2258,0.2427 -0.405,0.3259 -0.1792,0.0833 -0.3725,0.1249 -0.5806,0.1249 -0.1299,0 -0.2943,-0.0233 -0.4939,-0.0706l-0.2237 0.7649c-0.0522,0.182 -0.0783,0.3019 -0.0783,0.3598 0,0.0444 0.0183,0.0804 0.0557,0.1094 0.0374,0.0296 0.1263,0.0479 0.2667,0.0564l-0.0204 0.0762 -1.1148 0 0.0233 -0.0762c0.146,0 0.2476,-0.0254 0.3048,-0.0755 0.0571,-0.0508 0.1185,-0.1891 0.1848,-0.417l0.4629 -1.5952c0.055,-0.1919 0.0825,-0.3203 0.0825,-0.3845 0,-0.0487 -0.019,-0.0882 -0.0585,-0.12 -0.0395,-0.0317 -0.1256,-0.0508 -0.2597,-0.0578l0.0233 -0.077zm0.3859 1.3067c0.156,0.0402 0.2816,0.06 0.3768,0.06 0.1496,0 0.2865,-0.031 0.4099,-0.0931 0.1235,-0.0621 0.2202,-0.1553 0.2893,-0.2787 0.0699,-0.1242 0.1044,-0.2533 0.1044,-0.3867 0,-0.1397 -0.0423,-0.2497 -0.1277,-0.3309 -0.0861,-0.0811 -0.2152,-0.122 -0.3887,-0.122 -0.0939,0 -0.2075,0.012 -0.3415,0.0352l-0.3225 1.1162z"/>
  <path class="fil1" d="M24.8852 3.2375c0.0881,0 0.1622,0.0367 0.2229,0.1101 0.06,0.0741 0.0903,0.1905 0.0903,0.3499 0,0.1362 -0.0226,0.2752 -0.067,0.417 -0.0452,0.1418 -0.108,0.2653 -0.1891,0.369 -0.0649,0.0818 -0.1326,0.1411 -0.2039,0.1778 -0.0409,0.0212 -0.0889,0.031 -0.1439,0.031 -0.0889,0 -0.1644,-0.0366 -0.2244,-0.1107 -0.0607,-0.0734 -0.0903,-0.1905 -0.0903,-0.35 0,-0.158 0.0303,-0.3161 0.091,-0.4755 0.0706,-0.1863 0.1616,-0.3274 0.2716,-0.4241 0.072,-0.0627 0.1532,-0.0945 0.2428,-0.0945zm0.0014 0.0536c-0.0402,0 -0.0805,0.0155 -0.1221,0.0466 -0.0409,0.0317 -0.0832,0.0967 -0.127,0.1961 -0.0437,0.0995 -0.0854,0.2272 -0.1256,0.3839 -0.0515,0.2046 -0.0776,0.3788 -0.0776,0.5228 0,0.0712 0.0155,0.1248 0.0466,0.1608 0.031,0.0353 0.0691,0.0529 0.1129,0.0529 0.0423,0 0.0776,-0.0141 0.1072,-0.0416 0.0797,-0.0741 0.1475,-0.2011 0.2039,-0.381 0.0917,-0.2942 0.1376,-0.5334 0.1376,-0.7175 0,-0.0762 -0.0155,-0.1327 -0.0466,-0.1686 -0.031,-0.0367 -0.0677,-0.0544 -0.1093,-0.0544z"/>
  <g>
   <path class="fil1" d="M4.2186 30.2267l-0.0008 -0.2983 1.4005 -0.9137 0.1943 0.2978 -1.4005 0.9137 -0.0008 -0.2984 -0.1927 0.2989zm0 0l-0.2304 -0.1485 0.2296 -0.1498 0.0008 0.2983zm1.5022 0.7568l-0.0964 0.1495 -1.4058 -0.9063 0.1927 -0.2989 1.4058 0.9063 -0.0963 0.1494zm10.1179 -0.8519l-11.2479 0.0328 0 -0.1758 11.2479 -0.0328 0 0.1758z"/>
  </g>
  <path class="fil1" d="M3.516 25.6393c0.0466,0.0797 0.079,0.1545 0.0974,0.2236 0.0176,0.0699 0.0353,0.2068 0.0536,0.4107l0.091 1.0167c0.0826,-0.0988 0.2025,-0.2561 0.3599,-0.4713 0.0754,-0.1045 0.1693,-0.247 0.2808,-0.4276 0.0677,-0.1101 0.1086,-0.1877 0.1241,-0.2314 0.0078,-0.0219 0.012,-0.0452 0.012,-0.0685 0,-0.0148 -0.0042,-0.0275 -0.0141,-0.0373 -0.0099,-0.0092 -0.0346,-0.0205 -0.0755,-0.0339 -0.0409,-0.0127 -0.0748,-0.0374 -0.1016,-0.072 -0.0268,-0.0353 -0.0402,-0.0755 -0.0402,-0.1213 0,-0.0565 0.0169,-0.1016 0.0501,-0.1362 0.0325,-0.0346 0.0741,-0.0515 0.1235,-0.0515 0.0607,0 0.1122,0.0247 0.1552,0.0755 0.043,0.0501 0.0642,0.1192 0.0642,0.2074 0,0.1087 -0.0374,0.2335 -0.1115,0.3732 -0.0748,0.1397 -0.218,0.3542 -0.4304,0.6435 -0.2116,0.29 -0.4692,0.6054 -0.7704,0.9469 -0.2082,0.2356 -0.3627,0.3845 -0.4636,0.4459 -0.1002,0.0606 -0.1862,0.0917 -0.2582,0.0917 -0.043,0 -0.0804,-0.0162 -0.1129,-0.0487 -0.0324,-0.0325 -0.048,-0.0698 -0.048,-0.1129 0,-0.0536 0.0219,-0.1023 0.0671,-0.1467 0.0444,-0.0438 0.0931,-0.0657 0.1453,-0.0657 0.0275,0 0.0508,0.0057 0.0684,0.0184 0.0113,0.007 0.0233,0.0268 0.036,0.0593 0.0134,0.0317 0.0254,0.0536 0.0367,0.0649 0.0064,0.007 0.0148,0.0098 0.0247,0.0098 0.0078,0 0.0226,-0.0063 0.043,-0.0204 0.0762,-0.0466 0.1644,-0.1214 0.2646,-0.223 0.1327,-0.1354 0.23,-0.2455 0.2935,-0.3309l-0.1157 -1.3102c-0.019,-0.2166 -0.0479,-0.3485 -0.0868,-0.3951 -0.0388,-0.0466 -0.103,-0.0705 -0.194,-0.0705 -0.0289,0 -0.0811,0.0042 -0.1552,0.0127l-0.0183 -0.0762 0.6053 -0.1489z"/>
 </g>
</svg>
