<?xml version="1.0" encoding="UTF-8"?>
<!DOCTYPE svg PUBLIC "-//W3C//DTD SVG 1.1//EN" "http://www.w3.org/Graphics/SVG/1.1/DTD/svg11.dtd">
<!-- Creator: CorelDRAW -->
<svg xmlns="http://www.w3.org/2000/svg" xml:space="preserve" width="67mm" height="43mm" style="shape-rendering:geometricPrecision; text-rendering:geometricPrecision; image-rendering:optimizeQuality; fill-rule:evenodd; clip-rule:evenodd"
viewBox="0 0 67 37.1485">
 <defs>
  <style type="text/css">
   <![CDATA[
    .str0 {stroke:#1F1A17;stroke-width:0.117018}
    .str1 {stroke:#131516;stroke-width:0.117018}
    .fil0 {fill:none}
    .fil2 {fill:#1F1A17;fill-rule:nonzero}
    .fil3 {fill:url(#id0)}
    .fil1 {fill:url(#id1)}
   ]]>
  </style>
  <linearGradient id="id0" gradientUnits="userSpaceOnUse" x1="41.3357" y1="13.2609" x2="62.56" y2="13.2609">
   <stop offset="0" style="stop-color:#DEDEDD"/>
   <stop offset="1" style="stop-color:#DEDEDD"/>
  </linearGradient>
  <linearGradient id="id1" gradientUnits="userSpaceOnUse" x1="8.48472" y1="7.01928" x2="8.48472" y2="6.37654">
   <stop offset="0" style="stop-color:white"/>
   <stop offset="1" style="stop-color:white"/>
  </linearGradient>
 </defs>
 <g id="Layer_x0020_1">
  <metadata id="CorelCorpID_0Corel-Layer"/>
  <rect class="fil0 str0" transform="matrix(1.06836 -0.757045 0.757045 1.06836 8.3079 7.07807)" width="0.474307" height="12.5284"/>
  <polygon class="fil0 str1" points="8.14169,6.69788 7.41391,7.2825 6.68607,7.86713 6.68607,6.69788 6.68607,5.52869 7.41391,6.11332 "/>
  <g id="_209221112">
   <line id="_209224720" class="fil0 str1" x1="5.86462" y1="8.29281" x2="5.86462" y2= "5.38163" />
   <g>
    <line id="_209224264" class="fil0 str1" x1="5.82456" y1="8.01234" x2="5.25035" y2= "8.26608" />
    <line id="_209223808" class="fil0 str1" x1="5.82456" y1="7.49272" x2="5.25035" y2= "7.74646" />
    <line id="_209223216" class="fil0 str1" x1="5.82456" y1="6.97311" x2="5.25035" y2= "7.22685" />
    <line id="_209222760" class="fil0 str1" x1="5.82456" y1="6.45356" x2="5.25035" y2= "6.70723" />
    <line id="_209222304" class="fil0 str1" x1="5.82456" y1="5.93394" x2="5.25035" y2= "6.18762" />
    <line id="_209221848" class="fil0 str1" x1="5.82456" y1="5.41433" x2="5.25035" y2= "5.66807" />
   </g>
  </g>
  <circle class="fil1 str1" transform="matrix(-1.27584E-013 -0.688188 -0.688188 1.27584E-013 8.48475 6.6979)" r="0.46701"/>
  <polygon class="fil0 str1" points="18.1081,20.6561 17.5236,21.3839 16.9389,22.1117 18.1081,22.1117 19.2774,22.1117 18.6927,21.3839 "/>
  <g id="_208917320">
   <line id="_208920488" class="fil0 str1" x1="16.5291" y1="22.1154" x2="19.4403" y2= "22.1154" />
   <g>
    <line id="_208920152" class="fil0 str1" x1="16.8096" y1="22.1555" x2="16.5558" y2= "22.7297" />
    <line id="_208919696" class="fil0 str1" x1="17.3292" y1="22.1555" x2="17.0754" y2= "22.7297" />
    <line id="_208919240" class="fil0 str1" x1="17.8488" y1="22.1555" x2="17.5951" y2= "22.7297" />
    <line id="_208918648" class="fil0 str1" x1="18.3684" y1="22.1555" x2="18.1147" y2= "22.7297" />
    <line id="_208918336" class="fil0 str1" x1="18.888" y1="22.1555" x2="18.6343" y2= "22.7297" />
    <line id="_208918024" class="fil0 str1" x1="19.4076" y1="22.1555" x2="19.1539" y2= "22.7297" />
   </g>
  </g>
  <circle class="fil1 str1" cx="18.1081" cy="20.3131" r="0.321391"/>
  <circle class="fil0 str1" transform="matrix(-1.27584E-013 -0.688188 -0.688188 1.27584E-013 6.27027 6.6979)" r="0.46701"/>
  <g>
   <path class="fil2" d="M13.3734 12.9073l-0.197949 0 -0.603398 -0.930836 0.197949 -0.128295 0.603398 0.930836 -0.197949 -6.63366e-005 0.197949 0.128361zm0 0l-0.0990406 0.152574 -0.0989079 -0.152574 0.197949 0zm0.504888 -0.994983l0.0989743 0.0641475 -0.603862 0.930836 -0.197949 -0.128361 0.603929 -0.930836 0.0989079 0.0642139zm-0.486845 -4.9253l0 5.67311 -0.234036 0 0 -5.67311 0.234036 0z"/>
  </g>
  <path class="fil2" d="M11.6479 23.2343l-0.267204 0.929509 -0.0299842 0.124978c-0.00278614,0.0116752 -0.00424554,0.0214931 -0.00424554,0.0299178 0,0.0145277 0.0047099,0.0276624 0.013599,0.0384089 0.00749604,0.00842475 0.0163851,0.0121396 0.027596,0.0121396 0.0117416,0 0.027198,-0.00696535 0.0463693,-0.0214931 0.0360208,-0.0266673 0.0833188,-0.0814614 0.142756,-0.16478l0.0467673 0.0327703c-0.0631525,0.0950604 -0.128229,0.167566 -0.194698,0.21765 -0.0669337,0.0496198 -0.128693,0.0744297 -0.185345,0.0744297 -0.0392713,0 -0.0687911,-0.00981782 -0.0884267,-0.0295198 -0.019702,-0.0196356 -0.0295198,-0.0481604 -0.0295198,-0.0856406 0,-0.0444455 0.0103485,-0.103419 0.0304485,-0.17692l0.0285248 -0.10249c-0.119804,0.156355 -0.22979,0.265413 -0.330423,0.327637 -0.0720416,0.0444455 -0.143221,0.0669337 -0.212476,0.0669337 -0.0669337,0 -0.124514,-0.027596 -0.172741,-0.0828545 -0.0486248,-0.0551921 -0.0725059,-0.131546 -0.0725059,-0.228397 0,-0.145078 0.0435168,-0.298581 0.13055,-0.460111 0.0875644,-0.160999 0.198479,-0.290156 0.332811,-0.387008 0.104812,-0.0768178 0.204051,-0.11516 0.297652,-0.11516 0.0557228,0 0.102026,0.0145277 0.139042,0.0435168 0.0369495,0.0295198 0.0650099,0.0776802 0.0842475,0.145543l0.0495535 -0.156289 0.21765 -0.0327703zm-0.488171 0.0711129c-0.0585089,0 -0.120268,0.0276624 -0.186273,0.0823901 -0.0931366,0.0776802 -0.175991,0.192841 -0.248961,0.345415 -0.0725723,0.152574 -0.109057,0.290621 -0.109057,0.414206 0,0.0622901 0.0159208,0.111379 0.0467673,0.147466 0.0309129,0.0360208 0.0669337,0.053799 0.1072,0.053799 0.0992396,0 0.207833,-0.073501 0.32485,-0.220437 0.156289,-0.195627 0.234434,-0.396428 0.234434,-0.601872 0,-0.0777465 -0.0149257,-0.133867 -0.0453743,-0.169026 -0.0299842,-0.0346277 -0.0711129,-0.0519416 -0.123585,-0.0519416z"/>
  <g>
   <path class="fil2" d="M13.4962 25.85l-0.00079604 -0.197949 0.928182 -0.607378 0.129224 0.197351 -0.928249 0.607445 -0.00079604 -0.197949 -0.127565 0.198479zm0 0l-0.152972 -0.0983772 0.152176 -0.0995713 0.00079604 0.197949zm0.997172 0.500643l-0.0637495 0.0992396 -0.933423 -0.599882 0.127565 -0.198479 0.933356 0.599882 -0.0637495 0.0992396zm3.33036 -0.559948l-4.08057 0.0176455 -0.00039802 -0.11662 4.08057 -0.0176455 0.00039802 0.11662zm0.247436 0.039603l-0.129224 -0.197285 0.000862376 0.197882 -0.933423 -0.599418 0.127499 -0.198479 0.933356 0.599418 0.000928713 0.197882zm0 0l-0.000928713 -0.197882 0.153039 0.0982446 -0.15211 0.0996376zm-0.99286 0.509266l-0.0646119 -0.0987089 0.928249 -0.607843 0.129224 0.197285 -0.928249 0.607909 -0.0646119 -0.0986426z"/>
  </g>
  <line class="fil0 str0" x1="13.3841" y1="24.6395" x2="13.3841" y2= "27.2229" />
  <line class="fil0 str0" x1="18.1467" y1="24.4393" x2="18.1467" y2= "27.0227" />
  <g>
   <path class="fil2" d="M8.74741 25.8448l-0.00079604 -0.197949 0.928182 -0.607378 0.129224 0.197351 -0.928249 0.607445 -0.00079604 -0.197949 -0.127565 0.198479zm0 0l-0.152972 -0.0983772 0.152176 -0.0995713 0.00079604 0.197949zm0.997172 0.500643l-0.0637495 0.0992396 -0.933423 -0.599882 0.127565 -0.198479 0.933356 0.599882 -0.0637495 0.0992396zm3.33036 -0.559948l-4.08057 0.0176455 -0.00039802 -0.11662 4.08057 -0.0176455 0.00039802 0.11662zm0.247436 0.039603l-0.129224 -0.197285 0.000862376 0.197882 -0.933423 -0.599418 0.127499 -0.198479 0.933356 0.599418 0.000928713 0.197882zm0 0l-0.000928713 -0.197882 0.153039 0.0982446 -0.15211 0.0996376zm-0.99286 0.509266l-0.0646119 -0.0987089 0.928249 -0.607843 0.129224 0.197285 -0.928249 0.607909 -0.0646119 -0.0986426z"/>
  </g>
  <line class="fil0 str0" x1="8.6353" y1="24.6343" x2="8.6353" y2= "27.2177" />
  <path class="fil2" d="M16.6697 23.3864l-0.267204 0.929509 -0.0299842 0.124978c-0.00278614,0.0116752 -0.00424554,0.0214931 -0.00424554,0.0299178 0,0.0145277 0.0047099,0.0276624 0.013599,0.0384089 0.00749604,0.00842475 0.0163851,0.0121396 0.027596,0.0121396 0.0117416,0 0.027198,-0.00696535 0.0463693,-0.0214931 0.0360208,-0.0266673 0.0833188,-0.0814614 0.142756,-0.16478l0.0467673 0.0327703c-0.0631525,0.0950604 -0.128229,0.167566 -0.194698,0.21765 -0.0669337,0.0496198 -0.128693,0.0744297 -0.185345,0.0744297 -0.0392713,0 -0.0687911,-0.00981782 -0.0884267,-0.0295198 -0.019702,-0.0196356 -0.0295198,-0.0481604 -0.0295198,-0.0856406 0,-0.0444455 0.0103485,-0.103419 0.0304485,-0.17692l0.0285248 -0.10249c-0.119804,0.156355 -0.22979,0.265413 -0.330423,0.327637 -0.0720416,0.0444455 -0.143221,0.0669337 -0.212476,0.0669337 -0.0669337,0 -0.124514,-0.027596 -0.172741,-0.0828545 -0.0486248,-0.0551921 -0.0725059,-0.131546 -0.0725059,-0.228397 0,-0.145078 0.0435168,-0.298581 0.13055,-0.460111 0.0875644,-0.160999 0.198479,-0.290156 0.332811,-0.387008 0.104812,-0.0768178 0.204051,-0.11516 0.297652,-0.11516 0.0557228,0 0.102026,0.0145277 0.139042,0.0435168 0.0369495,0.0295198 0.0650099,0.0776802 0.0842475,0.145543l0.0495535 -0.156289 0.21765 -0.0327703zm-0.488171 0.0711129c-0.0585089,0 -0.120268,0.0276624 -0.186273,0.0823901 -0.0931366,0.0776802 -0.175991,0.192841 -0.248961,0.345415 -0.0725723,0.152574 -0.109057,0.290621 -0.109057,0.414206 0,0.0622901 0.0159208,0.111379 0.0467673,0.147466 0.0309129,0.0360208 0.0669337,0.053799 0.1072,0.053799 0.0992396,0 0.207833,-0.073501 0.32485,-0.220437 0.156289,-0.195627 0.234434,-0.396428 0.234434,-0.601872 0,-0.0777465 -0.0149257,-0.133867 -0.0453743,-0.169026 -0.0299842,-0.0346277 -0.0711129,-0.0519416 -0.123585,-0.0519416z"/>
  <line class="fil0 str0" x1="2.26089" y1="6.73768" x2="4.84423" y2= "6.73768" />
  <g>
   <path class="fil2" d="M3.46629 20.2321l-0.197949 0.000265347 -0.604791 -0.929907 0.19775 -0.128627 0.604791 0.929907 -0.197882 0.000265347 0.198081 0.128096zm0 0l-0.0987752 0.152707 -0.0991733 -0.152442 0.197949 -0.000265347zm0.503429 -0.995779l0.0990406 0.0640812 -0.602469 0.931698 -0.198081 -0.128096 0.602469 -0.931698 0.0990406 0.0640149zm-0.563795 -12.2154l0.0193703 12.9641 -0.11662 0 -0.0193703 -12.9641 0.11662 0zm0.0402663 -0.247369l-0.197683 0.128693 0.197949 -0.000331683 -0.602071 0.931764 -0.198148 -0.12803 0.602071 -0.931764 0.197882 -0.000331683zm0 0l-0.197882 0.000331683 0.0987089 -0.152707 0.0991733 0.152375zm0.506414 0.99432l-0.0988416 0.0643465 -0.605255 -0.929973 0.197683 -0.128693 0.605322 0.929973 -0.0989079 0.0643465z"/>
  </g>
  <line class="fil0 str0" x1="2.25564" y1="20.4111" x2="4.83899" y2= "20.4111" />
  <path class="fil2" d="M1.49138 12.2533l-0.385217 1.33158c0.166173,-0.250421 0.295795,-0.417058 0.389396,-0.499449 0.0931366,-0.0818594 0.182094,-0.123054 0.26727,-0.123054 0.0439812,0 0.0804663,0.0149921 0.109522,0.0449099 0.0294535,0.0304485 0.0439812,0.0707149 0.0439812,0.120799 0,0.0603663 -0.012604,0.133337 -0.0383426,0.219508l-0.167102 0.574276c-0.021095,0.0697198 -0.0318416,0.108062 -0.0318416,0.115094 0,0.0131347 0.00371485,0.0234168 0.0116752,0.0318416 0.0079604,0.0079604 0.0168495,0.0122059 0.0267337,0.0122059 0.0121396,0 0.0257386,-0.00563861 0.0411287,-0.0178446 0.0520079,-0.0402 0.10395,-0.0959228 0.154962,-0.167036l0.0425881 0.0257386c-0.0309129,0.0486248 -0.0744297,0.102026 -0.129688,0.16007 -0.0551921,0.0580446 -0.102954,0.0982446 -0.14269,0.120733 -0.039802,0.0220238 -0.0748941,0.0332347 -0.106271,0.0332347 -0.033699,0 -0.061295,-0.0107465 -0.0828545,-0.0323059 -0.0214931,-0.0210287 -0.0323059,-0.0491554 -0.0323059,-0.0828545 0,-0.0402663 0.0159208,-0.115094 0.0482267,-0.224616l0.157749 -0.548538c0.0201,-0.0688574 0.0299178,-0.122656 0.0299178,-0.161994 0,-0.0182426 -0.00557228,-0.0327703 -0.0168495,-0.0439812 -0.0116752,-0.0107465 -0.0266673,-0.0163851 -0.0449099,-0.0163851 -0.026203,0 -0.0566515,0.0102822 -0.0903505,0.0304485 -0.0622238,0.0383426 -0.133867,0.109522 -0.215262,0.213869 -0.0220238,0.0280604 -0.0950604,0.142292 -0.219508,0.342629 -0.0384089,0.0640812 -0.0697861,0.133867 -0.094596,0.20969l-0.087498 0.281267 -0.205909 0 0.451155 -1.56886 0.0482267 -0.169888c0,-0.0238812 -0.00981782,-0.0449762 -0.0295198,-0.0632188 -0.0196356,-0.0182426 -0.0439812,-0.0271317 -0.0720416,-0.0271317 -0.0163851,0 -0.0416594,0.00278614 -0.0753584,0.0079604l-0.0290554 0.00424554 0 -0.053401 0.474639 -0.0795376z"/>
  <path class="fil2" d="M15.1826 5.69195l-0.219508 0.736735 0.244318 0c0.109522,0 0.191912,-0.0173139 0.246175,-0.0510129 0.0543297,-0.033699 0.110517,-0.105807 0.168031,-0.216722l0.0520079 0 -0.193305 0.677231 -0.0547941 0c0.013599,-0.0547277 0.0206307,-0.099704 0.0206307,-0.135725 0,-0.0557228 -0.0187733,-0.0987752 -0.0557228,-0.129157 -0.0369495,-0.0309129 -0.106271,-0.0463693 -0.207833,-0.0463693l-0.24664 0 -0.161928 0.561208c-0.0290554,0.099704 -0.0439812,0.165643 -0.0439812,0.198413 0,0.0341634 0.012604,0.059902 0.0378782,0.0782109 0.0252743,0.0187069 0.0865693,0.0308465 0.184416,0.0374139l-0.0163851 0.0505485 -0.734811 0 0.0177782 -0.0505485c0.0711129,-0.00185743 0.118875,-0.00842475 0.142292,-0.0191713 0.0364851,-0.0159208 0.0636168,-0.0370158 0.0809307,-0.0632188 0.0248099,-0.0374139 0.0538653,-0.11463 0.0880287,-0.231648l0.327637 -1.12049c0.026203,-0.0903505 0.0397356,-0.161463 0.0397356,-0.212476 0,-0.0238812 -0.00603663,-0.0440475 -0.0177782,-0.060897 -0.0121396,-0.0168495 -0.0294535,-0.0294535 -0.0528703,-0.0378782 -0.0234168,-0.0079604 -0.0697198,-0.0121396 -0.138975,-0.0121396l0.0163851 -0.0510792 1.44249 0 -0.137184 0.470393 -0.0524059 0c0.0102822,-0.0565851 0.0154564,-0.102954 0.0154564,-0.139904 0,-0.0603663 -0.0168495,-0.108129 -0.0500842,-0.143221 -0.033699,-0.0350921 -0.0762871,-0.059902 -0.128229,-0.0744297 -0.0365515,-0.00935347 -0.118411,-0.0140634 -0.245711,-0.0140634l-0.366046 0z"/>
  <rect class="fil3 str0" x="41.3357" y="6.49509" width="21.2243" height="13.5317"/>
  <polygon class="fil0 str1" points="62.7022,6.44308 63.43,7.0277 64.1579,7.61233 64.1579,6.44308 64.1579,5.2739 63.43,5.85852 "/>
  <g>
   <line class="fil0 str1" x1="64.9793" y1="8.03801" x2="64.9793" y2= "5.12683" />
   <g>
    <line class="fil0 str1" x1="65.0194" y1="7.75754" x2="65.5936" y2= "8.01128" />
    <line class="fil0 str1" x1="65.0194" y1="7.23792" x2="65.5936" y2= "7.49166" />
    <line class="fil0 str1" x1="65.0194" y1="6.71831" x2="65.5936" y2= "6.97205" />
    <line class="fil0 str1" x1="65.0194" y1="6.19876" x2="65.5936" y2= "6.45243" />
    <line class="fil0 str1" x1="65.0194" y1="5.67915" x2="65.5936" y2= "5.93282" />
    <line class="fil0 str1" x1="65.0194" y1="5.15953" x2="65.5936" y2= "5.41327" />
   </g>
  </g>
  <circle class="fil0 str1" transform="matrix(1.27584E-013 -0.688188 0.688188 1.27584E-013 64.5737 6.4431)" r="0.46701"/>
  <polygon class="fil0 str1" points="62.544,20.1336 61.9593,20.8614 61.3747,21.5893 62.544,21.5893 63.7132,21.5893 63.1285,20.8614 "/>
  <g>
   <line class="fil0 str1" x1="60.949" y1="22.4107" x2="63.8602" y2= "22.4107" />
   <g>
    <line class="fil0 str1" x1="61.2295" y1="22.4508" x2="60.9758" y2= "23.025" />
    <line class="fil0 str1" x1="61.7491" y1="22.4508" x2="61.4954" y2= "23.025" />
    <line class="fil0 str1" x1="62.2687" y1="22.4508" x2="62.015" y2= "23.025" />
    <line class="fil0 str1" x1="62.7883" y1="22.4508" x2="62.5346" y2= "23.025" />
    <line class="fil0 str1" x1="63.3079" y1="22.4508" x2="63.0542" y2= "23.025" />
    <line class="fil0 str1" x1="63.8275" y1="22.4508" x2="63.5738" y2= "23.025" />
   </g>
  </g>
  <circle class="fil0 str1" cx="62.5439" cy="22.0051" r="0.321391"/>
  <polygon class="fil0 str1" points="48.6789,20.1927 48.0943,20.9205 47.5097,21.6484 48.6789,21.6484 49.8481,21.6484 49.2635,20.9205 "/>
  <g>
   <line class="fil0 str1" x1="47.084" y1="22.4698" x2="49.9952" y2= "22.4698" />
   <g>
    <line class="fil0 str1" x1="47.3645" y1="22.5099" x2="47.1108" y2= "23.0841" />
    <line class="fil0 str1" x1="47.8841" y1="22.5099" x2="47.6304" y2= "23.0841" />
    <line class="fil0 str1" x1="48.4037" y1="22.5099" x2="48.15" y2= "23.0841" />
    <line class="fil0 str1" x1="48.9233" y1="22.5099" x2="48.6696" y2= "23.0841" />
    <line class="fil0 str1" x1="49.4429" y1="22.5099" x2="49.1892" y2= "23.0841" />
    <line class="fil0 str1" x1="49.9625" y1="22.5099" x2="49.7088" y2= "23.0841" />
   </g>
  </g>
  <circle class="fil0 str1" cx="48.6789" cy="22.0642" r="0.321391"/>
  <path class="fil2" d="M45.2029 26.1596l-0.469 1.63155c-0.0228861,0.0814614 -0.0341634,0.131546 -0.0341634,0.149788 0,0.013599 0.00424554,0.0248099 0.0131347,0.0341634 0.00842475,0.00888911 0.0191713,0.013599 0.0323059,0.013599 0.0173139,0 0.0360208,-0.00749604 0.0561208,-0.0234168 0.047298,-0.0374802 0.0973822,-0.0954584 0.149324,-0.174134l0.041195 0.0425881c-0.0870337,0.122656 -0.166638,0.207833 -0.240072,0.256524 -0.0538653,0.0346277 -0.104878,0.0519416 -0.153569,0.0519416 -0.0346277,0 -0.0636168,-0.0117416 -0.0870337,-0.0355564 -0.0234168,-0.0238812 -0.0350921,-0.0510129 -0.0350921,-0.0823901 0,-0.0327703 0.0149921,-0.100168 0.0439812,-0.202658l0.371618 -1.2862c0.0304485,-0.105276 0.0453743,-0.165643 0.0453743,-0.181099 0,-0.0220238 -0.00888911,-0.039802 -0.026203,-0.0543297 -0.0173139,-0.013997 -0.0444455,-0.0210287 -0.0809307,-0.0210287 -0.021095,0 -0.0528703,0.0032505 -0.0959891,0.00935347l0 -0.0505485 0.469 -0.0781446z"/>
  <path class="fil2" d="M45.7917 28.4918l-0.0650099 0.178844 -0.548538 0 0 -0.0252743c0.161463,-0.147466 0.275164,-0.26727 0.340705,-0.360871 0.066005,-0.0931366 0.0987752,-0.178313 0.0987752,-0.255595 0,-0.0589733 -0.0177782,-0.107598 -0.0538653,-0.145543 -0.0360208,-0.0378782 -0.0795376,-0.0566515 -0.129622,-0.0566515 -0.045905,0 -0.0865693,0.0131347 -0.123121,0.039802 -0.0364851,0.0271317 -0.0631525,0.066005 -0.0804663,0.117947l-0.0252743 0c0.0112109,-0.0847119 0.0407307,-0.149788 0.0879624,-0.194698 0.047298,-0.0453743 0.106271,-0.0678624 0.17692,-0.0678624 0.0758228,0 0.138577,0.0238812 0.189126,0.0725723 0.0505485,0.0481604 0.0758228,0.105741 0.0758228,0.171281 0,0.047298 -0.0112772,0.0940653 -0.0327703,0.141363 -0.0341634,0.073899 -0.0889574,0.152574 -0.16478,0.234964 -0.113701,0.124448 -0.18488,0.199342 -0.213405,0.22508l0.242925 0c0.0491554,0 0.0837832,-0.00185743 0.103883,-0.00557228 0.0196356,-0.00378119 0.0378782,-0.0112772 0.053799,-0.0224881 0.0159208,-0.0107465 0.0299842,-0.0266673 0.0416594,-0.047298l0.0252743 0z"/>
  <g>
   <path class="fil2" d="M48.6307 29.5826l-0.000265347 -0.197949 0.929973 -0.604725 0.12856 0.19775 -0.929907 0.604725 -0.000265347 -0.197882 -0.128096 0.198081zm0 0l-0.152707 -0.0987752 0.152442 -0.0991733 0.000265347 0.197949zm0.995713 0.503495l-0.0640149 0.0990406 -0.931698 -0.602536 0.128096 -0.198081 0.931698 0.602536 -0.0640812 0.0990406zm12.5943 -0.563861l-13.343 0.0193703 0 -0.11662 13.343 -0.0193703 0 0.11662zm0.247369 0.0402663l-0.128693 -0.197683 0.000331683 0.197882 -0.931698 -0.602005 0.12803 -0.198148 0.931698 0.602071 0.000331683 0.197882zm0 0l-0.000331683 -0.197882 0.152707 0.0987089 -0.152375 0.0991733zm-0.99432 0.506414l-0.0643465 -0.0988416 0.929973 -0.605255 0.128693 0.197683 -0.929973 0.605255 -0.0643465 -0.0988416z"/>
  </g>
  <line class="fil0 str0" x1="48.5546" y1="28.3719" x2="48.5546" y2= "30.9553" />
  <line class="fil0 str0" x1="62.5438" y1="28.1717" x2="62.5438" y2= "30.7551" />
  <g>
   <path class="fil2" d="M41.4918 29.5772l-0.000331683 -0.197882 0.929708 -0.605189 0.128693 0.197683 -0.929708 0.605189 -0.000331683 -0.197949 -0.12803 0.198148zm0 0l-0.152707 -0.0986426 0.152375 -0.0992396 0.000331683 0.197882zm0.996045 0.503031l-0.0640149 0.0991069 -0.93203 -0.602138 0.12803 -0.198148 0.93203 0.602138 -0.0640149 0.0990406zm5.74376 -0.556697l-6.49276 0.012604 0 -0.11662 6.49276 -0.012604 0 0.11662zm0.247369 0.0402l-0.128759 -0.197683 0.00039802 0.197949 -0.931963 -0.601607 0.127897 -0.198214 0.93203 0.601607 0.00039802 0.197949zm0 0l-0.00039802 -0.197949 0.152773 0.0986426 -0.152375 0.0993059zm-0.994054 0.506878l-0.0643465 -0.0988416 0.929642 -0.60572 0.128759 0.197683 -0.929642 0.605653 -0.0644129 -0.0987752z"/>
  </g>
  <line class="fil0 str0" x1="41.3359" y1="28.3667" x2="41.3359" y2= "30.95" />
  <g>
   <path class="fil2" d="M41.4735 6.20951l-0.197949 0 -0.603398 -0.930836 0.197949 -0.128295 0.603398 0.930836 -0.197949 -6.63366e-005 0.197949 0.128361zm0 0l-0.0990406 0.152574 -0.0989079 -0.152574 0.197949 0zm0.504888 -0.994983l0.0989743 0.0641475 -0.603862 0.930836 -0.197949 -0.128361 0.603929 -0.930836 0.0989079 0.0642139zm-0.486845 -4.9253l0 5.67311 -0.234036 0 0 -5.67311 0.234036 0z"/>
  </g>
  <path class="fil2" d="M55.402 26.1738l-0.469 1.63155c-0.0228861,0.0814614 -0.0341634,0.131546 -0.0341634,0.149788 0,0.013599 0.00424554,0.0248099 0.0131347,0.0341634 0.00842475,0.00888911 0.0191713,0.013599 0.0323059,0.013599 0.0173139,0 0.0360208,-0.00749604 0.0561208,-0.0234168 0.047298,-0.0374802 0.0973822,-0.0954584 0.149324,-0.174134l0.041195 0.0425881c-0.0870337,0.122656 -0.166638,0.207833 -0.240072,0.256524 -0.0538653,0.0346277 -0.104878,0.0519416 -0.153569,0.0519416 -0.0346277,0 -0.0636168,-0.0117416 -0.0870337,-0.0355564 -0.0234168,-0.0238812 -0.0350921,-0.0510129 -0.0350921,-0.0823901 0,-0.0327703 0.0149921,-0.100168 0.0439812,-0.202658l0.371618 -1.2862c0.0304485,-0.105276 0.0453743,-0.165643 0.0453743,-0.181099 0,-0.0220238 -0.00888911,-0.039802 -0.026203,-0.0543297 -0.0173139,-0.013997 -0.0444455,-0.0210287 -0.0809307,-0.0210287 -0.021095,0 -0.0528703,0.0032505 -0.0959891,0.00935347l0 -0.0505485 0.469 -0.0781446z"/>
  <path class="fil2" d="M55.512 27.8461l0.226009 -0.109986 0.0224881 0 0 0.784895c0,0.0519416 0.00232178,0.0847119 0.00656733,0.0973822 0.00464356,0.012604 0.0135327,0.0224218 0.0271317,0.0294535 0.013599,0.00703168 0.0416594,0.0107465 0.0837832,0.0117416l0 0.0252743 -0.34966 0 0 -0.0252743c0.0435832,-0.00099505 0.0721079,-0.0047099 0.0847782,-0.0112772 0.0130683,-0.00703168 0.0219574,-0.0159208 0.0266673,-0.0271317 0.00510792,-0.0107465 0.0079604,-0.0444455 0.0079604,-0.100168l0 -0.501704c0,-0.0678624 -0.00238812,-0.111446 -0.00703168,-0.130617 -0.00331683,-0.0145277 -0.00888911,-0.0252743 -0.0173139,-0.0323059 -0.00842475,-0.00650099 -0.0187069,-0.0102822 -0.0309129,-0.0102822 -0.0168495,0 -0.0402663,0.00749604 -0.0701842,0.0215594l-0.0102822 -0.0215594z"/>
  <path class="fil2" d="M7.93764 3.19789l0.0192376 -0.0510792 0.663632 0c0.111379,0 0.210619,0.0173802 0.298183,0.0524723 0.0870337,0.0346277 0.152574,0.0828545 0.196091,0.145078 0.0435168,0.0622238 0.0650762,0.128229 0.0650762,0.197484 0,0.1072 -0.0388733,0.203587 -0.116089,0.290223 -0.0772158,0.086105 -0.203123,0.150252 -0.377721,0.190917 0.112772,0.0421238 0.195162,0.0978465 0.248497,0.167566 0.0529366,0.0692554 0.079604,0.145609 0.079604,0.228861 0,0.0922079 -0.0238812,0.180701 -0.0716436,0.264949 -0.0472317,0.0837832 -0.108527,0.149324 -0.182956,0.195627 -0.0744297,0.0468337 -0.164316,0.080997 -0.269592,0.102954 -0.0748941,0.0154564 -0.191912,0.0234168 -0.351053,0.0234168l-0.681476 0 0.0177782 -0.0505485c0.0716436,-0.00185743 0.11987,-0.00888911 0.145609,-0.0205644 0.0364851,-0.0159208 0.0626881,-0.0365515 0.0781446,-0.0618257 0.0220238,-0.0346277 0.0510129,-0.114165 0.087498,-0.238679l0.333275 -1.12567c0.0285248,-0.0949941 0.0425881,-0.161928 0.0425881,-0.20027 0,-0.033699 -0.0126703,-0.0603663 -0.0374802,-0.0800683 -0.0252743,-0.0196356 -0.0729703,-0.0294535 -0.143685,-0.0294535 -0.0153901,0 -0.0299178,-0.000464356 -0.0435168,-0.00139307zm0.278017 0.77176c0.0594376,0.00185743 0.10249,0.00278614 0.129224,0.00278614 0.189988,0 0.331351,-0.0411287 0.424488,-0.123983 0.0926723,-0.0828545 0.138975,-0.186273 0.138975,-0.310787 0,-0.0940653 -0.0285248,-0.167566 -0.0851762,-0.219972 -0.0565851,-0.0524059 -0.146936,-0.0786752 -0.27145,-0.0786752 -0.0327703,0 -0.0748941,0.00517426 -0.125907,0.0163851l-0.210154 0.714247zm-0.270056 0.915976c0.0987752,0.0130683 0.175991,0.0191713 0.231714,0.0191713 0.142756,0 0.269128,-0.0430525 0.379114,-0.128693 0.11045,-0.0861713 0.165178,-0.202658 0.165178,-0.34966 0,-0.112308 -0.033699,-0.200337 -0.102026,-0.263489 -0.0678624,-0.0632188 -0.177849,-0.0945297 -0.329494,-0.0945297 -0.0294535,0 -0.0650762,0.00139307 -0.1072,0.00417921l-0.237286 0.813022z"/>
  <path class="fil2" d="M20.993 19.8932l-0.141363 1.54637c-0.00749604,0.0725059 -0.0107465,0.119804 -0.0107465,0.142756 0,0.0364851 0.00650099,0.0645455 0.0205644,0.0837832 0.0173139,0.026203 0.0407307,0.0458386 0.0701842,0.0589733 0.0299842,0.012604 0.0800683,0.0191713 0.150252,0.0191713l-0.0149921 0.0505485 -0.731958 0 0.0149257 -0.0505485 0.0313772 0c0.0594376,0 0.108129,-0.0131347 0.145543,-0.0384089 0.026203,-0.0177782 0.0468337,-0.046303 0.0618257,-0.0865693 0.00981782,-0.0285248 0.0196356,-0.0949941 0.0285248,-0.200337l0.0220238 -0.235893 -0.532219 0 -0.189059 0.256524c-0.0430525,0.0575802 -0.0697198,0.0992396 -0.080997,0.12405 -0.0107465,0.0252743 -0.0163188,0.0486248 -0.0163188,0.0706485 0,0.0294535 0.0116752,0.0542634 0.0355564,0.0753584 0.0238812,0.0210287 0.0631525,0.0327703 0.117947,0.0346277l-0.0149921 0.0505485 -0.549931 0 0.0149921 -0.0505485c0.0678624,-0.00278614 0.1273,-0.0257386 0.179242,-0.0678624 0.0514772,-0.0425881 0.128229,-0.133403 0.230719,-0.272378l1.11067 -1.51082 0.0482267 0zm-0.271516 0.45633l-0.539184 0.733418 0.467607 0 0.0715772 -0.733418z"/>
  <path class="fil2" d="M64.9932 19.9324l0.0192376 -0.0510792 0.663632 0c0.111379,0 0.210619,0.0173802 0.298183,0.0524723 0.0870337,0.0346277 0.152574,0.0828545 0.196091,0.145078 0.0435168,0.0622238 0.0650762,0.128229 0.0650762,0.197484 0,0.1072 -0.0388733,0.203587 -0.116089,0.290223 -0.0772158,0.086105 -0.203123,0.150252 -0.377721,0.190917 0.112772,0.0421238 0.195162,0.0978465 0.248497,0.167566 0.0529366,0.0692554 0.079604,0.145609 0.079604,0.228861 0,0.0922079 -0.0238812,0.180701 -0.0716436,0.264949 -0.0472317,0.0837832 -0.108527,0.149324 -0.182956,0.195627 -0.0744297,0.0468337 -0.164316,0.080997 -0.269592,0.102954 -0.0748941,0.0154564 -0.191912,0.0234168 -0.351053,0.0234168l-0.681476 0 0.0177782 -0.0505485c0.0716436,-0.00185743 0.11987,-0.00888911 0.145609,-0.0205644 0.0364851,-0.0159208 0.0626881,-0.0365515 0.0781446,-0.0618257 0.0220238,-0.0346277 0.0510129,-0.114165 0.087498,-0.238679l0.333275 -1.12567c0.0285248,-0.0949941 0.0425881,-0.161928 0.0425881,-0.20027 0,-0.033699 -0.0126703,-0.0603663 -0.0374802,-0.0800683 -0.0252743,-0.0196356 -0.0729703,-0.0294535 -0.143685,-0.0294535 -0.0153901,0 -0.0299178,-0.000464356 -0.0435168,-0.00139307zm0.278017 0.77176c0.0594376,0.00185743 0.10249,0.00278614 0.129224,0.00278614 0.189988,0 0.331351,-0.0411287 0.424488,-0.123983 0.0926723,-0.0828545 0.138975,-0.186273 0.138975,-0.310787 0,-0.0940653 -0.0285248,-0.167566 -0.0851762,-0.219972 -0.0565851,-0.0524059 -0.146936,-0.0786752 -0.27145,-0.0786752 -0.0327703,0 -0.0748941,0.00517426 -0.125907,0.0163851l-0.210154 0.714247zm-0.270056 0.915976c0.0987752,0.0130683 0.175991,0.0191713 0.231714,0.0191713 0.142756,0 0.269128,-0.0430525 0.379114,-0.128693 0.11045,-0.0861713 0.165178,-0.202658 0.165178,-0.34966 0,-0.112308 -0.033699,-0.200337 -0.102026,-0.263489 -0.0678624,-0.0632188 -0.177849,-0.0945297 -0.329494,-0.0945297 -0.0294535,0 -0.0650762,0.00139307 -0.1072,0.00417921l-0.237286 0.813022z"/>
  <path class="fil2" d="M62.9237 3.73137l-0.138511 0.601872 -0.0496198 0 -0.00517426 -0.151181c-0.00464356,-0.0547941 -0.0153901,-0.103419 -0.0317752,-0.146471 -0.0163851,-0.0431188 -0.041195,-0.0800683 -0.0739653,-0.11191 -0.0327703,-0.0313109 -0.0744297,-0.0561208 -0.124978,-0.073899 -0.0500842,-0.0178446 -0.105807,-0.0267337 -0.167102,-0.0267337 -0.163785,0 -0.306542,0.0449762 -0.429198,0.134332 -0.156289,0.114232 -0.278946,0.275695 -0.367372,0.483992 -0.0730366,0.171746 -0.109986,0.345879 -0.109986,0.522335 0,0.18017 0.0528703,0.323855 0.157682,0.43152 0.105343,0.1072 0.241996,0.160999 0.410027,0.160999 0.1273,0 0.240603,-0.0285248 0.339312,-0.0851762 0.0992396,-0.0566515 0.191448,-0.143685 0.276624,-0.261632l0.0641475 0c-0.100168,0.16007 -0.212012,0.277552 -0.334204,0.352911 -0.12259,0.0753584 -0.269592,0.113237 -0.440409,0.113237 -0.151646,0 -0.285977,-0.0318416 -0.402995,-0.0954584 -0.117018,-0.0636832 -0.206373,-0.152574 -0.26727,-0.268199 -0.061295,-0.11516 -0.0922079,-0.238679 -0.0922079,-0.371618 0,-0.202658 0.0547941,-0.400209 0.163387,-0.592054 0.108593,-0.191912 0.25785,-0.343093 0.447441,-0.452615 0.189988,-0.109522 0.380971,-0.16425 0.574276,-0.16425 0.0903505,0 0.191912,0.0210287 0.30422,0.0640812 0.0491554,0.0182426 0.0851762,0.027596 0.106736,0.027596 0.0219574,0 0.041195,-0.00464356 0.0580446,-0.0135327 0.0163851,-0.00935347 0.0435168,-0.0355564 0.0818594,-0.0781446l0.0510129 0z"/>
  <path class="fil2" d="M52.1332 20.4036l-0.141363 1.54637c-0.00749604,0.0725059 -0.0107465,0.119804 -0.0107465,0.142756 0,0.0364851 0.00650099,0.0645455 0.0205644,0.0837832 0.0173139,0.026203 0.0407307,0.0458386 0.0701842,0.0589733 0.0299842,0.012604 0.0800683,0.0191713 0.150252,0.0191713l-0.0149921 0.0505485 -0.731958 0 0.0149257 -0.0505485 0.0313772 0c0.0594376,0 0.108129,-0.0131347 0.145543,-0.0384089 0.026203,-0.0177782 0.0468337,-0.046303 0.0618257,-0.0865693 0.00981782,-0.0285248 0.0196356,-0.0949941 0.0285248,-0.200337l0.0220238 -0.235893 -0.532219 0 -0.189059 0.256524c-0.0430525,0.0575802 -0.0697198,0.0992396 -0.080997,0.12405 -0.0107465,0.0252743 -0.0163188,0.0486248 -0.0163188,0.0706485 0,0.0294535 0.0116752,0.0542634 0.0355564,0.0753584 0.0238812,0.0210287 0.0631525,0.0327703 0.117947,0.0346277l-0.0149921 0.0505485 -0.549931 0 0.0149921 -0.0505485c0.0678624,-0.00278614 0.1273,-0.0257386 0.179242,-0.0678624 0.0514772,-0.0425881 0.128229,-0.133403 0.230719,-0.272378l1.11067 -1.51082 0.0482267 0zm-0.271516 0.45633l-0.539184 0.733418 0.467607 0 0.0715772 -0.733418z"/>
  <path class="fil2" d="M11.1471 35.5199c-0.128693,0.0996376 -0.20969,0.157218 -0.242925,0.172674 -0.0491554,0.0229525 -0.101561,0.0346277 -0.157284,0.0346277 -0.0870337,0 -0.158611,-0.0299178 -0.214798,-0.0893554 -0.0561871,-0.059504 -0.0842475,-0.137649 -0.0842475,-0.2345 0,-0.0613614 0.0135327,-0.114232 0.041195,-0.159142 0.0374139,-0.0617594 0.10249,-0.120268 0.195162,-0.175527 0.0926723,-0.0547277 0.247104,-0.121197 0.462897,-0.199872l0 -0.0496198c0,-0.124912 -0.019702,-0.211083 -0.0594376,-0.25785 -0.039802,-0.0463693 -0.0978465,-0.0697198 -0.173669,-0.0697198 -0.0575802,0 -0.103419,0.0153901 -0.137118,0.0467673 -0.0346277,0.0309129 -0.0519416,0.0664693 -0.0519416,0.106736l0.00278614 0.0795376c0,0.0421238 -0.0107465,0.0744297 -0.0323059,0.0973822 -0.0214931,0.0228861 -0.0496198,0.0341634 -0.0842475,0.0341634 -0.0341634,0 -0.0617594,-0.0117416 -0.0833188,-0.0355564 -0.0214931,-0.0238812 -0.0322396,-0.0561871 -0.0322396,-0.0973822 0,-0.0786089 0.0402,-0.150717 0.120733,-0.216722 0.0804663,-0.0654743 0.193305,-0.0987089 0.338848,-0.0987089 0.111379,0 0.202658,0.0187069 0.274302,0.0561208 0.053799,0.0285911 0.093601,0.0730366 0.11934,0.133403 0.0163851,0.0393376 0.0243455,0.11934 0.0243455,0.241067l0 0.426346c0,0.119804 0.00232178,0.193305 0.00696535,0.220437 0.0047099,0.0267337 0.0122059,0.0449762 0.0224881,0.0538653 0.0107465,0.00935347 0.0229525,0.013997 0.0364851,0.013997 0.0145277,0 0.0276624,-0.0032505 0.0384089,-0.00981782 0.0191713,-0.0116752 0.0561871,-0.0453743 0.110915,-0.100168l0 0.0768178c-0.102026,0.137118 -0.199872,0.205909 -0.293473,0.205909 -0.0444455,0 -0.080002,-0.0154564 -0.106669,-0.0468337 -0.0266673,-0.0308465 -0.0402663,-0.0842475 -0.041195,-0.159075zm0 -0.0889574l0 -0.478818c-0.138113,0.0552584 -0.227004,0.0940653 -0.26727,0.116553 -0.0725059,0.0402663 -0.12405,0.0823901 -0.154896,0.126371 -0.0313772,0.0439812 -0.0468337,0.0917436 -0.0468337,0.14415 0,0.0655406 0.019702,0.120268 0.0589733,0.163851 0.0393376,0.0430525 0.0847119,0.0650099 0.135725,0.0650099 0.0697861,0 0.160999,-0.0458386 0.274302,-0.137118z"/>
  <path class="fil2" d="M11.6572 33.8087l0 -0.0575802c0.139042,0.0683267 0.254666,0.149257 0.346874,0.242925 0.13055,0.133337 0.231648,0.289692 0.302827,0.469398 0.0715772,0.179772 0.107134,0.366974 0.107134,0.561672 0,0.283125 -0.0697198,0.541506 -0.209226,0.775077 -0.13944,0.233505 -0.321998,0.400607 -0.547609,0.50124l0 -0.0505485c0.112374,-0.0631525 0.205047,-0.148329 0.277552,-0.255993 0.0725723,-0.1072 0.126836,-0.243853 0.161994,-0.410027 0.0350921,-0.165643 0.0528703,-0.338848 0.0528703,-0.518553 0,-0.194698 -0.0154564,-0.372547 -0.0454406,-0.533612 -0.0228861,-0.126371 -0.0514772,-0.226938 -0.0856406,-0.303225 -0.0346277,-0.0758228 -0.080002,-0.148859 -0.136653,-0.219044 -0.0566515,-0.0707149 -0.131479,-0.137649 -0.224682,-0.20173z"/>
  <path class="fil2" d="M48.989 34.7721c0.121728,-0.168959 0.252743,-0.253671 0.393642,-0.253671 0.128693,0 0.241001,0.0551921 0.33699,0.165178 0.0959228,0.11045 0.14415,0.260703 0.14415,0.45215 0,0.222758 -0.0739653,0.402531 -0.222294,0.53872 -0.126836,0.117018 -0.268663,0.175527 -0.425019,0.175527 -0.0729703,0 -0.1474,-0.0131347 -0.222758,-0.039802 -0.0753584,-0.0266673 -0.152574,-0.0664693 -0.23125,-0.11934l0 -1.30119c0,-0.142756 -0.0032505,-0.230254 -0.0102822,-0.263489 -0.00656733,-0.0327703 -0.0173139,-0.0551921 -0.0318416,-0.0669337 -0.0149257,-0.0121396 -0.0332347,-0.0177782 -0.0551921,-0.0177782 -0.0252743,0 -0.0575802,0.00703168 -0.0959891,0.0220238l-0.0191713 -0.0482267 0.377256 -0.153503 0.0617594 0 0 0.910338zm0 0.0879624l0 0.751196c0.0463693,0.045905 0.0945297,0.0805327 0.144614,0.103485 0.0496198,0.0233505 0.100633,0.0350921 0.153105,0.0350921 0.0827881,0 0.160535,-0.045905 0.232112,-0.137184 0.0716436,-0.0912129 0.107664,-0.224151 0.107664,-0.39875 0,-0.160999 -0.0360208,-0.284584 -0.107664,-0.371153 -0.0715772,-0.086105 -0.153039,-0.129622 -0.244782,-0.129622 -0.0482267,0 -0.0968515,0.012604 -0.145078,0.0369495 -0.0365515,0.0182426 -0.0833188,0.0552584 -0.13997,0.109986z"/>
  <path class="fil2" d="M50.0243 33.9194l0 -0.0575802c0.139042,0.0683267 0.254666,0.149257 0.346874,0.242925 0.13055,0.133337 0.231648,0.289692 0.302827,0.469398 0.0715772,0.179772 0.107134,0.366974 0.107134,0.561672 0,0.283125 -0.0697198,0.541506 -0.209226,0.775077 -0.13944,0.233505 -0.321998,0.400607 -0.547609,0.50124l0 -0.0505485c0.112374,-0.0631525 0.205047,-0.148329 0.277552,-0.255993 0.0725723,-0.1072 0.126836,-0.243853 0.161994,-0.410027 0.0350921,-0.165643 0.0528703,-0.338848 0.0528703,-0.518553 0,-0.194698 -0.0154564,-0.372547 -0.0454406,-0.533612 -0.0228861,-0.126371 -0.0514772,-0.226938 -0.0856406,-0.303225 -0.0346277,-0.0758228 -0.080002,-0.148859 -0.136653,-0.219044 -0.0566515,-0.0707149 -0.131479,-0.137649 -0.224682,-0.20173z"/>
  <line class="fil0 str0" x1="36.3515" y1="6.49542" x2="38.9349" y2= "6.49542" />
  <g>
   <path class="fil2" d="M37.5569 19.8657l-0.197882 0.000132673 -0.604393 -0.930172 0.197816 -0.12856 0.604393 0.930239 -0.197949 0.00019901 0.198015 0.128162zm0 0l-0.0987752 0.152641 -0.0991069 -0.152508 0.197882 -0.000132673zm0.503959 -0.99558l0.0989743 0.0641475 -0.602934 0.931433 -0.198015 -0.128162 0.602934 -0.931499 0.0990406 0.0640812zm-0.558024 -12.0519l0.0132673 12.8004 -0.11662 0 -0.0132673 -12.8004 0.11662 0zm0.0404653 -0.247303l-0.19775 0.12856 0.197882 -0.00019901 -0.602469 0.931433 -0.198081 -0.128096 0.602469 -0.931433 0.197949 -0.000265347zm0 0l-0.197949 0.000265347 0.0987752 -0.152707 0.0991733 0.152442zm0.50595 0.994519l-0.0989079 0.0642802 -0.604791 -0.930239 0.19775 -0.12856 0.604857 0.930239 -0.0989079 0.0642802z"/>
  </g>
  <line class="fil0 str0" x1="36.3463" y1="20.0919" x2="38.9297" y2= "20.0919" />
  <path class="fil2" d="M35.4766 11.6658l-0.469 1.63155c-0.0228861,0.0814614 -0.0341634,0.131546 -0.0341634,0.149788 0,0.013599 0.00424554,0.0248099 0.0131347,0.0341634 0.00842475,0.00888911 0.0191713,0.013599 0.0323059,0.013599 0.0173139,0 0.0360208,-0.00749604 0.0561208,-0.0234168 0.047298,-0.0374802 0.0973822,-0.0954584 0.149324,-0.174134l0.041195 0.0425881c-0.0870337,0.122656 -0.166638,0.207833 -0.240072,0.256524 -0.0538653,0.0346277 -0.104878,0.0519416 -0.153569,0.0519416 -0.0346277,0 -0.0636168,-0.0117416 -0.0870337,-0.0355564 -0.0234168,-0.0238812 -0.0350921,-0.0510129 -0.0350921,-0.0823901 0,-0.0327703 0.0149921,-0.100168 0.0439812,-0.202658l0.371618 -1.2862c0.0304485,-0.105276 0.0453743,-0.165643 0.0453743,-0.181099 0,-0.0220238 -0.00888911,-0.039802 -0.026203,-0.0543297 -0.0173139,-0.013997 -0.0444455,-0.0210287 -0.0809307,-0.0210287 -0.021095,0 -0.0528703,0.0032505 -0.0959891,0.00935347l0 -0.0505485 0.469 -0.0781446z"/>
  <path class="fil2" d="M35.493 13.4241c0.0267337,-0.0626881 0.0604327,-0.110915 0.100633,-0.145078 0.0402663,-0.0341634 0.0908149,-0.0510129 0.151181,-0.0510129 0.0744297,0 0.131546,0.0238812 0.171348,0.0725723 0.0303822,0.0360208 0.0453743,0.0748941 0.0453743,0.115558 0,0.0678624 -0.0425881,0.137649 -0.127764,0.210154 0.0571158,0.0224881 0.100633,0.0543297 0.129622,0.0959891 0.0295198,0.0416594 0.0439812,0.0902842 0.0439812,0.146471 0,0.0805327 -0.0257386,0.150252 -0.0767515,0.209226 -0.0669337,0.0767515 -0.163321,0.115094 -0.290156,0.115094 -0.0622238,0 -0.105343,-0.0074297 -0.127764,-0.0233505 -0.0224881,-0.0154564 -0.033699,-0.0318416 -0.033699,-0.0500842 0,-0.0131347 0.00510792,-0.0248099 0.0159208,-0.0346277 0.0107465,-0.0103485 0.0238149,-0.0154564 0.0388069,-0.0154564 0.0112772,0 0.0229525,0.00185743 0.0346277,0.00563861 0.0079604,0.00232178 0.0257386,0.0107465 0.0529366,0.0252079 0.027596,0.0140634 0.046303,0.0229525 0.0570495,0.025805 0.0168495,0.00464356 0.0351584,0.0074297 0.0543297,0.0074297 0.046303,0 0.0870337,-0.0182426 0.121661,-0.0542634 0.0341634,-0.0360208 0.0514772,-0.0786089 0.0514772,-0.128229 0,-0.0360208 -0.0079604,-0.0711792 -0.0238149,-0.105807 -0.0117416,-0.0252743 -0.0248099,-0.0449099 -0.0393376,-0.0580446 -0.0196356,-0.0182426 -0.0463693,-0.0346277 -0.0805327,-0.0496198 -0.0346277,-0.0149257 -0.0692554,-0.0224218 -0.105276,-0.0224218l-0.0215594 0 0 -0.0206307c0.0360871,-0.00464356 0.0721079,-0.0173139 0.108593,-0.0388069 0.0360208,-0.0215594 0.0627545,-0.047298 0.0791396,-0.0776802 0.0163851,-0.0299842 0.0248099,-0.0632188 0.0248099,-0.0992396 0,-0.047298 -0.0149921,-0.0851762 -0.0445119,-0.114232 -0.0294535,-0.0289891 -0.066005,-0.0435168 -0.109986,-0.0435168 -0.0706485,0 -0.130086,0.0379446 -0.177384,0.113767l-0.0229525 -0.0108129z"/>
  <path class="fil2" d="M43.0431 0.40744l0.732025 0c0.191912,0 0.335597,0.0416594 0.430591,0.12405 0.0949941,0.0828545 0.142756,0.183951 0.142756,0.302362 0,0.0945297 -0.0304485,0.185809 -0.0908149,0.274302 -0.0603663,0.0888911 -0.149788,0.160999 -0.268663,0.216191 -0.118875,0.0552584 -0.247104,0.0828545 -0.38515,0.0828545 -0.0861713,0 -0.195229,-0.0154564 -0.327637,-0.0468337l-0.148395 0.507409c-0.0346277,0.120733 -0.0519416,0.20027 -0.0519416,0.238679 0,0.0294535 0.0121396,0.0533347 0.0369495,0.0725723 0.0248099,0.0196356 0.0837832,0.0317752 0.17692,0.0374139l-0.0135327 0.0505485 -0.739521 0 0.0154564 -0.0505485c0.0968515,0 0.16425,-0.0168495 0.202194,-0.0500842 0.0378782,-0.033699 0.0786089,-0.125443 0.12259,-0.276624l0.307072 -1.0582c0.0364851,-0.1273 0.0547277,-0.212476 0.0547277,-0.255064 0,-0.0323059 -0.012604,-0.0585089 -0.0388069,-0.079604 -0.026203,-0.0210287 -0.0833188,-0.033699 -0.172276,-0.0383426l0.0154564 -0.0510792zm0.255993 0.866821c0.103485,0.0266673 0.186804,0.039802 0.249956,0.039802 0.0992396,0 0.190054,-0.0205644 0.271914,-0.0617594 0.0819257,-0.041195 0.146073,-0.103021 0.191912,-0.18488 0.0463693,-0.0823901 0.0692554,-0.168031 0.0692554,-0.256524 0,-0.0926723 -0.0280604,-0.165643 -0.0847119,-0.219508 -0.0571158,-0.053799 -0.142756,-0.0809307 -0.25785,-0.0809307 -0.0622901,0 -0.137649,0.0079604 -0.22654,0.0233505l-0.213936 0.74045z"/>
  <g>
   <path class="fil2" d="M50.8854 11.1828l0.0188396 4.16521 -0.11662 0.00039802 -0.0188396 -4.16521 0.11662 -0.00039802zm0.0395366 -0.247436l-0.197351 0.12929 0.197949 -0.000928713 -0.599219 0.933555 -0.198479 -0.127433 0.599152 -0.933555 0.197949 -0.000928713zm0 0l-0.197949 0.000928713 0.0982446 -0.153039 0.099704 0.15211zm0.509399 0.992728l-0.0986426 0.0646119 -0.608108 -0.92805 0.197351 -0.12929 0.608042 0.92805 -0.0986426 0.0646782z"/>
  </g>
  <g>
   <path class="fil2" d="M53.293 15.1707l-3.19053 0.0184416 -0.00039802 -0.11662 3.19053 -0.0184416 0.00039802 0.11662zm0.247568 0.039205l-0.129555 -0.197152 0.00119406 0.197949 -0.934285 -0.598025 0.127167 -0.198678 0.934285 0.598025 0.00119406 0.197882zm0 0l-0.00119406 -0.197882 0.153171 0.0980455 -0.151977 0.0998366zm-0.992064 0.510659l-0.0648109 -0.0985099 0.92732 -0.609302 0.129555 0.197152 -0.92732 0.609236 -0.0647446 -0.0985762z"/>
  </g>
  <path class="fil2" d="M54.6629 15.3039c0.0449099,0.0472317 0.0786089,0.0949941 0.101561,0.142292 0.0163851,0.0332347 0.0435168,0.11934 0.0809307,0.259244l0.120799 -0.181099c0.0317752,-0.0435168 0.0706485,-0.0856406 0.116553,-0.125443 0.0453743,-0.039802 0.0856406,-0.0669337 0.120268,-0.0814614 0.0219574,-0.00935347 0.046303,-0.0135327 0.0729703,-0.0135327 0.0393376,0 0.0702505,0.0102822 0.0936673,0.0313772 0.0233505,0.0210287 0.0350921,0.0467673 0.0350921,0.0767515 0,0.0346277 -0.00703168,0.0585089 -0.0206307,0.0711129 -0.0257386,0.0229525 -0.0547277,0.0346277 -0.087498,0.0346277 -0.0191713,0 -0.039802,-0.00417921 -0.0617594,-0.012604 -0.0431188,-0.0145277 -0.0721079,-0.0220238 -0.0866356,-0.0220238 -0.0219574,0 -0.047696,0.0131347 -0.0781446,0.0384089 -0.0566515,0.047696 -0.12405,0.13944 -0.202658,0.275629l0.112308 0.471786c0.0173139,0.0721079 0.0318416,0.115625 0.0440475,0.129688 0.0116752,0.013997 0.0233505,0.0210287 0.0355564,0.0210287 0.0191713,0 0.0416594,-0.0102822 0.0669337,-0.0313772 0.0505485,-0.0421238 0.0931366,-0.0968515 0.129157,-0.164714l0.0477624 0.0248099c-0.0575802,0.108129 -0.130617,0.197484 -0.219508,0.268663 -0.0500842,0.0402 -0.0926723,0.0603663 -0.1273,0.0603663 -0.0510792,0 -0.0917436,-0.0285911 -0.122192,-0.086105 -0.0191713,-0.0356228 -0.0589733,-0.18959 -0.11934,-0.46104 -0.142292,0.248033 -0.256524,0.407174 -0.342629,0.478818 -0.0556564,0.0453743 -0.109522,0.0683267 -0.161928,0.0683267 -0.0364851,0 -0.0697198,-0.0131347 -0.100168,-0.039802 -0.0214931,-0.0201 -0.0327703,-0.0467673 -0.0327703,-0.0809307 0,-0.0299842 0.0103485,-0.0552584 0.0304485,-0.0753584 0.0196356,-0.0201663 0.0444455,-0.0299842 0.0739653,-0.0299842 0.0289891,0 0.0603663,0.0145277 0.0931366,0.0439812 0.0238812,0.021095 0.0421238,0.0313772 0.0547277,0.0313772 0.0112772,0 0.0252743,-0.00749604 0.0425881,-0.0220238 0.0430525,-0.0346277 0.101561,-0.109522 0.175527,-0.224616 0.0739653,-0.11516 0.122656,-0.198479 0.145543,-0.249956 -0.0570495,-0.22183 -0.087498,-0.339312 -0.0922079,-0.351982 -0.0210287,-0.0594376 -0.0481604,-0.101561 -0.0823238,-0.126371 -0.033699,-0.0248099 -0.0833188,-0.0369495 -0.149324,-0.0369495 -0.021095,0 -0.0453743,0.000928713 -0.0725723,0.00278614l0 -0.0496198 0.366046 -0.0640812z"/>
  <path class="fil2" d="M49.5145 10.0378c0.0309129,0.0528703 0.0524059,0.10249 0.0646119,0.148329 0.0116752,0.0463693 0.0234168,0.137184 0.0355564,0.272445l0.0603663 0.674445c0.0547941,-0.0655406 0.134332,-0.169888 0.238746,-0.312645 0.0500178,-0.0693218 0.112308,-0.163851 0.186273,-0.283655 0.0449099,-0.0730366 0.0720416,-0.124514 0.0823238,-0.153503 0.00517426,-0.0145277 0.0079604,-0.0299842 0.0079604,-0.0454406 0,-0.00981782 -0.00278614,-0.0182426 -0.00935347,-0.0247436 -0.00656733,-0.00610297 -0.0229525,-0.013599 -0.0500842,-0.0224881 -0.0271317,-0.00842475 -0.0496198,-0.0248099 -0.067398,-0.0477624 -0.0177782,-0.0234168 -0.0266673,-0.0500842 -0.0266673,-0.0804663 0,-0.0374802 0.0112109,-0.067398 0.0332347,-0.0903505 0.0215594,-0.0229525 0.0491554,-0.0341634 0.0819257,-0.0341634 0.0402663,0 0.0744297,0.0163851 0.102954,0.0500842 0.0285248,0.0332347 0.0425881,0.0790733 0.0425881,0.137582 0,0.0721079 -0.0248099,0.154896 -0.0739653,0.247568 -0.0496198,0.0926723 -0.144614,0.234964 -0.285513,0.426876 -0.140368,0.192376 -0.311251,0.401602 -0.511057,0.628142 -0.138113,0.156289 -0.240603,0.255064 -0.307537,0.295795 -0.0664693,0.0402 -0.123519,0.0608307 -0.171281,0.0608307 -0.0285248,0 -0.0533347,-0.0107465 -0.0748941,-0.0323059 -0.0214931,-0.0215594 -0.0318416,-0.046303 -0.0318416,-0.0748941 0,-0.0355564 0.0145277,-0.0678624 0.0445119,-0.0973158 0.0294535,-0.0290554 0.0617594,-0.0435832 0.0963871,-0.0435832 0.0182426,0 0.033699,0.00378119 0.0453743,0.0122059 0.00749604,0.00464356 0.0154564,0.0177782 0.0238812,0.0393376 0.00888911,0.0210287 0.0168495,0.0355564 0.0243455,0.0430525 0.00424554,0.00464356 0.00981782,0.00650099 0.0163851,0.00650099 0.00517426,0 0.0149921,-0.00417921 0.0285248,-0.0135327 0.0505485,-0.0309129 0.109057,-0.0805327 0.175527,-0.147931 0.0880287,-0.0898198 0.152574,-0.162856 0.194698,-0.219508l-0.0767515 -0.869143c-0.012604,-0.143685 -0.0317752,-0.231183 -0.0575802,-0.262096 -0.0257386,-0.0309129 -0.0683267,-0.0467673 -0.128693,-0.0467673 -0.0191713,0 -0.053799,0.00278614 -0.102954,0.00842475l-0.0121396 -0.0505485 0.401536 -0.0987752z"/>
  <g>
   <path class="fil2" d="M7.88544 16.2798l0.0188396 4.16521 -0.11662 0.00039802 -0.0188396 -4.16521 0.11662 -0.00039802zm0.0395366 -0.247436l-0.197351 0.12929 0.197949 -0.000928713 -0.599219 0.933555 -0.198479 -0.127433 0.599152 -0.933555 0.197949 -0.000928713zm0 0l-0.197949 0.000928713 0.0982446 -0.153039 0.099704 0.15211zm0.509399 0.992728l-0.0986426 0.0646119 -0.608108 -0.92805 0.197351 -0.12929 0.608042 0.92805 -0.0986426 0.0646782z"/>
  </g>
  <g>
   <path class="fil2" d="M10.2931 20.2676l-3.19053 0.0184416 -0.00039802 -0.11662 3.19053 -0.0184416 0.00039802 0.11662zm0.247568 0.039205l-0.129555 -0.197152 0.00119406 0.197949 -0.934285 -0.598025 0.127167 -0.198678 0.934285 0.598025 0.00119406 0.197882zm0 0l-0.00119406 -0.197882 0.153171 0.0980455 -0.151977 0.0998366zm-0.992064 0.510659l-0.0648109 -0.0985099 0.92732 -0.609302 0.129555 0.197152 -0.92732 0.609236 -0.0647446 -0.0985762z"/>
  </g>
  <path class="fil2" d="M11.663 20.4009c0.0449099,0.0472317 0.0786089,0.0949941 0.101561,0.142292 0.0163851,0.0332347 0.0435168,0.11934 0.0809307,0.259244l0.120799 -0.181099c0.0317752,-0.0435168 0.0706485,-0.0856406 0.116553,-0.125443 0.0453743,-0.039802 0.0856406,-0.0669337 0.120268,-0.0814614 0.0219574,-0.00935347 0.046303,-0.0135327 0.0729703,-0.0135327 0.0393376,0 0.0702505,0.0102822 0.0936673,0.0313772 0.0233505,0.0210287 0.0350921,0.0467673 0.0350921,0.0767515 0,0.0346277 -0.00703168,0.0585089 -0.0206307,0.0711129 -0.0257386,0.0229525 -0.0547277,0.0346277 -0.087498,0.0346277 -0.0191713,0 -0.039802,-0.00417921 -0.0617594,-0.012604 -0.0431188,-0.0145277 -0.0721079,-0.0220238 -0.0866356,-0.0220238 -0.0219574,0 -0.047696,0.0131347 -0.0781446,0.0384089 -0.0566515,0.047696 -0.12405,0.13944 -0.202658,0.275629l0.112308 0.471786c0.0173139,0.0721079 0.0318416,0.115625 0.0440475,0.129688 0.0116752,0.013997 0.0233505,0.0210287 0.0355564,0.0210287 0.0191713,0 0.0416594,-0.0102822 0.0669337,-0.0313772 0.0505485,-0.0421238 0.0931366,-0.0968515 0.129157,-0.164714l0.0477624 0.0248099c-0.0575802,0.108129 -0.130617,0.197484 -0.219508,0.268663 -0.0500842,0.0402 -0.0926723,0.0603663 -0.1273,0.0603663 -0.0510792,0 -0.0917436,-0.0285911 -0.122192,-0.086105 -0.0191713,-0.0356228 -0.0589733,-0.18959 -0.11934,-0.46104 -0.142292,0.248033 -0.256524,0.407174 -0.342629,0.478818 -0.0556564,0.0453743 -0.109522,0.0683267 -0.161928,0.0683267 -0.0364851,0 -0.0697198,-0.0131347 -0.100168,-0.039802 -0.0214931,-0.0201 -0.0327703,-0.0467673 -0.0327703,-0.0809307 0,-0.0299842 0.0103485,-0.0552584 0.0304485,-0.0753584 0.0196356,-0.0201663 0.0444455,-0.0299842 0.0739653,-0.0299842 0.0289891,0 0.0603663,0.0145277 0.0931366,0.0439812 0.0238812,0.021095 0.0421238,0.0313772 0.0547277,0.0313772 0.0112772,0 0.0252743,-0.00749604 0.0425881,-0.0220238 0.0430525,-0.0346277 0.101561,-0.109522 0.175527,-0.224616 0.0739653,-0.11516 0.122656,-0.198479 0.145543,-0.249956 -0.0570495,-0.22183 -0.087498,-0.339312 -0.0922079,-0.351982 -0.0210287,-0.0594376 -0.0481604,-0.101561 -0.0823238,-0.126371 -0.033699,-0.0248099 -0.0833188,-0.0369495 -0.149324,-0.0369495 -0.021095,0 -0.0453743,0.000928713 -0.0725723,0.00278614l0 -0.0496198 0.366046 -0.0640812z"/>
  <path class="fil2" d="M6.51452 15.1348c0.0309129,0.0528703 0.0524059,0.10249 0.0646119,0.148329 0.0116752,0.0463693 0.0234168,0.137184 0.0355564,0.272445l0.0603663 0.674445c0.0547941,-0.0655406 0.134332,-0.169888 0.238746,-0.312645 0.0500178,-0.0693218 0.112308,-0.163851 0.186273,-0.283655 0.0449099,-0.0730366 0.0720416,-0.124514 0.0823238,-0.153503 0.00517426,-0.0145277 0.0079604,-0.0299842 0.0079604,-0.0454406 0,-0.00981782 -0.00278614,-0.0182426 -0.00935347,-0.0247436 -0.00656733,-0.00610297 -0.0229525,-0.013599 -0.0500842,-0.0224881 -0.0271317,-0.00842475 -0.0496198,-0.0248099 -0.067398,-0.0477624 -0.0177782,-0.0234168 -0.0266673,-0.0500842 -0.0266673,-0.0804663 0,-0.0374802 0.0112109,-0.067398 0.0332347,-0.0903505 0.0215594,-0.0229525 0.0491554,-0.0341634 0.0819257,-0.0341634 0.0402663,0 0.0744297,0.0163851 0.102954,0.0500842 0.0285248,0.0332347 0.0425881,0.0790733 0.0425881,0.137582 0,0.0721079 -0.0248099,0.154896 -0.0739653,0.247568 -0.0496198,0.0926723 -0.144614,0.234964 -0.285513,0.426876 -0.140368,0.192376 -0.311251,0.401602 -0.511057,0.628142 -0.138113,0.156289 -0.240603,0.255064 -0.307537,0.295795 -0.0664693,0.0402 -0.123519,0.0608307 -0.171281,0.0608307 -0.0285248,0 -0.0533347,-0.0107465 -0.0748941,-0.0323059 -0.0214931,-0.0215594 -0.0318416,-0.046303 -0.0318416,-0.0748941 0,-0.0355564 0.0145277,-0.0678624 0.0445119,-0.0973158 0.0294535,-0.0290554 0.0617594,-0.0435832 0.0963871,-0.0435832 0.0182426,0 0.033699,0.00378119 0.0453743,0.0122059 0.00749604,0.00464356 0.0154564,0.0177782 0.0238812,0.0393376 0.00888911,0.0210287 0.0168495,0.0355564 0.0243455,0.0430525 0.00424554,0.00464356 0.00981782,0.00650099 0.0163851,0.00650099 0.00517426,0 0.0149921,-0.00417921 0.0285248,-0.0135327 0.0505485,-0.0309129 0.109057,-0.0805327 0.175527,-0.147931 0.0880287,-0.0898198 0.152574,-0.162856 0.194698,-0.219508l-0.0767515 -0.869143c-0.012604,-0.143685 -0.0317752,-0.231183 -0.0575802,-0.262096 -0.0257386,-0.0309129 -0.0683267,-0.0467673 -0.128693,-0.0467673 -0.0191713,0 -0.053799,0.00278614 -0.102954,0.00842475l-0.0121396 -0.0505485 0.401536 -0.0987752z"/>
 </g>
</svg>
