<?xml version="1.0" encoding="UTF-8"?>
<!DOCTYPE svg PUBLIC "-//W3C//DTD SVG 1.1//EN" "http://www.w3.org/Graphics/SVG/1.1/DTD/svg11.dtd">
<!-- Creator: CorelDRAW -->
<svg xmlns="http://www.w3.org/2000/svg" xml:space="preserve" width="65mm" height="74mm" style="shape-rendering:geometricPrecision; text-rendering:geometricPrecision; image-rendering:optimizeQuality; fill-rule:evenodd; clip-rule:evenodd"
viewBox="0 0 65 74">
 <defs>
  <style type="text/css">
   <![CDATA[
    .str0 {stroke:#1F1A17;stroke-width:0.1764}
    .str1 {stroke:#1F1A17;stroke-width:0.3528}
    .fil0 {fill:none}
    .fil1 {fill:#1F1A17;fill-rule:nonzero}
    .fil2 {fill:url(#id0)}
    .fil3 {fill:url(#id1)}
   ]]>
  </style>
  <linearGradient id="id0" gradientUnits="userSpaceOnUse" x1="9.0391" y1="39.0488" x2="10.7941" y2="39.0488">
   <stop offset="0" style="stop-color:#969594"/>
   <stop offset="1" style="stop-color:#969594"/>
  </linearGradient>
  <linearGradient id="id1" gradientUnits="userSpaceOnUse" x1="7.9947" y1="46.7902" x2="11.5695" y2="46.7902">
   <stop offset="0" style="stop-color:#C2C1C1"/>
   <stop offset="1" style="stop-color:#C2C1C1"/>
  </linearGradient>
 </defs>
 <g id="Layer_x0020_1">
  <metadata id="CorelCorpID_0Corel-Layer"/>
  <rect class="fil0 str0" transform="matrix(1.33507 -1.33507 1.33507 1.33507 31.3146 14.5663)" width="0.715" height="18.8861"/>
  <line class="fil0 str0" x1="44.3358" y1="22.5712" x2="44.3358" y2= "12.3412" />
  <path class="fil1" d="M21.1341 0.8856l-0.4028 1.4012 -0.0452 0.1884c-0.0042,0.0176 -0.0064,0.0324 -0.0064,0.0451 0,0.0219 0.0071,0.0417 0.0205,0.0579 0.0113,0.0127 0.0247,0.0183 0.0416,0.0183 0.0177,0 0.041,-0.0105 0.0699,-0.0324 0.0543,-0.0402 0.1256,-0.1228 0.2152,-0.2484l0.0705 0.0494c-0.0952,0.1433 -0.1933,0.2526 -0.2935,0.3281 -0.1009,0.0748 -0.194,0.1122 -0.2794,0.1122 -0.0592,0 -0.1037,-0.0148 -0.1333,-0.0445 -0.0297,-0.0296 -0.0445,-0.0726 -0.0445,-0.1291 0,-0.067 0.0156,-0.1559 0.0459,-0.2667l0.043 -0.1545c-0.1806,0.2357 -0.3464,0.4001 -0.4981,0.4939 -0.1086,0.067 -0.2159,0.1009 -0.3203,0.1009 -0.1009,0 -0.1877,-0.0416 -0.2604,-0.1249 -0.0733,-0.0832 -0.1093,-0.1983 -0.1093,-0.3443 0,-0.2187 0.0656,-0.4501 0.1968,-0.6936 0.132,-0.2427 0.2992,-0.4374 0.5017,-0.5834 0.158,-0.1158 0.3076,-0.1736 0.4487,-0.1736 0.084,0 0.1538,0.0219 0.2096,0.0656 0.0557,0.0445 0.098,0.1171 0.127,0.2194l0.0747 -0.2356 0.3281 -0.0494zm-0.7359 0.1072c-0.0882,0 -0.1813,0.0417 -0.2808,0.1242 -0.1404,0.1171 -0.2653,0.2907 -0.3753,0.5207 -0.1094,0.23 -0.1644,0.4381 -0.1644,0.6244 0,0.0939 0.024,0.1679 0.0705,0.2223 0.0466,0.0543 0.1009,0.0811 0.1616,0.0811 0.1496,0 0.3133,-0.1108 0.4897,-0.3323 0.2356,-0.2949 0.3534,-0.5976 0.3534,-0.9073 0,-0.1172 -0.0225,-0.2018 -0.0684,-0.2548 -0.0452,-0.0522 -0.1072,-0.0783 -0.1863,-0.0783z"/>
  <g>
   <path class="fil1" d="M32.8193 5.0179l-0.0006 -0.2983 1.4014 -0.9124 0.194 0.298 -1.4014 0.9124 -0.0005 -0.2984 -0.1929 0.2987zm0 0l-0.2303 -0.1487 0.2297 -0.1496 0.0006 0.2983zm1.5014 0.7582l-0.0964 0.1494 -1.405 -0.9076 0.1929 -0.2987 1.405 0.9076 -0.0965 0.1493zm20.0566 -0.8625l-21.1857 0.0424 0 -0.1758 21.1857 -0.0424 0 0.1758zm0.3729 0.0606l-0.1941 -0.2979 0.0007 0.2983 -1.4051 -0.9068 0.1929 -0.2988 1.405 0.9068 0.0006 0.2984zm0 0l-0.0006 -0.2984 0.2303 0.1487 -0.2297 0.1497zm-1.4984 0.7642l-0.0971 -0.149 1.4014 -0.9131 0.1941 0.2979 -1.4013 0.9131 -0.0971 -0.1489z"/>
  </g>
  <line class="fil0 str0" x1="32.5369" y1="2.4523" x2="32.5369" y2= "8.0677" />
  <line class="fil0 str0" x1="54.8644" y1="2.0171" x2="54.8644" y2= "7.6325" />
  <g>
   <path class="fil1" d="M10.5566 5.0065l-0.0006 -0.2983 1.4014 -0.9124 0.194 0.298 -1.4014 0.9124 -0.0005 -0.2984 -0.1929 0.2987zm0 0l-0.2303 -0.1487 0.2297 -0.1496 0.0006 0.2983zm1.5014 0.7582l-0.0964 0.1494 -1.405 -0.9076 0.1929 -0.2987 1.405 0.9076 -0.0965 0.1493zm20.0566 -0.8625l-21.1857 0.0424 0 -0.1758 21.1857 -0.0424 0 0.1758zm0.3729 0.0606l-0.1941 -0.2979 0.0007 0.2983 -1.4051 -0.9068 0.1929 -0.2988 1.405 0.9068 0.0006 0.2984zm0 0l-0.0006 -0.2984 0.2303 0.1487 -0.2297 0.1497zm-1.4984 0.7642l-0.0971 -0.149 1.4014 -0.9131 0.1941 0.2979 -1.4013 0.9131 -0.0971 -0.1489z"/>
  </g>
  <line class="fil0 str0" x1="10.2742" y1="2.4409" x2="10.2742" y2= "8.0563" />
  <path class="fil1" d="M46.1114 1.3802l-0.4028 1.4012 -0.0452 0.1884c-0.0042,0.0176 -0.0064,0.0324 -0.0064,0.0451 0,0.0219 0.0071,0.0417 0.0205,0.0579 0.0113,0.0127 0.0247,0.0183 0.0416,0.0183 0.0177,0 0.041,-0.0105 0.0699,-0.0324 0.0543,-0.0402 0.1256,-0.1228 0.2152,-0.2484l0.0705 0.0494c-0.0952,0.1433 -0.1933,0.2526 -0.2935,0.3281 -0.1009,0.0748 -0.194,0.1122 -0.2794,0.1122 -0.0592,0 -0.1037,-0.0148 -0.1333,-0.0445 -0.0297,-0.0296 -0.0445,-0.0726 -0.0445,-0.1291 0,-0.067 0.0156,-0.1559 0.0459,-0.2667l0.043 -0.1545c-0.1806,0.2357 -0.3464,0.4001 -0.4981,0.4939 -0.1086,0.067 -0.2159,0.1009 -0.3203,0.1009 -0.1009,0 -0.1877,-0.0416 -0.2604,-0.1249 -0.0733,-0.0832 -0.1093,-0.1983 -0.1093,-0.3443 0,-0.2187 0.0656,-0.4501 0.1968,-0.6936 0.132,-0.2427 0.2992,-0.4374 0.5017,-0.5834 0.158,-0.1158 0.3076,-0.1736 0.4487,-0.1736 0.084,0 0.1538,0.0219 0.2096,0.0656 0.0557,0.0445 0.098,0.1171 0.127,0.2194l0.0747 -0.2356 0.3281 -0.0494zm-0.7359 0.1072c-0.0882,0 -0.1813,0.0417 -0.2808,0.1242 -0.1404,0.1171 -0.2653,0.2907 -0.3753,0.5207 -0.1094,0.23 -0.1644,0.4381 -0.1644,0.6244 0,0.0939 0.024,0.1679 0.0705,0.2223 0.0466,0.0543 0.1009,0.0811 0.1616,0.0811 0.1496,0 0.3133,-0.1108 0.4897,-0.3323 0.2356,-0.2949 0.3534,-0.5976 0.3534,-0.9073 0,-0.1172 -0.0225,-0.2018 -0.0684,-0.2548 -0.0452,-0.0522 -0.1072,-0.0783 -0.1863,-0.0783z"/>
  <path class="fil1" d="M40.5748 16.5582l0 0.2935 -0.3761 0 0 0.7401 -0.3414 0 0 -0.7401 -1.1861 0 0 -0.2646 1.3004 -1.8563 0.2271 0 0 1.8274 0.3761 0zm-0.7175 0l0 -1.3914 -0.9836 1.3914 0.9836 0z"/>
  <path class="fil1" d="M42.5596 14.7886l-0.1616 0.3514 -0.8431 0 -0.1842 0.3768c0.3655,0.0536 0.6548,0.1891 0.8678,0.4071 0.1835,0.187 0.2752,0.4078 0.2752,0.6611 0,0.1474 -0.0296,0.2843 -0.0896,0.4092 -0.06,0.1256 -0.1355,0.2321 -0.2265,0.3203 -0.091,0.0882 -0.1926,0.1595 -0.3041,0.2131 -0.158,0.0762 -0.321,0.1136 -0.4875,0.1136 -0.1686,0 -0.2907,-0.0282 -0.3669,-0.0854 -0.0769,-0.0571 -0.115,-0.1206 -0.115,-0.1891 0,-0.0388 0.0162,-0.0726 0.0473,-0.1023 0.0317,-0.0296 0.0719,-0.0444 0.1199,-0.0444 0.036,0 0.0677,0.0049 0.0946,0.0162 0.0268,0.0113 0.0726,0.0395 0.1375,0.0847 0.103,0.0719 0.2075,0.1079 0.314,0.1079 0.1609,0 0.3027,-0.0614 0.4247,-0.1834 0.1221,-0.1221 0.1828,-0.2703 0.1828,-0.4452 0,-0.1694 -0.0543,-0.3274 -0.163,-0.4742 -0.1094,-0.1467 -0.2589,-0.2603 -0.4508,-0.34 -0.1503,-0.0621 -0.3549,-0.0981 -0.6139,-0.108l0.5377 -1.0894 1.0047 0z"/>
  <path class="fil1" d="M43.3675 14.5015c0.1432,0 0.2582,0.0543 0.345,0.163 0.0741,0.0931 0.1107,0.1996 0.1107,0.3203 0,0.0847 -0.0204,0.1707 -0.0606,0.2575 -0.041,0.0868 -0.0967,0.1524 -0.168,0.1962 -0.0719,0.0444 -0.1509,0.0663 -0.2384,0.0663 -0.1425,0 -0.2561,-0.0572 -0.3401,-0.1708 -0.0713,-0.0952 -0.1065,-0.2032 -0.1065,-0.3224 0,-0.0868 0.0218,-0.1729 0.0649,-0.2589 0.043,-0.0854 0.0995,-0.1489 0.17,-0.1898 0.0699,-0.0409 0.1446,-0.0614 0.223,-0.0614zm-0.0318 0.067c-0.0367,0 -0.0734,0.0106 -0.1101,0.0325 -0.0373,0.0218 -0.067,0.0599 -0.0896,0.1143 -0.0225,0.0543 -0.0338,0.1241 -0.0338,0.2095 0,0.1383 0.0268,0.2568 0.0818,0.357 0.0551,0.0995 0.127,0.1496 0.2166,0.1496 0.0671,0 0.1221,-0.0275 0.1651,-0.0825 0.0438,-0.0551 0.0656,-0.1503 0.0656,-0.2844 0,-0.1679 -0.0367,-0.3005 -0.1086,-0.3972 -0.0494,-0.0656 -0.1115,-0.0988 -0.187,-0.0988z"/>
  <rect class="fil0 str0" transform="matrix(-1.33507 -1.33507 -1.33507 1.33507 33.2091 14.5336)" width="0.715" height="18.8861"/>
  <g>
   <path class="fil1" d="M39.1121 19.7977l-0.0964 -0.1468 0.1422 -0.0908 0.1462 -0.0878 0.15 -0.0846 0.1531 -0.0814 0.1567 -0.0782 0.1596 -0.075 0.1621 -0.0712 0.165 -0.0677 0.1674 -0.0644 0.169 -0.0605 0.1712 -0.0562 0.1727 -0.0528 0.1738 -0.0489 0.1752 -0.0444 0.1761 -0.0406 0.1768 -0.0361 0.1774 -0.0316 0.1773 -0.0273 0.1772 -0.0226 0.1772 -0.0182 0.1767 -0.013 0.1758 -0.0081 0.1749 -0.0033 0.1736 0.0018 0.1723 0.0068 0.1707 0.0121 0.1686 0.0177 0.1668 0.0235 0.1644 0.0285 0.162 0.0345 0.1587 0.0405 0.1558 0.0464 -0.053 0.1674 -0.149 -0.0442 -0.1525 -0.0385 -0.155 -0.0331 -0.1582 -0.0279 -0.1606 -0.0221 -0.1632 -0.0169 -0.1651 -0.0121 -0.1669 -0.0068 -0.1688 -0.0018 -0.1699 0.0033 -0.171 0.0081 -0.1719 0.013 -0.1724 0.0174 -0.173 0.022 -0.1733 0.0265 -0.1726 0.031 -0.1726 0.0353 -0.1719 0.0392 -0.1712 0.0438 -0.1702 0.0475 -0.1687 0.0514 -0.167 0.0556 -0.1656 0.0591 -0.1632 0.0624 -0.1608 0.0663 -0.1587 0.0698 -0.1556 0.0728 -0.1525 0.0762 -0.1497 0.0794 -0.1458 0.0824 -0.142 0.0852 -0.1382 0.088zm-0.4415 0.0068l0.3256 0.1429 -0.164 -0.2493 1.6722 -0.0111 0.0024 0.3556 -1.6722 0.0111 -0.164 -0.2492zm0 0l0.164 0.2492 -0.2742 0.0018 0.1102 -0.251zm0.8348 -1.4603l0.1628 0.0715 -0.672 1.5317 -0.3256 -0.1429 0.672 -1.5317 0.1628 0.0714z"/>
  </g>
  <rect class="fil2 str0" x="9.0391" y="38.1713" width="1.755" height="1.755"/>
  <rect class="fil2 str0" x="53.4891" y="38.1713" width="1.755" height="1.755"/>
  <rect class="fil3" x="7.9947" y="39.9263" width="3.5748" height="13.7279"/>
  <rect class="fil3" x="52.6733" y="39.9263" width="3.5748" height="13.692"/>
  <rect class="fil3" transform="matrix(9.3256E-014 -1 3.82533 2.87724E-014 7.9401 57.1931)" width="3.5748" height="12.6363"/>
  <rect class="fil0 str0" x="6.0608" y="57.1655" width="5.535" height="13.7279"/>
  <line class="fil0 str1" x1="18.8639" y1="25.3568" x2="21.2516" y2= "27.8842" />
  <path class="fil1" d="M12.5176 22.0879l0.6823 -0.333 0.0684 0 0 2.3671c0,0.1566 0.0064,0.2547 0.0191,0.2935 0.0134,0.0381 0.0409,0.0678 0.0818,0.0889 0.0416,0.0205 0.1256,0.0325 0.2526,0.0353l0 0.0762 -1.0548 0 0 -0.0762c0.1326,-0.0028 0.218,-0.0141 0.2568,-0.0346 0.0381,-0.0197 0.0649,-0.0465 0.0804,-0.0804 0.0149,-0.0339 0.0226,-0.1348 0.0226,-0.3027l0 -1.5134c0,-0.2039 -0.007,-0.3344 -0.0204,-0.3923 -0.0099,-0.0444 -0.0276,-0.0769 -0.053,-0.0973 -0.0254,-0.0205 -0.0557,-0.0311 -0.0917,-0.0311 -0.0508,0 -0.122,0.0212 -0.2131,0.0642l-0.031 -0.0642z"/>
  <path class="fil1" d="M15.8887 21.6766l0 1.8852 0.4819 -0.4403c0.1023,-0.0938 0.1616,-0.1531 0.1778,-0.1778 0.0113,-0.0169 0.0163,-0.0331 0.0163,-0.0493 0,-0.0283 -0.0113,-0.0515 -0.0339,-0.072 -0.0226,-0.0198 -0.06,-0.0311 -0.1129,-0.0339l0 -0.0663 0.8227 0 0 0.0663c-0.1129,0.0028 -0.2067,0.0198 -0.2815,0.0515 -0.0755,0.0318 -0.1581,0.0882 -0.2477,0.1701l-0.4854 0.448 0.4854 0.6138c0.1355,0.1701 0.2265,0.2773 0.2731,0.3232 0.0663,0.0642 0.1241,0.1065 0.1735,0.1256 0.0346,0.0141 0.0946,0.0211 0.1799,0.0211l0 0.0741 -0.92 0 0 -0.0741c0.0529,-0.0014 0.0882,-0.0099 0.1065,-0.024 0.0191,-0.0148 0.0283,-0.0345 0.0283,-0.0614 0,-0.0317 -0.0275,-0.0825 -0.0826,-0.1524l-0.5814 -0.7422 0 0.6279c0,0.1228 0.0092,0.204 0.0261,0.2421 0.017,0.0388 0.0417,0.0663 0.0734,0.0825 0.0318,0.0169 0.1009,0.0261 0.2068,0.0275l0 0.0741 -0.9631 0 0 -0.0741c0.0966,0 0.1686,-0.012 0.2166,-0.0353 0.0289,-0.0155 0.0515,-0.0388 0.0663,-0.0705 0.0205,-0.0452 0.031,-0.1242 0.031,-0.2357l0 -1.7236c0,-0.2195 -0.0049,-0.3535 -0.0141,-0.4022 -0.0098,-0.0487 -0.0261,-0.0825 -0.0479,-0.1016 -0.0219,-0.0183 -0.0508,-0.0275 -0.0868,-0.0275 -0.029,0 -0.072,0.0113 -0.1298,0.0353l-0.0353 -0.0727 0.5623 -0.2314 0.0945 0z"/>
  <path class="fil1" d="M18.0076 23.07c0.1382,-0.1382 0.2194,-0.2173 0.2441,-0.2377 0.0621,-0.0529 0.1291,-0.0932 0.2004,-0.1221 0.0719,-0.0289 0.1425,-0.0437 0.213,-0.0437 0.1186,0 0.2209,0.0345 0.3062,0.1037 0.0854,0.0684 0.1426,0.1686 0.1715,0.2998 0.1418,-0.1658 0.2618,-0.2744 0.3598,-0.3259 0.0974,-0.0515 0.1983,-0.0776 0.3013,-0.0776 0.1009,0 0.1898,0.0261 0.2681,0.0776 0.0776,0.0515 0.139,0.1361 0.1849,0.2533 0.0303,0.0797 0.0451,0.2053 0.0451,0.376l0 0.8149c0,0.1186 0.0092,0.1997 0.0268,0.2435 0.0141,0.0303 0.0395,0.0564 0.0769,0.0776 0.0374,0.0211 0.0974,0.0324 0.1821,0.0324l0 0.0741 -0.9349 0 0 -0.0741 0.0395 0c0.0812,0 0.1447,-0.0162 0.1905,-0.048 0.0318,-0.0218 0.0543,-0.0571 0.0677,-0.1051 0.0057,-0.0233 0.0085,-0.0903 0.0085,-0.2004l0 -0.8149c0,-0.1545 -0.0183,-0.2631 -0.0557,-0.3266 -0.0536,-0.0882 -0.1397,-0.132 -0.2583,-0.132 -0.0733,0 -0.1467,0.0184 -0.2201,0.0543 -0.0741,0.0367 -0.163,0.1045 -0.2681,0.204l-0.0042 0.0225 0.0042 0.0889 0 0.9038c0,0.1292 0.0078,0.2096 0.0219,0.2413 0.0148,0.0318 0.0416,0.0586 0.0818,0.0798 0.0395,0.0211 0.108,0.0324 0.2046,0.0324l0 0.0741 -0.9574 0 0 -0.0741c0.1051,0 0.1771,-0.0127 0.2166,-0.0374 0.0388,-0.0247 0.0663,-0.0621 0.0811,-0.1115 0.0071,-0.0239 0.0106,-0.0917 0.0106,-0.2046l0 -0.8149c0,-0.1545 -0.0226,-0.2653 -0.0684,-0.3323 -0.0607,-0.0882 -0.1454,-0.1326 -0.254,-0.1326 -0.0748,0 -0.1482,0.0197 -0.2216,0.0599 -0.1143,0.0607 -0.2025,0.1292 -0.2645,0.2047l0 1.0152c0,0.1235 0.0091,0.2046 0.0261,0.2413 0.0169,0.0374 0.043,0.0657 0.0762,0.084 0.0338,0.0183 0.1023,0.0282 0.206,0.0282l0 0.0741 -0.9363 0 0 -0.0741c0.0868,0 0.1475,-0.0099 0.1821,-0.0282 0.0338,-0.0183 0.0606,-0.048 0.0783,-0.0889 0.0176,-0.0409 0.0268,-0.1192 0.0268,-0.2364l0 -0.7239c0,-0.2081 -0.0064,-0.3421 -0.0184,-0.4028 -0.0098,-0.0459 -0.0254,-0.0769 -0.0458,-0.0939 -0.0205,-0.0176 -0.0487,-0.0261 -0.0847,-0.0261 -0.0388,0 -0.0847,0.0106 -0.1383,0.0311l-0.031 -0.0748 0.5701 -0.2314 0.0889 0 0 0.4035z"/>
  <line class="fil0 str1" x1="6.2461" y1="53.6048" x2="13.3181" y2= "53.7036" />
  <path class="fil1" d="M15.3309 50.755l-0.1962 0.5397 -1.6538 0 0 -0.0762c0.4861,-0.4438 0.829,-0.8064 1.0273,-1.0873 0.1983,-0.2815 0.2977,-0.5383 0.2977,-0.7711 0,-0.1778 -0.0543,-0.3239 -0.1636,-0.4382 -0.1087,-0.1143 -0.2385,-0.1714 -0.3902,-0.1714 -0.1383,0 -0.2618,0.0402 -0.3711,0.1206 -0.1094,0.0805 -0.1905,0.199 -0.2427,0.3542l-0.077 0c0.0346,-0.2547 0.1228,-0.4501 0.266,-0.587 0.1426,-0.1362 0.3204,-0.2046 0.5341,-0.2046 0.2272,0 0.417,0.0734 0.5694,0.2194 0.1524,0.1461 0.2286,0.3182 0.2286,0.5165 0,0.1418 -0.0331,0.2843 -0.0995,0.4261 -0.1016,0.223 -0.2674,0.4593 -0.496,0.7091 -0.3429,0.3747 -0.5573,0.6004 -0.6427,0.678l0.7316 0c0.1489,0 0.2533,-0.0056 0.3133,-0.0169 0.06,-0.0106 0.1143,-0.0331 0.1623,-0.067 0.048,-0.0339 0.0903,-0.0819 0.1263,-0.1439l0.0762 0z"/>
  <path class="fil1" d="M17.257 48.3554l0 1.8852 0.4819 -0.4403c0.1023,-0.0938 0.1616,-0.1531 0.1778,-0.1778 0.0113,-0.0169 0.0163,-0.0331 0.0163,-0.0493 0,-0.0283 -0.0113,-0.0515 -0.0339,-0.072 -0.0226,-0.0198 -0.06,-0.0311 -0.1129,-0.0339l0 -0.0663 0.8227 0 0 0.0663c-0.1129,0.0028 -0.2067,0.0198 -0.2815,0.0515 -0.0755,0.0318 -0.1581,0.0882 -0.2477,0.1701l-0.4854 0.448 0.4854 0.6138c0.1355,0.1701 0.2265,0.2773 0.2731,0.3232 0.0663,0.0642 0.1241,0.1065 0.1735,0.1256 0.0346,0.0141 0.0946,0.0211 0.1799,0.0211l0 0.0741 -0.92 0 0 -0.0741c0.0529,-0.0014 0.0882,-0.0099 0.1065,-0.024 0.0191,-0.0148 0.0283,-0.0345 0.0283,-0.0614 0,-0.0317 -0.0275,-0.0825 -0.0826,-0.1524l-0.5814 -0.7422 0 0.6279c0,0.1228 0.0092,0.204 0.0261,0.2421 0.017,0.0388 0.0417,0.0663 0.0734,0.0825 0.0318,0.0169 0.1009,0.0261 0.2068,0.0275l0 0.0741 -0.9631 0 0 -0.0741c0.0966,0 0.1686,-0.012 0.2166,-0.0353 0.0289,-0.0155 0.0515,-0.0388 0.0663,-0.0705 0.0205,-0.0452 0.031,-0.1242 0.031,-0.2357l0 -1.7236c0,-0.2195 -0.0049,-0.3535 -0.0141,-0.4022 -0.0098,-0.0487 -0.0261,-0.0825 -0.0479,-0.1016 -0.0219,-0.0183 -0.0508,-0.0275 -0.0868,-0.0275 -0.029,0 -0.072,0.0113 -0.1298,0.0353l-0.0353 -0.0727 0.5623 -0.2314 0.0945 0z"/>
  <path class="fil1" d="M19.3759 49.7488c0.1382,-0.1382 0.2194,-0.2173 0.2441,-0.2377 0.0621,-0.0529 0.1291,-0.0932 0.2004,-0.1221 0.0719,-0.0289 0.1425,-0.0437 0.213,-0.0437 0.1186,0 0.2209,0.0345 0.3062,0.1037 0.0854,0.0684 0.1426,0.1686 0.1715,0.2998 0.1418,-0.1658 0.2618,-0.2744 0.3598,-0.3259 0.0974,-0.0515 0.1983,-0.0776 0.3013,-0.0776 0.1009,0 0.1898,0.0261 0.2681,0.0776 0.0776,0.0515 0.139,0.1361 0.1849,0.2533 0.0303,0.0797 0.0451,0.2053 0.0451,0.376l0 0.8149c0,0.1186 0.0092,0.1997 0.0268,0.2435 0.0141,0.0303 0.0395,0.0564 0.0769,0.0776 0.0374,0.0211 0.0974,0.0324 0.1821,0.0324l0 0.0741 -0.9349 0 0 -0.0741 0.0395 0c0.0812,0 0.1447,-0.0162 0.1905,-0.048 0.0318,-0.0218 0.0543,-0.0571 0.0677,-0.1051 0.0057,-0.0233 0.0085,-0.0903 0.0085,-0.2004l0 -0.8149c0,-0.1545 -0.0183,-0.2631 -0.0557,-0.3266 -0.0536,-0.0882 -0.1397,-0.132 -0.2583,-0.132 -0.0733,0 -0.1467,0.0184 -0.2201,0.0543 -0.0741,0.0367 -0.163,0.1045 -0.2681,0.204l-0.0042 0.0225 0.0042 0.0889 0 0.9038c0,0.1292 0.0078,0.2096 0.0219,0.2413 0.0148,0.0318 0.0416,0.0586 0.0818,0.0798 0.0395,0.0211 0.108,0.0324 0.2046,0.0324l0 0.0741 -0.9574 0 0 -0.0741c0.1051,0 0.1771,-0.0127 0.2166,-0.0374 0.0388,-0.0247 0.0663,-0.0621 0.0811,-0.1115 0.0071,-0.0239 0.0106,-0.0917 0.0106,-0.2046l0 -0.8149c0,-0.1545 -0.0226,-0.2653 -0.0684,-0.3323 -0.0607,-0.0882 -0.1454,-0.1326 -0.254,-0.1326 -0.0748,0 -0.1482,0.0197 -0.2216,0.0599 -0.1143,0.0607 -0.2025,0.1292 -0.2645,0.2047l0 1.0152c0,0.1235 0.0091,0.2046 0.0261,0.2413 0.0169,0.0374 0.043,0.0657 0.0762,0.084 0.0338,0.0183 0.1023,0.0282 0.206,0.0282l0 0.0741 -0.9363 0 0 -0.0741c0.0868,0 0.1475,-0.0099 0.1821,-0.0282 0.0338,-0.0183 0.0606,-0.048 0.0783,-0.0889 0.0176,-0.0409 0.0268,-0.1192 0.0268,-0.2364l0 -0.7239c0,-0.2081 -0.0064,-0.3421 -0.0184,-0.4028 -0.0098,-0.0459 -0.0254,-0.0769 -0.0458,-0.0939 -0.0205,-0.0176 -0.0487,-0.0261 -0.0847,-0.0261 -0.0388,0 -0.0847,0.0106 -0.1383,0.0311l-0.031 -0.0748 0.5701 -0.2314 0.0889 0 0 0.4035z"/>
  <line class="fil0 str1" x1="32.1585" y1="51.8697" x2="32.0597" y2= "58.9417" />
  <path class="fil1" d="M32.7444 49.7305c0.0797,-0.1883 0.1806,-0.3344 0.3027,-0.4367 0.122,-0.103 0.2737,-0.1545 0.4558,-0.1545 0.2243,0 0.3965,0.0734 0.5164,0.2194 0.091,0.1087 0.1369,0.2251 0.1369,0.3493 0,0.2039 -0.1284,0.4148 -0.3845,0.6321 0.1721,0.0678 0.3019,0.1644 0.3901,0.29 0.0882,0.1249 0.1327,0.2724 0.1327,0.4424 0,0.242 -0.0769,0.4523 -0.2314,0.6301 -0.2011,0.2314 -0.4925,0.3471 -0.8742,0.3471 -0.1891,0 -0.3175,-0.0233 -0.3859,-0.0699 -0.0678,-0.0472 -0.1024,-0.0973 -0.1024,-0.1509 0,-0.0403 0.0163,-0.0755 0.0487,-0.1059 0.0325,-0.0303 0.0713,-0.0451 0.1172,-0.0451 0.0338,0 0.0691,0.0056 0.1051,0.0162 0.0233,0.007 0.0762,0.0324 0.1594,0.0755 0.0826,0.0437 0.1397,0.0691 0.1715,0.0776 0.0508,0.0155 0.1051,0.0226 0.163,0.0226 0.1404,0 0.2631,-0.0544 0.3669,-0.163 0.1044,-0.1087 0.1559,-0.2378 0.1559,-0.3867 0,-0.1086 -0.024,-0.2151 -0.072,-0.3182 -0.036,-0.0769 -0.0755,-0.1354 -0.1178,-0.1756 -0.0593,-0.0551 -0.1404,-0.1052 -0.2441,-0.1496 -0.103,-0.0452 -0.2089,-0.0677 -0.3161,-0.0677l-0.0663 0 0 -0.0621c0.1086,-0.0134 0.218,-0.0529 0.3273,-0.1179 0.1101,-0.0642 0.1898,-0.1425 0.2392,-0.2335 0.0494,-0.091 0.0741,-0.1905 0.0741,-0.2992 0,-0.1425 -0.0445,-0.2568 -0.1334,-0.3443 -0.0889,-0.0874 -0.1989,-0.1312 -0.3316,-0.1312 -0.2137,0 -0.3915,0.1143 -0.5355,0.3429l-0.0677 -0.0332z"/>
  <path class="fil1" d="M36.3963 49.061l0 1.8852 0.4819 -0.4403c0.1023,-0.0938 0.1616,-0.1531 0.1778,-0.1778 0.0113,-0.0169 0.0163,-0.0331 0.0163,-0.0493 0,-0.0283 -0.0113,-0.0515 -0.0339,-0.072 -0.0226,-0.0198 -0.06,-0.0311 -0.1129,-0.0339l0 -0.0663 0.8227 0 0 0.0663c-0.1129,0.0028 -0.2067,0.0198 -0.2815,0.0515 -0.0755,0.0318 -0.1581,0.0882 -0.2477,0.1701l-0.4854 0.448 0.4854 0.6138c0.1355,0.1701 0.2265,0.2773 0.2731,0.3232 0.0663,0.0642 0.1241,0.1065 0.1735,0.1256 0.0346,0.0141 0.0946,0.0211 0.1799,0.0211l0 0.0741 -0.92 0 0 -0.0741c0.0529,-0.0014 0.0882,-0.0099 0.1065,-0.024 0.0191,-0.0148 0.0283,-0.0345 0.0283,-0.0614 0,-0.0317 -0.0275,-0.0825 -0.0826,-0.1524l-0.5814 -0.7422 0 0.6279c0,0.1228 0.0092,0.204 0.0261,0.2421 0.017,0.0388 0.0417,0.0663 0.0734,0.0825 0.0318,0.0169 0.1009,0.0261 0.2068,0.0275l0 0.0741 -0.9631 0 0 -0.0741c0.0966,0 0.1686,-0.012 0.2166,-0.0353 0.0289,-0.0155 0.0515,-0.0388 0.0663,-0.0705 0.0205,-0.0452 0.031,-0.1242 0.031,-0.2357l0 -1.7236c0,-0.2195 -0.0049,-0.3535 -0.0141,-0.4022 -0.0098,-0.0487 -0.0261,-0.0825 -0.0479,-0.1016 -0.0219,-0.0183 -0.0508,-0.0275 -0.0868,-0.0275 -0.029,0 -0.072,0.0113 -0.1298,0.0353l-0.0353 -0.0727 0.5623 -0.2314 0.0945 0z"/>
  <path class="fil1" d="M38.5152 50.4544c0.1382,-0.1382 0.2194,-0.2173 0.2441,-0.2377 0.0621,-0.0529 0.1291,-0.0932 0.2004,-0.1221 0.0719,-0.0289 0.1425,-0.0437 0.213,-0.0437 0.1186,0 0.2209,0.0345 0.3062,0.1037 0.0854,0.0684 0.1426,0.1686 0.1715,0.2998 0.1418,-0.1658 0.2618,-0.2744 0.3598,-0.3259 0.0974,-0.0515 0.1983,-0.0776 0.3013,-0.0776 0.1009,0 0.1898,0.0261 0.2681,0.0776 0.0776,0.0515 0.139,0.1361 0.1849,0.2533 0.0303,0.0797 0.0451,0.2053 0.0451,0.376l0 0.8149c0,0.1186 0.0092,0.1997 0.0268,0.2435 0.0141,0.0303 0.0395,0.0564 0.0769,0.0776 0.0374,0.0211 0.0974,0.0324 0.1821,0.0324l0 0.0741 -0.9349 0 0 -0.0741 0.0395 0c0.0812,0 0.1447,-0.0162 0.1905,-0.048 0.0318,-0.0218 0.0543,-0.0571 0.0677,-0.1051 0.0057,-0.0233 0.0085,-0.0903 0.0085,-0.2004l0 -0.8149c0,-0.1545 -0.0183,-0.2631 -0.0557,-0.3266 -0.0536,-0.0882 -0.1397,-0.132 -0.2583,-0.132 -0.0733,0 -0.1467,0.0184 -0.2201,0.0543 -0.0741,0.0367 -0.163,0.1045 -0.2681,0.204l-0.0042 0.0225 0.0042 0.0889 0 0.9038c0,0.1292 0.0078,0.2096 0.0219,0.2413 0.0148,0.0318 0.0416,0.0586 0.0818,0.0798 0.0395,0.0211 0.108,0.0324 0.2046,0.0324l0 0.0741 -0.9574 0 0 -0.0741c0.1051,0 0.1771,-0.0127 0.2166,-0.0374 0.0388,-0.0247 0.0663,-0.0621 0.0811,-0.1115 0.0071,-0.0239 0.0106,-0.0917 0.0106,-0.2046l0 -0.8149c0,-0.1545 -0.0226,-0.2653 -0.0684,-0.3323 -0.0607,-0.0882 -0.1454,-0.1326 -0.254,-0.1326 -0.0748,0 -0.1482,0.0197 -0.2216,0.0599 -0.1143,0.0607 -0.2025,0.1292 -0.2645,0.2047l0 1.0152c0,0.1235 0.0091,0.2046 0.0261,0.2413 0.0169,0.0374 0.043,0.0657 0.0762,0.084 0.0338,0.0183 0.1023,0.0282 0.206,0.0282l0 0.0741 -0.9363 0 0 -0.0741c0.0868,0 0.1475,-0.0099 0.1821,-0.0282 0.0338,-0.0183 0.0606,-0.048 0.0783,-0.0889 0.0176,-0.0409 0.0268,-0.1192 0.0268,-0.2364l0 -0.7239c0,-0.2081 -0.0064,-0.3421 -0.0184,-0.4028 -0.0098,-0.0459 -0.0254,-0.0769 -0.0458,-0.0939 -0.0205,-0.0176 -0.0487,-0.0261 -0.0847,-0.0261 -0.0388,0 -0.0847,0.0106 -0.1383,0.0311l-0.031 -0.0748 0.5701 -0.2314 0.0889 0 0 0.4035z"/>
  <g>
   <path class="fil1" d="M21.4725 32.6426l-5.599 6.1099 -0.1296 -0.1186 5.599 -6.1099 0.1296 0.1186zm0.2969 -0.2332l-0.3507 -0.0589 0.22 0.2015 -1.6186 0.42 -0.0893 -0.3442 1.6186 -0.42 0.22 0.2016zm0 0l-0.22 -0.2016 0.2654 -0.0688 -0.0454 0.2704zm-0.4522 1.6201l-0.1753 -0.0295 0.2768 -1.6495 0.3507 0.0589 -0.2768 1.6495 -0.1754 -0.0294z"/>
  </g>
  <polygon class="fil1" points="19.2338,40.0645 18.4987,39.342 17.7783,40.0744 17.6573,39.9555 18.3777,39.223 17.6453,38.5026 17.7643,38.3818 18.4967,39.1021 19.2192,38.3668 19.3401,38.4858 18.6176,39.2211 19.3529,39.9443 "/>
  <polygon class="fil1" points="15.6678,36.1271 15.8044,36.3802 15.0536,37.1435 14.917,36.8905 "/>
  <line class="fil0 str0" x1="6.0608" y1="57.8472" x2="11.5958" y2= "57.8472" />
  <line class="fil0 str0" x1="6.0823" y1="59.264" x2="11.6173" y2= "59.264" />
  <line class="fil0 str0" x1="6.1038" y1="60.6808" x2="11.6388" y2= "60.6808" />
  <line class="fil0 str0" x1="6.1253" y1="62.0976" x2="11.6603" y2= "62.0976" />
  <line class="fil0 str0" x1="6.1468" y1="63.5144" x2="11.6818" y2= "63.5144" />
  <line class="fil0 str0" x1="6.0675" y1="64.9312" x2="11.6025" y2= "64.9312" />
  <line class="fil0 str0" x1="6.1898" y1="66.348" x2="11.7248" y2= "66.348" />
  <line class="fil0 str0" x1="6.0769" y1="67.7648" x2="11.6119" y2= "67.7648" />
  <line class="fil0 str0" x1="6.0984" y1="69.1816" x2="11.6334" y2= "69.1816" />
  <line class="fil0 str0" x1="6.1199" y1="70.5984" x2="11.6549" y2= "70.5984" />
  <line class="fil0 str0" x1="7.4991" y1="59.264" x2="7.4681" y2= "57.8472" />
  <line class="fil0 str0" x1="7.4735" y1="62.2244" x2="7.4425" y2= "60.8076" />
  <line class="fil0 str0" x1="7.4479" y1="64.9318" x2="7.4169" y2= "63.515" />
  <line class="fil0 str0" x1="7.4252" y1="67.7736" x2="7.3942" y2= "66.3568" />
  <line class="fil0 str0" x1="7.3799" y1="70.5502" x2="7.3489" y2= "69.1334" />
  <line class="fil0 str0" x1="7.4735" y1="61.9714" x2="7.4425" y2= "60.5546" />
  <line class="fil0 str0" x1="10.3833" y1="59.3146" x2="10.3523" y2= "57.8978" />
  <line class="fil0 str0" x1="10.3577" y1="62.275" x2="10.3267" y2= "60.8582" />
  <line class="fil0 str0" x1="10.3321" y1="64.9824" x2="10.3011" y2= "63.5656" />
  <line class="fil0 str0" x1="10.3065" y1="67.6898" x2="10.2755" y2= "66.273" />
  <line class="fil0 str0" x1="10.2641" y1="70.6008" x2="10.2331" y2= "69.184" />
  <line class="fil0 str0" x1="10.3577" y1="62.022" x2="10.3267" y2= "60.6052" />
  <line class="fil0 str0" x1="8.8438" y1="57.8739" x2="8.8128" y2= "57.1655" />
  <line class="fil0 str0" x1="8.9665" y1="60.7314" x2="8.9355" y2= "59.3146" />
  <line class="fil0 str0" x1="8.9665" y1="63.6156" x2="8.9355" y2= "62.1988" />
  <line class="fil0 str0" x1="8.9665" y1="66.2468" x2="8.9355" y2= "64.83" />
  <line class="fil0 str0" x1="8.9665" y1="69.131" x2="8.9355" y2= "67.7142" />
  <rect class="fil0 str0" x="53.1539" y="57.1655" width="5.535" height="13.7279"/>
  <line class="fil0 str0" x1="53.1539" y1="57.8472" x2="58.6889" y2= "57.8472" />
  <line class="fil0 str0" x1="53.1754" y1="59.264" x2="58.7104" y2= "59.264" />
  <line class="fil0 str0" x1="53.1969" y1="60.6808" x2="58.7319" y2= "60.6808" />
  <line class="fil0 str0" x1="53.2184" y1="62.0976" x2="58.7534" y2= "62.0976" />
  <line class="fil0 str0" x1="53.2399" y1="63.5144" x2="58.7749" y2= "63.5144" />
  <line class="fil0 str0" x1="53.1606" y1="64.9312" x2="58.6956" y2= "64.9312" />
  <line class="fil0 str0" x1="53.2829" y1="66.348" x2="58.8179" y2= "66.348" />
  <line class="fil0 str0" x1="53.17" y1="67.7648" x2="58.705" y2= "67.7648" />
  <line class="fil0 str0" x1="53.1915" y1="69.1816" x2="58.7265" y2= "69.1816" />
  <line class="fil0 str0" x1="53.213" y1="70.5984" x2="58.748" y2= "70.5984" />
  <line class="fil0 str0" x1="54.5922" y1="59.264" x2="54.5612" y2= "57.8472" />
  <line class="fil0 str0" x1="54.5666" y1="62.2244" x2="54.5356" y2= "60.8076" />
  <line class="fil0 str0" x1="54.541" y1="64.9318" x2="54.51" y2= "63.515" />
  <line class="fil0 str0" x1="54.5183" y1="67.7736" x2="54.4873" y2= "66.3568" />
  <line class="fil0 str0" x1="54.473" y1="70.5502" x2="54.442" y2= "69.1334" />
  <line class="fil0 str0" x1="54.5666" y1="61.9714" x2="54.5356" y2= "60.5546" />
  <line class="fil0 str0" x1="57.4764" y1="59.3146" x2="57.4454" y2= "57.8978" />
  <line class="fil0 str0" x1="57.4508" y1="62.275" x2="57.4198" y2= "60.8582" />
  <line class="fil0 str0" x1="57.4252" y1="64.9824" x2="57.3942" y2= "63.5656" />
  <line class="fil0 str0" x1="57.3996" y1="67.6898" x2="57.3686" y2= "66.273" />
  <line class="fil0 str0" x1="57.3572" y1="70.6008" x2="57.3262" y2= "69.184" />
  <line class="fil0 str0" x1="57.4508" y1="62.022" x2="57.4198" y2= "60.6052" />
  <line class="fil0 str0" x1="55.9369" y1="57.8739" x2="55.9059" y2= "57.1655" />
  <line class="fil0 str0" x1="56.0596" y1="60.7314" x2="56.0286" y2= "59.3146" />
  <line class="fil0 str0" x1="56.0596" y1="63.6156" x2="56.0286" y2= "62.1988" />
  <line class="fil0 str0" x1="56.0596" y1="66.2468" x2="56.0286" y2= "64.83" />
  <line class="fil0 str0" x1="56.0596" y1="69.131" x2="56.0286" y2= "67.7142" />
  <line class="fil0 str0" x1="57.8438" y1="40.3736" x2="63.4592" y2= "40.3736" />
  <g>
   <path class="fil1" d="M60.3979 53.4192l-0.2984 0.001 -0.9143 -1.4002 0.2977 -0.1944 0.9144 1.4002 -0.2984 0.0009 0.299 0.1925zm0 0l-0.1485 0.2305 -0.1499 -0.2295 0.2984 -0.001zm0.7561 -1.5025l0.1495 0.0963 -0.9056 1.4062 -0.299 -0.1925 0.9056 -1.4062 0.1495 0.0962zm-0.8596 -11.0946l0.041 12.225 -0.1758 0 -0.041 -12.225 0.1758 0zm0.06 -0.3731l-0.2976 0.1945 0.2983 -0.0011 -0.9049 1.4063 -0.299 -0.1925 0.9049 -1.4062 0.2983 -0.001zm0 0l-0.2983 0.001 0.1484 -0.2305 0.1499 0.2295zm0.7662 1.4974l-0.1488 0.0972 -0.915 -1.4001 0.2976 -0.1945 0.9151 1.4001 -0.1489 0.0973z"/>
  </g>
  <line class="fil0 str0" x1="57.8324" y1="53.6341" x2="63.4478" y2= "53.6341" />
  <path class="fil1" d="M63.3774 45.3937l-0.5807 2.0073c0.2505,-0.3775 0.4459,-0.6287 0.587,-0.7529 0.1404,-0.1234 0.2745,-0.1855 0.4029,-0.1855 0.0663,0 0.1213,0.0226 0.1651,0.0677 0.0444,0.0459 0.0663,0.1066 0.0663,0.1821 0,0.091 -0.019,0.201 -0.0578,0.3309l-0.2519 0.8657c-0.0318,0.1051 -0.048,0.1629 -0.048,0.1735 0,0.0198 0.0056,0.0353 0.0176,0.048 0.012,0.012 0.0254,0.0184 0.0403,0.0184 0.0183,0 0.0388,-0.0085 0.062,-0.0269 0.0784,-0.0606 0.1567,-0.1446 0.2336,-0.2518l0.0642 0.0388c-0.0466,0.0733 -0.1122,0.1538 -0.1955,0.2413 -0.0832,0.0875 -0.1552,0.1481 -0.2151,0.182 -0.06,0.0332 -0.1129,0.0501 -0.1602,0.0501 -0.0508,0 -0.0924,-0.0162 -0.1249,-0.0487 -0.0324,-0.0317 -0.0487,-0.0741 -0.0487,-0.1249 0,-0.0607 0.024,-0.1735 0.0727,-0.3386l0.2378 -0.8269c0.0303,-0.1038 0.0451,-0.1849 0.0451,-0.2442 0,-0.0275 -0.0084,-0.0494 -0.0254,-0.0663 -0.0176,-0.0162 -0.0402,-0.0247 -0.0677,-0.0247 -0.0395,0 -0.0854,0.0155 -0.1362,0.0459 -0.0938,0.0578 -0.2018,0.1651 -0.3245,0.3224 -0.0332,0.0423 -0.1433,0.2145 -0.3309,0.5165 -0.0579,0.0966 -0.1052,0.2018 -0.1426,0.3161l-0.1319 0.424 -0.3104 0 0.6801 -2.365 0.0727 -0.2561c0,-0.036 -0.0148,-0.0678 -0.0445,-0.0953 -0.0296,-0.0275 -0.0663,-0.0409 -0.1086,-0.0409 -0.0247,0 -0.0628,0.0042 -0.1136,0.012l-0.0438 0.0064 0 -0.0805 0.7155 -0.1199z"/>
  <g>
   <path class="fil1" d="M3.5258 48.8506l-0.1099 -8.2863 0.1758 -0.002 0.1099 8.2863 -0.1758 0.002zm-0.0564 0.3736l0.2958 -0.1974 -0.2984 0.004 0.891 -1.4152 0.3009 0.1895 -0.8909 1.4151 -0.2984 0.004zm0 0l0.2984 -0.004 -0.1461 0.232 -0.1523 -0.228zm-0.781 -1.4897l0.1479 -0.0988 0.9289 1.3911 -0.2958 0.1974 -0.9288 -1.391 0.1478 -0.0987z"/>
  </g>
  <polygon class="fil1" points="0.0792,41.9101 1.1108,41.9249 1.1263,40.8983 1.2956,40.901 1.2801,41.9276 2.3074,41.9431 2.3048,42.1124 1.2775,42.0969 1.2619,43.1285 1.0927,43.1258 1.1081,42.095 0.0773,42.0794 "/>
  <polygon class="fil1" points="5.374,42.3284 5.1009,42.2397 5.1171,41.1694 5.3901,41.2581 "/>
  <g>
   <path class="fil1" d="M22.7242 62.8169l-8.2869 0.0616 -0.0006 -0.1758 8.2869 -0.0616 0.0006 0.1758zm0.3735 0.0585l-0.1958 -0.2969 0.0023 0.2984 -1.4099 -0.8992 0.1912 -0.2998 1.4099 0.8992 0.0023 0.2983zm0 0l-0.0023 -0.2983 0.2311 0.1474 -0.2288 0.1509zm-1.4943 0.7723l-0.0979 -0.1484 1.3964 -0.9208 0.1958 0.2969 -1.3964 0.9207 -0.0979 -0.1484z"/>
  </g>
  <polygon class="fil1" points="15.7647,66.2299 15.7919,65.1993 14.7654,65.1728 14.7698,65.0036 15.7963,65.0299 15.8226,64.0035 15.992,64.0079 15.9655,65.0343 16.9963,65.0615 16.9919,65.2307 15.9612,65.2036 15.9341,66.2343 "/>
  <polygon class="fil1" points="16.218,60.937 16.1262,61.2096 15.0561,61.1823 15.1478,60.9097 "/>
 </g>
</svg>
