<?xml version="1.0" encoding="UTF-8"?>
<!DOCTYPE svg PUBLIC "-//W3C//DTD SVG 1.1//EN" "http://www.w3.org/Graphics/SVG/1.1/DTD/svg11.dtd">
<!-- Creator: CorelDRAW -->
<svg xmlns="http://www.w3.org/2000/svg" xml:space="preserve" width="210mm" height="297mm" style="shape-rendering:geometricPrecision; text-rendering:geometricPrecision; image-rendering:optimizeQuality; fill-rule:evenodd; clip-rule:evenodd"
viewBox="0 0 210 297">
 <defs>
  <style type="text/css">
   <![CDATA[
    .str0 {stroke:#1F1A17;stroke-width:0.1764}
    .str1 {stroke:#131516;stroke-width:0.1764}
    .fil0 {fill:none}
    .fil2 {fill:#1F1A17;fill-rule:nonzero}
    .fil3 {fill:url(#id0)}
    .fil1 {fill:url(#id1)}
   ]]>
  </style>
  <linearGradient id="id0" gradientUnits="userSpaceOnUse" x1="77.4568" y1="19.845" x2="109.452" y2="19.845">
   <stop offset="0" style="stop-color:#DEDEDD"/>
   <stop offset="1" style="stop-color:#DEDEDD"/>
  </linearGradient>
  <linearGradient id="id1" gradientUnits="userSpaceOnUse" x1="27.9352" y1="10.436" x2="27.9352" y2="9.4671">
   <stop offset="0" style="stop-color:white"/>
   <stop offset="1" style="stop-color:white"/>
  </linearGradient>
 </defs>
 <g id="Layer_x0020_1">
  <metadata id="CorelCorpID_0Corel-Layer"/>
  <rect class="fil0 str0" transform="matrix(1.06836 -0.757045 0.757045 1.06836 27.6686 10.5246)" width="0.715" height="18.8861"/>
  <polygon class="fil0 str1" points="27.4181,9.9515 26.321,10.8328 25.2238,11.7141 25.2238,9.9515 25.2238,8.189 26.321,9.0703 "/>
  <g id="_195167816">
   <line id="_195171424" class="fil0 str1" x1="23.9855" y1="12.3558" x2="23.9855" y2= "7.9673" />
   <g>
    <line id="_195170968" class="fil0 str1" x1="23.9251" y1="11.933" x2="23.0595" y2= "12.3155" />
    <line id="_195170376" class="fil0 str1" x1="23.9251" y1="11.1497" x2="23.0595" y2= "11.5322" />
    <line id="_195169920" class="fil0 str1" x1="23.9251" y1="10.3664" x2="23.0595" y2= "10.7489" />
    <line id="_195169464" class="fil0 str1" x1="23.9251" y1="9.5832" x2="23.0595" y2= "9.9656" />
    <line id="_195169008" class="fil0 str1" x1="23.9251" y1="8.7999" x2="23.0595" y2= "9.1823" />
    <line id="_195168552" class="fil0 str1" x1="23.9251" y1="8.0166" x2="23.0595" y2= "8.3991" />
   </g>
  </g>
  <circle class="fil1 str1" transform="matrix(-1.27584E-013 -0.688188 -0.688188 1.27584E-013 27.9352 9.95154)" r="0.704"/>
  <polygon class="fil0 str1" points="42.4421,30.993 41.5609,32.0902 40.6796,33.1873 42.4421,33.1873 44.2047,33.1873 43.3234,32.0902 "/>
  <g id="_195162744">
   <line id="_195166320" class="fil0 str1" x1="40.0618" y1="33.1929" x2="44.4503" y2= "33.1929" />
   <g>
    <line id="_195165864" class="fil0 str1" x1="40.4846" y1="33.2533" x2="40.1021" y2= "34.1189" />
    <line id="_195165408" class="fil0 str1" x1="41.2679" y1="33.2533" x2="40.8854" y2= "34.1189" />
    <line id="_195164816" class="fil0 str1" x1="42.0512" y1="33.2533" x2="41.6687" y2= "34.1189" />
    <line id="_195164360" class="fil0 str1" x1="42.8345" y1="33.2533" x2="42.452" y2= "34.1189" />
    <line id="_195163904" class="fil0 str1" x1="43.6178" y1="33.2533" x2="43.2353" y2= "34.1189" />
    <line id="_195163448" class="fil0 str1" x1="44.401" y1="33.2533" x2="44.0186" y2= "34.1189" />
   </g>
  </g>
  <circle class="fil1 str1" cx="42.4422" cy="30.4759" r="0.484484"/>
  <circle class="fil0 str1" transform="matrix(-1.27584E-013 -0.688188 -0.688188 1.27584E-013 24.597 9.95154)" r="0.704"/>
  <g>
   <path class="fil2" d="M35.3047 19.3119l-0.2984 0 -0.9096 -1.4032 0.2984 -0.1934 0.9096 1.4032 -0.2984 -0.0001 0.2984 0.1935zm0 0l-0.1493 0.23 -0.1491 -0.23 0.2984 0zm0.7611 -1.4999l0.1492 0.0967 -0.9103 1.4032 -0.2984 -0.1935 0.9104 -1.4032 0.1491 0.0968zm-0.7339 -7.4247l0 8.552 -0.3528 0 0 -8.552 0.3528 0z"/>
  </g>
  <path class="fil2" d="M32.7035 34.8795l-0.4028 1.4012 -0.0452 0.1884c-0.0042,0.0176 -0.0064,0.0324 -0.0064,0.0451 0,0.0219 0.0071,0.0417 0.0205,0.0579 0.0113,0.0127 0.0247,0.0183 0.0416,0.0183 0.0177,0 0.041,-0.0105 0.0699,-0.0324 0.0543,-0.0402 0.1256,-0.1228 0.2152,-0.2484l0.0705 0.0494c-0.0952,0.1433 -0.1933,0.2526 -0.2935,0.3281 -0.1009,0.0748 -0.194,0.1122 -0.2794,0.1122 -0.0592,0 -0.1037,-0.0148 -0.1333,-0.0445 -0.0297,-0.0296 -0.0445,-0.0726 -0.0445,-0.1291 0,-0.067 0.0156,-0.1559 0.0459,-0.2667l0.043 -0.1545c-0.1806,0.2357 -0.3464,0.4001 -0.4981,0.4939 -0.1086,0.067 -0.2159,0.1009 -0.3203,0.1009 -0.1009,0 -0.1877,-0.0416 -0.2604,-0.1249 -0.0733,-0.0832 -0.1093,-0.1983 -0.1093,-0.3443 0,-0.2187 0.0656,-0.4501 0.1968,-0.6936 0.132,-0.2427 0.2992,-0.4374 0.5017,-0.5834 0.158,-0.1158 0.3076,-0.1736 0.4487,-0.1736 0.084,0 0.1538,0.0219 0.2096,0.0656 0.0557,0.0445 0.098,0.1171 0.127,0.2194l0.0747 -0.2356 0.3281 -0.0494zm-0.7359 0.1072c-0.0882,0 -0.1813,0.0417 -0.2808,0.1242 -0.1404,0.1171 -0.2653,0.2907 -0.3753,0.5207 -0.1094,0.23 -0.1644,0.4381 -0.1644,0.6244 0,0.0939 0.024,0.1679 0.0705,0.2223 0.0466,0.0543 0.1009,0.0811 0.1616,0.0811 0.1496,0 0.3133,-0.1108 0.4897,-0.3323 0.2356,-0.2949 0.3534,-0.5976 0.3534,-0.9073 0,-0.1172 -0.0225,-0.2018 -0.0684,-0.2548 -0.0452,-0.0522 -0.1072,-0.0783 -0.1863,-0.0783z"/>
  <g>
   <path class="fil2" d="M35.4898 38.8226l-0.0012 -0.2984 1.3992 -0.9156 0.1948 0.2975 -1.3993 0.9157 -0.0012 -0.2984 -0.1923 0.2992zm0 0l-0.2306 -0.1483 0.2294 -0.1501 0.0012 0.2984zm1.5032 0.7547l-0.0961 0.1496 -1.4071 -0.9043 0.1923 -0.2992 1.407 0.9043 -0.0961 0.1496zm5.0204 -0.8441l-6.1513 0.0266 -0.0006 -0.1758 6.1513 -0.0266 0.0006 0.1758zm0.373 0.0597l-0.1948 -0.2974 0.0013 0.2983 -1.4071 -0.9036 0.1922 -0.2992 1.407 0.9036 0.0014 0.2983zm0 0l-0.0014 -0.2983 0.2307 0.1481 -0.2293 0.1502zm-1.4967 0.7677l-0.0974 -0.1488 1.3993 -0.9163 0.1948 0.2974 -1.3993 0.9164 -0.0974 -0.1487z"/>
  </g>
  <line class="fil0 str0" x1="35.3208" y1="36.9979" x2="35.3208" y2= "40.8922" />
  <line class="fil0 str0" x1="42.5002" y1="36.6961" x2="42.5002" y2= "40.5904" />
  <g>
   <path class="fil2" d="M28.3312 38.8147l-0.0012 -0.2984 1.3992 -0.9156 0.1948 0.2975 -1.3993 0.9157 -0.0012 -0.2984 -0.1923 0.2992zm0 0l-0.2306 -0.1483 0.2294 -0.1501 0.0012 0.2984zm1.5032 0.7547l-0.0961 0.1496 -1.4071 -0.9043 0.1923 -0.2992 1.407 0.9043 -0.0961 0.1496zm5.0204 -0.8441l-6.1513 0.0266 -0.0006 -0.1758 6.1513 -0.0266 0.0006 0.1758zm0.373 0.0597l-0.1948 -0.2974 0.0013 0.2983 -1.4071 -0.9036 0.1922 -0.2992 1.407 0.9036 0.0014 0.2983zm0 0l-0.0014 -0.2983 0.2307 0.1481 -0.2293 0.1502zm-1.4967 0.7677l-0.0974 -0.1488 1.3993 -0.9163 0.1948 0.2974 -1.3993 0.9164 -0.0974 -0.1487z"/>
  </g>
  <line class="fil0 str0" x1="28.1622" y1="36.99" x2="28.1622" y2= "40.8843" />
  <path class="fil2" d="M40.2737 35.1089l-0.4028 1.4012 -0.0452 0.1884c-0.0042,0.0176 -0.0064,0.0324 -0.0064,0.0451 0,0.0219 0.0071,0.0417 0.0205,0.0579 0.0113,0.0127 0.0247,0.0183 0.0416,0.0183 0.0177,0 0.041,-0.0105 0.0699,-0.0324 0.0543,-0.0402 0.1256,-0.1228 0.2152,-0.2484l0.0705 0.0494c-0.0952,0.1433 -0.1933,0.2526 -0.2935,0.3281 -0.1009,0.0748 -0.194,0.1122 -0.2794,0.1122 -0.0592,0 -0.1037,-0.0148 -0.1333,-0.0445 -0.0297,-0.0296 -0.0445,-0.0726 -0.0445,-0.1291 0,-0.067 0.0156,-0.1559 0.0459,-0.2667l0.043 -0.1545c-0.1806,0.2357 -0.3464,0.4001 -0.4981,0.4939 -0.1086,0.067 -0.2159,0.1009 -0.3203,0.1009 -0.1009,0 -0.1877,-0.0416 -0.2604,-0.1249 -0.0733,-0.0832 -0.1093,-0.1983 -0.1093,-0.3443 0,-0.2187 0.0656,-0.4501 0.1968,-0.6936 0.132,-0.2427 0.2992,-0.4374 0.5017,-0.5834 0.158,-0.1158 0.3076,-0.1736 0.4487,-0.1736 0.084,0 0.1538,0.0219 0.2096,0.0656 0.0557,0.0445 0.098,0.1171 0.127,0.2194l0.0747 -0.2356 0.3281 -0.0494zm-0.7359 0.1072c-0.0882,0 -0.1813,0.0417 -0.2808,0.1242 -0.1404,0.1171 -0.2653,0.2907 -0.3753,0.5207 -0.1094,0.23 -0.1644,0.4381 -0.1644,0.6244 0,0.0939 0.024,0.1679 0.0705,0.2223 0.0466,0.0543 0.1009,0.0811 0.1616,0.0811 0.1496,0 0.3133,-0.1108 0.4897,-0.3323 0.2356,-0.2949 0.3534,-0.5976 0.3534,-0.9073 0,-0.1172 -0.0225,-0.2018 -0.0684,-0.2548 -0.0452,-0.0522 -0.1072,-0.0783 -0.1863,-0.0783z"/>
  <line class="fil0 str0" x1="18.553" y1="10.0115" x2="22.4473" y2= "10.0115" />
  <g>
   <path class="fil2" d="M20.3701 30.3538l-0.2984 0.0004 -0.9117 -1.4018 0.2981 -0.1939 0.9117 1.4018 -0.2983 0.0004 0.2986 0.1931zm0 0l-0.1489 0.2302 -0.1495 -0.2298 0.2984 -0.0004zm0.7589 -1.5011l0.1493 0.0966 -0.9082 1.4045 -0.2986 -0.1931 0.9082 -1.4045 0.1493 0.0965zm-0.8499 -18.4142l0.0292 19.5429 -0.1758 0 -0.0292 -19.5429 0.1758 0zm0.0607 -0.3729l-0.298 0.194 0.2984 -0.0005 -0.9076 1.4046 -0.2987 -0.193 0.9076 -1.4046 0.2983 -0.0005zm0 0l-0.2983 0.0005 0.1488 -0.2302 0.1495 0.2297zm0.7634 1.4989l-0.149 0.097 -0.9124 -1.4019 0.298 -0.194 0.9125 1.4019 -0.1491 0.097z"/>
  </g>
  <line class="fil0 str0" x1="18.5451" y1="30.6237" x2="22.4394" y2= "30.6237" />
  <path class="fil2" d="M17.393 18.3261l-0.5807 2.0073c0.2505,-0.3775 0.4459,-0.6287 0.587,-0.7529 0.1404,-0.1234 0.2745,-0.1855 0.4029,-0.1855 0.0663,0 0.1213,0.0226 0.1651,0.0677 0.0444,0.0459 0.0663,0.1066 0.0663,0.1821 0,0.091 -0.019,0.201 -0.0578,0.3309l-0.2519 0.8657c-0.0318,0.1051 -0.048,0.1629 -0.048,0.1735 0,0.0198 0.0056,0.0353 0.0176,0.048 0.012,0.012 0.0254,0.0184 0.0403,0.0184 0.0183,0 0.0388,-0.0085 0.062,-0.0269 0.0784,-0.0606 0.1567,-0.1446 0.2336,-0.2518l0.0642 0.0388c-0.0466,0.0733 -0.1122,0.1538 -0.1955,0.2413 -0.0832,0.0875 -0.1552,0.1481 -0.2151,0.182 -0.06,0.0332 -0.1129,0.0501 -0.1602,0.0501 -0.0508,0 -0.0924,-0.0162 -0.1249,-0.0487 -0.0324,-0.0317 -0.0487,-0.0741 -0.0487,-0.1249 0,-0.0607 0.024,-0.1735 0.0727,-0.3386l0.2378 -0.8269c0.0303,-0.1038 0.0451,-0.1849 0.0451,-0.2442 0,-0.0275 -0.0084,-0.0494 -0.0254,-0.0663 -0.0176,-0.0162 -0.0402,-0.0247 -0.0677,-0.0247 -0.0395,0 -0.0854,0.0155 -0.1362,0.0459 -0.0938,0.0578 -0.2018,0.1651 -0.3245,0.3224 -0.0332,0.0423 -0.1433,0.2145 -0.3309,0.5165 -0.0579,0.0966 -0.1052,0.2018 -0.1426,0.3161l-0.1319 0.424 -0.3104 0 0.6801 -2.365 0.0727 -0.2561c0,-0.036 -0.0148,-0.0678 -0.0445,-0.0953 -0.0296,-0.0275 -0.0663,-0.0409 -0.1086,-0.0409 -0.0247,0 -0.0628,0.0042 -0.1136,0.012l-0.0438 0.0064 0 -0.0805 0.7155 -0.1199z"/>
  <path class="fil2" d="M38.032 8.4351l-0.3309 1.1106 0.3683 0c0.1651,0 0.2893,-0.0261 0.3711,-0.0769 0.0819,-0.0508 0.1666,-0.1595 0.2533,-0.3267l0.0784 0 -0.2914 1.0209 -0.0826 0c0.0205,-0.0825 0.0311,-0.1503 0.0311,-0.2046 0,-0.084 -0.0283,-0.1489 -0.084,-0.1947 -0.0557,-0.0466 -0.1602,-0.0699 -0.3133,-0.0699l-0.3718 0 -0.2441 0.846c-0.0438,0.1503 -0.0663,0.2497 -0.0663,0.2991 0,0.0515 0.019,0.0903 0.0571,0.1179 0.0381,0.0282 0.1305,0.0465 0.278,0.0564l-0.0247 0.0762 -1.1077 0 0.0268 -0.0762c0.1072,-0.0028 0.1792,-0.0127 0.2145,-0.0289 0.055,-0.024 0.0959,-0.0558 0.122,-0.0953 0.0374,-0.0564 0.0812,-0.1728 0.1327,-0.3492l0.4939 -1.6891c0.0395,-0.1362 0.0599,-0.2434 0.0599,-0.3203 0,-0.036 -0.0091,-0.0664 -0.0268,-0.0918 -0.0183,-0.0254 -0.0444,-0.0444 -0.0797,-0.0571 -0.0353,-0.012 -0.1051,-0.0183 -0.2095,-0.0183l0.0247 -0.077 2.1745 0 -0.2068 0.7091 -0.079 0c0.0155,-0.0853 0.0233,-0.1552 0.0233,-0.2109 0,-0.091 -0.0254,-0.163 -0.0755,-0.2159 -0.0508,-0.0529 -0.115,-0.0903 -0.1933,-0.1122 -0.0551,-0.0141 -0.1785,-0.0212 -0.3704,-0.0212l-0.5518 0z"/>
  <rect class="fil3 str0" x="77.4568" y="9.6458" width="31.9949" height="20.3985"/>
  <polygon class="fil0 str1" points="109.666,9.5674 110.763,10.4487 111.86,11.33 111.86,9.5674 111.86,7.8049 110.763,8.6862 "/>
  <g>
   <line class="fil0 str1" x1="113.099" y1="11.9717" x2="113.099" y2= "7.5832" />
   <g>
    <line class="fil0 str1" x1="113.159" y1="11.5489" x2="114.025" y2= "11.9314" />
    <line class="fil0 str1" x1="113.159" y1="10.7656" x2="114.025" y2= "11.1481" />
    <line class="fil0 str1" x1="113.159" y1="9.9823" x2="114.025" y2= "10.3648" />
    <line class="fil0 str1" x1="113.159" y1="9.1991" x2="114.025" y2= "9.5815" />
    <line class="fil0 str1" x1="113.159" y1="8.4158" x2="114.025" y2= "8.7982" />
    <line class="fil0 str1" x1="113.159" y1="7.6325" x2="114.025" y2= "8.015" />
   </g>
  </g>
  <circle class="fil0 str1" transform="matrix(1.27584E-013 -0.688188 0.688188 1.27584E-013 112.487 9.56744)" r="0.704"/>
  <polygon class="fil0 str1" points="109.427,30.2054 108.546,31.3025 107.665,32.3997 109.427,32.3997 111.19,32.3997 110.309,31.3025 "/>
  <g>
   <line class="fil0 str1" x1="107.023" y1="33.638" x2="111.412" y2= "33.638" />
   <g>
    <line class="fil0 str1" x1="107.446" y1="33.6984" x2="107.064" y2= "34.564" />
    <line class="fil0 str1" x1="108.229" y1="33.6984" x2="107.847" y2= "34.564" />
    <line class="fil0 str1" x1="109.013" y1="33.6984" x2="108.63" y2= "34.564" />
    <line class="fil0 str1" x1="109.796" y1="33.6984" x2="109.413" y2= "34.564" />
    <line class="fil0 str1" x1="110.579" y1="33.6984" x2="110.197" y2= "34.564" />
    <line class="fil0 str1" x1="111.362" y1="33.6984" x2="110.98" y2= "34.564" />
   </g>
  </g>
  <circle class="fil0 str1" cx="109.427" cy="33.0265" r="0.484484"/>
  <polygon class="fil0 str1" points="88.5265,30.2945 87.6452,31.3916 86.7639,32.4888 88.5265,32.4888 90.289,32.4888 89.4077,31.3916 "/>
  <g>
   <line class="fil0 str1" x1="86.1222" y1="33.7271" x2="90.5107" y2= "33.7271" />
   <g>
    <line class="fil0 str1" x1="86.545" y1="33.7875" x2="86.1625" y2= "34.6531" />
    <line class="fil0 str1" x1="87.3283" y1="33.7875" x2="86.9458" y2= "34.6531" />
    <line class="fil0 str1" x1="88.1116" y1="33.7875" x2="87.7291" y2= "34.6531" />
    <line class="fil0 str1" x1="88.8948" y1="33.7875" x2="88.5124" y2= "34.6531" />
    <line class="fil0 str1" x1="89.6781" y1="33.7875" x2="89.2957" y2= "34.6531" />
    <line class="fil0 str1" x1="90.4614" y1="33.7875" x2="90.0789" y2= "34.6531" />
   </g>
  </g>
  <circle class="fil0 str1" cx="88.5265" cy="33.1156" r="0.484484"/>
  <path class="fil2" d="M83.2865 39.2893l-0.707 2.4595c-0.0345,0.1228 -0.0515,0.1983 -0.0515,0.2258 0,0.0205 0.0064,0.0374 0.0198,0.0515 0.0127,0.0134 0.0289,0.0205 0.0487,0.0205 0.0261,0 0.0543,-0.0113 0.0846,-0.0353 0.0713,-0.0565 0.1468,-0.1439 0.2251,-0.2625l0.0621 0.0642c-0.1312,0.1849 -0.2512,0.3133 -0.3619,0.3867 -0.0812,0.0522 -0.1581,0.0783 -0.2315,0.0783 -0.0522,0 -0.0959,-0.0177 -0.1312,-0.0536 -0.0353,-0.036 -0.0529,-0.0769 -0.0529,-0.1242 0,-0.0494 0.0226,-0.151 0.0663,-0.3055l0.5602 -1.9389c0.0459,-0.1587 0.0684,-0.2497 0.0684,-0.273 0,-0.0332 -0.0134,-0.06 -0.0395,-0.0819 -0.0261,-0.0211 -0.067,-0.0317 -0.122,-0.0317 -0.0318,0 -0.0797,0.0049 -0.1447,0.0141l0 -0.0762 0.707 -0.1178z"/>
  <path class="fil2" d="M84.1741 42.805l-0.098 0.2696 -0.8269 0 0 -0.0381c0.2434,-0.2223 0.4148,-0.4029 0.5136,-0.544 0.0995,-0.1404 0.1489,-0.2688 0.1489,-0.3853 0,-0.0889 -0.0268,-0.1622 -0.0812,-0.2194 -0.0543,-0.0571 -0.1199,-0.0854 -0.1954,-0.0854 -0.0692,0 -0.1305,0.0198 -0.1856,0.06 -0.055,0.0409 -0.0952,0.0995 -0.1213,0.1778l-0.0381 0c0.0169,-0.1277 0.0614,-0.2258 0.1326,-0.2935 0.0713,-0.0684 0.1602,-0.1023 0.2667,-0.1023 0.1143,0 0.2089,0.036 0.2851,0.1094 0.0762,0.0726 0.1143,0.1594 0.1143,0.2582 0,0.0713 -0.017,0.1418 -0.0494,0.2131 -0.0515,0.1114 -0.1341,0.23 -0.2484,0.3542 -0.1714,0.1876 -0.2787,0.3005 -0.3217,0.3393l0.3662 0c0.0741,0 0.1263,-0.0028 0.1566,-0.0084 0.0296,-0.0057 0.0571,-0.017 0.0811,-0.0339 0.024,-0.0162 0.0452,-0.0402 0.0628,-0.0713l0.0381 0z"/>
  <g>
   <path class="fil2" d="M88.4537 44.4493l-0.0004 -0.2984 1.4019 -0.9116 0.1938 0.2981 -1.4018 0.9116 -0.0004 -0.2983 -0.1931 0.2986zm0 0l-0.2302 -0.1489 0.2298 -0.1495 0.0004 0.2984zm1.501 0.759l-0.0965 0.1493 -1.4045 -0.9083 0.1931 -0.2986 1.4045 0.9083 -0.0966 0.1493zm18.9855 -0.85l-20.1141 0.0292 0 -0.1758 20.1141 -0.0292 0 0.1758zm0.3729 0.0607l-0.194 -0.298 0.0005 0.2983 -1.4045 -0.9075 0.193 -0.2987 1.4045 0.9076 0.0005 0.2983zm0 0l-0.0005 -0.2983 0.2302 0.1488 -0.2297 0.1495zm-1.4989 0.7634l-0.097 -0.149 1.4019 -0.9124 0.194 0.298 -1.4019 0.9124 -0.097 -0.149z"/>
  </g>
  <line class="fil0 str0" x1="88.339" y1="42.6243" x2="88.339" y2= "46.5186" />
  <line class="fil0 str0" x1="109.427" y1="42.3225" x2="109.427" y2= "46.2168" />
  <g>
   <path class="fil2" d="M77.6921 44.4413l-0.0005 -0.2983 1.4015 -0.9123 0.194 0.298 -1.4015 0.9123 -0.0005 -0.2984 -0.193 0.2987zm0 0l-0.2302 -0.1487 0.2297 -0.1496 0.0005 0.2983zm1.5015 0.7583l-0.0965 0.1494 -1.405 -0.9077 0.193 -0.2987 1.405 0.9077 -0.0965 0.1493zm8.6585 -0.8392l-9.7876 0.019 0 -0.1758 9.7876 -0.019 0 0.1758zm0.3729 0.0606l-0.1941 -0.298 0.0006 0.2984 -1.4049 -0.9069 0.1928 -0.2988 1.405 0.9069 0.0006 0.2984zm0 0l-0.0006 -0.2984 0.2303 0.1487 -0.2297 0.1497zm-1.4985 0.7641l-0.097 -0.149 1.4014 -0.9131 0.1941 0.298 -1.4014 0.913 -0.0971 -0.1489z"/>
  </g>
  <line class="fil0 str0" x1="77.4572" y1="42.6164" x2="77.4572" y2= "46.5107" />
  <g>
   <path class="fil2" d="M77.6645 9.2153l-0.2984 0 -0.9096 -1.4032 0.2984 -0.1934 0.9096 1.4032 -0.2984 -0.0001 0.2984 0.1935zm0 0l-0.1493 0.23 -0.1491 -0.23 0.2984 0zm0.7611 -1.4999l0.1492 0.0967 -0.9103 1.4032 -0.2984 -0.1935 0.9104 -1.4032 0.1491 0.0968zm-0.7339 -7.4247l0 8.552 -0.3528 0 0 -8.552 0.3528 0z"/>
  </g>
  <path class="fil2" d="M80.0517 -0.1128l-0.3309 1.1106 0.3683 0c0.1651,0 0.2893,-0.0261 0.3711,-0.0769 0.0819,-0.0508 0.1666,-0.1595 0.2533,-0.3267l0.0784 0 -0.2914 1.0209 -0.0826 0c0.0205,-0.0825 0.0311,-0.1503 0.0311,-0.2046 0,-0.084 -0.0283,-0.1489 -0.084,-0.1947 -0.0557,-0.0466 -0.1602,-0.0699 -0.3133,-0.0699l-0.3718 0 -0.2441 0.846c-0.0438,0.1503 -0.0663,0.2497 -0.0663,0.2991 0,0.0515 0.019,0.0903 0.0571,0.1179 0.0381,0.0282 0.1305,0.0465 0.278,0.0564l-0.0247 0.0762 -1.1077 0 0.0268 -0.0762c0.1072,-0.0028 0.1792,-0.0127 0.2145,-0.0289 0.055,-0.024 0.0959,-0.0558 0.122,-0.0953 0.0374,-0.0564 0.0812,-0.1728 0.1327,-0.3492l0.4939 -1.6891c0.0395,-0.1362 0.0599,-0.2434 0.0599,-0.3203 0,-0.036 -0.0091,-0.0664 -0.0268,-0.0918 -0.0183,-0.0254 -0.0444,-0.0444 -0.0797,-0.0571 -0.0353,-0.012 -0.1051,-0.0183 -0.2095,-0.0183l0.0247 -0.077 2.1745 0 -0.2068 0.7091 -0.079 0c0.0155,-0.0853 0.0233,-0.1552 0.0233,-0.2109 0,-0.091 -0.0254,-0.163 -0.0755,-0.2159 -0.0508,-0.0529 -0.115,-0.0903 -0.1933,-0.1122 -0.0551,-0.0141 -0.1785,-0.0212 -0.3704,-0.0212l-0.5518 0z"/>
  <path class="fil2" d="M98.6612 39.3107l-0.707 2.4595c-0.0345,0.1228 -0.0515,0.1983 -0.0515,0.2258 0,0.0205 0.0064,0.0374 0.0198,0.0515 0.0127,0.0134 0.0289,0.0205 0.0487,0.0205 0.0261,0 0.0543,-0.0113 0.0846,-0.0353 0.0713,-0.0565 0.1468,-0.1439 0.2251,-0.2625l0.0621 0.0642c-0.1312,0.1849 -0.2512,0.3133 -0.3619,0.3867 -0.0812,0.0522 -0.1581,0.0783 -0.2315,0.0783 -0.0522,0 -0.0959,-0.0177 -0.1312,-0.0536 -0.0353,-0.036 -0.0529,-0.0769 -0.0529,-0.1242 0,-0.0494 0.0226,-0.151 0.0663,-0.3055l0.5602 -1.9389c0.0459,-0.1587 0.0684,-0.2497 0.0684,-0.273 0,-0.0332 -0.0134,-0.06 -0.0395,-0.0819 -0.0261,-0.0211 -0.067,-0.0317 -0.122,-0.0317 -0.0318,0 -0.0797,0.0049 -0.1447,0.0141l0 -0.0762 0.707 -0.1178z"/>
  <path class="fil2" d="M98.8271 41.8316l0.3407 -0.1658 0.0339 0 0 1.1832c0,0.0783 0.0035,0.1277 0.0099,0.1468 0.007,0.019 0.0204,0.0338 0.0409,0.0444 0.0205,0.0106 0.0628,0.0162 0.1263,0.0177l0 0.0381 -0.5271 0 0 -0.0381c0.0657,-0.0015 0.1087,-0.0071 0.1278,-0.017 0.0197,-0.0106 0.0331,-0.024 0.0402,-0.0409 0.0077,-0.0162 0.012,-0.067 0.012,-0.151l0 -0.7563c0,-0.1023 -0.0036,-0.168 -0.0106,-0.1969 -0.005,-0.0219 -0.0134,-0.0381 -0.0261,-0.0487 -0.0127,-0.0098 -0.0282,-0.0155 -0.0466,-0.0155 -0.0254,0 -0.0607,0.0113 -0.1058,0.0325l-0.0155 -0.0325z"/>
  <path class="fil2" d="M27.1105 4.6754l0.029 -0.077 1.0004 0c0.1679,0 0.3175,0.0262 0.4495,0.0791 0.1312,0.0522 0.23,0.1249 0.2956,0.2187 0.0656,0.0938 0.0981,0.1933 0.0981,0.2977 0,0.1616 -0.0586,0.3069 -0.175,0.4375 -0.1164,0.1298 -0.3062,0.2265 -0.5694,0.2878 0.17,0.0635 0.2942,0.1475 0.3746,0.2526 0.0798,0.1044 0.12,0.2195 0.12,0.345 0,0.139 -0.036,0.2724 -0.108,0.3994 -0.0712,0.1263 -0.1636,0.2251 -0.2758,0.2949 -0.1122,0.0706 -0.2477,0.1221 -0.4064,0.1552 -0.1129,0.0233 -0.2893,0.0353 -0.5292,0.0353l-1.0273 0 0.0268 -0.0762c0.108,-0.0028 0.1807,-0.0134 0.2195,-0.031 0.055,-0.024 0.0945,-0.0551 0.1178,-0.0932 0.0332,-0.0522 0.0769,-0.1721 0.1319,-0.3598l0.5024 -1.6969c0.043,-0.1432 0.0642,-0.2441 0.0642,-0.3019 0,-0.0508 -0.0191,-0.091 -0.0565,-0.1207 -0.0381,-0.0296 -0.11,-0.0444 -0.2166,-0.0444 -0.0232,0 -0.0451,-0.0007 -0.0656,-0.0021zm0.4191 1.1634c0.0896,0.0028 0.1545,0.0042 0.1948,0.0042 0.2864,0 0.4995,-0.062 0.6399,-0.1869 0.1397,-0.1249 0.2095,-0.2808 0.2095,-0.4685 0,-0.1418 -0.043,-0.2526 -0.1284,-0.3316 -0.0853,-0.079 -0.2215,-0.1186 -0.4092,-0.1186 -0.0494,0 -0.1129,0.0078 -0.1898,0.0247l-0.3168 1.0767zm-0.4071 1.3808c0.1489,0.0197 0.2653,0.0289 0.3493,0.0289 0.2152,0 0.4057,-0.0649 0.5715,-0.194 0.1665,-0.1299 0.249,-0.3055 0.249,-0.5271 0,-0.1693 -0.0508,-0.302 -0.1538,-0.3972 -0.1023,-0.0953 -0.2681,-0.1425 -0.4967,-0.1425 -0.0444,0 -0.0981,0.0021 -0.1616,0.0063l-0.3577 1.2256z"/>
  <path class="fil2" d="M46.7909 29.843l-0.2131 2.3311c-0.0113,0.1093 -0.0162,0.1806 -0.0162,0.2152 0,0.055 0.0098,0.0973 0.031,0.1263 0.0261,0.0395 0.0614,0.0691 0.1058,0.0889 0.0452,0.019 0.1207,0.0289 0.2265,0.0289l-0.0226 0.0762 -1.1034 0 0.0225 -0.0762 0.0473 0c0.0896,0 0.163,-0.0198 0.2194,-0.0579 0.0395,-0.0268 0.0706,-0.0698 0.0932,-0.1305 0.0148,-0.043 0.0296,-0.1432 0.043,-0.302l0.0332 -0.3556 -0.8023 0 -0.285 0.3867c-0.0649,0.0868 -0.1051,0.1496 -0.1221,0.187 -0.0162,0.0381 -0.0246,0.0733 -0.0246,0.1065 0,0.0444 0.0176,0.0818 0.0536,0.1136 0.036,0.0317 0.0952,0.0494 0.1778,0.0522l-0.0226 0.0762 -0.829 0 0.0226 -0.0762c0.1023,-0.0042 0.1919,-0.0388 0.2702,-0.1023 0.0776,-0.0642 0.1933,-0.2011 0.3478,-0.4106l1.6743 -2.2775 0.0727 0zm-0.4093 0.6879l-0.8128 1.1056 0.7049 0 0.1079 -1.1056z"/>
  <path class="fil2" d="M113.12 29.902l0.029 -0.077 1.0004 0c0.1679,0 0.3175,0.0262 0.4495,0.0791 0.1312,0.0522 0.23,0.1249 0.2956,0.2187 0.0656,0.0938 0.0981,0.1933 0.0981,0.2977 0,0.1616 -0.0586,0.3069 -0.175,0.4375 -0.1164,0.1298 -0.3062,0.2265 -0.5694,0.2878 0.17,0.0635 0.2942,0.1475 0.3746,0.2526 0.0798,0.1044 0.12,0.2195 0.12,0.345 0,0.139 -0.036,0.2724 -0.108,0.3994 -0.0712,0.1263 -0.1636,0.2251 -0.2758,0.2949 -0.1122,0.0706 -0.2477,0.1221 -0.4064,0.1552 -0.1129,0.0233 -0.2893,0.0353 -0.5292,0.0353l-1.0273 0 0.0268 -0.0762c0.108,-0.0028 0.1807,-0.0134 0.2195,-0.031 0.055,-0.024 0.0945,-0.0551 0.1178,-0.0932 0.0332,-0.0522 0.0769,-0.1721 0.1319,-0.3598l0.5024 -1.6969c0.043,-0.1432 0.0642,-0.2441 0.0642,-0.3019 0,-0.0508 -0.0191,-0.091 -0.0565,-0.1207 -0.0381,-0.0296 -0.11,-0.0444 -0.2166,-0.0444 -0.0232,0 -0.0451,-0.0007 -0.0656,-0.0021zm0.4191 1.1634c0.0896,0.0028 0.1545,0.0042 0.1948,0.0042 0.2864,0 0.4995,-0.062 0.6399,-0.1869 0.1397,-0.1249 0.2095,-0.2808 0.2095,-0.4685 0,-0.1418 -0.043,-0.2526 -0.1284,-0.3316 -0.0853,-0.079 -0.2215,-0.1186 -0.4092,-0.1186 -0.0494,0 -0.1129,0.0078 -0.1898,0.0247l-0.3168 1.0767zm-0.4071 1.3808c0.1489,0.0197 0.2653,0.0289 0.3493,0.0289 0.2152,0 0.4057,-0.0649 0.5715,-0.194 0.1665,-0.1299 0.249,-0.3055 0.249,-0.5271 0,-0.1693 -0.0508,-0.302 -0.1538,-0.3972 -0.1023,-0.0953 -0.2681,-0.1425 -0.4967,-0.1425 -0.0444,0 -0.0981,0.0021 -0.1616,0.0063l-0.3577 1.2256z"/>
  <path class="fil2" d="M110 5.4796l-0.2088 0.9073 -0.0748 0 -0.0078 -0.2279c-0.007,-0.0826 -0.0232,-0.1559 -0.0479,-0.2208 -0.0247,-0.065 -0.0621,-0.1207 -0.1115,-0.1687 -0.0494,-0.0472 -0.1122,-0.0846 -0.1884,-0.1114 -0.0755,-0.0269 -0.1595,-0.0403 -0.2519,-0.0403 -0.2469,0 -0.4621,0.0678 -0.647,0.2025 -0.2356,0.1722 -0.4205,0.4156 -0.5538,0.7296 -0.1101,0.2589 -0.1658,0.5214 -0.1658,0.7874 0,0.2716 0.0797,0.4882 0.2377,0.6505 0.1588,0.1616 0.3648,0.2427 0.6181,0.2427 0.1919,0 0.3627,-0.043 0.5115,-0.1284 0.1496,-0.0854 0.2886,-0.2166 0.417,-0.3944l0.0967 0c-0.151,0.2413 -0.3196,0.4184 -0.5038,0.532 -0.1848,0.1136 -0.4064,0.1707 -0.6639,0.1707 -0.2286,0 -0.4311,-0.048 -0.6075,-0.1439 -0.1764,-0.096 -0.3111,-0.23 -0.4029,-0.4043 -0.0924,-0.1736 -0.139,-0.3598 -0.139,-0.5602 0,-0.3055 0.0826,-0.6033 0.2463,-0.8925 0.1637,-0.2893 0.3887,-0.5172 0.6745,-0.6823 0.2864,-0.1651 0.5743,-0.2476 0.8657,-0.2476 0.1362,0 0.2893,0.0317 0.4586,0.0966 0.0741,0.0275 0.1284,0.0416 0.1609,0.0416 0.0331,0 0.0621,-0.007 0.0875,-0.0204 0.0247,-0.0141 0.0656,-0.0536 0.1234,-0.1178l0.0769 0z"/>
  <path class="fil2" d="M93.7878 30.8193l-0.2131 2.3311c-0.0113,0.1093 -0.0162,0.1806 -0.0162,0.2152 0,0.055 0.0098,0.0973 0.031,0.1263 0.0261,0.0395 0.0614,0.0691 0.1058,0.0889 0.0452,0.019 0.1207,0.0289 0.2265,0.0289l-0.0226 0.0762 -1.1034 0 0.0225 -0.0762 0.0473 0c0.0896,0 0.163,-0.0198 0.2194,-0.0579 0.0395,-0.0268 0.0706,-0.0698 0.0932,-0.1305 0.0148,-0.043 0.0296,-0.1432 0.043,-0.302l0.0332 -0.3556 -0.8023 0 -0.285 0.3867c-0.0649,0.0868 -0.1051,0.1496 -0.1221,0.187 -0.0162,0.0381 -0.0246,0.0733 -0.0246,0.1065 0,0.0444 0.0176,0.0818 0.0536,0.1136 0.036,0.0317 0.0952,0.0494 0.1778,0.0522l-0.0226 0.0762 -0.829 0 0.0226 -0.0762c0.1023,-0.0042 0.1919,-0.0388 0.2702,-0.1023 0.0776,-0.0642 0.1933,-0.2011 0.3478,-0.4106l1.6743 -2.2775 0.0727 0zm-0.4093 0.6879l-0.8128 1.1056 0.7049 0 0.1079 -1.1056z"/>
  <path class="fil2" d="M31.9486 53.3996c-0.194,0.1502 -0.3161,0.237 -0.3662,0.2603 -0.0741,0.0346 -0.1531,0.0522 -0.2371,0.0522 -0.1312,0 -0.2391,-0.0451 -0.3238,-0.1347 -0.0847,-0.0897 -0.127,-0.2075 -0.127,-0.3535 0,-0.0925 0.0204,-0.1722 0.0621,-0.2399 0.0564,-0.0931 0.1545,-0.1813 0.2942,-0.2646 0.1397,-0.0825 0.3725,-0.1827 0.6978,-0.3013l0 -0.0748c0,-0.1883 -0.0297,-0.3182 -0.0896,-0.3887 -0.06,-0.0699 -0.1475,-0.1051 -0.2618,-0.1051 -0.0868,0 -0.1559,0.0232 -0.2067,0.0705 -0.0522,0.0466 -0.0783,0.1002 -0.0783,0.1609l0.0042 0.1199c0,0.0635 -0.0162,0.1122 -0.0487,0.1468 -0.0324,0.0345 -0.0748,0.0515 -0.127,0.0515 -0.0515,0 -0.0931,-0.0177 -0.1256,-0.0536 -0.0324,-0.036 -0.0486,-0.0847 -0.0486,-0.1468 0,-0.1185 0.0606,-0.2272 0.182,-0.3267 0.1213,-0.0987 0.2914,-0.1488 0.5108,-0.1488 0.1679,0 0.3055,0.0282 0.4135,0.0846 0.0811,0.0431 0.1411,0.1101 0.1799,0.2011 0.0247,0.0593 0.0367,0.1799 0.0367,0.3634l0 0.6427c0,0.1806 0.0035,0.2914 0.0105,0.3323 0.0071,0.0403 0.0184,0.0678 0.0339,0.0812 0.0162,0.0141 0.0346,0.0211 0.055,0.0211 0.0219,0 0.0417,-0.0049 0.0579,-0.0148 0.0289,-0.0176 0.0847,-0.0684 0.1672,-0.151l0 0.1158c-0.1538,0.2067 -0.3013,0.3104 -0.4424,0.3104 -0.067,0 -0.1206,-0.0233 -0.1608,-0.0706 -0.0402,-0.0465 -0.0607,-0.127 -0.0621,-0.2398zm0 -0.1341l0 -0.7218c-0.2082,0.0833 -0.3422,0.1418 -0.4029,0.1757 -0.1093,0.0607 -0.187,0.1242 -0.2335,0.1905 -0.0473,0.0663 -0.0706,0.1383 -0.0706,0.2173 0,0.0988 0.0297,0.1813 0.0889,0.247 0.0593,0.0649 0.1277,0.098 0.2046,0.098 0.1052,0 0.2427,-0.0691 0.4135,-0.2067z"/>
  <path class="fil2" d="M32.7176 50.8201l0 -0.0868c0.2096,0.103 0.3839,0.225 0.5229,0.3662 0.1968,0.201 0.3492,0.4367 0.4565,0.7076 0.1079,0.271 0.1615,0.5532 0.1615,0.8467 0,0.4268 -0.1051,0.8163 -0.3154,1.1684 -0.2102,0.352 -0.4854,0.6039 -0.8255,0.7556l0 -0.0762c0.1694,-0.0952 0.3091,-0.2236 0.4184,-0.3859 0.1094,-0.1616 0.1912,-0.3676 0.2442,-0.6181 0.0529,-0.2497 0.0797,-0.5108 0.0797,-0.7817 0,-0.2935 -0.0233,-0.5616 -0.0685,-0.8044 -0.0345,-0.1905 -0.0776,-0.3421 -0.1291,-0.4571 -0.0522,-0.1143 -0.1206,-0.2244 -0.206,-0.3302 -0.0854,-0.1066 -0.1982,-0.2075 -0.3387,-0.3041z"/>
  <path class="fil2" d="M88.9939 52.2724c0.1835,-0.2547 0.381,-0.3824 0.5934,-0.3824 0.194,0 0.3633,0.0832 0.508,0.249 0.1446,0.1665 0.2173,0.393 0.2173,0.6816 0,0.3358 -0.1115,0.6068 -0.3351,0.8121 -0.1912,0.1764 -0.405,0.2646 -0.6407,0.2646 -0.11,0 -0.2222,-0.0198 -0.3358,-0.06 -0.1136,-0.0402 -0.23,-0.1002 -0.3486,-0.1799l0 -1.9615c0,-0.2152 -0.0049,-0.3471 -0.0155,-0.3972 -0.0099,-0.0494 -0.0261,-0.0832 -0.048,-0.1009 -0.0225,-0.0183 -0.0501,-0.0268 -0.0832,-0.0268 -0.0381,0 -0.0868,0.0106 -0.1447,0.0332l-0.0289 -0.0727 0.5687 -0.2314 0.0931 0 0 1.3723zm0 0.1326l0 1.1324c0.0699,0.0692 0.1425,0.1214 0.218,0.156 0.0748,0.0352 0.1517,0.0529 0.2308,0.0529 0.1248,0 0.242,-0.0692 0.3499,-0.2068 0.108,-0.1375 0.1623,-0.3379 0.1623,-0.6011 0,-0.2427 -0.0543,-0.429 -0.1623,-0.5595 -0.1079,-0.1298 -0.2307,-0.1954 -0.369,-0.1954 -0.0727,0 -0.146,0.019 -0.2187,0.0557 -0.0551,0.0275 -0.1256,0.0833 -0.211,0.1658z"/>
  <path class="fil2" d="M90.5546 50.9869l0 -0.0868c0.2096,0.103 0.3839,0.225 0.5229,0.3662 0.1968,0.201 0.3492,0.4367 0.4565,0.7076 0.1079,0.271 0.1615,0.5532 0.1615,0.8467 0,0.4268 -0.1051,0.8163 -0.3154,1.1684 -0.2102,0.352 -0.4854,0.6039 -0.8255,0.7556l0 -0.0762c0.1694,-0.0952 0.3091,-0.2236 0.4184,-0.3859 0.1094,-0.1616 0.1912,-0.3676 0.2442,-0.6181 0.0529,-0.2497 0.0797,-0.5108 0.0797,-0.7817 0,-0.2935 -0.0233,-0.5616 -0.0685,-0.8044 -0.0345,-0.1905 -0.0776,-0.3421 -0.1291,-0.4571 -0.0522,-0.1143 -0.1206,-0.2244 -0.206,-0.3302 -0.0854,-0.1066 -0.1982,-0.2075 -0.3387,-0.3041z"/>
 </g>
</svg>
