<?xml version="1.0" encoding="UTF-8"?>
<!DOCTYPE svg PUBLIC "-//W3C//DTD SVG 1.1//EN" "http://www.w3.org/Graphics/SVG/1.1/DTD/svg11.dtd">
<!-- Creator: CorelDRAW -->
<svg xmlns="http://www.w3.org/2000/svg" xml:space="preserve" width="53mm" height="46mm" style="shape-rendering:geometricPrecision; text-rendering:geometricPrecision; image-rendering:optimizeQuality; fill-rule:evenodd; clip-rule:evenodd"
viewBox="0 0 53 46">
 <defs>
  <style type="text/css">
   <![CDATA[
    .str0 {stroke:#1F1A17;stroke-width:0.1764}
    .fil0 {fill:none}
    .fil1 {fill:#1F1A17;fill-rule:nonzero}
    .fil2 {fill:url(#id0)}
   ]]>
  </style>
  <linearGradient id="id0" gradientUnits="userSpaceOnUse" x1="3.8714" y1="27.6752" x2="5.6264" y2="27.6752">
   <stop offset="0" style="stop-color:#969594"/>
   <stop offset="1" style="stop-color:#969594"/>
  </linearGradient>
 </defs>
 <g id="Layer_x0020_1">
  <metadata id="CorelCorpID_0Corel-Layer"/>
  <rect class="fil0 str0" transform="matrix(1.33507 -1.33507 1.33507 1.33507 26.1469 3.1927)" width="0.715" height="18.8861"/>
  <line class="fil0 str0" x1="39.1681" y1="11.1976" x2="39.1681" y2= "0.9676" />
  <path class="fil1" d="M15.9664 37.772l-0.4028 1.4012 -0.0452 0.1884c-0.0042,0.0176 -0.0064,0.0324 -0.0064,0.0451 0,0.0219 0.0071,0.0417 0.0205,0.0579 0.0113,0.0127 0.0247,0.0183 0.0416,0.0183 0.0177,0 0.041,-0.0105 0.0699,-0.0324 0.0543,-0.0402 0.1256,-0.1228 0.2152,-0.2484l0.0705 0.0494c-0.0952,0.1433 -0.1933,0.2526 -0.2935,0.3281 -0.1009,0.0748 -0.194,0.1122 -0.2794,0.1122 -0.0592,0 -0.1037,-0.0148 -0.1333,-0.0445 -0.0297,-0.0296 -0.0445,-0.0726 -0.0445,-0.1291 0,-0.067 0.0156,-0.1559 0.0459,-0.2667l0.043 -0.1545c-0.1806,0.2357 -0.3464,0.4001 -0.4981,0.4939 -0.1086,0.067 -0.2159,0.1009 -0.3203,0.1009 -0.1009,0 -0.1877,-0.0416 -0.2604,-0.1249 -0.0733,-0.0832 -0.1093,-0.1983 -0.1093,-0.3443 0,-0.2187 0.0656,-0.4501 0.1968,-0.6936 0.132,-0.2427 0.2992,-0.4374 0.5017,-0.5834 0.158,-0.1158 0.3076,-0.1736 0.4487,-0.1736 0.084,0 0.1538,0.0219 0.2096,0.0656 0.0557,0.0445 0.098,0.1171 0.127,0.2194l0.0747 -0.2356 0.3281 -0.0494zm-0.7359 0.1072c-0.0882,0 -0.1813,0.0417 -0.2808,0.1242 -0.1404,0.1171 -0.2653,0.2907 -0.3753,0.5207 -0.1094,0.23 -0.1644,0.4381 -0.1644,0.6244 0,0.0939 0.024,0.1679 0.0705,0.2223 0.0466,0.0543 0.1009,0.0811 0.1616,0.0811 0.1496,0 0.3133,-0.1108 0.4897,-0.3323 0.2356,-0.2949 0.3534,-0.5976 0.3534,-0.9073 0,-0.1172 -0.0225,-0.2018 -0.0684,-0.2548 -0.0452,-0.0522 -0.1072,-0.0783 -0.1863,-0.0783z"/>
  <g>
   <path class="fil1" d="M27.6516 41.9043l-0.0006 -0.2983 1.4014 -0.9124 0.194 0.298 -1.4014 0.9124 -0.0005 -0.2984 -0.1929 0.2987zm0 0l-0.2303 -0.1487 0.2297 -0.1496 0.0006 0.2983zm1.5014 0.7582l-0.0964 0.1494 -1.405 -0.9076 0.1929 -0.2987 1.405 0.9076 -0.0965 0.1493zm20.0566 -0.8625l-21.1857 0.0424 0 -0.1758 21.1857 -0.0424 0 0.1758zm0.3729 0.0606l-0.1941 -0.2979 0.0007 0.2983 -1.4051 -0.9068 0.1929 -0.2988 1.405 0.9068 0.0006 0.2984zm0 0l-0.0006 -0.2984 0.2303 0.1487 -0.2297 0.1497zm-1.4984 0.7642l-0.0971 -0.149 1.4014 -0.9131 0.1941 0.2979 -1.4013 0.9131 -0.0971 -0.1489z"/>
  </g>
  <line class="fil0 str0" x1="27.3692" y1="39.3387" x2="27.3692" y2= "44.9541" />
  <line class="fil0 str0" x1="49.6967" y1="38.9035" x2="49.6967" y2= "44.5189" />
  <g>
   <path class="fil1" d="M5.3889 41.8929l-0.0006 -0.2983 1.4014 -0.9124 0.194 0.298 -1.4014 0.9124 -0.0005 -0.2984 -0.1929 0.2987zm0 0l-0.2303 -0.1487 0.2297 -0.1496 0.0006 0.2983zm1.5014 0.7582l-0.0964 0.1494 -1.405 -0.9076 0.1929 -0.2987 1.405 0.9076 -0.0965 0.1493zm20.0566 -0.8625l-21.1857 0.0424 0 -0.1758 21.1857 -0.0424 0 0.1758zm0.3729 0.0606l-0.1941 -0.2979 0.0007 0.2983 -1.4051 -0.9068 0.1929 -0.2988 1.405 0.9068 0.0006 0.2984zm0 0l-0.0006 -0.2984 0.2303 0.1487 -0.2297 0.1497zm-1.4984 0.7642l-0.0971 -0.149 1.4014 -0.9131 0.1941 0.2979 -1.4013 0.9131 -0.0971 -0.1489z"/>
  </g>
  <line class="fil0 str0" x1="5.1065" y1="39.3273" x2="5.1065" y2= "44.9427" />
  <path class="fil1" d="M40.9437 38.2666l-0.4028 1.4012 -0.0452 0.1884c-0.0042,0.0176 -0.0064,0.0324 -0.0064,0.0451 0,0.0219 0.0071,0.0417 0.0205,0.0579 0.0113,0.0127 0.0247,0.0183 0.0416,0.0183 0.0177,0 0.041,-0.0105 0.0699,-0.0324 0.0543,-0.0402 0.1256,-0.1228 0.2152,-0.2484l0.0705 0.0494c-0.0952,0.1433 -0.1933,0.2526 -0.2935,0.3281 -0.1009,0.0748 -0.194,0.1122 -0.2794,0.1122 -0.0592,0 -0.1037,-0.0148 -0.1333,-0.0445 -0.0297,-0.0296 -0.0445,-0.0726 -0.0445,-0.1291 0,-0.067 0.0156,-0.1559 0.0459,-0.2667l0.043 -0.1545c-0.1806,0.2357 -0.3464,0.4001 -0.4981,0.4939 -0.1086,0.067 -0.2159,0.1009 -0.3203,0.1009 -0.1009,0 -0.1877,-0.0416 -0.2604,-0.1249 -0.0733,-0.0832 -0.1093,-0.1983 -0.1093,-0.3443 0,-0.2187 0.0656,-0.4501 0.1968,-0.6936 0.132,-0.2427 0.2992,-0.4374 0.5017,-0.5834 0.158,-0.1158 0.3076,-0.1736 0.4487,-0.1736 0.084,0 0.1538,0.0219 0.2096,0.0656 0.0557,0.0445 0.098,0.1171 0.127,0.2194l0.0747 -0.2356 0.3281 -0.0494zm-0.7359 0.1072c-0.0882,0 -0.1813,0.0417 -0.2808,0.1242 -0.1404,0.1171 -0.2653,0.2907 -0.3753,0.5207 -0.1094,0.23 -0.1644,0.4381 -0.1644,0.6244 0,0.0939 0.024,0.1679 0.0705,0.2223 0.0466,0.0543 0.1009,0.0811 0.1616,0.0811 0.1496,0 0.3133,-0.1108 0.4897,-0.3323 0.2356,-0.2949 0.3534,-0.5976 0.3534,-0.9073 0,-0.1172 -0.0225,-0.2018 -0.0684,-0.2548 -0.0452,-0.0522 -0.1072,-0.0783 -0.1863,-0.0783z"/>
  <path class="fil1" d="M35.4071 5.1846l0 0.2935 -0.3761 0 0 0.7401 -0.3414 0 0 -0.7401 -1.1861 0 0 -0.2646 1.3004 -1.8563 0.2271 0 0 1.8274 0.3761 0zm-0.7175 0l0 -1.3914 -0.9836 1.3914 0.9836 0z"/>
  <path class="fil1" d="M37.3919 3.415l-0.1616 0.3514 -0.8431 0 -0.1842 0.3768c0.3655,0.0536 0.6548,0.1891 0.8678,0.4071 0.1835,0.187 0.2752,0.4078 0.2752,0.6611 0,0.1474 -0.0296,0.2843 -0.0896,0.4092 -0.06,0.1256 -0.1355,0.2321 -0.2265,0.3203 -0.091,0.0882 -0.1926,0.1595 -0.3041,0.2131 -0.158,0.0762 -0.321,0.1136 -0.4875,0.1136 -0.1686,0 -0.2907,-0.0282 -0.3669,-0.0854 -0.0769,-0.0571 -0.115,-0.1206 -0.115,-0.1891 0,-0.0388 0.0162,-0.0726 0.0473,-0.1023 0.0317,-0.0296 0.0719,-0.0444 0.1199,-0.0444 0.036,0 0.0677,0.0049 0.0946,0.0162 0.0268,0.0113 0.0726,0.0395 0.1375,0.0847 0.103,0.0719 0.2075,0.1079 0.314,0.1079 0.1609,0 0.3027,-0.0614 0.4247,-0.1834 0.1221,-0.1221 0.1828,-0.2703 0.1828,-0.4452 0,-0.1694 -0.0543,-0.3274 -0.163,-0.4742 -0.1094,-0.1467 -0.2589,-0.2603 -0.4508,-0.34 -0.1503,-0.0621 -0.3549,-0.0981 -0.6139,-0.108l0.5377 -1.0894 1.0047 0z"/>
  <path class="fil1" d="M38.1998 3.1279c0.1432,0 0.2582,0.0543 0.345,0.163 0.0741,0.0931 0.1107,0.1996 0.1107,0.3203 0,0.0847 -0.0204,0.1707 -0.0606,0.2575 -0.041,0.0868 -0.0967,0.1524 -0.168,0.1962 -0.0719,0.0444 -0.1509,0.0663 -0.2384,0.0663 -0.1425,0 -0.2561,-0.0572 -0.3401,-0.1708 -0.0713,-0.0952 -0.1065,-0.2032 -0.1065,-0.3224 0,-0.0868 0.0218,-0.1729 0.0649,-0.2589 0.043,-0.0854 0.0995,-0.1489 0.17,-0.1898 0.0699,-0.0409 0.1446,-0.0614 0.223,-0.0614zm-0.0318 0.067c-0.0367,0 -0.0734,0.0106 -0.1101,0.0325 -0.0373,0.0218 -0.067,0.0599 -0.0896,0.1143 -0.0225,0.0543 -0.0338,0.1241 -0.0338,0.2095 0,0.1383 0.0268,0.2568 0.0818,0.357 0.0551,0.0995 0.127,0.1496 0.2166,0.1496 0.0671,0 0.1221,-0.0275 0.1651,-0.0825 0.0438,-0.0551 0.0656,-0.1503 0.0656,-0.2844 0,-0.1679 -0.0367,-0.3005 -0.1086,-0.3972 -0.0494,-0.0656 -0.1115,-0.0988 -0.187,-0.0988z"/>
  <rect class="fil0 str0" transform="matrix(-1.33507 -1.33507 -1.33507 1.33507 28.0414 3.15997)" width="0.715" height="18.8861"/>
  <g>
   <path class="fil1" d="M33.9444 8.4241l-0.0964 -0.1468 0.1422 -0.0908 0.1462 -0.0878 0.15 -0.0846 0.1531 -0.0814 0.1567 -0.0782 0.1596 -0.075 0.1621 -0.0712 0.165 -0.0677 0.1674 -0.0644 0.169 -0.0605 0.1712 -0.0562 0.1727 -0.0528 0.1738 -0.0489 0.1752 -0.0444 0.1761 -0.0406 0.1768 -0.0361 0.1774 -0.0316 0.1773 -0.0273 0.1772 -0.0226 0.1772 -0.0182 0.1767 -0.013 0.1758 -0.0081 0.1749 -0.0033 0.1736 0.0018 0.1723 0.0068 0.1707 0.0121 0.1686 0.0177 0.1668 0.0235 0.1644 0.0285 0.162 0.0345 0.1587 0.0405 0.1558 0.0464 -0.053 0.1674 -0.149 -0.0442 -0.1525 -0.0385 -0.155 -0.0331 -0.1582 -0.0279 -0.1606 -0.0221 -0.1632 -0.0169 -0.1651 -0.0121 -0.1669 -0.0068 -0.1688 -0.0018 -0.1699 0.0033 -0.171 0.0081 -0.1719 0.013 -0.1724 0.0174 -0.173 0.022 -0.1733 0.0265 -0.1726 0.031 -0.1726 0.0353 -0.1719 0.0392 -0.1712 0.0438 -0.1702 0.0475 -0.1687 0.0514 -0.167 0.0556 -0.1656 0.0591 -0.1632 0.0624 -0.1608 0.0663 -0.1587 0.0698 -0.1556 0.0728 -0.1525 0.0762 -0.1497 0.0794 -0.1458 0.0824 -0.142 0.0852 -0.1382 0.088zm-0.4415 0.0068l0.3256 0.1429 -0.164 -0.2493 1.6722 -0.0111 0.0024 0.3556 -1.6722 0.0111 -0.164 -0.2492zm0 0l0.164 0.2492 -0.2742 0.0018 0.1102 -0.251zm0.8348 -1.4603l0.1628 0.0715 -0.672 1.5317 -0.3256 -0.1429 0.672 -1.5317 0.1628 0.0714z"/>
  </g>
  <rect class="fil2 str0" x="3.8714" y="26.7977" width="1.755" height="1.755"/>
  <rect class="fil2 str0" x="48.3214" y="26.7977" width="1.755" height="1.755"/>
  <g>
   <path class="fil1" d="M15.4965 21.8609l-5.599 6.1099 -0.1296 -0.1186 5.599 -6.1099 0.1296 0.1186zm0.2969 -0.2332l-0.3507 -0.0589 0.22 0.2015 -1.6186 0.42 -0.0893 -0.3442 1.6186 -0.42 0.22 0.2016zm0 0l-0.22 -0.2016 0.2654 -0.0688 -0.0454 0.2704zm-0.4522 1.6201l-0.1753 -0.0295 0.2768 -1.6495 0.3507 0.0589 -0.2768 1.6495 -0.1754 -0.0294z"/>
  </g>
  <polygon class="fil1" points="13.2578,29.2828 12.5227,28.5603 11.8023,29.2927 11.6813,29.1738 12.4017,28.4413 11.6693,27.7209 11.7883,27.6001 12.5207,28.3204 13.2432,27.5851 13.3641,27.7041 12.6416,28.4394 13.3769,29.1626 "/>
  <polygon class="fil1" points="9.6918,25.3454 9.8284,25.5985 9.0776,26.3618 8.941,26.1088 "/>
  <path class="fil1" d="M3.6023 31.2642l-0.8685 0 -0.1736 0.2145 -0.1983 0.2378c-0.0388,0.0515 -0.067,0.0973 -0.0846,0.1389 -0.0141,0.0318 -0.0212,0.0628 -0.0212,0.0946 0,0.0332 0.0176,0.0642 0.0529,0.0924 0.0353,0.0282 0.0932,0.0445 0.175,0.0487l0 0.0762 -0.8375 0 0.0205 -0.0762c0.0748,-0.0127 0.1411,-0.0388 0.1989,-0.079 0.0769,-0.0551 0.1877,-0.1686 0.3324,-0.3408l1.9868 -2.3706 0.0931 0 -0.0931 2.2937c-0.0043,0.1199 -0.0064,0.1926 -0.0064,0.2173 0,0.0938 0.0191,0.1623 0.0572,0.2046 0.0374,0.0431 0.1009,0.0677 0.1891,0.0748l-0.0212 0.0762 -1.2128 0 0.0225 -0.0762c0.12,-0.0113 0.1884,-0.0212 0.2068,-0.0289 0.0388,-0.0198 0.0733,-0.06 0.1051,-0.1214 0.0317,-0.0614 0.0515,-0.1679 0.0578,-0.3189l0.0191 -0.3577zm0 -0.17l0.0536 -0.913 -0.7796 0.913 0.726 0z"/>
  <g>
   <path class="fil1" d="M5.0912 3.4568l0.0284 6.2789 -0.1758 0.0006 -0.0284 -6.2789 0.1758 -0.0006zm0.0596 -0.373l-0.2975 0.1949 0.2984 -0.0014 -0.9033 1.4073 -0.2992 -0.1921 0.9032 -1.4073 0.2984 -0.0014zm0 0l-0.2984 0.0014 0.1481 -0.2307 0.1503 0.2293zm0.7679 1.4965l-0.1487 0.0974 -0.9167 -1.399 0.2975 -0.1949 0.9166 1.399 -0.1487 0.0975z"/>
  </g>
  <g>
   <path class="fil1" d="M8.7206 9.4683l-4.8096 0.0278 -0.0006 -0.1758 4.8096 -0.0278 0.0006 0.1758zm0.3732 0.0591l-0.1953 -0.2972 0.0018 0.2984 -1.4084 -0.9015 0.1917 -0.2995 1.4084 0.9015 0.0018 0.2983zm0 0l-0.0018 -0.2983 0.2309 0.1478 -0.2291 0.1505zm-1.4955 0.7698l-0.0977 -0.1485 1.3979 -0.9185 0.1953 0.2972 -1.3979 0.9184 -0.0976 -0.1486z"/>
  </g>
  <path class="fil1" d="M10.7857 9.6692c0.0677,0.0712 0.1185,0.1432 0.1531,0.2145 0.0247,0.0501 0.0656,0.1799 0.122,0.3908l0.1821 -0.273c0.0479,-0.0656 0.1065,-0.1291 0.1757,-0.1891 0.0684,-0.06 0.1291,-0.1009 0.1813,-0.1228 0.0331,-0.0141 0.0698,-0.0204 0.11,-0.0204 0.0593,0 0.1059,0.0155 0.1412,0.0473 0.0352,0.0317 0.0529,0.0705 0.0529,0.1157 0,0.0522 -0.0106,0.0882 -0.0311,0.1072 -0.0388,0.0346 -0.0825,0.0522 -0.1319,0.0522 -0.0289,0 -0.06,-0.0063 -0.0931,-0.019 -0.065,-0.0219 -0.1087,-0.0332 -0.1306,-0.0332 -0.0331,0 -0.0719,0.0198 -0.1178,0.0579 -0.0854,0.0719 -0.187,0.2102 -0.3055,0.4155l0.1693 0.7112c0.0261,0.1087 0.048,0.1743 0.0664,0.1955 0.0176,0.0211 0.0352,0.0317 0.0536,0.0317 0.0289,0 0.0628,-0.0155 0.1009,-0.0473 0.0762,-0.0635 0.1404,-0.146 0.1947,-0.2483l0.072 0.0374c-0.0868,0.163 -0.1969,0.2977 -0.3309,0.405 -0.0755,0.0606 -0.1397,0.091 -0.1919,0.091 -0.077,0 -0.1383,-0.0431 -0.1842,-0.1298 -0.0289,-0.0537 -0.0889,-0.2858 -0.1799,-0.695 -0.2145,0.3739 -0.3867,0.6138 -0.5165,0.7218 -0.0839,0.0684 -0.1651,0.103 -0.2441,0.103 -0.055,0 -0.1051,-0.0198 -0.151,-0.06 -0.0324,-0.0303 -0.0494,-0.0705 -0.0494,-0.122 0,-0.0452 0.0156,-0.0833 0.0459,-0.1136 0.0296,-0.0304 0.067,-0.0452 0.1115,-0.0452 0.0437,0 0.091,0.0219 0.1404,0.0663 0.036,0.0318 0.0635,0.0473 0.0825,0.0473 0.017,0 0.0381,-0.0113 0.0642,-0.0332 0.0649,-0.0522 0.1531,-0.1651 0.2646,-0.3386 0.1115,-0.1736 0.1849,-0.2992 0.2194,-0.3768 -0.086,-0.3344 -0.1319,-0.5115 -0.139,-0.5306 -0.0317,-0.0896 -0.0726,-0.1531 -0.1241,-0.1905 -0.0508,-0.0374 -0.1256,-0.0557 -0.2251,-0.0557 -0.0318,0 -0.0684,0.0014 -0.1094,0.0042l0 -0.0748 0.5518 -0.0966z"/>
  <path class="fil1" d="M3.0246 1.7307c0.0466,0.0797 0.079,0.1545 0.0974,0.2236 0.0176,0.0699 0.0353,0.2068 0.0536,0.4107l0.091 1.0167c0.0826,-0.0988 0.2025,-0.2561 0.3599,-0.4713 0.0754,-0.1045 0.1693,-0.247 0.2808,-0.4276 0.0677,-0.1101 0.1086,-0.1877 0.1241,-0.2314 0.0078,-0.0219 0.012,-0.0452 0.012,-0.0685 0,-0.0148 -0.0042,-0.0275 -0.0141,-0.0373 -0.0099,-0.0092 -0.0346,-0.0205 -0.0755,-0.0339 -0.0409,-0.0127 -0.0748,-0.0374 -0.1016,-0.072 -0.0268,-0.0353 -0.0402,-0.0755 -0.0402,-0.1213 0,-0.0565 0.0169,-0.1016 0.0501,-0.1362 0.0325,-0.0346 0.0741,-0.0515 0.1235,-0.0515 0.0607,0 0.1122,0.0247 0.1552,0.0755 0.043,0.0501 0.0642,0.1192 0.0642,0.2074 0,0.1087 -0.0374,0.2335 -0.1115,0.3732 -0.0748,0.1397 -0.218,0.3542 -0.4304,0.6435 -0.2116,0.29 -0.4692,0.6054 -0.7704,0.9469 -0.2082,0.2356 -0.3627,0.3845 -0.4636,0.4459 -0.1002,0.0606 -0.1862,0.0917 -0.2582,0.0917 -0.043,0 -0.0804,-0.0162 -0.1129,-0.0487 -0.0324,-0.0325 -0.048,-0.0698 -0.048,-0.1129 0,-0.0536 0.0219,-0.1023 0.0671,-0.1467 0.0444,-0.0438 0.0931,-0.0657 0.1453,-0.0657 0.0275,0 0.0508,0.0057 0.0684,0.0184 0.0113,0.007 0.0233,0.0268 0.036,0.0593 0.0134,0.0317 0.0254,0.0536 0.0367,0.0649 0.0064,0.007 0.0148,0.0098 0.0247,0.0098 0.0078,0 0.0226,-0.0063 0.043,-0.0204 0.0762,-0.0466 0.1644,-0.1214 0.2646,-0.223 0.1327,-0.1354 0.23,-0.2455 0.2935,-0.3309l-0.1157 -1.3102c-0.019,-0.2166 -0.0479,-0.3485 -0.0868,-0.3951 -0.0388,-0.0466 -0.103,-0.0705 -0.194,-0.0705 -0.0289,0 -0.0811,0.0042 -0.1552,0.0127l-0.0183 -0.0762 0.6053 -0.1489z"/>
 </g>
</svg>
