<?xml version="1.0" encoding="UTF-8"?>
<!DOCTYPE svg PUBLIC "-//W3C//DTD SVG 1.1//EN" "http://www.w3.org/Graphics/SVG/1.1/DTD/svg11.dtd">
<!-- Creator: CorelDRAW -->
<svg xmlns="http://www.w3.org/2000/svg" xml:space="preserve" width="55mm" height="40mm" style="shape-rendering:geometricPrecision; text-rendering:geometricPrecision; image-rendering:optimizeQuality; fill-rule:evenodd; clip-rule:evenodd"
viewBox="0 0 55 40">
 <defs>
  <style type="text/css">
   <![CDATA[
    .str4 {stroke:#1F1A17;stroke-width:0.0762}
    .str2 {stroke:#1F1A17;stroke-width:0.1764}
    .str0 {stroke:#131516;stroke-width:0.1764}
    .str1 {stroke:#1F1A17;stroke-width:0.3528}
    .str3 {stroke:#131516;stroke-width:0.1762}
    .fil0 {fill:none}
    .fil1 {fill:#1F1A17;fill-rule:nonzero}
    .fil3 {fill:#131516;fill-rule:nonzero}
    .fil2 {fill:url(#id0)}
   ]]>
  </style>
  <linearGradient id="id0" gradientUnits="userSpaceOnUse" x1="51.3759" y1="10.6056" x2="52.0966" y2="10.6056">
   <stop offset="0" style="stop-color:white"/>
   <stop offset="1" style="stop-color:white"/>
  </linearGradient>
 </defs>
 <g id="Layer_x0020_1">
  <metadata id="CorelCorpID_0Corel-Layer"/>
  <polygon class="fil0 str0" points="10.6906,10.8169 11.346,11.6329 12.0015,12.4489 10.6906,12.4489 9.3797,12.4489 10.0351,11.6329 "/>
  <g id="_155835264">
   <line id="_155464896" class="fil0 str0" x1="12.461" y1="12.4531" x2="9.197" y2= "12.4531" />
   <g>
    <line id="_156065744" class="fil0 str0" x1="12.1466" y1="12.498" x2="12.431" y2= "13.1418" />
    <line id="_155334072" class="fil0 str0" x1="11.564" y1="12.498" x2="11.8485" y2= "13.1418" />
    <line id="_155846784" class="fil0 str0" x1="10.9814" y1="12.498" x2="11.2659" y2= "13.1418" />
    <line id="_155847880" class="fil0 str0" x1="10.3988" y1="12.498" x2="10.6833" y2= "13.1418" />
    <line id="_155833992" class="fil0 str0" x1="9.8162" y1="12.498" x2="10.1007" y2= "13.1418" />
    <line id="_155834416" class="fil0 str0" x1="9.2336" y1="12.498" x2="9.5181" y2= "13.1418" />
   </g>
  </g>
  <line class="fil0 str1" x1="10.571" y1="25.4833" x2="31.1946" y2= "31.2184" />
  <line class="fil0 str1" x1="51.65" y1="25.4831" x2="31.0264" y2= "31.2182" />
  <g>
   <path class="fil1" d="M31.41 9.88l-0.2984 0 -0.9096 -1.4032 0.2984 -0.1934 0.9096 1.4032 -0.2984 -0.0001 0.2984 0.1935zm0 0l-0.1493 0.23 -0.1491 -0.23 0.2984 0zm0.7611 -1.4999l0.1492 0.0967 -0.9103 1.4032 -0.2984 -0.1935 0.9104 -1.4032 0.1491 0.0968zm-0.7339 -5.1085l0 6.2358 -0.3528 0 0 -6.2358 0.3528 0z"/>
  </g>
  <path class="fil1" d="M36.9525 1.5794l-0.2089 0.8819 -0.0783 0c0.0127,-0.103 0.0191,-0.1792 0.0191,-0.2293 0,-0.1348 -0.06,-0.2547 -0.1793,-0.3584 -0.1192,-0.1038 -0.2836,-0.156 -0.4931,-0.156 -0.4283,0 -0.7783,0.2011 -1.0499,0.6033 -0.2166,0.3182 -0.3245,0.6745 -0.3245,1.0689 0,0.2618 0.067,0.4875 0.2003,0.678 0.1341,0.1898 0.3401,0.2851 0.6181,0.2851 0.0691,0 0.134,-0.0064 0.1954,-0.0184 0.0614,-0.0127 0.1538,-0.0402 0.278,-0.0825l0.2046 -0.7218c0.029,-0.0988 0.0438,-0.1785 0.0438,-0.2378 0,-0.0494 -0.0184,-0.0875 -0.0537,-0.1136 -0.0578,-0.0402 -0.1516,-0.0599 -0.2815,-0.0599l-0.0578 0 0.0226 -0.0805 1.1662 0 -0.0211 0.0805c-0.1059,0.0014 -0.1828,0.0141 -0.2315,0.0374 -0.0479,0.0232 -0.0896,0.0635 -0.1241,0.1199 -0.0233,0.0374 -0.0607,0.1453 -0.1136,0.3246l-0.2068 0.709c-0.1883,0.0812 -0.3407,0.1355 -0.4564,0.1623 -0.1158,0.0268 -0.2378,0.0402 -0.3662,0.0402 -0.2949,0 -0.5334,-0.0557 -0.7169,-0.1665 -0.1834,-0.1108 -0.3189,-0.2575 -0.4064,-0.4403 -0.0874,-0.1827 -0.1312,-0.364 -0.1312,-0.5446 0,-0.2427 0.0508,-0.4735 0.1531,-0.6915 0.1016,-0.2187 0.2293,-0.4028 0.381,-0.5538 0.1524,-0.151 0.3182,-0.2703 0.4974,-0.357 0.247,-0.12 0.5059,-0.1792 0.7775,-0.1792 0.1997,0 0.3803,0.0324 0.5412,0.0987 0.0649,0.0261 0.1122,0.0395 0.1425,0.0395 0.0346,0 0.0642,-0.0077 0.0882,-0.024 0.024,-0.0155 0.055,-0.0543 0.0938,-0.1142l0.0784 0z"/>
  <polygon class="fil0 str0" points="51.7362,10.9903 52.3917,11.8063 53.0472,12.6223 51.7362,12.6223 50.4253,12.6223 51.0808,11.8063 "/>
  <g>
   <line class="fil0 str0" x1="53.5066" y1="12.6264" x2="50.2426" y2= "12.6264" />
   <g id="_155841056">
    <line id="_155841320" class="fil0 str0" x1="53.1922" y1="12.6714" x2="53.4767" y2= "13.3152" />
    <line id="_155841744" class="fil0 str0" x1="52.6096" y1="12.6714" x2="52.8941" y2= "13.3152" />
    <line id="_155841816" class="fil0 str0" x1="52.027" y1="12.6714" x2="52.3115" y2= "13.3152" />
    <line id="_155830792" class="fil0 str0" x1="51.4444" y1="12.6714" x2="51.7289" y2= "13.3152" />
    <line id="_155831216" class="fil0 str0" x1="50.8619" y1="12.6714" x2="51.1463" y2= "13.3152" />
    <line id="_155831640" class="fil0 str0" x1="50.2793" y1="12.6714" x2="50.5638" y2= "13.3152" />
   </g>
  </g>
  <circle class="fil2 str0" cx="51.7362" cy="10.6056" r="0.360343"/>
  <circle class="fil2 str0" cx="10.6906" cy="10.4323" r="0.360343"/>
  <line class="fil0 str2" x1="11.0508" y1="25.5456" x2="51.6501" y2= "25.5456" />
  <line class="fil0 str2" x1="11.0508" y1="10.4323" x2="51.6501" y2= "10.4323" />
  <circle class="fil0 str2" cx="3.6675" cy="25.9719" r="2.3099"/>
  <path class="fil1" d="M3.1225 24.5703l0.2589 2.2578 1.6263 -2.2578 0.6844 0 0 0.077c-0.1489,0.0091 -0.2364,0.019 -0.2625,0.0289 -0.0459,0.0176 -0.0875,0.0536 -0.1249,0.1072 -0.0381,0.0536 -0.079,0.1574 -0.1235,0.3105l-0.5185 1.7772c-0.0304,0.1038 -0.0452,0.1849 -0.0452,0.2442 0,0.0536 0.0184,0.0945 0.0557,0.122 0.0523,0.0395 0.1348,0.06 0.2477,0.06l0.0501 0 -0.0191 0.0762 -1.1803 0 0.0211 -0.0762 0.0558 0c0.1044,0 0.1841,-0.0155 0.2398,-0.0459 0.0424,-0.0218 0.0805,-0.0635 0.1143,-0.1248 0.0339,-0.0614 0.0812,-0.1976 0.1419,-0.4086l0.4628 -1.6241 -1.6348 2.2796 -0.0825 0 -0.2632 -2.2796 -0.5002 1.7342c-0.0423,0.1475 -0.0635,0.2462 -0.0635,0.297 0,0.0516 0.0183,0.0904 0.0557,0.1172 0.0367,0.0268 0.127,0.0451 0.271,0.055l-0.0233 0.0762 -0.9236 0 0.0226 -0.0762 0.0557 0c0.1362,0 0.235,-0.0346 0.2957,-0.1037 0.0437,-0.0494 0.0903,-0.1574 0.1382,-0.3225l0.6103 -2.0898c-0.0458,-0.0466 -0.0889,-0.0783 -0.1305,-0.0952 -0.0416,-0.0163 -0.1178,-0.0297 -0.2293,-0.0388l0.0205 -0.077 0.6964 0z"/>
  <line class="fil0 str2" x1="31.1972" y1="31.2047" x2="31.1972" y2= "25.5458" />
  <g>
   <path class="fil1" d="M10.7364 18.5602l-0.0004 -0.2984 1.4018 -0.9117 0.1939 0.2981 -1.4018 0.9117 -0.0004 -0.2983 -0.1931 0.2986zm0 0l-0.2302 -0.1489 0.2298 -0.1495 0.0004 0.2984zm1.5011 0.7589l-0.0966 0.1493 -1.4045 -0.9082 0.1931 -0.2986 1.4045 0.9082 -0.0965 0.1493zm18.5525 -0.8499l-19.6812 0.0292 0 -0.1758 19.6812 -0.0292 0 0.1758zm0.3729 0.0607l-0.194 -0.298 0.0005 0.2983 -1.4046 -0.9075 0.193 -0.2987 1.4046 0.9076 0.0005 0.2983zm0 0l-0.0005 -0.2983 0.2302 0.1488 -0.2297 0.1495zm-1.4989 0.7634l-0.097 -0.149 1.4019 -0.9124 0.194 0.298 -1.4019 0.9124 -0.097 -0.149z"/>
  </g>
  <line class="fil0 str2" x1="10.6217" y1="16.7352" x2="10.6217" y2= "20.6295" />
  <path class="fil1" d="M22.565 13.9968l-0.707 2.4595c-0.0345,0.1228 -0.0515,0.1983 -0.0515,0.2258 0,0.0205 0.0064,0.0374 0.0198,0.0515 0.0127,0.0134 0.0289,0.0205 0.0487,0.0205 0.0261,0 0.0543,-0.0113 0.0846,-0.0353 0.0713,-0.0565 0.1468,-0.1439 0.2251,-0.2625l0.0621 0.0642c-0.1312,0.1849 -0.2512,0.3133 -0.3619,0.3867 -0.0812,0.0522 -0.1581,0.0783 -0.2315,0.0783 -0.0522,0 -0.0959,-0.0177 -0.1312,-0.0536 -0.0353,-0.036 -0.0529,-0.0769 -0.0529,-0.1242 0,-0.0494 0.0226,-0.151 0.0663,-0.3055l0.5602 -1.9389c0.0459,-0.1587 0.0684,-0.2497 0.0684,-0.273 0,-0.0332 -0.0134,-0.06 -0.0395,-0.0819 -0.0261,-0.0211 -0.067,-0.0317 -0.122,-0.0317 -0.0318,0 -0.0797,0.0049 -0.1447,0.0141l0 -0.0762 0.707 -0.1178z"/>
  <g>
   <path class="fil1" d="M31.1953 18.5602l-0.0004 -0.2984 1.4018 -0.9117 0.1939 0.2981 -1.4018 0.9117 -0.0004 -0.2983 -0.1931 0.2986zm0 0l-0.2302 -0.1489 0.2298 -0.1495 0.0004 0.2984zm1.5011 0.7589l-0.0966 0.1493 -1.4045 -0.9082 0.1931 -0.2986 1.4045 0.9082 -0.0965 0.1493zm18.5526 -0.8499l-19.6813 0.0292 0 -0.1758 19.6813 -0.0292 0 0.1758zm0.3729 0.0607l-0.194 -0.298 0.0005 0.2983 -1.4046 -0.9075 0.193 -0.2987 1.4046 0.9076 0.0005 0.2983zm0 0l-0.0005 -0.2983 0.2302 0.1488 -0.2297 0.1495zm-1.4989 0.7634l-0.097 -0.149 1.4019 -0.9124 0.194 0.298 -1.4019 0.9124 -0.097 -0.149z"/>
  </g>
  <line class="fil0 str2" x1="31.0806" y1="16.7352" x2="31.0806" y2= "20.6295" />
  <line class="fil0 str2" x1="51.736" y1="16.4334" x2="51.736" y2= "20.3277" />
  <path class="fil1" d="M41.2016 13.7874l-0.707 2.4595c-0.0345,0.1228 -0.0515,0.1983 -0.0515,0.2258 0,0.0205 0.0064,0.0374 0.0198,0.0515 0.0127,0.0134 0.0289,0.0205 0.0487,0.0205 0.0261,0 0.0543,-0.0113 0.0846,-0.0353 0.0713,-0.0565 0.1468,-0.1439 0.2251,-0.2625l0.0621 0.0642c-0.1312,0.1849 -0.2512,0.3133 -0.3619,0.3867 -0.0812,0.0522 -0.1581,0.0783 -0.2315,0.0783 -0.0522,0 -0.0959,-0.0177 -0.1312,-0.0536 -0.0353,-0.036 -0.0529,-0.0769 -0.0529,-0.1242 0,-0.0494 0.0226,-0.151 0.0663,-0.3055l0.5602 -1.9389c0.0459,-0.1587 0.0684,-0.2497 0.0684,-0.273 0,-0.0332 -0.0134,-0.06 -0.0395,-0.0819 -0.0261,-0.0211 -0.067,-0.0317 -0.122,-0.0317 -0.0318,0 -0.0797,0.0049 -0.1447,0.0141l0 -0.0762 0.707 -0.1178z"/>
  <g>
   <path class="fil3" d="M47.9636 34.8471l0 0.086c-0.235,-0.1178 -0.431,-0.2564 -0.5879,-0.4149 -0.2239,-0.2254 -0.3967,-0.4915 -0.5178,-0.7982 -0.1219,-0.3067 -0.1824,-0.6245 -0.1824,-0.9543 0,-0.4828 0.1195,-0.9225 0.3568,-1.32 0.2382,-0.3975 0.5489,-0.6819 0.9313,-0.8531l0 0.0979c-0.1912,0.106 -0.3481,0.2502 -0.4716,0.4342 -0.1227,0.1832 -0.2143,0.4158 -0.2748,0.6978 -0.0606,0.2812 -0.0909,0.576 -0.0909,0.8819 0,0.3329 0.0255,0.6356 0.0765,0.9081 0.0406,0.2151 0.09,0.3871 0.1474,0.517 0.0573,0.1298 0.1346,0.2549 0.2318,0.3744 0.0972,0.1203 0.2246,0.2342 0.3816,0.3432z"/>
   <path class="fil3" d="M51.1464 30.6905l0 -0.0979c0.2366,0.1163 0.4334,0.2541 0.5903,0.4134 0.2223,0.227 0.3943,0.4931 0.5154,0.799 0.1219,0.3059 0.1824,0.6245 0.1824,0.9559 0,0.482 -0.1187,0.9217 -0.356,1.3192 -0.2374,0.3975 -0.5481,0.6819 -0.9321,0.853l0 -0.086c0.1912,-0.1074 0.349,-0.2524 0.4724,-0.4356 0.1235,-0.1825 0.2159,-0.4151 0.2756,-0.6979 0.0598,-0.282 0.0901,-0.5767 0.0901,-0.8826 0,-0.3314 -0.0263,-0.6341 -0.0773,-0.9081 -0.039,-0.2151 -0.0876,-0.3864 -0.1458,-0.5162 -0.0589,-0.1291 -0.1362,-0.2533 -0.2326,-0.3728 -0.0964,-0.1203 -0.2238,-0.2342 -0.3824,-0.3434z"/>
   <line class="fil0 str3" x1="43.2638" y1="35.4309" x2="52.3824" y2= "35.4309" />
   <path class="fil3" d="M49.549 33.1756l-0.1633 0.4493 -1.3767 0 0 -0.0634c0.4047,-0.3695 0.6901,-0.6714 0.8551,-0.9051 0.1651,-0.2344 0.2479,-0.4482 0.2479,-0.642 0,-0.148 -0.0452,-0.2696 -0.1363,-0.3648 -0.0904,-0.0951 -0.1985,-0.1427 -0.3248,-0.1427 -0.1151,0 -0.2179,0.0335 -0.3089,0.1005 -0.091,0.0669 -0.1586,0.1656 -0.2021,0.2948l-0.064 0c0.0288,-0.212 0.1022,-0.3747 0.2215,-0.4887 0.1186,-0.1133 0.2666,-0.1703 0.4446,-0.1703 0.1891,0 0.3471,0.0611 0.474,0.1827 0.1268,0.1215 0.1903,0.2649 0.1903,0.4299 0,0.1181 -0.0276,0.2367 -0.0828,0.3548 -0.0846,0.1856 -0.2226,0.3823 -0.4129,0.5902 -0.2855,0.3119 -0.4641,0.4999 -0.5351,0.5645l0.6091 0c0.1239,0 0.2108,-0.0047 0.2607,-0.0141 0.05,-0.0088 0.0952,-0.0276 0.1351,-0.0558 0.04,-0.0282 0.0752,-0.0681 0.1052,-0.1198l0.0634 0z"/>
   <path class="fil3" d="M48.637 38.2267l0 0.2444 -0.3131 0 0 0.6161 -0.2843 0 0 -0.6161 -0.9873 0 0 -0.2203 1.0825 -1.5453 0.1891 0 0 1.5212 0.3131 0zm-0.5974 0l0 -1.1582 -0.8187 1.1582 0.8187 0z"/>
   <path class="fil3" d="M40.4528 34.7926l1.8572 0 0 0.1409 -1.8572 0 0 -0.1409zm0 0.5608l1.8572 0 0 0.141 -1.8572 0 0 -0.141z"/>
   <path class="fil3" d="M37.9724 36.2972l0.4046 0.6254c0.0723,0.1106 0.1324,0.1817 0.1797,0.2125 0.0472,0.0309 0.1097,0.0465 0.1866,0.0465l-0.0131 0.0444 -0.6965 0 0.0111 -0.0444c0.0555,-0.0058 0.0946,-0.0189 0.1172,-0.0399 0.023,-0.021 0.0345,-0.0444 0.0345,-0.0711 0,-0.0243 -0.0041,-0.0473 -0.0119,-0.0699 -0.0066,-0.016 -0.03,-0.0555 -0.0699,-0.118l-0.3313 -0.5193 -0.1603 0.5411c-0.0263,0.0867 -0.0395,0.1447 -0.0395,0.1747 0,0.0304 0.0111,0.0535 0.0337,0.0695 0.0222,0.0165 0.0777,0.0271 0.1661,0.0329l-0.0193 0.0444 -0.6455 0 0.0156 -0.0444c0.0625,-0.0016 0.1049,-0.0074 0.1267,-0.0169 0.032,-0.0148 0.0555,-0.0333 0.0707,-0.0555 0.0209,-0.0329 0.0468,-0.1011 0.0773,-0.2047l0.2878 -0.9867c0.0218,-0.0753 0.0324,-0.1361 0.0324,-0.1817 0,-0.0321 -0.0102,-0.0568 -0.0304,-0.0736 -0.0205,-0.0169 -0.0604,-0.0251 -0.12,-0.0251l-0.0243 0 0.0148 -0.0448 0.6129 0 -0.0123 0.0448c-0.0506,-0.0008 -0.088,0.0045 -0.1131,0.0168 -0.0345,0.0169 -0.0596,0.0387 -0.0756,0.065 -0.0165,0.0263 -0.0399,0.0929 -0.0711,0.1986l-0.1266 0.4193 0.5804 -0.4374c0.0773,-0.0576 0.1279,-0.1036 0.1517,-0.1373 0.0144,-0.0206 0.0218,-0.0395 0.0218,-0.0564 0,-0.0143 -0.0074,-0.0287 -0.0222,-0.0423 -0.0148,-0.0136 -0.0374,-0.0222 -0.0682,-0.0263l0.0123 -0.0448 0.5226 0 -0.0107 0.0448c-0.0572,0.0094 -0.1053,0.0222 -0.1439,0.0378 -0.0391,0.0156 -0.079,0.037 -0.1201,0.0646 -0.0119,0.0078 -0.0904,0.0674 -0.2347,0.178l-0.5 0.3794z"/>
   <path class="fil3" d="M45.9872 31.2385l-0.1739 0.7342 -0.0652 0c0.0106,-0.0858 0.0159,-0.1492 0.0159,-0.1909 0,-0.1122 -0.0499,-0.212 -0.1492,-0.2984 -0.0993,-0.0863 -0.2361,-0.1298 -0.4106,-0.1298 -0.3565,0 -0.6478,0.1674 -0.8739,0.5022 -0.1804,0.2649 -0.2702,0.5615 -0.2702,0.8898 0,0.2179 0.0558,0.4059 0.1668,0.5645 0.1116,0.158 0.2831,0.2373 0.5145,0.2373 0.0576,0 0.1116,-0.0053 0.1627,-0.0153 0.0511,-0.0106 0.128,-0.0335 0.2314,-0.0687l0.1704 -0.6009c0.024,-0.0822 0.0364,-0.1486 0.0364,-0.1979 0,-0.0411 -0.0153,-0.0728 -0.0447,-0.0946 -0.0481,-0.0335 -0.1263,-0.0499 -0.2343,-0.0499l-0.0482 0 0.0188 -0.067 0.9709 0 -0.0176 0.067c-0.0881,0.0012 -0.1521,0.0117 -0.1927,0.0311 -0.0399,0.0194 -0.0746,0.0529 -0.1033,0.0999 -0.0194,0.0311 -0.0506,0.121 -0.0946,0.2702l-0.1721 0.5902c-0.1568,0.0676 -0.2837,0.1128 -0.38,0.1351 -0.0963,0.0224 -0.198,0.0335 -0.3049,0.0335 -0.2455,0 -0.444,-0.0464 -0.5967,-0.1386 -0.1527,-0.0922 -0.2655,-0.2144 -0.3383,-0.3665 -0.0728,-0.1521 -0.1093,-0.3031 -0.1093,-0.4534 0,-0.2021 0.0423,-0.3942 0.1275,-0.5756 0.0846,-0.1821 0.1909,-0.3354 0.3172,-0.4611 0.1268,-0.1257 0.2649,-0.225 0.414,-0.2972 0.2056,-0.0999 0.4212,-0.1492 0.6473,-0.1492 0.1662,0 0.3166,0.027 0.4505,0.0822 0.054,0.0218 0.0934,0.0329 0.1186,0.0329 0.0288,0 0.0535,-0.0064 0.0735,-0.02 0.0199,-0.0129 0.0458,-0.0452 0.0781,-0.0951l0.0652 0z"/>
   <path class="fil3" d="M50.688 31.178l-0.5885 2.0475c-0.0288,0.1022 -0.0429,0.165 -0.0429,0.188 0,0.017 0.0053,0.0311 0.0165,0.0428 0.0105,0.0112 0.0241,0.0171 0.0405,0.0171 0.0217,0 0.0452,-0.0094 0.0705,-0.0294 0.0593,-0.047 0.1222,-0.1198 0.1874,-0.2185l0.0516 0.0535c-0.1092,0.1538 -0.2091,0.2607 -0.3013,0.3218 -0.0675,0.0435 -0.1315,0.0652 -0.1926,0.0652 -0.0435,0 -0.0799,-0.0147 -0.1093,-0.0446 -0.0293,-0.03 -0.044,-0.064 -0.044,-0.1034 0,-0.0411 0.0188,-0.1257 0.0552,-0.2543l0.4663 -1.6141c0.0382,-0.1321 0.057,-0.2079 0.057,-0.2273 0,-0.0276 -0.0111,-0.0499 -0.0329,-0.0681 -0.0217,-0.0176 -0.0558,-0.0264 -0.1016,-0.0264 -0.0264,0 -0.0664,0.0041 -0.1204,0.0117l0 -0.0634 0.5885 -0.0981z"/>
   <path class="fil3" d="M34.9314 33.9786l0.2155 1.8794 1.3539 -1.8794 0.5697 0 0 0.064c-0.1239,0.0076 -0.1968,0.0158 -0.2185,0.0241 -0.0382,0.0146 -0.0728,0.0446 -0.104,0.0892 -0.0317,0.0447 -0.0658,0.131 -0.1028,0.2585l-0.4317 1.4794c-0.0252,0.0863 -0.0376,0.1539 -0.0376,0.2032 0,0.0447 0.0153,0.0787 0.0464,0.1016 0.0435,0.0329 0.1122,0.05 0.2062,0.05l0.0417 0 -0.0158 0.0634 -0.9827 0 0.0176 -0.0634 0.0464 0c0.087,0 0.1533,-0.013 0.1997,-0.0382 0.0353,-0.0182 0.067,-0.0529 0.0952,-0.104 0.0282,-0.0511 0.0675,-0.1644 0.118,-0.34l0.3853 -1.352 -1.3608 1.8976 -0.0688 0 -0.219 -1.8976 -0.4165 1.4436c-0.0352,0.1227 -0.0528,0.205 -0.0528,0.2473 0,0.0428 0.0152,0.0751 0.0464,0.0975 0.0305,0.0223 0.1057,0.0375 0.2255,0.0458l-0.0194 0.0634 -0.7688 0 0.0188 -0.0634 0.0464 0c0.1133,0 0.1956,-0.0288 0.2461,-0.0864 0.0364,-0.0411 0.0752,-0.131 0.1151,-0.2684l0.5081 -1.7396c-0.0382,-0.0388 -0.0741,-0.0652 -0.1087,-0.0793 -0.0347,-0.0135 -0.0981,-0.0247 -0.1909,-0.0323l0.017 -0.064 0.5798 0z"/>
  </g>
  <line class="fil0 str4" x1="31.1972" y1="28.3752" x2="35.1029" y2= "32.216" />
 </g>
</svg>
