<?xml version="1.0" encoding="UTF-8"?>
<!DOCTYPE svg PUBLIC "-//W3C//DTD SVG 1.1//EN" "http://www.w3.org/Graphics/SVG/1.1/DTD/svg11.dtd">
<!-- Creator: CorelDRAW -->
<svg xmlns="http://www.w3.org/2000/svg" xml:space="preserve" width="56mm" height="22mm" style="shape-rendering:geometricPrecision; text-rendering:geometricPrecision; image-rendering:optimizeQuality; fill-rule:evenodd; clip-rule:evenodd"
viewBox="0 0 56 22">
 <defs>
  <style type="text/css">
   <![CDATA[
    .str1 {stroke:#1F1A17;stroke-width:0.1764}
    .str0 {stroke:#131516;stroke-width:0.1764}
    .str2 {stroke:#1F1A17;stroke-width:0.3528}
    .fil1 {fill:none}
    .fil0 {fill:#1F1A17;fill-rule:nonzero}
    .fil2 {fill:url(#id0)}
   ]]>
  </style>
  <linearGradient id="id0" gradientUnits="userSpaceOnUse" x1="47.1204" y1="9.5742" x2="47.8411" y2="9.5742">
   <stop offset="0" style="stop-color:white"/>
   <stop offset="1" style="stop-color:white"/>
  </linearGradient>
 </defs>
 <g id="Layer_x0020_1">
  <metadata id="CorelCorpID_0Corel-Layer"/>
  <path class="fil0" d="M26.3773 18.2524l-0.1616 0.5623 0.3245 0 -0.0352 0.1305 -0.3225 0 -0.3556 1.2192c-0.0381,0.1312 -0.0578,0.2159 -0.0578,0.254 0,0.024 0.0056,0.0416 0.0169,0.0543 0.0106,0.012 0.024,0.0184 0.0388,0.0184 0.0346,0 0.0804,-0.024 0.1369,-0.0727 0.0331,-0.0275 0.1065,-0.1122 0.2208,-0.254l0.0685 0.0515c-0.127,0.1849 -0.247,0.3154 -0.3599,0.3909 -0.0769,0.0522 -0.1552,0.0783 -0.2335,0.0783 -0.0607,0 -0.1101,-0.0191 -0.1489,-0.0565 -0.0388,-0.0381 -0.0578,-0.0867 -0.0578,-0.146 0,-0.0741 0.0218,-0.1877 0.0663,-0.3408l0.345 -1.1966 -0.3119 0 0.0205 -0.0811c0.1517,-0.041 0.278,-0.103 0.3782,-0.1849 0.1009,-0.0818 0.2131,-0.2244 0.3372,-0.4268l0.0911 0z"/>
  <polygon class="fil1 str0" points="6.4351,9.7855 7.0905,10.6015 7.746,11.4175 6.4351,11.4175 5.1242,11.4175 5.7796,10.6015 "/>
  <g id="_155253064">
   <line id="_155262840" class="fil1 str0" x1="8.2055" y1="11.4217" x2="4.9415" y2= "11.4217" />
   <g>
    <line id="_155263104" class="fil1 str0" x1="7.8911" y1="11.4666" x2="8.1755" y2= "12.1104" />
    <line id="_155253320" class="fil1 str0" x1="7.3085" y1="11.4666" x2="7.593" y2= "12.1104" />
    <line id="_155252224" class="fil1 str0" x1="6.7259" y1="11.4666" x2="7.0104" y2= "12.1104" />
    <line id="_155357496" class="fil1 str0" x1="6.1433" y1="11.4666" x2="6.4278" y2= "12.1104" />
    <line id="_155525320" class="fil1 str0" x1="5.5607" y1="11.4666" x2="5.8452" y2= "12.1104" />
    <line id="_155260408" class="fil1 str0" x1="4.9781" y1="11.4666" x2="5.2626" y2= "12.1104" />
   </g>
  </g>
  <polygon class="fil1 str0" points="47.4807,9.9589 48.1362,10.7749 48.7917,11.5909 47.4807,11.5909 46.1698,11.5909 46.8253,10.7749 "/>
  <g id="_154211168">
   <line id="_155264216" class="fil1 str0" x1="49.2511" y1="11.595" x2="45.9871" y2= "11.595" />
   <g>
    <line id="_155915656" class="fil1 str0" x1="48.9367" y1="11.64" x2="49.2212" y2= "12.2838" />
    <line id="_155260968" class="fil1 str0" x1="48.3541" y1="11.64" x2="48.6386" y2= "12.2838" />
    <line id="_155260688" class="fil1 str0" x1="47.7715" y1="11.64" x2="48.056" y2= "12.2838" />
    <line id="_155254160" class="fil1 str0" x1="47.1889" y1="11.64" x2="47.4734" y2= "12.2838" />
    <line id="_155414536" class="fil1 str0" x1="46.6064" y1="11.64" x2="46.8908" y2= "12.2838" />
    <line id="_155264640" class="fil1 str0" x1="46.0238" y1="11.64" x2="46.3083" y2= "12.2838" />
   </g>
  </g>
  <circle class="fil2 str0" cx="47.4807" cy="9.57424" r="0.360343"/>
  <circle class="fil2 str0" cx="6.43509" cy="9.40087" r="0.360343"/>
  <line class="fil1 str1" x1="6.7953" y1="6.8609" x2="47.3946" y2= "6.8609" />
  <g>
   <path class="fil0" d="M6.9098 17.1701l0 -0.2984 1.4032 -0.9096 0.1934 0.2984 -1.4032 0.9096 0.0001 -0.2984 -0.1935 0.2984zm0 0l-0.23 -0.1493 0.23 -0.1491 0 0.2984zm1.4999 0.7611l-0.0967 0.1492 -1.4032 -0.9103 0.1935 -0.2984 1.4032 0.9104 -0.0968 0.1491zm38.4978 -0.8221l-39.6251 0 0 -0.1764 39.6251 0 0 0.1764zm0.3726 0.061l-0.1935 -0.2984 0.0001 0.2984 -1.4032 -0.9096 0.1934 -0.2984 1.4032 0.9096 0 0.2984zm0 0l0 -0.2984 0.23 0.1491 -0.23 0.1493zm-1.4999 0.7611l-0.0968 -0.1491 1.4032 -0.9104 0.1935 0.2984 -1.4032 0.9103 -0.0967 -0.1492z"/>
  </g>
  <line class="fil1 str1" x1="6.7953" y1="4.3209" x2="47.3946" y2= "4.3209" />
  <g>
   <path class="fil0" d="M6.7071 6.3737l0 -2.0528 0.1764 0 0 2.0528 -0.1764 0zm-0.061 0.3726l0.2984 -0.1935 -0.2984 0.0001 0.9096 -1.4032 0.2984 0.1934 -0.9096 1.4032 -0.2984 0zm0 0l0.2984 0 -0.1491 0.23 -0.1493 -0.23zm-0.7611 -1.4999l0.1491 -0.0968 0.9104 1.4032 -0.2984 0.1935 -0.9103 -1.4032 0.1492 -0.0967z"/>
  </g>
  <g>
   <path class="fil0" d="M11.5753 6.534l0 -2.0528 0.1764 0 0 2.0528 -0.1764 0zm-0.061 0.3726l0.2984 -0.1935 -0.2984 0.0001 0.9096 -1.4032 0.2984 0.1934 -0.9096 1.4032 -0.2984 0zm0 0l0.2984 0 -0.1491 0.23 -0.1493 -0.23zm-0.7611 -1.4999l0.1491 -0.0968 0.9104 1.4032 -0.2984 0.1935 -0.9103 -1.4032 0.1492 -0.0967z"/>
  </g>
  <g>
   <path class="fil0" d="M16.6798 6.5267l0 -2.0528 0.1764 0 0 2.0528 -0.1764 0zm-0.061 0.3726l0.2984 -0.1935 -0.2984 0.0001 0.9096 -1.4032 0.2984 0.1934 -0.9096 1.4032 -0.2984 0zm0 0l0.2984 0 -0.1491 0.23 -0.1493 -0.23zm-0.7611 -1.4999l0.1491 -0.0968 0.9104 1.4032 -0.2984 0.1935 -0.9103 -1.4032 0.1492 -0.0967z"/>
  </g>
  <g>
   <path class="fil0" d="M21.7842 6.5194l0 -2.0529 0.1764 0 0 2.0529 -0.1764 0zm-0.061 0.3726l0.2984 -0.1935 -0.2984 0.0001 0.9096 -1.4032 0.2984 0.1934 -0.9096 1.4032 -0.2984 0zm0 0l0.2984 0 -0.1491 0.23 -0.1493 -0.23zm-0.7611 -1.4999l0.1491 -0.0968 0.9104 1.4032 -0.2984 0.1935 -0.9103 -1.4032 0.1492 -0.0967z"/>
  </g>
  <g>
   <path class="fil0" d="M26.8886 6.5121l0 -2.0529 0.1764 0 0 2.0529 -0.1764 0zm-0.061 0.3726l0.2984 -0.1935 -0.2984 0.0001 0.9096 -1.4032 0.2984 0.1934 -0.9096 1.4032 -0.2984 0zm0 0l0.2984 0 -0.1491 0.23 -0.1493 -0.23zm-0.7611 -1.4999l0.1491 -0.0968 0.9104 1.4032 -0.2984 0.1935 -0.9103 -1.4032 0.1492 -0.0967z"/>
  </g>
  <g>
   <path class="fil0" d="M31.993 6.5048l0 -2.0529 0.1764 0 0 2.0529 -0.1764 0zm-0.061 0.3726l0.2984 -0.1935 -0.2984 0.0001 0.9096 -1.4032 0.2984 0.1934 -0.9096 1.4032 -0.2984 0zm0 0l0.2984 0 -0.1491 0.23 -0.1493 -0.23zm-0.7611 -1.4999l0.1491 -0.0968 0.9104 1.4032 -0.2984 0.1935 -0.9103 -1.4032 0.1492 -0.0967z"/>
  </g>
  <g>
   <path class="fil0" d="M37.0974 6.4975l0 -2.0529 0.1764 0 0 2.0529 -0.1764 0zm-0.061 0.3726l0.2984 -0.1935 -0.2984 0.0001 0.9096 -1.4032 0.2984 0.1934 -0.9096 1.4032 -0.2984 0zm0 0l0.2984 0 -0.1491 0.23 -0.1493 -0.23zm-0.7611 -1.4999l0.1491 -0.0968 0.9104 1.4032 -0.2984 0.1935 -0.9103 -1.4032 0.1492 -0.0967z"/>
  </g>
  <g>
   <path class="fil0" d="M42.2018 6.4902l0 -2.0529 0.1764 0 0 2.0529 -0.1764 0zm-0.061 0.3726l0.2984 -0.1935 -0.2984 0.0001 0.9096 -1.4032 0.2984 0.1934 -0.9096 1.4032 -0.2984 0zm0 0l0.2984 0 -0.1491 0.23 -0.1493 -0.23zm-0.7611 -1.4999l0.1491 -0.0968 0.9104 1.4032 -0.2984 0.1935 -0.9103 -1.4032 0.1492 -0.0967z"/>
  </g>
  <g>
   <path class="fil0" d="M47.3062 6.4828l0 -2.0528 0.1764 0 0 2.0528 -0.1764 0zm-0.061 0.3726l0.2984 -0.1935 -0.2984 0.0001 0.9096 -1.4032 0.2984 0.1934 -0.9096 1.4032 -0.2984 0zm0 0l0.2984 0 -0.1491 0.23 -0.1493 -0.23zm-0.7611 -1.4999l0.1491 -0.0968 0.9104 1.4032 -0.2984 0.1935 -0.9103 -1.4032 0.1492 -0.0967z"/>
  </g>
  <line class="fil1 str2" x1="6.7953" y1="9.4009" x2="47.3946" y2= "9.4009" />
  <line class="fil1 str1" x1="6.7953" y1="14.9842" x2="6.7953" y2= "19.477" />
  <line class="fil1 str1" x1="47.3944" y1="15.1771" x2="47.3944" y2= "19.67" />
  <path class="fil0" d="M49.7956 1.3747l-0.1426 0.4748c0.1503,-0.1764 0.2844,-0.2991 0.4022,-0.3697 0.1178,-0.0705 0.2378,-0.1051 0.3605,-0.1051 0.1228,0 0.2272,0.048 0.314,0.1453 0.0868,0.0974 0.1305,0.2237 0.1305,0.3796 0,0.3027 -0.1234,0.611 -0.3697,0.925 -0.2469,0.3133 -0.5341,0.4699 -0.8622,0.4699 -0.0691,0 -0.1298,-0.0071 -0.1827,-0.0226 -0.0536,-0.0148 -0.1129,-0.0416 -0.1792,-0.0804l-0.151 0.5334c-0.0303,0.1044 -0.0451,0.1728 -0.0451,0.2046 0,0.0303 0.0077,0.0557 0.0239,0.0776 0.0156,0.0212 0.0417,0.0374 0.077,0.0494 0.0359,0.012 0.1072,0.0176 0.213,0.0176l-0.0183 0.0762 -0.9737 0 0.0205 -0.0762c0.1284,-0.0056 0.2145,-0.0275 0.2596,-0.0663 0.0445,-0.0388 0.0918,-0.1453 0.1418,-0.3203l0.5229 -1.8105c0.0317,-0.115 0.0472,-0.1855 0.0472,-0.213 0,-0.0374 -0.0106,-0.0664 -0.0317,-0.0868 -0.0219,-0.0212 -0.0543,-0.0311 -0.0981,-0.0311 -0.0402,0 -0.0959,0.005 -0.1679,0.0141l0 -0.0804 0.7091 -0.1051zm-0.4812 1.6531c0.0854,0.1023 0.2004,0.1531 0.345,0.1531 0.0713,0 0.1446,-0.0198 0.2187,-0.06 0.0748,-0.0395 0.1475,-0.0988 0.218,-0.1778 0.0713,-0.0783 0.1348,-0.1686 0.1912,-0.2716 0.0565,-0.1023 0.1073,-0.2237 0.1524,-0.3627 0.0445,-0.139 0.0671,-0.2772 0.0671,-0.4134 0,-0.1101 -0.0254,-0.1947 -0.0755,-0.2533 -0.0501,-0.0586 -0.1094,-0.0875 -0.1764,-0.0875 -0.1489,0 -0.2964,0.0854 -0.4417,0.2561 -0.1453,0.1708 -0.2519,0.3704 -0.3196,0.599l-0.1792 0.6181z"/>
  <path class="fil0" d="M50.9739 3.238l0.2914 -0.1171 0.0395 0 0 0.2209c0.0487,-0.0833 0.0981,-0.1419 0.1474,-0.175 0.0487,-0.0339 0.1009,-0.0501 0.1553,-0.0501 0.0952,0 0.1742,0.0367 0.2377,0.1115 0.0776,0.091 0.1165,0.2095 0.1165,0.3556 0,0.1629 -0.0466,0.2984 -0.1405,0.4049 -0.0769,0.0875 -0.1742,0.1313 -0.2913,0.1313 -0.0508,0 -0.0953,-0.0071 -0.132,-0.0219 -0.0275,-0.0099 -0.0585,-0.031 -0.0931,-0.0621l0 0.2886c0,0.0649 0.0035,0.1058 0.012,0.1235 0.0077,0.0176 0.0211,0.0317 0.0409,0.0416 0.0198,0.0106 0.0557,0.0155 0.1072,0.0155l0 0.0388 -0.496 0 0 -0.0388 0.0254 0c0.0381,0.0007 0.0706,-0.0063 0.0974,-0.0212 0.0134,-0.0077 0.0233,-0.0197 0.0303,-0.0366 0.0078,-0.017 0.0113,-0.06 0.0113,-0.1292l0 -0.8946c0,-0.0614 -0.0028,-0.1002 -0.0084,-0.1171 -0.0057,-0.0162 -0.0141,-0.0289 -0.0261,-0.0374 -0.0127,-0.0078 -0.029,-0.012 -0.0494,-0.012 -0.0163,0 -0.0374,0.0049 -0.0628,0.0141l-0.0127 -0.0332zm0.3309 0.1644l0 0.3535c0,0.0769 0.0028,0.127 0.0092,0.151 0.0098,0.0402 0.0331,0.0755 0.0705,0.1058 0.0381,0.0304 0.0854,0.0452 0.1425,0.0452 0.0685,0 0.1249,-0.0268 0.1672,-0.0804 0.0558,-0.0706 0.084,-0.1694 0.084,-0.2971 0,-0.1446 -0.0317,-0.2554 -0.0952,-0.3337 -0.0445,-0.0536 -0.0967,-0.0804 -0.1574,-0.0804 -0.0331,0 -0.0656,0.0084 -0.098,0.0247 -0.0247,0.0127 -0.0657,0.0501 -0.1228,0.1114z"/>
  <path class="fil0" d="M52.6368 3.9549c-0.0973,0.0748 -0.158,0.1185 -0.1827,0.1298 -0.0374,0.0176 -0.0769,0.0261 -0.1192,0.0261 -0.0657,0 -0.1193,-0.0226 -0.1616,-0.067 -0.0423,-0.0452 -0.0635,-0.1037 -0.0635,-0.1771 0,-0.0459 0.0106,-0.0861 0.031,-0.12 0.0283,-0.0465 0.0769,-0.091 0.1475,-0.1319 0.0698,-0.0416 0.1863,-0.0917 0.3485,-0.151l0 -0.0374c0,-0.0945 -0.0148,-0.1587 -0.0451,-0.194 -0.0296,-0.0353 -0.0734,-0.0529 -0.1305,-0.0529 -0.0438,0 -0.0777,0.012 -0.1031,0.0353 -0.0268,0.0232 -0.0395,0.0501 -0.0395,0.0804l0.0022 0.06c0,0.0317 -0.0085,0.0564 -0.0247,0.0733 -0.0163,0.017 -0.0374,0.0261 -0.0635,0.0261 -0.0254,0 -0.0459,-0.0091 -0.0621,-0.0268 -0.0163,-0.0183 -0.0247,-0.0423 -0.0247,-0.0733 0,-0.0593 0.0303,-0.1143 0.091,-0.1637 0.0607,-0.0494 0.146,-0.0741 0.2554,-0.0741 0.084,0 0.1531,0.0141 0.2067,0.0423 0.041,0.0212 0.0706,0.0544 0.0896,0.1002 0.0127,0.0296 0.0191,0.0903 0.0191,0.182l0 0.3211c0,0.0903 0.0014,0.1453 0.0049,0.1658 0.0035,0.0204 0.0092,0.0338 0.017,0.0409 0.0077,0.007 0.0169,0.0106 0.0275,0.0106 0.0113,0 0.0204,-0.0028 0.0289,-0.0071 0.0148,-0.0092 0.0423,-0.0345 0.084,-0.0755l0 0.0579c-0.0777,0.103 -0.151,0.1545 -0.2216,0.1545 -0.0338,0 -0.0607,-0.0113 -0.0804,-0.0346 -0.0198,-0.024 -0.0304,-0.0635 -0.0311,-0.1199zm0 -0.0677l0 -0.3606c-0.1037,0.0416 -0.1714,0.0706 -0.2017,0.0882 -0.0544,0.0303 -0.0932,0.0621 -0.1165,0.0946 -0.0232,0.0331 -0.0352,0.0698 -0.0352,0.1086 0,0.0501 0.0148,0.091 0.0444,0.1235 0.0296,0.0331 0.0635,0.0494 0.1023,0.0494 0.0522,0 0.1214,-0.0346 0.2067,-0.1037z"/>
  <path class="fil0" d="M53.3657 2.6214l0 1.2559c0,0.0592 0.0042,0.098 0.0127,0.1178 0.0092,0.019 0.0219,0.0339 0.0402,0.0437 0.0176,0.0099 0.0515,0.0149 0.1002,0.0149l0 0.0374 -0.4643 0 0 -0.0374c0.0438,0 0.0734,-0.0043 0.0889,-0.0134 0.0163,-0.0085 0.0283,-0.0233 0.0374,-0.0445 0.0092,-0.0205 0.0134,-0.06 0.0134,-0.1185l0 -0.8601c0,-0.1065 -0.0021,-0.1721 -0.007,-0.1968 -0.005,-0.0247 -0.0127,-0.041 -0.0233,-0.0501 -0.0106,-0.0092 -0.0247,-0.0134 -0.0409,-0.0134 -0.0177,0 -0.041,0.0056 -0.0685,0.0162l-0.0176 -0.036 0.2822 -0.1157 0.0466 0z"/>
  <path class="fil0" d="M53.9534 2.6214l0 1.2559c0,0.0592 0.0042,0.098 0.0127,0.1178 0.0092,0.019 0.0219,0.0339 0.0402,0.0437 0.0176,0.0099 0.0515,0.0149 0.1002,0.0149l0 0.0374 -0.4643 0 0 -0.0374c0.0438,0 0.0734,-0.0043 0.0889,-0.0134 0.0163,-0.0085 0.0283,-0.0233 0.0374,-0.0445 0.0092,-0.0205 0.0134,-0.06 0.0134,-0.1185l0 -0.8601c0,-0.1065 -0.0021,-0.1721 -0.007,-0.1968 -0.005,-0.0247 -0.0127,-0.041 -0.0233,-0.0501 -0.0106,-0.0092 -0.0247,-0.0134 -0.0409,-0.0134 -0.0177,0 -0.041,0.0056 -0.0685,0.0162l-0.0176 -0.036 0.2822 -0.1157 0.0466 0z"/>
  <path class="fil0" d="M54.6787 3.1167c0.1432,0 0.2582,0.0543 0.345,0.163 0.0741,0.0931 0.1107,0.1996 0.1107,0.3203 0,0.0847 -0.0204,0.1707 -0.0606,0.2575 -0.041,0.0868 -0.0967,0.1524 -0.168,0.1962 -0.0719,0.0444 -0.1509,0.0663 -0.2384,0.0663 -0.1425,0 -0.2561,-0.0572 -0.3401,-0.1708 -0.0713,-0.0952 -0.1065,-0.2032 -0.1065,-0.3224 0,-0.0868 0.0218,-0.1729 0.0649,-0.2589 0.043,-0.0854 0.0995,-0.1489 0.17,-0.1898 0.0699,-0.0409 0.1446,-0.0614 0.223,-0.0614zm-0.0318 0.067c-0.0367,0 -0.0734,0.0106 -0.1101,0.0325 -0.0373,0.0218 -0.067,0.0599 -0.0896,0.1143 -0.0225,0.0543 -0.0338,0.1241 -0.0338,0.2095 0,0.1383 0.0268,0.2568 0.0818,0.357 0.0551,0.0995 0.127,0.1496 0.2166,0.1496 0.0671,0 0.1221,-0.0275 0.1651,-0.0825 0.0438,-0.0551 0.0656,-0.1503 0.0656,-0.2844 0,-0.1679 -0.0367,-0.3005 -0.1086,-0.3972 -0.0494,-0.0656 -0.1115,-0.0988 -0.187,-0.0988zm0.2498 -0.5291l-0.3048 0.3563 -0.0353 0 0.1087 -0.3563 0.2314 0z"/>
  <path class="fil0" d="M4.2438 9.8551l-0.2131 2.3311c-0.0113,0.1093 -0.0162,0.1806 -0.0162,0.2152 0,0.055 0.0098,0.0973 0.031,0.1263 0.0261,0.0395 0.0614,0.0691 0.1058,0.0889 0.0452,0.019 0.1207,0.0289 0.2265,0.0289l-0.0226 0.0762 -1.1034 0 0.0225 -0.0762 0.0473 0c0.0896,0 0.163,-0.0198 0.2194,-0.0579 0.0395,-0.0268 0.0706,-0.0698 0.0932,-0.1305 0.0148,-0.043 0.0296,-0.1432 0.043,-0.302l0.0332 -0.3556 -0.8023 0 -0.285 0.3867c-0.0649,0.0868 -0.1051,0.1496 -0.1221,0.187 -0.0162,0.0381 -0.0246,0.0733 -0.0246,0.1065 0,0.0444 0.0176,0.0818 0.0536,0.1136 0.036,0.0317 0.0952,0.0494 0.1778,0.0522l-0.0226 0.0762 -0.829 0 0.0226 -0.0762c0.1023,-0.0042 0.1919,-0.0388 0.2702,-0.1023 0.0776,-0.0642 0.1933,-0.2011 0.3478,-0.4106l1.6743 -2.2775 0.0727 0zm-0.4093 0.6879l-0.8128 1.1056 0.7049 0 0.1079 -1.1056z"/>
  <path class="fil0" d="M51.0967 8.6765l0.029 -0.077 1.0004 0c0.1679,0 0.3175,0.0262 0.4495,0.0791 0.1312,0.0522 0.23,0.1249 0.2956,0.2187 0.0656,0.0938 0.0981,0.1933 0.0981,0.2977 0,0.1616 -0.0586,0.3069 -0.175,0.4375 -0.1164,0.1298 -0.3062,0.2265 -0.5694,0.2878 0.17,0.0635 0.2942,0.1475 0.3746,0.2526 0.0798,0.1044 0.12,0.2195 0.12,0.345 0,0.139 -0.036,0.2724 -0.108,0.3994 -0.0712,0.1263 -0.1636,0.2251 -0.2758,0.2949 -0.1122,0.0706 -0.2477,0.1221 -0.4064,0.1552 -0.1129,0.0233 -0.2893,0.0353 -0.5292,0.0353l-1.0273 0 0.0268 -0.0762c0.108,-0.0028 0.1807,-0.0134 0.2195,-0.031 0.055,-0.024 0.0945,-0.0551 0.1178,-0.0932 0.0332,-0.0522 0.0769,-0.1721 0.1319,-0.3598l0.5024 -1.6969c0.043,-0.1432 0.0642,-0.2441 0.0642,-0.3019 0,-0.0508 -0.0191,-0.091 -0.0565,-0.1207 -0.0381,-0.0296 -0.11,-0.0444 -0.2166,-0.0444 -0.0232,0 -0.0451,-0.0007 -0.0656,-0.0021zm0.4191 1.1634c0.0896,0.0028 0.1545,0.0042 0.1948,0.0042 0.2864,0 0.4995,-0.062 0.6399,-0.1869 0.1397,-0.1249 0.2095,-0.2808 0.2095,-0.4685 0,-0.1418 -0.043,-0.2526 -0.1284,-0.3316 -0.0853,-0.079 -0.2215,-0.1186 -0.4092,-0.1186 -0.0494,0 -0.1129,0.0078 -0.1898,0.0247l-0.3168 1.0767zm-0.4071 1.3808c0.1489,0.0197 0.2653,0.0289 0.3493,0.0289 0.2152,0 0.4057,-0.0649 0.5715,-0.194 0.1665,-0.1299 0.249,-0.3055 0.249,-0.5271 0,-0.1693 -0.0508,-0.302 -0.1538,-0.3972 -0.1023,-0.0953 -0.2681,-0.1425 -0.4967,-0.1425 -0.0444,0 -0.0981,0.0021 -0.1616,0.0063l-0.3577 1.2256z"/>
 </g>
</svg>
