<?xml version="1.0" encoding="UTF-8"?>
<!DOCTYPE svg PUBLIC "-//W3C//DTD SVG 1.1//EN" "http://www.w3.org/Graphics/SVG/1.1/DTD/svg11.dtd">
<!-- Creator: CorelDRAW -->
<svg xmlns="http://www.w3.org/2000/svg" xml:space="preserve" width="92mm" height="18mm" style="shape-rendering:geometricPrecision; text-rendering:geometricPrecision; image-rendering:optimizeQuality; fill-rule:evenodd; clip-rule:evenodd"
viewBox="0 0 92 18">
 <defs>
  <style type="text/css">
   <![CDATA[
    .str0 {stroke:#131516;stroke-width:0.1764}
    .str1 {stroke:#1F1A17;stroke-width:0.3528}
    .fil0 {fill:none}
    .fil2 {fill:#1F1A17;fill-rule:nonzero}
    .fil1 {fill:url(#id0)}
   ]]>
  </style>
  <linearGradient id="id0" gradientUnits="userSpaceOnUse" x1="74.6604" y1="5.6733" x2="73.6914" y2="5.6733">
   <stop offset="0" style="stop-color:white"/>
   <stop offset="1" style="stop-color:white"/>
  </linearGradient>
 </defs>
 <g id="Layer_x0020_1">
  <metadata id="CorelCorpID_0Corel-Layer"/>
  <polygon class="fil0 str0" points="74.693,5.6734 75.7902,6.5546 76.8873,7.4359 76.8873,5.6734 76.8873,3.9108 75.7902,4.7921 "/>
  <g id="_156063832">
   <line id="_156062880" class="fil0 str0" x1="76.8929" y1="8.0537" x2="76.8929" y2= "3.6652" />
   <g>
    <line id="_156204008" class="fil0 str0" x1="76.9533" y1="7.6309" x2="77.8189" y2= "8.0134" />
    <line id="_156064008" class="fil0 str0" x1="76.9533" y1="6.8476" x2="77.8189" y2= "7.2301" />
    <line id="_156064200" class="fil0 str0" x1="76.9533" y1="6.0643" x2="77.8189" y2= "6.4468" />
    <line id="_156064392" class="fil0 str0" x1="76.9533" y1="5.281" x2="77.8189" y2= "5.6635" />
    <line id="_156064584" class="fil0 str0" x1="76.9533" y1="4.4977" x2="77.8189" y2= "4.8802" />
    <line id="_156064776" class="fil0 str0" x1="76.9533" y1="3.7145" x2="77.8189" y2= "4.0969" />
   </g>
  </g>
  <circle class="fil1 str0" transform="matrix(1.64037E-013 -0.688188 0.688188 1.64037E-013 74.1759 5.67335)" r="0.704"/>
  <polygon class="fil0 str0" points="18.3972,5.6734 17.3,6.5546 16.2029,7.4359 16.2029,5.6734 16.2029,3.9108 17.3,4.7921 "/>
  <g id="_155832488">
   <line id="_155333336" class="fil0 str0" x1="16.1973" y1="8.0537" x2="16.1973" y2= "3.6652" />
   <g>
    <line id="_155818856" class="fil0 str0" x1="16.1369" y1="7.6309" x2="15.2713" y2= "8.0134" />
    <line id="_156199128" class="fil0 str0" x1="16.1369" y1="6.8476" x2="15.2713" y2= "7.2301" />
    <line id="_155153288" class="fil0 str0" x1="16.1369" y1="6.0643" x2="15.2713" y2= "6.4468" />
    <line id="_155330096" class="fil0 str0" x1="16.1369" y1="5.281" x2="15.2713" y2= "5.6635" />
    <line id="_155153032" class="fil0 str0" x1="16.1369" y1="4.4977" x2="15.2713" y2= "4.8802" />
    <line id="_155846352" class="fil0 str0" x1="16.1369" y1="3.7145" x2="15.2713" y2= "4.0969" />
   </g>
  </g>
  <circle class="fil1 str0" transform="matrix(-1.64037E-013 -0.688188 -0.688188 1.64037E-013 18.9143 5.67335)" r="0.704"/>
  <line class="fil0 str1" x1="19.328" y1="5.8593" x2="47.0565" y2= "13.5702" />
  <line class="fil0 str1" x1="74.559" y1="5.8591" x2="46.8305" y2= "13.57" />
  <g>
   <path class="fil2" d="M90.6592 1.3862l0.0798 0.2874 -1.1081 1.2523 -0.2663 -0.2356 1.1081 -1.2523 0.0799 0.2874 0.1066 -0.3392zm0 0l0.2615 0.0821 -0.1817 0.2053 -0.0798 -0.2874zm-1.6491 -0.3315l0.0533 -0.1697 1.5958 0.5012 -0.1066 0.3392 -1.5958 -0.5011 0.0533 -0.1696zm-0.2613 1.2l-0.0938 -0.339 1.6382 -0.4555 0.0938 0.339 -1.6382 0.4555zm-1.3105 0.3644l-0.0938 -0.339 0.3276 -0.0911 0.0938 0.339 -0.3276 0.0911zm-2.6212 0.7289l-0.0938 -0.339 1.6383 -0.4556 0.0938 0.339 -1.6383 0.4556zm-1.3105 0.3644l-0.0938 -0.339 0.3276 -0.0911 0.0938 0.339 -0.3276 0.0911zm-2.6213 0.7289l-0.0938 -0.339 1.6383 -0.4556 0.0938 0.339 -1.6383 0.4556zm-1.3106 0.3645l-0.0938 -0.339 0.3276 -0.0911 0.0938 0.339 -0.3276 0.0911zm-1.837 0.1459l0.7601 -0.2115 0.0938 0.339 -0.7601 0.2115 -0.0938 -0.339z"/>
  </g>
  <g>
   <path class="fil2" d="M90.9403 5.6634l0.0028 0.2984 -1.3946 0.9228 -0.1962 -0.2966 1.3946 -0.9228 0.0027 0.2984 0.1907 -0.3002zm0 0l0.2314 0.1471 -0.2286 0.1513 -0.0028 -0.2984zm-1.507 -0.747l0.0953 -0.15 1.4117 0.897 -0.1907 0.3002 -1.4117 -0.8971 0.0954 -0.1501zm-11.8969 0.8469l13.0313 -0.123 0.0028 0.3514 -13.0313 0.123 -0.0028 -0.3514z"/>
  </g>
  <path class="fil2" d="M84.369 8.6316l1.2933 0 0.2053 -0.6929c0.0381,-0.1347 0.0579,-0.2391 0.0579,-0.3139 0,-0.036 -0.0092,-0.0664 -0.0261,-0.0918 -0.017,-0.0254 -0.0438,-0.0444 -0.0798,-0.0571 -0.036,-0.012 -0.1058,-0.0183 -0.2109,-0.0183l0.0211 -0.077 1.1282 0 -0.0247 0.077c-0.0952,-0.0015 -0.1658,0.0077 -0.2131,0.0289 -0.0656,0.0289 -0.115,0.0663 -0.1467,0.1115 -0.0452,0.0649 -0.0917,0.1785 -0.1383,0.3407l-0.4939 1.6934c-0.0416,0.1404 -0.0621,0.2413 -0.0621,0.3012 0,0.0529 0.0184,0.0925 0.0551,0.1193 0.0359,0.0268 0.1234,0.0451 0.261,0.055l-0.0226 0.0762 -1.0915 0 0.029 -0.0762c0.1072,-0.0028 0.1792,-0.0127 0.2152,-0.0289 0.055,-0.0254 0.0952,-0.0572 0.1199,-0.0953 0.0353,-0.0536 0.0797,-0.1707 0.1319,-0.3513l0.2526 -0.858 -1.3003 0 -0.2547 0.858c-0.0395,0.1375 -0.0593,0.2384 -0.0593,0.3012 0,0.0529 0.0177,0.0925 0.0537,0.1193 0.0352,0.0268 0.1227,0.0451 0.2603,0.055l-0.0169 0.0762 -1.0993 0 0.0268 -0.0762c0.1087,-0.0028 0.1814,-0.0127 0.2173,-0.0289 0.0551,-0.0254 0.0953,-0.0572 0.1214,-0.0953 0.036,-0.0564 0.0804,-0.1735 0.1326,-0.3513l0.496 -1.6934c0.0403,-0.1375 0.06,-0.242 0.06,-0.3139 0,-0.036 -0.0085,-0.0664 -0.0261,-0.0918 -0.0169,-0.0254 -0.0437,-0.0444 -0.0804,-0.0571 -0.0367,-0.012 -0.108,-0.0183 -0.2138,-0.0183l0.0247 -0.077 1.1056 0 -0.0226 0.077c-0.0924,-0.0015 -0.1602,0.0077 -0.2046,0.0289 -0.0649,0.0275 -0.1122,0.0642 -0.1425,0.1093 -0.0416,0.0607 -0.0868,0.175 -0.1362,0.3429l-0.2025 0.6929z"/>
  <g>
   <path class="fil2" d="M1.6549 1.6736l0.08 -0.2875 1.5956 -0.5004 0.1064 0.3393 -1.5956 0.5004 0.08 -0.2874 -0.2664 0.2356zm0 0l-0.1816 -0.2054 0.2616 -0.0821 -0.08 0.2875zm1.2412 1.1352l-0.1332 0.1178 -1.108 -1.253 0.2664 -0.2356 1.108 1.253 -0.1332 0.1178zm0.8429 -0.8931l-0.0938 0.339 -1.6382 -0.4555 0.0938 -0.339 1.6382 0.4555zm1.3105 0.3644l-0.0938 0.339 -0.3276 -0.0911 0.0938 -0.339 0.3276 0.0911zm2.6212 0.7289l-0.0938 0.339 -1.6383 -0.4556 0.0938 -0.339 1.6383 0.4556zm1.3105 0.3644l-0.0938 0.339 -0.3276 -0.0911 0.0938 -0.339 0.3276 0.0911zm2.6213 0.7289l-0.0938 0.339 -1.6383 -0.4556 0.0938 -0.339 1.6383 0.4556zm1.3106 0.3645l-0.0938 0.339 -0.3276 -0.0911 0.0938 -0.339 0.3276 0.0911zm1.6494 0.8239l-0.7601 -0.2115 0.0938 -0.339 0.7601 0.2115 -0.0938 0.339z"/>
  </g>
  <g>
   <path class="fil2" d="M1.4508 5.9617l0.0029 -0.2983 1.4117 -0.8964 0.1906 0.3002 -1.4117 0.8964 0.0029 -0.2983 -0.1964 0.2964zm0 0l-0.2285 -0.1513 0.2314 -0.147 -0.0029 0.2983zm1.4928 0.7753l-0.0982 0.1483 -1.3946 -0.9236 0.1964 -0.2964 1.3945 0.9235 -0.0981 0.1482zm11.9112 -0.6223l-13.0313 -0.123 0.0028 -0.3514 13.0313 0.123 -0.0028 0.3514z"/>
  </g>
  <path class="fil2" d="M8.3944 9.1446l1.2933 0 0.2053 -0.6929c0.0381,-0.1347 0.0579,-0.2391 0.0579,-0.3139 0,-0.036 -0.0092,-0.0664 -0.0261,-0.0918 -0.017,-0.0254 -0.0438,-0.0444 -0.0798,-0.0571 -0.036,-0.012 -0.1058,-0.0183 -0.2109,-0.0183l0.0211 -0.077 1.1282 0 -0.0247 0.077c-0.0952,-0.0015 -0.1658,0.0077 -0.2131,0.0289 -0.0656,0.0289 -0.115,0.0663 -0.1467,0.1115 -0.0452,0.0649 -0.0917,0.1785 -0.1383,0.3407l-0.4939 1.6934c-0.0416,0.1404 -0.0621,0.2413 -0.0621,0.3012 0,0.0529 0.0184,0.0925 0.0551,0.1193 0.0359,0.0268 0.1234,0.0451 0.261,0.055l-0.0226 0.0762 -1.0915 0 0.029 -0.0762c0.1072,-0.0028 0.1792,-0.0127 0.2152,-0.0289 0.055,-0.0254 0.0952,-0.0572 0.1199,-0.0953 0.0353,-0.0536 0.0797,-0.1707 0.1319,-0.3513l0.2526 -0.858 -1.3003 0 -0.2547 0.858c-0.0395,0.1375 -0.0593,0.2384 -0.0593,0.3012 0,0.0529 0.0177,0.0925 0.0537,0.1193 0.0352,0.0268 0.1227,0.0451 0.2603,0.055l-0.0169 0.0762 -1.0993 0 0.0268 -0.0762c0.1087,-0.0028 0.1814,-0.0127 0.2173,-0.0289 0.0551,-0.0254 0.0953,-0.0572 0.1214,-0.0953 0.036,-0.0564 0.0804,-0.1735 0.1326,-0.3513l0.496 -1.6934c0.0403,-0.1375 0.06,-0.242 0.06,-0.3139 0,-0.036 -0.0085,-0.0664 -0.0261,-0.0918 -0.0169,-0.0254 -0.0437,-0.0444 -0.0804,-0.0571 -0.0367,-0.012 -0.108,-0.0183 -0.2138,-0.0183l0.0247 -0.077 1.1056 0 -0.0226 0.077c-0.0924,-0.0015 -0.1602,0.0077 -0.2046,0.0289 -0.0649,0.0275 -0.1122,0.0642 -0.1425,0.1093 -0.0416,0.0607 -0.0868,0.175 -0.1362,0.3429l-0.2025 0.6929z"/>
  <g>
   <path class="fil2" d="M47.2948 12.8601l-0.2984 0 -0.9096 -1.4032 0.2984 -0.1934 0.9096 1.4032 -0.2984 -0.0001 0.2984 0.1935zm0 0l-0.1493 0.23 -0.1491 -0.23 0.2984 0zm0.7611 -1.4999l0.1492 0.0967 -0.9103 1.4032 -0.2984 -0.1935 0.9104 -1.4032 0.1491 0.0968zm-0.7339 -7.4247l0 8.552 -0.3528 0 0 -8.552 0.3528 0z"/>
  </g>
  <path class="fil2" d="M51.6922 1.771l-0.2089 0.8819 -0.0783 0c0.0127,-0.103 0.0191,-0.1792 0.0191,-0.2293 0,-0.1348 -0.06,-0.2547 -0.1793,-0.3584 -0.1192,-0.1038 -0.2836,-0.156 -0.4931,-0.156 -0.4283,0 -0.7783,0.2011 -1.0499,0.6033 -0.2166,0.3182 -0.3245,0.6745 -0.3245,1.0689 0,0.2618 0.067,0.4875 0.2003,0.678 0.1341,0.1898 0.3401,0.2851 0.6181,0.2851 0.0691,0 0.134,-0.0064 0.1954,-0.0184 0.0614,-0.0127 0.1538,-0.0402 0.278,-0.0825l0.2046 -0.7218c0.029,-0.0988 0.0438,-0.1785 0.0438,-0.2378 0,-0.0494 -0.0184,-0.0875 -0.0537,-0.1136 -0.0578,-0.0402 -0.1516,-0.0599 -0.2815,-0.0599l-0.0578 0 0.0226 -0.0805 1.1662 0 -0.0211 0.0805c-0.1059,0.0014 -0.1828,0.0141 -0.2315,0.0374 -0.0479,0.0232 -0.0896,0.0635 -0.1241,0.1199 -0.0233,0.0374 -0.0607,0.1453 -0.1136,0.3246l-0.2068 0.709c-0.1883,0.0812 -0.3407,0.1355 -0.4564,0.1623 -0.1158,0.0268 -0.2378,0.0402 -0.3662,0.0402 -0.2949,0 -0.5334,-0.0557 -0.7169,-0.1665 -0.1834,-0.1108 -0.3189,-0.2575 -0.4064,-0.4403 -0.0874,-0.1827 -0.1312,-0.364 -0.1312,-0.5446 0,-0.2427 0.0508,-0.4735 0.1531,-0.6915 0.1016,-0.2187 0.2293,-0.4028 0.381,-0.5538 0.1524,-0.151 0.3182,-0.2703 0.4974,-0.357 0.247,-0.12 0.5059,-0.1792 0.7775,-0.1792 0.1997,0 0.3803,0.0324 0.5412,0.0987 0.0649,0.0261 0.1122,0.0395 0.1425,0.0395 0.0346,0 0.0642,-0.0077 0.0882,-0.024 0.024,-0.0155 0.055,-0.0543 0.0938,-0.1142l0.0784 0z"/>
  <g>
   <path class="fil2" d="M34.102 10.1226l0.08 -0.2875 1.5956 -0.5004 0.1064 0.3393 -1.5956 0.5004 0.08 -0.2874 -0.2664 0.2356zm0 0l-0.1816 -0.2054 0.2616 -0.0821 -0.08 0.2875zm1.2412 1.1352l-0.1332 0.1178 -1.108 -1.253 0.2664 -0.2356 1.108 1.253 -0.1332 0.1178zm11.6664 2.4819l-12.5555 -3.4915 0.0938 -0.339 12.5555 3.4915 -0.0938 0.339z"/>
  </g>
  <g>
   <path class="fil2" d="M59.6063 9.8352l0.0798 0.2874 -1.1081 1.2523 -0.2663 -0.2356 1.1081 -1.2523 0.0799 0.2874 0.1066 -0.3392zm0 0l0.2615 0.0821 -0.1817 0.2053 -0.0798 -0.2874zm-1.6491 -0.3315l0.0533 -0.1697 1.5958 0.5012 -0.1066 0.3392 -1.5958 -0.5011 0.0533 -0.1696zm-11.2724 3.897l12.5555 -3.4915 0.0938 0.339 -12.5555 3.4915 -0.0938 -0.339z"/>
  </g>
  <path class="fil2" d="M36.4053 15.088l0.6943 1.0731c0.1242,0.1898 0.2272,0.3119 0.3083,0.3648 0.0812,0.0529 0.1884,0.0797 0.3203,0.0797l-0.0225 0.0762 -1.1952 0 0.019 -0.0762c0.0953,-0.0099 0.1623,-0.0325 0.2011,-0.0684 0.0395,-0.036 0.0593,-0.0762 0.0593,-0.1221 0,-0.0416 -0.0071,-0.0811 -0.0205,-0.1199 -0.0113,-0.0276 -0.0515,-0.0953 -0.1199,-0.2025l-0.5687 -0.8911 -0.2752 0.9285c-0.0451,0.1488 -0.0677,0.2483 -0.0677,0.2998 0,0.0522 0.019,0.0917 0.0578,0.1193 0.0381,0.0282 0.1334,0.0465 0.2851,0.0564l-0.0332 0.0762 -1.1077 0 0.0268 -0.0762c0.1073,-0.0028 0.1799,-0.0127 0.2173,-0.0289 0.0551,-0.0254 0.0953,-0.0572 0.1214,-0.0953 0.036,-0.0564 0.0804,-0.1735 0.1326,-0.3513l0.4939 -1.6934c0.0374,-0.1291 0.0557,-0.2335 0.0557,-0.3118 0,-0.055 -0.0176,-0.0974 -0.0522,-0.1263 -0.0352,-0.0289 -0.1037,-0.043 -0.206,-0.043l-0.0416 0 0.0254 -0.077 1.052 0 -0.0212 0.077c-0.0868,-0.0015 -0.151,0.0077 -0.194,0.0289 -0.0593,0.0289 -0.1023,0.0663 -0.1298,0.1115 -0.0283,0.0451 -0.0685,0.1594 -0.1221,0.3407l-0.2173 0.7197 0.9962 -0.7507c0.1327,-0.0988 0.2194,-0.1778 0.2604,-0.2357 0.0247,-0.0352 0.0374,-0.0677 0.0374,-0.0966 0,-0.0247 -0.0127,-0.0494 -0.0381,-0.0727 -0.0254,-0.0233 -0.0642,-0.0381 -0.1172,-0.0451l0.0212 -0.077 0.8968 0 -0.0184 0.077c-0.0981,0.0162 -0.1806,0.0381 -0.2469,0.0649 -0.0671,0.0268 -0.1355,0.0635 -0.206,0.1107 -0.0205,0.0134 -0.1553,0.1157 -0.4029,0.3055l-0.858 0.6513z"/>
  <path class="fil2" d="M56.6326 15.259l0.6943 1.0731c0.1242,0.1898 0.2272,0.3119 0.3083,0.3648 0.0812,0.0529 0.1884,0.0797 0.3203,0.0797l-0.0225 0.0762 -1.1952 0 0.019 -0.0762c0.0953,-0.0099 0.1623,-0.0325 0.2011,-0.0684 0.0395,-0.036 0.0593,-0.0762 0.0593,-0.1221 0,-0.0416 -0.0071,-0.0811 -0.0205,-0.1199 -0.0113,-0.0276 -0.0515,-0.0953 -0.1199,-0.2025l-0.5687 -0.8911 -0.2752 0.9285c-0.0451,0.1488 -0.0677,0.2483 -0.0677,0.2998 0,0.0522 0.019,0.0917 0.0578,0.1193 0.0381,0.0282 0.1334,0.0465 0.2851,0.0564l-0.0332 0.0762 -1.1077 0 0.0268 -0.0762c0.1073,-0.0028 0.1799,-0.0127 0.2173,-0.0289 0.0551,-0.0254 0.0953,-0.0572 0.1214,-0.0953 0.036,-0.0564 0.0804,-0.1735 0.1326,-0.3513l0.4939 -1.6934c0.0374,-0.1291 0.0557,-0.2335 0.0557,-0.3118 0,-0.055 -0.0176,-0.0974 -0.0522,-0.1263 -0.0352,-0.0289 -0.1037,-0.043 -0.206,-0.043l-0.0416 0 0.0254 -0.077 1.052 0 -0.0212 0.077c-0.0868,-0.0015 -0.151,0.0077 -0.194,0.0289 -0.0593,0.0289 -0.1023,0.0663 -0.1298,0.1115 -0.0283,0.0451 -0.0685,0.1594 -0.1221,0.3407l-0.2173 0.7197 0.9962 -0.7507c0.1327,-0.0988 0.2194,-0.1778 0.2604,-0.2357 0.0247,-0.0352 0.0374,-0.0677 0.0374,-0.0966 0,-0.0247 -0.0127,-0.0494 -0.0381,-0.0727 -0.0254,-0.0233 -0.0642,-0.0381 -0.1172,-0.0451l0.0212 -0.077 0.8968 0 -0.0184 0.077c-0.0981,0.0162 -0.1806,0.0381 -0.2469,0.0649 -0.0671,0.0268 -0.1355,0.0635 -0.206,0.1107 -0.0205,0.0134 -0.1553,0.1157 -0.4029,0.3055l-0.858 0.6513z"/>
 </g>
</svg>
