<?xml version="1.0" encoding="UTF-8"?>
<!DOCTYPE svg PUBLIC "-//W3C//DTD SVG 1.1//EN" "http://www.w3.org/Graphics/SVG/1.1/DTD/svg11.dtd">
<!-- Creator: CorelDRAW -->
<svg xmlns="http://www.w3.org/2000/svg" xml:space="preserve" width="72mm" height="40mm" style="shape-rendering:geometricPrecision; text-rendering:geometricPrecision; image-rendering:optimizeQuality; fill-rule:evenodd; clip-rule:evenodd"
viewBox="0 0 72 40">
 <defs>
  <style type="text/css">
   <![CDATA[
    .str1 {stroke:#1F1A17;stroke-width:0.1764}
    .str0 {stroke:#1F1A17;stroke-width:0.3528}
    .fil0 {fill:none}
    .fil1 {fill:#1F1A17;fill-rule:nonzero}
   ]]>
  </style>
 </defs>
 <g id="Layer_x0020_1">
  <metadata id="CorelCorpID_0Corel-Layer"/>
  <polyline class="fil0 str0" points="71.0266,29.638 54.7692,18.0976 36.3988,14.7325 "/>
  <polyline class="fil0 str0" points="1.5162,29.638 18.5723,19.5566 36.2712,14.6741 "/>
  <line class="fil0 str1" x1="1.5162" y1="29.6381" x2="71.0267" y2= "29.6381" />
  <g>
   <path class="fil1" d="M36.09 13.2637l0 -8.5041 0.1764 0 0 8.5041 -0.1764 0zm-0.061 0.3726l0.2984 -0.1935 -0.2984 0.0001 0.9096 -1.4032 0.2984 0.1934 -0.9096 1.4032 -0.2984 0zm0 0l0.2984 0 -0.1491 0.23 -0.1493 -0.23zm-0.7611 -1.4999l0.1491 -0.0968 0.9104 1.4032 -0.2984 0.1935 -0.9103 -1.4032 0.1492 -0.0967z"/>
  </g>
  <g>
   <path class="fil1" d="M35.8254 12.7842l0 -8.0246 0.7056 0 0 8.0246 -0.7056 0zm0.0568 0.7395l0.592 -0.384 -0.592 0.0001 1.8049 -2.7843 0.5921 0.3838 -1.805 2.7843 -0.592 0.0001zm0 0l0.592 -0.0001 -0.2959 0.4565 -0.2961 -0.4564zm-1.5103 -2.9763l0.2959 -0.192 1.8064 2.7843 -0.592 0.384 -1.8063 -2.7843 0.296 -0.192z"/>
  </g>
  <g>
   <path class="fil1" d="M18.6186 16.9756l0 -8.0246 0.7056 0 0 8.0246 -0.7056 0zm0.0568 0.7395l0.592 -0.384 -0.592 0.0001 1.8049 -2.7843 0.5921 0.3838 -1.805 2.7843 -0.592 0.0001zm0 0l0.592 -0.0001 -0.2959 0.4565 -0.2961 -0.4564zm-1.5103 -2.9763l0.2959 -0.192 1.8064 2.7843 -0.592 0.384 -1.8063 -2.7843 0.296 -0.192z"/>
  </g>
  <g>
   <path class="fil1" d="M54.4165 16.033l0 -8.0246 0.7056 0 0 8.0246 -0.7056 0zm0.0568 0.7395l0.592 -0.384 -0.592 0.0001 1.8049 -2.7843 0.5921 0.3838 -1.805 2.7843 -0.592 0.0001zm0 0l0.592 -0.0001 -0.2959 0.4565 -0.2961 -0.4564zm-1.5103 -2.9763l0.2959 -0.192 1.8064 2.7843 -0.592 0.384 -1.8063 -2.7843 0.296 -0.192z"/>
  </g>
  <path class="fil1" d="M40.3973 1.7477l-0.3309 1.1106 0.3683 0c0.1651,0 0.2893,-0.0261 0.3711,-0.0769 0.0819,-0.0508 0.1666,-0.1595 0.2533,-0.3267l0.0784 0 -0.2914 1.0209 -0.0826 0c0.0205,-0.0825 0.0311,-0.1503 0.0311,-0.2046 0,-0.084 -0.0283,-0.1489 -0.084,-0.1947 -0.0557,-0.0466 -0.1602,-0.0699 -0.3133,-0.0699l-0.3718 0 -0.2441 0.846c-0.0438,0.1503 -0.0663,0.2497 -0.0663,0.2991 0,0.0515 0.019,0.0903 0.0571,0.1179 0.0381,0.0282 0.1305,0.0465 0.278,0.0564l-0.0247 0.0762 -1.1077 0 0.0268 -0.0762c0.1072,-0.0028 0.1792,-0.0127 0.2145,-0.0289 0.055,-0.024 0.0959,-0.0558 0.122,-0.0953 0.0374,-0.0564 0.0812,-0.1728 0.1327,-0.3492l0.4939 -1.6891c0.0395,-0.1362 0.0599,-0.2434 0.0599,-0.3203 0,-0.036 -0.0091,-0.0664 -0.0268,-0.0918 -0.0183,-0.0254 -0.0444,-0.0444 -0.0797,-0.0571 -0.0353,-0.012 -0.1051,-0.0183 -0.2095,-0.0183l0.0247 -0.077 2.1745 0 -0.2068 0.7091 -0.079 0c0.0155,-0.0853 0.0233,-0.1552 0.0233,-0.2109 0,-0.091 -0.0254,-0.163 -0.0755,-0.2159 -0.0508,-0.0529 -0.115,-0.0903 -0.1933,-0.1122 -0.0551,-0.0141 -0.1785,-0.0212 -0.3704,-0.0212l-0.5518 0z"/>
  <path class="fil1" d="M41.855 3.9836l0.3407 -0.1658 0.0339 0 0 1.1832c0,0.0783 0.0035,0.1277 0.0099,0.1468 0.007,0.019 0.0204,0.0338 0.0409,0.0444 0.0205,0.0106 0.0628,0.0162 0.1263,0.0177l0 0.0381 -0.5271 0 0 -0.0381c0.0657,-0.0015 0.1087,-0.0071 0.1278,-0.017 0.0197,-0.0106 0.0331,-0.024 0.0402,-0.0409 0.0077,-0.0162 0.012,-0.067 0.012,-0.151l0 -0.7563c0,-0.1023 -0.0036,-0.168 -0.0106,-0.1969 -0.005,-0.0219 -0.0134,-0.0381 -0.0261,-0.0487 -0.0127,-0.0098 -0.0282,-0.0155 -0.0466,-0.0155 -0.0254,0 -0.0607,0.0113 -0.1058,0.0325l-0.0155 -0.0325z"/>
  <path class="fil1" d="M57.8134 8.1761l-0.3309 1.1106 0.3683 0c0.1651,0 0.2893,-0.0261 0.3711,-0.0769 0.0819,-0.0508 0.1666,-0.1595 0.2533,-0.3267l0.0784 0 -0.2914 1.0209 -0.0826 0c0.0205,-0.0825 0.0311,-0.1503 0.0311,-0.2046 0,-0.084 -0.0283,-0.1489 -0.084,-0.1947 -0.0557,-0.0466 -0.1602,-0.0699 -0.3133,-0.0699l-0.3718 0 -0.2441 0.846c-0.0438,0.1503 -0.0663,0.2497 -0.0663,0.2991 0,0.0515 0.019,0.0903 0.0571,0.1179 0.0381,0.0282 0.1305,0.0465 0.278,0.0564l-0.0247 0.0762 -1.1077 0 0.0268 -0.0762c0.1072,-0.0028 0.1792,-0.0127 0.2145,-0.0289 0.055,-0.024 0.0959,-0.0558 0.122,-0.0953 0.0374,-0.0564 0.0812,-0.1728 0.1327,-0.3492l0.4939 -1.6891c0.0395,-0.1362 0.0599,-0.2434 0.0599,-0.3203 0,-0.036 -0.0091,-0.0664 -0.0268,-0.0918 -0.0183,-0.0254 -0.0444,-0.0444 -0.0797,-0.0571 -0.0353,-0.012 -0.1051,-0.0183 -0.2095,-0.0183l0.0247 -0.077 2.1745 0 -0.2068 0.7091 -0.079 0c0.0155,-0.0853 0.0233,-0.1552 0.0233,-0.2109 0,-0.091 -0.0254,-0.163 -0.0755,-0.2159 -0.0508,-0.0529 -0.115,-0.0903 -0.1933,-0.1122 -0.0551,-0.0141 -0.1785,-0.0212 -0.3704,-0.0212l-0.5518 0z"/>
  <path class="fil1" d="M59.9928 11.4068l-0.098 0.2696 -0.8269 0 0 -0.0381c0.2434,-0.2223 0.4148,-0.4029 0.5136,-0.544 0.0995,-0.1404 0.1489,-0.2688 0.1489,-0.3853 0,-0.0889 -0.0268,-0.1622 -0.0812,-0.2194 -0.0543,-0.0571 -0.1199,-0.0854 -0.1954,-0.0854 -0.0692,0 -0.1305,0.0198 -0.1856,0.06 -0.055,0.0409 -0.0952,0.0995 -0.1213,0.1778l-0.0381 0c0.0169,-0.1277 0.0614,-0.2258 0.1326,-0.2935 0.0713,-0.0684 0.1602,-0.1023 0.2667,-0.1023 0.1143,0 0.2089,0.036 0.2851,0.1094 0.0762,0.0726 0.1143,0.1594 0.1143,0.2582 0,0.0713 -0.017,0.1418 -0.0494,0.2131 -0.0515,0.1114 -0.1341,0.23 -0.2484,0.3542 -0.1714,0.1876 -0.2787,0.3005 -0.3217,0.3393l0.3662 0c0.0741,0 0.1263,-0.0028 0.1566,-0.0084 0.0296,-0.0057 0.0571,-0.017 0.0811,-0.0339 0.024,-0.0162 0.0452,-0.0402 0.0628,-0.0713l0.0381 0z"/>
  <path class="fil1" d="M20.7203 8.6825l-0.3309 1.1106 0.3683 0c0.1651,0 0.2893,-0.0261 0.3711,-0.0769 0.0819,-0.0508 0.1666,-0.1595 0.2533,-0.3267l0.0784 0 -0.2914 1.0209 -0.0826 0c0.0205,-0.0825 0.0311,-0.1503 0.0311,-0.2046 0,-0.084 -0.0283,-0.1489 -0.084,-0.1947 -0.0557,-0.0466 -0.1602,-0.0699 -0.3133,-0.0699l-0.3718 0 -0.2441 0.846c-0.0438,0.1503 -0.0663,0.2497 -0.0663,0.2991 0,0.0515 0.019,0.0903 0.0571,0.1179 0.0381,0.0282 0.1305,0.0465 0.278,0.0564l-0.0247 0.0762 -1.1077 0 0.0268 -0.0762c0.1072,-0.0028 0.1792,-0.0127 0.2145,-0.0289 0.055,-0.024 0.0959,-0.0558 0.122,-0.0953 0.0374,-0.0564 0.0812,-0.1728 0.1327,-0.3492l0.4939 -1.6891c0.0395,-0.1362 0.0599,-0.2434 0.0599,-0.3203 0,-0.036 -0.0091,-0.0664 -0.0268,-0.0918 -0.0183,-0.0254 -0.0444,-0.0444 -0.0797,-0.0571 -0.0353,-0.012 -0.1051,-0.0183 -0.2095,-0.0183l0.0247 -0.077 2.1745 0 -0.2068 0.7091 -0.079 0c0.0155,-0.0853 0.0233,-0.1552 0.0233,-0.2109 0,-0.091 -0.0254,-0.163 -0.0755,-0.2159 -0.0508,-0.0529 -0.115,-0.0903 -0.1933,-0.1122 -0.0551,-0.0141 -0.1785,-0.0212 -0.3704,-0.0212l-0.5518 0z"/>
  <path class="fil1" d="M22.8997 11.9132l-0.098 0.2696 -0.8269 0 0 -0.0381c0.2434,-0.2223 0.4148,-0.4029 0.5136,-0.544 0.0995,-0.1404 0.1489,-0.2688 0.1489,-0.3853 0,-0.0889 -0.0268,-0.1622 -0.0812,-0.2194 -0.0543,-0.0571 -0.1199,-0.0854 -0.1954,-0.0854 -0.0692,0 -0.1305,0.0198 -0.1856,0.06 -0.055,0.0409 -0.0952,0.0995 -0.1213,0.1778l-0.0381 0c0.0169,-0.1277 0.0614,-0.2258 0.1326,-0.2935 0.0713,-0.0684 0.1602,-0.1023 0.2667,-0.1023 0.1143,0 0.2089,0.036 0.2851,0.1094 0.0762,0.0726 0.1143,0.1594 0.1143,0.2582 0,0.0713 -0.017,0.1418 -0.0494,0.2131 -0.0515,0.1114 -0.1341,0.23 -0.2484,0.3542 -0.1714,0.1876 -0.2787,0.3005 -0.3217,0.3393l0.3662 0c0.0741,0 0.1263,-0.0028 0.1566,-0.0084 0.0296,-0.0057 0.0571,-0.017 0.0811,-0.0339 0.024,-0.0162 0.0452,-0.0402 0.0628,-0.0713l0.0381 0z"/>
  <line class="fil0 str1" x1="18.9714" y1="19.5566" x2="18.9714" y2= "30.0793" />
  <line class="fil0 str1" x1="54.7693" y1="18.0976" x2="54.822" y2= "29.6381" />
  <line class="fil0 str1" x1="36.3988" y1="14.7325" x2="36.3988" y2= "29.6381" />
  <path class="fil1" d="M51.6382 23.0163l-0.5807 2.0073c0.2505,-0.3775 0.4459,-0.6287 0.587,-0.7529 0.1404,-0.1234 0.2745,-0.1855 0.4029,-0.1855 0.0663,0 0.1213,0.0226 0.1651,0.0677 0.0444,0.0459 0.0663,0.1066 0.0663,0.1821 0,0.091 -0.019,0.201 -0.0578,0.3309l-0.2519 0.8657c-0.0318,0.1051 -0.048,0.1629 -0.048,0.1735 0,0.0198 0.0056,0.0353 0.0176,0.048 0.012,0.012 0.0254,0.0184 0.0403,0.0184 0.0183,0 0.0388,-0.0085 0.062,-0.0269 0.0784,-0.0606 0.1567,-0.1446 0.2336,-0.2518l0.0642 0.0388c-0.0466,0.0733 -0.1122,0.1538 -0.1955,0.2413 -0.0832,0.0875 -0.1552,0.1481 -0.2151,0.182 -0.06,0.0332 -0.1129,0.0501 -0.1602,0.0501 -0.0508,0 -0.0924,-0.0162 -0.1249,-0.0487 -0.0324,-0.0317 -0.0487,-0.0741 -0.0487,-0.1249 0,-0.0607 0.024,-0.1735 0.0727,-0.3386l0.2378 -0.8269c0.0303,-0.1038 0.0451,-0.1849 0.0451,-0.2442 0,-0.0275 -0.0084,-0.0494 -0.0254,-0.0663 -0.0176,-0.0162 -0.0402,-0.0247 -0.0677,-0.0247 -0.0395,0 -0.0854,0.0155 -0.1362,0.0459 -0.0938,0.0578 -0.2018,0.1651 -0.3245,0.3224 -0.0332,0.0423 -0.1433,0.2145 -0.3309,0.5165 -0.0579,0.0966 -0.1052,0.2018 -0.1426,0.3161l-0.1319 0.424 -0.3104 0 0.6801 -2.365 0.0727 -0.2561c0,-0.036 -0.0148,-0.0678 -0.0445,-0.0953 -0.0296,-0.0275 -0.0663,-0.0409 -0.1086,-0.0409 -0.0247,0 -0.0628,0.0042 -0.1136,0.012l-0.0438 0.0064 0 -0.0805 0.7155 -0.1199z"/>
  <path class="fil1" d="M53.4825 26.532l-0.098 0.2696 -0.8269 0 0 -0.0381c0.2434,-0.2223 0.4148,-0.4029 0.5136,-0.544 0.0995,-0.1404 0.1489,-0.2688 0.1489,-0.3853 0,-0.0889 -0.0268,-0.1622 -0.0812,-0.2194 -0.0543,-0.0571 -0.1199,-0.0854 -0.1954,-0.0854 -0.0692,0 -0.1305,0.0198 -0.1856,0.06 -0.055,0.0409 -0.0952,0.0995 -0.1213,0.1778l-0.0381 0c0.0169,-0.1277 0.0614,-0.2258 0.1326,-0.2935 0.0713,-0.0684 0.1602,-0.1023 0.2667,-0.1023 0.1143,0 0.2089,0.036 0.2851,0.1094 0.0762,0.0726 0.1143,0.1594 0.1143,0.2582 0,0.0713 -0.017,0.1418 -0.0494,0.2131 -0.0515,0.1114 -0.1341,0.23 -0.2484,0.3542 -0.1714,0.1876 -0.2787,0.3005 -0.3217,0.3393l0.3662 0c0.0741,0 0.1263,-0.0028 0.1566,-0.0084 0.0296,-0.0057 0.0571,-0.017 0.0811,-0.0339 0.024,-0.0162 0.0452,-0.0402 0.0628,-0.0713l0.0381 0z"/>
  <path class="fil1" d="M38.9657 22.1427l-0.5807 2.0073c0.2505,-0.3775 0.4459,-0.6287 0.587,-0.7529 0.1404,-0.1234 0.2745,-0.1855 0.4029,-0.1855 0.0663,0 0.1213,0.0226 0.1651,0.0677 0.0444,0.0459 0.0663,0.1066 0.0663,0.1821 0,0.091 -0.019,0.201 -0.0578,0.3309l-0.2519 0.8657c-0.0318,0.1051 -0.048,0.1629 -0.048,0.1735 0,0.0198 0.0056,0.0353 0.0176,0.048 0.012,0.012 0.0254,0.0184 0.0403,0.0184 0.0183,0 0.0388,-0.0085 0.062,-0.0269 0.0784,-0.0606 0.1567,-0.1446 0.2336,-0.2518l0.0642 0.0388c-0.0466,0.0733 -0.1122,0.1538 -0.1955,0.2413 -0.0832,0.0875 -0.1552,0.1481 -0.2151,0.182 -0.06,0.0332 -0.1129,0.0501 -0.1602,0.0501 -0.0508,0 -0.0924,-0.0162 -0.1249,-0.0487 -0.0324,-0.0317 -0.0487,-0.0741 -0.0487,-0.1249 0,-0.0607 0.024,-0.1735 0.0727,-0.3386l0.2378 -0.8269c0.0303,-0.1038 0.0451,-0.1849 0.0451,-0.2442 0,-0.0275 -0.0084,-0.0494 -0.0254,-0.0663 -0.0176,-0.0162 -0.0402,-0.0247 -0.0677,-0.0247 -0.0395,0 -0.0854,0.0155 -0.1362,0.0459 -0.0938,0.0578 -0.2018,0.1651 -0.3245,0.3224 -0.0332,0.0423 -0.1433,0.2145 -0.3309,0.5165 -0.0579,0.0966 -0.1052,0.2018 -0.1426,0.3161l-0.1319 0.424 -0.3104 0 0.6801 -2.365 0.0727 -0.2561c0,-0.036 -0.0148,-0.0678 -0.0445,-0.0953 -0.0296,-0.0275 -0.0663,-0.0409 -0.1086,-0.0409 -0.0247,0 -0.0628,0.0042 -0.1136,0.012l-0.0438 0.0064 0 -0.0805 0.7155 -0.1199z"/>
  <path class="fil1" d="M40.0883 24.6636l0.3407 -0.1658 0.0339 0 0 1.1832c0,0.0783 0.0035,0.1277 0.0099,0.1468 0.007,0.019 0.0204,0.0338 0.0409,0.0444 0.0205,0.0106 0.0628,0.0162 0.1263,0.0177l0 0.0381 -0.5271 0 0 -0.0381c0.0657,-0.0015 0.1087,-0.0071 0.1278,-0.017 0.0197,-0.0106 0.0331,-0.024 0.0402,-0.0409 0.0077,-0.0162 0.012,-0.067 0.012,-0.151l0 -0.7563c0,-0.1023 -0.0036,-0.168 -0.0106,-0.1969 -0.005,-0.0219 -0.0134,-0.0381 -0.0261,-0.0487 -0.0127,-0.0098 -0.0282,-0.0155 -0.0466,-0.0155 -0.0254,0 -0.0607,0.0113 -0.1058,0.0325l-0.0155 -0.0325z"/>
  <path class="fil1" d="M21.4687 23.0815l-0.5807 2.0073c0.2505,-0.3775 0.4459,-0.6287 0.587,-0.7529 0.1404,-0.1234 0.2745,-0.1855 0.4029,-0.1855 0.0663,0 0.1213,0.0226 0.1651,0.0677 0.0444,0.0459 0.0663,0.1066 0.0663,0.1821 0,0.091 -0.019,0.201 -0.0578,0.3309l-0.2519 0.8657c-0.0318,0.1051 -0.048,0.1629 -0.048,0.1735 0,0.0198 0.0056,0.0353 0.0176,0.048 0.012,0.012 0.0254,0.0184 0.0403,0.0184 0.0183,0 0.0388,-0.0085 0.062,-0.0269 0.0784,-0.0606 0.1567,-0.1446 0.2336,-0.2518l0.0642 0.0388c-0.0466,0.0733 -0.1122,0.1538 -0.1955,0.2413 -0.0832,0.0875 -0.1552,0.1481 -0.2151,0.182 -0.06,0.0332 -0.1129,0.0501 -0.1602,0.0501 -0.0508,0 -0.0924,-0.0162 -0.1249,-0.0487 -0.0324,-0.0317 -0.0487,-0.0741 -0.0487,-0.1249 0,-0.0607 0.024,-0.1735 0.0727,-0.3386l0.2378 -0.8269c0.0303,-0.1038 0.0451,-0.1849 0.0451,-0.2442 0,-0.0275 -0.0084,-0.0494 -0.0254,-0.0663 -0.0176,-0.0162 -0.0402,-0.0247 -0.0677,-0.0247 -0.0395,0 -0.0854,0.0155 -0.1362,0.0459 -0.0938,0.0578 -0.2018,0.1651 -0.3245,0.3224 -0.0332,0.0423 -0.1433,0.2145 -0.3309,0.5165 -0.0579,0.0966 -0.1052,0.2018 -0.1426,0.3161l-0.1319 0.424 -0.3104 0 0.6801 -2.365 0.0727 -0.2561c0,-0.036 -0.0148,-0.0678 -0.0445,-0.0953 -0.0296,-0.0275 -0.0663,-0.0409 -0.1086,-0.0409 -0.0247,0 -0.0628,0.0042 -0.1136,0.012l-0.0438 0.0064 0 -0.0805 0.7155 -0.1199z"/>
  <path class="fil1" d="M23.313 26.5972l-0.098 0.2696 -0.8269 0 0 -0.0381c0.2434,-0.2223 0.4148,-0.4029 0.5136,-0.544 0.0995,-0.1404 0.1489,-0.2688 0.1489,-0.3853 0,-0.0889 -0.0268,-0.1622 -0.0812,-0.2194 -0.0543,-0.0571 -0.1199,-0.0854 -0.1954,-0.0854 -0.0692,0 -0.1305,0.0198 -0.1856,0.06 -0.055,0.0409 -0.0952,0.0995 -0.1213,0.1778l-0.0381 0c0.0169,-0.1277 0.0614,-0.2258 0.1326,-0.2935 0.0713,-0.0684 0.1602,-0.1023 0.2667,-0.1023 0.1143,0 0.2089,0.036 0.2851,0.1094 0.0762,0.0726 0.1143,0.1594 0.1143,0.2582 0,0.0713 -0.017,0.1418 -0.0494,0.2131 -0.0515,0.1114 -0.1341,0.23 -0.2484,0.3542 -0.1714,0.1876 -0.2787,0.3005 -0.3217,0.3393l0.3662 0c0.0741,0 0.1263,-0.0028 0.1566,-0.0084 0.0296,-0.0057 0.0571,-0.017 0.0811,-0.0339 0.024,-0.0162 0.0452,-0.0402 0.0628,-0.0713l0.0381 0z"/>
  <path class="fil1" d="M29.0091 37.1939l-0.4028 1.4012 -0.0452 0.1884c-0.0042,0.0176 -0.0064,0.0324 -0.0064,0.0451 0,0.0219 0.0071,0.0417 0.0205,0.0579 0.0113,0.0127 0.0247,0.0183 0.0416,0.0183 0.0177,0 0.041,-0.0105 0.0699,-0.0324 0.0543,-0.0402 0.1256,-0.1228 0.2152,-0.2484l0.0705 0.0494c-0.0952,0.1433 -0.1933,0.2526 -0.2935,0.3281 -0.1009,0.0748 -0.194,0.1122 -0.2794,0.1122 -0.0592,0 -0.1037,-0.0148 -0.1333,-0.0445 -0.0297,-0.0296 -0.0445,-0.0726 -0.0445,-0.1291 0,-0.067 0.0156,-0.1559 0.0459,-0.2667l0.043 -0.1545c-0.1806,0.2357 -0.3464,0.4001 -0.4981,0.4939 -0.1086,0.067 -0.2159,0.1009 -0.3203,0.1009 -0.1009,0 -0.1877,-0.0416 -0.2604,-0.1249 -0.0733,-0.0832 -0.1093,-0.1983 -0.1093,-0.3443 0,-0.2187 0.0656,-0.4501 0.1968,-0.6936 0.132,-0.2427 0.2992,-0.4374 0.5017,-0.5834 0.158,-0.1158 0.3076,-0.1736 0.4487,-0.1736 0.084,0 0.1538,0.0219 0.2096,0.0656 0.0557,0.0445 0.098,0.1171 0.127,0.2194l0.0747 -0.2356 0.3281 -0.0494zm-0.7359 0.1072c-0.0882,0 -0.1813,0.0417 -0.2808,0.1242 -0.1404,0.1171 -0.2653,0.2907 -0.3753,0.5207 -0.1094,0.23 -0.1644,0.4381 -0.1644,0.6244 0,0.0939 0.024,0.1679 0.0705,0.2223 0.0466,0.0543 0.1009,0.0811 0.1616,0.0811 0.1496,0 0.3133,-0.1108 0.4897,-0.3323 0.2356,-0.2949 0.3534,-0.5976 0.3534,-0.9073 0,-0.1172 -0.0225,-0.2018 -0.0684,-0.2548 -0.0452,-0.0522 -0.1072,-0.0783 -0.1863,-0.0783z"/>
  <g>
   <path class="fil1" d="M54.6458 35.8764l0 -0.2984 1.4032 -0.9096 0.1934 0.2984 -1.4032 0.9096 0.0001 -0.2984 -0.1935 0.2984zm0 0l-0.23 -0.1493 0.23 -0.1491 0 0.2984zm1.4999 0.7611l-0.0967 0.1492 -1.4032 -0.9103 0.1935 -0.2984 1.4032 0.9104 -0.0968 0.1491zm14.3939 -0.8221l-15.5212 0 0 -0.1764 15.5212 0 0 0.1764zm0.3726 0.061l-0.1935 -0.2984 0.0001 0.2984 -1.4032 -0.9096 0.1934 -0.2984 1.4032 0.9096 0 0.2984zm0 0l0 -0.2984 0.23 0.1491 -0.23 0.1493zm-1.4999 0.7611l-0.0968 -0.1491 1.4032 -0.9104 0.1935 0.2984 -1.4032 0.9103 -0.0967 -0.1492z"/>
  </g>
  <line class="fil0 str1" x1="1.3193" y1="33.6905" x2="1.3193" y2= "38.1833" />
  <line class="fil0 str1" x1="71.0264" y1="33.8834" x2="71.0264" y2= "38.3763" />
  <g>
   <path class="fil1" d="M1.4336 35.8764l0 -0.2984 1.4032 -0.9096 0.1934 0.2984 -1.4032 0.9096 0.0001 -0.2984 -0.1935 0.2984zm0 0l-0.23 -0.1493 0.23 -0.1491 0 0.2984zm1.4999 0.7611l-0.0967 0.1492 -1.4032 -0.9103 0.1935 -0.2984 1.4032 0.9104 -0.0968 0.1491zm15.5508 -0.8221l-16.6781 0 0 -0.1764 16.6781 0 0 0.1764zm0.3726 0.061l-0.1935 -0.2984 0.0001 0.2984 -1.4032 -0.9096 0.1934 -0.2984 1.4032 0.9096 0 0.2984zm0 0l0 -0.2984 0.23 0.1491 -0.23 0.1493zm-1.4999 0.7611l-0.0968 -0.1491 1.4032 -0.9104 0.1935 0.2984 -1.4032 0.9103 -0.0967 -0.1492z"/>
  </g>
  <line class="fil0 str1" x1="1.3191" y1="33.6905" x2="1.3191" y2= "38.1833" />
  <line class="fil0 str1" x1="18.9713" y1="33.8834" x2="18.9713" y2= "38.3763" />
  <g>
   <path class="fil1" d="M19.2136 35.8764l0 -0.2984 1.4032 -0.9096 0.1934 0.2984 -1.4032 0.9096 0.0001 -0.2984 -0.1935 0.2984zm0 0l-0.23 -0.1493 0.23 -0.1491 0 0.2984zm1.4999 0.7611l-0.0967 0.1492 -1.4032 -0.9103 0.1935 -0.2984 1.4032 0.9104 -0.0968 0.1491zm15.5508 -0.8221l-16.6781 0 0 -0.1764 16.6781 0 0 0.1764zm0.3726 0.061l-0.1935 -0.2984 0.0001 0.2984 -1.4032 -0.9096 0.1934 -0.2984 1.4032 0.9096 0 0.2984zm0 0l0 -0.2984 0.23 0.1491 -0.23 0.1493zm-1.4999 0.7611l-0.0968 -0.1491 1.4032 -0.9104 0.1935 0.2984 -1.4032 0.9103 -0.0967 -0.1492z"/>
  </g>
  <line class="fil0 str1" x1="36.7513" y1="33.8834" x2="36.7513" y2= "38.3763" />
  <g>
   <path class="fil1" d="M36.9936 35.8764l0 -0.2984 1.4032 -0.9096 0.1934 0.2984 -1.4032 0.9096 0.0001 -0.2984 -0.1935 0.2984zm0 0l-0.23 -0.1493 0.23 -0.1491 0 0.2984zm1.4999 0.7611l-0.0967 0.1492 -1.4032 -0.9103 0.1935 -0.2984 1.4032 0.9104 -0.0968 0.1491zm15.5508 -0.8221l-16.6781 0 0 -0.1764 16.6781 0 0 0.1764zm0.3726 0.061l-0.1935 -0.2984 0.0001 0.2984 -1.4032 -0.9096 0.1934 -0.2984 1.4032 0.9096 0 0.2984zm0 0l0 -0.2984 0.23 0.1491 -0.23 0.1493zm-1.4999 0.7611l-0.0968 -0.1491 1.4032 -0.9104 0.1935 0.2984 -1.4032 0.9103 -0.0967 -0.1492z"/>
  </g>
  <line class="fil0 str1" x1="54.5313" y1="33.8834" x2="54.5313" y2= "38.3763" />
  <path class="fil1" d="M46.7891 37.1939l-0.4028 1.4012 -0.0452 0.1884c-0.0042,0.0176 -0.0064,0.0324 -0.0064,0.0451 0,0.0219 0.0071,0.0417 0.0205,0.0579 0.0113,0.0127 0.0247,0.0183 0.0416,0.0183 0.0177,0 0.041,-0.0105 0.0699,-0.0324 0.0543,-0.0402 0.1256,-0.1228 0.2152,-0.2484l0.0705 0.0494c-0.0952,0.1433 -0.1933,0.2526 -0.2935,0.3281 -0.1009,0.0748 -0.194,0.1122 -0.2794,0.1122 -0.0592,0 -0.1037,-0.0148 -0.1333,-0.0445 -0.0297,-0.0296 -0.0445,-0.0726 -0.0445,-0.1291 0,-0.067 0.0156,-0.1559 0.0459,-0.2667l0.043 -0.1545c-0.1806,0.2357 -0.3464,0.4001 -0.4981,0.4939 -0.1086,0.067 -0.2159,0.1009 -0.3203,0.1009 -0.1009,0 -0.1877,-0.0416 -0.2604,-0.1249 -0.0733,-0.0832 -0.1093,-0.1983 -0.1093,-0.3443 0,-0.2187 0.0656,-0.4501 0.1968,-0.6936 0.132,-0.2427 0.2992,-0.4374 0.5017,-0.5834 0.158,-0.1158 0.3076,-0.1736 0.4487,-0.1736 0.084,0 0.1538,0.0219 0.2096,0.0656 0.0557,0.0445 0.098,0.1171 0.127,0.2194l0.0747 -0.2356 0.3281 -0.0494zm-0.7359 0.1072c-0.0882,0 -0.1813,0.0417 -0.2808,0.1242 -0.1404,0.1171 -0.2653,0.2907 -0.3753,0.5207 -0.1094,0.23 -0.1644,0.4381 -0.1644,0.6244 0,0.0939 0.024,0.1679 0.0705,0.2223 0.0466,0.0543 0.1009,0.0811 0.1616,0.0811 0.1496,0 0.3133,-0.1108 0.4897,-0.3323 0.2356,-0.2949 0.3534,-0.5976 0.3534,-0.9073 0,-0.1172 -0.0225,-0.2018 -0.0684,-0.2548 -0.0452,-0.0522 -0.1072,-0.0783 -0.1863,-0.0783z"/>
  <path class="fil1" d="M64.5691 37.1939l-0.4028 1.4012 -0.0452 0.1884c-0.0042,0.0176 -0.0064,0.0324 -0.0064,0.0451 0,0.0219 0.0071,0.0417 0.0205,0.0579 0.0113,0.0127 0.0247,0.0183 0.0416,0.0183 0.0177,0 0.041,-0.0105 0.0699,-0.0324 0.0543,-0.0402 0.1256,-0.1228 0.2152,-0.2484l0.0705 0.0494c-0.0952,0.1433 -0.1933,0.2526 -0.2935,0.3281 -0.1009,0.0748 -0.194,0.1122 -0.2794,0.1122 -0.0592,0 -0.1037,-0.0148 -0.1333,-0.0445 -0.0297,-0.0296 -0.0445,-0.0726 -0.0445,-0.1291 0,-0.067 0.0156,-0.1559 0.0459,-0.2667l0.043 -0.1545c-0.1806,0.2357 -0.3464,0.4001 -0.4981,0.4939 -0.1086,0.067 -0.2159,0.1009 -0.3203,0.1009 -0.1009,0 -0.1877,-0.0416 -0.2604,-0.1249 -0.0733,-0.0832 -0.1093,-0.1983 -0.1093,-0.3443 0,-0.2187 0.0656,-0.4501 0.1968,-0.6936 0.132,-0.2427 0.2992,-0.4374 0.5017,-0.5834 0.158,-0.1158 0.3076,-0.1736 0.4487,-0.1736 0.084,0 0.1538,0.0219 0.2096,0.0656 0.0557,0.0445 0.098,0.1171 0.127,0.2194l0.0747 -0.2356 0.3281 -0.0494zm-0.7359 0.1072c-0.0882,0 -0.1813,0.0417 -0.2808,0.1242 -0.1404,0.1171 -0.2653,0.2907 -0.3753,0.5207 -0.1094,0.23 -0.1644,0.4381 -0.1644,0.6244 0,0.0939 0.024,0.1679 0.0705,0.2223 0.0466,0.0543 0.1009,0.0811 0.1616,0.0811 0.1496,0 0.3133,-0.1108 0.4897,-0.3323 0.2356,-0.2949 0.3534,-0.5976 0.3534,-0.9073 0,-0.1172 -0.0225,-0.2018 -0.0684,-0.2548 -0.0452,-0.0522 -0.1072,-0.0783 -0.1863,-0.0783z"/>
  <path class="fil1" d="M11.2291 37.1939l-0.4028 1.4012 -0.0452 0.1884c-0.0042,0.0176 -0.0064,0.0324 -0.0064,0.0451 0,0.0219 0.0071,0.0417 0.0205,0.0579 0.0113,0.0127 0.0247,0.0183 0.0416,0.0183 0.0177,0 0.041,-0.0105 0.0699,-0.0324 0.0543,-0.0402 0.1256,-0.1228 0.2152,-0.2484l0.0705 0.0494c-0.0952,0.1433 -0.1933,0.2526 -0.2935,0.3281 -0.1009,0.0748 -0.194,0.1122 -0.2794,0.1122 -0.0592,0 -0.1037,-0.0148 -0.1333,-0.0445 -0.0297,-0.0296 -0.0445,-0.0726 -0.0445,-0.1291 0,-0.067 0.0156,-0.1559 0.0459,-0.2667l0.043 -0.1545c-0.1806,0.2357 -0.3464,0.4001 -0.4981,0.4939 -0.1086,0.067 -0.2159,0.1009 -0.3203,0.1009 -0.1009,0 -0.1877,-0.0416 -0.2604,-0.1249 -0.0733,-0.0832 -0.1093,-0.1983 -0.1093,-0.3443 0,-0.2187 0.0656,-0.4501 0.1968,-0.6936 0.132,-0.2427 0.2992,-0.4374 0.5017,-0.5834 0.158,-0.1158 0.3076,-0.1736 0.4487,-0.1736 0.084,0 0.1538,0.0219 0.2096,0.0656 0.0557,0.0445 0.098,0.1171 0.127,0.2194l0.0747 -0.2356 0.3281 -0.0494zm-0.7359 0.1072c-0.0882,0 -0.1813,0.0417 -0.2808,0.1242 -0.1404,0.1171 -0.2653,0.2907 -0.3753,0.5207 -0.1094,0.23 -0.1644,0.4381 -0.1644,0.6244 0,0.0939 0.024,0.1679 0.0705,0.2223 0.0466,0.0543 0.1009,0.0811 0.1616,0.0811 0.1496,0 0.3133,-0.1108 0.4897,-0.3323 0.2356,-0.2949 0.3534,-0.5976 0.3534,-0.9073 0,-0.1172 -0.0225,-0.2018 -0.0684,-0.2548 -0.0452,-0.0522 -0.1072,-0.0783 -0.1863,-0.0783z"/>
 </g>
</svg>
