<?xml version="1.0" encoding="UTF-8"?>
<!DOCTYPE svg PUBLIC "-//W3C//DTD SVG 1.1//EN" "http://www.w3.org/Graphics/SVG/1.1/DTD/svg11.dtd">
<!-- Creator: CorelDRAW -->
<svg xmlns="http://www.w3.org/2000/svg" xml:space="preserve" width="140mm" height="39mm" style="shape-rendering:geometricPrecision; text-rendering:geometricPrecision; image-rendering:optimizeQuality; fill-rule:evenodd; clip-rule:evenodd"
viewBox="0 0 140 39">
 <defs>
  <style type="text/css">
   <![CDATA[
    .str0 {stroke:#1F1A17;stroke-width:0.1764}
    .str2 {stroke:#131516;stroke-width:0.1764}
    .str1 {stroke:#1F1A17;stroke-width:0.3528}
    .fil0 {fill:none}
    .fil2 {fill:#1F1A17;fill-rule:nonzero}
    .fil1 {fill:url(#id0)}
   ]]>
  </style>
  <linearGradient id="id0" gradientUnits="userSpaceOnUse" x1="14.4849" y1="7.3651" x2="14.4849" y2="6.3962">
   <stop offset="0" style="stop-color:white"/>
   <stop offset="1" style="stop-color:white"/>
  </linearGradient>
 </defs>
 <g id="Layer_x0020_1">
  <metadata id="CorelCorpID_0Corel-Layer"/>
  <line class="fil0 str0" x1="113.163" y1="7.0842" x2="127.461" y2= "27.2605" />
  <line class="fil0 str1" x1="113.192" y1="6.9998" x2="115.576" y2= "5.3098" />
  <rect class="fil0 str0" transform="matrix(1.06836 -0.757045 0.757045 1.06836 14.2183 7.45373)" width="0.715" height="18.8861"/>
  <polygon class="fil0 str2" points="13.9678,6.8806 12.8707,7.7619 11.7735,8.6432 11.7735,6.8806 11.7735,5.1181 12.8707,5.9994 "/>
  <g id="_155526216">
   <line id="_155413712" class="fil0 str2" x1="10.5352" y1="9.2849" x2="10.5352" y2= "4.8964" />
   <g>
    <line id="_155413264" class="fil0 str2" x1="10.4748" y1="8.8621" x2="9.6092" y2= "9.2446" />
    <line id="_155528088" class="fil0 str2" x1="10.4748" y1="8.0788" x2="9.6092" y2= "8.4613" />
    <line id="_155527776" class="fil0 str2" x1="10.4748" y1="7.2955" x2="9.6092" y2= "7.678" />
    <line id="_155527464" class="fil0 str2" x1="10.4748" y1="6.5123" x2="9.6092" y2= "6.8947" />
    <line id="_155527152" class="fil0 str2" x1="10.4748" y1="5.729" x2="9.6092" y2= "6.1114" />
    <line id="_155526840" class="fil0 str2" x1="10.4748" y1="4.9457" x2="9.6092" y2= "5.3282" />
   </g>
  </g>
  <circle class="fil1 str2" transform="matrix(-1.27584E-013 -0.688188 -0.688188 1.27584E-013 14.4849 6.88064)" r="0.704"/>
  <polygon class="fil0 str2" points="28.9918,27.9221 28.1106,29.0193 27.2293,30.1164 28.9918,30.1164 30.7544,30.1164 29.8731,29.0193 "/>
  <g id="_156022936">
   <line id="_155525008" class="fil0 str2" x1="26.6115" y1="30.122" x2="31" y2= "30.122" />
   <g>
    <line id="_155524696" class="fil0 str2" x1="27.0343" y1="30.1824" x2="26.6518" y2= "31.048" />
    <line id="_155524248" class="fil0 str2" x1="27.8176" y1="30.1824" x2="27.4351" y2= "31.048" />
    <line id="_155523936" class="fil0 str2" x1="28.6009" y1="30.1824" x2="28.2184" y2= "31.048" />
    <line id="_155523624" class="fil0 str2" x1="29.3842" y1="30.1824" x2="29.0017" y2= "31.048" />
    <line id="_155523312" class="fil0 str2" x1="30.1675" y1="30.1824" x2="29.785" y2= "31.048" />
    <line id="_156023320" class="fil0 str2" x1="30.9507" y1="30.1824" x2="30.5683" y2= "31.048" />
   </g>
  </g>
  <circle class="fil1 str2" cx="28.9919" cy="27.405" r="0.484484"/>
  <circle class="fil0 str2" transform="matrix(-1.27584E-013 -0.688188 -0.688188 1.27584E-013 11.1467 6.88064)" r="0.704"/>
  <g>
   <path class="fil2" d="M21.8544 16.241l-0.2984 0 -0.9096 -1.4032 0.2984 -0.1934 0.9096 1.4032 -0.2984 -0.0001 0.2984 0.1935zm0 0l-0.1493 0.23 -0.1491 -0.23 0.2984 0zm0.7611 -1.4999l0.1492 0.0967 -0.9103 1.4032 -0.2984 -0.1935 0.9104 -1.4032 0.1491 0.0968zm-0.7339 -7.4247l0 8.552 -0.3528 0 0 -8.552 0.3528 0z"/>
  </g>
  <path class="fil2" d="M24.5817 5.3642l-0.3309 1.1106 0.3683 0c0.1651,0 0.2893,-0.0261 0.3711,-0.0769 0.0819,-0.0508 0.1666,-0.1595 0.2533,-0.3267l0.0784 0 -0.2914 1.0209 -0.0826 0c0.0205,-0.0825 0.0311,-0.1503 0.0311,-0.2046 0,-0.084 -0.0283,-0.1489 -0.084,-0.1947 -0.0557,-0.0466 -0.1602,-0.0699 -0.3133,-0.0699l-0.3718 0 -0.2441 0.846c-0.0438,0.1503 -0.0663,0.2497 -0.0663,0.2991 0,0.0515 0.019,0.0903 0.0571,0.1179 0.0381,0.0282 0.1305,0.0465 0.278,0.0564l-0.0247 0.0762 -1.1077 0 0.0268 -0.0762c0.1072,-0.0028 0.1792,-0.0127 0.2145,-0.0289 0.055,-0.024 0.0959,-0.0558 0.122,-0.0953 0.0374,-0.0564 0.0812,-0.1728 0.1327,-0.3492l0.4939 -1.6891c0.0395,-0.1362 0.0599,-0.2434 0.0599,-0.3203 0,-0.036 -0.0091,-0.0664 -0.0268,-0.0918 -0.0183,-0.0254 -0.0444,-0.0444 -0.0797,-0.0571 -0.0353,-0.012 -0.1051,-0.0183 -0.2095,-0.0183l0.0247 -0.077 2.1745 0 -0.2068 0.7091 -0.079 0c0.0155,-0.0853 0.0233,-0.1552 0.0233,-0.2109 0,-0.091 -0.0254,-0.163 -0.0755,-0.2159 -0.0508,-0.0529 -0.115,-0.0903 -0.1933,-0.1122 -0.0551,-0.0141 -0.1785,-0.0212 -0.3704,-0.0212l-0.5518 0z"/>
  <g>
   <path class="fil2" d="M16.1181 19.3268l-4.5222 -6.9448 0.1474 -0.0958 4.5222 6.9448 -0.1474 0.0958zm0.152 0.3458l0.1444 -0.325 -0.25 0.1629 -0.0034 -1.6723 0.3556 -0.0007 0.0034 1.6722 -0.25 0.1629zm0 0l0.25 -0.1629 0.0006 0.2742 -0.2506 -0.1113zm-1.4563 -0.8416l0.0722 -0.1625 1.5285 0.6791 -0.1444 0.325 -1.5285 -0.6792 0.0722 -0.1624z"/>
  </g>
  <polygon class="fil2" points="9.5009,15.2978 10.3781,14.7547 9.8372,13.8811 9.9813,13.792 10.5222,14.6656 11.3959,14.1247 11.485,14.2688 10.6113,14.8097 11.1543,15.6869 11.0102,15.776 10.4672,14.8988 9.59,15.4419 "/>
  <polygon class="fil2" points="129.065,19.8673 128.787,19.9396 128.224,19.0293 128.502,18.9571 "/>
  <line class="fil0 str1" x1="115.638" y1="5.409" x2="122.787" y2= "15.4972" />
  <line class="fil0 str1" x1="129.808" y1="10.5368" x2="136.872" y2= "20.5049" />
  <line class="fil0 str1" x1="120.423" y1="17.1724" x2="129.787" y2= "10.5368" />
  <line class="fil0 str1" x1="127.596" y1="27.1156" x2="136.872" y2= "20.5427" />
  <circle class="fil0 str0" cx="128.576" cy="19.4535" r="1.1115"/>
  <polygon class="fil2" points="118.397,11.6885 118.119,11.7608 117.556,10.8505 117.834,10.7783 "/>
  <circle class="fil0 str0" cx="117.908" cy="11.2747" r="1.1115"/>
  <circle class="fil0 str0" cx="127.802" cy="34.3917" r="2.3099"/>
  <path class="fil2" d="M127.508 33.1304l0.8658 2.1978 0.4691 -1.6418c0.0389,-0.1347 0.0579,-0.2392 0.0579,-0.3139 0,-0.0508 -0.0176,-0.0911 -0.0536,-0.12 -0.036,-0.0289 -0.1023,-0.043 -0.2004,-0.043 -0.0162,0 -0.0339,-0.0007 -0.0515,-0.0021l0.0226 -0.077 0.901 0 -0.0247 0.077c-0.0939,-0.0015 -0.163,0.0077 -0.2089,0.0289 -0.0649,0.0289 -0.1129,0.0663 -0.1446,0.1115 -0.0438,0.0649 -0.0889,0.1778 -0.1341,0.3386l-0.6597 2.3114 -0.074 0 -0.9328 -2.365 -0.4981 1.7469c-0.0367,0.132 -0.0557,0.2336 -0.0557,0.3034 0,0.0529 0.0169,0.0925 0.0508,0.1193 0.0338,0.0268 0.1143,0.0451 0.2406,0.055l-0.0205 0.0762 -0.8805 0 0.0289 -0.0762c0.1101,-0.0028 0.1841,-0.0127 0.2215,-0.0289 0.0565,-0.0254 0.0981,-0.0572 0.1256,-0.0974 0.0402,-0.0607 0.0847,-0.1778 0.1348,-0.3514l0.556 -1.9494c-0.0537,-0.0825 -0.1115,-0.1397 -0.1729,-0.1707 -0.0614,-0.0304 -0.1566,-0.048 -0.2864,-0.0522l0.0232 -0.077 0.7006 0z"/>
  <path class="fil2" d="M13.1472 1.2625l0.029 -0.077 1.0004 0c0.1679,0 0.3175,0.0262 0.4495,0.0791 0.1312,0.0522 0.23,0.1249 0.2956,0.2187 0.0656,0.0938 0.0981,0.1933 0.0981,0.2977 0,0.1616 -0.0586,0.3069 -0.175,0.4375 -0.1164,0.1298 -0.3062,0.2265 -0.5694,0.2878 0.17,0.0635 0.2942,0.1475 0.3746,0.2526 0.0798,0.1044 0.12,0.2195 0.12,0.345 0,0.139 -0.036,0.2724 -0.108,0.3994 -0.0712,0.1263 -0.1636,0.2251 -0.2758,0.2949 -0.1122,0.0706 -0.2477,0.1221 -0.4064,0.1552 -0.1129,0.0233 -0.2893,0.0353 -0.5292,0.0353l-1.0273 0 0.0268 -0.0762c0.108,-0.0028 0.1807,-0.0134 0.2195,-0.031 0.055,-0.024 0.0945,-0.0551 0.1178,-0.0932 0.0332,-0.0522 0.0769,-0.1721 0.1319,-0.3598l0.5024 -1.6969c0.043,-0.1432 0.0642,-0.2441 0.0642,-0.3019 0,-0.0508 -0.0191,-0.091 -0.0565,-0.1207 -0.0381,-0.0296 -0.11,-0.0444 -0.2166,-0.0444 -0.0232,0 -0.0451,-0.0007 -0.0656,-0.0021zm0.4191 1.1634c0.0896,0.0028 0.1545,0.0042 0.1948,0.0042 0.2864,0 0.4995,-0.062 0.6399,-0.1869 0.1397,-0.1249 0.2095,-0.2808 0.2095,-0.4685 0,-0.1418 -0.043,-0.2526 -0.1284,-0.3316 -0.0853,-0.079 -0.2215,-0.1186 -0.4092,-0.1186 -0.0494,0 -0.1129,0.0078 -0.1898,0.0247l-0.3168 1.0767zm-0.4071 1.3808c0.1489,0.0197 0.2653,0.0289 0.3493,0.0289 0.2152,0 0.4057,-0.0649 0.5715,-0.194 0.1665,-0.1299 0.249,-0.3055 0.249,-0.5271 0,-0.1693 -0.0508,-0.302 -0.1538,-0.3972 -0.1023,-0.0953 -0.2681,-0.1425 -0.4967,-0.1425 -0.0444,0 -0.0981,0.0021 -0.1616,0.0063l-0.3577 1.2256z"/>
  <path class="fil2" d="M33.5727 26.5395l-0.2131 2.3311c-0.0113,0.1093 -0.0162,0.1806 -0.0162,0.2152 0,0.055 0.0098,0.0973 0.031,0.1263 0.0261,0.0395 0.0614,0.0691 0.1058,0.0889 0.0452,0.019 0.1207,0.0289 0.2265,0.0289l-0.0226 0.0762 -1.1034 0 0.0225 -0.0762 0.0473 0c0.0896,0 0.163,-0.0198 0.2194,-0.0579 0.0395,-0.0268 0.0706,-0.0698 0.0932,-0.1305 0.0148,-0.043 0.0296,-0.1432 0.043,-0.302l0.0332 -0.3556 -0.8023 0 -0.285 0.3867c-0.0649,0.0868 -0.1051,0.1496 -0.1221,0.187 -0.0162,0.0381 -0.0246,0.0733 -0.0246,0.1065 0,0.0444 0.0176,0.0818 0.0536,0.1136 0.036,0.0317 0.0952,0.0494 0.1778,0.0522l-0.0226 0.0762 -0.829 0 0.0226 -0.0762c0.1023,-0.0042 0.1919,-0.0388 0.2702,-0.1023 0.0776,-0.0642 0.1933,-0.2011 0.3478,-0.4106l1.6743 -2.2775 0.0727 0zm-0.4093 0.6879l-0.8128 1.1056 0.7049 0 0.1079 -1.1056z"/>
  <line class="fil0 str0" x1="20.058" y1="17.2158" x2="23.3503" y2= "15.0719" />
  <path class="fil2" d="M25.1343 15.7646l0.6943 1.0731c0.1242,0.1898 0.2272,0.3119 0.3083,0.3648 0.0812,0.0529 0.1884,0.0797 0.3203,0.0797l-0.0225 0.0762 -1.1952 0 0.019 -0.0762c0.0953,-0.0099 0.1623,-0.0325 0.2011,-0.0684 0.0395,-0.036 0.0593,-0.0762 0.0593,-0.1221 0,-0.0416 -0.0071,-0.0811 -0.0205,-0.1199 -0.0113,-0.0276 -0.0515,-0.0953 -0.1199,-0.2025l-0.5687 -0.8911 -0.2752 0.9285c-0.0451,0.1488 -0.0677,0.2483 -0.0677,0.2998 0,0.0522 0.019,0.0917 0.0578,0.1193 0.0381,0.0282 0.1334,0.0465 0.2851,0.0564l-0.0332 0.0762 -1.1077 0 0.0268 -0.0762c0.1073,-0.0028 0.1799,-0.0127 0.2173,-0.0289 0.0551,-0.0254 0.0953,-0.0572 0.1214,-0.0953 0.036,-0.0564 0.0804,-0.1735 0.1326,-0.3513l0.4939 -1.6934c0.0374,-0.1291 0.0557,-0.2335 0.0557,-0.3118 0,-0.055 -0.0176,-0.0974 -0.0522,-0.1263 -0.0352,-0.0289 -0.1037,-0.043 -0.206,-0.043l-0.0416 0 0.0254 -0.077 1.052 0 -0.0212 0.077c-0.0868,-0.0015 -0.151,0.0077 -0.194,0.0289 -0.0593,0.0289 -0.1023,0.0663 -0.1298,0.1115 -0.0283,0.0451 -0.0685,0.1594 -0.1221,0.3407l-0.2173 0.7197 0.9962 -0.7507c0.1327,-0.0988 0.2194,-0.1778 0.2604,-0.2357 0.0247,-0.0352 0.0374,-0.0677 0.0374,-0.0966 0,-0.0247 -0.0127,-0.0494 -0.0381,-0.0727 -0.0254,-0.0233 -0.0642,-0.0381 -0.1172,-0.0451l0.0212 -0.077 0.8968 0 -0.0184 0.077c-0.0981,0.0162 -0.1806,0.0381 -0.2469,0.0649 -0.0671,0.0268 -0.1355,0.0635 -0.206,0.1107 -0.0205,0.0134 -0.1553,0.1157 -0.4029,0.3055l-0.858 0.6513z"/>
  <line class="fil0 str0" x1="46.9324" y1="7.0718" x2="61.4206" y2= "27.2605" />
  <line class="fil0 str1" x1="42.2126" y1="10.2016" x2="46.9324" y2= "7.0718" />
  <polygon class="fil2" points="60.4854,20.9788 60.2072,21.0511 59.6442,20.1408 59.9224,20.0686 "/>
  <line class="fil0 str1" x1="42.1783" y1="10.135" x2="49.3725" y2= "20.7231" />
  <line class="fil0 str1" x1="58.7089" y1="14.0529" x2="65.7725" y2= "24.021" />
  <line class="fil0 str1" x1="49.3725" y1="20.7231" x2="58.709" y2= "14.107" />
  <circle class="fil0 str0" cx="48.2186" cy="13.6283" r="1.40275"/>
  <circle class="fil0 str0" cx="61.7619" cy="34.3917" r="2.3099"/>
  <path class="fil2" d="M60.8976 35.9978l0.2314 -2.334c0.0113,-0.1185 0.0169,-0.1982 0.0169,-0.2398 0,-0.0621 -0.0233,-0.1136 -0.0691,-0.1546 -0.0466,-0.0416 -0.1193,-0.062 -0.2188,-0.062l-0.074 0 0.0204 -0.077 1.1063 0 -0.0233 0.077c-0.1192,0.0014 -0.2017,0.0134 -0.2469,0.0366 -0.0444,0.024 -0.0797,0.0635 -0.1065,0.12 -0.0134,0.0303 -0.0283,0.1164 -0.0431,0.2589l-0.1651 1.6722 1.0929 -1.493c0.1186,-0.1608 0.1933,-0.273 0.2237,-0.3365 0.0204,-0.0431 0.031,-0.0797 0.031,-0.1115 0,-0.0374 -0.0162,-0.0698 -0.048,-0.0974 -0.0317,-0.0275 -0.091,-0.0437 -0.1778,-0.0493l0.0254 -0.077 0.8432 0 -0.0205 0.077c-0.0677,0.0056 -0.1213,0.0183 -0.1616,0.0388 -0.0754,0.0359 -0.1509,0.0903 -0.2264,0.1636 -0.0748,0.0727 -0.1941,0.2202 -0.3563,0.4424l-1.5791 2.1456 -0.0747 0z"/>
  <line class="fil0 str0" x1="82.6832" y1="7.0842" x2="96.9806" y2= "27.2605" />
  <line class="fil0 str1" x1="82.6832" y1="7.0842" x2="85.7573" y2= "20.1118" />
  <line class="fil0 str1" x1="85.7574" y1="20.1118" x2="96.9806" y2= "27.2605" />
  <line class="fil0 str1" x1="85.7573" y1="20.1118" x2="89.8564" y2= "17.207" />
  <circle class="fil0 str0" cx="97.3219" cy="34.3917" r="2.3099"/>
  <path class="fil2" d="M97.1561 33.1304l0.2589 2.2578 1.6263 -2.2578 0.6844 0 0 0.077c-0.1489,0.0091 -0.2364,0.019 -0.2625,0.0289 -0.0459,0.0176 -0.0875,0.0536 -0.1249,0.1072 -0.0381,0.0536 -0.079,0.1574 -0.1235,0.3105l-0.5185 1.7772c-0.0304,0.1038 -0.0452,0.1849 -0.0452,0.2442 0,0.0536 0.0184,0.0945 0.0557,0.122 0.0523,0.0395 0.1348,0.06 0.2477,0.06l0.0501 0 -0.0191 0.0762 -1.1803 0 0.0211 -0.0762 0.0558 0c0.1044,0 0.1841,-0.0155 0.2398,-0.0459 0.0424,-0.0218 0.0805,-0.0635 0.1143,-0.1248 0.0339,-0.0614 0.0812,-0.1976 0.1419,-0.4086l0.4628 -1.6241 -1.6348 2.2796 -0.0825 0 -0.2632 -2.2796 -0.5002 1.7342c-0.0423,0.1475 -0.0635,0.2462 -0.0635,0.297 0,0.0516 0.0183,0.0904 0.0557,0.1172 0.0367,0.0268 0.127,0.0451 0.271,0.055l-0.0233 0.0762 -0.9236 0 0.0226 -0.0762 0.0557 0c0.1362,0 0.235,-0.0346 0.2957,-0.1037 0.0437,-0.0494 0.0903,-0.1574 0.1382,-0.3225l0.6103 -2.0898c-0.0458,-0.0466 -0.0889,-0.0783 -0.1305,-0.0952 -0.0416,-0.0163 -0.1178,-0.0297 -0.2293,-0.0388l0.0205 -0.077 0.6964 0z"/>
  <line class="fil0 str1" x1="61.3192" y1="27.1583" x2="66.039" y2= "24.0285" />
  <polygon class="fil2" points="14.1966,12.8181 13.9184,12.8904 13.3554,11.9801 13.6336,11.9079 "/>
  <polygon class="fil2" points="47.2603,14.1388 48.1375,13.5957 47.5966,12.7221 47.7407,12.633 48.2816,13.5066 49.1553,12.9657 49.2444,13.1098 48.3707,13.6507 48.9137,14.5279 48.7696,14.617 48.2266,13.7398 47.3494,14.2829 "/>
  <circle class="fil0 str0" cx="60.1714" cy="20.6067" r="1.40275"/>
  <path class="fil2" d="M134.14 24.5192l0.8658 2.1978 0.4691 -1.6418c0.0389,-0.1347 0.0579,-0.2392 0.0579,-0.3139 0,-0.0508 -0.0176,-0.0911 -0.0536,-0.12 -0.036,-0.0289 -0.1023,-0.043 -0.2004,-0.043 -0.0162,0 -0.0339,-0.0007 -0.0515,-0.0021l0.0226 -0.077 0.901 0 -0.0247 0.077c-0.0939,-0.0015 -0.163,0.0077 -0.2089,0.0289 -0.0649,0.0289 -0.1129,0.0663 -0.1446,0.1115 -0.0438,0.0649 -0.0889,0.1778 -0.1341,0.3386l-0.6597 2.3114 -0.074 0 -0.9328 -2.365 -0.4981 1.7469c-0.0367,0.132 -0.0557,0.2336 -0.0557,0.3034 0,0.0529 0.0169,0.0925 0.0508,0.1193 0.0338,0.0268 0.1143,0.0451 0.2406,0.055l-0.0205 0.0762 -0.8805 0 0.0289 -0.0762c0.1101,-0.0028 0.1841,-0.0127 0.2215,-0.0289 0.0565,-0.0254 0.0981,-0.0572 0.1256,-0.0974 0.0402,-0.0607 0.0847,-0.1778 0.1348,-0.3514l0.556 -1.9494c-0.0537,-0.0825 -0.1115,-0.1397 -0.1729,-0.1707 -0.0614,-0.0304 -0.1566,-0.048 -0.2864,-0.0522l0.0232 -0.077 0.7006 0z"/>
  <path class="fil2" d="M136.209 27.2328l-0.134 0.4664c0.0599,-0.1094 0.1107,-0.1919 0.1531,-0.247 0.0656,-0.0854 0.1291,-0.1474 0.1912,-0.1862 0.0367,-0.0219 0.0747,-0.0332 0.1143,-0.0332 0.0345,0 0.0635,0.0113 0.086,0.0332 0.0226,0.0218 0.0339,0.0501 0.0339,0.0846 0,0.0339 -0.0078,0.0783 -0.0233,0.1327l-0.0734 0.2624c0.1122,-0.2102 0.2188,-0.3577 0.319,-0.4423 0.0557,-0.0466 0.1107,-0.0706 0.1658,-0.0706 0.0317,0 0.0571,0.0113 0.0776,0.0325 0.0204,0.0218 0.0303,0.0557 0.0303,0.1008 0,0.0403 -0.0056,0.0826 -0.0183,0.127l-0.1136 0.4022c-0.0247,0.0875 -0.0374,0.1362 -0.0374,0.1461 0,0.0091 0.0035,0.0176 0.0091,0.0246 0.0043,0.005 0.0099,0.0071 0.017,0.0071 0.007,0 0.019,-0.0063 0.036,-0.0198 0.0395,-0.0303 0.0762,-0.0698 0.1107,-0.1199l0.0339 0.0219c-0.0169,0.0275 -0.0473,0.0656 -0.091,0.1136 -0.0445,0.0487 -0.0812,0.0811 -0.1122,0.0987 -0.031,0.017 -0.06,0.0254 -0.0861,0.0254 -0.024,0 -0.0444,-0.0084 -0.0607,-0.0246 -0.0162,-0.0163 -0.0239,-0.0367 -0.0239,-0.0607 0,-0.0332 0.0141,-0.1002 0.0423,-0.1997l0.0938 -0.3316c0.0212,-0.0769 0.0332,-0.1192 0.0346,-0.1277 0.0014,-0.0127 0.0028,-0.0254 0.0028,-0.0381 0,-0.0169 -0.0035,-0.0303 -0.0113,-0.0402 -0.0084,-0.0099 -0.0176,-0.0141 -0.0282,-0.0141 -0.0289,0 -0.0593,0.0148 -0.0917,0.0444 -0.0953,0.0875 -0.1842,0.2096 -0.2667,0.3676 -0.0543,0.1044 -0.1051,0.2378 -0.1531,0.4001l-0.1559 0 0.1764 -0.6252c0.0197,-0.0677 0.0296,-0.1129 0.0296,-0.1354 0,-0.0184 -0.0043,-0.0325 -0.012,-0.0417 -0.0071,-0.0084 -0.0169,-0.0134 -0.0275,-0.0134 -0.0226,0 -0.0473,0.0085 -0.0727,0.0247 -0.0409,0.0268 -0.0945,0.0847 -0.1595,0.1729 -0.0649,0.0882 -0.1157,0.1729 -0.1516,0.2533 -0.017,0.0381 -0.0579,0.1594 -0.1228,0.3648l-0.1531 0 0.1912 -0.6696 0.0247 -0.0868c0.0049,-0.0134 0.0077,-0.0226 0.0077,-0.0289 0,-0.0155 -0.007,-0.029 -0.0211,-0.0409 -0.0134,-0.012 -0.0311,-0.0184 -0.0522,-0.0184 -0.0092,0 -0.0339,0.0042 -0.0748,0.0127l-0.0092 -0.0381 0.3563 -0.0656z"/>
  <path class="fil2" d="M138.273 27.2328l-0.2018 0.7006 -0.0226 0.0946c-0.0021,0.0084 -0.0035,0.0162 -0.0035,0.0225 0,0.0113 0.0035,0.0205 0.0106,0.029 0.0056,0.0063 0.0127,0.0091 0.0205,0.0091 0.0091,0 0.0211,-0.0056 0.0352,-0.0162 0.0269,-0.0205 0.0628,-0.0614 0.108,-0.1242l0.0346 0.0247c-0.0473,0.072 -0.096,0.1263 -0.1468,0.1637 -0.0501,0.0381 -0.0967,0.0564 -0.139,0.0564 -0.0296,0 -0.0522,-0.007 -0.067,-0.0218 -0.0148,-0.0148 -0.0219,-0.0367 -0.0219,-0.0649 0,-0.0339 0.0071,-0.0783 0.0226,-0.1334l0.0219 -0.0776c-0.0903,0.1178 -0.1736,0.2004 -0.2491,0.2469 -0.055,0.0339 -0.1079,0.0508 -0.1602,0.0508 -0.0508,0 -0.0938,-0.0204 -0.1305,-0.062 -0.0367,-0.0424 -0.055,-0.0995 -0.055,-0.1722 0,-0.1101 0.0331,-0.2251 0.0988,-0.3471 0.0656,-0.1214 0.1495,-0.2187 0.2504,-0.2921 0.0798,-0.0579 0.1546,-0.0868 0.2244,-0.0868 0.0423,0 0.0769,0.0113 0.1051,0.0332 0.0282,0.0218 0.0494,0.0585 0.0635,0.1093l0.0374 -0.1178 0.1644 -0.0247zm-0.3683 0.0536c-0.0437,0 -0.091,0.0212 -0.1404,0.0621 -0.0705,0.0586 -0.1326,0.1453 -0.1877,0.2611 -0.0543,0.115 -0.0818,0.2187 -0.0818,0.3118 0,0.0466 0.0113,0.084 0.0346,0.1108 0.024,0.0275 0.0508,0.0409 0.0811,0.0409 0.0748,0 0.1566,-0.055 0.2448,-0.1665 0.1179,-0.1475 0.1764,-0.2985 0.1764,-0.4537 0,-0.0585 -0.0113,-0.1009 -0.0339,-0.127 -0.0225,-0.0261 -0.0536,-0.0395 -0.0931,-0.0395z"/>
  <path class="fil2" d="M138.705 27.2328c0.0339,0.036 0.0593,0.072 0.0762,0.1079 0.0127,0.0247 0.0331,0.0896 0.0614,0.1955l0.091 -0.1369c0.024,-0.0332 0.0529,-0.0642 0.0875,-0.0945 0.0345,-0.0297 0.0649,-0.0501 0.091,-0.0614 0.0169,-0.0071 0.0346,-0.0106 0.055,-0.0106 0.0297,0 0.0529,0.0085 0.0706,0.024 0.0176,0.0155 0.0268,0.0353 0.0268,0.0578 0,0.0261 -0.0057,0.0445 -0.0155,0.0537 -0.0198,0.0176 -0.0417,0.0261 -0.0664,0.0261 -0.0148,0 -0.0303,-0.0036 -0.0465,-0.0092 -0.0325,-0.0113 -0.0544,-0.0169 -0.0649,-0.0169 -0.017,0 -0.0367,0.0098 -0.0593,0.0289 -0.0423,0.036 -0.0938,0.1051 -0.1531,0.2081l0.0847 0.3556c0.0134,0.0544 0.0247,0.0868 0.0331,0.0974 0.0092,0.0106 0.0184,0.0162 0.0268,0.0162 0.0149,0 0.0318,-0.0085 0.0508,-0.024 0.0381,-0.0317 0.0706,-0.0733 0.0974,-0.1241l0.036 0.019c-0.0431,0.0811 -0.0988,0.1489 -0.1651,0.2025 -0.0381,0.0303 -0.0699,0.0451 -0.096,0.0451 -0.0388,0 -0.0698,-0.0218 -0.0924,-0.0649 -0.0141,-0.0268 -0.0444,-0.1425 -0.0896,-0.3471 -0.108,0.1863 -0.194,0.3069 -0.2589,0.3605 -0.0417,0.0346 -0.0826,0.0515 -0.1214,0.0515 -0.0275,0 -0.0529,-0.0098 -0.0755,-0.0296 -0.0169,-0.0155 -0.0247,-0.036 -0.0247,-0.0614 0,-0.0225 0.0071,-0.0416 0.0226,-0.0564 0.0148,-0.0155 0.0339,-0.0233 0.0557,-0.0233 0.0219,0 0.0452,0.0113 0.0699,0.0332 0.0183,0.0162 0.0317,0.024 0.0416,0.024 0.0085,0 0.0191,-0.0057 0.0318,-0.0163 0.0324,-0.0268 0.0769,-0.0832 0.1326,-0.17 0.0557,-0.0868 0.0924,-0.1496 0.1094,-0.1877 -0.0424,-0.1679 -0.0657,-0.2561 -0.0692,-0.266 -0.0155,-0.0444 -0.0367,-0.0762 -0.0621,-0.0945 -0.0254,-0.0191 -0.0628,-0.0282 -0.1122,-0.0282 -0.0162,0 -0.0345,0.0007 -0.055,0.0021l0 -0.0374 0.2759 -0.0487z"/>
  <path class="fil2" d="M41.5217 5.4986l0.2314 -2.334c0.0113,-0.1185 0.0169,-0.1982 0.0169,-0.2398 0,-0.0621 -0.0233,-0.1136 -0.0691,-0.1546 -0.0466,-0.0416 -0.1193,-0.062 -0.2188,-0.062l-0.074 0 0.0204 -0.077 1.1063 0 -0.0233 0.077c-0.1192,0.0014 -0.2017,0.0134 -0.2469,0.0366 -0.0444,0.024 -0.0797,0.0635 -0.1065,0.12 -0.0134,0.0303 -0.0283,0.1164 -0.0431,0.2589l-0.1651 1.6722 1.0929 -1.493c0.1186,-0.1608 0.1933,-0.273 0.2237,-0.3365 0.0204,-0.0431 0.031,-0.0797 0.031,-0.1115 0,-0.0374 -0.0162,-0.0698 -0.048,-0.0974 -0.0317,-0.0275 -0.091,-0.0437 -0.1778,-0.0493l0.0254 -0.077 0.8432 0 -0.0205 0.077c-0.0677,0.0056 -0.1213,0.0183 -0.1616,0.0388 -0.0754,0.0359 -0.1509,0.0903 -0.2264,0.1636 -0.0748,0.0727 -0.1941,0.2202 -0.3563,0.4424l-1.5791 2.1456 -0.0747 0z"/>
  <path class="fil2" d="M43.9233 5.3448l-0.134 0.4664c0.0599,-0.1094 0.1107,-0.1919 0.1531,-0.247 0.0656,-0.0854 0.1291,-0.1474 0.1912,-0.1862 0.0367,-0.0219 0.0747,-0.0332 0.1143,-0.0332 0.0345,0 0.0635,0.0113 0.086,0.0332 0.0226,0.0218 0.0339,0.0501 0.0339,0.0846 0,0.0339 -0.0078,0.0783 -0.0233,0.1327l-0.0734 0.2624c0.1122,-0.2102 0.2188,-0.3577 0.319,-0.4423 0.0557,-0.0466 0.1107,-0.0706 0.1658,-0.0706 0.0317,0 0.0571,0.0113 0.0776,0.0325 0.0204,0.0218 0.0303,0.0557 0.0303,0.1008 0,0.0403 -0.0056,0.0826 -0.0183,0.127l-0.1136 0.4022c-0.0247,0.0875 -0.0374,0.1362 -0.0374,0.1461 0,0.0091 0.0035,0.0176 0.0091,0.0246 0.0043,0.005 0.0099,0.0071 0.017,0.0071 0.007,0 0.019,-0.0063 0.036,-0.0198 0.0395,-0.0303 0.0762,-0.0698 0.1107,-0.1199l0.0339 0.0219c-0.0169,0.0275 -0.0473,0.0656 -0.091,0.1136 -0.0445,0.0487 -0.0812,0.0811 -0.1122,0.0987 -0.031,0.017 -0.06,0.0254 -0.0861,0.0254 -0.024,0 -0.0444,-0.0084 -0.0607,-0.0246 -0.0162,-0.0163 -0.0239,-0.0367 -0.0239,-0.0607 0,-0.0332 0.0141,-0.1002 0.0423,-0.1997l0.0938 -0.3316c0.0212,-0.0769 0.0332,-0.1192 0.0346,-0.1277 0.0014,-0.0127 0.0028,-0.0254 0.0028,-0.0381 0,-0.0169 -0.0035,-0.0303 -0.0113,-0.0402 -0.0084,-0.0099 -0.0176,-0.0141 -0.0282,-0.0141 -0.0289,0 -0.0593,0.0148 -0.0917,0.0444 -0.0953,0.0875 -0.1842,0.2096 -0.2667,0.3676 -0.0543,0.1044 -0.1051,0.2378 -0.1531,0.4001l-0.1559 0 0.1764 -0.6252c0.0197,-0.0677 0.0296,-0.1129 0.0296,-0.1354 0,-0.0184 -0.0043,-0.0325 -0.012,-0.0417 -0.0071,-0.0084 -0.0169,-0.0134 -0.0275,-0.0134 -0.0226,0 -0.0473,0.0085 -0.0727,0.0247 -0.0409,0.0268 -0.0945,0.0847 -0.1595,0.1729 -0.0649,0.0882 -0.1157,0.1729 -0.1516,0.2533 -0.017,0.0381 -0.0579,0.1594 -0.1228,0.3648l-0.1531 0 0.1912 -0.6696 0.0247 -0.0868c0.0049,-0.0134 0.0077,-0.0226 0.0077,-0.0289 0,-0.0155 -0.007,-0.029 -0.0211,-0.0409 -0.0134,-0.012 -0.0311,-0.0184 -0.0522,-0.0184 -0.0092,0 -0.0339,0.0042 -0.0748,0.0127l-0.0092 -0.0381 0.3563 -0.0656z"/>
  <path class="fil2" d="M45.987 5.3448l-0.2018 0.7006 -0.0226 0.0946c-0.0021,0.0084 -0.0035,0.0162 -0.0035,0.0225 0,0.0113 0.0035,0.0205 0.0106,0.029 0.0056,0.0063 0.0127,0.0091 0.0205,0.0091 0.0091,0 0.0211,-0.0056 0.0352,-0.0162 0.0269,-0.0205 0.0628,-0.0614 0.108,-0.1242l0.0346 0.0247c-0.0473,0.072 -0.096,0.1263 -0.1468,0.1637 -0.0501,0.0381 -0.0967,0.0564 -0.139,0.0564 -0.0296,0 -0.0522,-0.007 -0.067,-0.0218 -0.0148,-0.0148 -0.0219,-0.0367 -0.0219,-0.0649 0,-0.0339 0.0071,-0.0783 0.0226,-0.1334l0.0219 -0.0776c-0.0903,0.1178 -0.1736,0.2004 -0.2491,0.2469 -0.055,0.0339 -0.1079,0.0508 -0.1602,0.0508 -0.0508,0 -0.0938,-0.0204 -0.1305,-0.062 -0.0367,-0.0424 -0.055,-0.0995 -0.055,-0.1722 0,-0.1101 0.0331,-0.2251 0.0988,-0.3471 0.0656,-0.1214 0.1495,-0.2187 0.2504,-0.2921 0.0798,-0.0579 0.1546,-0.0868 0.2244,-0.0868 0.0423,0 0.0769,0.0113 0.1051,0.0332 0.0282,0.0218 0.0494,0.0585 0.0635,0.1093l0.0374 -0.1178 0.1644 -0.0247zm-0.3683 0.0536c-0.0437,0 -0.091,0.0212 -0.1404,0.0621 -0.0705,0.0586 -0.1326,0.1453 -0.1877,0.2611 -0.0543,0.115 -0.0818,0.2187 -0.0818,0.3118 0,0.0466 0.0113,0.084 0.0346,0.1108 0.024,0.0275 0.0508,0.0409 0.0811,0.0409 0.0748,0 0.1566,-0.055 0.2448,-0.1665 0.1179,-0.1475 0.1764,-0.2985 0.1764,-0.4537 0,-0.0585 -0.0113,-0.1009 -0.0339,-0.127 -0.0225,-0.0261 -0.0536,-0.0395 -0.0931,-0.0395z"/>
  <path class="fil2" d="M46.4188 5.3448c0.0339,0.036 0.0593,0.072 0.0762,0.1079 0.0127,0.0247 0.0331,0.0896 0.0614,0.1955l0.091 -0.1369c0.024,-0.0332 0.0529,-0.0642 0.0875,-0.0945 0.0345,-0.0297 0.0649,-0.0501 0.091,-0.0614 0.0169,-0.0071 0.0346,-0.0106 0.055,-0.0106 0.0297,0 0.0529,0.0085 0.0706,0.024 0.0176,0.0155 0.0268,0.0353 0.0268,0.0578 0,0.0261 -0.0057,0.0445 -0.0155,0.0537 -0.0198,0.0176 -0.0417,0.0261 -0.0664,0.0261 -0.0148,0 -0.0303,-0.0036 -0.0465,-0.0092 -0.0325,-0.0113 -0.0544,-0.0169 -0.0649,-0.0169 -0.017,0 -0.0367,0.0098 -0.0593,0.0289 -0.0423,0.036 -0.0938,0.1051 -0.1531,0.2081l0.0847 0.3556c0.0134,0.0544 0.0247,0.0868 0.0331,0.0974 0.0092,0.0106 0.0184,0.0162 0.0268,0.0162 0.0149,0 0.0318,-0.0085 0.0508,-0.024 0.0381,-0.0317 0.0706,-0.0733 0.0974,-0.1241l0.036 0.019c-0.0431,0.0811 -0.0988,0.1489 -0.1651,0.2025 -0.0381,0.0303 -0.0699,0.0451 -0.096,0.0451 -0.0388,0 -0.0698,-0.0218 -0.0924,-0.0649 -0.0141,-0.0268 -0.0444,-0.1425 -0.0896,-0.3471 -0.108,0.1863 -0.194,0.3069 -0.2589,0.3605 -0.0417,0.0346 -0.0826,0.0515 -0.1214,0.0515 -0.0275,0 -0.0529,-0.0098 -0.0755,-0.0296 -0.0169,-0.0155 -0.0247,-0.036 -0.0247,-0.0614 0,-0.0225 0.0071,-0.0416 0.0226,-0.0564 0.0148,-0.0155 0.0339,-0.0233 0.0557,-0.0233 0.0219,0 0.0452,0.0113 0.0699,0.0332 0.0183,0.0162 0.0317,0.024 0.0416,0.024 0.0085,0 0.0191,-0.0057 0.0318,-0.0163 0.0324,-0.0268 0.0769,-0.0832 0.1326,-0.17 0.0557,-0.0868 0.0924,-0.1496 0.1094,-0.1877 -0.0424,-0.1679 -0.0657,-0.2561 -0.0692,-0.266 -0.0155,-0.0444 -0.0367,-0.0762 -0.0621,-0.0945 -0.0254,-0.0191 -0.0628,-0.0282 -0.1122,-0.0282 -0.0162,0 -0.0345,0.0007 -0.055,0.0021l0 -0.0374 0.2759 -0.0487z"/>
  <path class="fil2" d="M64.4957 29.7806l0.2314 -2.334c0.0113,-0.1185 0.0169,-0.1982 0.0169,-0.2398 0,-0.0621 -0.0233,-0.1136 -0.0691,-0.1546 -0.0466,-0.0416 -0.1193,-0.062 -0.2188,-0.062l-0.074 0 0.0204 -0.077 1.1063 0 -0.0233 0.077c-0.1192,0.0014 -0.2017,0.0134 -0.2469,0.0366 -0.0444,0.024 -0.0797,0.0635 -0.1065,0.12 -0.0134,0.0303 -0.0283,0.1164 -0.0431,0.2589l-0.1651 1.6722 1.0929 -1.493c0.1186,-0.1608 0.1933,-0.273 0.2237,-0.3365 0.0204,-0.0431 0.031,-0.0797 0.031,-0.1115 0,-0.0374 -0.0162,-0.0698 -0.048,-0.0974 -0.0317,-0.0275 -0.091,-0.0437 -0.1778,-0.0493l0.0254 -0.077 0.8432 0 -0.0205 0.077c-0.0677,0.0056 -0.1213,0.0183 -0.1616,0.0388 -0.0754,0.0359 -0.1509,0.0903 -0.2264,0.1636 -0.0748,0.0727 -0.1941,0.2202 -0.3563,0.4424l-1.5791 2.1456 -0.0747 0z"/>
  <path class="fil2" d="M66.8973 29.6268l-0.134 0.4664c0.0599,-0.1094 0.1107,-0.1919 0.1531,-0.247 0.0656,-0.0854 0.1291,-0.1474 0.1912,-0.1862 0.0367,-0.0219 0.0747,-0.0332 0.1143,-0.0332 0.0345,0 0.0635,0.0113 0.086,0.0332 0.0226,0.0218 0.0339,0.0501 0.0339,0.0846 0,0.0339 -0.0078,0.0783 -0.0233,0.1327l-0.0734 0.2624c0.1122,-0.2102 0.2188,-0.3577 0.319,-0.4423 0.0557,-0.0466 0.1107,-0.0706 0.1658,-0.0706 0.0317,0 0.0571,0.0113 0.0776,0.0325 0.0204,0.0218 0.0303,0.0557 0.0303,0.1008 0,0.0403 -0.0056,0.0826 -0.0183,0.127l-0.1136 0.4022c-0.0247,0.0875 -0.0374,0.1362 -0.0374,0.1461 0,0.0091 0.0035,0.0176 0.0091,0.0246 0.0043,0.005 0.0099,0.0071 0.017,0.0071 0.007,0 0.019,-0.0063 0.036,-0.0198 0.0395,-0.0303 0.0762,-0.0698 0.1107,-0.1199l0.0339 0.0219c-0.0169,0.0275 -0.0473,0.0656 -0.091,0.1136 -0.0445,0.0487 -0.0812,0.0811 -0.1122,0.0987 -0.031,0.017 -0.06,0.0254 -0.0861,0.0254 -0.024,0 -0.0444,-0.0084 -0.0607,-0.0246 -0.0162,-0.0163 -0.0239,-0.0367 -0.0239,-0.0607 0,-0.0332 0.0141,-0.1002 0.0423,-0.1997l0.0938 -0.3316c0.0212,-0.0769 0.0332,-0.1192 0.0346,-0.1277 0.0014,-0.0127 0.0028,-0.0254 0.0028,-0.0381 0,-0.0169 -0.0035,-0.0303 -0.0113,-0.0402 -0.0084,-0.0099 -0.0176,-0.0141 -0.0282,-0.0141 -0.0289,0 -0.0593,0.0148 -0.0917,0.0444 -0.0953,0.0875 -0.1842,0.2096 -0.2667,0.3676 -0.0543,0.1044 -0.1051,0.2378 -0.1531,0.4001l-0.1559 0 0.1764 -0.6252c0.0197,-0.0677 0.0296,-0.1129 0.0296,-0.1354 0,-0.0184 -0.0043,-0.0325 -0.012,-0.0417 -0.0071,-0.0084 -0.0169,-0.0134 -0.0275,-0.0134 -0.0226,0 -0.0473,0.0085 -0.0727,0.0247 -0.0409,0.0268 -0.0945,0.0847 -0.1595,0.1729 -0.0649,0.0882 -0.1157,0.1729 -0.1516,0.2533 -0.017,0.0381 -0.0579,0.1594 -0.1228,0.3648l-0.1531 0 0.1912 -0.6696 0.0247 -0.0868c0.0049,-0.0134 0.0077,-0.0226 0.0077,-0.0289 0,-0.0155 -0.007,-0.029 -0.0211,-0.0409 -0.0134,-0.012 -0.0311,-0.0184 -0.0522,-0.0184 -0.0092,0 -0.0339,0.0042 -0.0748,0.0127l-0.0092 -0.0381 0.3563 -0.0656z"/>
  <path class="fil2" d="M68.961 29.6268l-0.2018 0.7006 -0.0226 0.0946c-0.0021,0.0084 -0.0035,0.0162 -0.0035,0.0225 0,0.0113 0.0035,0.0205 0.0106,0.029 0.0056,0.0063 0.0127,0.0091 0.0205,0.0091 0.0091,0 0.0211,-0.0056 0.0352,-0.0162 0.0269,-0.0205 0.0628,-0.0614 0.108,-0.1242l0.0346 0.0247c-0.0473,0.072 -0.096,0.1263 -0.1468,0.1637 -0.0501,0.0381 -0.0967,0.0564 -0.139,0.0564 -0.0296,0 -0.0522,-0.007 -0.067,-0.0218 -0.0148,-0.0148 -0.0219,-0.0367 -0.0219,-0.0649 0,-0.0339 0.0071,-0.0783 0.0226,-0.1334l0.0219 -0.0776c-0.0903,0.1178 -0.1736,0.2004 -0.2491,0.2469 -0.055,0.0339 -0.1079,0.0508 -0.1602,0.0508 -0.0508,0 -0.0938,-0.0204 -0.1305,-0.062 -0.0367,-0.0424 -0.055,-0.0995 -0.055,-0.1722 0,-0.1101 0.0331,-0.2251 0.0988,-0.3471 0.0656,-0.1214 0.1495,-0.2187 0.2504,-0.2921 0.0798,-0.0579 0.1546,-0.0868 0.2244,-0.0868 0.0423,0 0.0769,0.0113 0.1051,0.0332 0.0282,0.0218 0.0494,0.0585 0.0635,0.1093l0.0374 -0.1178 0.1644 -0.0247zm-0.3683 0.0536c-0.0437,0 -0.091,0.0212 -0.1404,0.0621 -0.0705,0.0586 -0.1326,0.1453 -0.1877,0.2611 -0.0543,0.115 -0.0818,0.2187 -0.0818,0.3118 0,0.0466 0.0113,0.084 0.0346,0.1108 0.024,0.0275 0.0508,0.0409 0.0811,0.0409 0.0748,0 0.1566,-0.055 0.2448,-0.1665 0.1179,-0.1475 0.1764,-0.2985 0.1764,-0.4537 0,-0.0585 -0.0113,-0.1009 -0.0339,-0.127 -0.0225,-0.0261 -0.0536,-0.0395 -0.0931,-0.0395z"/>
  <path class="fil2" d="M69.3928 29.6268c0.0339,0.036 0.0593,0.072 0.0762,0.1079 0.0127,0.0247 0.0331,0.0896 0.0614,0.1955l0.091 -0.1369c0.024,-0.0332 0.0529,-0.0642 0.0875,-0.0945 0.0345,-0.0297 0.0649,-0.0501 0.091,-0.0614 0.0169,-0.0071 0.0346,-0.0106 0.055,-0.0106 0.0297,0 0.0529,0.0085 0.0706,0.024 0.0176,0.0155 0.0268,0.0353 0.0268,0.0578 0,0.0261 -0.0057,0.0445 -0.0155,0.0537 -0.0198,0.0176 -0.0417,0.0261 -0.0664,0.0261 -0.0148,0 -0.0303,-0.0036 -0.0465,-0.0092 -0.0325,-0.0113 -0.0544,-0.0169 -0.0649,-0.0169 -0.017,0 -0.0367,0.0098 -0.0593,0.0289 -0.0423,0.036 -0.0938,0.1051 -0.1531,0.2081l0.0847 0.3556c0.0134,0.0544 0.0247,0.0868 0.0331,0.0974 0.0092,0.0106 0.0184,0.0162 0.0268,0.0162 0.0149,0 0.0318,-0.0085 0.0508,-0.024 0.0381,-0.0317 0.0706,-0.0733 0.0974,-0.1241l0.036 0.019c-0.0431,0.0811 -0.0988,0.1489 -0.1651,0.2025 -0.0381,0.0303 -0.0699,0.0451 -0.096,0.0451 -0.0388,0 -0.0698,-0.0218 -0.0924,-0.0649 -0.0141,-0.0268 -0.0444,-0.1425 -0.0896,-0.3471 -0.108,0.1863 -0.194,0.3069 -0.2589,0.3605 -0.0417,0.0346 -0.0826,0.0515 -0.1214,0.0515 -0.0275,0 -0.0529,-0.0098 -0.0755,-0.0296 -0.0169,-0.0155 -0.0247,-0.036 -0.0247,-0.0614 0,-0.0225 0.0071,-0.0416 0.0226,-0.0564 0.0148,-0.0155 0.0339,-0.0233 0.0557,-0.0233 0.0219,0 0.0452,0.0113 0.0699,0.0332 0.0183,0.0162 0.0317,0.024 0.0416,0.024 0.0085,0 0.0191,-0.0057 0.0318,-0.0163 0.0324,-0.0268 0.0769,-0.0832 0.1326,-0.17 0.0557,-0.0868 0.0924,-0.1496 0.1094,-0.1877 -0.0424,-0.1679 -0.0657,-0.2561 -0.0692,-0.266 -0.0155,-0.0444 -0.0367,-0.0762 -0.0621,-0.0945 -0.0254,-0.0191 -0.0628,-0.0282 -0.1122,-0.0282 -0.0162,0 -0.0345,0.0007 -0.055,0.0021l0 -0.0374 0.2759 -0.0487z"/>
  <circle class="fil0 str0" cx="86.7386" cy="15.8904" r="1.40275"/>
  <polygon class="fil2" points="85.7803,16.4009 86.6575,15.8578 86.1166,14.9842 86.2607,14.8951 86.8016,15.7687 87.6753,15.2278 87.7644,15.3719 86.8907,15.9128 87.4337,16.79 87.2896,16.8791 86.7466,16.0019 85.8694,16.545 "/>
  <path class="fil2" d="M92.3832 14.9432l0.2589 2.2578 1.6263 -2.2578 0.6844 0 0 0.077c-0.1489,0.0091 -0.2364,0.019 -0.2625,0.0289 -0.0459,0.0176 -0.0875,0.0536 -0.1249,0.1072 -0.0381,0.0536 -0.079,0.1574 -0.1235,0.3105l-0.5185 1.7772c-0.0304,0.1038 -0.0452,0.1849 -0.0452,0.2442 0,0.0536 0.0184,0.0945 0.0557,0.122 0.0523,0.0395 0.1348,0.06 0.2477,0.06l0.0501 0 -0.0191 0.0762 -1.1803 0 0.0211 -0.0762 0.0558 0c0.1044,0 0.1841,-0.0155 0.2398,-0.0459 0.0424,-0.0218 0.0805,-0.0635 0.1143,-0.1248 0.0339,-0.0614 0.0812,-0.1976 0.1419,-0.4086l0.4628 -1.6241 -1.6348 2.2796 -0.0825 0 -0.2632 -2.2796 -0.5002 1.7342c-0.0423,0.1475 -0.0635,0.2462 -0.0635,0.297 0,0.0516 0.0183,0.0904 0.0557,0.1172 0.0367,0.0268 0.127,0.0451 0.271,0.055l-0.0233 0.0762 -0.9236 0 0.0226 -0.0762 0.0557 0c0.1362,0 0.235,-0.0346 0.2957,-0.1037 0.0437,-0.0494 0.0903,-0.1574 0.1382,-0.3225l0.6103 -2.0898c-0.0458,-0.0466 -0.0889,-0.0783 -0.1305,-0.0952 -0.0416,-0.0163 -0.1178,-0.0297 -0.2293,-0.0388l0.0205 -0.077 0.6964 0z"/>
  <path class="fil2" d="M95.0268 17.6568l-0.134 0.4664c0.0599,-0.1094 0.1107,-0.1919 0.1531,-0.247 0.0656,-0.0854 0.1291,-0.1474 0.1912,-0.1862 0.0367,-0.0219 0.0747,-0.0332 0.1143,-0.0332 0.0345,0 0.0635,0.0113 0.086,0.0332 0.0226,0.0218 0.0339,0.0501 0.0339,0.0846 0,0.0339 -0.0078,0.0783 -0.0233,0.1327l-0.0734 0.2624c0.1122,-0.2102 0.2188,-0.3577 0.319,-0.4423 0.0557,-0.0466 0.1107,-0.0706 0.1658,-0.0706 0.0317,0 0.0571,0.0113 0.0776,0.0325 0.0204,0.0218 0.0303,0.0557 0.0303,0.1008 0,0.0403 -0.0056,0.0826 -0.0183,0.127l-0.1136 0.4022c-0.0247,0.0875 -0.0374,0.1362 -0.0374,0.1461 0,0.0091 0.0035,0.0176 0.0091,0.0246 0.0043,0.005 0.0099,0.0071 0.017,0.0071 0.007,0 0.019,-0.0063 0.036,-0.0198 0.0395,-0.0303 0.0762,-0.0698 0.1107,-0.1199l0.0339 0.0219c-0.0169,0.0275 -0.0473,0.0656 -0.091,0.1136 -0.0445,0.0487 -0.0812,0.0811 -0.1122,0.0987 -0.031,0.017 -0.06,0.0254 -0.0861,0.0254 -0.024,0 -0.0444,-0.0084 -0.0607,-0.0246 -0.0162,-0.0163 -0.0239,-0.0367 -0.0239,-0.0607 0,-0.0332 0.0141,-0.1002 0.0423,-0.1997l0.0938 -0.3316c0.0212,-0.0769 0.0332,-0.1192 0.0346,-0.1277 0.0014,-0.0127 0.0028,-0.0254 0.0028,-0.0381 0,-0.0169 -0.0035,-0.0303 -0.0113,-0.0402 -0.0084,-0.0099 -0.0176,-0.0141 -0.0282,-0.0141 -0.0289,0 -0.0593,0.0148 -0.0917,0.0444 -0.0953,0.0875 -0.1842,0.2096 -0.2667,0.3676 -0.0543,0.1044 -0.1051,0.2378 -0.1531,0.4001l-0.1559 0 0.1764 -0.6252c0.0197,-0.0677 0.0296,-0.1129 0.0296,-0.1354 0,-0.0184 -0.0043,-0.0325 -0.012,-0.0417 -0.0071,-0.0084 -0.0169,-0.0134 -0.0275,-0.0134 -0.0226,0 -0.0473,0.0085 -0.0727,0.0247 -0.0409,0.0268 -0.0945,0.0847 -0.1595,0.1729 -0.0649,0.0882 -0.1157,0.1729 -0.1516,0.2533 -0.017,0.0381 -0.0579,0.1594 -0.1228,0.3648l-0.1531 0 0.1912 -0.6696 0.0247 -0.0868c0.0049,-0.0134 0.0077,-0.0226 0.0077,-0.0289 0,-0.0155 -0.007,-0.029 -0.0211,-0.0409 -0.0134,-0.012 -0.0311,-0.0184 -0.0522,-0.0184 -0.0092,0 -0.0339,0.0042 -0.0748,0.0127l-0.0092 -0.0381 0.3563 -0.0656z"/>
  <path class="fil2" d="M97.0905 17.6568l-0.2018 0.7006 -0.0226 0.0946c-0.0021,0.0084 -0.0035,0.0162 -0.0035,0.0225 0,0.0113 0.0035,0.0205 0.0106,0.029 0.0056,0.0063 0.0127,0.0091 0.0205,0.0091 0.0091,0 0.0211,-0.0056 0.0352,-0.0162 0.0269,-0.0205 0.0628,-0.0614 0.108,-0.1242l0.0346 0.0247c-0.0473,0.072 -0.096,0.1263 -0.1468,0.1637 -0.0501,0.0381 -0.0967,0.0564 -0.139,0.0564 -0.0296,0 -0.0522,-0.007 -0.067,-0.0218 -0.0148,-0.0148 -0.0219,-0.0367 -0.0219,-0.0649 0,-0.0339 0.0071,-0.0783 0.0226,-0.1334l0.0219 -0.0776c-0.0903,0.1178 -0.1736,0.2004 -0.2491,0.2469 -0.055,0.0339 -0.1079,0.0508 -0.1602,0.0508 -0.0508,0 -0.0938,-0.0204 -0.1305,-0.062 -0.0367,-0.0424 -0.055,-0.0995 -0.055,-0.1722 0,-0.1101 0.0331,-0.2251 0.0988,-0.3471 0.0656,-0.1214 0.1495,-0.2187 0.2504,-0.2921 0.0798,-0.0579 0.1546,-0.0868 0.2244,-0.0868 0.0423,0 0.0769,0.0113 0.1051,0.0332 0.0282,0.0218 0.0494,0.0585 0.0635,0.1093l0.0374 -0.1178 0.1644 -0.0247zm-0.3683 0.0536c-0.0437,0 -0.091,0.0212 -0.1404,0.0621 -0.0705,0.0586 -0.1326,0.1453 -0.1877,0.2611 -0.0543,0.115 -0.0818,0.2187 -0.0818,0.3118 0,0.0466 0.0113,0.084 0.0346,0.1108 0.024,0.0275 0.0508,0.0409 0.0811,0.0409 0.0748,0 0.1566,-0.055 0.2448,-0.1665 0.1179,-0.1475 0.1764,-0.2985 0.1764,-0.4537 0,-0.0585 -0.0113,-0.1009 -0.0339,-0.127 -0.0225,-0.0261 -0.0536,-0.0395 -0.0931,-0.0395z"/>
  <path class="fil2" d="M97.5223 17.6568c0.0339,0.036 0.0593,0.072 0.0762,0.1079 0.0127,0.0247 0.0331,0.0896 0.0614,0.1955l0.091 -0.1369c0.024,-0.0332 0.0529,-0.0642 0.0875,-0.0945 0.0345,-0.0297 0.0649,-0.0501 0.091,-0.0614 0.0169,-0.0071 0.0346,-0.0106 0.055,-0.0106 0.0297,0 0.0529,0.0085 0.0706,0.024 0.0176,0.0155 0.0268,0.0353 0.0268,0.0578 0,0.0261 -0.0057,0.0445 -0.0155,0.0537 -0.0198,0.0176 -0.0417,0.0261 -0.0664,0.0261 -0.0148,0 -0.0303,-0.0036 -0.0465,-0.0092 -0.0325,-0.0113 -0.0544,-0.0169 -0.0649,-0.0169 -0.017,0 -0.0367,0.0098 -0.0593,0.0289 -0.0423,0.036 -0.0938,0.1051 -0.1531,0.2081l0.0847 0.3556c0.0134,0.0544 0.0247,0.0868 0.0331,0.0974 0.0092,0.0106 0.0184,0.0162 0.0268,0.0162 0.0149,0 0.0318,-0.0085 0.0508,-0.024 0.0381,-0.0317 0.0706,-0.0733 0.0974,-0.1241l0.036 0.019c-0.0431,0.0811 -0.0988,0.1489 -0.1651,0.2025 -0.0381,0.0303 -0.0699,0.0451 -0.096,0.0451 -0.0388,0 -0.0698,-0.0218 -0.0924,-0.0649 -0.0141,-0.0268 -0.0444,-0.1425 -0.0896,-0.3471 -0.108,0.1863 -0.194,0.3069 -0.2589,0.3605 -0.0417,0.0346 -0.0826,0.0515 -0.1214,0.0515 -0.0275,0 -0.0529,-0.0098 -0.0755,-0.0296 -0.0169,-0.0155 -0.0247,-0.036 -0.0247,-0.0614 0,-0.0225 0.0071,-0.0416 0.0226,-0.0564 0.0148,-0.0155 0.0339,-0.0233 0.0557,-0.0233 0.0219,0 0.0452,0.0113 0.0699,0.0332 0.0183,0.0162 0.0317,0.024 0.0416,0.024 0.0085,0 0.0191,-0.0057 0.0318,-0.0163 0.0324,-0.0268 0.0769,-0.0832 0.1326,-0.17 0.0557,-0.0868 0.0924,-0.1496 0.1094,-0.1877 -0.0424,-0.1679 -0.0657,-0.2561 -0.0692,-0.266 -0.0155,-0.0444 -0.0367,-0.0762 -0.0621,-0.0945 -0.0254,-0.0191 -0.0628,-0.0282 -0.1122,-0.0282 -0.0162,0 -0.0345,0.0007 -0.055,0.0021l0 -0.0374 0.2759 -0.0487z"/>
  <path class="fil2" d="M18.3742 31.9796l-0.4028 1.4012 -0.0452 0.1884c-0.0042,0.0176 -0.0064,0.0324 -0.0064,0.0451 0,0.0219 0.0071,0.0417 0.0205,0.0579 0.0113,0.0127 0.0247,0.0183 0.0416,0.0183 0.0177,0 0.041,-0.0105 0.0699,-0.0324 0.0543,-0.0402 0.1256,-0.1228 0.2152,-0.2484l0.0705 0.0494c-0.0952,0.1433 -0.1933,0.2526 -0.2935,0.3281 -0.1009,0.0748 -0.194,0.1122 -0.2794,0.1122 -0.0592,0 -0.1037,-0.0148 -0.1333,-0.0445 -0.0297,-0.0296 -0.0445,-0.0726 -0.0445,-0.1291 0,-0.067 0.0156,-0.1559 0.0459,-0.2667l0.043 -0.1545c-0.1806,0.2357 -0.3464,0.4001 -0.4981,0.4939 -0.1086,0.067 -0.2159,0.1009 -0.3203,0.1009 -0.1009,0 -0.1877,-0.0416 -0.2604,-0.1249 -0.0733,-0.0832 -0.1093,-0.1983 -0.1093,-0.3443 0,-0.2187 0.0656,-0.4501 0.1968,-0.6936 0.132,-0.2427 0.2992,-0.4374 0.5017,-0.5834 0.158,-0.1158 0.3076,-0.1736 0.4487,-0.1736 0.084,0 0.1538,0.0219 0.2096,0.0656 0.0557,0.0445 0.098,0.1171 0.127,0.2194l0.0747 -0.2356 0.3281 -0.0494zm-0.7359 0.1072c-0.0882,0 -0.1813,0.0417 -0.2808,0.1242 -0.1404,0.1171 -0.2653,0.2907 -0.3753,0.5207 -0.1094,0.23 -0.1644,0.4381 -0.1644,0.6244 0,0.0939 0.024,0.1679 0.0705,0.2223 0.0466,0.0543 0.1009,0.0811 0.1616,0.0811 0.1496,0 0.3133,-0.1108 0.4897,-0.3323 0.2356,-0.2949 0.3534,-0.5976 0.3534,-0.9073 0,-0.1172 -0.0225,-0.2018 -0.0684,-0.2548 -0.0452,-0.0522 -0.1072,-0.0783 -0.1863,-0.0783z"/>
  <g>
   <path class="fil2" d="M21.1605 35.9227l-0.0012 -0.2984 1.3992 -0.9156 0.1948 0.2975 -1.3993 0.9157 -0.0012 -0.2984 -0.1923 0.2992zm0 0l-0.2306 -0.1483 0.2294 -0.1501 0.0012 0.2984zm1.5032 0.7547l-0.0961 0.1496 -1.4071 -0.9043 0.1923 -0.2992 1.407 0.9043 -0.0961 0.1496zm5.0204 -0.8441l-6.1513 0.0266 -0.0006 -0.1758 6.1513 -0.0266 0.0006 0.1758zm0.373 0.0597l-0.1948 -0.2974 0.0013 0.2983 -1.4071 -0.9036 0.1922 -0.2992 1.407 0.9036 0.0014 0.2983zm0 0l-0.0014 -0.2983 0.2307 0.1481 -0.2293 0.1502zm-1.4967 0.7677l-0.0974 -0.1488 1.3993 -0.9163 0.1948 0.2974 -1.3993 0.9164 -0.0974 -0.1487z"/>
  </g>
  <line class="fil0 str0" x1="20.9915" y1="34.098" x2="20.9915" y2= "37.9923" />
  <line class="fil0 str0" x1="28.1709" y1="33.7962" x2="28.1709" y2= "37.6905" />
  <g>
   <path class="fil2" d="M14.0019 35.9148l-0.0012 -0.2984 1.3992 -0.9156 0.1948 0.2975 -1.3993 0.9157 -0.0012 -0.2984 -0.1923 0.2992zm0 0l-0.2306 -0.1483 0.2294 -0.1501 0.0012 0.2984zm1.5032 0.7547l-0.0961 0.1496 -1.4071 -0.9043 0.1923 -0.2992 1.407 0.9043 -0.0961 0.1496zm5.0204 -0.8441l-6.1513 0.0266 -0.0006 -0.1758 6.1513 -0.0266 0.0006 0.1758zm0.373 0.0597l-0.1948 -0.2974 0.0013 0.2983 -1.4071 -0.9036 0.1922 -0.2992 1.407 0.9036 0.0014 0.2983zm0 0l-0.0014 -0.2983 0.2307 0.1481 -0.2293 0.1502zm-1.4967 0.7677l-0.0974 -0.1488 1.3993 -0.9163 0.1948 0.2974 -1.3993 0.9164 -0.0974 -0.1487z"/>
  </g>
  <line class="fil0 str0" x1="13.8329" y1="34.0901" x2="13.8329" y2= "37.9844" />
  <path class="fil2" d="M25.9444 32.209l-0.4028 1.4012 -0.0452 0.1884c-0.0042,0.0176 -0.0064,0.0324 -0.0064,0.0451 0,0.0219 0.0071,0.0417 0.0205,0.0579 0.0113,0.0127 0.0247,0.0183 0.0416,0.0183 0.0177,0 0.041,-0.0105 0.0699,-0.0324 0.0543,-0.0402 0.1256,-0.1228 0.2152,-0.2484l0.0705 0.0494c-0.0952,0.1433 -0.1933,0.2526 -0.2935,0.3281 -0.1009,0.0748 -0.194,0.1122 -0.2794,0.1122 -0.0592,0 -0.1037,-0.0148 -0.1333,-0.0445 -0.0297,-0.0296 -0.0445,-0.0726 -0.0445,-0.1291 0,-0.067 0.0156,-0.1559 0.0459,-0.2667l0.043 -0.1545c-0.1806,0.2357 -0.3464,0.4001 -0.4981,0.4939 -0.1086,0.067 -0.2159,0.1009 -0.3203,0.1009 -0.1009,0 -0.1877,-0.0416 -0.2604,-0.1249 -0.0733,-0.0832 -0.1093,-0.1983 -0.1093,-0.3443 0,-0.2187 0.0656,-0.4501 0.1968,-0.6936 0.132,-0.2427 0.2992,-0.4374 0.5017,-0.5834 0.158,-0.1158 0.3076,-0.1736 0.4487,-0.1736 0.084,0 0.1538,0.0219 0.2096,0.0656 0.0557,0.0445 0.098,0.1171 0.127,0.2194l0.0747 -0.2356 0.3281 -0.0494zm-0.7359 0.1072c-0.0882,0 -0.1813,0.0417 -0.2808,0.1242 -0.1404,0.1171 -0.2653,0.2907 -0.3753,0.5207 -0.1094,0.23 -0.1644,0.4381 -0.1644,0.6244 0,0.0939 0.024,0.1679 0.0705,0.2223 0.0466,0.0543 0.1009,0.0811 0.1616,0.0811 0.1496,0 0.3133,-0.1108 0.4897,-0.3323 0.2356,-0.2949 0.3534,-0.5976 0.3534,-0.9073 0,-0.1172 -0.0225,-0.2018 -0.0684,-0.2548 -0.0452,-0.0522 -0.1072,-0.0783 -0.1863,-0.0783z"/>
  <line class="fil0 str0" x1="4.2237" y1="7.1116" x2="8.118" y2= "7.1116" />
  <g>
   <path class="fil2" d="M6.0408 27.4539l-0.2984 0.0004 -0.9117 -1.4018 0.2981 -0.1939 0.9117 1.4018 -0.2983 0.0004 0.2986 0.1931zm0 0l-0.1489 0.2302 -0.1495 -0.2298 0.2984 -0.0004zm0.7589 -1.5011l0.1493 0.0966 -0.9082 1.4045 -0.2986 -0.1931 0.9082 -1.4045 0.1493 0.0965zm-0.8499 -18.4142l0.0292 19.5429 -0.1758 0 -0.0292 -19.5429 0.1758 0zm0.0607 -0.3729l-0.298 0.194 0.2984 -0.0005 -0.9076 1.4046 -0.2987 -0.193 0.9076 -1.4046 0.2983 -0.0005zm0 0l-0.2983 0.0005 0.1488 -0.2302 0.1495 0.2297zm0.7634 1.4989l-0.149 0.097 -0.9124 -1.4019 0.298 -0.194 0.9125 1.4019 -0.1491 0.097z"/>
  </g>
  <line class="fil0 str0" x1="4.2158" y1="27.7238" x2="8.1101" y2= "27.7238" />
  <path class="fil2" d="M3.0637 15.4262l-0.5807 2.0073c0.2505,-0.3775 0.4459,-0.6287 0.587,-0.7529 0.1404,-0.1234 0.2745,-0.1855 0.4029,-0.1855 0.0663,0 0.1213,0.0226 0.1651,0.0677 0.0444,0.0459 0.0663,0.1066 0.0663,0.1821 0,0.091 -0.019,0.201 -0.0578,0.3309l-0.2519 0.8657c-0.0318,0.1051 -0.048,0.1629 -0.048,0.1735 0,0.0198 0.0056,0.0353 0.0176,0.048 0.012,0.012 0.0254,0.0184 0.0403,0.0184 0.0183,0 0.0388,-0.0085 0.062,-0.0269 0.0784,-0.0606 0.1567,-0.1446 0.2336,-0.2518l0.0642 0.0388c-0.0466,0.0733 -0.1122,0.1538 -0.1955,0.2413 -0.0832,0.0875 -0.1552,0.1481 -0.2151,0.182 -0.06,0.0332 -0.1129,0.0501 -0.1602,0.0501 -0.0508,0 -0.0924,-0.0162 -0.1249,-0.0487 -0.0324,-0.0317 -0.0487,-0.0741 -0.0487,-0.1249 0,-0.0607 0.024,-0.1735 0.0727,-0.3386l0.2378 -0.8269c0.0303,-0.1038 0.0451,-0.1849 0.0451,-0.2442 0,-0.0275 -0.0084,-0.0494 -0.0254,-0.0663 -0.0176,-0.0162 -0.0402,-0.0247 -0.0677,-0.0247 -0.0395,0 -0.0854,0.0155 -0.1362,0.0459 -0.0938,0.0578 -0.2018,0.1651 -0.3245,0.3224 -0.0332,0.0423 -0.1433,0.2145 -0.3309,0.5165 -0.0579,0.0966 -0.1052,0.2018 -0.1426,0.3161l-0.1319 0.424 -0.3104 0 0.6801 -2.365 0.0727 -0.2561c0,-0.036 -0.0148,-0.0678 -0.0445,-0.0953 -0.0296,-0.0275 -0.0663,-0.0409 -0.1086,-0.0409 -0.0247,0 -0.0628,0.0042 -0.1136,0.012l-0.0438 0.0064 0 -0.0805 0.7155 -0.1199z"/>
 </g>
</svg>
