<?xml version="1.0" encoding="UTF-8"?>
<!DOCTYPE svg PUBLIC "-//W3C//DTD SVG 1.1//EN" "http://www.w3.org/Graphics/SVG/1.1/DTD/svg11.dtd">
<!-- Creator: CorelDRAW -->
<svg xmlns="http://www.w3.org/2000/svg" xml:space="preserve" width="67mm" height="43mm" style="shape-rendering:geometricPrecision; text-rendering:geometricPrecision; image-rendering:optimizeQuality; fill-rule:evenodd; clip-rule:evenodd"
viewBox="0 0 67 79.1818">
 <defs>
  <style type="text/css">
   <![CDATA[
    .str0 {stroke:#1F1A17;stroke-width:0.358145}
    .str1 {stroke:#131516;stroke-width:0.358145}
    .fil0 {fill:none}
    .fil2 {fill:#1F1A17;fill-rule:nonzero}
    .fil1 {fill:url(#id0)}
   ]]>
  </style>
  <linearGradient id="id0" gradientUnits="userSpaceOnUse" x1="24.967" y1="14.6864" x2="24.967" y2="12.7192">
   <stop offset="0" style="stop-color:white"/>
   <stop offset="1" style="stop-color:white"/>
  </linearGradient>
 </defs>
 <g id="Layer_x0020_1">
  <metadata id="CorelCorpID_0Corel-Layer"/>
  <rect class="fil0 str0" transform="matrix(1.06836 -0.757045 0.757045 1.06836 24.4259 14.8663)" width="1.45167" height="38.3445"/>
  <polygon class="fil0 str1" points="23.9172,13.7027 21.6897,15.492 19.4621,17.2813 19.4621,13.7027 19.4621,10.1243 21.6897,11.9136 "/>
  <g id="_209220752">
   <line id="_209326768" class="fil0 str1" x1="16.948" y1="18.5842" x2="16.948" y2= "9.67419" />
   <g>
    <line id="_208744432" class="fil0 str1" x1="16.8253" y1="17.7258" x2="15.0679" y2= "18.5024" />
    <line id="_208874848" class="fil0 str1" x1="16.8253" y1="16.1354" x2="15.0679" y2= "16.912" />
    <line id="_210530648" class="fil0 str1" x1="16.8253" y1="14.5451" x2="15.0679" y2= "15.3217" />
    <line id="_210530456" class="fil0 str1" x1="16.8253" y1="12.955" x2="15.0679" y2= "13.7313" />
    <line id="_209217088" class="fil0 str1" x1="16.8253" y1="11.3646" x2="15.0679" y2= "12.141" />
    <line id="_208953808" class="fil0 str1" x1="16.8253" y1="9.77428" x2="15.0679" y2= "10.5509" />
   </g>
  </g>
  <circle class="fil1 str1" transform="matrix(-1.27584E-013 -0.688188 -0.688188 1.27584E-013 24.9671 13.7028)" r="1.42933"/>
  <polygon class="fil0 str1" points="54.4204,56.4233 52.6313,58.651 50.842,60.8784 54.4204,60.8784 57.9991,60.8784 56.2098,58.651 "/>
  <g id="_209348448">
   <line id="_208759848" class="fil0 str1" x1="49.5877" y1="60.8898" x2="58.4977" y2= "60.8898" />
   <g>
    <line id="_208759744" class="fil0 str1" x1="50.4461" y1="61.0124" x2="49.6695" y2= "62.7699" />
    <line id="_208783048" class="fil0 str1" x1="52.0365" y1="61.0124" x2="51.2599" y2= "62.7699" />
    <line id="_139256600" class="fil0 str1" x1="53.6268" y1="61.0124" x2="52.8502" y2= "62.7699" />
    <line id="_139258776" class="fil0 str1" x1="55.2171" y1="61.0124" x2="54.4405" y2= "62.7699" />
    <line id="_209860400" class="fil0 str1" x1="56.8075" y1="61.0124" x2="56.0309" y2= "62.7699" />
    <line id="_209345104" class="fil0 str1" x1="58.3976" y1="61.0124" x2="57.6212" y2= "62.7699" />
   </g>
  </g>
  <circle class="fil1 str1" cx="54.4205" cy="55.3734" r="0.98365"/>
  <circle class="fil0 str1" transform="matrix(-1.27584E-013 -0.688188 -0.688188 1.27584E-013 18.1895 13.7028)" r="1.42933"/>
  <g>
   <path class="fil2" d="M39.9294 32.7072l-0.605842 0 -1.84676 -2.84892 0.605842 -0.392661 1.84676 2.84892 -0.605842 -0.00020303 0.605842 0.392864zm0 0l-0.303124 0.46697 -0.302718 -0.46697 0.605842 0zm1.54526 -3.04525l0.302921 0.19633 -1.84818 2.84892 -0.605842 -0.392864 1.84839 -2.84892 0.302718 0.196533zm-1.49004 -15.0744l0 17.3632 -0.716291 0 0 -17.3632 0.716291 0z"/>
  </g>
  <path class="fil2" d="M34.6481 64.3141l-0.817806 2.84486 -0.0917697 0.382509c-0.00852727,0.0357333 -0.0129939,0.0657818 -0.0129939,0.0915667 0,0.0444636 0.0144152,0.0846636 0.0416212,0.117555 0.0229424,0.0257848 0.0501485,0.0371545 0.0844606,0.0371545 0.0359364,0 0.0832424,-0.0213182 0.141918,-0.0657818 0.110245,-0.0816182 0.255006,-0.249321 0.436921,-0.504327l0.143136 0.100297c-0.193285,0.290942 -0.392458,0.512855 -0.595894,0.666142 -0.204858,0.151867 -0.393879,0.2278 -0.567267,0.2278 -0.120194,0 -0.210542,-0.0300485 -0.270639,-0.0903485 -0.0603,-0.060097 -0.0903485,-0.1474 -0.0903485,-0.262112 0,-0.13603 0.0316727,-0.316524 0.0931909,-0.541482l0.087303 -0.313682c-0.366673,0.478542 -0.703297,0.812324 -1.01129,1.00277 -0.220491,0.13603 -0.438342,0.204858 -0.650306,0.204858 -0.204858,0 -0.381088,-0.0844606 -0.528691,-0.253585 -0.148821,-0.168921 -0.221912,-0.402609 -0.221912,-0.699033 0,-0.444027 0.133188,-0.913839 0.399564,-1.40822 0.268,-0.492755 0.607467,-0.888055 1.0186,-1.18448 0.320788,-0.235109 0.624521,-0.352461 0.910997,-0.352461 0.170545,0 0.312261,0.0444636 0.425552,0.133188 0.113088,0.0903485 0.19897,0.237748 0.257848,0.445448l0.151664 -0.478339 0.666142 -0.100297zm-1.4941 0.217648c-0.179073,0 -0.368094,0.0846636 -0.570109,0.252164 -0.285055,0.237748 -0.538639,0.590209 -0.761973,1.05718 -0.222115,0.46697 -0.333782,0.889476 -0.333782,1.26772 0,0.190645 0.0487273,0.340888 0.143136,0.451336 0.0946121,0.110245 0.204858,0.164658 0.328097,0.164658 0.303733,0 0.636094,-0.224958 0.994239,-0.67467 0.478339,-0.598736 0.717509,-1.21331 0.717509,-1.84209 0,-0.237952 -0.0456818,-0.409715 -0.138873,-0.517321 -0.0917697,-0.105982 -0.217648,-0.158973 -0.378245,-0.158973z"/>
  <g>
   <path class="fil2" d="M40.3052 72.3198l-0.00243636 -0.605842 2.8408 -1.85895 0.395503 0.604015 -2.841 1.85915 -0.00243636 -0.605842 -0.390427 0.607467zm0 0l-0.468188 -0.301094 0.465752 -0.304748 0.00243636 0.605842zm3.05195 1.53227l-0.195112 0.303733 -2.85684 -1.836 0.390427 -0.607467 2.85664 1.836 -0.195112 0.303733zm10.1929 -1.71378l-12.489 0.0540061 -0.00121818 -0.356927 12.489 -0.0540061 0.00121818 0.356927zm0.757303 0.121209l-0.395503 -0.603812 0.00263939 0.605639 -2.85684 -1.83458 0.390224 -0.607467 2.85664 1.83458 0.00284242 0.605639zm0 0l-0.00284242 -0.605639 0.468391 0.300688 -0.465548 0.304952zm-3.03875 1.55866l-0.197752 -0.302109 2.841 -1.86037 0.395503 0.603812 -2.841 1.86057 -0.197752 -0.301906z"/>
  </g>
  <line class="fil0 str0" x1="39.962" y1="68.6151" x2="39.962" y2= "76.5217" />
  <line class="fil0 str0" x1="54.5384" y1="68.0024" x2="54.5384" y2= "75.909" />
  <g>
   <path class="fil2" d="M25.771 72.3038l-0.00243636 -0.605842 2.8408 -1.85895 0.395503 0.604015 -2.841 1.85915 -0.00243636 -0.605842 -0.390427 0.607467zm0 0l-0.468188 -0.301094 0.465752 -0.304748 0.00243636 0.605842zm3.05195 1.53227l-0.195112 0.303733 -2.85684 -1.836 0.390427 -0.607467 2.85664 1.836 -0.195112 0.303733zm10.1929 -1.71378l-12.489 0.0540061 -0.00121818 -0.356927 12.489 -0.0540061 0.00121818 0.356927zm0.757303 0.121209l-0.395503 -0.603812 0.00263939 0.605639 -2.85684 -1.83458 0.390224 -0.607467 2.85664 1.83458 0.00284242 0.605639zm0 0l-0.00284242 -0.605639 0.468391 0.300688 -0.465548 0.304952zm-3.03875 1.55866l-0.197752 -0.302109 2.841 -1.86037 0.395503 0.603812 -2.841 1.86057 -0.197752 -0.301906z"/>
  </g>
  <line class="fil0 str0" x1="25.4279" y1="68.5991" x2="25.4279" y2= "76.5057" />
  <path class="fil2" d="M50.0179 64.7799l-0.817806 2.84486 -0.0917697 0.382509c-0.00852727,0.0357333 -0.0129939,0.0657818 -0.0129939,0.0915667 0,0.0444636 0.0144152,0.0846636 0.0416212,0.117555 0.0229424,0.0257848 0.0501485,0.0371545 0.0844606,0.0371545 0.0359364,0 0.0832424,-0.0213182 0.141918,-0.0657818 0.110245,-0.0816182 0.255006,-0.249321 0.436921,-0.504327l0.143136 0.100297c-0.193285,0.290942 -0.392458,0.512855 -0.595894,0.666142 -0.204858,0.151867 -0.393879,0.2278 -0.567267,0.2278 -0.120194,0 -0.210542,-0.0300485 -0.270639,-0.0903485 -0.0603,-0.060097 -0.0903485,-0.1474 -0.0903485,-0.262112 0,-0.13603 0.0316727,-0.316524 0.0931909,-0.541482l0.087303 -0.313682c-0.366673,0.478542 -0.703297,0.812324 -1.01129,1.00277 -0.220491,0.13603 -0.438342,0.204858 -0.650306,0.204858 -0.204858,0 -0.381088,-0.0844606 -0.528691,-0.253585 -0.148821,-0.168921 -0.221912,-0.402609 -0.221912,-0.699033 0,-0.444027 0.133188,-0.913839 0.399564,-1.40822 0.268,-0.492755 0.607467,-0.888055 1.0186,-1.18448 0.320788,-0.235109 0.624521,-0.352461 0.910997,-0.352461 0.170545,0 0.312261,0.0444636 0.425552,0.133188 0.113088,0.0903485 0.19897,0.237748 0.257848,0.445448l0.151664 -0.478339 0.666142 -0.100297zm-1.4941 0.217648c-0.179073,0 -0.368094,0.0846636 -0.570109,0.252164 -0.285055,0.237748 -0.538639,0.590209 -0.761973,1.05718 -0.222115,0.46697 -0.333782,0.889476 -0.333782,1.26772 0,0.190645 0.0487273,0.340888 0.143136,0.451336 0.0946121,0.110245 0.204858,0.164658 0.328097,0.164658 0.303733,0 0.636094,-0.224958 0.994239,-0.67467 0.478339,-0.598736 0.717509,-1.21331 0.717509,-1.84209 0,-0.237952 -0.0456818,-0.409715 -0.138873,-0.517321 -0.0917697,-0.105982 -0.217648,-0.158973 -0.378245,-0.158973z"/>
  <line class="fil0 str0" x1="5.91833" y1="13.8245" x2="13.8249" y2= "13.8245" />
  <g>
   <path class="fil2" d="M9.6076 55.1256l-0.605842 0.000812121 -1.85103 -2.84608 0.605233 -0.393676 1.85103 2.84608 -0.605639 0.000812121 0.606248 0.392052zm0 0l-0.302312 0.467376 -0.30353 -0.466564 0.605842 -0.000812121zm1.5408 -3.04769l0.303124 0.196127 -1.84392 2.85156 -0.606248 -0.392052 1.84392 -2.85156 0.303124 0.195924zm-1.72555 -37.3864l0.0592848 39.678 -0.356927 0 -0.0592848 -39.678 0.356927 0zm0.123239 -0.7571l-0.60503 0.393879 0.605842 -0.00101515 -1.8427 2.85176 -0.606452 -0.391848 1.8427 -2.85176 0.605639 -0.00101515zm0 0l-0.605639 0.00101515 0.302109 -0.467376 0.30353 0.466361zm1.54993 3.04322l-0.302515 0.196939 -1.85245 -2.84628 0.60503 -0.393879 1.85265 2.84628 -0.302718 0.196939z"/>
  </g>
  <line class="fil0 str0" x1="5.90229" y1="55.6735" x2="13.8089" y2= "55.6735" />
  <path class="fil2" d="M3.56318 30.7057l-1.179 4.07543c0.508591,-0.766439 0.905312,-1.27645 1.19179,-1.52862 0.285055,-0.250539 0.557318,-0.376621 0.818009,-0.376621 0.134609,0 0.246276,0.0458848 0.335203,0.137452 0.0901455,0.0931909 0.134609,0.21643 0.134609,0.369718 0,0.184758 -0.0385758,0.408091 -0.117352,0.671827l-0.511433 1.75763c-0.0645636,0.213385 -0.0974545,0.330736 -0.0974545,0.352258 0,0.0402 0.0113697,0.0716697 0.0357333,0.0974545 0.0243636,0.0243636 0.0515697,0.0373576 0.0818212,0.0373576 0.0371545,0 0.0787758,-0.0172576 0.125879,-0.0546152 0.159176,-0.123036 0.318148,-0.293582 0.474279,-0.51123l0.130345 0.0787758c-0.0946121,0.148821 -0.2278,0.312261 -0.396924,0.489912 -0.168921,0.177652 -0.315103,0.300688 -0.436718,0.369515 -0.121818,0.0674061 -0.229221,0.101718 -0.325255,0.101718 -0.103139,0 -0.1876,-0.0328909 -0.253585,-0.0988758 -0.0657818,-0.0643606 -0.0988758,-0.150445 -0.0988758,-0.253585 0,-0.123239 0.0487273,-0.352258 0.147603,-0.687461l0.482806 -1.67886c0.0615182,-0.210745 0.0915667,-0.375403 0.0915667,-0.4958 0,-0.0558333 -0.0170545,-0.100297 -0.0515697,-0.134609 -0.0357333,-0.0328909 -0.0816182,-0.0501485 -0.137452,-0.0501485 -0.080197,0 -0.173388,0.0314697 -0.276527,0.0931909 -0.190442,0.117352 -0.409715,0.335203 -0.658833,0.65457 -0.0674061,0.0858818 -0.290942,0.4355 -0.671827,1.04865 -0.117555,0.196127 -0.213588,0.409715 -0.289521,0.641779l-0.267797 0.860848 -0.630206 0 1.38081 -4.80167 0.147603 -0.519961c0,-0.0730909 -0.0300485,-0.137655 -0.0903485,-0.193488 -0.060097,-0.0558333 -0.134609,-0.0830394 -0.220491,-0.0830394 -0.0501485,0 -0.127503,0.00852727 -0.230642,0.0243636l-0.0889273 0.0129939 0 -0.163439 1.45268 -0.243433z"/>
  <path class="fil2" d="M45.4666 10.624l-0.671827 2.25485 0.747761 0c0.335203,0 0.587367,-0.0529909 0.753445,-0.15613 0.166282,-0.103139 0.338248,-0.323833 0.514276,-0.6633l0.159176 0 -0.59163 2.07274 -0.167703 0c0.0416212,-0.1675 0.0631424,-0.305155 0.0631424,-0.4154 0,-0.170545 -0.0574576,-0.302312 -0.170545,-0.3953 -0.113088,-0.0946121 -0.325255,-0.141918 -0.636094,-0.141918l-0.754867 0 -0.495597 1.71764c-0.0889273,0.305155 -0.134609,0.506967 -0.134609,0.607264 0,0.104561 0.0385758,0.183336 0.11593,0.239373 0.0773545,0.0572545 0.264955,0.0944091 0.564424,0.114509l-0.0501485 0.154709 -2.24897 0 0.0544121 -0.154709c0.217648,-0.00568485 0.36383,-0.0257848 0.4355,-0.0586758 0.111667,-0.0487273 0.194706,-0.113291 0.247697,-0.193488 0.0759333,-0.114509 0.164861,-0.350836 0.269421,-0.708982l1.00277 -3.42938c0.080197,-0.276527 0.121615,-0.494176 0.121615,-0.650306 0,-0.0730909 -0.0184758,-0.134812 -0.0544121,-0.186382 -0.0371545,-0.0515697 -0.0901455,-0.0901455 -0.161815,-0.11593 -0.0716697,-0.0243636 -0.213385,-0.0371545 -0.425348,-0.0371545l0.0501485 -0.156333 4.41489 0 -0.419867 1.43969 -0.160394 0c0.0314697,-0.173185 0.0473061,-0.315103 0.0473061,-0.428191 0,-0.184758 -0.0515697,-0.330939 -0.153288,-0.438342 -0.103139,-0.107403 -0.233485,-0.183336 -0.392458,-0.2278 -0.11187,-0.0286273 -0.362409,-0.0430424 -0.752024,-0.0430424l-1.12032 0z"/>
  <path class="fil2" d="M23.2927 2.99064l0.0588788 -0.156333 2.03112 0c0.340888,0 0.644621,0.0531939 0.912621,0.160597 0.266376,0.105982 0.46697,0.253585 0.600158,0.444027 0.133188,0.190442 0.199173,0.392458 0.199173,0.604421 0,0.328097 -0.118976,0.6231 -0.355303,0.888258 -0.236327,0.263533 -0.621679,0.459864 -1.15605,0.584321 0.345152,0.128924 0.597315,0.29947 0.760552,0.512855 0.162018,0.211964 0.243636,0.445652 0.243636,0.700455 0,0.282212 -0.0730909,0.553055 -0.219273,0.810903 -0.144558,0.256427 -0.332158,0.457021 -0.559958,0.598736 -0.2278,0.143339 -0.502906,0.2479 -0.825115,0.315103 -0.229221,0.0473061 -0.587367,0.0716697 -1.07444,0.0716697l-2.08573 0 0.0544121 -0.154709c0.219273,-0.00568485 0.366876,-0.0272061 0.445652,-0.0629394 0.111667,-0.0487273 0.191864,-0.11187 0.23917,-0.189224 0.0674061,-0.105982 0.15613,-0.349415 0.267797,-0.730503l1.02002 -3.44522c0.087303,-0.290739 0.130345,-0.495597 0.130345,-0.612948 0,-0.103139 -0.0387788,-0.184758 -0.114712,-0.245058 -0.0773545,-0.060097 -0.223333,-0.0901455 -0.439764,-0.0901455 -0.047103,0 -0.0915667,-0.00142121 -0.133188,-0.00426364zm0.8509 2.36205c0.181915,0.00568485 0.313682,0.00852727 0.395503,0.00852727 0.581479,0 1.01414,-0.125879 1.29919,-0.379464 0.283633,-0.253585 0.425348,-0.570109 0.425348,-0.951197 0,-0.287897 -0.087303,-0.512855 -0.260691,-0.673248 -0.173185,-0.160394 -0.449712,-0.240794 -0.8308,-0.240794 -0.100297,0 -0.229221,0.0158364 -0.385352,0.0501485l-0.6432 2.18603zm-0.826536 2.80344c0.302312,0.039997 0.538639,0.0586758 0.709185,0.0586758 0.436921,0 0.823694,-0.131767 1.16032,-0.393879 0.338045,-0.263736 0.505545,-0.620258 0.505545,-1.07017 0,-0.34373 -0.103139,-0.613152 -0.312261,-0.806436 -0.2077,-0.193488 -0.544324,-0.289318 -1.00845,-0.289318 -0.0901455,0 -0.199173,0.00426364 -0.328097,0.0127909l-0.726239 2.48834z"/>
  <path class="fil2" d="M63.2498 54.0885l-0.432658 4.73284c-0.0229424,0.221912 -0.0328909,0.366673 -0.0328909,0.436921 0,0.111667 0.019897,0.197548 0.0629394,0.256427 0.0529909,0.080197 0.124661,0.140294 0.214806,0.180494 0.0917697,0.0385758 0.245058,0.0586758 0.459864,0.0586758l-0.0458848 0.154709 -2.24024 0 0.0456818 -0.154709 0.0960333 0c0.181915,0 0.330939,-0.0402 0.445448,-0.117555 0.080197,-0.0544121 0.143339,-0.141715 0.189224,-0.264955 0.0300485,-0.087303 0.060097,-0.290739 0.087303,-0.613152l0.0674061 -0.721976 -1.62891 0 -0.578636 0.785118c-0.131767,0.17623 -0.213385,0.303733 -0.2479,0.379667 -0.0328909,0.0773545 -0.0499455,0.148821 -0.0499455,0.216227 0,0.0901455 0.0357333,0.166079 0.108824,0.230642 0.0730909,0.0643606 0.193285,0.100297 0.360988,0.105982l-0.0458848 0.154709 -1.68312 0 0.0458848 -0.154709c0.2077,-0.00852727 0.389615,-0.0787758 0.548588,-0.2077 0.157552,-0.130345 0.392458,-0.408294 0.706139,-0.833642l3.39934 -4.62402 0.147603 0zm-0.831003 1.39665l-1.65023 2.2447 1.43116 0 0.21907 -2.2447z"/>
  <g>
   <path class="fil2" d="M29.9391 39.3012l-9.18144 -14.1 0.299267 -0.194503 9.18144 14.1 -0.299267 0.194503zm0.308606 0.702079l0.293176 -0.659848 -0.507576 0.330736 -0.00690303 -3.39528 0.721976 -0.00142121 0.00690303 3.39507 -0.507576 0.330736zm0 0l0.507576 -0.330736 0.00121818 0.556709 -0.508794 -0.225973zm-2.95673 -1.7087l0.146588 -0.329924 3.10332 1.37878 -0.293176 0.659848 -3.10332 -1.37898 0.146588 -0.329721z"/>
  </g>
  <polygon class="fil2" points="26.0378,26.0866 25.473,26.2333 24.3299,24.3852 24.8948,24.2386 "/>
  <polygon class="fil2" points="17.6346,30.5737 19.4156,29.4711 18.3174,27.6974 18.61,27.5165 19.7082,29.2902 21.482,28.192 21.6629,28.4845 19.8891,29.5827 20.9915,31.3637 20.6989,31.5446 19.5965,29.7636 17.8155,30.8663 "/>
 </g>
</svg>
