<?xml version="1.0" encoding="UTF-8"?>
<!DOCTYPE svg PUBLIC "-//W3C//DTD SVG 1.1//EN" "http://www.w3.org/Graphics/SVG/1.1/DTD/svg11.dtd">
<!-- Creator: CorelDRAW -->
<svg xmlns="http://www.w3.org/2000/svg" xml:space="preserve" width="146mm" height="86mm" style="shape-rendering:geometricPrecision; text-rendering:geometricPrecision; image-rendering:optimizeQuality; fill-rule:evenodd; clip-rule:evenodd"
viewBox="0 0 146 86">
 <defs>
  <style type="text/css">
   <![CDATA[
    .str2 {stroke:#1F1A17;stroke-width:0.0762}
    .str0 {stroke:#1F1A17;stroke-width:0.1764}
    .str1 {stroke:#1F1A17;stroke-width:0.7056}
    .fil1 {fill:none}
    .fil2 {fill:#1F1A17;fill-rule:nonzero}
    .fil0 {fill:url(#id0)}
   ]]>
  </style>
  <linearGradient id="id0" gradientUnits="userSpaceOnUse" x1="43.9769" y1="16.763" x2="132.845" y2="16.763">
   <stop offset="0" style="stop-color:#C2C1C1"/>
   <stop offset="1" style="stop-color:#C2C1C1"/>
  </linearGradient>
 </defs>
 <g id="Layer_x0020_1">
  <metadata id="CorelCorpID_0Corel-Layer"/>
  <polygon class="fil0 str0" points="57.4553,12.3712 132.845,12.9751 119.188,21.1548 43.9769,20.5729 "/>
  <line class="fil1 str0" x1="70.6272" y1="47.2586" x2="138.124" y2= "6.1862" />
  <line class="fil1 str0" x1="64.8116" y1="47.2224" x2="132.094" y2= "6.2805" />
  <line class="fil1 str0" x1="53.1795" y1="47.1501" x2="120.254" y2= "6.3346" />
  <line class="fil1 str0" x1="47.3642" y1="47.1139" x2="114.348" y2= "6.3535" />
  <line class="fil1 str0" x1="41.5477" y1="47.0777" x2="108.494" y2= "6.3403" />
  <line class="fil1 str0" x1="35.732" y1="47.0415" x2="102.678" y2= "6.304" />
  <line class="fil1 str0" x1="29.9166" y1="47.0053" x2="96.9279" y2= "6.2282" />
  <line class="fil1 str0" x1="24.0995" y1="46.9691" x2="91.2282" y2= "6.1206" />
  <line class="fil1 str0" x1="18.2843" y1="46.9329" x2="85.3222" y2= "6.1396" />
  <line class="fil1 str0" x1="6.6524" y1="46.8605" x2="73.6234" y2= "6.1079" />
  <line class="fil1 str1" x1="0.8365" y1="46.8243" x2="68.0626" y2= "5.9165" />
  <line class="fil1 str1" x1="52.6839" y1="15.3844" x2="128.329" y2= "15.8605" />
  <polyline class="fil1 str1" points="36.9296,24.9154 94.0775,25.2898 112.451,25.4102 "/>
  <line class="fil1 str1" x1="76.326" y1="47.3675" x2="144.371" y2= "5.9613" />
  <line class="fil1 str0" x1="12.3026" y1="47.0012" x2="79.4374" y2= "6.1489" />
  <line class="fil1 str0" x1="59.2414" y1="47.0365" x2="126.06" y2= "6.3767" />
  <line class="fil1 str1" x1="76.2622" y1="47.3164" x2="76.2122" y2= "76.3152" />
  <line class="fil1 str1" x1="76.2622" y1="47.3164" x2="76.2122" y2= "76.3152" />
  <line class="fil1 str1" x1="76.2622" y1="47.3164" x2="76.2122" y2= "76.3152" />
  <line class="fil1 str0" x1="96.5234" y1="35.0087" x2="96.4734" y2= "64.0075" />
  <line class="fil1 str2" x1="112.473" y1="25.4184" x2="112.423" y2= "54.4173" />
  <line class="fil1 str1" x1="128.422" y1="15.8282" x2="128.372" y2= "44.827" />
  <line class="fil1 str1" x1="144.371" y1="5.9553" x2="144.321" y2= "35.2367" />
  <line class="fil1 str1" x1="0.8993" y1="46.9022" x2="0.8493" y2= "75.9011" />
  <line class="fil1 str0" x1="36.8796" y1="24.9241" x2="112.501" y2= "25.4015" />
  <line class="fil1 str1" x1="39.7433" y1="30.0795" x2="109.579" y2= "30.5569" />
  <line class="fil1 str1" x1="36.9425" y1="24.9873" x2="39.7842" y2= "30.0985" />
  <line class="fil1 str1" x1="42.8483" y1="24.8902" x2="45.69" y2= "30.0014" />
  <line class="fil1 str1" x1="48.6539" y1="24.7931" x2="51.5361" y2= "29.9744" />
  <line class="fil1 str1" x1="54.462" y1="24.8413" x2="57.3443" y2= "30.0227" />
  <line class="fil1 str1" x1="60.2701" y1="24.8896" x2="63.1524" y2= "30.0709" />
  <line class="fil1 str1" x1="66.0782" y1="24.9379" x2="68.9605" y2= "30.1192" />
  <line class="fil1 str1" x1="71.8864" y1="24.9861" x2="74.7686" y2= "30.1675" />
  <line class="fil1 str1" x1="77.6945" y1="25.0344" x2="80.5767" y2= "30.2157" />
  <line class="fil1 str1" x1="83.5026" y1="25.0826" x2="86.3848" y2= "30.264" />
  <line class="fil1 str1" x1="89.3107" y1="25.1309" x2="92.1929" y2= "30.3122" />
  <line class="fil1 str1" x1="95.1188" y1="25.1791" x2="98.0011" y2= "30.3605" />
  <line class="fil1 str1" x1="100.927" y1="25.2274" x2="103.809" y2= "30.4087" />
  <line class="fil1 str1" x1="106.735" y1="25.2756" x2="109.617" y2= "30.457" />
  <line class="fil1 str1" x1="42.6024" y1="25.1208" x2="39.7431" y2= "30.232" />
  <line class="fil1 str1" x1="48.5082" y1="25.0237" x2="45.6488" y2= "30.1348" />
  <line class="fil1 str1" x1="54.2241" y1="25.0659" x2="51.4979" y2= "30.1069" />
  <line class="fil1 str1" x1="60.0322" y1="25.1141" x2="57.306" y2= "30.1551" />
  <line class="fil1 str1" x1="65.8403" y1="25.1624" x2="63.1141" y2= "30.2034" />
  <line class="fil1 str1" x1="71.6484" y1="25.2106" x2="68.9222" y2= "30.2516" />
  <line class="fil1 str1" x1="77.4565" y1="25.2589" x2="74.7303" y2= "30.2999" />
  <line class="fil1 str1" x1="83.2647" y1="25.3071" x2="80.5384" y2= "30.3482" />
  <line class="fil1 str1" x1="89.0728" y1="25.3554" x2="86.3466" y2= "30.3964" />
  <line class="fil1 str1" x1="94.8809" y1="25.4037" x2="92.1547" y2= "30.4447" />
  <line class="fil1 str1" x1="100.689" y1="25.4519" x2="97.9628" y2= "30.4929" />
  <line class="fil1 str1" x1="106.497" y1="25.5002" x2="103.771" y2= "30.5412" />
  <line class="fil1 str1" x1="112.305" y1="25.5484" x2="109.579" y2= "30.5894" />
  <line class="fil1 str1" x1="52.2964" y1="15.5377" x2="127.917" y2= "16.0151" />
  <line class="fil1 str1" x1="55.16" y1="20.6931" x2="124.996" y2= "21.1705" />
  <line class="fil1 str1" x1="52.3593" y1="15.601" x2="55.201" y2= "20.7121" />
  <line class="fil1 str1" x1="58.265" y1="15.5038" x2="61.1068" y2= "20.615" />
  <line class="fil1 str1" x1="64.0707" y1="15.4067" x2="66.9529" y2= "20.5881" />
  <line class="fil1 str1" x1="69.8788" y1="15.455" x2="72.761" y2= "20.6363" />
  <line class="fil1 str1" x1="75.6869" y1="15.5032" x2="78.5691" y2= "20.6846" />
  <line class="fil1 str1" x1="81.495" y1="15.5515" x2="84.3772" y2= "20.7328" />
  <line class="fil1 str1" x1="87.3031" y1="15.5997" x2="90.1854" y2= "20.7811" />
  <line class="fil1 str1" x1="93.1112" y1="15.648" x2="95.9935" y2= "20.8293" />
  <line class="fil1 str1" x1="98.9193" y1="15.6962" x2="101.802" y2= "20.8776" />
  <line class="fil1 str1" x1="104.728" y1="15.7445" x2="107.61" y2= "20.9258" />
  <line class="fil1 str1" x1="110.536" y1="15.7927" x2="113.418" y2= "20.9741" />
  <line class="fil1 str1" x1="116.344" y1="15.841" x2="119.226" y2= "21.0223" />
  <line class="fil1 str1" x1="122.152" y1="15.8893" x2="125.034" y2= "21.0706" />
  <line class="fil1 str1" x1="58.0192" y1="15.7344" x2="55.1598" y2= "20.8456" />
  <line class="fil1 str1" x1="63.925" y1="15.6373" x2="61.0656" y2= "20.7485" />
  <line class="fil1 str1" x1="69.6409" y1="15.6795" x2="66.9146" y2= "20.7205" />
  <line class="fil1 str1" x1="75.449" y1="15.7278" x2="72.7228" y2= "20.7688" />
  <line class="fil1 str1" x1="81.2571" y1="15.776" x2="78.5309" y2= "20.817" />
  <line class="fil1 str1" x1="87.0652" y1="15.8243" x2="84.339" y2= "20.8653" />
  <line class="fil1 str1" x1="92.8733" y1="15.8725" x2="90.1471" y2= "20.9135" />
  <line class="fil1 str1" x1="98.6814" y1="15.9208" x2="95.9552" y2= "20.9618" />
  <line class="fil1 str1" x1="104.49" y1="15.969" x2="101.763" y2= "21.01" />
  <line class="fil1 str1" x1="110.298" y1="16.0173" x2="107.571" y2= "21.0583" />
  <line class="fil1 str1" x1="116.106" y1="16.0655" x2="113.38" y2= "21.1065" />
  <line class="fil1 str1" x1="121.914" y1="16.1138" x2="119.188" y2= "21.1548" />
  <line class="fil1 str1" x1="127.722" y1="16.162" x2="124.996" y2= "21.203" />
  <line class="fil1 str1" x1="67.6408" y1="5.7344" x2="143.262" y2= "6.2117" />
  <line class="fil1 str1" x1="70.5044" y1="10.8898" x2="140.34" y2= "11.3671" />
  <line class="fil1 str1" x1="67.7037" y1="5.7976" x2="70.5454" y2= "10.9088" />
  <line class="fil1 str1" x1="73.6094" y1="5.7005" x2="76.4512" y2= "10.8116" />
  <line class="fil1 str1" x1="79.4151" y1="5.6033" x2="82.2973" y2= "10.7847" />
  <line class="fil1 str1" x1="85.2232" y1="5.6516" x2="88.1054" y2= "10.8329" />
  <line class="fil1 str1" x1="91.0313" y1="5.6998" x2="93.9135" y2= "10.8812" />
  <line class="fil1 str1" x1="96.8394" y1="5.7481" x2="99.7216" y2= "10.9294" />
  <line class="fil1 str1" x1="102.648" y1="5.7964" x2="105.53" y2= "10.9777" />
  <line class="fil1 str1" x1="108.456" y1="5.8446" x2="111.338" y2= "11.026" />
  <line class="fil1 str1" x1="114.264" y1="5.8929" x2="117.146" y2= "11.0742" />
  <line class="fil1 str1" x1="120.072" y1="5.9411" x2="122.954" y2= "11.1225" />
  <line class="fil1 str1" x1="125.88" y1="5.9894" x2="128.762" y2= "11.1707" />
  <line class="fil1 str1" x1="131.688" y1="6.0376" x2="134.57" y2= "11.219" />
  <line class="fil1 str1" x1="137.496" y1="6.0859" x2="140.378" y2= "11.2672" />
  <line class="fil1 str1" x1="73.3636" y1="5.931" x2="70.5042" y2= "11.0422" />
  <line class="fil1 str1" x1="79.2694" y1="5.8339" x2="76.41" y2= "10.9451" />
  <line class="fil1 str1" x1="84.9853" y1="5.8761" x2="82.259" y2= "10.9171" />
  <line class="fil1 str1" x1="90.7934" y1="5.9244" x2="88.0672" y2= "10.9654" />
  <line class="fil1 str1" x1="96.6015" y1="5.9726" x2="93.8753" y2= "11.0136" />
  <line class="fil1 str1" x1="102.41" y1="6.0209" x2="99.6834" y2= "11.0619" />
  <line class="fil1 str1" x1="108.218" y1="6.0691" x2="105.492" y2= "11.1101" />
  <line class="fil1 str1" x1="114.026" y1="6.1174" x2="111.3" y2= "11.1584" />
  <line class="fil1 str1" x1="119.834" y1="6.1656" x2="117.108" y2= "11.2067" />
  <line class="fil1 str1" x1="125.642" y1="6.2139" x2="122.916" y2= "11.2549" />
  <line class="fil1 str1" x1="131.45" y1="6.2622" x2="128.724" y2= "11.3032" />
  <line class="fil1 str1" x1="137.258" y1="6.3104" x2="134.532" y2= "11.3514" />
  <line class="fil1 str1" x1="143.066" y1="6.3587" x2="140.34" y2= "11.3997" />
  <line class="fil1 str0" x1="21.0101" y1="34.7262" x2="20.9601" y2= "63.725" />
  <line class="fil1 str0" x1="36.8776" y1="24.9555" x2="36.8276" y2= "53.9543" />
  <line class="fil1 str1" x1="52.3344" y1="15.6766" x2="52.2843" y2= "44.6754" />
  <line class="fil1 str1" x1="67.8481" y1="5.9052" x2="67.7981" y2= "34.904" />
  <line class="fil1 str0" x1="96.5234" y1="35.0767" x2="103.264" y2= "25.3499" />
  <line class="fil1 str0" x1="79.1748" y1="35.0433" x2="103.264" y2= "25.3499" />
  <line class="fil1 str0" x1="79.1748" y1="35.0433" x2="86.6546" y2= "25.2405" />
  <line class="fil1 str0" x1="61.7505" y1="34.899" x2="86.6546" y2= "25.2405" />
  <line class="fil1 str0" x1="61.6861" y1="34.823" x2="67.815" y2= "25.1189" />
  <line class="fil1 str0" x1="45.2074" y1="34.1242" x2="67.815" y2= "25.1189" />
  <line class="fil1 str0" x1="45.2074" y1="34.1242" x2="51.0309" y2= "25.0079" />
  <line class="fil1 str0" x1="26.9043" y1="34.7542" x2="51.0309" y2= "25.0079" />
  <line class="fil1 str0" x1="27.291" y1="34.5974" x2="36.9296" y2= "24.9156" />
  <line class="fil1 str0" x1="21.1464" y1="34.2585" x2="37.0456" y2= "53.5987" />
  <line class="fil1 str0" x1="36.9283" y1="24.7303" x2="21.0965" y2= "63.1889" />
  <line class="fil1 str2" x1="96.5234" y1="35.0767" x2="112.423" y2= "54.417" />
  <line class="fil1 str0" x1="112.305" y1="25.5485" x2="96.4734" y2= "64.0072" />
  <line class="fil1 str0" x1="22.2487" y1="33.7946" x2="37.9484" y2= "24.2412" />
  <line class="fil1 str0" x1="96.1645" y1="35.2955" x2="111.864" y2= "25.7421" />
  <line class="fil1 str1" x1="0.8364" y1="46.839" x2="76.4574" y2= "47.3164" />
  <line class="fil1 str1" x1="3.7001" y1="51.9944" x2="73.5359" y2= "52.4718" />
  <line class="fil1 str1" x1="0.8993" y1="46.9022" x2="3.7411" y2= "52.0134" />
  <line class="fil1 str1" x1="6.8051" y1="46.8051" x2="9.6468" y2= "51.9163" />
  <line class="fil1 str1" x1="12.6107" y1="46.708" x2="15.4929" y2= "51.8893" />
  <line class="fil1 str1" x1="18.4188" y1="46.7563" x2="21.3011" y2= "51.9376" />
  <line class="fil1 str1" x1="24.2269" y1="46.8045" x2="27.1092" y2= "51.9859" />
  <line class="fil1 str1" x1="30.035" y1="46.8528" x2="32.9173" y2= "52.0341" />
  <line class="fil1 str1" x1="35.8432" y1="46.901" x2="38.7254" y2= "52.0824" />
  <line class="fil1 str1" x1="41.6513" y1="46.9493" x2="44.5335" y2= "52.1306" />
  <line class="fil1 str1" x1="47.4594" y1="46.9975" x2="50.3416" y2= "52.1789" />
  <line class="fil1 str1" x1="53.2675" y1="47.0458" x2="56.1497" y2= "52.2271" />
  <line class="fil1 str1" x1="59.0756" y1="47.094" x2="61.9579" y2= "52.2754" />
  <line class="fil1 str1" x1="64.8837" y1="47.1423" x2="67.766" y2= "52.3236" />
  <line class="fil1 str1" x1="70.6918" y1="47.1905" x2="73.5741" y2= "52.3719" />
  <line class="fil1 str1" x1="6.5592" y1="47.0357" x2="3.6999" y2= "52.1469" />
  <line class="fil1 str1" x1="12.465" y1="46.9386" x2="9.6056" y2= "52.0498" />
  <line class="fil1 str1" x1="18.1809" y1="46.9808" x2="15.4547" y2= "52.0218" />
  <line class="fil1 str1" x1="23.989" y1="47.029" x2="21.2628" y2= "52.07" />
  <line class="fil1 str1" x1="29.7971" y1="47.0773" x2="27.0709" y2= "52.1183" />
  <line class="fil1 str1" x1="35.6052" y1="47.1255" x2="32.879" y2= "52.1666" />
  <line class="fil1 str1" x1="41.4134" y1="47.1738" x2="38.6871" y2= "52.2148" />
  <line class="fil1 str1" x1="47.2215" y1="47.2221" x2="44.4953" y2= "52.2631" />
  <line class="fil1 str1" x1="53.0296" y1="47.2703" x2="50.3034" y2= "52.3113" />
  <line class="fil1 str1" x1="58.8377" y1="47.3186" x2="56.1115" y2= "52.3596" />
  <line class="fil1 str1" x1="64.6458" y1="47.3668" x2="61.9196" y2= "52.4078" />
  <line class="fil1 str1" x1="70.4539" y1="47.4151" x2="67.7277" y2= "52.4561" />
  <line class="fil1 str1" x1="76.262" y1="47.4633" x2="73.5358" y2= "52.5043" />
  <polyline class="fil1 str1" points="20.8479,34.5556 77.9958,34.93 96.369,35.0504 "/>
  <line class="fil1 str1" x1="23.7993" y1="39.9441" x2="93.6351" y2= "40.4215" />
  <line class="fil1 str1" x1="20.9985" y1="34.8519" x2="23.8403" y2= "39.9631" />
  <line class="fil1 str1" x1="26.9043" y1="34.7548" x2="29.746" y2= "39.866" />
  <line class="fil1 str1" x1="32.7099" y1="34.6577" x2="35.5922" y2= "39.839" />
  <line class="fil1 str1" x1="38.518" y1="34.7059" x2="41.4003" y2= "39.8873" />
  <line class="fil1 str1" x1="44.3262" y1="34.7542" x2="47.2084" y2= "39.9355" />
  <line class="fil1 str1" x1="50.1343" y1="34.8024" x2="53.0165" y2= "39.9838" />
  <line class="fil1 str1" x1="55.9424" y1="34.8507" x2="58.8246" y2= "40.032" />
  <line class="fil1 str1" x1="61.7505" y1="34.8989" x2="64.6327" y2= "40.0803" />
  <line class="fil1 str1" x1="67.5586" y1="34.9472" x2="70.4409" y2= "40.1285" />
  <line class="fil1 str1" x1="73.3667" y1="34.9954" x2="76.249" y2= "40.1768" />
  <line class="fil1 str1" x1="79.1748" y1="35.0437" x2="82.0571" y2= "40.225" />
  <line class="fil1 str1" x1="84.983" y1="35.0919" x2="87.8652" y2= "40.2733" />
  <line class="fil1 str1" x1="90.7911" y1="35.1402" x2="93.6733" y2= "40.3215" />
  <line class="fil1 str1" x1="26.6585" y1="34.9854" x2="23.7991" y2= "40.0965" />
  <line class="fil1 str1" x1="32.5642" y1="34.8882" x2="29.7048" y2= "39.9994" />
  <line class="fil1 str1" x1="38.2801" y1="34.9304" x2="35.5539" y2= "39.9715" />
  <line class="fil1 str1" x1="44.0882" y1="34.9787" x2="41.362" y2= "40.0197" />
  <line class="fil1 str1" x1="49.8964" y1="35.027" x2="47.1701" y2= "40.068" />
  <line class="fil1 str1" x1="55.7045" y1="35.0752" x2="52.9782" y2= "40.1162" />
  <line class="fil1 str1" x1="61.5126" y1="35.1235" x2="58.7864" y2= "40.1645" />
  <line class="fil1 str1" x1="67.3207" y1="35.1717" x2="64.5945" y2= "40.2127" />
  <line class="fil1 str1" x1="73.1288" y1="35.22" x2="70.4026" y2= "40.261" />
  <line class="fil1 str1" x1="78.9369" y1="35.2682" x2="76.2107" y2= "40.3092" />
  <line class="fil1 str1" x1="84.745" y1="35.3165" x2="82.0188" y2= "40.3575" />
  <line class="fil1 str1" x1="90.5531" y1="35.3647" x2="87.8269" y2= "40.4057" />
  <line class="fil1 str1" x1="96.3613" y1="35.413" x2="93.635" y2= "40.454" />
  <g>
   <path class="fil2" d="M40.2339 16.728l-0.1733 -0.2428 0.6131 -1.5557 0.3308 0.1303 -0.6131 1.5558 -0.1734 -0.2428 0.0159 0.3552zm0 0l-0.2739 0.0123 0.1006 -0.2551 0.1733 0.2428zm1.663 -0.2524l0.008 0.1776 -1.671 0.0748 -0.0159 -0.3552 1.671 -0.0748 0.0079 0.1776zm13.2177 -10.4519l-14.6131 10.4381 -0.102 -0.1434 14.6131 -10.4381 0.102 0.1434zm0.339 -0.1669l-0.3309 -0.1303 0.1734 0.2428 -1.6705 0.0754 -0.016 -0.3552 1.6705 -0.0754 0.1735 0.2427zm0 0l-0.1735 -0.2427 0.2739 -0.0124 -0.1004 0.2551zm-0.7782 1.4912l-0.1654 -0.0651 0.6127 -1.5564 0.3309 0.1303 -0.6127 1.5564 -0.1655 -0.0652z"/>
  </g>
  <line class="fil1 str0" x1="40.061" y1="12.7208" x2="40.0541" y2= "19.6682" />
  <line class="fil1 str0" x1="55.4631" y1="2.0334" x2="55.4563" y2= "10.137" />
  <path class="fil2" d="M46.885 8.2318l-0.3877 1.428c0.1257,-0.1376 0.2348,-0.2321 0.3283,-0.2829 0.0936,-0.0508 0.1911,-0.0762 0.2926,-0.0762 0.1436,0 0.2609,0.0501 0.3516,0.1503 0.0913,0.1009 0.1365,0.237 0.1362,0.4099 -0.0004,0.2215 -0.0602,0.4424 -0.1808,0.6625 -0.1206,0.2194 -0.271,0.3909 -0.4529,0.5136 -0.1811,0.1221 -0.3602,0.1835 -0.5365,0.1835 -0.1969,0 -0.3984,-0.0776 -0.6058,-0.2335l0.5986 -2.164c0.0457,-0.1665 0.0686,-0.2646 0.0687,-0.2935 0,-0.036 -0.01,-0.0628 -0.0307,-0.0804 -0.0299,-0.0254 -0.0746,-0.0374 -0.1334,-0.0374 -0.0274,0 -0.0687,0.0049 -0.1249,0.0141l0.0002 -0.0783 0.6765 -0.1157zm-0.7613 2.7777c0.1301,0.0762 0.2449,0.1143 0.3437,0.1143 0.1148,0 0.2338,-0.0444 0.3574,-0.1333 0.1237,-0.0889 0.2308,-0.2392 0.3213,-0.4502 0.0912,-0.2102 0.1369,-0.4233 0.1373,-0.6385 0.0002,-0.127 -0.029,-0.2258 -0.0883,-0.2977 -0.0593,-0.0713 -0.1293,-0.1073 -0.2101,-0.1073 -0.1216,0 -0.2404,0.0515 -0.3561,0.1538 -0.1164,0.103 -0.1995,0.2456 -0.2492,0.429l-0.256 0.9299z"/>
 </g>
</svg>
