<?xml version="1.0" encoding="UTF-8"?>
<!DOCTYPE svg PUBLIC "-//W3C//DTD SVG 1.1//EN" "http://www.w3.org/Graphics/SVG/1.1/DTD/svg11.dtd">
<!-- Creator: CorelDRAW -->
<svg xmlns="http://www.w3.org/2000/svg" xml:space="preserve" width="67mm" height="43mm" style="shape-rendering:geometricPrecision; text-rendering:geometricPrecision; image-rendering:optimizeQuality; fill-rule:evenodd; clip-rule:evenodd"
viewBox="0 0 67 43">
 <defs>
  <style type="text/css">
   <![CDATA[
    .str0 {stroke:#1F1A17;stroke-width:0.1764}
    .str1 {stroke:#1F1A17;stroke-width:0.3528}
    .fil2 {fill:none}
    .fil1 {fill:#1F1A17;fill-rule:nonzero}
    .fil0 {fill:url(#id0)}
   ]]>
  </style>
  <linearGradient id="id0" gradientUnits="userSpaceOnUse" x1="34.0584" y1="-7.6602" x2="124.606" y2="-7.6602">
   <stop offset="0" style="stop-color:white"/>
   <stop offset="1" style="stop-color:white"/>
  </linearGradient>
 </defs>
 <g id="Layer_x0020_1">
  <metadata id="CorelCorpID_0Corel-Layer"/>
  <rect class="fil0" x="34.0584" y="-11.5399" width="90.5473" height="7.7596"/>
  <path class="fil1" d="M30.0597 38.1352l-2.0772 0 0.029 -0.0762c0.11,-0.0028 0.1834,-0.012 0.2208,-0.0268 0.0578,-0.0254 0.1009,-0.0579 0.1284,-0.0974 0.0423,-0.0635 0.0882,-0.1778 0.1362,-0.3436l0.4939 -1.7053c0.0416,-0.1404 0.062,-0.2434 0.062,-0.3097 0,-0.0522 -0.019,-0.0932 -0.0564,-0.1221 -0.0381,-0.0289 -0.1094,-0.043 -0.2145,-0.043 -0.0233,0 -0.0416,-0.0007 -0.0557,-0.0021l0.0247 -0.077 1.1437 0 -0.017 0.077c-0.1277,0 -0.2187,0.0119 -0.273,0.0366 -0.0536,0.0254 -0.0981,0.0657 -0.1341,0.1221 -0.0247,0.0374 -0.0656,0.1531 -0.122,0.3478l-0.4854 1.6757c-0.0374,0.127 -0.0558,0.2152 -0.0558,0.2646 0,0.0332 0.0184,0.0649 0.0558,0.0953 0.0232,0.0211 0.0762,0.031 0.1587,0.031l0.2709 0c0.1969,0 0.3535,-0.0247 0.4692,-0.0741 0.0854,-0.0374 0.1644,-0.0931 0.2357,-0.1679 0.0388,-0.0409 0.1065,-0.1439 0.2046,-0.3076l0.0536 -0.0932 0.0769 0 -0.273 0.7959z"/>
  <line class="fil2 str0" x1="6.0832" y1="8.1394" x2="52.6329" y2= "8.1394" />
  <g>
   <path class="fil1" d="M8.685 40.02l0 -0.2984 1.4032 -0.9096 0.1934 0.2984 -1.4032 0.9096 0.0001 -0.2984 -0.1935 0.2984zm0 0l-0.23 -0.1493 0.23 -0.1491 0 0.2984zm1.4999 0.7611l-0.0967 0.1492 -1.4032 -0.9103 0.1935 -0.2984 1.4032 0.9104 -0.0968 0.1491zm40.8995 -0.8221l-42.0268 0 0 -0.1764 42.0268 0 0 0.1764zm0.3726 0.061l-0.1935 -0.2984 0.0001 0.2984 -1.4032 -0.9096 0.1934 -0.2984 1.4032 0.9096 0 0.2984zm0 0l0 -0.2984 0.23 0.1491 -0.23 0.1493zm-1.4999 0.7611l-0.0968 -0.1491 1.4032 -0.9104 0.1935 0.2984 -1.4032 0.9103 -0.0967 -0.1492z"/>
  </g>
  <line class="fil2 str0" x1="6.0832" y1="2.2493" x2="52.6329" y2= "2.2493" />
  <g>
   <path class="fil1" d="M5.995 7.6522l0 -5.4029 0.1764 0 0 5.4029 -0.1764 0zm-0.061 0.3726l0.2984 -0.1935 -0.2984 0.0001 0.9096 -1.4032 0.2984 0.1934 -0.9096 1.4032 -0.2984 0zm0 0l0.2984 0 -0.1491 0.23 -0.1493 -0.23zm-0.7611 -1.4999l0.1491 -0.0968 0.9104 1.4032 -0.2984 0.1935 -0.9103 -1.4032 0.1492 -0.0967z"/>
  </g>
  <g>
   <path class="fil1" d="M11.5767 8.0239l0 -5.4029 0.1764 0 0 5.4029 -0.1764 0zm-0.061 0.3726l0.2984 -0.1935 -0.2984 0.0001 0.9096 -1.4032 0.2984 0.1934 -0.9096 1.4032 -0.2984 0zm0 0l0.2984 0 -0.1491 0.23 -0.1493 -0.23zm-0.7611 -1.4999l0.1491 -0.0968 0.9104 1.4032 -0.2984 0.1935 -0.9103 -1.4032 0.1492 -0.0967z"/>
  </g>
  <g>
   <path class="fil1" d="M17.4292 8.0069l0 -5.4028 0.1764 0 0 5.4028 -0.1764 0zm-0.061 0.3726l0.2984 -0.1935 -0.2984 0.0001 0.9096 -1.4032 0.2984 0.1934 -0.9096 1.4032 -0.2984 0zm0 0l0.2984 0 -0.1491 0.23 -0.1493 -0.23zm-0.7611 -1.4999l0.1491 -0.0968 0.9104 1.4032 -0.2984 0.1935 -0.9103 -1.4032 0.1492 -0.0967z"/>
  </g>
  <g>
   <path class="fil1" d="M23.2818 7.99l0 -5.4029 0.1764 0 0 5.4029 -0.1764 0zm-0.061 0.3726l0.2984 -0.1935 -0.2984 0.0001 0.9096 -1.4032 0.2984 0.1934 -0.9096 1.4032 -0.2984 0zm0 0l0.2984 0 -0.1491 0.23 -0.1493 -0.23zm-0.7611 -1.4999l0.1491 -0.0968 0.9104 1.4032 -0.2984 0.1935 -0.9103 -1.4032 0.1492 -0.0967z"/>
  </g>
  <g>
   <path class="fil1" d="M29.1343 7.973l0 -5.4028 0.1764 0 0 5.4028 -0.1764 0zm-0.061 0.3726l0.2984 -0.1935 -0.2984 0.0001 0.9096 -1.4032 0.2984 0.1934 -0.9096 1.4032 -0.2984 0zm0 0l0.2984 0 -0.1491 0.23 -0.1493 -0.23zm-0.7611 -1.4999l0.1491 -0.0968 0.9104 1.4032 -0.2984 0.1935 -0.9103 -1.4032 0.1492 -0.0967z"/>
  </g>
  <g>
   <path class="fil1" d="M34.9869 7.9561l0 -5.4029 0.1764 0 0 5.4029 -0.1764 0zm-0.061 0.3726l0.2984 -0.1935 -0.2984 0.0001 0.9096 -1.4032 0.2984 0.1934 -0.9096 1.4032 -0.2984 0zm0 0l0.2984 0 -0.1491 0.23 -0.1493 -0.23zm-0.7611 -1.4999l0.1491 -0.0968 0.9104 1.4032 -0.2984 0.1935 -0.9103 -1.4032 0.1492 -0.0967z"/>
  </g>
  <g>
   <path class="fil1" d="M40.8394 7.9391l0 -5.4029 0.1764 0 0 5.4029 -0.1764 0zm-0.061 0.3726l0.2984 -0.1935 -0.2984 0.0001 0.9096 -1.4032 0.2984 0.1934 -0.9096 1.4032 -0.2984 0zm0 0l0.2984 0 -0.1491 0.23 -0.1493 -0.23zm-0.7611 -1.4999l0.1491 -0.0968 0.9104 1.4032 -0.2984 0.1935 -0.9103 -1.4032 0.1492 -0.0967z"/>
  </g>
  <g>
   <path class="fil1" d="M46.692 7.9221l0 -5.4028 0.1764 0 0 5.4028 -0.1764 0zm-0.061 0.3726l0.2984 -0.1935 -0.2984 0.0001 0.9096 -1.4032 0.2984 0.1934 -0.9096 1.4032 -0.2984 0zm0 0l0.2984 0 -0.1491 0.23 -0.1493 -0.23zm-0.7611 -1.4999l0.1491 -0.0968 0.9104 1.4032 -0.2984 0.1935 -0.9103 -1.4032 0.1492 -0.0967z"/>
  </g>
  <g>
   <path class="fil1" d="M52.5445 7.9052l0 -5.4029 0.1764 0 0 5.4029 -0.1764 0zm-0.061 0.3726l0.2984 -0.1935 -0.2984 0.0001 0.9096 -1.4032 0.2984 0.1934 -0.9096 1.4032 -0.2984 0zm0 0l0.2984 0 -0.1491 0.23 -0.1493 -0.23zm-0.7611 -1.4999l0.1491 -0.0968 0.9104 1.4032 -0.2984 0.1935 -0.9103 -1.4032 0.1492 -0.0967z"/>
  </g>
  <line class="fil2 str0" x1="8.5705" y1="37.8341" x2="8.5705" y2= "42.3269" />
  <line class="fil2 str0" x1="51.5713" y1="38.027" x2="51.5713" y2= "42.5199" />
  <path class="fil1" d="M55.3929 4.0991l-0.1426 0.4748c0.1503,-0.1764 0.2844,-0.2991 0.4022,-0.3697 0.1178,-0.0705 0.2378,-0.1051 0.3605,-0.1051 0.1228,0 0.2272,0.048 0.314,0.1453 0.0868,0.0974 0.1305,0.2237 0.1305,0.3796 0,0.3027 -0.1234,0.611 -0.3697,0.925 -0.2469,0.3133 -0.5341,0.4699 -0.8622,0.4699 -0.0691,0 -0.1298,-0.0071 -0.1827,-0.0226 -0.0536,-0.0148 -0.1129,-0.0416 -0.1792,-0.0804l-0.151 0.5334c-0.0303,0.1044 -0.0451,0.1728 -0.0451,0.2046 0,0.0303 0.0077,0.0557 0.0239,0.0776 0.0156,0.0212 0.0417,0.0374 0.077,0.0494 0.0359,0.012 0.1072,0.0176 0.213,0.0176l-0.0183 0.0762 -0.9737 0 0.0205 -0.0762c0.1284,-0.0056 0.2145,-0.0275 0.2596,-0.0663 0.0445,-0.0388 0.0918,-0.1453 0.1418,-0.3203l0.5229 -1.8105c0.0317,-0.115 0.0472,-0.1855 0.0472,-0.213 0,-0.0374 -0.0106,-0.0664 -0.0317,-0.0868 -0.0219,-0.0212 -0.0543,-0.0311 -0.0981,-0.0311 -0.0402,0 -0.0959,0.005 -0.1679,0.0141l0 -0.0804 0.7091 -0.1051zm-0.4812 1.6531c0.0854,0.1023 0.2004,0.1531 0.345,0.1531 0.0713,0 0.1446,-0.0198 0.2187,-0.06 0.0748,-0.0395 0.1475,-0.0988 0.218,-0.1778 0.0713,-0.0783 0.1348,-0.1686 0.1912,-0.2716 0.0565,-0.1023 0.1073,-0.2237 0.1524,-0.3627 0.0445,-0.139 0.0671,-0.2772 0.0671,-0.4134 0,-0.1101 -0.0254,-0.1947 -0.0755,-0.2533 -0.0501,-0.0586 -0.1094,-0.0875 -0.1764,-0.0875 -0.1489,0 -0.2964,0.0854 -0.4417,0.2561 -0.1453,0.1708 -0.2519,0.3704 -0.3196,0.599l-0.1792 0.6181z"/>
  <path class="fil1" d="M65.7063 18.3988l-0.0367 0.1361 -0.302 0 -0.2272 0.9039c-0.1009,0.3979 -0.2025,0.7062 -0.3041,0.9235 -0.1446,0.3076 -0.3005,0.5193 -0.467,0.6364 -0.127,0.0896 -0.254,0.1348 -0.3803,0.1348 -0.0826,0 -0.1531,-0.0247 -0.211,-0.0748 -0.043,-0.0339 -0.0642,-0.079 -0.0642,-0.1341 0,-0.0437 0.0176,-0.0825 0.0529,-0.115 0.0353,-0.0317 0.0783,-0.0479 0.1291,-0.0479 0.0374,0 0.0685,0.0113 0.0939,0.0345 0.0254,0.024 0.0381,0.0508 0.0381,0.0812 0,0.0303 -0.0141,0.0585 -0.0431,0.0846 -0.0218,0.0191 -0.0331,0.0339 -0.0331,0.0431 0,0.0127 0.0049,0.0226 0.0148,0.0289 0.012,0.0099 0.031,0.0148 0.0578,0.0148 0.0593,0 0.1214,-0.019 0.187,-0.0557 0.0649,-0.0374 0.1235,-0.0931 0.1743,-0.1665 0.0515,-0.0741 0.0995,-0.1806 0.1446,-0.3196 0.0198,-0.0579 0.0713,-0.2484 0.1552,-0.5722l0.3599 -1.3999 -0.3599 0 0.029 -0.1361c0.1143,0 0.194,-0.0078 0.2399,-0.024 0.0451,-0.0155 0.0867,-0.0459 0.1248,-0.091 0.0381,-0.0445 0.0875,-0.1284 0.1482,-0.2512 0.0811,-0.1651 0.1587,-0.2935 0.2335,-0.3845 0.1016,-0.1221 0.2089,-0.2145 0.3211,-0.2759 0.1121,-0.0614 0.218,-0.0917 0.3175,-0.0917 0.1044,0 0.189,0.0268 0.2518,0.0797 0.0635,0.0529 0.0953,0.1108 0.0953,0.1722 0,0.0486 -0.0155,0.0889 -0.0473,0.122 -0.0317,0.0332 -0.0727,0.0501 -0.122,0.0501 -0.0431,0 -0.0777,-0.0127 -0.1045,-0.0374 -0.0268,-0.0247 -0.0402,-0.0543 -0.0402,-0.0889 0,-0.0219 0.0092,-0.0494 0.0268,-0.0818 0.0177,-0.0325 0.0268,-0.0544 0.0268,-0.0649 0,-0.0198 -0.0063,-0.0339 -0.0183,-0.0438 -0.0183,-0.0134 -0.0445,-0.0204 -0.079,-0.0204 -0.0868,0 -0.1644,0.0275 -0.2336,0.0825 -0.0924,0.0734 -0.1749,0.1877 -0.2476,0.3436 -0.0374,0.0812 -0.1058,0.2829 -0.2046,0.6054l0.3034 0z"/>
  <g>
   <path class="fil1" d="M62.3133 27.2689l-0.2984 0 -0.9096 -1.4032 0.2984 -0.1934 0.9096 1.4032 -0.2984 -0.0001 0.2984 0.1935zm0 0l-0.1493 0.23 -0.1491 -0.23 0.2984 0zm0.7611 -1.4999l0.1492 0.0967 -0.9103 1.4032 -0.2984 -0.1935 0.9104 -1.4032 0.1491 0.0968zm-0.8224 -13.1275l0 14.2548 -0.1758 0 0 -14.2548 0.1758 0zm0.0613 -0.3726l-0.2984 0.1935 0.2984 -0.0001 -0.9096 1.4032 -0.2984 -0.1934 0.9096 -1.4032 0.2984 0zm0 0l-0.2984 0 0.1491 -0.23 0.1493 0.23zm0.7611 1.4999l-0.1491 0.0968 -0.9104 -1.4032 0.2984 -0.1935 0.9103 1.4032 -0.1492 0.0967z"/>
  </g>
  <line class="fil2 str0" x1="60.1274" y1="27.3834" x2="64.6202" y2= "27.3834" />
  <line class="fil2 str0" x1="60.3203" y1="12.1545" x2="64.8132" y2= "12.1545" />
  <rect class="fil2 str0" transform="matrix(-0.945861 0.324573 0.324573 0.945861 56.4858 25.8695)" width="11.5114" height="4.4754"/>
  <polygon class="fil2 str0" points="7.8029,24.9143 10.439,26.4651 9.7804,27.7712 6.8778,26.736 "/>
  <polygon class="fil2 str0" points="8.7266,23.1446 11.306,24.788 10.6014,26.0699 7.7374,24.9323 "/>
  <polygon class="fil2 str0" points="7.7304,24.9611 10.4432,26.3735 9.8531,27.7119 6.9008,26.8282 "/>
  <polygon class="fil2 str0" points="9.9107,21.4358 12.337,23.2977 11.5234,24.5133 8.7695,23.1304 "/>
  <polygon class="fil2 str0" points="11.2986,19.7748 13.5534,21.8412 12.637,22.9812 10.014,21.3636 "/>
  <polygon class="fil2 str0" points="14.394,16.8488 16.2558,19.2753 15.1553,20.2389 12.8531,18.1903 "/>
  <polygon class="fil2 str0" points="12.811,18.247 14.8771,20.5019 13.8648,21.5578 11.3928,19.7177 "/>
  <polygon class="fil2 str0" points="16.0669,15.5532 17.71,18.1327 16.5297,18.9967 14.4149,16.7553 "/>
  <polygon class="fil2 str0" points="17.8436,14.51 19.2557,17.2229 18.0046,17.9808 16.0931,15.5636 "/>
  <polygon class="fil2 str0" points="19.7024,13.5943 20.8726,16.42 19.5602,17.0659 17.8667,14.4914 "/>
  <polygon class="fil2 str0" points="21.6625,12.8792 22.5821,15.7961 21.2184,16.3252 19.7557,13.6129 "/>
  <polygon class="fil2 str0" points="25.6951,11.8832 26.0942,14.9155 24.6593,15.1997 23.6898,12.2746 "/>
  <polygon class="fil2 str0" points="23.6709,12.2708 24.3327,15.2567 22.9281,15.665 21.7073,12.8354 "/>
  <polygon class="fil2 str0" points="27.7757,11.6746 27.909,14.7301 26.4548,14.8882 25.744,11.8897 "/>
  <polygon class="fil2 str0" points="29.9382,11.6863 29.8047,14.7418 28.3423,14.7726 27.8955,11.7235 "/>
  <polygon class="fil2 str0" points="31.9948,11.7694 31.7197,14.8154 30.2574,14.7783 29.9525,11.7118 "/>
  <polygon class="fil2 str0" points="52.1349,25.0309 49.4988,26.5817 50.1574,27.8878 53.06,26.8526 "/>
  <polygon class="fil2 str0" points="51.2112,23.2612 48.6318,24.9046 49.3364,26.1865 52.2004,25.0489 "/>
  <polygon class="fil2 str0" points="52.2074,25.0777 49.4946,26.4901 50.0847,27.8285 53.037,26.9448 "/>
  <polygon class="fil2 str0" points="50.0271,21.5524 47.6008,23.4143 48.4144,24.6299 51.1683,23.247 "/>
  <polygon class="fil2 str0" points="48.6392,19.8914 46.3844,21.9578 47.3008,23.0978 49.9238,21.4802 "/>
  <polygon class="fil2 str0" points="45.5438,16.9654 43.682,19.3919 44.7825,20.3555 47.0847,18.3069 "/>
  <polygon class="fil2 str0" points="47.1268,18.3636 45.0607,20.6185 46.073,21.6744 48.545,19.8343 "/>
  <polygon class="fil2 str0" points="43.8709,15.6698 42.2278,18.2493 43.4081,19.1133 45.5229,16.8719 "/>
  <polygon class="fil2 str0" points="42.0942,14.6266 40.6821,17.3395 41.9332,18.0974 43.8447,15.6802 "/>
  <polygon class="fil2 str0" points="40.2354,13.7109 39.0652,16.5366 40.3776,17.1825 42.0711,14.608 "/>
  <polygon class="fil2 str0" points="38.2753,12.9958 37.3557,15.9127 38.7194,16.4418 40.1821,13.7295 "/>
  <polygon class="fil2 str0" points="34.2427,11.9998 33.8436,15.0321 35.2785,15.3163 36.248,12.3912 "/>
  <polygon class="fil2 str0" points="36.2669,12.3874 35.6051,15.3733 37.0097,15.7816 38.2305,12.952 "/>
  <polygon class="fil2 str0" points="32.1621,11.7912 32.0288,14.8467 33.483,15.0048 34.1938,12.0063 "/>
  <rect class="fil2 str0" transform="matrix(0.945861 0.324573 -0.324573 0.945861 3.12621 25.5535)" width="11.5114" height="4.4754"/>
  <path class="fil2 str1" d="M9.7804 27.7712c8.6464,-18.8955 34.0341,-15.6517 40.377,0.1166"/>
 </g>
</svg>
