<?xml version="1.0" encoding="UTF-8"?>
<!DOCTYPE svg PUBLIC "-//W3C//DTD SVG 1.1//EN" "http://www.w3.org/Graphics/SVG/1.1/DTD/svg11.dtd">
<!-- Creator: CorelDRAW -->
<svg xmlns="http://www.w3.org/2000/svg" xml:space="preserve" width="31mm" height="67mm" style="shape-rendering:geometricPrecision; text-rendering:geometricPrecision; image-rendering:optimizeQuality; fill-rule:evenodd; clip-rule:evenodd"
viewBox="0 0 31 67">
 <defs>
  <style type="text/css">
   <![CDATA[
    .str1 {stroke:#1F1A17;stroke-width:0.1764}
    .str0 {stroke:#131516;stroke-width:0.1764}
    .fil1 {fill:none}
    .fil0 {fill:#1F1A17;fill-rule:nonzero}
    .fil2 {fill:url(#id0)}
   ]]>
  </style>
  <linearGradient id="id0" gradientUnits="userSpaceOnUse" x1="13.0077" y1="33.9755" x2="17.9214" y2="33.9755">
   <stop offset="0" style="stop-color:#C2C1C1"/>
   <stop offset="1" style="stop-color:#C2C1C1"/>
  </linearGradient>
 </defs>
 <g id="Layer_x0020_1">
  <metadata id="CorelCorpID_0Corel-Layer"/>
  <g>
   <path class="fil0" d="M17.9536 12.1697l7.8805 -6.5483 0.2246 0.2702 -7.8805 6.5483 -0.2246 -0.2702zm-0.2696 0.2585l0.3395 0.1058 -0.1907 -0.2295 1.6606 -0.1971 0.0419 0.3531 -1.6606 0.1972 -0.1907 -0.2295zm0 0l0.1907 0.2295 -0.2722 0.0323 0.0815 -0.2618zm0.6672 -1.544l0.1697 0.0528 -0.4974 1.597 -0.3395 -0.1058 0.4974 -1.5969 0.1698 0.0529z"/>
  </g>
  <g>
   <line class="fil1 str0" x1="16.0204" y1="55.1629" x2="10.2032" y2= "55.1629" />
   <g id="_156619352">
    <line id="_154568464" class="fil1 str0" x1="15.46" y1="55.2429" x2="15.967" y2= "56.3904" />
    <line id="_156158304" class="fil1 str0" x1="14.4217" y1="55.2429" x2="14.9287" y2= "56.3904" />
    <line id="_155921128" class="fil1 str0" x1="13.3834" y1="55.2429" x2="13.8904" y2= "56.3904" />
    <line id="_156098472" class="fil1 str0" x1="12.3451" y1="55.2429" x2="12.8521" y2= "56.3904" />
    <line id="_155172304" class="fil1 str0" x1="11.3068" y1="55.2429" x2="11.8138" y2= "56.3904" />
    <line id="_229462312" class="fil1 str0" x1="10.2685" y1="55.2429" x2="10.7755" y2= "56.3904" />
   </g>
  </g>
  <path class="fil0" d="M27.6363 9.006l0.3429 0 -0.2681 0.9405c-0.0183,0.0593 -0.0465,0.1524 -0.0853,0.2794 0.0529,0.2124 0.0917,0.3387 0.1178,0.3803 0.0501,0.0755 0.1129,0.1136 0.1884,0.1136 0.055,0 0.1058,-0.0226 0.1531,-0.0685 0.0465,-0.0451 0.0776,-0.1164 0.0931,-0.2123l0.0825 0c-0.019,0.1982 -0.0613,0.3351 -0.1248,0.4113 -0.0642,0.0755 -0.1383,0.1136 -0.2223,0.1136 -0.079,0 -0.1503,-0.0332 -0.2145,-0.0995 -0.0635,-0.0663 -0.1213,-0.2081 -0.1721,-0.4254 -0.0607,0.1199 -0.12,0.2109 -0.1778,0.2723 -0.0812,0.0854 -0.1694,0.1496 -0.2646,0.1912 -0.0953,0.0424 -0.2032,0.0635 -0.3246,0.0635 -0.3048,0 -0.5284,-0.1016 -0.6716,-0.3041 -0.1433,-0.2025 -0.2152,-0.4332 -0.2152,-0.6921 0,-0.3034 0.0839,-0.5489 0.2526,-0.7373 0.1679,-0.1877 0.3647,-0.2822 0.5905,-0.2822 0.1573,0 0.2956,0.0479 0.4156,0.1439 0.1199,0.096 0.2286,0.2738 0.3266,0.5341l0.1778 -0.6223zm-0.2497 0.8537c-0.0748,-0.2836 -0.1708,-0.4819 -0.2879,-0.5941 -0.1171,-0.1121 -0.2364,-0.1686 -0.357,-0.1686 -0.1355,0 -0.2477,0.0741 -0.3373,0.2223 -0.0896,0.1481 -0.134,0.3845 -0.134,0.7083 0,0.1912 0.019,0.3422 0.0578,0.4516 0.0381,0.1094 0.0967,0.194 0.1743,0.254 0.0783,0.06 0.1602,0.0903 0.247,0.0903 0.1065,0 0.2032,-0.0494 0.2914,-0.1468 0.1199,-0.1326 0.2349,-0.4049 0.3457,-0.817z"/>
  <line class="fil1 str0" x1="21.1004" y1="55.1629" x2="15.2832" y2= "55.1629" />
  <line class="fil1 str0" x1="20.54" y1="55.2429" x2="21.047" y2= "56.3904" />
  <line class="fil1 str0" x1="19.5017" y1="55.2429" x2="20.0087" y2= "56.3904" />
  <line class="fil1 str0" x1="18.4634" y1="55.2429" x2="18.9704" y2= "56.3904" />
  <line class="fil1 str0" x1="17.4251" y1="55.2429" x2="17.9321" y2= "56.3904" />
  <line class="fil1 str0" x1="16.3868" y1="55.2429" x2="16.8938" y2= "56.3904" />
  <rect class="fil2 str1" x="13.0077" y="12.8059" width="4.9137" height="42.3392"/>
  <line class="fil1 str0" x1="27.5872" y1="12.772" x2="17.8189" y2= "12.772" />
  <path class="fil1 str0" d="M23.2931 7.9614c1.0937,1.4141 1.3493,3.1579 1.2295,4.8106"/>
  <path class="fil0" d="M28.544 2.9518l1.1035 0c0.2893,0 0.5059,0.0628 0.6491,0.187 0.1432,0.1249 0.2152,0.2773 0.2152,0.4558 0,0.1425 -0.0459,0.2801 -0.1369,0.4135 -0.091,0.134 -0.2258,0.2427 -0.405,0.3259 -0.1792,0.0833 -0.3725,0.1249 -0.5806,0.1249 -0.1299,0 -0.2943,-0.0233 -0.4939,-0.0706l-0.2237 0.7649c-0.0522,0.182 -0.0783,0.3019 -0.0783,0.3598 0,0.0444 0.0183,0.0804 0.0557,0.1094 0.0374,0.0296 0.1263,0.0479 0.2667,0.0564l-0.0204 0.0762 -1.1148 0 0.0233 -0.0762c0.146,0 0.2476,-0.0254 0.3048,-0.0755 0.0571,-0.0508 0.1185,-0.1891 0.1848,-0.417l0.4629 -1.5952c0.055,-0.1919 0.0825,-0.3203 0.0825,-0.3845 0,-0.0487 -0.019,-0.0882 -0.0585,-0.12 -0.0395,-0.0317 -0.1256,-0.0508 -0.2597,-0.0578l0.0233 -0.077zm0.3859 1.3067c0.156,0.0402 0.2816,0.06 0.3768,0.06 0.1496,0 0.2865,-0.031 0.4099,-0.0931 0.1235,-0.0621 0.2202,-0.1553 0.2893,-0.2787 0.0699,-0.1242 0.1044,-0.2533 0.1044,-0.3867 0,-0.1397 -0.0423,-0.2497 -0.1277,-0.3309 -0.0861,-0.0811 -0.2152,-0.122 -0.3887,-0.122 -0.0939,0 -0.2075,0.012 -0.3415,0.0352l-0.3225 1.1162z"/>
  <g>
   <path class="fil0" d="M15.3625 11.1861l0 -8.5041 0.3528 0 0 8.5041 -0.3528 0zm0.0272 0.3726l0.2984 -0.1935 -0.2984 0.0001 0.9096 -1.4032 0.2984 0.1934 -0.9096 1.4032 -0.2984 0zm0 0l0.2984 0 -0.1491 0.23 -0.1493 -0.23zm-0.7611 -1.4999l0.1491 -0.0968 0.9104 1.4032 -0.2984 0.1935 -0.9103 -1.4032 0.1492 -0.0967z"/>
  </g>
  <path class="fil0" d="M19.8599 0.2381l-0.2089 0.8819 -0.0783 0c0.0127,-0.103 0.0191,-0.1792 0.0191,-0.2293 0,-0.1348 -0.06,-0.2547 -0.1793,-0.3584 -0.1192,-0.1038 -0.2836,-0.156 -0.4931,-0.156 -0.4283,0 -0.7783,0.2011 -1.0499,0.6033 -0.2166,0.3182 -0.3245,0.6745 -0.3245,1.0689 0,0.2618 0.067,0.4875 0.2003,0.678 0.1341,0.1898 0.3401,0.2851 0.6181,0.2851 0.0691,0 0.134,-0.0064 0.1954,-0.0184 0.0614,-0.0127 0.1538,-0.0402 0.278,-0.0825l0.2046 -0.7218c0.029,-0.0988 0.0438,-0.1785 0.0438,-0.2378 0,-0.0494 -0.0184,-0.0875 -0.0537,-0.1136 -0.0578,-0.0402 -0.1516,-0.0599 -0.2815,-0.0599l-0.0578 0 0.0226 -0.0805 1.1662 0 -0.0211 0.0805c-0.1059,0.0014 -0.1828,0.0141 -0.2315,0.0374 -0.0479,0.0232 -0.0896,0.0635 -0.1241,0.1199 -0.0233,0.0374 -0.0607,0.1453 -0.1136,0.3246l-0.2068 0.709c-0.1883,0.0812 -0.3407,0.1355 -0.4564,0.1623 -0.1158,0.0268 -0.2378,0.0402 -0.3662,0.0402 -0.2949,0 -0.5334,-0.0557 -0.7169,-0.1665 -0.1834,-0.1108 -0.3189,-0.2575 -0.4064,-0.4403 -0.0874,-0.1827 -0.1312,-0.364 -0.1312,-0.5446 0,-0.2427 0.0508,-0.4735 0.1531,-0.6915 0.1016,-0.2187 0.2293,-0.4028 0.381,-0.5538 0.1524,-0.151 0.3182,-0.2703 0.4974,-0.357 0.247,-0.12 0.5059,-0.1792 0.7775,-0.1792 0.1997,0 0.3803,0.0324 0.5412,0.0987 0.0649,0.0261 0.1122,0.0395 0.1425,0.0395 0.0346,0 0.0642,-0.0077 0.0882,-0.024 0.024,-0.0155 0.055,-0.0543 0.0938,-0.1142l0.0784 0z"/>
  <g>
   <path class="fil0" d="M15.3237 16.8491l0.0395 -4.0085 0.3514 0.0028 -0.0395 4.0085 -0.3514 -0.0028zm0.023 0.3726l0.3002 -0.1906 -0.2984 -0.0029 0.9234 -1.3942 0.2965 0.1964 -0.9234 1.3942 -0.2983 -0.0029zm0 0l0.2983 0.0029 -0.1514 0.2285 -0.1469 -0.2314zm-0.7464 -1.5074l0.1501 -0.0953 0.8965 1.4121 -0.3002 0.1906 -0.8965 -1.4121 0.1501 -0.0953z"/>
  </g>
  <g>
   <path class="fil0" d="M15.3153 22.1704l0.0395 -4.0085 0.3514 0.0028 -0.0395 4.0085 -0.3514 -0.0028zm0.023 0.3726l0.3002 -0.1906 -0.2984 -0.0029 0.9234 -1.3942 0.2965 0.1964 -0.9234 1.3942 -0.2983 -0.0029zm0 0l0.2983 0.0029 -0.1514 0.2285 -0.1469 -0.2314zm-0.7464 -1.5074l0.1501 -0.0953 0.8965 1.4121 -0.3002 0.1906 -0.8965 -1.4121 0.1501 -0.0953z"/>
  </g>
  <g>
   <path class="fil0" d="M15.3069 27.4917l0.0395 -4.0085 0.3514 0.0028 -0.0395 4.0085 -0.3514 -0.0028zm0.023 0.3726l0.3002 -0.1906 -0.2984 -0.0029 0.9234 -1.3942 0.2965 0.1964 -0.9234 1.3942 -0.2983 -0.0029zm0 0l0.2983 0.0029 -0.1514 0.2285 -0.1469 -0.2314zm-0.7464 -1.5074l0.1501 -0.0953 0.8965 1.4121 -0.3002 0.1906 -0.8965 -1.4121 0.1501 -0.0953z"/>
  </g>
  <g>
   <path class="fil0" d="M15.2985 32.813l0.0395 -4.0085 0.3514 0.0028 -0.0395 4.0085 -0.3514 -0.0028zm0.023 0.3726l0.3002 -0.1906 -0.2984 -0.0029 0.9234 -1.3942 0.2965 0.1964 -0.9234 1.3942 -0.2983 -0.0029zm0 0l0.2983 0.0029 -0.1514 0.2285 -0.1469 -0.2314zm-0.7464 -1.5074l0.1501 -0.0953 0.8965 1.4121 -0.3002 0.1906 -0.8965 -1.4121 0.1501 -0.0953z"/>
  </g>
  <g>
   <path class="fil0" d="M15.2901 38.1343l0.0395 -4.0085 0.3514 0.0028 -0.0395 4.0085 -0.3514 -0.0028zm0.023 0.3726l0.3002 -0.1906 -0.2984 -0.0029 0.9234 -1.3942 0.2965 0.1964 -0.9234 1.3942 -0.2983 -0.0029zm0 0l0.2983 0.0029 -0.1514 0.2285 -0.1469 -0.2314zm-0.7464 -1.5074l0.1501 -0.0953 0.8965 1.4121 -0.3002 0.1906 -0.8965 -1.4121 0.1501 -0.0953z"/>
  </g>
  <g>
   <path class="fil0" d="M15.2817 43.4556l0.0395 -4.0085 0.3514 0.0028 -0.0395 4.0085 -0.3514 -0.0028zm0.023 0.3726l0.3002 -0.1906 -0.2984 -0.0029 0.9234 -1.3942 0.2965 0.1964 -0.9234 1.3942 -0.2983 -0.0029zm0 0l0.2983 0.0029 -0.1514 0.2285 -0.1469 -0.2314zm-0.7464 -1.5074l0.1501 -0.0953 0.8965 1.4121 -0.3002 0.1906 -0.8965 -1.4121 0.1501 -0.0953z"/>
  </g>
  <g>
   <path class="fil0" d="M15.2733 48.7769l0.0395 -4.0085 0.3514 0.0028 -0.0395 4.0085 -0.3514 -0.0028zm0.023 0.3726l0.3002 -0.1906 -0.2984 -0.0029 0.9234 -1.3942 0.2965 0.1964 -0.9234 1.3942 -0.2983 -0.0029zm0 0l0.2983 0.0029 -0.1514 0.2285 -0.1469 -0.2314zm-0.7464 -1.5074l0.1501 -0.0953 0.8965 1.4121 -0.3002 0.1906 -0.8965 -1.4121 0.1501 -0.0953z"/>
  </g>
  <g>
   <path class="fil0" d="M15.265 54.0982l0.0395 -4.0085 0.3514 0.0028 -0.0395 4.0085 -0.3514 -0.0028zm0.0229 0.3726l0.3002 -0.1906 -0.2984 -0.0029 0.9235 -1.3942 0.2964 0.1964 -0.9234 1.3942 -0.2983 -0.0029zm0 0l0.2983 0.0029 -0.1514 0.2285 -0.1469 -0.2314zm-0.7464 -1.5074l0.1501 -0.0953 0.8965 1.4121 -0.3002 0.1906 -0.8965 -1.4121 0.1501 -0.0953z"/>
  </g>
  <path class="fil0" d="M20.651 17.8889l-0.0599 0.2152 -0.345 0c0.0261,0.0741 0.0388,0.1439 0.0388,0.2088 0,0.1821 -0.0769,0.3436 -0.2315,0.4854 -0.1552,0.1426 -0.369,0.2209 -0.6406,0.2357 -0.146,0.0444 -0.2554,0.0967 -0.3288,0.1573 -0.0275,0.0219 -0.0409,0.0445 -0.0409,0.0685 0,0.0275 0.012,0.0522 0.0367,0.0755 0.0254,0.0225 0.0875,0.0458 0.1884,0.0691l0.4007 0.0931c0.2223,0.0523 0.369,0.1143 0.4403,0.1856 0.0705,0.0734 0.1058,0.1573 0.1058,0.2526 0,0.1129 -0.0416,0.2159 -0.1249,0.3097 -0.0839,0.0939 -0.2053,0.1672 -0.3661,0.2202 -0.1609,0.0529 -0.338,0.0797 -0.532,0.0797 -0.1715,0 -0.3267,-0.0205 -0.4671,-0.0614 -0.1411,-0.0402 -0.2413,-0.0952 -0.302,-0.1637 -0.0607,-0.0691 -0.091,-0.1404 -0.091,-0.2131 0,-0.0592 0.0198,-0.1213 0.0586,-0.1848 0.0395,-0.0642 0.0889,-0.1171 0.1481,-0.1588 0.0374,-0.0261 0.1426,-0.0875 0.3161,-0.1855 -0.0635,-0.0494 -0.0952,-0.1044 -0.0952,-0.1637 0,-0.055 0.0282,-0.1136 0.0839,-0.1757 0.0558,-0.0621 0.1743,-0.1298 0.3542,-0.2046 -0.151,-0.0289 -0.2716,-0.0924 -0.3605,-0.1898 -0.0889,-0.0981 -0.1334,-0.2067 -0.1334,-0.3267 0,-0.1954 0.0861,-0.3711 0.2576,-0.5249 0.1714,-0.1545 0.4,-0.2314 0.685,-0.2314 0.1038,0 0.1884,0.0099 0.2547,0.031 0.0657,0.0205 0.1299,0.0529 0.192,0.0967l0.558 0zm-0.7175 0.3245c0,-0.11 -0.0303,-0.1968 -0.0917,-0.2603 -0.0614,-0.0635 -0.1418,-0.0953 -0.2406,-0.0953 -0.1559,0 -0.2843,0.0784 -0.3859,0.235 -0.1009,0.1566 -0.1517,0.3189 -0.1517,0.4889 0,0.1059 0.0324,0.1927 0.0973,0.2604 0.0642,0.0677 0.1433,0.1009 0.2357,0.1009 0.0727,0 0.1432,-0.0198 0.2116,-0.06 0.0685,-0.0395 0.1256,-0.0945 0.1729,-0.1651 0.0466,-0.0705 0.084,-0.1594 0.1115,-0.2688 0.0275,-0.1087 0.0409,-0.187 0.0409,-0.2357zm-0.9899 1.4182c-0.1115,0.0508 -0.1961,0.1164 -0.2533,0.1961 -0.0571,0.0805 -0.0853,0.1588 -0.0853,0.2357 0,0.091 0.0409,0.1665 0.1234,0.2258 0.1186,0.0853 0.2921,0.1277 0.5214,0.1277 0.1969,0 0.3655,-0.0332 0.5052,-0.1002 0.1397,-0.067 0.2095,-0.1531 0.2095,-0.2589 0,-0.0544 -0.0254,-0.1052 -0.0776,-0.1532 -0.0515,-0.0486 -0.1517,-0.0874 -0.3005,-0.1178 -0.0812,-0.0169 -0.2957,-0.0684 -0.6428,-0.1552z"/>
  <g>
   <path class="fil0" d="M13.2179 59.6912l0 -0.2984 1.4032 -0.9096 0.1934 0.2984 -1.4032 0.9096 0.0001 -0.2984 -0.1935 0.2984zm0 0l-0.23 -0.1493 0.23 -0.1491 0 0.2984zm1.4999 0.7611l-0.0967 0.1492 -1.4032 -0.9103 0.1935 -0.2984 1.4032 0.9104 -0.0968 0.1491zm2.7165 -0.8221l-3.8438 0 0 -0.1764 3.8438 0 0 0.1764zm0.3726 0.061l-0.1935 -0.2984 0.0001 0.2984 -1.4032 -0.9096 0.1934 -0.2984 1.4032 0.9096 0 0.2984zm0 0l0 -0.2984 0.23 0.1491 -0.23 0.1493zm-1.4999 0.7611l-0.0968 -0.1491 1.4032 -0.9104 0.1935 0.2984 -1.4032 0.9103 -0.0967 -0.1492z"/>
  </g>
  <line class="fil1 str1" x1="17.9213" y1="57.6982" x2="17.9213" y2= "62.1911" />
  <line class="fil1 str1" x1="13.1034" y1="57.6982" x2="13.1034" y2= "62.1911" />
  <path class="fil0" d="M16.0098 62.232l-0.5807 2.0073c0.2505,-0.3775 0.4459,-0.6287 0.587,-0.7529 0.1404,-0.1234 0.2745,-0.1855 0.4029,-0.1855 0.0663,0 0.1213,0.0226 0.1651,0.0677 0.0444,0.0459 0.0663,0.1066 0.0663,0.1821 0,0.091 -0.019,0.201 -0.0578,0.3309l-0.2519 0.8657c-0.0318,0.1051 -0.048,0.1629 -0.048,0.1735 0,0.0198 0.0056,0.0353 0.0176,0.048 0.012,0.012 0.0254,0.0184 0.0403,0.0184 0.0183,0 0.0388,-0.0085 0.062,-0.0269 0.0784,-0.0606 0.1567,-0.1446 0.2336,-0.2518l0.0642 0.0388c-0.0466,0.0733 -0.1122,0.1538 -0.1955,0.2413 -0.0832,0.0875 -0.1552,0.1481 -0.2151,0.182 -0.06,0.0332 -0.1129,0.0501 -0.1602,0.0501 -0.0508,0 -0.0924,-0.0162 -0.1249,-0.0487 -0.0324,-0.0317 -0.0487,-0.0741 -0.0487,-0.1249 0,-0.0607 0.024,-0.1735 0.0727,-0.3386l0.2378 -0.8269c0.0303,-0.1038 0.0451,-0.1849 0.0451,-0.2442 0,-0.0275 -0.0084,-0.0494 -0.0254,-0.0663 -0.0176,-0.0162 -0.0402,-0.0247 -0.0677,-0.0247 -0.0395,0 -0.0854,0.0155 -0.1362,0.0459 -0.0938,0.0578 -0.2018,0.1651 -0.3245,0.3224 -0.0332,0.0423 -0.1433,0.2145 -0.3309,0.5165 -0.0579,0.0966 -0.1052,0.2018 -0.1426,0.3161l-0.1319 0.424 -0.3104 0 0.6801 -2.365 0.0727 -0.2561c0,-0.036 -0.0148,-0.0678 -0.0445,-0.0953 -0.0296,-0.0275 -0.0663,-0.0409 -0.1086,-0.0409 -0.0247,0 -0.0628,0.0042 -0.1136,0.012l-0.0438 0.0064 0 -0.0805 0.7155 -0.1199z"/>
  <g>
   <path class="fil0" d="M6.4428 55.1316l-0.2984 0 -0.9096 -1.4032 0.2984 -0.1934 0.9096 1.4032 -0.2984 -0.0001 0.2984 0.1935zm0 0l-0.1493 0.23 -0.1491 -0.23 0.2984 0zm0.7611 -1.4999l0.1492 0.0967 -0.9103 1.4032 -0.2984 -0.1935 0.9104 -1.4032 0.1491 0.0968zm-0.8224 -40.3717l0 41.499 -0.1758 0 0 -41.499 0.1758 0zm0.0613 -0.3726l-0.2984 0.1935 0.2984 -0.0001 -0.9096 1.4032 -0.2984 -0.1934 0.9096 -1.4032 0.2984 0zm0 0l-0.2984 0 0.1491 -0.23 0.1493 0.23zm0.7611 1.4999l-0.1491 0.0968 -0.9104 -1.4032 0.2984 -0.1935 0.9103 1.4032 -0.1492 0.0967z"/>
  </g>
  <line class="fil1 str1" x1="4.4498" y1="12.7736" x2="8.9427" y2= "12.7736" />
  <line class="fil1 str1" x1="4.4498" y1="55.246" x2="8.9427" y2= "55.246" />
  <path class="fil0" d="M3.3395 33.0876l1.2933 0 0.2053 -0.6929c0.0381,-0.1347 0.0579,-0.2391 0.0579,-0.3139 0,-0.036 -0.0092,-0.0664 -0.0261,-0.0918 -0.017,-0.0254 -0.0438,-0.0444 -0.0798,-0.0571 -0.036,-0.012 -0.1058,-0.0183 -0.2109,-0.0183l0.0211 -0.077 1.1282 0 -0.0247 0.077c-0.0952,-0.0015 -0.1658,0.0077 -0.2131,0.0289 -0.0656,0.0289 -0.115,0.0663 -0.1467,0.1115 -0.0452,0.0649 -0.0917,0.1785 -0.1383,0.3407l-0.4939 1.6934c-0.0416,0.1404 -0.0621,0.2413 -0.0621,0.3012 0,0.0529 0.0184,0.0925 0.0551,0.1193 0.0359,0.0268 0.1234,0.0451 0.261,0.055l-0.0226 0.0762 -1.0915 0 0.029 -0.0762c0.1072,-0.0028 0.1792,-0.0127 0.2152,-0.0289 0.055,-0.0254 0.0952,-0.0572 0.1199,-0.0953 0.0353,-0.0536 0.0797,-0.1707 0.1319,-0.3513l0.2526 -0.858 -1.3003 0 -0.2547 0.858c-0.0395,0.1375 -0.0593,0.2384 -0.0593,0.3012 0,0.0529 0.0177,0.0925 0.0537,0.1193 0.0352,0.0268 0.1227,0.0451 0.2603,0.055l-0.0169 0.0762 -1.0993 0 0.0268 -0.0762c0.1087,-0.0028 0.1814,-0.0127 0.2173,-0.0289 0.0551,-0.0254 0.0953,-0.0572 0.1214,-0.0953 0.036,-0.0564 0.0804,-0.1735 0.1326,-0.3513l0.496 -1.6934c0.0403,-0.1375 0.06,-0.242 0.06,-0.3139 0,-0.036 -0.0085,-0.0664 -0.0261,-0.0918 -0.0169,-0.0254 -0.0437,-0.0444 -0.0804,-0.0571 -0.0367,-0.012 -0.108,-0.0183 -0.2138,-0.0183l0.0247 -0.077 1.1056 0 -0.0226 0.077c-0.0924,-0.0015 -0.1602,0.0077 -0.2046,0.0289 -0.0649,0.0275 -0.1122,0.0642 -0.1425,0.1093 -0.0416,0.0607 -0.0868,0.175 -0.1362,0.3429l-0.2025 0.6929z"/>
 </g>
</svg>
