<?xml version="1.0" encoding="UTF-8"?>
<!DOCTYPE svg PUBLIC "-//W3C//DTD SVG 1.1//EN" "http://www.w3.org/Graphics/SVG/1.1/DTD/svg11.dtd">
<!-- Creator: CorelDRAW -->
<svg xmlns="http://www.w3.org/2000/svg" xml:space="preserve" width="87mm" height="32mm" style="shape-rendering:geometricPrecision; text-rendering:geometricPrecision; image-rendering:optimizeQuality; fill-rule:evenodd; clip-rule:evenodd"
viewBox="0 0 87 32">
 <defs>
  <style type="text/css">
   <![CDATA[
    .str2 {stroke:#1F1A17;stroke-width:0.1764}
    .str1 {stroke:#131516;stroke-width:0.1764}
    .str0 {stroke:#1F1A17;stroke-width:0.3528}
    .fil0 {fill:none}
    .fil2 {fill:#1F1A17;fill-rule:nonzero}
    .fil3 {fill:#DA251D;fill-rule:nonzero}
    .fil1 {fill:url(#id0)}
   ]]>
  </style>
  <linearGradient id="id0" gradientUnits="userSpaceOnUse" x1="4.0098" y1="24.1902" x2="5.8061" y2="24.1902">
   <stop offset="0" style="stop-color:white"/>
   <stop offset="1" style="stop-color:white"/>
  </linearGradient>
 </defs>
 <g id="Layer_x0020_1">
  <metadata id="CorelCorpID_0Corel-Layer"/>
  <polyline class="fil0 str0" points="5.4144,23.4563 63.1688,23.9722 81.7369,24.1381 "/>
  <line class="fil0 str0" x1="81.934" y1="24.1744" x2="72.9176" y2= "10.7692" />
  <line class="fil0 str0" x1="64.5313" y1="24.1283" x2="72.9175" y2= "10.7692" />
  <line class="fil0 str0" x1="64.5313" y1="24.1283" x2="56.131" y2= "10.6185" />
  <line class="fil0 str0" x1="46.8732" y1="23.9295" x2="56.131" y2= "10.6185" />
  <line class="fil0 str0" x1="46.6857" y1="23.8247" x2="37.0944" y2= "10.4509" />
  <line class="fil0 str0" x1="29.2699" y1="23.6687" x2="37.0944" y2= "10.4509" />
  <line class="fil0 str0" x1="29.2687" y1="23.6676" x2="20.1304" y2= "10.2978" />
  <line class="fil0 str0" x1="11.7924" y1="23.7299" x2="20.1304" y2= "10.2978" />
  <line class="fil0 str0" x1="11.9252" y1="23.5139" x2="5.8796" y2= "10.1706" />
  <line class="fil0 str0" x1="81.2717" y1="24.212" x2="81.4951" y2= "11.0457" />
  <line class="fil0 str0" x1="4.6352" y1="23.0388" x2="4.8586" y2= "9.8725" />
  <polyline class="fil0 str0" points="5.5165,10.3434 63.2709,10.8594 81.8391,11.0253 "/>
  <polygon class="fil0 str1" points="4.9079,25.1489 6.5417,27.1828 8.1755,29.2167 4.9079,29.2167 1.6404,29.2167 3.2742,27.1828 "/>
  <g id="_155378400">
   <line id="_156029560" class="fil0 str1" x1="9.3206" y1="29.227" x2="1.1851" y2= "29.227" />
   <g>
    <line id="_155171120" class="fil0 str1" x1="8.5369" y1="29.339" x2="9.246" y2= "30.9437" />
    <line id="_156066288" class="fil0 str1" x1="7.0848" y1="29.339" x2="7.7939" y2= "30.9437" />
    <line id="_156064392" class="fil0 str1" x1="5.6327" y1="29.339" x2="6.3418" y2= "30.9437" />
    <line id="_155464896" class="fil0 str1" x1="4.1806" y1="29.339" x2="4.8897" y2= "30.9437" />
    <line id="_156023320" class="fil0 str1" x1="2.7285" y1="29.339" x2="3.4376" y2= "30.9437" />
    <line id="_155525008" class="fil0 str1" x1="1.2765" y1="29.339" x2="1.9855" y2= "30.9437" />
   </g>
  </g>
  <circle class="fil1 str0" cx="4.90793" cy="24.1902" r="0.898157"/>
  <g id="_155714320">
   <line id="_155817952" class="fil0 str1" x1="9.3206" y1="29.227" x2="1.1851" y2= "29.227" />
   <g>
    <line id="_155833728" class="fil0 str1" x1="8.5369" y1="29.339" x2="9.246" y2= "30.9437" />
    <line id="_155183648" class="fil0 str1" x1="7.0848" y1="29.339" x2="7.7939" y2= "30.9437" />
    <line id="_155847880" class="fil0 str1" x1="5.6327" y1="29.339" x2="6.3418" y2= "30.9437" />
    <line id="_155846784" class="fil0 str1" x1="4.1806" y1="29.339" x2="4.8897" y2= "30.9437" />
    <line id="_155334072" class="fil0 str1" x1="2.7285" y1="29.339" x2="3.4376" y2= "30.9437" />
    <line id="_156065744" class="fil0 str1" x1="1.2765" y1="29.339" x2="1.9855" y2= "30.9437" />
   </g>
  </g>
  <polygon class="fil0 str1" points="81.4079,25.5875 83.0417,27.6214 84.6755,29.6553 81.4079,29.6553 78.1404,29.6553 79.7742,27.6214 "/>
  <g id="_154673944">
   <line id="_155258720" class="fil0 str1" x1="85.8206" y1="29.6656" x2="77.6851" y2= "29.6656" />
   <g>
    <line id="_155266336" class="fil0 str1" x1="85.0369" y1="29.7776" x2="85.746" y2= "31.3823" />
    <line id="_155385200" class="fil0 str1" x1="83.5848" y1="29.7776" x2="84.2939" y2= "31.3823" />
    <line id="_155523936" class="fil0 str1" x1="82.1327" y1="29.7776" x2="82.8418" y2= "31.3823" />
    <line id="_156199320" class="fil0 str1" x1="80.6806" y1="29.7776" x2="81.3897" y2= "31.3823" />
    <line id="_156062496" class="fil0 str1" x1="79.2285" y1="29.7776" x2="79.9376" y2= "31.3823" />
    <line id="_156204208" class="fil0 str1" x1="77.7765" y1="29.7776" x2="78.4855" y2= "31.3823" />
   </g>
  </g>
  <circle class="fil1 str0" cx="81.4079" cy="24.6288" r="0.898157"/>
  <g id="_156066864">
   <line id="_155520944" class="fil0 str1" x1="85.8206" y1="29.6656" x2="77.6851" y2= "29.6656" />
   <g>
    <line id="_155263368" class="fil0 str1" x1="85.0369" y1="29.7776" x2="85.746" y2= "31.3823" />
    <line id="_155514960" class="fil0 str1" x1="83.5848" y1="29.7776" x2="84.2939" y2= "31.3823" />
    <line id="_154917920" class="fil0 str1" x1="82.1327" y1="29.7776" x2="82.8418" y2= "31.3823" />
    <line id="_155357208" class="fil0 str1" x1="80.6806" y1="29.7776" x2="81.3897" y2= "31.3823" />
    <line id="_155428200" class="fil0 str1" x1="79.2285" y1="29.7776" x2="79.9376" y2= "31.3823" />
    <line id="_156211016" class="fil0 str1" x1="77.7765" y1="29.7776" x2="78.4855" y2= "31.3823" />
   </g>
  </g>
  <line class="fil0 str2" x1="5.386" y1="6.87" x2="44.1952" y2= "6.87" />
  <line class="fil0 str2" x1="5.386" y1="2.1464" x2="44.1952" y2= "2.1464" />
  <g>
   <path class="fil2" d="M5.2978 6.3828l0 -4.2364 0.1764 0 0 4.2364 -0.1764 0zm-0.061 0.3726l0.2984 -0.1935 -0.2984 0.0001 0.9096 -1.4032 0.2984 0.1934 -0.9096 1.4032 -0.2984 0zm0 0l0.2984 0 -0.1491 0.23 -0.1493 -0.23zm-0.7611 -1.4999l0.1491 -0.0968 0.9104 1.4032 -0.2984 0.1935 -0.9103 -1.4032 0.1492 -0.0967z"/>
  </g>
  <g>
   <path class="fil2" d="M9.9514 6.6809l0 -4.2364 0.1764 0 0 4.2364 -0.1764 0zm-0.061 0.3726l0.2984 -0.1935 -0.2984 0.0001 0.9096 -1.4032 0.2984 0.1934 -0.9096 1.4032 -0.2984 0zm0 0l0.2984 0 -0.1491 0.23 -0.1493 -0.23zm-0.7611 -1.4999l0.1491 -0.0968 0.9104 1.4032 -0.2984 0.1935 -0.9103 -1.4032 0.1492 -0.0967z"/>
  </g>
  <g>
   <path class="fil2" d="M14.8308 6.6673l0 -4.2364 0.1764 0 0 4.2364 -0.1764 0zm-0.061 0.3726l0.2984 -0.1935 -0.2984 0.0001 0.9096 -1.4032 0.2984 0.1934 -0.9096 1.4032 -0.2984 0zm0 0l0.2984 0 -0.1491 0.23 -0.1493 -0.23zm-0.7611 -1.4999l0.1491 -0.0968 0.9104 1.4032 -0.2984 0.1935 -0.9103 -1.4032 0.1492 -0.0967z"/>
  </g>
  <g>
   <path class="fil2" d="M19.7101 6.6537l0 -4.2364 0.1764 0 0 4.2364 -0.1764 0zm-0.061 0.3726l0.2984 -0.1935 -0.2984 0.0001 0.9096 -1.4032 0.2984 0.1934 -0.9096 1.4032 -0.2984 0zm0 0l0.2984 0 -0.1491 0.23 -0.1493 -0.23zm-0.7611 -1.4999l0.1491 -0.0968 0.9104 1.4032 -0.2984 0.1935 -0.9103 -1.4032 0.1492 -0.0967z"/>
  </g>
  <g>
   <path class="fil2" d="M24.5895 6.6401l0 -4.2364 0.1764 0 0 4.2364 -0.1764 0zm-0.061 0.3726l0.2984 -0.1935 -0.2984 0.0001 0.9096 -1.4032 0.2984 0.1934 -0.9096 1.4032 -0.2984 0zm0 0l0.2984 0 -0.1491 0.23 -0.1493 -0.23zm-0.7611 -1.4999l0.1491 -0.0968 0.9104 1.4032 -0.2984 0.1935 -0.9103 -1.4032 0.1492 -0.0967z"/>
  </g>
  <g>
   <path class="fil2" d="M29.4688 6.6265l0 -4.2364 0.1764 0 0 4.2364 -0.1764 0zm-0.061 0.3726l0.2984 -0.1935 -0.2984 0.0001 0.9096 -1.4032 0.2984 0.1934 -0.9096 1.4032 -0.2984 0zm0 0l0.2984 0 -0.1491 0.23 -0.1493 -0.23zm-0.7611 -1.4999l0.1491 -0.0968 0.9104 1.4032 -0.2984 0.1935 -0.9103 -1.4032 0.1492 -0.0967z"/>
  </g>
  <g>
   <path class="fil2" d="M34.3482 6.6129l0 -4.2364 0.1764 0 0 4.2364 -0.1764 0zm-0.061 0.3726l0.2984 -0.1935 -0.2984 0.0001 0.9096 -1.4032 0.2984 0.1934 -0.9096 1.4032 -0.2984 0zm0 0l0.2984 0 -0.1491 0.23 -0.1493 -0.23zm-0.7611 -1.4999l0.1491 -0.0968 0.9104 1.4032 -0.2984 0.1935 -0.9103 -1.4032 0.1492 -0.0967z"/>
  </g>
  <g>
   <path class="fil2" d="M39.2275 6.5993l0 -4.2364 0.1764 0 0 4.2364 -0.1764 0zm-0.061 0.3726l0.2984 -0.1935 -0.2984 0.0001 0.9096 -1.4032 0.2984 0.1934 -0.9096 1.4032 -0.2984 0zm0 0l0.2984 0 -0.1491 0.23 -0.1493 -0.23zm-0.7611 -1.4999l0.1491 -0.0968 0.9104 1.4032 -0.2984 0.1935 -0.9103 -1.4032 0.1492 -0.0967z"/>
  </g>
  <g>
   <path class="fil2" d="M44.1069 6.5857l0 -4.2364 0.1764 0 0 4.2364 -0.1764 0zm-0.061 0.3726l0.2984 -0.1935 -0.2984 0.0001 0.9096 -1.4032 0.2984 0.1934 -0.9096 1.4032 -0.2984 0zm0 0l0.2984 0 -0.1491 0.23 -0.1493 -0.23zm-0.7611 -1.4999l0.1491 -0.0968 0.9104 1.4032 -0.2984 0.1935 -0.9103 -1.4032 0.1492 -0.0967z"/>
  </g>
  <line class="fil0 str2" x1="44.2342" y1="6.8707" x2="81.9814" y2= "6.8707" />
  <line class="fil0 str2" x1="44.2342" y1="2.1464" x2="81.9814" y2= "2.1464" />
  <g>
   <path class="fil2" d="M44.146 6.3828l0 -4.2364 0.1764 0 0 4.2364 -0.1764 0zm-0.061 0.3726l0.2984 -0.1935 -0.2984 0.0001 0.9096 -1.4032 0.2984 0.1934 -0.9096 1.4032 -0.2984 0zm0 0l0.2984 0 -0.1491 0.23 -0.1493 -0.23zm-0.7611 -1.4999l0.1491 -0.0968 0.9104 1.4032 -0.2984 0.1935 -0.9103 -1.4032 0.1492 -0.0967z"/>
  </g>
  <g>
   <path class="fil2" d="M48.7996 6.6809l0 -4.2364 0.1764 0 0 4.2364 -0.1764 0zm-0.061 0.3726l0.2984 -0.1935 -0.2984 0.0001 0.9096 -1.4032 0.2984 0.1934 -0.9096 1.4032 -0.2984 0zm0 0l0.2984 0 -0.1491 0.23 -0.1493 -0.23zm-0.7611 -1.4999l0.1491 -0.0968 0.9104 1.4032 -0.2984 0.1935 -0.9103 -1.4032 0.1492 -0.0967z"/>
  </g>
  <g>
   <path class="fil2" d="M53.6789 6.6673l0 -4.2364 0.1764 0 0 4.2364 -0.1764 0zm-0.061 0.3726l0.2984 -0.1935 -0.2984 0.0001 0.9096 -1.4032 0.2984 0.1934 -0.9096 1.4032 -0.2984 0zm0 0l0.2984 0 -0.1491 0.23 -0.1493 -0.23zm-0.7611 -1.4999l0.1491 -0.0968 0.9104 1.4032 -0.2984 0.1935 -0.9103 -1.4032 0.1492 -0.0967z"/>
  </g>
  <g>
   <path class="fil2" d="M58.5583 6.6537l0 -4.2364 0.1764 0 0 4.2364 -0.1764 0zm-0.061 0.3726l0.2984 -0.1935 -0.2984 0.0001 0.9096 -1.4032 0.2984 0.1934 -0.9096 1.4032 -0.2984 0zm0 0l0.2984 0 -0.1491 0.23 -0.1493 -0.23zm-0.7611 -1.4999l0.1491 -0.0968 0.9104 1.4032 -0.2984 0.1935 -0.9103 -1.4032 0.1492 -0.0967z"/>
  </g>
  <g>
   <path class="fil2" d="M63.4377 6.6401l0 -4.2364 0.1764 0 0 4.2364 -0.1764 0zm-0.061 0.3726l0.2984 -0.1935 -0.2984 0.0001 0.9096 -1.4032 0.2984 0.1934 -0.9096 1.4032 -0.2984 0zm0 0l0.2984 0 -0.1491 0.23 -0.1493 -0.23zm-0.7611 -1.4999l0.1491 -0.0968 0.9104 1.4032 -0.2984 0.1935 -0.9103 -1.4032 0.1492 -0.0967z"/>
  </g>
  <g>
   <path class="fil2" d="M68.317 6.6265l0 -4.2364 0.1764 0 0 4.2364 -0.1764 0zm-0.061 0.3726l0.2984 -0.1935 -0.2984 0.0001 0.9096 -1.4032 0.2984 0.1934 -0.9096 1.4032 -0.2984 0zm0 0l0.2984 0 -0.1491 0.23 -0.1493 -0.23zm-0.7611 -1.4999l0.1491 -0.0968 0.9104 1.4032 -0.2984 0.1935 -0.9103 -1.4032 0.1492 -0.0967z"/>
  </g>
  <g>
   <path class="fil2" d="M73.1964 6.6129l0 -4.2364 0.1764 0 0 4.2364 -0.1764 0zm-0.061 0.3726l0.2984 -0.1935 -0.2984 0.0001 0.9096 -1.4032 0.2984 0.1934 -0.9096 1.4032 -0.2984 0zm0 0l0.2984 0 -0.1491 0.23 -0.1493 -0.23zm-0.7611 -1.4999l0.1491 -0.0968 0.9104 1.4032 -0.2984 0.1935 -0.9103 -1.4032 0.1492 -0.0967z"/>
  </g>
  <g>
   <path class="fil2" d="M78.0757 6.5993l0 -4.2364 0.1764 0 0 4.2364 -0.1764 0zm-0.061 0.3726l0.2984 -0.1935 -0.2984 0.0001 0.9096 -1.4032 0.2984 0.1934 -0.9096 1.4032 -0.2984 0zm0 0l0.2984 0 -0.1491 0.23 -0.1493 -0.23zm-0.7611 -1.4999l0.1491 -0.0968 0.9104 1.4032 -0.2984 0.1935 -0.9103 -1.4032 0.1492 -0.0967z"/>
  </g>
  <g>
   <path class="fil2" d="M81.8932 6.4427l0 -4.2364 0.1764 0 0 4.2364 -0.1764 0zm-0.061 0.3726l0.2984 -0.1935 -0.2984 0.0001 0.9096 -1.4032 0.2984 0.1934 -0.9096 1.4032 -0.2984 0zm0 0l0.2984 0 -0.1491 0.23 -0.1493 -0.23zm-0.7611 -1.4999l0.1491 -0.0968 0.9104 1.4032 -0.2984 0.1935 -0.9103 -1.4032 0.1492 -0.0967z"/>
  </g>
  <path class="fil0 str2" d="M31.8232 29.9807c2.4684,-7.6241 16.6341,-9.282 17.0646,-20.9244"/>
  <g>
   <path class="fil3" d="M37.7061 10.5245l8.2108 -0.0735 0.0028 0.3514 -8.2108 0.0735 -0.0028 -0.3514zm-0.3726 0.0298l0.1962 0.2966 -0.0027 -0.2983 1.4113 0.897 -0.1908 0.3001 -1.4113 -0.897 -0.0027 -0.2984zm0 0l0.0027 0.2984 -0.2313 -0.1471 0.2286 -0.1513zm1.4931 -0.7745l0.0981 0.1482 -1.395 0.9229 -0.1962 -0.2966 1.395 -0.9228 0.0981 0.1483z"/>
  </g>
  <g>
   <path class="fil3" d="M37.4798 23.9184l-8.2108 -0.0735 0.0028 -0.3514 8.2108 0.0735 -0.0028 0.3514zm0.3727 -0.0233l-0.1908 -0.3 -0.0027 0.2983 -1.395 -0.9221 0.1961 -0.2966 1.395 0.9221 -0.0026 0.2983zm0 0l0.0026 -0.2983 0.2287 0.1512 -0.2313 0.1471zm-1.5067 0.7478l-0.0954 -0.1501 1.4113 -0.8977 0.1908 0.3 -1.4113 0.8978 -0.0954 -0.15z"/>
  </g>
 </g>
</svg>
