<?xml version="1.0" encoding="UTF-8"?>
<!DOCTYPE svg PUBLIC "-//W3C//DTD SVG 1.1//EN" "http://www.w3.org/Graphics/SVG/1.1/DTD/svg11.dtd">
<!-- Creator: CorelDRAW -->
<svg xmlns="http://www.w3.org/2000/svg" xml:space="preserve" width="210mm" height="40mm" style="shape-rendering:geometricPrecision; text-rendering:geometricPrecision; image-rendering:optimizeQuality; fill-rule:evenodd; clip-rule:evenodd"
viewBox="0 0 210 40">
 <defs>
  <style type="text/css">
   <![CDATA[
    .str1 {stroke:#1F1A17;stroke-width:0.1764}
    .str4 {stroke:#131516;stroke-width:0.1764}
    .str0 {stroke:#1F1A17;stroke-width:0.3528}
    .str3 {stroke:#1F1A17;stroke-width:0.3528}
    .str2 {stroke:#1F1A17;stroke-width:0.3528;stroke-dasharray:1 1}
    .fil0 {fill:none}
    .fil1 {fill:#1F1A17;fill-rule:nonzero}
    .fil2 {fill:url(#id0)}
   ]]>
  </style>
  <linearGradient id="id0" gradientUnits="userSpaceOnUse" x1="88.5836" y1="23.7885" x2="89.2026" y2="23.7885">
   <stop offset="0" style="stop-color:white"/>
   <stop offset="1" style="stop-color:white"/>
  </linearGradient>
 </defs>
 <g id="Layer_x0020_1">
  <metadata id="CorelCorpID_0Corel-Layer"/>
  <path class="fil0 str0" d="M19.5244 23.8463c7.4258,-16.2282 29.2296,-13.4423 34.6771,0.1001"/>
  <path class="fil1" d="M37.215 34.9287l-2.0772 0 0.029 -0.0762c0.11,-0.0028 0.1834,-0.012 0.2208,-0.0268 0.0578,-0.0254 0.1009,-0.0579 0.1284,-0.0974 0.0423,-0.0635 0.0882,-0.1778 0.1362,-0.3436l0.4939 -1.7053c0.0416,-0.1404 0.062,-0.2434 0.062,-0.3097 0,-0.0522 -0.019,-0.0932 -0.0564,-0.1221 -0.0381,-0.0289 -0.1094,-0.043 -0.2145,-0.043 -0.0233,0 -0.0416,-0.0007 -0.0557,-0.0021l0.0247 -0.077 1.1437 0 -0.017 0.077c-0.1277,0 -0.2187,0.0119 -0.273,0.0366 -0.0536,0.0254 -0.0981,0.0657 -0.1341,0.1221 -0.0247,0.0374 -0.0656,0.1531 -0.122,0.3478l-0.4854 1.6757c-0.0374,0.127 -0.0558,0.2152 -0.0558,0.2646 0,0.0332 0.0184,0.0649 0.0558,0.0953 0.0232,0.0211 0.0762,0.031 0.1587,0.031l0.2709 0c0.1969,0 0.3535,-0.0247 0.4692,-0.0741 0.0854,-0.0374 0.1644,-0.0931 0.2357,-0.1679 0.0388,-0.0409 0.1065,-0.1439 0.2046,-0.3076l0.0536 -0.0932 0.0769 0 -0.273 0.7959z"/>
  <line class="fil0 str1" x1="16.349" y1="6.9858" x2="56.3276" y2= "6.9858" />
  <g>
   <path class="fil1" d="M18.6189 36.5684l0 -0.2984 1.4032 -0.9096 0.1934 0.2984 -1.4032 0.9096 0.0001 -0.2984 -0.1935 0.2984zm0 0l-0.23 -0.1493 0.23 -0.1491 0 0.2984zm1.4999 0.7611l-0.0967 0.1492 -1.4032 -0.9103 0.1935 -0.2984 1.4032 0.9104 -0.0968 0.1491zm34.8002 -0.8224l-35.9275 0 0 -0.1758 35.9275 0 0 0.1758zm0.3726 0.0613l-0.1935 -0.2984 0.0001 0.2984 -1.4032 -0.9096 0.1934 -0.2984 1.4032 0.9096 0 0.2984zm0 0l0 -0.2984 0.23 0.1491 -0.23 0.1493zm-1.4999 0.7611l-0.0968 -0.1491 1.4032 -0.9104 0.1935 0.2984 -1.4032 0.9103 -0.0967 -0.1492z"/>
  </g>
  <line class="fil0 str1" x1="16.349" y1="1.9272" x2="56.3276" y2= "1.9272" />
  <g>
   <path class="fil1" d="M16.2608 6.4986l0 -4.5714 0.1764 0 0 4.5714 -0.1764 0zm-0.061 0.3726l0.2984 -0.1935 -0.2984 0.0001 0.9096 -1.4032 0.2984 0.1934 -0.9096 1.4032 -0.2984 0zm0 0l0.2984 0 -0.1491 0.23 -0.1493 -0.23zm-0.7611 -1.4999l0.1491 -0.0968 0.9104 1.4032 -0.2984 0.1935 -0.9103 -1.4032 0.1492 -0.0967z"/>
  </g>
  <g>
   <path class="fil1" d="M21.0546 6.8178l0 -4.5714 0.1764 0 0 4.5714 -0.1764 0zm-0.061 0.3726l0.2984 -0.1935 -0.2984 0.0001 0.9096 -1.4032 0.2984 0.1934 -0.9096 1.4032 -0.2984 0zm0 0l0.2984 0 -0.1491 0.23 -0.1493 -0.23zm-0.7611 -1.4999l0.1491 -0.0968 0.9104 1.4032 -0.2984 0.1935 -0.9103 -1.4032 0.1492 -0.0967z"/>
  </g>
  <g>
   <path class="fil1" d="M26.081 6.8032l0 -4.5714 0.1764 0 0 4.5714 -0.1764 0zm-0.061 0.3726l0.2984 -0.1935 -0.2984 0.0001 0.9096 -1.4032 0.2984 0.1934 -0.9096 1.4032 -0.2984 0zm0 0l0.2984 0 -0.1491 0.23 -0.1493 -0.23zm-0.7611 -1.4999l0.1491 -0.0968 0.9104 1.4032 -0.2984 0.1935 -0.9103 -1.4032 0.1492 -0.0967z"/>
  </g>
  <g>
   <path class="fil1" d="M31.1074 6.7887l0 -4.5714 0.1764 0 0 4.5714 -0.1764 0zm-0.061 0.3726l0.2984 -0.1935 -0.2984 0.0001 0.9096 -1.4032 0.2984 0.1934 -0.9096 1.4032 -0.2984 0zm0 0l0.2984 0 -0.1491 0.23 -0.1493 -0.23zm-0.7611 -1.4999l0.1491 -0.0968 0.9104 1.4032 -0.2984 0.1935 -0.9103 -1.4032 0.1492 -0.0967z"/>
  </g>
  <g>
   <path class="fil1" d="M36.1337 6.7741l0 -4.5714 0.1764 0 0 4.5714 -0.1764 0zm-0.061 0.3726l0.2984 -0.1935 -0.2984 0.0001 0.9096 -1.4032 0.2984 0.1934 -0.9096 1.4032 -0.2984 0zm0 0l0.2984 0 -0.1491 0.23 -0.1493 -0.23zm-0.7611 -1.4999l0.1491 -0.0968 0.9104 1.4032 -0.2984 0.1935 -0.9103 -1.4032 0.1492 -0.0967z"/>
  </g>
  <g>
   <path class="fil1" d="M41.1601 6.7595l0 -4.5714 0.1764 0 0 4.5714 -0.1764 0zm-0.061 0.3726l0.2984 -0.1935 -0.2984 0.0001 0.9096 -1.4032 0.2984 0.1934 -0.9096 1.4032 -0.2984 0zm0 0l0.2984 0 -0.1491 0.23 -0.1493 -0.23zm-0.7611 -1.4999l0.1491 -0.0968 0.9104 1.4032 -0.2984 0.1935 -0.9103 -1.4032 0.1492 -0.0967z"/>
  </g>
  <g>
   <path class="fil1" d="M46.1865 6.745l0 -4.5714 0.1764 0 0 4.5714 -0.1764 0zm-0.061 0.3726l0.2984 -0.1935 -0.2984 0.0001 0.9096 -1.4032 0.2984 0.1934 -0.9096 1.4032 -0.2984 0zm0 0l0.2984 0 -0.1491 0.23 -0.1493 -0.23zm-0.7611 -1.4999l0.1491 -0.0968 0.9104 1.4032 -0.2984 0.1935 -0.9103 -1.4032 0.1492 -0.0967z"/>
  </g>
  <g>
   <path class="fil1" d="M51.2129 6.7304l0 -4.5714 0.1764 0 0 4.5714 -0.1764 0zm-0.061 0.3726l0.2984 -0.1935 -0.2984 0.0001 0.9096 -1.4032 0.2984 0.1934 -0.9096 1.4032 -0.2984 0zm0 0l0.2984 0 -0.1491 0.23 -0.1493 -0.23zm-0.7611 -1.4999l0.1491 -0.0968 0.9104 1.4032 -0.2984 0.1935 -0.9103 -1.4032 0.1492 -0.0967z"/>
  </g>
  <g>
   <path class="fil1" d="M56.2392 6.7158l0 -4.5714 0.1764 0 0 4.5714 -0.1764 0zm-0.061 0.3726l0.2984 -0.1935 -0.2984 0.0001 0.9096 -1.4032 0.2984 0.1934 -0.9096 1.4032 -0.2984 0zm0 0l0.2984 0 -0.1491 0.23 -0.1493 -0.23zm-0.7611 -1.4999l0.1491 -0.0968 0.9104 1.4032 -0.2984 0.1935 -0.9103 -1.4032 0.1492 -0.0967z"/>
  </g>
  <line class="fil0 str1" x1="18.5044" y1="34.67" x2="18.5044" y2= "38.5286" />
  <line class="fil0 str1" x1="55.406" y1="34.8358" x2="55.406" y2= "38.6944" />
  <path class="fil1" d="M58.8302 3.2518l-0.1426 0.4748c0.1503,-0.1764 0.2844,-0.2991 0.4022,-0.3697 0.1178,-0.0705 0.2378,-0.1051 0.3605,-0.1051 0.1228,0 0.2272,0.048 0.314,0.1453 0.0868,0.0974 0.1305,0.2237 0.1305,0.3796 0,0.3027 -0.1234,0.611 -0.3697,0.925 -0.2469,0.3133 -0.5341,0.4699 -0.8622,0.4699 -0.0691,0 -0.1298,-0.0071 -0.1827,-0.0226 -0.0536,-0.0148 -0.1129,-0.0416 -0.1792,-0.0804l-0.151 0.5334c-0.0303,0.1044 -0.0451,0.1728 -0.0451,0.2046 0,0.0303 0.0077,0.0557 0.0239,0.0776 0.0156,0.0212 0.0417,0.0374 0.077,0.0494 0.0359,0.012 0.1072,0.0176 0.213,0.0176l-0.0183 0.0762 -0.9737 0 0.0205 -0.0762c0.1284,-0.0056 0.2145,-0.0275 0.2596,-0.0663 0.0445,-0.0388 0.0918,-0.1453 0.1418,-0.3203l0.5229 -1.8105c0.0317,-0.115 0.0472,-0.1855 0.0472,-0.213 0,-0.0374 -0.0106,-0.0664 -0.0317,-0.0868 -0.0219,-0.0212 -0.0543,-0.0311 -0.0981,-0.0311 -0.0402,0 -0.0959,0.005 -0.1679,0.0141l0 -0.0804 0.7091 -0.1051zm-0.4812 1.6531c0.0854,0.1023 0.2004,0.1531 0.345,0.1531 0.0713,0 0.1446,-0.0198 0.2187,-0.06 0.0748,-0.0395 0.1475,-0.0988 0.218,-0.1778 0.0713,-0.0783 0.1348,-0.1686 0.1912,-0.2716 0.0565,-0.1023 0.1073,-0.2237 0.1524,-0.3627 0.0445,-0.139 0.0671,-0.2772 0.0671,-0.4134 0,-0.1101 -0.0254,-0.1947 -0.0755,-0.2533 -0.0501,-0.0586 -0.1094,-0.0875 -0.1764,-0.0875 -0.1489,0 -0.2964,0.0854 -0.4417,0.2561 -0.1453,0.1708 -0.2519,0.3704 -0.3196,0.599l-0.1792 0.6181z"/>
  <path class="fil1" d="M67.7326 15.5399l-0.0367 0.1361 -0.302 0 -0.2272 0.9039c-0.1009,0.3979 -0.2025,0.7062 -0.3041,0.9235 -0.1446,0.3076 -0.3005,0.5193 -0.467,0.6364 -0.127,0.0896 -0.254,0.1348 -0.3803,0.1348 -0.0826,0 -0.1531,-0.0247 -0.211,-0.0748 -0.043,-0.0339 -0.0642,-0.079 -0.0642,-0.1341 0,-0.0437 0.0176,-0.0825 0.0529,-0.115 0.0353,-0.0317 0.0783,-0.0479 0.1291,-0.0479 0.0374,0 0.0685,0.0113 0.0939,0.0345 0.0254,0.024 0.0381,0.0508 0.0381,0.0812 0,0.0303 -0.0141,0.0585 -0.0431,0.0846 -0.0218,0.0191 -0.0331,0.0339 -0.0331,0.0431 0,0.0127 0.0049,0.0226 0.0148,0.0289 0.012,0.0099 0.031,0.0148 0.0578,0.0148 0.0593,0 0.1214,-0.019 0.187,-0.0557 0.0649,-0.0374 0.1235,-0.0931 0.1743,-0.1665 0.0515,-0.0741 0.0995,-0.1806 0.1446,-0.3196 0.0198,-0.0579 0.0713,-0.2484 0.1552,-0.5722l0.3599 -1.3999 -0.3599 0 0.029 -0.1361c0.1143,0 0.194,-0.0078 0.2399,-0.024 0.0451,-0.0155 0.0867,-0.0459 0.1248,-0.091 0.0381,-0.0445 0.0875,-0.1284 0.1482,-0.2512 0.0811,-0.1651 0.1587,-0.2935 0.2335,-0.3845 0.1016,-0.1221 0.2089,-0.2145 0.3211,-0.2759 0.1121,-0.0614 0.218,-0.0917 0.3175,-0.0917 0.1044,0 0.189,0.0268 0.2518,0.0797 0.0635,0.0529 0.0953,0.1108 0.0953,0.1722 0,0.0486 -0.0155,0.0889 -0.0473,0.122 -0.0317,0.0332 -0.0727,0.0501 -0.122,0.0501 -0.0431,0 -0.0777,-0.0127 -0.1045,-0.0374 -0.0268,-0.0247 -0.0402,-0.0543 -0.0402,-0.0889 0,-0.0219 0.0092,-0.0494 0.0268,-0.0818 0.0177,-0.0325 0.0268,-0.0544 0.0268,-0.0649 0,-0.0198 -0.0063,-0.0339 -0.0183,-0.0438 -0.0183,-0.0134 -0.0445,-0.0204 -0.079,-0.0204 -0.0868,0 -0.1644,0.0275 -0.2336,0.0825 -0.0924,0.0734 -0.1749,0.1877 -0.2476,0.3436 -0.0374,0.0812 -0.1058,0.2829 -0.2046,0.6054l0.3034 0z"/>
  <g>
   <path class="fil1" d="M64.6625 23.3987l-0.2984 0 -0.9096 -1.4032 0.2984 -0.1934 0.9096 1.4032 -0.2984 -0.0001 0.2984 0.1935zm0 0l-0.1493 0.23 -0.1491 -0.23 0.2984 0zm0.7611 -1.4999l0.1492 0.0967 -0.9103 1.4032 -0.2984 -0.1935 0.9104 -1.4032 0.1491 0.0968zm-0.8221 -10.759l0 11.8863 -0.1764 0 0 -11.8863 0.1764 0zm0.061 -0.3726l-0.2984 0.1935 0.2984 -0.0001 -0.9096 1.4032 -0.2984 -0.1934 0.9096 -1.4032 0.2984 0zm0 0l-0.2984 0 0.1491 -0.23 0.1493 0.23zm0.7611 1.4999l-0.1491 0.0968 -0.9104 -1.4032 0.2984 -0.1935 0.9103 1.4032 -0.1492 0.0967z"/>
  </g>
  <line class="fil0 str1" x1="62.7641" y1="23.5132" x2="66.6227" y2= "23.5132" />
  <line class="fil0 str1" x1="62.584" y1="10.6528" x2="66.4426" y2= "10.6528" />
  <path class="fil0 str0" d="M16.9915 23.1029c8.5538,-19.5963 33.4267,-16.1505 39.7017,0.2027"/>
  <path class="fil0 str2" d="M18.8157 23.7287c6.2866,-16.1192 26.8606,-19.2732 36.1646,0.1646"/>
  <rect class="fil0 str1" transform="matrix(-0.812339 0.278755 0.278755 0.812339 59.6557 22.2888)" width="11.5114" height="4.4754"/>
  <rect class="fil0 str1" transform="matrix(0.812339 0.278755 -0.278755 0.812339 13.8286 22.0175)" width="11.5114" height="4.4754"/>
  <g>
   <path class="fil1" d="M21.8683 19.0945l0.1776 -0.2398 1.669 0.1039 -0.0221 0.3549 -1.669 -0.1039 0.1776 -0.2397 -0.3331 0.1246zm0 0l-0.096 -0.2568 0.2736 0.017 -0.1776 0.2398zm0.7527 1.5042l-0.1665 0.0624 -0.5862 -1.5666 0.3331 -0.1246 0.5861 1.5665 -0.1665 0.0623zm3.1557 1.313l-3.5725 -2.6448 0.1048 -0.1412 3.5725 2.6448 -0.1048 0.1412z"/>
  </g>
  <path class="fil1" d="M26.8019 22.0136l0.5828 -0.2357 0.079 0 0 0.4424c0.0973,-0.1665 0.1954,-0.2836 0.2942,-0.3506 0.0988,-0.0664 0.2025,-0.1002 0.3111,-0.1002 0.1905,0 0.3486,0.0748 0.4756,0.2236 0.1559,0.1821 0.2335,0.4184 0.2335,0.7112 0,0.326 -0.0938,0.5962 -0.2815,0.81 -0.1538,0.175 -0.3485,0.2625 -0.5828,0.2625 -0.1016,0 -0.1898,-0.0142 -0.2646,-0.0431 -0.055,-0.0211 -0.1171,-0.0621 -0.1855,-0.1242l0 0.5765c0,0.1298 0.0077,0.2116 0.0233,0.2469 0.0162,0.0353 0.0437,0.0635 0.0832,0.084 0.0388,0.0204 0.1101,0.031 0.2138,0.031l0 0.0762 -0.9927 0 0 -0.0762 0.0522 0c0.0755,0.0014 0.1404,-0.0134 0.194,-0.0437 0.0261,-0.0148 0.0466,-0.0395 0.0614,-0.0734 0.0141,-0.0339 0.0212,-0.1192 0.0212,-0.2568l0 -1.7907c0,-0.1221 -0.005,-0.2004 -0.0163,-0.2335 -0.0112,-0.0332 -0.0289,-0.0579 -0.0529,-0.0741 -0.024,-0.017 -0.0564,-0.0247 -0.098,-0.0247 -0.0332,0 -0.0748,0.0092 -0.1263,0.0289l-0.0247 -0.0663zm0.6618 0.3288l0 0.7069c0,0.1531 0.0056,0.2533 0.0183,0.302 0.0191,0.0797 0.0663,0.1496 0.1418,0.2103 0.0748,0.0606 0.1694,0.091 0.2844,0.091 0.1376,0 0.249,-0.0536 0.3344,-0.1609 0.1115,-0.1404 0.1672,-0.3387 0.1672,-0.5934 0,-0.2892 -0.0628,-0.5122 -0.1898,-0.6674 -0.0882,-0.108 -0.1933,-0.1616 -0.3139,-0.1616 -0.0664,0 -0.132,0.017 -0.1969,0.0494 -0.0494,0.0254 -0.1312,0.0995 -0.2455,0.2237z"/>
  <path class="fil1" d="M30.1279 23.4459c-0.194,0.1502 -0.3161,0.237 -0.3662,0.2603 -0.0741,0.0346 -0.1531,0.0522 -0.2371,0.0522 -0.1312,0 -0.2391,-0.0451 -0.3238,-0.1347 -0.0847,-0.0897 -0.127,-0.2075 -0.127,-0.3535 0,-0.0925 0.0204,-0.1722 0.0621,-0.2399 0.0564,-0.0931 0.1545,-0.1813 0.2942,-0.2646 0.1397,-0.0825 0.3725,-0.1827 0.6978,-0.3013l0 -0.0748c0,-0.1883 -0.0297,-0.3182 -0.0896,-0.3887 -0.06,-0.0699 -0.1475,-0.1051 -0.2618,-0.1051 -0.0868,0 -0.1559,0.0232 -0.2067,0.0705 -0.0522,0.0466 -0.0783,0.1002 -0.0783,0.1609l0.0042 0.1199c0,0.0635 -0.0162,0.1122 -0.0487,0.1468 -0.0324,0.0345 -0.0748,0.0515 -0.127,0.0515 -0.0515,0 -0.0931,-0.0177 -0.1256,-0.0536 -0.0324,-0.036 -0.0486,-0.0847 -0.0486,-0.1468 0,-0.1185 0.0606,-0.2272 0.182,-0.3267 0.1213,-0.0987 0.2914,-0.1488 0.5108,-0.1488 0.1679,0 0.3055,0.0282 0.4135,0.0846 0.0811,0.0431 0.1411,0.1101 0.1799,0.2011 0.0247,0.0593 0.0367,0.1799 0.0367,0.3634l0 0.6427c0,0.1806 0.0035,0.2914 0.0105,0.3323 0.0071,0.0403 0.0184,0.0678 0.0339,0.0812 0.0162,0.0141 0.0346,0.0211 0.055,0.0211 0.0219,0 0.0417,-0.0049 0.0579,-0.0148 0.0289,-0.0176 0.0847,-0.0684 0.1672,-0.151l0 0.1158c-0.1538,0.2067 -0.3013,0.3104 -0.4424,0.3104 -0.067,0 -0.1206,-0.0233 -0.1608,-0.0706 -0.0402,-0.0465 -0.0607,-0.127 -0.0621,-0.2398zm0 -0.1341l0 -0.7218c-0.2082,0.0833 -0.3422,0.1418 -0.4029,0.1757 -0.1093,0.0607 -0.187,0.1242 -0.2335,0.1905 -0.0473,0.0663 -0.0706,0.1383 -0.0706,0.2173 0,0.0988 0.0297,0.1813 0.0889,0.247 0.0593,0.0649 0.1277,0.098 0.2046,0.098 0.1052,0 0.2427,-0.0691 0.4135,-0.2067z"/>
  <path class="fil1" d="M31.4882 21.7695l0 0.4261c0.158,-0.2843 0.321,-0.4261 0.4875,-0.4261 0.0755,0 0.1383,0.0232 0.1884,0.0691 0.0494,0.0466 0.0741,0.1002 0.0741,0.1602 0,0.0543 -0.0176,0.0995 -0.0536,0.1368 -0.036,0.0374 -0.0783,0.0558 -0.1284,0.0558 -0.048,0 -0.1023,-0.024 -0.1623,-0.0713 -0.06,-0.0472 -0.1044,-0.0712 -0.1334,-0.0712 -0.0247,0 -0.0515,0.0134 -0.0804,0.0409 -0.0621,0.0564 -0.1263,0.1496 -0.1919,0.2794l0 0.9073c0,0.1044 0.0127,0.1842 0.0388,0.2378 0.0183,0.0374 0.0501,0.0684 0.0953,0.0931 0.0458,0.0247 0.1107,0.0374 0.1961,0.0374l0 0.0741 -0.9694 0 0 -0.0741c0.0966,0 0.1686,-0.0155 0.2152,-0.0458 0.0345,-0.0219 0.0585,-0.0572 0.0726,-0.1052 0.0064,-0.024 0.0099,-0.0903 0.0099,-0.2011l0 -0.7337c0,-0.2202 -0.0042,-0.3514 -0.0134,-0.3937 -0.0085,-0.0416 -0.0254,-0.0727 -0.0494,-0.0917 -0.024,-0.0191 -0.0543,-0.029 -0.0903,-0.029 -0.0423,0 -0.0903,0.0106 -0.1446,0.0311l-0.0205 -0.0748 0.5729 -0.2314 0.0868 0z"/>
  <path class="fil1" d="M33.4165 23.4459c-0.194,0.1502 -0.3161,0.237 -0.3662,0.2603 -0.0741,0.0346 -0.1531,0.0522 -0.2371,0.0522 -0.1312,0 -0.2391,-0.0451 -0.3238,-0.1347 -0.0847,-0.0897 -0.127,-0.2075 -0.127,-0.3535 0,-0.0925 0.0204,-0.1722 0.0621,-0.2399 0.0564,-0.0931 0.1545,-0.1813 0.2942,-0.2646 0.1397,-0.0825 0.3725,-0.1827 0.6978,-0.3013l0 -0.0748c0,-0.1883 -0.0297,-0.3182 -0.0896,-0.3887 -0.06,-0.0699 -0.1475,-0.1051 -0.2618,-0.1051 -0.0868,0 -0.1559,0.0232 -0.2067,0.0705 -0.0522,0.0466 -0.0783,0.1002 -0.0783,0.1609l0.0042 0.1199c0,0.0635 -0.0162,0.1122 -0.0487,0.1468 -0.0324,0.0345 -0.0748,0.0515 -0.127,0.0515 -0.0515,0 -0.0931,-0.0177 -0.1256,-0.0536 -0.0324,-0.036 -0.0486,-0.0847 -0.0486,-0.1468 0,-0.1185 0.0606,-0.2272 0.182,-0.3267 0.1213,-0.0987 0.2914,-0.1488 0.5108,-0.1488 0.1679,0 0.3055,0.0282 0.4135,0.0846 0.0811,0.0431 0.1411,0.1101 0.1799,0.2011 0.0247,0.0593 0.0367,0.1799 0.0367,0.3634l0 0.6427c0,0.1806 0.0035,0.2914 0.0105,0.3323 0.0071,0.0403 0.0184,0.0678 0.0339,0.0812 0.0162,0.0141 0.0346,0.0211 0.055,0.0211 0.0219,0 0.0417,-0.0049 0.0579,-0.0148 0.0289,-0.0176 0.0847,-0.0684 0.1672,-0.151l0 0.1158c-0.1538,0.2067 -0.3013,0.3104 -0.4424,0.3104 -0.067,0 -0.1206,-0.0233 -0.1608,-0.0706 -0.0402,-0.0465 -0.0607,-0.127 -0.0621,-0.2398zm0 -0.1341l0 -0.7218c-0.2082,0.0833 -0.3422,0.1418 -0.4029,0.1757 -0.1093,0.0607 -0.187,0.1242 -0.2335,0.1905 -0.0473,0.0663 -0.0706,0.1383 -0.0706,0.2173 0,0.0988 0.0297,0.1813 0.0889,0.247 0.0593,0.0649 0.1277,0.098 0.2046,0.098 0.1052,0 0.2427,-0.0691 0.4135,-0.2067z"/>
  <path class="fil1" d="M34.7415 22.1519c0.1835,-0.2547 0.381,-0.3824 0.5934,-0.3824 0.194,0 0.3633,0.0832 0.508,0.249 0.1446,0.1665 0.2173,0.393 0.2173,0.6816 0,0.3358 -0.1115,0.6068 -0.3351,0.8121 -0.1912,0.1764 -0.405,0.2646 -0.6407,0.2646 -0.11,0 -0.2222,-0.0198 -0.3358,-0.06 -0.1136,-0.0402 -0.23,-0.1002 -0.3486,-0.1799l0 -1.9615c0,-0.2152 -0.0049,-0.3471 -0.0155,-0.3972 -0.0099,-0.0494 -0.0261,-0.0832 -0.048,-0.1009 -0.0225,-0.0183 -0.0501,-0.0268 -0.0832,-0.0268 -0.0381,0 -0.0868,0.0106 -0.1447,0.0332l-0.0289 -0.0727 0.5687 -0.2314 0.0931 0 0 1.3723zm0 0.1326l0 1.1324c0.0699,0.0692 0.1425,0.1214 0.218,0.156 0.0748,0.0352 0.1517,0.0529 0.2308,0.0529 0.1248,0 0.242,-0.0692 0.3499,-0.2068 0.108,-0.1375 0.1623,-0.3379 0.1623,-0.6011 0,-0.2427 -0.0543,-0.429 -0.1623,-0.5595 -0.1079,-0.1298 -0.2307,-0.1954 -0.369,-0.1954 -0.0727,0 -0.146,0.019 -0.2187,0.0557 -0.0551,0.0275 -0.1256,0.0833 -0.211,0.1658z"/>
  <path class="fil1" d="M37.2653 21.7695c0.2865,0 0.5165,0.1093 0.6908,0.3266 0.1474,0.1863 0.2208,0.4001 0.2208,0.6407 0,0.17 -0.0409,0.3415 -0.1221,0.515 -0.0811,0.1736 -0.1933,0.3048 -0.3358,0.393 -0.1425,0.0882 -0.3013,0.132 -0.4763,0.132 -0.2857,0 -0.5122,-0.1136 -0.6801,-0.3408 -0.1418,-0.1919 -0.2131,-0.4071 -0.2131,-0.6449 0,-0.1743 0.0431,-0.3464 0.1291,-0.5179 0.0861,-0.1714 0.1997,-0.2984 0.3401,-0.3803 0.1404,-0.0825 0.2893,-0.1234 0.4466,-0.1234zm-0.0642 0.1347c-0.0727,0 -0.146,0.0212 -0.2201,0.0649 -0.0734,0.0438 -0.1334,0.1193 -0.1785,0.2286 -0.0459,0.1087 -0.0685,0.2484 -0.0685,0.4191 0,0.2759 0.0551,0.5137 0.1644,0.7133 0.1094,0.1997 0.254,0.2999 0.4332,0.2999 0.1334,0 0.2435,-0.055 0.3309,-0.1651 0.0868,-0.1108 0.1299,-0.2999 0.1299,-0.5687 0,-0.3365 -0.072,-0.6011 -0.2173,-0.7937 -0.0974,-0.1327 -0.2223,-0.1983 -0.374,-0.1983z"/>
  <path class="fil1" d="M39.1069 20.7796l0 2.5117c0,0.1186 0.0091,0.1969 0.0261,0.2357 0.0169,0.0381 0.0437,0.0677 0.0797,0.0875 0.036,0.0197 0.1023,0.0303 0.2004,0.0303l0 0.0741 -0.9278 0 0 -0.0741c0.0868,0 0.146,-0.0092 0.1771,-0.0275 0.0317,-0.0176 0.0571,-0.0473 0.0748,-0.0889 0.0176,-0.0409 0.0268,-0.1199 0.0268,-0.2371l0 -1.7201c0,-0.2138 -0.005,-0.345 -0.0141,-0.3937 -0.0099,-0.0487 -0.0254,-0.0825 -0.0466,-0.1002 -0.0219,-0.0183 -0.0487,-0.0268 -0.0819,-0.0268 -0.0359,0 -0.0811,0.0106 -0.1361,0.0332l-0.0353 -0.0727 0.5644 -0.2314 0.0925 0z"/>
  <path class="fil1" d="M40.705 23.4459c-0.194,0.1502 -0.3161,0.237 -0.3662,0.2603 -0.0741,0.0346 -0.1531,0.0522 -0.2371,0.0522 -0.1312,0 -0.2391,-0.0451 -0.3238,-0.1347 -0.0847,-0.0897 -0.127,-0.2075 -0.127,-0.3535 0,-0.0925 0.0204,-0.1722 0.0621,-0.2399 0.0564,-0.0931 0.1545,-0.1813 0.2942,-0.2646 0.1397,-0.0825 0.3725,-0.1827 0.6978,-0.3013l0 -0.0748c0,-0.1883 -0.0297,-0.3182 -0.0896,-0.3887 -0.06,-0.0699 -0.1475,-0.1051 -0.2618,-0.1051 -0.0868,0 -0.1559,0.0232 -0.2067,0.0705 -0.0522,0.0466 -0.0783,0.1002 -0.0783,0.1609l0.0042 0.1199c0,0.0635 -0.0162,0.1122 -0.0487,0.1468 -0.0324,0.0345 -0.0748,0.0515 -0.127,0.0515 -0.0515,0 -0.0931,-0.0177 -0.1256,-0.0536 -0.0324,-0.036 -0.0486,-0.0847 -0.0486,-0.1468 0,-0.1185 0.0606,-0.2272 0.182,-0.3267 0.1213,-0.0987 0.2914,-0.1488 0.5108,-0.1488 0.1679,0 0.3055,0.0282 0.4135,0.0846 0.0811,0.0431 0.1411,0.1101 0.1799,0.2011 0.0247,0.0593 0.0367,0.1799 0.0367,0.3634l0 0.6427c0,0.1806 0.0035,0.2914 0.0105,0.3323 0.0071,0.0403 0.0184,0.0678 0.0339,0.0812 0.0162,0.0141 0.0346,0.0211 0.055,0.0211 0.0219,0 0.0417,-0.0049 0.0579,-0.0148 0.0289,-0.0176 0.0847,-0.0684 0.1672,-0.151l0 0.1158c-0.1538,0.2067 -0.3013,0.3104 -0.4424,0.3104 -0.067,0 -0.1206,-0.0233 -0.1608,-0.0706 -0.0402,-0.0465 -0.0607,-0.127 -0.0621,-0.2398zm0 -0.1341l0 -0.7218c-0.2082,0.0833 -0.3422,0.1418 -0.4029,0.1757 -0.1093,0.0607 -0.187,0.1242 -0.2335,0.1905 -0.0473,0.0663 -0.0706,0.1383 -0.0706,0.2173 0,0.0988 0.0297,0.1813 0.0889,0.247 0.0593,0.0649 0.1277,0.098 0.2046,0.098 0.1052,0 0.2427,-0.0691 0.4135,-0.2067z"/>
  <line class="fil0 str1" x1="86.1552" y1="6.9858" x2="126.134" y2= "6.9858" />
  <line class="fil0 str1" x1="86.1552" y1="1.9272" x2="126.134" y2= "1.9272" />
  <g>
   <path class="fil1" d="M86.067 6.4986l0 -4.5714 0.1764 0 0 4.5714 -0.1764 0zm-0.061 0.3726l0.2984 -0.1935 -0.2984 0.0001 0.9096 -1.4032 0.2984 0.1934 -0.9096 1.4032 -0.2984 0zm0 0l0.2984 0 -0.1491 0.23 -0.1493 -0.23zm-0.7611 -1.4999l0.1491 -0.0968 0.9104 1.4032 -0.2984 0.1935 -0.9103 -1.4032 0.1492 -0.0967z"/>
  </g>
  <g>
   <path class="fil1" d="M90.8608 6.8178l0 -4.5714 0.1764 0 0 4.5714 -0.1764 0zm-0.061 0.3726l0.2984 -0.1935 -0.2984 0.0001 0.9096 -1.4032 0.2984 0.1934 -0.9096 1.4032 -0.2984 0zm0 0l0.2984 0 -0.1491 0.23 -0.1493 -0.23zm-0.7611 -1.4999l0.1491 -0.0968 0.9104 1.4032 -0.2984 0.1935 -0.9103 -1.4032 0.1492 -0.0967z"/>
  </g>
  <g>
   <path class="fil1" d="M95.8871 6.8032l0 -4.5714 0.1764 0 0 4.5714 -0.1764 0zm-0.061 0.3726l0.2984 -0.1935 -0.2984 0.0001 0.9096 -1.4032 0.2984 0.1934 -0.9096 1.4032 -0.2984 0zm0 0l0.2984 0 -0.1491 0.23 -0.1493 -0.23zm-0.7611 -1.4999l0.1491 -0.0968 0.9104 1.4032 -0.2984 0.1935 -0.9103 -1.4032 0.1492 -0.0967z"/>
  </g>
  <g>
   <path class="fil1" d="M100.914 6.7887l0 -4.5714 0.1764 0 0 4.5714 -0.1764 0zm-0.061 0.3726l0.2984 -0.1935 -0.2984 0.0001 0.9096 -1.4032 0.2984 0.1934 -0.9096 1.4032 -0.2984 0zm0 0l0.2984 0 -0.1491 0.23 -0.1493 -0.23zm-0.7611 -1.4999l0.1491 -0.0968 0.9104 1.4032 -0.2984 0.1935 -0.9103 -1.4032 0.1492 -0.0967z"/>
  </g>
  <g>
   <path class="fil1" d="M105.94 6.7741l0 -4.5714 0.1764 0 0 4.5714 -0.1764 0zm-0.061 0.3726l0.2984 -0.1935 -0.2984 0.0001 0.9096 -1.4032 0.2984 0.1934 -0.9096 1.4032 -0.2984 0zm0 0l0.2984 0 -0.1491 0.23 -0.1493 -0.23zm-0.7611 -1.4999l0.1491 -0.0968 0.9104 1.4032 -0.2984 0.1935 -0.9103 -1.4032 0.1492 -0.0967z"/>
  </g>
  <g>
   <path class="fil1" d="M110.966 6.7595l0 -4.5714 0.1764 0 0 4.5714 -0.1764 0zm-0.061 0.3726l0.2984 -0.1935 -0.2984 0.0001 0.9096 -1.4032 0.2984 0.1934 -0.9096 1.4032 -0.2984 0zm0 0l0.2984 0 -0.1491 0.23 -0.1493 -0.23zm-0.7611 -1.4999l0.1491 -0.0968 0.9104 1.4032 -0.2984 0.1935 -0.9103 -1.4032 0.1492 -0.0967z"/>
  </g>
  <g>
   <path class="fil1" d="M115.993 6.745l0 -4.5714 0.1764 0 0 4.5714 -0.1764 0zm-0.061 0.3726l0.2984 -0.1935 -0.2984 0.0001 0.9096 -1.4032 0.2984 0.1934 -0.9096 1.4032 -0.2984 0zm0 0l0.2984 0 -0.1491 0.23 -0.1493 -0.23zm-0.7611 -1.4999l0.1491 -0.0968 0.9104 1.4032 -0.2984 0.1935 -0.9103 -1.4032 0.1492 -0.0967z"/>
  </g>
  <g>
   <path class="fil1" d="M121.019 6.7304l0 -4.5714 0.1764 0 0 4.5714 -0.1764 0zm-0.061 0.3726l0.2984 -0.1935 -0.2984 0.0001 0.9096 -1.4032 0.2984 0.1934 -0.9096 1.4032 -0.2984 0zm0 0l0.2984 0 -0.1491 0.23 -0.1493 -0.23zm-0.7611 -1.4999l0.1491 -0.0968 0.9104 1.4032 -0.2984 0.1935 -0.9103 -1.4032 0.1492 -0.0967z"/>
  </g>
  <g>
   <path class="fil1" d="M126.045 6.7158l0 -4.5714 0.1764 0 0 4.5714 -0.1764 0zm-0.061 0.3726l0.2984 -0.1935 -0.2984 0.0001 0.9096 -1.4032 0.2984 0.1934 -0.9096 1.4032 -0.2984 0zm0 0l0.2984 0 -0.1491 0.23 -0.1493 -0.23zm-0.7611 -1.4999l0.1491 -0.0968 0.9104 1.4032 -0.2984 0.1935 -0.9103 -1.4032 0.1492 -0.0967z"/>
  </g>
  <path class="fil1" d="M128.636 3.2518l-0.1426 0.4748c0.1503,-0.1764 0.2844,-0.2991 0.4022,-0.3697 0.1178,-0.0705 0.2378,-0.1051 0.3605,-0.1051 0.1228,0 0.2272,0.048 0.314,0.1453 0.0868,0.0974 0.1305,0.2237 0.1305,0.3796 0,0.3027 -0.1234,0.611 -0.3697,0.925 -0.2469,0.3133 -0.5341,0.4699 -0.8622,0.4699 -0.0691,0 -0.1298,-0.0071 -0.1827,-0.0226 -0.0536,-0.0148 -0.1129,-0.0416 -0.1792,-0.0804l-0.151 0.5334c-0.0303,0.1044 -0.0451,0.1728 -0.0451,0.2046 0,0.0303 0.0077,0.0557 0.0239,0.0776 0.0156,0.0212 0.0417,0.0374 0.077,0.0494 0.0359,0.012 0.1072,0.0176 0.213,0.0176l-0.0183 0.0762 -0.9737 0 0.0205 -0.0762c0.1284,-0.0056 0.2145,-0.0275 0.2596,-0.0663 0.0445,-0.0388 0.0918,-0.1453 0.1418,-0.3203l0.5229 -1.8105c0.0317,-0.115 0.0472,-0.1855 0.0472,-0.213 0,-0.0374 -0.0106,-0.0664 -0.0317,-0.0868 -0.0219,-0.0212 -0.0543,-0.0311 -0.0981,-0.0311 -0.0402,0 -0.0959,0.005 -0.1679,0.0141l0 -0.0804 0.7091 -0.1051zm-0.4812 1.6531c0.0854,0.1023 0.2004,0.1531 0.345,0.1531 0.0713,0 0.1446,-0.0198 0.2187,-0.06 0.0748,-0.0395 0.1475,-0.0988 0.218,-0.1778 0.0713,-0.0783 0.1348,-0.1686 0.1912,-0.2716 0.0565,-0.1023 0.1073,-0.2237 0.1524,-0.3627 0.0445,-0.139 0.0671,-0.2772 0.0671,-0.4134 0,-0.1101 -0.0254,-0.1947 -0.0755,-0.2533 -0.0501,-0.0586 -0.1094,-0.0875 -0.1764,-0.0875 -0.1489,0 -0.2964,0.0854 -0.4417,0.2561 -0.1453,0.1708 -0.2519,0.3704 -0.3196,0.599l-0.1792 0.6181z"/>
  <path class="fil0 str3" d="M89.0314 23.8001c6.5769,-16.8699 26.4041,-19.7594 35.3912,0.1356"/>
  <line class="fil0 str0" x1="88.9402" y1="23.7451" x2="124.467" y2= "23.7451" />
  <polygon class="fil0 str4" points="88.8931,24.1189 89.456,24.8197 90.019,25.5205 88.8931,25.5205 87.7672,25.5205 88.3302,24.8197 "/>
  <g>
   <line class="fil0 str4" x1="90.4135" y1="25.5241" x2="87.6103" y2= "25.5241" />
   <g>
    <line class="fil0 str4" x1="90.1435" y1="25.5626" x2="90.3878" y2= "26.1156" />
    <line class="fil0 str4" x1="89.6432" y1="25.5626" x2="89.8875" y2= "26.1156" />
    <line class="fil0 str4" x1="89.1428" y1="25.5626" x2="89.3871" y2= "26.1156" />
    <line class="fil0 str4" x1="88.6425" y1="25.5626" x2="88.8868" y2= "26.1156" />
    <line class="fil0 str4" x1="88.1421" y1="25.5626" x2="88.3864" y2= "26.1156" />
    <line class="fil0 str4" x1="87.6418" y1="25.5626" x2="87.8861" y2= "26.1156" />
   </g>
  </g>
  <circle class="fil2 str4" cx="88.8931" cy="23.7885" r="0.309475"/>
  <g>
   <path class="fil1" d="M88.4447 36.5684l0 -0.2984 1.4032 -0.9096 0.1934 0.2984 -1.4032 0.9096 0.0001 -0.2984 -0.1935 0.2984zm0 0l-0.23 -0.1493 0.23 -0.1491 0 0.2984zm1.4999 0.7611l-0.0967 0.1492 -1.4032 -0.9103 0.1935 -0.2984 1.4032 0.9104 -0.0968 0.1491zm34.0631 -0.8221l-35.1904 0 0 -0.1764 35.1904 0 0 0.1764zm0.3726 0.061l-0.1935 -0.2984 0.0001 0.2984 -1.4032 -0.9096 0.1934 -0.2984 1.4032 0.9096 0 0.2984zm0 0l0 -0.2984 0.23 0.1491 -0.23 0.1493zm-1.4999 0.7611l-0.0968 -0.1491 1.4032 -0.9104 0.1935 0.2984 -1.4032 0.9103 -0.0967 -0.1492z"/>
  </g>
  <line class="fil0 str1" x1="88.3302" y1="34.67" x2="88.3302" y2= "38.5286" />
  <line class="fil0 str1" x1="124.495" y1="34.8358" x2="124.495" y2= "38.6944" />
  <path class="fil1" d="M108.511 34.7207l-2.0772 0 0.029 -0.0762c0.11,-0.0028 0.1834,-0.012 0.2208,-0.0268 0.0578,-0.0254 0.1009,-0.0579 0.1284,-0.0974 0.0423,-0.0635 0.0882,-0.1778 0.1362,-0.3436l0.4939 -1.7053c0.0416,-0.1404 0.062,-0.2434 0.062,-0.3097 0,-0.0522 -0.019,-0.0932 -0.0564,-0.1221 -0.0381,-0.0289 -0.1094,-0.043 -0.2145,-0.043 -0.0233,0 -0.0416,-0.0007 -0.0557,-0.0021l0.0247 -0.077 1.1437 0 -0.017 0.077c-0.1277,0 -0.2187,0.0119 -0.273,0.0366 -0.0536,0.0254 -0.0981,0.0657 -0.1341,0.1221 -0.0247,0.0374 -0.0656,0.1531 -0.122,0.3478l-0.4854 1.6757c-0.0374,0.127 -0.0558,0.2152 -0.0558,0.2646 0,0.0332 0.0184,0.0649 0.0558,0.0953 0.0232,0.0211 0.0762,0.031 0.1587,0.031l0.2709 0c0.1969,0 0.3535,-0.0247 0.4692,-0.0741 0.0854,-0.0374 0.1644,-0.0931 0.2357,-0.1679 0.0388,-0.0409 0.1065,-0.1439 0.2046,-0.3076l0.0536 -0.0932 0.0769 0 -0.273 0.7959z"/>
  <path class="fil1" d="M137.539 15.5399l-0.0367 0.1361 -0.302 0 -0.2272 0.9039c-0.1009,0.3979 -0.2025,0.7062 -0.3041,0.9235 -0.1446,0.3076 -0.3005,0.5193 -0.467,0.6364 -0.127,0.0896 -0.254,0.1348 -0.3803,0.1348 -0.0826,0 -0.1531,-0.0247 -0.211,-0.0748 -0.043,-0.0339 -0.0642,-0.079 -0.0642,-0.1341 0,-0.0437 0.0176,-0.0825 0.0529,-0.115 0.0353,-0.0317 0.0783,-0.0479 0.1291,-0.0479 0.0374,0 0.0685,0.0113 0.0939,0.0345 0.0254,0.024 0.0381,0.0508 0.0381,0.0812 0,0.0303 -0.0141,0.0585 -0.0431,0.0846 -0.0218,0.0191 -0.0331,0.0339 -0.0331,0.0431 0,0.0127 0.0049,0.0226 0.0148,0.0289 0.012,0.0099 0.031,0.0148 0.0578,0.0148 0.0593,0 0.1214,-0.019 0.187,-0.0557 0.0649,-0.0374 0.1235,-0.0931 0.1743,-0.1665 0.0515,-0.0741 0.0995,-0.1806 0.1446,-0.3196 0.0198,-0.0579 0.0713,-0.2484 0.1552,-0.5722l0.3599 -1.3999 -0.3599 0 0.029 -0.1361c0.1143,0 0.194,-0.0078 0.2399,-0.024 0.0451,-0.0155 0.0867,-0.0459 0.1248,-0.091 0.0381,-0.0445 0.0875,-0.1284 0.1482,-0.2512 0.0811,-0.1651 0.1587,-0.2935 0.2335,-0.3845 0.1016,-0.1221 0.2089,-0.2145 0.3211,-0.2759 0.1121,-0.0614 0.218,-0.0917 0.3175,-0.0917 0.1044,0 0.189,0.0268 0.2518,0.0797 0.0635,0.0529 0.0953,0.1108 0.0953,0.1722 0,0.0486 -0.0155,0.0889 -0.0473,0.122 -0.0317,0.0332 -0.0727,0.0501 -0.122,0.0501 -0.0431,0 -0.0777,-0.0127 -0.1045,-0.0374 -0.0268,-0.0247 -0.0402,-0.0543 -0.0402,-0.0889 0,-0.0219 0.0092,-0.0494 0.0268,-0.0818 0.0177,-0.0325 0.0268,-0.0544 0.0268,-0.0649 0,-0.0198 -0.0063,-0.0339 -0.0183,-0.0438 -0.0183,-0.0134 -0.0445,-0.0204 -0.079,-0.0204 -0.0868,0 -0.1644,0.0275 -0.2336,0.0825 -0.0924,0.0734 -0.1749,0.1877 -0.2476,0.3436 -0.0374,0.0812 -0.1058,0.2829 -0.2046,0.6054l0.3034 0z"/>
  <g>
   <path class="fil1" d="M134.469 23.3987l-0.2984 0 -0.9096 -1.4032 0.2984 -0.1934 0.9096 1.4032 -0.2984 -0.0001 0.2984 0.1935zm0 0l-0.1493 0.23 -0.1491 -0.23 0.2984 0zm0.7611 -1.4999l0.1492 0.0967 -0.9103 1.4032 -0.2984 -0.1935 0.9104 -1.4032 0.1491 0.0968zm-0.8221 -11.3468l0 12.4741 -0.1764 0 0 -12.4741 0.1764 0zm0.061 -0.3726l-0.2984 0.1935 0.2984 -0.0001 -0.9096 1.4032 -0.2984 -0.1934 0.9096 -1.4032 0.2984 0zm0 0l-0.2984 0 0.1491 -0.23 0.1493 0.23zm0.7611 1.4999l-0.1491 0.0968 -0.9104 -1.4032 0.2984 -0.1935 0.9103 1.4032 -0.1492 0.0967z"/>
  </g>
  <line class="fil0 str1" x1="132.57" y1="23.5132" x2="136.429" y2= "23.5132" />
  <line class="fil0 str1" x1="132.482" y1="10.0648" x2="136.341" y2= "10.0648" />
  <path class="fil1" d="M202.982 15.5399l-0.0367 0.1361 -0.302 0 -0.2272 0.9039c-0.1009,0.3979 -0.2025,0.7062 -0.3041,0.9235 -0.1446,0.3076 -0.3005,0.5193 -0.467,0.6364 -0.127,0.0896 -0.254,0.1348 -0.3803,0.1348 -0.0826,0 -0.1531,-0.0247 -0.211,-0.0748 -0.043,-0.0339 -0.0642,-0.079 -0.0642,-0.1341 0,-0.0437 0.0176,-0.0825 0.0529,-0.115 0.0353,-0.0317 0.0783,-0.0479 0.1291,-0.0479 0.0374,0 0.0685,0.0113 0.0939,0.0345 0.0254,0.024 0.0381,0.0508 0.0381,0.0812 0,0.0303 -0.0141,0.0585 -0.0431,0.0846 -0.0218,0.0191 -0.0331,0.0339 -0.0331,0.0431 0,0.0127 0.0049,0.0226 0.0148,0.0289 0.012,0.0099 0.031,0.0148 0.0578,0.0148 0.0593,0 0.1214,-0.019 0.187,-0.0557 0.0649,-0.0374 0.1235,-0.0931 0.1743,-0.1665 0.0515,-0.0741 0.0995,-0.1806 0.1446,-0.3196 0.0198,-0.0579 0.0713,-0.2484 0.1552,-0.5722l0.3599 -1.3999 -0.3599 0 0.029 -0.1361c0.1143,0 0.194,-0.0078 0.2399,-0.024 0.0451,-0.0155 0.0867,-0.0459 0.1248,-0.091 0.0381,-0.0445 0.0875,-0.1284 0.1482,-0.2512 0.0811,-0.1651 0.1587,-0.2935 0.2335,-0.3845 0.1016,-0.1221 0.2089,-0.2145 0.3211,-0.2759 0.1121,-0.0614 0.218,-0.0917 0.3175,-0.0917 0.1044,0 0.189,0.0268 0.2518,0.0797 0.0635,0.0529 0.0953,0.1108 0.0953,0.1722 0,0.0486 -0.0155,0.0889 -0.0473,0.122 -0.0317,0.0332 -0.0727,0.0501 -0.122,0.0501 -0.0431,0 -0.0777,-0.0127 -0.1045,-0.0374 -0.0268,-0.0247 -0.0402,-0.0543 -0.0402,-0.0889 0,-0.0219 0.0092,-0.0494 0.0268,-0.0818 0.0177,-0.0325 0.0268,-0.0544 0.0268,-0.0649 0,-0.0198 -0.0063,-0.0339 -0.0183,-0.0438 -0.0183,-0.0134 -0.0445,-0.0204 -0.079,-0.0204 -0.0868,0 -0.1644,0.0275 -0.2336,0.0825 -0.0924,0.0734 -0.1749,0.1877 -0.2476,0.3436 -0.0374,0.0812 -0.1058,0.2829 -0.2046,0.6054l0.3034 0z"/>
  <g>
   <path class="fil1" d="M199.912 23.3987l-0.2984 0 -0.9096 -1.4032 0.2984 -0.1934 0.9096 1.4032 -0.2984 -0.0001 0.2984 0.1935zm0 0l-0.1493 0.23 -0.1491 -0.23 0.2984 0zm0.7611 -1.4999l0.1492 0.0967 -0.9103 1.4032 -0.2984 -0.1935 0.9104 -1.4032 0.1491 0.0968zm-0.8221 -11.3468l0 12.4741 -0.1764 0 0 -12.4741 0.1764 0zm0.061 -0.3726l-0.2984 0.1935 0.2984 -0.0001 -0.9096 1.4032 -0.2984 -0.1934 0.9096 -1.4032 0.2984 0zm0 0l-0.2984 0 0.1491 -0.23 0.1493 0.23zm0.7611 1.4999l-0.1491 0.0968 -0.9104 -1.4032 0.2984 -0.1935 0.9103 1.4032 -0.1492 0.0967z"/>
  </g>
  <line class="fil0 str1" x1="198.014" y1="23.5132" x2="201.872" y2= "23.5132" />
  <line class="fil0 str1" x1="197.925" y1="10.0648" x2="201.784" y2= "10.0648" />
  <line class="fil0 str1" x1="151.598" y1="6.9858" x2="191.577" y2= "6.9858" />
  <line class="fil0 str1" x1="151.598" y1="1.9272" x2="191.577" y2= "1.9272" />
  <g>
   <path class="fil1" d="M151.51 6.4986l0 -4.5714 0.1764 0 0 4.5714 -0.1764 0zm-0.061 0.3726l0.2984 -0.1935 -0.2984 0.0001 0.9096 -1.4032 0.2984 0.1934 -0.9096 1.4032 -0.2984 0zm0 0l0.2984 0 -0.1491 0.23 -0.1493 -0.23zm-0.7611 -1.4999l0.1491 -0.0968 0.9104 1.4032 -0.2984 0.1935 -0.9103 -1.4032 0.1492 -0.0967z"/>
  </g>
  <g>
   <path class="fil1" d="M156.304 6.8178l0 -4.5714 0.1764 0 0 4.5714 -0.1764 0zm-0.061 0.3726l0.2984 -0.1935 -0.2984 0.0001 0.9096 -1.4032 0.2984 0.1934 -0.9096 1.4032 -0.2984 0zm0 0l0.2984 0 -0.1491 0.23 -0.1493 -0.23zm-0.7611 -1.4999l0.1491 -0.0968 0.9104 1.4032 -0.2984 0.1935 -0.9103 -1.4032 0.1492 -0.0967z"/>
  </g>
  <g>
   <path class="fil1" d="M161.33 6.8032l0 -4.5714 0.1764 0 0 4.5714 -0.1764 0zm-0.061 0.3726l0.2984 -0.1935 -0.2984 0.0001 0.9096 -1.4032 0.2984 0.1934 -0.9096 1.4032 -0.2984 0zm0 0l0.2984 0 -0.1491 0.23 -0.1493 -0.23zm-0.7611 -1.4999l0.1491 -0.0968 0.9104 1.4032 -0.2984 0.1935 -0.9103 -1.4032 0.1492 -0.0967z"/>
  </g>
  <g>
   <path class="fil1" d="M166.357 6.7887l0 -4.5714 0.1764 0 0 4.5714 -0.1764 0zm-0.061 0.3726l0.2984 -0.1935 -0.2984 0.0001 0.9096 -1.4032 0.2984 0.1934 -0.9096 1.4032 -0.2984 0zm0 0l0.2984 0 -0.1491 0.23 -0.1493 -0.23zm-0.7611 -1.4999l0.1491 -0.0968 0.9104 1.4032 -0.2984 0.1935 -0.9103 -1.4032 0.1492 -0.0967z"/>
  </g>
  <g>
   <path class="fil1" d="M171.383 6.7741l0 -4.5714 0.1764 0 0 4.5714 -0.1764 0zm-0.061 0.3726l0.2984 -0.1935 -0.2984 0.0001 0.9096 -1.4032 0.2984 0.1934 -0.9096 1.4032 -0.2984 0zm0 0l0.2984 0 -0.1491 0.23 -0.1493 -0.23zm-0.7611 -1.4999l0.1491 -0.0968 0.9104 1.4032 -0.2984 0.1935 -0.9103 -1.4032 0.1492 -0.0967z"/>
  </g>
  <g>
   <path class="fil1" d="M176.41 6.7595l0 -4.5714 0.1764 0 0 4.5714 -0.1764 0zm-0.061 0.3726l0.2984 -0.1935 -0.2984 0.0001 0.9096 -1.4032 0.2984 0.1934 -0.9096 1.4032 -0.2984 0zm0 0l0.2984 0 -0.1491 0.23 -0.1493 -0.23zm-0.7611 -1.4999l0.1491 -0.0968 0.9104 1.4032 -0.2984 0.1935 -0.9103 -1.4032 0.1492 -0.0967z"/>
  </g>
  <g>
   <path class="fil1" d="M181.436 6.745l0 -4.5714 0.1764 0 0 4.5714 -0.1764 0zm-0.061 0.3726l0.2984 -0.1935 -0.2984 0.0001 0.9096 -1.4032 0.2984 0.1934 -0.9096 1.4032 -0.2984 0zm0 0l0.2984 0 -0.1491 0.23 -0.1493 -0.23zm-0.7611 -1.4999l0.1491 -0.0968 0.9104 1.4032 -0.2984 0.1935 -0.9103 -1.4032 0.1492 -0.0967z"/>
  </g>
  <g>
   <path class="fil1" d="M186.462 6.7304l0 -4.5714 0.1764 0 0 4.5714 -0.1764 0zm-0.061 0.3726l0.2984 -0.1935 -0.2984 0.0001 0.9096 -1.4032 0.2984 0.1934 -0.9096 1.4032 -0.2984 0zm0 0l0.2984 0 -0.1491 0.23 -0.1493 -0.23zm-0.7611 -1.4999l0.1491 -0.0968 0.9104 1.4032 -0.2984 0.1935 -0.9103 -1.4032 0.1492 -0.0967z"/>
  </g>
  <g>
   <path class="fil1" d="M191.489 6.7158l0 -4.5714 0.1764 0 0 4.5714 -0.1764 0zm-0.061 0.3726l0.2984 -0.1935 -0.2984 0.0001 0.9096 -1.4032 0.2984 0.1934 -0.9096 1.4032 -0.2984 0zm0 0l0.2984 0 -0.1491 0.23 -0.1493 -0.23zm-0.7611 -1.4999l0.1491 -0.0968 0.9104 1.4032 -0.2984 0.1935 -0.9103 -1.4032 0.1492 -0.0967z"/>
  </g>
  <path class="fil1" d="M194.08 3.2518l-0.1426 0.4748c0.1503,-0.1764 0.2844,-0.2991 0.4022,-0.3697 0.1178,-0.0705 0.2378,-0.1051 0.3605,-0.1051 0.1228,0 0.2272,0.048 0.314,0.1453 0.0868,0.0974 0.1305,0.2237 0.1305,0.3796 0,0.3027 -0.1234,0.611 -0.3697,0.925 -0.2469,0.3133 -0.5341,0.4699 -0.8622,0.4699 -0.0691,0 -0.1298,-0.0071 -0.1827,-0.0226 -0.0536,-0.0148 -0.1129,-0.0416 -0.1792,-0.0804l-0.151 0.5334c-0.0303,0.1044 -0.0451,0.1728 -0.0451,0.2046 0,0.0303 0.0077,0.0557 0.0239,0.0776 0.0156,0.0212 0.0417,0.0374 0.077,0.0494 0.0359,0.012 0.1072,0.0176 0.213,0.0176l-0.0183 0.0762 -0.9737 0 0.0205 -0.0762c0.1284,-0.0056 0.2145,-0.0275 0.2596,-0.0663 0.0445,-0.0388 0.0918,-0.1453 0.1418,-0.3203l0.5229 -1.8105c0.0317,-0.115 0.0472,-0.1855 0.0472,-0.213 0,-0.0374 -0.0106,-0.0664 -0.0317,-0.0868 -0.0219,-0.0212 -0.0543,-0.0311 -0.0981,-0.0311 -0.0402,0 -0.0959,0.005 -0.1679,0.0141l0 -0.0804 0.7091 -0.1051zm-0.4812 1.6531c0.0854,0.1023 0.2004,0.1531 0.345,0.1531 0.0713,0 0.1446,-0.0198 0.2187,-0.06 0.0748,-0.0395 0.1475,-0.0988 0.218,-0.1778 0.0713,-0.0783 0.1348,-0.1686 0.1912,-0.2716 0.0565,-0.1023 0.1073,-0.2237 0.1524,-0.3627 0.0445,-0.139 0.0671,-0.2772 0.0671,-0.4134 0,-0.1101 -0.0254,-0.1947 -0.0755,-0.2533 -0.0501,-0.0586 -0.1094,-0.0875 -0.1764,-0.0875 -0.1489,0 -0.2964,0.0854 -0.4417,0.2561 -0.1453,0.1708 -0.2519,0.3704 -0.3196,0.599l-0.1792 0.6181z"/>
  <path class="fil0 str3" d="M154.475 23.8001c6.5769,-16.8699 26.404,-19.7594 35.3911,0.1356"/>
  <g>
   <path class="fil1" d="M154.838 25.3563l0 4.5714 -0.3528 0 0 -4.5714 0.3528 0zm-0.0272 -0.3726l-0.2984 0.1935 0.2984 -0.0001 -0.9096 1.4032 -0.2984 -0.1934 0.9096 -1.4032 0.2984 0zm0 0l-0.2984 0 0.1491 -0.23 0.1493 0.23zm0.7611 1.4999l-0.1491 0.0968 -0.9104 -1.4032 0.2984 -0.1935 0.9103 1.4032 -0.1492 0.0967z"/>
  </g>
  <g>
   <path class="fil1" d="M190.087 24.8291l0 4.5714 -0.3528 0 0 -4.5714 0.3528 0zm-0.0272 -0.3726l-0.2984 0.1935 0.2984 -0.0001 -0.9096 1.4032 -0.2984 -0.1934 0.9096 -1.4032 0.2984 0zm0 0l-0.2984 0 0.1491 -0.23 0.1493 0.23zm0.7611 1.4999l-0.1491 0.0968 -0.9104 -1.4032 0.2984 -0.1935 0.9103 1.4032 -0.1492 0.0967z"/>
  </g>
  <g>
   <path class="fil1" d="M160.085 24.5455l-4.5714 0 0 -0.3528 4.5714 0 0 0.3528zm0.3726 -0.0272l-0.1935 -0.2984 0.0001 0.2984 -1.4032 -0.9096 0.1934 -0.2984 1.4032 0.9096 0 0.2984zm0 0l0 -0.2984 0.23 0.1491 -0.23 0.1493zm-1.4999 0.7611l-0.0968 -0.1491 1.4032 -0.9104 0.1935 0.2984 -1.4032 0.9103 -0.0967 -0.1492z"/>
  </g>
  <g>
   <path class="fil1" d="M184.584 24.3179l4.5714 0 0 0.3528 -4.5714 0 0 -0.3528zm-0.3726 0.0272l0.1935 0.2984 -0.0001 -0.2984 1.4032 0.9096 -0.1934 0.2984 -1.4032 -0.9096 0 -0.2984zm0 0l0 0.2984 -0.23 -0.1491 0.23 -0.1493zm1.4999 -0.7611l0.0968 0.1491 -1.4032 0.9104 -0.1935 -0.2984 1.4032 -0.9103 0.0967 0.1492z"/>
  </g>
  <line class="fil0 str0" x1="182.118" y1="34.1367" x2="162.083" y2= "34.1367" />
  <g>
   <path class="fil1" d="M188.227 34.3125l-4.5714 0 0 -0.3528 4.5714 0 0 0.3528zm0.3726 -0.0272l-0.1935 -0.2984 0.0001 0.2984 -1.4032 -0.9096 0.1934 -0.2984 1.4032 0.9096 0 0.2984zm0 0l0 -0.2984 0.23 0.1491 -0.23 0.1493zm-1.4999 0.7611l-0.0968 -0.1491 1.4032 -0.9104 0.1935 0.2984 -1.4032 0.9103 -0.0967 -0.1492z"/>
  </g>
  <g>
   <path class="fil1" d="M155.784 33.9597l4.5714 0 0 0.3528 -4.5714 0 0 -0.3528zm-0.3726 0.0272l0.1935 0.2984 -0.0001 -0.2984 1.4032 0.9096 -0.1934 0.2984 -1.4032 -0.9096 0 -0.2984zm0 0l0 0.2984 -0.23 -0.1491 0.23 -0.1493zm1.4999 -0.7611l0.0968 0.1491 -1.4032 0.9104 -0.1935 -0.2984 1.4032 -0.9103 0.0967 0.1492z"/>
  </g>
  <path class="fil1" d="M160.271 20.883l1.2933 0 0.2053 -0.6929c0.0381,-0.1347 0.0579,-0.2391 0.0579,-0.3139 0,-0.036 -0.0092,-0.0664 -0.0261,-0.0918 -0.017,-0.0254 -0.0438,-0.0444 -0.0798,-0.0571 -0.036,-0.012 -0.1058,-0.0183 -0.2109,-0.0183l0.0211 -0.077 1.1282 0 -0.0247 0.077c-0.0952,-0.0015 -0.1658,0.0077 -0.2131,0.0289 -0.0656,0.0289 -0.115,0.0663 -0.1467,0.1115 -0.0452,0.0649 -0.0917,0.1785 -0.1383,0.3407l-0.4939 1.6934c-0.0416,0.1404 -0.0621,0.2413 -0.0621,0.3012 0,0.0529 0.0184,0.0925 0.0551,0.1193 0.0359,0.0268 0.1234,0.0451 0.261,0.055l-0.0226 0.0762 -1.0915 0 0.029 -0.0762c0.1072,-0.0028 0.1792,-0.0127 0.2152,-0.0289 0.055,-0.0254 0.0952,-0.0572 0.1199,-0.0953 0.0353,-0.0536 0.0797,-0.1707 0.1319,-0.3513l0.2526 -0.858 -1.3003 0 -0.2547 0.858c-0.0395,0.1375 -0.0593,0.2384 -0.0593,0.3012 0,0.0529 0.0177,0.0925 0.0537,0.1193 0.0352,0.0268 0.1227,0.0451 0.2603,0.055l-0.0169 0.0762 -1.0993 0 0.0268 -0.0762c0.1087,-0.0028 0.1814,-0.0127 0.2173,-0.0289 0.0551,-0.0254 0.0953,-0.0572 0.1214,-0.0953 0.036,-0.0564 0.0804,-0.1735 0.1326,-0.3513l0.496 -1.6934c0.0403,-0.1375 0.06,-0.242 0.06,-0.3139 0,-0.036 -0.0085,-0.0664 -0.0261,-0.0918 -0.0169,-0.0254 -0.0437,-0.0444 -0.0804,-0.0571 -0.0367,-0.012 -0.108,-0.0183 -0.2138,-0.0183l0.0247 -0.077 1.1056 0 -0.0226 0.077c-0.0924,-0.0015 -0.1602,0.0077 -0.2046,0.0289 -0.0649,0.0275 -0.1122,0.0642 -0.1425,0.1093 -0.0416,0.0607 -0.0868,0.175 -0.1362,0.3429l-0.2025 0.6929z"/>
  <path class="fil1" d="M183.071 22.0018l1.2933 0 0.2053 -0.6929c0.0381,-0.1347 0.0579,-0.2391 0.0579,-0.3139 0,-0.036 -0.0092,-0.0664 -0.0261,-0.0918 -0.017,-0.0254 -0.0438,-0.0444 -0.0798,-0.0571 -0.036,-0.012 -0.1058,-0.0183 -0.2109,-0.0183l0.0211 -0.077 1.1282 0 -0.0247 0.077c-0.0952,-0.0015 -0.1658,0.0077 -0.2131,0.0289 -0.0656,0.0289 -0.115,0.0663 -0.1467,0.1115 -0.0452,0.0649 -0.0917,0.1785 -0.1383,0.3407l-0.4939 1.6934c-0.0416,0.1404 -0.0621,0.2413 -0.0621,0.3012 0,0.0529 0.0184,0.0925 0.0551,0.1193 0.0359,0.0268 0.1234,0.0451 0.261,0.055l-0.0226 0.0762 -1.0915 0 0.029 -0.0762c0.1072,-0.0028 0.1792,-0.0127 0.2152,-0.0289 0.055,-0.0254 0.0952,-0.0572 0.1199,-0.0953 0.0353,-0.0536 0.0797,-0.1707 0.1319,-0.3513l0.2526 -0.858 -1.3003 0 -0.2547 0.858c-0.0395,0.1375 -0.0593,0.2384 -0.0593,0.3012 0,0.0529 0.0177,0.0925 0.0537,0.1193 0.0352,0.0268 0.1227,0.0451 0.2603,0.055l-0.0169 0.0762 -1.0993 0 0.0268 -0.0762c0.1087,-0.0028 0.1814,-0.0127 0.2173,-0.0289 0.0551,-0.0254 0.0953,-0.0572 0.1214,-0.0953 0.036,-0.0564 0.0804,-0.1735 0.1326,-0.3513l0.496 -1.6934c0.0403,-0.1375 0.06,-0.242 0.06,-0.3139 0,-0.036 -0.0085,-0.0664 -0.0261,-0.0918 -0.0169,-0.0254 -0.0437,-0.0444 -0.0804,-0.0571 -0.0367,-0.012 -0.108,-0.0183 -0.2138,-0.0183l0.0247 -0.077 1.1056 0 -0.0226 0.077c-0.0924,-0.0015 -0.1602,0.0077 -0.2046,0.0289 -0.0649,0.0275 -0.1122,0.0642 -0.1425,0.1093 -0.0416,0.0607 -0.0868,0.175 -0.1362,0.3429l-0.2025 0.6929z"/>
  <path class="fil1" d="M158.458 31.266l1.2933 0 0.2053 -0.6929c0.0381,-0.1347 0.0579,-0.2391 0.0579,-0.3139 0,-0.036 -0.0092,-0.0664 -0.0261,-0.0918 -0.017,-0.0254 -0.0438,-0.0444 -0.0798,-0.0571 -0.036,-0.012 -0.1058,-0.0183 -0.2109,-0.0183l0.0211 -0.077 1.1282 0 -0.0247 0.077c-0.0952,-0.0015 -0.1658,0.0077 -0.2131,0.0289 -0.0656,0.0289 -0.115,0.0663 -0.1467,0.1115 -0.0452,0.0649 -0.0917,0.1785 -0.1383,0.3407l-0.4939 1.6934c-0.0416,0.1404 -0.0621,0.2413 -0.0621,0.3012 0,0.0529 0.0184,0.0925 0.0551,0.1193 0.0359,0.0268 0.1234,0.0451 0.261,0.055l-0.0226 0.0762 -1.0915 0 0.029 -0.0762c0.1072,-0.0028 0.1792,-0.0127 0.2152,-0.0289 0.055,-0.0254 0.0952,-0.0572 0.1199,-0.0953 0.0353,-0.0536 0.0797,-0.1707 0.1319,-0.3513l0.2526 -0.858 -1.3003 0 -0.2547 0.858c-0.0395,0.1375 -0.0593,0.2384 -0.0593,0.3012 0,0.0529 0.0177,0.0925 0.0537,0.1193 0.0352,0.0268 0.1227,0.0451 0.2603,0.055l-0.0169 0.0762 -1.0993 0 0.0268 -0.0762c0.1087,-0.0028 0.1814,-0.0127 0.2173,-0.0289 0.0551,-0.0254 0.0953,-0.0572 0.1214,-0.0953 0.036,-0.0564 0.0804,-0.1735 0.1326,-0.3513l0.496 -1.6934c0.0403,-0.1375 0.06,-0.242 0.06,-0.3139 0,-0.036 -0.0085,-0.0664 -0.0261,-0.0918 -0.0169,-0.0254 -0.0437,-0.0444 -0.0804,-0.0571 -0.0367,-0.012 -0.108,-0.0183 -0.2138,-0.0183l0.0247 -0.077 1.1056 0 -0.0226 0.077c-0.0924,-0.0015 -0.1602,0.0077 -0.2046,0.0289 -0.0649,0.0275 -0.1122,0.0642 -0.1425,0.1093 -0.0416,0.0607 -0.0868,0.175 -0.1362,0.3429l-0.2025 0.6929z"/>
  <path class="fil1" d="M185.543 31.7257l1.2933 0 0.2053 -0.6929c0.0381,-0.1347 0.0579,-0.2391 0.0579,-0.3139 0,-0.036 -0.0092,-0.0664 -0.0261,-0.0918 -0.017,-0.0254 -0.0438,-0.0444 -0.0798,-0.0571 -0.036,-0.012 -0.1058,-0.0183 -0.2109,-0.0183l0.0211 -0.077 1.1282 0 -0.0247 0.077c-0.0952,-0.0015 -0.1658,0.0077 -0.2131,0.0289 -0.0656,0.0289 -0.115,0.0663 -0.1467,0.1115 -0.0452,0.0649 -0.0917,0.1785 -0.1383,0.3407l-0.4939 1.6934c-0.0416,0.1404 -0.0621,0.2413 -0.0621,0.3012 0,0.0529 0.0184,0.0925 0.0551,0.1193 0.0359,0.0268 0.1234,0.0451 0.261,0.055l-0.0226 0.0762 -1.0915 0 0.029 -0.0762c0.1072,-0.0028 0.1792,-0.0127 0.2152,-0.0289 0.055,-0.0254 0.0952,-0.0572 0.1199,-0.0953 0.0353,-0.0536 0.0797,-0.1707 0.1319,-0.3513l0.2526 -0.858 -1.3003 0 -0.2547 0.858c-0.0395,0.1375 -0.0593,0.2384 -0.0593,0.3012 0,0.0529 0.0177,0.0925 0.0537,0.1193 0.0352,0.0268 0.1227,0.0451 0.2603,0.055l-0.0169 0.0762 -1.0993 0 0.0268 -0.0762c0.1087,-0.0028 0.1814,-0.0127 0.2173,-0.0289 0.0551,-0.0254 0.0953,-0.0572 0.1214,-0.0953 0.036,-0.0564 0.0804,-0.1735 0.1326,-0.3513l0.496 -1.6934c0.0403,-0.1375 0.06,-0.242 0.06,-0.3139 0,-0.036 -0.0085,-0.0664 -0.0261,-0.0918 -0.0169,-0.0254 -0.0437,-0.0444 -0.0804,-0.0571 -0.0367,-0.012 -0.108,-0.0183 -0.2138,-0.0183l0.0247 -0.077 1.1056 0 -0.0226 0.077c-0.0924,-0.0015 -0.1602,0.0077 -0.2046,0.0289 -0.0649,0.0275 -0.1122,0.0642 -0.1425,0.1093 -0.0416,0.0607 -0.0868,0.175 -0.1362,0.3429l-0.2025 0.6929z"/>
  <path class="fil1" d="M152.894 25.7966l-0.2131 2.3311c-0.0113,0.1093 -0.0162,0.1806 -0.0162,0.2152 0,0.055 0.0098,0.0973 0.031,0.1263 0.0261,0.0395 0.0614,0.0691 0.1058,0.0889 0.0452,0.019 0.1207,0.0289 0.2265,0.0289l-0.0226 0.0762 -1.1034 0 0.0225 -0.0762 0.0473 0c0.0896,0 0.163,-0.0198 0.2194,-0.0579 0.0395,-0.0268 0.0706,-0.0698 0.0932,-0.1305 0.0148,-0.043 0.0296,-0.1432 0.043,-0.302l0.0332 -0.3556 -0.8023 0 -0.285 0.3867c-0.0649,0.0868 -0.1051,0.1496 -0.1221,0.187 -0.0162,0.0381 -0.0246,0.0733 -0.0246,0.1065 0,0.0444 0.0176,0.0818 0.0536,0.1136 0.036,0.0317 0.0952,0.0494 0.1778,0.0522l-0.0226 0.0762 -0.829 0 0.0226 -0.0762c0.1023,-0.0042 0.1919,-0.0388 0.2702,-0.1023 0.0776,-0.0642 0.1933,-0.2011 0.3478,-0.4106l1.6743 -2.2775 0.0727 0zm-0.4093 0.6879l-0.8128 1.1056 0.7049 0 0.1079 -1.1056z"/>
  <path class="fil1" d="M191.784 25.6073l0.029 -0.077 1.0004 0c0.1679,0 0.3175,0.0262 0.4495,0.0791 0.1312,0.0522 0.23,0.1249 0.2956,0.2187 0.0656,0.0938 0.0981,0.1933 0.0981,0.2977 0,0.1616 -0.0586,0.3069 -0.175,0.4375 -0.1164,0.1298 -0.3062,0.2265 -0.5694,0.2878 0.17,0.0635 0.2942,0.1475 0.3746,0.2526 0.0798,0.1044 0.12,0.2195 0.12,0.345 0,0.139 -0.036,0.2724 -0.108,0.3994 -0.0712,0.1263 -0.1636,0.2251 -0.2758,0.2949 -0.1122,0.0706 -0.2477,0.1221 -0.4064,0.1552 -0.1129,0.0233 -0.2893,0.0353 -0.5292,0.0353l-1.0273 0 0.0268 -0.0762c0.108,-0.0028 0.1807,-0.0134 0.2195,-0.031 0.055,-0.024 0.0945,-0.0551 0.1178,-0.0932 0.0332,-0.0522 0.0769,-0.1721 0.1319,-0.3598l0.5024 -1.6969c0.043,-0.1432 0.0642,-0.2441 0.0642,-0.3019 0,-0.0508 -0.0191,-0.091 -0.0565,-0.1207 -0.0381,-0.0296 -0.11,-0.0444 -0.2166,-0.0444 -0.0232,0 -0.0451,-0.0007 -0.0656,-0.0021zm0.4191 1.1634c0.0896,0.0028 0.1545,0.0042 0.1948,0.0042 0.2864,0 0.4995,-0.062 0.6399,-0.1869 0.1397,-0.1249 0.2095,-0.2808 0.2095,-0.4685 0,-0.1418 -0.043,-0.2526 -0.1284,-0.3316 -0.0853,-0.079 -0.2215,-0.1186 -0.4092,-0.1186 -0.0494,0 -0.1129,0.0078 -0.1898,0.0247l-0.3168 1.0767zm-0.4071 1.3808c0.1489,0.0197 0.2653,0.0289 0.3493,0.0289 0.2152,0 0.4057,-0.0649 0.5715,-0.194 0.1665,-0.1299 0.249,-0.3055 0.249,-0.5271 0,-0.1693 -0.0508,-0.302 -0.1538,-0.3972 -0.1023,-0.0953 -0.2681,-0.1425 -0.4967,-0.1425 -0.0444,0 -0.0981,0.0021 -0.1616,0.0063l-0.3577 1.2256z"/>
  <polygon class="fil0 str4" points="124.453,24.1189 125.016,24.8197 125.579,25.5205 124.453,25.5205 123.327,25.5205 123.89,24.8197 "/>
  <g>
   <line class="fil0 str4" x1="125.885" y1="26.2149" x2="123.081" y2= "26.2149" />
   <g>
    <line class="fil0 str4" x1="125.615" y1="26.2534" x2="125.859" y2= "26.8064" />
    <line class="fil0 str4" x1="125.114" y1="26.2534" x2="125.359" y2= "26.8064" />
    <line class="fil0 str4" x1="124.614" y1="26.2534" x2="124.858" y2= "26.8064" />
    <line class="fil0 str4" x1="124.114" y1="26.2534" x2="124.358" y2= "26.8064" />
    <line class="fil0 str4" x1="123.613" y1="26.2534" x2="123.858" y2= "26.8064" />
    <line class="fil0 str4" x1="123.113" y1="26.2534" x2="123.357" y2= "26.8064" />
   </g>
  </g>
  <circle class="fil2 str4" cx="124.453" cy="23.7885" r="0.309475"/>
  <circle class="fil2 str4" cx="124.453" cy="25.8299" r="0.309475"/>
 </g>
</svg>
