<?xml version="1.0" encoding="UTF-8"?>
<!DOCTYPE svg PUBLIC "-//W3C//DTD SVG 1.1//EN" "http://www.w3.org/Graphics/SVG/1.1/DTD/svg11.dtd">
<!-- Creator: CorelDRAW -->
<svg xmlns="http://www.w3.org/2000/svg" xml:space="preserve" width="67mm" height="43mm" style="shape-rendering:geometricPrecision; text-rendering:geometricPrecision; image-rendering:optimizeQuality; fill-rule:evenodd; clip-rule:evenodd"
viewBox="0 0 67 25.0133">
 <defs>
  <style type="text/css">
   <![CDATA[
    .str0 {stroke:#1F1A17;stroke-width:0.157584}
    .str1 {stroke:#131516;stroke-width:0.157584}
    .str2 {stroke:#1F1A17;stroke-width:0.315168}
    .fil0 {fill:none}
    .fil1 {fill:#1F1A17;fill-rule:nonzero}
    .fil2 {fill:url(#id0)}
   ]]>
  </style>
  <linearGradient id="id0" gradientUnits="userSpaceOnUse" x1="53.6668" y1="4.49195" x2="52.8012" y2="4.49195">
   <stop offset="0" style="stop-color:white"/>
   <stop offset="1" style="stop-color:white"/>
  </linearGradient>
 </defs>
 <g id="Layer_x0020_1">
  <metadata id="CorelCorpID_0Corel-Layer"/>
  <line class="fil0 str0" x1="60.4052" y1="4.45166" x2="63.8841" y2= "4.45166" />
  <g>
   <path class="fil1" d="M62.0282 11.3903l-0.266481 0.000982667 -0.817489 -1.2504 0.265856 -0.173843 0.817489 1.2504 -0.266571 0.000982667 0.267196 0.171877zm0 0l-0.132481 0.205913 -0.134 -0.204931 0.266481 -0.000982667zm0.674824 -1.34259l0.133553 0.0859387 -0.808377 1.25665 -0.267196 -0.171877 0.808377 -1.25665 0.133643 0.0859387zm-0.754867 -5.18151l0.02412 6.19169 -0.157048 0 -0.02412 -6.19169 0.157048 0zm0.0535107 -0.333392l-0.265856 0.173932 0.266571 -0.001072 -0.807752 1.25665 -0.267196 -0.171788 0.807752 -1.25665 0.266481 -0.001072zm0 0l-0.266481 0.001072 0.132392 -0.206003 0.134089 0.204931zm0.685187 1.33732l-0.132928 0.0869213 -0.818115 -1.25031 0.265856 -0.173932 0.818115 1.25031 -0.132928 0.0870107z"/>
  </g>
  <line class="fil0 str0" x1="60.3982" y1="11.5464" x2="63.8771" y2= "11.5464" />
  <path class="fil1" d="M65.8739 7.39859l-0.0327853 0.121583 -0.269787 0 -0.202965 0.807484c-0.0901373,0.355457 -0.1809,0.630872 -0.271663,0.824993 -0.129176,0.274789 -0.268447,0.463908 -0.417187,0.568517 -0.113453,0.0800427 -0.226907,0.120421 -0.339735,0.120421 -0.0737893,0 -0.136769,-0.0220653 -0.188493,-0.0668213 -0.0384133,-0.030284 -0.057352,-0.0705733 -0.057352,-0.119796 0,-0.0390387 0.0157227,-0.0737 0.0472573,-0.102733 0.0315347,-0.0283187 0.069948,-0.0427907 0.115329,-0.0427907 0.0334107,0 0.0611933,0.0100947 0.083884,0.03082 0.0226907,0.02144 0.034036,0.0453813 0.034036,0.0725387 0,0.027068 -0.012596,0.05226 -0.0385027,0.075576 -0.0194747,0.0170627 -0.0295693,0.030284 -0.0295693,0.0385027 0,0.0113453 0.00437733,0.0201893 0.0132213,0.0258173 0.01072,0.008844 0.0276933,0.0132213 0.0516347,0.0132213 0.0529747,0 0.108451,-0.0169733 0.167053,-0.0497587 0.0579773,-0.0334107 0.110327,-0.0831693 0.155708,-0.14874 0.0460067,-0.066196 0.0888867,-0.161336 0.129176,-0.285509 0.017688,-0.051724 0.0636947,-0.221904 0.138645,-0.511165l0.321511 -1.25058 -0.321511 0 0.0259067 -0.121583c0.102108,0 0.173307,-0.006968 0.214311,-0.02144 0.0402893,-0.0138467 0.077452,-0.041004 0.111488,-0.0812933 0.034036,-0.0397533 0.0781667,-0.114704 0.132392,-0.224405 0.0724493,-0.147489 0.141772,-0.262193 0.208593,-0.343487 0.0907627,-0.109076 0.186617,-0.19162 0.286849,-0.246471 0.100143,-0.0548507 0.194747,-0.0819187 0.283633,-0.0819187 0.093264,0 0.16884,0.0239413 0.224941,0.0711987 0.0567267,0.0472573 0.0851347,0.0989813 0.0851347,0.153832 0,0.043416 -0.0138467,0.0794173 -0.0422547,0.108987 -0.0283187,0.0296587 -0.0649453,0.044756 -0.108987,0.044756 -0.0385027,0 -0.069412,-0.0113453 -0.0933533,-0.0334107 -0.0239413,-0.0220653 -0.035912,-0.048508 -0.035912,-0.0794173 0,-0.019564 0.00821867,-0.0441307 0.0239413,-0.0730747 0.015812,-0.0290333 0.0239413,-0.0485973 0.0239413,-0.0579773 0,-0.017688 -0.005628,-0.030284 -0.016348,-0.039128 -0.016348,-0.0119707 -0.0397533,-0.018224 -0.0705733,-0.018224 -0.0775413,0 -0.146864,0.0245667 -0.208683,0.0737 -0.082544,0.0655707 -0.156244,0.167679 -0.221189,0.306949 -0.0334107,0.0725387 -0.0945147,0.252724 -0.182776,0.540824l0.271037 0z"/>
  <path class="fil1" d="M65.872 9.16274c0,-0.143023 0.0220653,-0.265945 0.0649453,-0.369304 0.0427907,-0.102733 0.100232,-0.179649 0.171431,-0.230123 0.055476,-0.0402893 0.112828,-0.0598533 0.172056,-0.0598533 0.0957653,0 0.182151,0.048508 0.258441,0.146864 0.09514,0.121047 0.143023,0.285509 0.143023,0.492852 0,0.144988 -0.0208147,0.268536 -0.06298,0.370019 -0.0416293,0.101483 -0.0952293,0.175183 -0.160085,0.221189 -0.0649453,0.0460067 -0.127389,0.0686973 -0.187868,0.0686973 -0.119081,0 -0.218688,-0.0705733 -0.298105,-0.211095 -0.0668213,-0.119171 -0.100857,-0.262193 -0.100857,-0.429247zm0.181525 0.0226907c0,0.172681 0.0208147,0.313292 0.0636947,0.422279 0.0346613,0.091388 0.0869213,0.137395 0.156869,0.137395 0.0327853,0 0.0674467,-0.0150973 0.103448,-0.044756 0.0352867,-0.0301947 0.0623547,-0.0800427 0.0812933,-0.149991 0.0276933,-0.10586 0.0421653,-0.255225 0.0421653,-0.448096 0,-0.142487 -0.014472,-0.261568 -0.0441307,-0.357423 -0.0226013,-0.0705733 -0.0510093,-0.120332 -0.086296,-0.149991 -0.025192,-0.0208147 -0.055476,-0.0309093 -0.091388,-0.0309093 -0.0416293,0 -0.078792,0.0189387 -0.111577,0.0567267 -0.0441307,0.0510987 -0.0744147,0.131141 -0.0901373,0.240843 -0.016348,0.109612 -0.0239413,0.217437 -0.0239413,0.323923z"/>
  <polygon class="fil0 str1" points="53.6959,4.49204 54.6761,5.27924 55.6562,6.06654 55.6562,4.49204 55.6562,2.91745 54.6761,3.70474 "/>
  <g>
   <line class="fil0 str1" x1="55.6612" y1="6.61844" x2="55.6612" y2= "2.69805" />
   <g id="_209488704">
    <line id="_209854448" class="fil0 str1" x1="55.7151" y1="6.24074" x2="56.4884" y2= "6.58244" />
    <line id="_208871200" class="fil0 str1" x1="55.7151" y1="5.54099" x2="56.4884" y2= "5.88269" />
    <line id="_208824616" class="fil0 str1" x1="55.7151" y1="4.84124" x2="56.4884" y2= "5.18294" />
    <line id="_209106448" class="fil0 str1" x1="55.7151" y1="4.14149" x2="56.4884" y2= "4.48319" />
    <line id="_209231856" class="fil0 str1" x1="55.7151" y1="3.44175" x2="56.4884" y2= "3.78345" />
    <line id="_209756144" class="fil0 str1" x1="55.7151" y1="2.74209" x2="56.4884" y2= "3.0837" />
   </g>
  </g>
  <circle class="fil2 str1" transform="matrix(1.64037E-013 -0.688188 0.688188 1.64037E-013 53.234 4.49199)" r="0.628907"/>
  <polygon class="fil0 str1" points="3.40503,4.49204 2.42486,5.27924 1.44479,6.06654 1.44479,4.49204 1.44479,2.91745 2.42486,3.70474 "/>
  <g>
   <line class="fil0 str1" x1="1.43979" y1="6.61844" x2="1.43979" y2= "2.69805" />
   <g id="_209349832">
    <line id="_209634392" class="fil0 str1" x1="1.38583" y1="6.24074" x2="0.612559" y2= "6.58244" />
    <line id="_209848712" class="fil0 str1" x1="1.38583" y1="5.54099" x2="0.612559" y2= "5.88269" />
    <line id="_138974568" class="fil0 str1" x1="1.38583" y1="4.84124" x2="0.612559" y2= "5.18294" />
    <line id="_210510960" class="fil0 str1" x1="1.38583" y1="4.14149" x2="0.612559" y2= "4.48319" />
    <line id="_209691712" class="fil0 str1" x1="1.38583" y1="3.44175" x2="0.612559" y2= "3.78345" />
    <line id="_208861464" class="fil0 str1" x1="1.38583" y1="2.74209" x2="0.612559" y2= "3.0837" />
   </g>
  </g>
  <circle class="fil2 str1" transform="matrix(-1.64037E-013 -0.688188 -0.688188 1.64037E-013 3.86699 4.49199)" r="0.628907"/>
  <line class="fil0 str2" x1="4.23654" y1="4.65811" x2="29.0073" y2= "11.5465" />
  <line class="fil0 str2" x1="53.5762" y1="4.65793" x2="28.8054" y2= "11.5463" />
  <g>
   <path class="fil1" d="M29.2202 10.9122l-0.266571 0 -0.812576 -1.25353 0.266571 -0.172771 0.812576 1.25353 -0.266571 -8.93333e-005 0.266571 0.17286zm0 0l-0.133375 0.205467 -0.133196 -0.205467 0.266571 0zm0.679916 -1.33991l0.133285 0.0863853 -0.813201 1.25353 -0.266571 -0.17286 0.813291 -1.25353 0.133196 0.0864747zm-0.655617 -6.63273l0 7.63979 -0.315168 0 0 -7.63979 0.315168 0z"/>
  </g>
  <path class="fil1" d="M33.1486 1.00589l-0.186617 0.787831 -0.069948 0c0.0113453,-0.0920133 0.0170627,-0.160085 0.0170627,-0.204841 0,-0.120421 -0.0536,-0.227532 -0.160175,-0.320171 -0.106485,-0.092728 -0.253349,-0.13936 -0.440503,-0.13936 -0.382615,0 -0.695281,0.179649 -0.937911,0.538948 -0.193496,0.284259 -0.289887,0.602553 -0.289887,0.954884 0,0.233875 0.0598533,0.4355 0.178935,0.60568 0.119796,0.169555 0.303823,0.254689 0.552169,0.254689 0.0617293,0 0.119707,-0.00571733 0.174557,-0.0164373 0.0548507,-0.0113453 0.137395,-0.035912 0.248347,-0.0737l0.182776 -0.644808c0.0259067,-0.0882613 0.039128,-0.15946 0.039128,-0.212435 0,-0.0441307 -0.0164373,-0.0781667 -0.047972,-0.101483 -0.0516347,-0.035912 -0.135429,-0.0535107 -0.251473,-0.0535107l-0.0516347 0 0.0201893 -0.0719133 1.04181 0 -0.0188493 0.0719133c-0.094604,0.00125067 -0.163301,0.012596 -0.206807,0.0334107 -0.0427907,0.0207253 -0.0800427,0.0567267 -0.110863,0.107111 -0.0208147,0.0334107 -0.0542253,0.129801 -0.101483,0.289976l-0.184741 0.633373c-0.168215,0.0725387 -0.304359,0.121047 -0.407717,0.144988 -0.103448,0.0239413 -0.212435,0.035912 -0.327139,0.035912 -0.263444,0 -0.476504,-0.0497587 -0.640431,-0.14874 -0.163837,-0.0989813 -0.284884,-0.230033 -0.363051,-0.393335 -0.0780773,-0.163212 -0.117205,-0.325173 -0.117205,-0.486509 0,-0.216812 0.0453813,-0.422993 0.136769,-0.61774 0.0907627,-0.195372 0.204841,-0.359835 0.34036,-0.494728 0.136144,-0.134893 0.284259,-0.241468 0.444344,-0.31892 0.220653,-0.1072 0.451937,-0.160085 0.694567,-0.160085 0.178399,0 0.339735,0.028944 0.483472,0.088172 0.0579773,0.023316 0.100232,0.0352867 0.1273,0.0352867 0.0309093,0 0.057352,-0.00687867 0.078792,-0.02144 0.02144,-0.0138467 0.0491333,-0.048508 0.0837947,-0.102019l0.0700373 0z"/>
  <g>
   <path class="fil1" d="M3.98972 22.3677l-0.000268 -0.266481 1.25272 -0.814005 0.173039 0.266392 -1.25263 0.814005 -0.000268 -0.266571 -0.172592 0.26666zm0 0l-0.205556 -0.133017 0.205288 -0.133464 0.000268 0.266481zm1.34071 0.678576l-0.086296 0.133285 -1.25442 -0.811861 0.172592 -0.26666 1.25442 0.811861 -0.086296 0.133375zm23.3212 -0.760048l-24.3291 0.0264427 0 -0.157048 24.3291 -0.0264427 0 0.157048zm0.333035 0.054404l-0.173217 -0.266303 0.000357333 0.266481 -1.25442 -0.811236 0.172503 -0.266749 1.25442 0.811236 0.000357333 0.266571zm0 0l-0.000357333 -0.266571 0.205645 0.133017 -0.205288 0.133553zm-1.3392 0.681435l-0.0866533 -0.133196 1.25263 -0.814541 0.173217 0.266303 -1.25263 0.814541 -0.086564 -0.133107z"/>
  </g>
  <line class="fil0 str0" x1="3.88725" y1="20.7374" x2="3.88725" y2= "24.2163" />
  <path class="fil1" d="M17.0566 19.1099l-0.359835 1.25174 -0.0403787 0.168304c-0.003752,0.0157227 -0.00571733,0.028944 -0.00571733,0.0402893 0,0.019564 0.00634267,0.037252 0.0183133,0.051724 0.0100947,0.0113453 0.0220653,0.016348 0.0371627,0.016348 0.015812,0 0.0366267,-0.00938 0.062444,-0.028944 0.048508,-0.035912 0.112203,-0.109701 0.192245,-0.221904l0.06298 0.0441307c-0.0850453,0.128015 -0.172681,0.225656 -0.262193,0.293103 -0.0901373,0.0668213 -0.173307,0.100232 -0.249597,0.100232 -0.0528853,0 -0.0926387,-0.0132213 -0.119081,-0.0397533 -0.026532,-0.0264427 -0.0397533,-0.064856 -0.0397533,-0.115329 0,-0.0598533 0.013936,-0.139271 0.041004,-0.238252l0.0384133 -0.13802c-0.161336,0.210559 -0.309451,0.357423 -0.444969,0.441217 -0.097016,0.0598533 -0.192871,0.0901373 -0.286135,0.0901373 -0.0901373,0 -0.167679,-0.0371627 -0.232624,-0.111577 -0.0654813,-0.0743253 -0.0976413,-0.177148 -0.0976413,-0.307575 0,-0.195372 0.0586027,-0.402089 0.175808,-0.619616 0.11792,-0.216812 0.267285,-0.390744 0.448185,-0.521171 0.141147,-0.103448 0.274789,-0.155083 0.400839,-0.155083 0.07504,0 0.137395,0.019564 0.187243,0.0586027 0.0497587,0.0397533 0.0875467,0.104609 0.113453,0.195997l0.066732 -0.210469 0.293103 -0.0441307zm-0.657404 0.0957653c-0.078792,0 -0.161961,0.037252 -0.250848,0.110952 -0.125424,0.104609 -0.237001,0.259692 -0.335268,0.465159 -0.0977307,0.205467 -0.146864,0.391369 -0.146864,0.557797 0,0.083884 0.02144,0.149991 0.06298,0.198588 0.0416293,0.048508 0.0901373,0.0724493 0.144363,0.0724493 0.133643,0 0.279881,-0.0989813 0.437465,-0.296855 0.210469,-0.263444 0.315704,-0.533856 0.315704,-0.810521 0,-0.104699 -0.0201,-0.180275 -0.061104,-0.227621 -0.0403787,-0.046632 -0.0957653,-0.069948 -0.166428,-0.069948z"/>
  <g>
   <path class="fil1" d="M28.9494 22.3677l-0.000268 -0.266481 1.25272 -0.814005 0.173039 0.266392 -1.25263 0.814005 -0.000268 -0.266571 -0.172592 0.26666zm0 0l-0.205556 -0.133017 0.205288 -0.133464 0.000268 0.266481zm1.34071 0.678576l-0.086296 0.133285 -1.25442 -0.811861 0.172592 -0.26666 1.25442 0.811861 -0.086296 0.133375zm23.3212 -0.760048l-24.3291 0.0264427 0 -0.157048 24.3291 -0.0264427 0 0.157048zm0.333035 0.054404l-0.173217 -0.266303 0.000357333 0.266481 -1.25442 -0.811236 0.172503 -0.266749 1.25442 0.811236 0.000357333 0.266571zm0 0l-0.000357333 -0.266571 0.205645 0.133017 -0.205288 0.133553zm-1.3392 0.681435l-0.0866533 -0.133196 1.25263 -0.814541 0.173217 0.266303 -1.25263 0.814541 -0.086564 -0.133107z"/>
  </g>
  <line class="fil0 str0" x1="28.847" y1="20.7374" x2="28.847" y2= "24.2163" />
  <line class="fil0 str0" x1="54.0465" y1="20.4678" x2="54.0465" y2= "23.9467" />
  <path class="fil1" d="M42.0163 19.1099l-0.359835 1.25174 -0.0403787 0.168304c-0.003752,0.0157227 -0.00571733,0.028944 -0.00571733,0.0402893 0,0.019564 0.00634267,0.037252 0.0183133,0.051724 0.0100947,0.0113453 0.0220653,0.016348 0.0371627,0.016348 0.015812,0 0.0366267,-0.00938 0.062444,-0.028944 0.048508,-0.035912 0.112203,-0.109701 0.192245,-0.221904l0.06298 0.0441307c-0.0850453,0.128015 -0.172681,0.225656 -0.262193,0.293103 -0.0901373,0.0668213 -0.173307,0.100232 -0.249597,0.100232 -0.0528853,0 -0.0926387,-0.0132213 -0.119081,-0.0397533 -0.026532,-0.0264427 -0.0397533,-0.064856 -0.0397533,-0.115329 0,-0.0598533 0.013936,-0.139271 0.041004,-0.238252l0.0384133 -0.13802c-0.161336,0.210559 -0.309451,0.357423 -0.444969,0.441217 -0.097016,0.0598533 -0.192871,0.0901373 -0.286135,0.0901373 -0.0901373,0 -0.167679,-0.0371627 -0.232624,-0.111577 -0.0654813,-0.0743253 -0.0976413,-0.177148 -0.0976413,-0.307575 0,-0.195372 0.0586027,-0.402089 0.175808,-0.619616 0.11792,-0.216812 0.267285,-0.390744 0.448185,-0.521171 0.141147,-0.103448 0.274789,-0.155083 0.400839,-0.155083 0.07504,0 0.137395,0.019564 0.187243,0.0586027 0.0497587,0.0397533 0.0875467,0.104609 0.113453,0.195997l0.066732 -0.210469 0.293103 -0.0441307zm-0.657404 0.0957653c-0.078792,0 -0.161961,0.037252 -0.250848,0.110952 -0.125424,0.104609 -0.237001,0.259692 -0.335268,0.465159 -0.0977307,0.205467 -0.146864,0.391369 -0.146864,0.557797 0,0.083884 0.02144,0.149991 0.06298,0.198588 0.0416293,0.048508 0.0901373,0.0724493 0.144363,0.0724493 0.133643,0 0.279881,-0.0989813 0.437465,-0.296855 0.210469,-0.263444 0.315704,-0.533856 0.315704,-0.810521 0,-0.104699 -0.0201,-0.180275 -0.061104,-0.227621 -0.0403787,-0.046632 -0.0957653,-0.069948 -0.166428,-0.069948z"/>
 </g>
</svg>
