<?xml version="1.0" encoding="UTF-8"?>
<!DOCTYPE svg PUBLIC "-//W3C//DTD SVG 1.1//EN" "http://www.w3.org/Graphics/SVG/1.1/DTD/svg11.dtd">
<!-- Creator: CorelDRAW -->
<svg xmlns="http://www.w3.org/2000/svg" xmlns:xlink="http://www.w3.org/1999/xlink" xml:space="preserve" width="67mm" height="43mm" style="shape-rendering:geometricPrecision; text-rendering:geometricPrecision; image-rendering:optimizeQuality; fill-rule:evenodd; clip-rule:evenodd"
viewBox="0 0 67 34.6552">
 <defs>
  <style type="text/css">
   <![CDATA[
    .str0 {stroke:#1F1A17;stroke-width:0.081509}
    .fil0 {fill:none}
    .fil1 {fill:#1F1A17;fill-rule:nonzero}
    .fil10 {fill:url(#id0)}
    .fil3 {fill:url(#id1)}
    .fil7 {fill:url(#id2)}
    .fil2 {fill:url(#id3)}
    .fil8 {fill:url(#id4)}
    .fil5 {fill:url(#id5)}
    .fil9 {fill:url(#id6)}
    .fil6 {fill:url(#id7)}
    .fil4 {fill:url(#id8)}
   ]]>
  </style>
  <linearGradient id="id0" gradientUnits="userSpaceOnUse" x1="26.1343" y1="12.0819" x2="27.3053" y2="12.0819">
   <stop offset="0" style="stop-color:white"/>
   <stop offset="1" style="stop-color:white"/>
  </linearGradient>
  <linearGradient id="id1" gradientUnits="userSpaceOnUse" xlink:href="#id0" x1="43.0021" y1="14.366" x2="43.2647" y2="14.366">
  </linearGradient>
  <linearGradient id="id2" gradientUnits="userSpaceOnUse" xlink:href="#id0" x1="26.981" y1="12.1317" x2="41.0945" y2="12.1317">
  </linearGradient>
  <linearGradient id="id3" gradientUnits="userSpaceOnUse" xlink:href="#id0" x1="28.8374" y1="31.3993" x2="34.7167" y2="31.3993">
  </linearGradient>
  <linearGradient id="id4" gradientUnits="userSpaceOnUse" xlink:href="#id0" x1="25.151" y1="18.1119" x2="41.1199" y2="18.1119">
  </linearGradient>
  <linearGradient id="id5" gradientUnits="userSpaceOnUse" xlink:href="#id0" x1="41.2221" y1="15.1761" x2="41.4254" y2="15.1761">
  </linearGradient>
  <linearGradient id="id6" gradientUnits="userSpaceOnUse" xlink:href="#id0" x1="38.1238" y1="15.4195" x2="38.2204" y2="15.4195">
  </linearGradient>
  <linearGradient id="id7" gradientUnits="userSpaceOnUse" xlink:href="#id0" x1="41.6448" y1="15.5971" x2="41.7414" y2="15.5971">
  </linearGradient>
  <linearGradient id="id8" gradientUnits="userSpaceOnUse" xlink:href="#id0" x1="43.3667" y1="14.2972" x2="43.4629" y2="14.2972">
  </linearGradient>
 </defs>
 <g id="Layer_x0020_1">
  <metadata id="CorelCorpID_0Corel-Layer"/>
  <rect class="fil0 str0" x="3.16494" y="18.6937" width="38.503" height="0.444288"/>
  <rect class="fil0 str0" x="3.16494" y="19.138" width="38.503" height="1.60964"/>
  <rect class="fil0 str0" x="30.7016" y="20.706" width="1.07513" height="10.6933"/>
  <rect class="fil0 str0" x="3.12839" y="20.731" width="1.07513" height="1.60964"/>
  <rect class="fil0 str0" x="3.12839" y="20.731" width="1.07513" height="9.44634"/>
  <line class="fil0 str0" x1="41.5551" y1="11.6587" x2="52.4763" y2= "5.29887" />
  <line class="fil0 str0" x1="39.6148" y1="18.6596" x2="41.0926" y2= "17.799" />
  <line class="fil0 str0" x1="36.8164" y1="18.6596" x2="60.8982" y2= "4.6358" />
  <line class="fil0 str0" x1="34.0183" y1="18.6596" x2="58.1001" y2= "4.6358" />
  <line class="fil0 str0" x1="31.22" y1="18.6596" x2="54.1038" y2= "5.33348" />
  <line class="fil0 str0" x1="28.4215" y1="18.6596" x2="52.6318" y2= "4.56104" />
  <line class="fil0 str0" x1="25.6236" y1="18.6596" x2="49.7053" y2= "4.63589" />
  <line class="fil0 str0" x1="22.825" y1="18.6596" x2="46.9067" y2= "4.63589" />
  <line class="fil0 str0" x1="20.0268" y1="18.6596" x2="44.1085" y2= "4.63594" />
  <line class="fil0 str0" x1="17.2288" y1="18.6596" x2="41.3105" y2= "4.63589" />
  <line class="fil0 str0" x1="14.4299" y1="18.6596" x2="38.5116" y2= "4.63589" />
  <line class="fil0 str0" x1="11.632" y1="18.6596" x2="35.7136" y2= "4.63589" />
  <line class="fil0 str0" x1="6.03541" y1="18.6596" x2="30.4047" y2= "4.46839" />
  <line class="fil0 str0" x1="3.23712" y1="18.6596" x2="26.7963" y2= "4.94016" />
  <line class="fil0 str0" x1="41.6829" y1="19.163" x2="65.0609" y2= "5.54899" />
  <line class="fil0 str0" x1="41.7071" y1="20.7217" x2="42.4099" y2= "20.3124" />
  <line class="fil0 str0" x1="43.3266" y1="17.0874" x2="43.0021" y2= "17.0865" />
  <line class="fil0 str0" x1="50.4725" y1="15.6729" x2="51.1752" y2= "15.2637" />
  <line class="fil0 str0" x1="54.8552" y1="13.0987" x2="55.6491" y2= "12.6932" />
  <line class="fil0 str0" x1="59.3116" y1="10.5282" x2="60.0143" y2= "10.1189" />
  <line class="fil0 str0" x1="63.768" y1="7.95771" x2="64.4708" y2= "7.54845" />
  <line class="fil0 str0" x1="42.4274" y1="18.7193" x2="42.4272" y2= "20.3124" />
  <line class="fil0 str0" x1="46.8101" y1="16.1949" x2="46.8099" y2= "17.788" />
  <line class="fil0 str0" x1="51.1928" y1="13.6705" x2="51.1925" y2= "15.2637" />
  <line class="fil0 str0" x1="55.6492" y1="11.1001" x2="55.649" y2= "12.6932" />
  <line class="fil0 str0" x1="60.1057" y1="8.52956" x2="60.1054" y2= "10.1227" />
  <line class="fil0 str0" x1="64.4883" y1="5.95533" x2="64.4881" y2= "7.54845" />
  <line class="fil0 str0" x1="41.6681" y1="19.1462" x2="41.6678" y2= "20.7393" />
  <line class="fil0 str0" x1="46.0508" y1="16.6219" x2="46.0505" y2= "18.2149" />
  <line class="fil0 str0" x1="50.4334" y1="14.0975" x2="50.4332" y2= "15.6906" />
  <line class="fil0 str0" x1="54.8161" y1="11.5233" x2="54.8158" y2= "13.1163" />
  <line class="fil0 str0" x1="59.2725" y1="8.95277" x2="59.2723" y2= "10.5458" />
  <line class="fil0 str0" x1="63.729" y1="6.38228" x2="63.7287" y2= "7.97536" />
  <line class="fil0 str0" x1="7.88992" y1="15.9501" x2="44.7093" y2= "15.9501" />
  <line class="fil0 str0" x1="12.0091" y1="13.5513" x2="48.9295" y2= "13.5513" />
  <path class="fil0 str0" d="M16.1282 11.1526l25.7797 0m2.2031 0l10.8866 -0.221239"/>
  <path class="fil0 str0" d="M20.5847 8.5821l25.6933 0m3.26174 0l9.30912 0"/>
  <path class="fil0 str0" d="M25.0411 6.01179l25.6506 0m2.24746 -0.000184828l10.4407 0.000184828"/>
  <line class="fil0 str0" x1="43.4553" y1="18.1308" x2="46.1451" y2= "18.1308" />
  <line class="fil0 str0" x1="47.7333" y1="15.6758" x2="50.423" y2= "15.6758" />
  <line class="fil0 str0" x1="52.1632" y1="13.0489" x2="54.853" y2= "13.0489" />
  <line class="fil0 str0" x1="56.6197" y1="10.4784" x2="59.3094" y2= "10.4784" />
  <line class="fil0 str0" x1="61.0761" y1="7.90794" x2="63.7658" y2= "7.90794" />
  <g>
   <path class="fil1" d="M3.35351 33.1239l-4.62069e-005 -0.137881 0.64819 -0.420621 0.0894566 0.137835 -0.64819 0.420621 -4.62069e-005 -0.137835 -0.0893641 0.137881zm0 0l-0.106276 -0.0688945 0.10623 -0.0689869 4.62069e-005 0.137881zm0.693288 0.351357l-0.0446821 0.0689407 -0.648606 -0.420298 0.0893641 -0.137881 0.648606 0.420298 -0.0446821 0.0689407zm26.9765 -0.393683l-27.4976 0.0139545 0 -0.0812317 27.4976 -0.0139545 0 0.0812317zm0.172213 0.0282324l-0.0895028 -0.137789 9.24138e-005 0.137835 -0.64856 -0.419974 0.0893179 -0.137881 0.64856 0.419974 9.24138e-005 0.137835zm0 0l-9.24138e-005 -0.137835 0.106322 0.0688483 -0.10623 0.0689869zm-0.692919 0.352097l-0.0447283 -0.0689407 0.648144 -0.420945 0.0895028 0.137789 -0.648144 0.420991 -0.0447745 -0.0688945z"/>
  </g>
  <line class="fil0 str0" x1="3.3006" y1="32.2806" x2="3.3006" y2= "34.08" />
  <g>
   <path class="fil1" d="M31.3013 33.1309l-0.000184828 -0.137835 0.647821 -0.421222 0.089549 0.137743 -0.647821 0.421222 -0.000138621 -0.137881 -0.0892255 0.137974zm0 0l-0.106368 -0.0688021 0.106183 -0.0690331 0.000184828 0.137835zm0.693566 0.350757l-0.0446359 0.0689869 -0.64893 -0.419743 0.0892255 -0.137974 0.64893 0.41979 -0.0445897 0.0689407zm9.44751 -0.392851l-9.969 0.0135848 0 -0.0812317 9.969 -0.0135848 0 0.0812317zm0.172259 0.0280938l-0.0895952 -0.137697 0.000231034 0.137835 -0.648976 -0.41942 0.0892255 -0.13802 0.64893 0.419466 0.000184828 0.137835zm0 0l-0.000184828 -0.137835 0.106368 0.0687559 -0.106183 0.0690793zm-0.692595 0.352651l-0.0448207 -0.0688483 0.647821 -0.421499 0.0895952 0.137697 -0.647774 0.421546 -0.0448207 -0.0688945z"/>
  </g>
  <line class="fil0 str0" x1="31.2483" y1="32.2877" x2="31.2483" y2= "34.0871" />
  <line class="fil0 str0" x1="41.6675" y1="32.1482" x2="41.6675" y2= "33.9477" />
  <path class="fil1" d="M37.005 30.2443l-0.326683 1.13646c-0.0159414,0.0567421 -0.0237966,0.0916283 -0.0237966,0.104335 0,0.00947241 0.00295724,0.0172814 0.00914897,0.0237966 0.00586828,0.00619172 0.0133538,0.00947241 0.0225028,0.00947241 0.01206,0 0.0250903,-0.00522138 0.039091,-0.016311 0.0329455,-0.0261069 0.0678317,-0.0664917 0.104012,-0.121293l0.0286945 0.0296648c-0.0606234,0.0854366 -0.116072,0.144766 -0.167223,0.178682 -0.03752,0.02412 -0.0730531,0.03618 -0.106969,0.03618 -0.02412,0 -0.0443124,-0.00817862 -0.0606234,-0.0247669 -0.016311,-0.0166345 -0.0244434,-0.0355331 -0.0244434,-0.057389 0,-0.0228262 0.0104428,-0.0697724 0.0306352,-0.141162l0.258851 -0.895906c0.021209,-0.0733303 0.0316055,-0.115379 0.0316055,-0.126145 0,-0.0153407 -0.00619172,-0.0277241 -0.0182517,-0.0378434 -0.01206,-0.00974966 -0.0309586,-0.0146476 -0.0563724,-0.0146476 -0.0146938,0 -0.0368269,0.00226414 -0.0668614,0.00651517l0 -0.0352097 0.326683 -0.0544317z"/>
  <path class="fil1" d="M37.0816 31.4091l0.157427 -0.076611 0.0156641 0 0 0.54672c0,0.03618 0.00161724,0.0590062 0.00457448,0.0678317 0.00323448,0.00877931 0.00942621,0.0156179 0.0188986,0.0205159 0.00947241,0.00489793 0.0290179,0.00748552 0.0583593,0.00817862l0 0.0176048 -0.243557 0 0 -0.0176048c0.0303579,-0.000693103 0.0502269,-0.00328069 0.0590524,-0.00785517 0.00910276,-0.00489793 0.0152945,-0.0110897 0.0185752,-0.0188986 0.00355793,-0.00748552 0.00554483,-0.0309586 0.00554483,-0.0697724l0 -0.349463c0,-0.0472697 -0.00166345,-0.0776276 -0.00489793,-0.0909814 -0.00231034,-0.0101193 -0.00619172,-0.0176048 -0.01206,-0.0225028 -0.00586828,-0.00452828 -0.0130303,-0.00716207 -0.0215324,-0.00716207 -0.0117366,0 -0.0280476,0.00522138 -0.0488869,0.0150172l-0.00716207 -0.0150172z"/>
  <rect class="fil0 str0" x="30.711" y="20.7954" width="1.07513" height="1.60964"/>
  <line class="fil0 str0" x1="31.8362" y1="22.3881" x2="34.5192" y2= "20.8257" />
  <line class="fil0 str0" x1="4.19351" y1="22.3254" x2="6.87651" y2= "20.763" />
  <line class="fil0 str0" x1="31.8483" y1="31.3719" x2="32.5511" y2= "30.9627" />
  <line class="fil0 str0" x1="32.5077" y1="21.9521" x2="32.4987" y2= "30.9464" />
  <line class="fil0 str0" x1="4.27931" y1="30.1835" x2="4.98207" y2= "29.7743" />
  <line class="fil0 str0" x1="4.93753" y1="21.8921" x2="4.92963" y2= "29.758" />
  <rect class="fil2" x="28.8374" y="30.6732" width="5.87932" height="1.45214"/>
  <rect class="fil2" x="1.6049" y="29.2985" width="5.87932" height="2.19589"/>
  <rect class="fil0 str0" x="41.0926" y="11.6605" width="0.449533" height="7.05145"/>
  <line class="fil0 str0" x1="41.844" y1="12.4822" x2="41.844" y2= "18.5933" />
  <line class="fil0 str0" x1="43.5649" y1="11.508" x2="43.5649" y2= "16.9899" />
  <line class="fil0 str0" x1="43.2648" y1="11.6312" x2="43.2647" y2= "17.0961" />
  <line class="fil0 str0" x1="41.6679" y1="18.6936" x2="65.0608" y2= "5.07102" />
  <line class="fil0 str0" x1="41.0743" y1="11.6125" x2="51.3" y2= "5.65766" />
  <line class="fil0 str0" x1="41.8791" y1="17.9304" x2="53.0298" y2= "11.4369" />
  <line class="fil0 str0" x1="41.8451" y1="17.3615" x2="63.6975" y2= "4.63589" />
  <line class="fil0 str0" x1="43.5649" y1="16.3593" x2="44.9906" y2= "15.529" />
  <line class="fil0 str0" x1="41.8058" y1="17.6996" x2="53.0483" y2= "11.1526" />
  <polygon class="fil3 str0" points="43.2647,11.6454 43.0021,11.7984 43.0021,17.0865 43.2647,17.0865 "/>
  <polygon class="fil3 str0" points="45.2858,10.4735 45.0231,10.6264 45.0231,15.9146 45.2858,15.9146 "/>
  <polygon class="fil3 str0" points="47.3068,9.30154 47.0442,9.45449 47.0442,14.7426 47.3068,14.7426 "/>
  <polygon class="fil3 str0" points="49.3278,8.1296 49.0652,8.28254 49.0652,13.5707 49.3278,13.5707 "/>
  <polygon class="fil3 str0" points="51.3489,6.95765 51.0863,7.11059 51.0863,12.3987 51.3489,12.3987 "/>
  <polygon class="fil4 str0" points="43.2647,11.6454 43.5649,11.508 43.5649,16.9488 43.2647,17.0865 "/>
  <polygon class="fil4 str0" points="45.2858,10.4735 45.586,10.336 45.5859,15.7768 45.2858,15.9146 "/>
  <polygon class="fil4 str0" points="47.3068,9.30154 47.607,9.16408 47.607,14.6049 47.3068,14.7426 "/>
  <polygon class="fil4 str0" points="49.3278,8.1296 49.6281,7.99213 49.628,13.4329 49.3278,13.5707 "/>
  <polygon class="fil4 str0" points="51.3489,6.95765 51.6491,6.82018 51.6491,12.261 51.3489,12.3987 "/>
  <line class="fil0 str0" x1="46.1472" y1="18.0857" x2="46.85" y2= "17.6764" />
  <polygon class="fil5 str0" points="41.5548,11.6586 41.0926,11.6605 41.1207,18.6706 41.5422,18.6935 "/>
  <polygon class="fil6 str0" points="41.5422,12.6485 41.844,12.4822 41.844,18.5933 41.5422,18.712 "/>
  <line class="fil0 str0" x1="41.5506" y1="12.6053" x2="26.4454" y2= "12.6044" />
  <rect class="fil7 str0" x="26.981" y="11.6586" width="14.1135" height="0.946237"/>
  <line class="fil0 str0" x1="38.3231" y1="12.4822" x2="38.323" y2= "18.1337" />
  <line class="fil0 str0" x1="35.1108" y1="12.487" x2="35.1108" y2= "18.1385" />
  <line class="fil0 str0" x1="31.4216" y1="12.5263" x2="31.4216" y2= "18.1777" />
  <line class="fil0 str0" x1="27.7324" y1="12.5656" x2="27.7324" y2= "18.217" />
  <rect class="fil7 str0" x="25.2389" y="18.2434" width="15.881" height="0.444288"/>
  <polygon class="fil8 str0" points="25.3269,17.9802 41.1084,17.9802 41.1199,18.2435 25.151,18.2435 "/>
  <polygon class="fil5 str0" points="38.0338,12.5956 37.5717,12.5972 37.5998,18.208 38.0212,18.2264 "/>
  <polygon class="fil5 str0" points="34.8216,12.6004 34.3594,12.602 34.3875,18.2128 34.8089,18.2312 "/>
  <polygon class="fil5 str0" points="31.1324,12.6397 30.6702,12.6412 30.6983,18.2521 31.1197,18.2704 "/>
  <polygon class="fil5 str0" points="27.4432,12.6089 26.981,12.6045 27.0091,18.2818 27.4305,18.3058 "/>
  <polygon class="fil9 str0" points="38.0338,12.5956 38.323,12.5956 38.323,18.1337 38.0212,18.2435 "/>
  <polygon class="fil9 str0" points="34.8216,12.6004 35.1108,12.6004 35.1108,18.1385 34.8089,18.2483 "/>
  <polygon class="fil9 str0" points="31.1324,12.6397 31.4216,12.6397 31.4216,18.1777 31.1197,18.2875 "/>
  <polygon class="fil9 str0" points="27.4432,12.6048 27.7324,12.6086 27.7324,18.2157 27.4305,18.3229 "/>
  <polygon class="fil10" points="27.1279,11.5023 26.2052,12.0464 26.1343,12.6615 27.3053,12.5334 "/>
  <line class="fil0 str0" x1="8.75404" y1="18.7076" x2="32.7198" y2= "4.75146" />
  <line class="fil0 str0" x1="3.1649" y1="18.6935" x2="3.1649" y2= "19.1381" />
  <line class="fil0 str0" x1="6.069" y1="18.6908" x2="6.069" y2= "19.1354" />
  <line class="fil0 str0" x1="8.84548" y1="18.6801" x2="8.84548" y2= "19.1247" />
  <line class="fil0 str0" x1="11.622" y1="18.6694" x2="11.622" y2= "19.1139" />
  <line class="fil0 str0" x1="14.3984" y1="18.6587" x2="14.3984" y2= "19.1032" />
  <line class="fil0 str0" x1="17.1749" y1="18.6479" x2="17.1749" y2= "19.0925" />
  <line class="fil0 str0" x1="19.9514" y1="18.6372" x2="19.9514" y2= "19.0818" />
  <line class="fil0 str0" x1="22.7279" y1="18.6535" x2="22.7279" y2= "19.0981" />
  <line class="fil0 str0" x1="25.5044" y1="18.6699" x2="25.5044" y2= "19.1145" />
  <line class="fil0 str0" x1="28.2808" y1="18.6862" x2="28.2808" y2= "19.1308" />
  <line class="fil0 str0" x1="31.0573" y1="18.7026" x2="31.0573" y2= "19.1471" />
  <line class="fil0 str0" x1="33.8338" y1="18.7189" x2="33.8338" y2= "19.1634" />
  <line class="fil0 str0" x1="36.6103" y1="18.7352" x2="36.6103" y2= "19.1798" />
  <line class="fil0 str0" x1="39.3868" y1="18.7515" x2="39.3868" y2= "19.1961" />
  <path class="fil1" d="M15.1536 30.5792l-0.326683 1.13646c-0.0159414,0.0567421 -0.0237966,0.0916283 -0.0237966,0.104335 0,0.00947241 0.00295724,0.0172814 0.00914897,0.0237966 0.00586828,0.00619172 0.0133538,0.00947241 0.0225028,0.00947241 0.01206,0 0.0250903,-0.00522138 0.039091,-0.016311 0.0329455,-0.0261069 0.0678317,-0.0664917 0.104012,-0.121293l0.0286945 0.0296648c-0.0606234,0.0854366 -0.116072,0.144766 -0.167223,0.178682 -0.03752,0.02412 -0.0730531,0.03618 -0.106969,0.03618 -0.02412,0 -0.0443124,-0.00817862 -0.0606234,-0.0247669 -0.016311,-0.0166345 -0.0244434,-0.0355331 -0.0244434,-0.057389 0,-0.0228262 0.0104428,-0.0697724 0.0306352,-0.141162l0.258851 -0.895906c0.021209,-0.0733303 0.0316055,-0.115379 0.0316055,-0.126145 0,-0.0153407 -0.00619172,-0.0277241 -0.0182517,-0.0378434 -0.01206,-0.00974966 -0.0309586,-0.0146476 -0.0563724,-0.0146476 -0.0146938,0 -0.0368269,0.00226414 -0.0668614,0.00651517l0 -0.0352097 0.326683 -0.0544317z"/>
  <path class="fil1" d="M15.5637 32.2037l-0.0452828 0.124574 -0.382085 0 0 -0.0176048c0.112468,-0.102718 0.191666,-0.186168 0.237319,-0.251366 0.0459759,-0.0648745 0.0688021,-0.124204 0.0688021,-0.178035 0,-0.0410779 -0.0123834,-0.0749476 -0.03752,-0.101378 -0.0250903,-0.0263841 -0.0554021,-0.0394607 -0.0902883,-0.0394607 -0.0319752,0 -0.0603,0.00914897 -0.08576,0.0277241 -0.0254138,0.0188986 -0.043989,0.0459759 -0.056049,0.0821559l-0.0176048 0c0.00780897,-0.0590062 0.028371,-0.104335 0.0612703,-0.135617 0.0329455,-0.0316055 0.0740234,-0.0472697 0.123234,-0.0472697 0.0528145,0 0.0965262,0.0166345 0.131736,0.0505503 0.0352097,0.0335462 0.0528145,0.0736538 0.0528145,0.119306 0,0.0329455 -0.00785517,0.0655214 -0.0228262,0.0984669 -0.0237966,0.0514745 -0.0619634,0.106276 -0.114778,0.163665 -0.0791986,0.0866841 -0.128779,0.138852 -0.148648,0.15678l0.16921 0c0.0342393,0 0.0583593,-0.00129379 0.07236,-0.00388138 0.0136772,-0.00263379 0.0263841,-0.00785517 0.0374738,-0.0156641 0.0110897,-0.00748552 0.0208855,-0.0185752 0.0290179,-0.0329455l0.0176048 0z"/>
  <g>
   <path class="fil1" d="M49.6631 18.6472l-0.0768421 -0.114501 0.304088 -0.710339 0.15105 0.0646434 -0.304088 0.710339 -0.0767959 -0.114454 0.00258759 0.164312zm0 0l-0.126699 0.0019869 0.0498572 -0.116488 0.0768421 0.114501zm0.77147 -0.0942621l0.00129379 0.0821097 -0.772764 0.0121524 -0.00258759 -0.164312 0.772764 -0.0121062 0.00129379 0.0821559zm3.47388 -2.78956l-4.11824 2.76433 -0.0451903 -0.0674621 4.11824 -2.76433 0.0451903 0.0674621zm0.158767 -0.0724986l-0.151097 -0.0645972 0.0768883 0.114454 -0.772626 0.0123834 -0.00263379 -0.164312 0.772626 -0.0123834 0.0768421 0.114454zm0 0l-0.0768421 -0.114454 0.126653 -0.0019869 -0.049811 0.116441zm-0.379451 0.678317l-0.0755483 -0.0322986 0.303903 -0.710616 0.151097 0.0645972 -0.303903 0.710616 -0.0755483 -0.0322986z"/>
  </g>
  <line class="fil0 str0" x1="47.9575" y1="18.8103" x2="50.9783" y2= "18.8103" />
  <line class="fil0 str0" x1="52.6752" y1="15.6022" x2="55.696" y2= "15.6022" />
  <g>
   <path class="fil1" d="M30.083 3.14322l-0.000693103 -0.137881 0.646157 -0.423717 0.0901034 0.137419 -0.646157 0.423717 -0.000693103 -0.137881 -0.0887172 0.138343zm0 0l-0.106599 -0.0683862 0.105906 -0.0694952 0.000693103 0.137881zm0.694952 0.34803l-0.0443586 0.0691717 -0.650593 -0.417202 0.0887172 -0.138343 0.650593 0.417248 -0.0443586 0.0691255zm1.71691 -0.389062l-2.23988 0.011829 -0.000277241 -0.0812317 2.23988 -0.011829 0.000277241 0.0812317zm0.172398 0.0274469l-0.0901497 -0.137373 0.00073931 0.137835 -0.650547 -0.416879 0.0886248 -0.138343 0.650593 0.416879 0.00073931 0.137881zm0 0l-0.00073931 -0.137881 0.106646 0.06834 -0.105906 0.0695414zm-0.691209 0.355331l-0.0450979 -0.0686634 0.646157 -0.424041 0.0901497 0.137373 -0.646157 0.424041 -0.0450517 -0.0687097z"/>
  </g>
  <line class="fil0 str0" x1="30.0298" y1="2.30013" x2="30.0298" y2= "4.09957" />
  <line class="fil0 str0" x1="32.7198" y1="2.3072" x2="32.7198" y2= "4.10664" />
  <path class="fil1" d="M31.5517 0.852887l-0.188108 0.659834c0.0612703,-0.0635807 0.114454,-0.107246 0.160061,-0.130719 0.0456524,-0.0234731 0.0932455,-0.0352097 0.142826,-0.0352097 0.0700959,0 0.127439,0.0231497 0.171797,0.069449 0.0446359,0.0466228 0.0668152,0.10951 0.0668152,0.189402 0,0.102348 -0.0290179,0.204419 -0.0877007,0.306121 -0.0586828,0.101378 -0.132013,0.180623 -0.220684,0.237319 -0.0883476,0.0564186 -0.175725,0.0847897 -0.261808,0.0847897 -0.0961566,0 -0.194623,-0.0358566 -0.296001,-0.107893l0.290457 -0.999917c0.0221793,-0.0769345 0.033269,-0.122263 0.033269,-0.135617 0,-0.0166345 -0.00489793,-0.0290179 -0.0150172,-0.0371503 -0.0146476,-0.0117366 -0.0365034,-0.0172814 -0.0651979,-0.0172814 -0.0133538,0 -0.0335462,0.00226414 -0.0609469,0.00651517l0 -0.03618 0.330241 -0.0534614zm-0.369378 1.28349c0.0635807,0.0352097 0.119676,0.0528145 0.167916,0.0528145 0.056049,0 0.114085,-0.0205159 0.174385,-0.0615938 0.0603462,-0.0410779 0.112514,-0.110527 0.156503,-0.208023 0.0443586,-0.0971269 0.0664917,-0.195594 0.0664917,-0.295031 0,-0.0586828 -0.0143241,-0.104335 -0.0433421,-0.137558 -0.0290179,-0.0329455 -0.0632572,-0.04958 -0.102672,-0.04958 -0.0593759,0 -0.117366,0.0237966 -0.173784,0.0710662 -0.0567421,0.0475931 -0.0971731,0.113484 -0.121293,0.198228l-0.124204 0.429678z"/>
  <path class="fil1" d="M53.1755 17.2103l-0.0746703 0.259821 0.149941 0 -0.0162648 0.0603 -0.149017 0 -0.164312 0.563354c-0.0176048,0.0606234 -0.0267076,0.0997607 -0.0267076,0.117366 0,0.0110897 0.00258759,0.0192221 0.00780897,0.0250903 0.00489793,0.00554483 0.0110897,0.00850207 0.0179283,0.00850207 0.0159876,0 0.0371503,-0.0110897 0.0632572,-0.0335924 0.0152945,-0.0127069 0.0492103,-0.0518441 0.102025,-0.117366l0.0316517 0.0237966c-0.0586828,0.0854366 -0.114131,0.145737 -0.166299,0.180623 -0.0355331,0.02412 -0.0717131,0.03618 -0.107893,0.03618 -0.0280476,0 -0.0508738,-0.00882552 -0.0688021,-0.0261069 -0.0179283,-0.0176048 -0.0267076,-0.0400614 -0.0267076,-0.0674621 0,-0.0342393 0.0100731,-0.0867303 0.0306352,-0.157473l0.159414 -0.552912 -0.144119 0 0.00947241 -0.0374738c0.0700959,-0.0189448 0.128455,-0.0475931 0.174754,-0.0854366 0.0466228,-0.0377972 0.0984669,-0.103688 0.15581,-0.197211l0.0420945 0z"/>
 </g>
</svg>
