<?xml version="1.0" encoding="UTF-8"?>
<!DOCTYPE svg PUBLIC "-//W3C//DTD SVG 1.1//EN" "http://www.w3.org/Graphics/SVG/1.1/DTD/svg11.dtd">
<!-- Creator: CorelDRAW -->
<svg xmlns="http://www.w3.org/2000/svg" xml:space="preserve" width="101mm" height="53mm" style="shape-rendering:geometricPrecision; text-rendering:geometricPrecision; image-rendering:optimizeQuality; fill-rule:evenodd; clip-rule:evenodd"
viewBox="0 0 101 53">
 <defs>
  <style type="text/css">
   <![CDATA[
    .str0 {stroke:#1F1A17;stroke-width:0.1764}
    .fil0 {fill:none}
    .fil1 {fill:#1F1A17;fill-rule:nonzero}
   ]]>
  </style>
 </defs>
 <g id="Layer_x0020_1">
  <metadata id="CorelCorpID_0Corel-Layer"/>
  <rect class="fil0 str0" transform="matrix(1.2367 -1.2367 1.2367 1.2367 64.081 16.845)" width="0.715" height="18.8861"/>
  <rect class="fil0 str0" transform="matrix(-1.22023 -1.22023 -1.22023 1.22023 38.5782 16.8332)" width="0.715" height="18.8861"/>
  <line class="fil0 str0" x1="12.5084" y1="30.0095" x2="38.5112" y2= "3.9027" />
  <g>
   <path class="fil1" d="M12.4202 33.377l0 -3.4637 0.1764 0 0 3.4637 -0.1764 0zm-0.061 0.3726l0.2984 -0.1935 -0.2984 0.0001 0.9096 -1.4032 0.2984 0.1934 -0.9096 1.4032 -0.2984 0zm0 0l0.2984 0 -0.1491 0.23 -0.1493 -0.23zm-0.7611 -1.4999l0.1491 -0.0968 0.9104 1.4032 -0.2984 0.1935 -0.9103 -1.4032 0.1492 -0.0967z"/>
  </g>
  <g>
   <path class="fil1" d="M15.8218 29.9746l0 -3.4637 0.1764 0 0 3.4637 -0.1764 0zm-0.061 0.3726l0.2984 -0.1935 -0.2984 0.0001 0.9096 -1.4032 0.2984 0.1934 -0.9096 1.4032 -0.2984 0zm0 0l0.2984 0 -0.1491 0.23 -0.1493 -0.23zm-0.7611 -1.4999l0.1491 -0.0968 0.9104 1.4032 -0.2984 0.1935 -0.9103 -1.4032 0.1492 -0.0967z"/>
  </g>
  <g>
   <path class="fil1" d="M28.1526 17.643l0 -3.4637 0.1764 0 0 3.4637 -0.1764 0zm-0.061 0.3726l0.2984 -0.1935 -0.2984 0.0001 0.9096 -1.4032 0.2984 0.1934 -0.9096 1.4032 -0.2984 0zm0 0l0.2984 0 -0.1491 0.23 -0.1493 -0.23zm-0.7611 -1.4999l0.1491 -0.0968 0.9104 1.4032 -0.2984 0.1935 -0.9103 -1.4032 0.1492 -0.0967z"/>
  </g>
  <g>
   <path class="fil1" d="M22.3061 23.7029l0 -3.4637 0.1764 0 0 3.4637 -0.1764 0zm-0.061 0.3726l0.2984 -0.1935 -0.2984 0.0001 0.9096 -1.4032 0.2984 0.1934 -0.9096 1.4032 -0.2984 0zm0 0l0.2984 0 -0.1491 0.23 -0.1493 -0.23zm-0.7611 -1.4999l0.1491 -0.0968 0.9104 1.4032 -0.2984 0.1935 -0.9103 -1.4032 0.1492 -0.0967z"/>
  </g>
  <g>
   <path class="fil1" d="M18.7702 27.027l0 -3.4637 0.1764 0 0 3.4637 -0.1764 0zm-0.061 0.3726l0.2984 -0.1935 -0.2984 0.0001 0.9096 -1.4032 0.2984 0.1934 -0.9096 1.4032 -0.2984 0zm0 0l0.2984 0 -0.1491 0.23 -0.1493 -0.23zm-0.7611 -1.4999l0.1491 -0.0968 0.9104 1.4032 -0.2984 0.1935 -0.9103 -1.4032 0.1492 -0.0967z"/>
  </g>
  <g>
   <path class="fil1" d="M25.1202 20.677l0 -3.4637 0.1764 0 0 3.4637 -0.1764 0zm-0.061 0.3726l0.2984 -0.1935 -0.2984 0.0001 0.9096 -1.4032 0.2984 0.1934 -0.9096 1.4032 -0.2984 0zm0 0l0.2984 0 -0.1491 0.23 -0.1493 -0.23zm-0.7611 -1.4999l0.1491 -0.0968 0.9104 1.4032 -0.2984 0.1935 -0.9103 -1.4032 0.1492 -0.0967z"/>
  </g>
  <g>
   <path class="fil1" d="M31.4702 14.327l0 -3.4637 0.1764 0 0 3.4637 -0.1764 0zm-0.061 0.3726l0.2984 -0.1935 -0.2984 0.0001 0.9096 -1.4032 0.2984 0.1934 -0.9096 1.4032 -0.2984 0zm0 0l0.2984 0 -0.1491 0.23 -0.1493 -0.23zm-0.7611 -1.4999l0.1491 -0.0968 0.9104 1.4032 -0.2984 0.1935 -0.9103 -1.4032 0.1492 -0.0967z"/>
  </g>
  <line class="fil0 str0" x1="12.6424" y1="33.7191" x2="38.5242" y2= "7.7338" />
  <g>
   <path class="fil1" d="M34.7432 11.0532l0 -3.4637 0.1764 0 0 3.4637 -0.1764 0zm-0.061 0.3726l0.2984 -0.1935 -0.2984 0.0001 0.9096 -1.4032 0.2984 0.1934 -0.9096 1.4032 -0.2984 0zm0 0l0.2984 0 -0.1491 0.23 -0.1493 -0.23zm-0.7611 -1.4999l0.1491 -0.0968 0.9104 1.4032 -0.2984 0.1935 -0.9103 -1.4032 0.1492 -0.0967z"/>
  </g>
  <line class="fil0 str0" x1="90.0612" y1="30.0093" x2="64.0586" y2= "3.9027" />
  <g>
   <path class="fil1" d="M89.973 33.3768l0 -3.4637 0.1764 0 0 3.4637 -0.1764 0zm-0.061 0.3726l0.2984 -0.1935 -0.2984 0.0001 0.9096 -1.4032 0.2984 0.1934 -0.9096 1.4032 -0.2984 0zm0 0l0.2984 0 -0.1491 0.23 -0.1493 -0.23zm-0.7611 -1.4999l0.1491 -0.0968 0.9104 1.4032 -0.2984 0.1935 -0.9103 -1.4032 0.1492 -0.0967z"/>
  </g>
  <g>
   <path class="fil1" d="M86.5714 29.9744l0 -3.4637 0.1764 0 0 3.4637 -0.1764 0zm-0.061 0.3726l0.2984 -0.1935 -0.2984 0.0001 0.9096 -1.4032 0.2984 0.1934 -0.9096 1.4032 -0.2984 0zm0 0l0.2984 0 -0.1491 0.23 -0.1493 -0.23zm-0.7611 -1.4999l0.1491 -0.0968 0.9104 1.4032 -0.2984 0.1935 -0.9103 -1.4032 0.1492 -0.0967z"/>
  </g>
  <g>
   <path class="fil1" d="M74.2406 17.6428l0 -3.4637 0.1764 0 0 3.4637 -0.1764 0zm-0.061 0.3726l0.2984 -0.1935 -0.2984 0.0001 0.9096 -1.4032 0.2984 0.1934 -0.9096 1.4032 -0.2984 0zm0 0l0.2984 0 -0.1491 0.23 -0.1493 -0.23zm-0.7611 -1.4999l0.1491 -0.0968 0.9104 1.4032 -0.2984 0.1935 -0.9103 -1.4032 0.1492 -0.0967z"/>
  </g>
  <g>
   <path class="fil1" d="M80.0871 23.7027l0 -3.4637 0.1764 0 0 3.4637 -0.1764 0zm-0.061 0.3726l0.2984 -0.1935 -0.2984 0.0001 0.9096 -1.4032 0.2984 0.1934 -0.9096 1.4032 -0.2984 0zm0 0l0.2984 0 -0.1491 0.23 -0.1493 -0.23zm-0.7611 -1.4999l0.1491 -0.0968 0.9104 1.4032 -0.2984 0.1935 -0.9103 -1.4032 0.1492 -0.0967z"/>
  </g>
  <g>
   <path class="fil1" d="M83.623 27.0268l0 -3.4637 0.1764 0 0 3.4637 -0.1764 0zm-0.061 0.3726l0.2984 -0.1935 -0.2984 0.0001 0.9096 -1.4032 0.2984 0.1934 -0.9096 1.4032 -0.2984 0zm0 0l0.2984 0 -0.1491 0.23 -0.1493 -0.23zm-0.7611 -1.4999l0.1491 -0.0968 0.9104 1.4032 -0.2984 0.1935 -0.9103 -1.4032 0.1492 -0.0967z"/>
  </g>
  <g>
   <path class="fil1" d="M77.273 20.6768l0 -3.4637 0.1764 0 0 3.4637 -0.1764 0zm-0.061 0.3726l0.2984 -0.1935 -0.2984 0.0001 0.9096 -1.4032 0.2984 0.1934 -0.9096 1.4032 -0.2984 0zm0 0l0.2984 0 -0.1491 0.23 -0.1493 -0.23zm-0.7611 -1.4999l0.1491 -0.0968 0.9104 1.4032 -0.2984 0.1935 -0.9103 -1.4032 0.1492 -0.0967z"/>
  </g>
  <g>
   <path class="fil1" d="M70.923 14.3268l0 -3.4637 0.1764 0 0 3.4637 -0.1764 0zm-0.061 0.3726l0.2984 -0.1935 -0.2984 0.0001 0.9096 -1.4032 0.2984 0.1934 -0.9096 1.4032 -0.2984 0zm0 0l0.2984 0 -0.1491 0.23 -0.1493 -0.23zm-0.7611 -1.4999l0.1491 -0.0968 0.9104 1.4032 -0.2984 0.1935 -0.9103 -1.4032 0.1492 -0.0967z"/>
  </g>
  <g>
   <path class="fil1" d="M63.8637 7.3664l0 -3.4637 0.1764 0 0 3.4637 -0.1764 0zm-0.061 0.3726l0.2984 -0.1935 -0.2984 0.0001 0.9096 -1.4032 0.2984 0.1934 -0.9096 1.4032 -0.2984 0zm0 0l0.2984 0 -0.1491 0.23 -0.1493 -0.23zm-0.7611 -1.4999l0.1491 -0.0968 0.9104 1.4032 -0.2984 0.1935 -0.9103 -1.4032 0.1492 -0.0967z"/>
  </g>
  <line class="fil0 str0" x1="89.9272" y1="33.7189" x2="64.0454" y2= "7.7336" />
  <g>
   <path class="fil1" d="M67.65 11.053l0 -3.4637 0.1764 0 0 3.4637 -0.1764 0zm-0.061 0.3726l0.2984 -0.1935 -0.2984 0.0001 0.9096 -1.4032 0.2984 0.1934 -0.9096 1.4032 -0.2984 0zm0 0l0.2984 0 -0.1491 0.23 -0.1493 -0.23zm-0.7611 -1.4999l0.1491 -0.0968 0.9104 1.4032 -0.2984 0.1935 -0.9103 -1.4032 0.1492 -0.0967z"/>
  </g>
  <path class="fil1" d="M76.9816 9.2067l-0.0599 0.2152 -0.345 0c0.0261,0.0741 0.0388,0.1439 0.0388,0.2088 0,0.1821 -0.0769,0.3436 -0.2315,0.4854 -0.1552,0.1426 -0.369,0.2209 -0.6406,0.2357 -0.146,0.0444 -0.2554,0.0967 -0.3288,0.1573 -0.0275,0.0219 -0.0409,0.0445 -0.0409,0.0685 0,0.0275 0.012,0.0522 0.0367,0.0755 0.0254,0.0225 0.0875,0.0458 0.1884,0.0691l0.4007 0.0931c0.2223,0.0523 0.369,0.1143 0.4403,0.1856 0.0705,0.0734 0.1058,0.1573 0.1058,0.2526 0,0.1129 -0.0416,0.2159 -0.1249,0.3097 -0.0839,0.0939 -0.2053,0.1672 -0.3661,0.2202 -0.1609,0.0529 -0.338,0.0797 -0.532,0.0797 -0.1715,0 -0.3267,-0.0205 -0.4671,-0.0614 -0.1411,-0.0402 -0.2413,-0.0952 -0.302,-0.1637 -0.0607,-0.0691 -0.091,-0.1404 -0.091,-0.2131 0,-0.0592 0.0198,-0.1213 0.0586,-0.1848 0.0395,-0.0642 0.0889,-0.1171 0.1481,-0.1588 0.0374,-0.0261 0.1426,-0.0875 0.3161,-0.1855 -0.0635,-0.0494 -0.0952,-0.1044 -0.0952,-0.1637 0,-0.055 0.0282,-0.1136 0.0839,-0.1757 0.0558,-0.0621 0.1743,-0.1298 0.3542,-0.2046 -0.151,-0.0289 -0.2716,-0.0924 -0.3605,-0.1898 -0.0889,-0.0981 -0.1334,-0.2067 -0.1334,-0.3267 0,-0.1954 0.0861,-0.3711 0.2576,-0.5249 0.1714,-0.1545 0.4,-0.2314 0.685,-0.2314 0.1038,0 0.1884,0.0099 0.2547,0.031 0.0657,0.0205 0.1299,0.0529 0.192,0.0967l0.558 0zm-0.7175 0.3245c0,-0.11 -0.0303,-0.1968 -0.0917,-0.2603 -0.0614,-0.0635 -0.1418,-0.0953 -0.2406,-0.0953 -0.1559,0 -0.2843,0.0784 -0.3859,0.235 -0.1009,0.1566 -0.1517,0.3189 -0.1517,0.4889 0,0.1059 0.0324,0.1927 0.0973,0.2604 0.0642,0.0677 0.1433,0.1009 0.2357,0.1009 0.0727,0 0.1432,-0.0198 0.2116,-0.06 0.0685,-0.0395 0.1256,-0.0945 0.1729,-0.1651 0.0466,-0.0705 0.084,-0.1594 0.1115,-0.2688 0.0275,-0.1087 0.0409,-0.187 0.0409,-0.2357zm-0.9899 1.4182c-0.1115,0.0508 -0.1961,0.1164 -0.2533,0.1961 -0.0571,0.0805 -0.0853,0.1588 -0.0853,0.2357 0,0.091 0.0409,0.1665 0.1234,0.2258 0.1186,0.0853 0.2921,0.1277 0.5214,0.1277 0.1969,0 0.3655,-0.0332 0.5052,-0.1002 0.1397,-0.067 0.2095,-0.1531 0.2095,-0.2589 0,-0.0544 -0.0254,-0.1052 -0.0776,-0.1532 -0.0515,-0.0486 -0.1517,-0.0874 -0.3005,-0.1178 -0.0812,-0.0169 -0.2957,-0.0684 -0.6428,-0.1552z"/>
  <path class="fil1" d="M77.5708 10.821l0 0.3224 -0.0338 0c-0.0268,-0.1016 -0.06,-0.1707 -0.1009,-0.2067 -0.0409,-0.0367 -0.0932,-0.055 -0.1567,-0.055 -0.0486,0 -0.0874,0.0127 -0.1171,0.0381 -0.0296,0.0254 -0.0444,0.0536 -0.0444,0.0846 0,0.0388 0.0113,0.072 0.0331,0.0995 0.0212,0.0282 0.0649,0.0586 0.1306,0.0896l0.1509 0.0734c0.1397,0.0684 0.2096,0.1587 0.2096,0.2702 0,0.0861 -0.0325,0.1552 -0.0974,0.2082 -0.0656,0.0529 -0.1383,0.079 -0.2187,0.079 -0.0578,0 -0.1242,-0.0106 -0.1983,-0.0311 -0.0232,-0.007 -0.0416,-0.0105 -0.0564,-0.0105 -0.0155,0 -0.0282,0.0091 -0.0367,0.0275l-0.0346 0 0 -0.3387 0.0346 0c0.0191,0.0967 0.0558,0.1693 0.1101,0.2187 0.055,0.0487 0.1157,0.0734 0.1834,0.0734 0.0473,0 0.0861,-0.0141 0.1164,-0.0423 0.0297,-0.0275 0.0445,-0.0614 0.0445,-0.1009 0,-0.0473 -0.0162,-0.0875 -0.0501,-0.1193 -0.0332,-0.0324 -0.1002,-0.0733 -0.1997,-0.1234 -0.1002,-0.0494 -0.1658,-0.0946 -0.1968,-0.1341 -0.0311,-0.0395 -0.0466,-0.0889 -0.0466,-0.1489 0,-0.0783 0.0268,-0.1432 0.0804,-0.1954 0.0537,-0.0522 0.1228,-0.0783 0.2075,-0.0783 0.0367,0 0.0818,0.0078 0.1354,0.0233 0.0346,0.0106 0.0586,0.0155 0.0699,0.0155 0.0113,0 0.0197,-0.0021 0.0261,-0.0071 0.0063,-0.0049 0.0134,-0.0155 0.0219,-0.0317l0.0338 0z"/>
  <path class="fil1" d="M78.6052 11.5047l-0.0113 0.2907 -0.8354 0 0 -0.0374 0.6287 -0.8368 -0.3105 0c-0.0663,0 -0.1107,0.0042 -0.1312,0.0127 -0.0205,0.0084 -0.0374,0.0247 -0.0508,0.0494 -0.0183,0.0338 -0.0289,0.0769 -0.0317,0.1277l-0.0417 0 0.0064 -0.2625 0.7937 0 0 0.0381 -0.6343 0.8396 0.345 0c0.0727,0 0.1214,-0.0063 0.1475,-0.0183 0.0254,-0.012 0.0466,-0.0332 0.0621,-0.0635 0.0113,-0.0219 0.0205,-0.0685 0.0282,-0.1397l0.0353 0z"/>
  <path class="fil1" d="M29.6516 28.6329l-0.707 2.4595c-0.0345,0.1228 -0.0515,0.1983 -0.0515,0.2258 0,0.0205 0.0064,0.0374 0.0198,0.0515 0.0127,0.0134 0.0289,0.0205 0.0487,0.0205 0.0261,0 0.0543,-0.0113 0.0846,-0.0353 0.0713,-0.0565 0.1468,-0.1439 0.2251,-0.2625l0.0621 0.0642c-0.1312,0.1849 -0.2512,0.3133 -0.3619,0.3867 -0.0812,0.0522 -0.1581,0.0783 -0.2315,0.0783 -0.0522,0 -0.0959,-0.0177 -0.1312,-0.0536 -0.0353,-0.036 -0.0529,-0.0769 -0.0529,-0.1242 0,-0.0494 0.0226,-0.151 0.0663,-0.3055l0.5602 -1.9389c0.0459,-0.1587 0.0684,-0.2497 0.0684,-0.273 0,-0.0332 -0.0134,-0.06 -0.0395,-0.0819 -0.0261,-0.0211 -0.067,-0.0317 -0.122,-0.0317 -0.0318,0 -0.0797,0.0049 -0.1447,0.0141l0 -0.0762 0.707 -0.1178z"/>
  <g>
   <path class="fil1" d="M15.2032 41.4524l0.2984 0 0.9096 1.4032 -0.2984 0.1934 -0.9096 -1.4032 0.2984 0.0001 -0.2984 -0.1935zm0 0l0.1493 -0.23 0.1491 0.23 -0.2984 0zm-0.7611 1.4999l-0.1492 -0.0967 0.9103 -1.4032 0.2984 0.1935 -0.9104 1.4032 -0.1491 -0.0968zm0.7339 7.4247l0 -8.552 0.3528 0 0 8.552 -0.3528 0z"/>
  </g>
  <g>
   <path class="fil1" d="M90.4377 40.5758l0 -0.2984 1.4032 -0.9096 0.1934 0.2984 -1.4032 0.9096 0.0001 -0.2984 -0.1935 0.2984zm0 0l-0.23 -0.1493 0.23 -0.1491 0 0.2984zm1.4999 0.7611l-0.0967 0.1492 -1.4032 -0.9103 0.1935 -0.2984 1.4032 0.9104 -0.0968 0.1491zm7.4247 -0.7339l-8.552 0 0 -0.3528 8.552 0 0 0.3528z"/>
  </g>
  <g>
   <path class="fil1" d="M89.0733 41.5271l0.2984 0 0.9096 1.4032 -0.2984 0.1934 -0.9096 -1.4032 0.2984 0.0001 -0.2984 -0.1935zm0 0l0.1493 -0.23 0.1491 0.23 -0.2984 0zm-0.7611 1.4999l-0.1492 -0.0967 0.9103 -1.4032 0.2984 0.1935 -0.9104 1.4032 -0.1491 -0.0968zm0.7339 7.4247l0 -8.552 0.3528 0 0 8.552 -0.3528 0z"/>
  </g>
  <path class="fil1" d="M96.8586 35.1939l0.029 -0.077 1.0004 0c0.1679,0 0.3175,0.0262 0.4495,0.0791 0.1312,0.0522 0.23,0.1249 0.2956,0.2187 0.0656,0.0938 0.0981,0.1933 0.0981,0.2977 0,0.1616 -0.0586,0.3069 -0.175,0.4375 -0.1164,0.1298 -0.3062,0.2265 -0.5694,0.2878 0.17,0.0635 0.2942,0.1475 0.3746,0.2526 0.0798,0.1044 0.12,0.2195 0.12,0.345 0,0.139 -0.036,0.2724 -0.108,0.3994 -0.0712,0.1263 -0.1636,0.2251 -0.2758,0.2949 -0.1122,0.0706 -0.2477,0.1221 -0.4064,0.1552 -0.1129,0.0233 -0.2893,0.0353 -0.5292,0.0353l-1.0273 0 0.0268 -0.0762c0.108,-0.0028 0.1807,-0.0134 0.2195,-0.031 0.055,-0.024 0.0945,-0.0551 0.1178,-0.0932 0.0332,-0.0522 0.0769,-0.1721 0.1319,-0.3598l0.5024 -1.6969c0.043,-0.1432 0.0642,-0.2441 0.0642,-0.3019 0,-0.0508 -0.0191,-0.091 -0.0565,-0.1207 -0.0381,-0.0296 -0.11,-0.0444 -0.2166,-0.0444 -0.0232,0 -0.0451,-0.0007 -0.0656,-0.0021zm0.4191 1.1634c0.0896,0.0028 0.1545,0.0042 0.1948,0.0042 0.2864,0 0.4995,-0.062 0.6399,-0.1869 0.1397,-0.1249 0.2095,-0.2808 0.2095,-0.4685 0,-0.1418 -0.043,-0.2526 -0.1284,-0.3316 -0.0853,-0.079 -0.2215,-0.1186 -0.4092,-0.1186 -0.0494,0 -0.1129,0.0078 -0.1898,0.0247l-0.3168 1.0767zm-0.4071 1.3808c0.1489,0.0197 0.2653,0.0289 0.3493,0.0289 0.2152,0 0.4057,-0.0649 0.5715,-0.194 0.1665,-0.1299 0.249,-0.3055 0.249,-0.5271 0,-0.1693 -0.0508,-0.302 -0.1538,-0.3972 -0.1023,-0.0953 -0.2681,-0.1425 -0.4967,-0.1425 -0.0444,0 -0.0981,0.0021 -0.1616,0.0063l-0.3577 1.2256z"/>
  <path class="fil1" d="M99.1848 37.8305c0.0339,0.036 0.0593,0.072 0.0762,0.1079 0.0127,0.0247 0.0331,0.0896 0.0614,0.1955l0.091 -0.1369c0.024,-0.0332 0.0529,-0.0642 0.0875,-0.0945 0.0345,-0.0297 0.0649,-0.0501 0.091,-0.0614 0.0169,-0.0071 0.0346,-0.0106 0.055,-0.0106 0.0297,0 0.0529,0.0085 0.0706,0.024 0.0176,0.0155 0.0268,0.0353 0.0268,0.0578 0,0.0261 -0.0057,0.0445 -0.0155,0.0537 -0.0198,0.0176 -0.0417,0.0261 -0.0664,0.0261 -0.0148,0 -0.0303,-0.0036 -0.0465,-0.0092 -0.0325,-0.0113 -0.0544,-0.0169 -0.0649,-0.0169 -0.017,0 -0.0367,0.0098 -0.0593,0.0289 -0.0423,0.036 -0.0938,0.1051 -0.1531,0.2081l0.0847 0.3556c0.0134,0.0544 0.0247,0.0868 0.0331,0.0974 0.0092,0.0106 0.0184,0.0162 0.0268,0.0162 0.0149,0 0.0318,-0.0085 0.0508,-0.024 0.0381,-0.0317 0.0706,-0.0733 0.0974,-0.1241l0.036 0.019c-0.0431,0.0811 -0.0988,0.1489 -0.1651,0.2025 -0.0381,0.0303 -0.0699,0.0451 -0.096,0.0451 -0.0388,0 -0.0698,-0.0218 -0.0924,-0.0649 -0.0141,-0.0268 -0.0444,-0.1425 -0.0896,-0.3471 -0.108,0.1863 -0.194,0.3069 -0.2589,0.3605 -0.0417,0.0346 -0.0826,0.0515 -0.1214,0.0515 -0.0275,0 -0.0529,-0.0098 -0.0755,-0.0296 -0.0169,-0.0155 -0.0247,-0.036 -0.0247,-0.0614 0,-0.0225 0.0071,-0.0416 0.0226,-0.0564 0.0148,-0.0155 0.0339,-0.0233 0.0557,-0.0233 0.0219,0 0.0452,0.0113 0.0699,0.0332 0.0183,0.0162 0.0317,0.024 0.0416,0.024 0.0085,0 0.0191,-0.0057 0.0318,-0.0163 0.0324,-0.0268 0.0769,-0.0832 0.1326,-0.17 0.0557,-0.0868 0.0924,-0.1496 0.1094,-0.1877 -0.0424,-0.1679 -0.0657,-0.2561 -0.0692,-0.266 -0.0155,-0.0444 -0.0367,-0.0762 -0.0621,-0.0945 -0.0254,-0.0191 -0.0628,-0.0282 -0.1122,-0.0282 -0.0162,0 -0.0345,0.0007 -0.055,0.0021l0 -0.0374 0.2759 -0.0487z"/>
  <path class="fil1" d="M91.4383 47.1013l0.029 -0.077 1.0004 0c0.1679,0 0.3175,0.0262 0.4495,0.0791 0.1312,0.0522 0.23,0.1249 0.2956,0.2187 0.0656,0.0938 0.0981,0.1933 0.0981,0.2977 0,0.1616 -0.0586,0.3069 -0.175,0.4375 -0.1164,0.1298 -0.3062,0.2265 -0.5694,0.2878 0.17,0.0635 0.2942,0.1475 0.3746,0.2526 0.0798,0.1044 0.12,0.2195 0.12,0.345 0,0.139 -0.036,0.2724 -0.108,0.3994 -0.0712,0.1263 -0.1636,0.2251 -0.2758,0.2949 -0.1122,0.0706 -0.2477,0.1221 -0.4064,0.1552 -0.1129,0.0233 -0.2893,0.0353 -0.5292,0.0353l-1.0273 0 0.0268 -0.0762c0.108,-0.0028 0.1807,-0.0134 0.2195,-0.031 0.055,-0.024 0.0945,-0.0551 0.1178,-0.0932 0.0332,-0.0522 0.0769,-0.1721 0.1319,-0.3598l0.5024 -1.6969c0.043,-0.1432 0.0642,-0.2441 0.0642,-0.3019 0,-0.0508 -0.0191,-0.091 -0.0565,-0.1207 -0.0381,-0.0296 -0.11,-0.0444 -0.2166,-0.0444 -0.0232,0 -0.0451,-0.0007 -0.0656,-0.0021zm0.4191 1.1634c0.0896,0.0028 0.1545,0.0042 0.1948,0.0042 0.2864,0 0.4995,-0.062 0.6399,-0.1869 0.1397,-0.1249 0.2095,-0.2808 0.2095,-0.4685 0,-0.1418 -0.043,-0.2526 -0.1284,-0.3316 -0.0853,-0.079 -0.2215,-0.1186 -0.4092,-0.1186 -0.0494,0 -0.1129,0.0078 -0.1898,0.0247l-0.3168 1.0767zm-0.4071 1.3808c0.1489,0.0197 0.2653,0.0289 0.3493,0.0289 0.2152,0 0.4057,-0.0649 0.5715,-0.194 0.1665,-0.1299 0.249,-0.3055 0.249,-0.5271 0,-0.1693 -0.0508,-0.302 -0.1538,-0.3972 -0.1023,-0.0953 -0.2681,-0.1425 -0.4967,-0.1425 -0.0444,0 -0.0981,0.0021 -0.1616,0.0063l-0.3577 1.2256z"/>
  <path class="fil1" d="M93.7356 49.7379c0.0232,0.0402 0.0395,0.0776 0.0486,0.1122 0.0092,0.0353 0.0177,0.103 0.0269,0.2053l0.0451 0.5087c0.0416,-0.0501 0.1016,-0.1284 0.1799,-0.2357 0.0381,-0.0522 0.0847,-0.1241 0.1411,-0.2137 0.0332,-0.0558 0.0544,-0.0939 0.0614,-0.1165 0.0042,-0.0105 0.0064,-0.0218 0.0064,-0.0338 0,-0.0078 -0.0022,-0.0134 -0.0071,-0.0184 -0.0049,-0.0049 -0.0176,-0.0106 -0.0381,-0.0169 -0.0197,-0.0071 -0.0367,-0.0191 -0.0501,-0.0367 -0.0134,-0.0176 -0.0204,-0.0374 -0.0204,-0.06 0,-0.0282 0.0084,-0.0515 0.0246,-0.0684 0.017,-0.0169 0.0374,-0.0261 0.0621,-0.0261 0.0304,0 0.0565,0.0127 0.0776,0.0381 0.0212,0.0247 0.0318,0.0593 0.0318,0.1037 0,0.0543 -0.0183,0.1164 -0.0557,0.1863 -0.0367,0.0705 -0.1087,0.1778 -0.2145,0.3224 -0.1066,0.1447 -0.235,0.302 -0.386,0.4734 -0.1037,0.1179 -0.1813,0.1919 -0.2314,0.2223 -0.0501,0.031 -0.0931,0.0458 -0.1291,0.0458 -0.0212,0 -0.0402,-0.0077 -0.0564,-0.0239 -0.0163,-0.0163 -0.024,-0.0353 -0.024,-0.0565 0,-0.0268 0.0113,-0.0515 0.0331,-0.0734 0.0226,-0.0218 0.0473,-0.0331 0.0734,-0.0331 0.0134,0 0.0247,0.0035 0.0339,0.0099 0.0056,0.0028 0.0113,0.0127 0.0183,0.0289 0.0064,0.0162 0.012,0.0275 0.0177,0.0324 0.0035,0.0036 0.0077,0.0057 0.0127,0.0057 0.0042,0 0.0112,-0.0035 0.0218,-0.0106 0.0374,-0.0233 0.0819,-0.0607 0.132,-0.1115 0.0663,-0.0677 0.115,-0.1227 0.1467,-0.1658l-0.0578 -0.6547c-0.0099,-0.1087 -0.024,-0.1743 -0.0431,-0.1976 -0.0197,-0.0233 -0.0522,-0.0353 -0.0973,-0.0353 -0.0149,0 -0.0403,0.0021 -0.0777,0.0064l-0.0091 -0.0381 0.3027 -0.0748z"/>
  <g>
   <path class="fil1" d="M12.8877 40.2774l0 0.2984 -1.4032 0.9096 -0.1934 -0.2984 1.4032 -0.9096 -0.0001 0.2984 0.1935 -0.2984zm0 0l0.23 0.1493 -0.23 0.1491 0 -0.2984zm-1.4999 -0.7611l0.0967 -0.1492 1.4032 0.9103 -0.1935 0.2984 -1.4032 -0.9104 0.0968 -0.1491zm-7.4247 0.7339l8.552 0 0 0.3528 -8.552 0 0 -0.3528z"/>
  </g>
  <path class="fil1" d="M3.9785 35.6201l-0.2131 2.3311c-0.0113,0.1093 -0.0162,0.1806 -0.0162,0.2152 0,0.055 0.0098,0.0973 0.031,0.1263 0.0261,0.0395 0.0614,0.0691 0.1058,0.0889 0.0452,0.019 0.1207,0.0289 0.2265,0.0289l-0.0226 0.0762 -1.1034 0 0.0225 -0.0762 0.0473 0c0.0896,0 0.163,-0.0198 0.2194,-0.0579 0.0395,-0.0268 0.0706,-0.0698 0.0932,-0.1305 0.0148,-0.043 0.0296,-0.1432 0.043,-0.302l0.0332 -0.3556 -0.8023 0 -0.285 0.3867c-0.0649,0.0868 -0.1051,0.1496 -0.1221,0.187 -0.0162,0.0381 -0.0246,0.0733 -0.0246,0.1065 0,0.0444 0.0176,0.0818 0.0536,0.1136 0.036,0.0317 0.0952,0.0494 0.1778,0.0522l-0.0226 0.0762 -0.829 0 0.0226 -0.0762c0.1023,-0.0042 0.1919,-0.0388 0.2702,-0.1023 0.0776,-0.0642 0.1933,-0.2011 0.3478,-0.4106l1.6743 -2.2775 0.0727 0zm-0.4093 0.6879l-0.8128 1.1056 0.7049 0 0.1079 -1.1056z"/>
  <path class="fil1" d="M4.7503 38.3971c0.0339,0.036 0.0593,0.072 0.0762,0.1079 0.0127,0.0247 0.0331,0.0896 0.0614,0.1955l0.091 -0.1369c0.024,-0.0332 0.0529,-0.0642 0.0875,-0.0945 0.0345,-0.0297 0.0649,-0.0501 0.091,-0.0614 0.0169,-0.0071 0.0346,-0.0106 0.055,-0.0106 0.0297,0 0.0529,0.0085 0.0706,0.024 0.0176,0.0155 0.0268,0.0353 0.0268,0.0578 0,0.0261 -0.0057,0.0445 -0.0155,0.0537 -0.0198,0.0176 -0.0417,0.0261 -0.0664,0.0261 -0.0148,0 -0.0303,-0.0036 -0.0465,-0.0092 -0.0325,-0.0113 -0.0544,-0.0169 -0.0649,-0.0169 -0.017,0 -0.0367,0.0098 -0.0593,0.0289 -0.0423,0.036 -0.0938,0.1051 -0.1531,0.2081l0.0847 0.3556c0.0134,0.0544 0.0247,0.0868 0.0331,0.0974 0.0092,0.0106 0.0184,0.0162 0.0268,0.0162 0.0149,0 0.0318,-0.0085 0.0508,-0.024 0.0381,-0.0317 0.0706,-0.0733 0.0974,-0.1241l0.036 0.019c-0.0431,0.0811 -0.0988,0.1489 -0.1651,0.2025 -0.0381,0.0303 -0.0699,0.0451 -0.096,0.0451 -0.0388,0 -0.0698,-0.0218 -0.0924,-0.0649 -0.0141,-0.0268 -0.0444,-0.1425 -0.0896,-0.3471 -0.108,0.1863 -0.194,0.3069 -0.2589,0.3605 -0.0417,0.0346 -0.0826,0.0515 -0.1214,0.0515 -0.0275,0 -0.0529,-0.0098 -0.0755,-0.0296 -0.0169,-0.0155 -0.0247,-0.036 -0.0247,-0.0614 0,-0.0225 0.0071,-0.0416 0.0226,-0.0564 0.0148,-0.0155 0.0339,-0.0233 0.0557,-0.0233 0.0219,0 0.0452,0.0113 0.0699,0.0332 0.0183,0.0162 0.0317,0.024 0.0416,0.024 0.0085,0 0.0191,-0.0057 0.0318,-0.0163 0.0324,-0.0268 0.0769,-0.0832 0.1326,-0.17 0.0557,-0.0868 0.0924,-0.1496 0.1094,-0.1877 -0.0424,-0.1679 -0.0657,-0.2561 -0.0692,-0.266 -0.0155,-0.0444 -0.0367,-0.0762 -0.0621,-0.0945 -0.0254,-0.0191 -0.0628,-0.0282 -0.1122,-0.0282 -0.0162,0 -0.0345,0.0007 -0.055,0.0021l0 -0.0374 0.2759 -0.0487z"/>
  <path class="fil1" d="M12.8774 44.9851l-0.2131 2.3311c-0.0113,0.1093 -0.0162,0.1806 -0.0162,0.2152 0,0.055 0.0098,0.0973 0.031,0.1263 0.0261,0.0395 0.0614,0.0691 0.1058,0.0889 0.0452,0.019 0.1207,0.0289 0.2265,0.0289l-0.0226 0.0762 -1.1034 0 0.0225 -0.0762 0.0473 0c0.0896,0 0.163,-0.0198 0.2194,-0.0579 0.0395,-0.0268 0.0706,-0.0698 0.0932,-0.1305 0.0148,-0.043 0.0296,-0.1432 0.043,-0.302l0.0332 -0.3556 -0.8023 0 -0.285 0.3867c-0.0649,0.0868 -0.1051,0.1496 -0.1221,0.187 -0.0162,0.0381 -0.0246,0.0733 -0.0246,0.1065 0,0.0444 0.0176,0.0818 0.0536,0.1136 0.036,0.0317 0.0952,0.0494 0.1778,0.0522l-0.0226 0.0762 -0.829 0 0.0226 -0.0762c0.1023,-0.0042 0.1919,-0.0388 0.2702,-0.1023 0.0776,-0.0642 0.1933,-0.2011 0.3478,-0.4106l1.6743 -2.2775 0.0727 0zm-0.4093 0.6879l-0.8128 1.1056 0.7049 0 0.1079 -1.1056z"/>
  <path class="fil1" d="M13.6203 47.7621c0.0232,0.0402 0.0395,0.0776 0.0486,0.1122 0.0092,0.0353 0.0177,0.103 0.0269,0.2053l0.0451 0.5087c0.0416,-0.0501 0.1016,-0.1284 0.1799,-0.2357 0.0381,-0.0522 0.0847,-0.1241 0.1411,-0.2137 0.0332,-0.0558 0.0544,-0.0939 0.0614,-0.1165 0.0042,-0.0105 0.0064,-0.0218 0.0064,-0.0338 0,-0.0078 -0.0022,-0.0134 -0.0071,-0.0184 -0.0049,-0.0049 -0.0176,-0.0106 -0.0381,-0.0169 -0.0197,-0.0071 -0.0367,-0.0191 -0.0501,-0.0367 -0.0134,-0.0176 -0.0204,-0.0374 -0.0204,-0.06 0,-0.0282 0.0084,-0.0515 0.0246,-0.0684 0.017,-0.0169 0.0374,-0.0261 0.0621,-0.0261 0.0304,0 0.0565,0.0127 0.0776,0.0381 0.0212,0.0247 0.0318,0.0593 0.0318,0.1037 0,0.0543 -0.0183,0.1164 -0.0557,0.1863 -0.0367,0.0705 -0.1087,0.1778 -0.2145,0.3224 -0.1066,0.1447 -0.235,0.302 -0.386,0.4734 -0.1037,0.1179 -0.1813,0.1919 -0.2314,0.2223 -0.0501,0.031 -0.0931,0.0458 -0.1291,0.0458 -0.0212,0 -0.0402,-0.0077 -0.0564,-0.0239 -0.0163,-0.0163 -0.024,-0.0353 -0.024,-0.0565 0,-0.0268 0.0113,-0.0515 0.0331,-0.0734 0.0226,-0.0218 0.0473,-0.0331 0.0734,-0.0331 0.0134,0 0.0247,0.0035 0.0339,0.0099 0.0056,0.0028 0.0113,0.0127 0.0183,0.0289 0.0064,0.0162 0.012,0.0275 0.0177,0.0324 0.0035,0.0036 0.0077,0.0057 0.0127,0.0057 0.0042,0 0.0112,-0.0035 0.0218,-0.0106 0.0374,-0.0233 0.0819,-0.0607 0.132,-0.1115 0.0663,-0.0677 0.115,-0.1227 0.1467,-0.1658l-0.0578 -0.6547c-0.0099,-0.1087 -0.024,-0.1743 -0.0431,-0.1976 -0.0197,-0.0233 -0.0522,-0.0353 -0.0973,-0.0353 -0.0149,0 -0.0403,0.0021 -0.0777,0.0064l-0.0091 -0.0381 0.3027 -0.0748z"/>
  <g>
   <path class="fil1" d="M38.436 7.2467l0 -3.4637 0.1764 0 0 3.4637 -0.1764 0zm-0.061 0.3726l0.2984 -0.1935 -0.2984 0.0001 0.9096 -1.4032 0.2984 0.1934 -0.9096 1.4032 -0.2984 0zm0 0l0.2984 0 -0.1491 0.23 -0.1493 -0.23zm-0.7611 -1.4999l0.1491 -0.0968 0.9104 1.4032 -0.2984 0.1935 -0.9103 -1.4032 0.1492 -0.0967z"/>
  </g>
  <g>
   <path class="fil1" d="M63.0566 16.4391l0 0.2984 -1.4032 0.9096 -0.1934 -0.2984 1.4032 -0.9096 -0.0001 0.2984 0.1935 -0.2984zm0 0l0.23 0.1493 -0.23 0.1491 0 -0.2984zm-1.4999 -0.7611l0.0967 -0.1492 1.4032 0.9103 -0.1935 0.2984 -1.4032 -0.9104 0.0968 -0.1491zm-7.4247 0.7339l8.552 0 0 0.3528 -8.552 0 0 -0.3528z"/>
  </g>
  <path class="fil1" d="M60.3816 12.2831l-0.2088 0.9073 -0.0748 0 -0.0078 -0.2279c-0.007,-0.0826 -0.0232,-0.1559 -0.0479,-0.2208 -0.0247,-0.065 -0.0621,-0.1207 -0.1115,-0.1687 -0.0494,-0.0472 -0.1122,-0.0846 -0.1884,-0.1114 -0.0755,-0.0269 -0.1595,-0.0403 -0.2519,-0.0403 -0.2469,0 -0.4621,0.0678 -0.647,0.2025 -0.2356,0.1722 -0.4205,0.4156 -0.5538,0.7296 -0.1101,0.2589 -0.1658,0.5214 -0.1658,0.7874 0,0.2716 0.0797,0.4882 0.2377,0.6505 0.1588,0.1616 0.3648,0.2427 0.6181,0.2427 0.1919,0 0.3627,-0.043 0.5115,-0.1284 0.1496,-0.0854 0.2886,-0.2166 0.417,-0.3944l0.0967 0c-0.151,0.2413 -0.3196,0.4184 -0.5038,0.532 -0.1848,0.1136 -0.4064,0.1707 -0.6639,0.1707 -0.2286,0 -0.4311,-0.048 -0.6075,-0.1439 -0.1764,-0.096 -0.3111,-0.23 -0.4029,-0.4043 -0.0924,-0.1736 -0.139,-0.3598 -0.139,-0.5602 0,-0.3055 0.0826,-0.6033 0.2463,-0.8925 0.1637,-0.2893 0.3887,-0.5172 0.6745,-0.6823 0.2864,-0.1651 0.5743,-0.2476 0.8657,-0.2476 0.1362,0 0.2893,0.0317 0.4586,0.0966 0.0741,0.0275 0.1284,0.0416 0.1609,0.0416 0.0331,0 0.0621,-0.007 0.0875,-0.0204 0.0247,-0.0141 0.0656,-0.0536 0.1234,-0.1178l0.0769 0z"/>
  <path class="fil1" d="M60.7824 13.4895l0.0642 -0.6117c0.0176,-0.1735 0.036,-0.2907 0.0536,-0.3513 0.0261,-0.0868 0.0628,-0.1489 0.1108,-0.187 0.0472,-0.0381 0.1009,-0.0564 0.1601,-0.0564 0.0494,0 0.0889,0.0134 0.1179,0.0409 0.0289,0.0275 0.043,0.0628 0.043,0.1058 0,0.031 -0.0064,0.0663 -0.0205,0.1051 -0.0176,0.0522 -0.0691,0.1672 -0.1531,0.345l-0.285 0.6096 -0.091 0z"/>
  <g>
   <path class="fil1" d="M39.0064 16.7375l0 -0.2984 1.4032 -0.9096 0.1934 0.2984 -1.4032 0.9096 0.0001 -0.2984 -0.1935 0.2984zm0 0l-0.23 -0.1493 0.23 -0.1491 0 0.2984zm1.4999 0.7611l-0.0967 0.1492 -1.4032 -0.9103 0.1935 -0.2984 1.4032 0.9104 -0.0968 0.1491zm7.4247 -0.7339l-8.552 0 0 -0.3528 8.552 0 0 0.3528z"/>
  </g>
  <path class="fil1" d="M44.5722 12.3812l-0.2088 0.9073 -0.0748 0 -0.0078 -0.2279c-0.007,-0.0826 -0.0232,-0.1559 -0.0479,-0.2208 -0.0247,-0.065 -0.0621,-0.1207 -0.1115,-0.1687 -0.0494,-0.0472 -0.1122,-0.0846 -0.1884,-0.1114 -0.0755,-0.0269 -0.1595,-0.0403 -0.2519,-0.0403 -0.2469,0 -0.4621,0.0678 -0.647,0.2025 -0.2356,0.1722 -0.4205,0.4156 -0.5538,0.7296 -0.1101,0.2589 -0.1658,0.5214 -0.1658,0.7874 0,0.2716 0.0797,0.4882 0.2377,0.6505 0.1588,0.1616 0.3648,0.2427 0.6181,0.2427 0.1919,0 0.3627,-0.043 0.5115,-0.1284 0.1496,-0.0854 0.2886,-0.2166 0.417,-0.3944l0.0967 0c-0.151,0.2413 -0.3196,0.4184 -0.5038,0.532 -0.1848,0.1136 -0.4064,0.1707 -0.6639,0.1707 -0.2286,0 -0.4311,-0.048 -0.6075,-0.1439 -0.1764,-0.096 -0.3111,-0.23 -0.4029,-0.4043 -0.0924,-0.1736 -0.139,-0.3598 -0.139,-0.5602 0,-0.3055 0.0826,-0.6033 0.2463,-0.8925 0.1637,-0.2893 0.3887,-0.5172 0.6745,-0.6823 0.2864,-0.1651 0.5743,-0.2476 0.8657,-0.2476 0.1362,0 0.2893,0.0317 0.4586,0.0966 0.0741,0.0275 0.1284,0.0416 0.1609,0.0416 0.0331,0 0.0621,-0.007 0.0875,-0.0204 0.0247,-0.0141 0.0656,-0.0536 0.1234,-0.1178l0.0769 0z"/>
  <g>
   <path class="fil1" d="M27.0139 40.6233l-5.599 6.1099 -0.1296 -0.1186 5.599 -6.1099 0.1296 0.1186zm0.2969 -0.2332l-0.3507 -0.0589 0.22 0.2015 -1.6186 0.42 -0.0893 -0.3442 1.6186 -0.42 0.22 0.2016zm0 0l-0.22 -0.2016 0.2654 -0.0688 -0.0454 0.2704zm-0.4522 1.6201l-0.1753 -0.0295 0.2768 -1.6495 0.3507 0.0589 -0.2768 1.6495 -0.1754 -0.0294z"/>
  </g>
  <polygon class="fil1" points="24.7752,48.0452 24.0401,47.3227 23.3197,48.0551 23.1987,47.9362 23.9191,47.2037 23.1867,46.4833 23.3057,46.3625 24.0381,47.0828 24.7606,46.3475 24.8815,46.4665 24.159,47.2018 24.8943,47.925 "/>
  <polygon class="fil1" points="21.2092,44.1078 21.3458,44.3609 20.595,45.1242 20.4584,44.8712 "/>
 </g>
</svg>
