<?xml version="1.0" encoding="UTF-8"?>
<!DOCTYPE svg PUBLIC "-//W3C//DTD SVG 1.1//EN" "http://www.w3.org/Graphics/SVG/1.1/DTD/svg11.dtd">
<!-- Creator: CorelDRAW -->
<svg xmlns="http://www.w3.org/2000/svg" xml:space="preserve" width="57mm" height="48mm" style="shape-rendering:geometricPrecision; text-rendering:geometricPrecision; image-rendering:optimizeQuality; fill-rule:evenodd; clip-rule:evenodd"
viewBox="0 0 57 48">
 <defs>
  <style type="text/css">
   <![CDATA[
    .str0 {stroke:#1F1A17;stroke-width:0.1764}
    .str1 {stroke:#1F1A17;stroke-width:0.3528}
    .fil0 {fill:none}
    .fil1 {fill:#1F1A17;fill-rule:nonzero}
   ]]>
  </style>
 </defs>
 <g id="Layer_x0020_1">
  <metadata id="CorelCorpID_0Corel-Layer"/>
  <circle class="fil0 str0" cx="31.7083" cy="27.9451" r="2.3099"/>
  <path class="fil1" d="M31.5425 26.6838l0.2589 2.2578 1.6263 -2.2578 0.6844 0 0 0.077c-0.1489,0.0091 -0.2364,0.019 -0.2625,0.0289 -0.0459,0.0176 -0.0875,0.0536 -0.1249,0.1072 -0.0381,0.0536 -0.079,0.1574 -0.1235,0.3105l-0.5185 1.7772c-0.0304,0.1038 -0.0452,0.1849 -0.0452,0.2442 0,0.0536 0.0184,0.0945 0.0557,0.122 0.0523,0.0395 0.1348,0.06 0.2477,0.06l0.0501 0 -0.0191 0.0762 -1.1803 0 0.0211 -0.0762 0.0558 0c0.1044,0 0.1841,-0.0155 0.2398,-0.0459 0.0424,-0.0218 0.0805,-0.0635 0.1143,-0.1248 0.0339,-0.0614 0.0812,-0.1976 0.1419,-0.4086l0.4628 -1.6241 -1.6348 2.2796 -0.0825 0 -0.2632 -2.2796 -0.5002 1.7342c-0.0423,0.1475 -0.0635,0.2462 -0.0635,0.297 0,0.0516 0.0183,0.0904 0.0557,0.1172 0.0367,0.0268 0.127,0.0451 0.271,0.055l-0.0233 0.0762 -0.9236 0 0.0226 -0.0762 0.0557 0c0.1362,0 0.235,-0.0346 0.2957,-0.1037 0.0437,-0.0494 0.0903,-0.1574 0.1382,-0.3225l0.6103 -2.0898c-0.0458,-0.0466 -0.0889,-0.0783 -0.1305,-0.0952 -0.0416,-0.0163 -0.1178,-0.0297 -0.2293,-0.0388l0.0205 -0.077 0.6964 0z"/>
  <line class="fil0 str0" x1="55.5297" y1="25.1382" x2="31.1475" y2= "2.0929" />
  <line class="fil0 str0" x1="40.1632" y1="16.8319" x2="43.3586" y2= "13.7143" />
  <path class="fil0 str1" d="M55.4604 25.0879c-12.8811,-3.7555 -20.8218,-11.5476 -24.3129,-22.995"/>
  <line class="fil0 str0" x1="7.2642" y1="25.2614" x2="7.2243" y2= "42.7243" />
  <line class="fil0 str0" x1="55.5242" y1="25.2614" x2="55.4843" y2= "42.7243" />
  <line class="fil0 str0" x1="7.2243" y1="42.7243" x2="55.4843" y2= "42.7243" />
  <line class="fil0 str1" x1="7.2642" y1="25.2614" x2="18.6821" y2= "42.7243" />
  <line class="fil0 str0" x1="7.0175" y1="25.1382" x2="31.3997" y2= "2.0929" />
  <line class="fil0 str0" x1="22.384" y1="16.8319" x2="19.1886" y2= "13.7143" />
  <path class="fil0 str1" d="M7.0868 25.0879c12.8811,-3.7555 20.8218,-11.5476 24.3129,-22.995"/>
  <line class="fil0 str1" x1="55.512" y1="25.2614" x2="44.0941" y2= "42.7243" />
  <line class="fil0 str1" x1="6.9865" y1="33.9114" x2="55.2465" y2= "33.9114" />
  <path class="fil1" d="M16.5731 9.7462l0.2589 2.2578 1.6263 -2.2578 0.6844 0 0 0.077c-0.1489,0.0091 -0.2364,0.019 -0.2625,0.0289 -0.0459,0.0176 -0.0875,0.0536 -0.1249,0.1072 -0.0381,0.0536 -0.079,0.1574 -0.1235,0.3105l-0.5185 1.7772c-0.0304,0.1038 -0.0452,0.1849 -0.0452,0.2442 0,0.0536 0.0184,0.0945 0.0557,0.122 0.0523,0.0395 0.1348,0.06 0.2477,0.06l0.0501 0 -0.0191 0.0762 -1.1803 0 0.0211 -0.0762 0.0558 0c0.1044,0 0.1841,-0.0155 0.2398,-0.0459 0.0424,-0.0218 0.0805,-0.0635 0.1143,-0.1248 0.0339,-0.0614 0.0812,-0.1976 0.1419,-0.4086l0.4628 -1.6241 -1.6348 2.2796 -0.0825 0 -0.2632 -2.2796 -0.5002 1.7342c-0.0423,0.1475 -0.0635,0.2462 -0.0635,0.297 0,0.0516 0.0183,0.0904 0.0557,0.1172 0.0367,0.0268 0.127,0.0451 0.271,0.055l-0.0233 0.0762 -0.9236 0 0.0226 -0.0762 0.0557 0c0.1362,0 0.235,-0.0346 0.2957,-0.1037 0.0437,-0.0494 0.0903,-0.1574 0.1382,-0.3225l0.6103 -2.0898c-0.0458,-0.0466 -0.0889,-0.0783 -0.1305,-0.0952 -0.0416,-0.0163 -0.1178,-0.0297 -0.2293,-0.0388l0.0205 -0.077 0.6964 0z"/>
  <path class="fil1" d="M19.0065 12.131l0.3407 -0.1658 0.0339 0 0 1.1832c0,0.0783 0.0035,0.1277 0.0099,0.1468 0.007,0.019 0.0204,0.0338 0.0409,0.0444 0.0205,0.0106 0.0628,0.0162 0.1263,0.0177l0 0.0381 -0.5271 0 0 -0.0381c0.0657,-0.0015 0.1087,-0.0071 0.1278,-0.017 0.0197,-0.0106 0.0331,-0.024 0.0402,-0.0409 0.0077,-0.0162 0.012,-0.067 0.012,-0.151l0 -0.7563c0,-0.1023 -0.0036,-0.168 -0.0106,-0.1969 -0.005,-0.0219 -0.0134,-0.0381 -0.0261,-0.0487 -0.0127,-0.0098 -0.0282,-0.0155 -0.0466,-0.0155 -0.0254,0 -0.0607,0.0113 -0.1058,0.0325l-0.0155 -0.0325z"/>
  <path class="fil1" d="M12.109 43.933l0.2589 2.2578 1.6263 -2.2578 0.6844 0 0 0.077c-0.1489,0.0091 -0.2364,0.019 -0.2625,0.0289 -0.0459,0.0176 -0.0875,0.0536 -0.1249,0.1072 -0.0381,0.0536 -0.079,0.1574 -0.1235,0.3105l-0.5185 1.7772c-0.0304,0.1038 -0.0452,0.1849 -0.0452,0.2442 0,0.0536 0.0184,0.0945 0.0557,0.122 0.0523,0.0395 0.1348,0.06 0.2477,0.06l0.0501 0 -0.0191 0.0762 -1.1803 0 0.0211 -0.0762 0.0558 0c0.1044,0 0.1841,-0.0155 0.2398,-0.0459 0.0424,-0.0218 0.0805,-0.0635 0.1143,-0.1248 0.0339,-0.0614 0.0812,-0.1976 0.1419,-0.4086l0.4628 -1.6241 -1.6348 2.2796 -0.0825 0 -0.2632 -2.2796 -0.5002 1.7342c-0.0423,0.1475 -0.0635,0.2462 -0.0635,0.297 0,0.0516 0.0183,0.0904 0.0557,0.1172 0.0367,0.0268 0.127,0.0451 0.271,0.055l-0.0233 0.0762 -0.9236 0 0.0226 -0.0762 0.0557 0c0.1362,0 0.235,-0.0346 0.2957,-0.1037 0.0437,-0.0494 0.0903,-0.1574 0.1382,-0.3225l0.6103 -2.0898c-0.0458,-0.0466 -0.0889,-0.0783 -0.1305,-0.0952 -0.0416,-0.0163 -0.1178,-0.0297 -0.2293,-0.0388l0.0205 -0.077 0.6964 0z"/>
  <path class="fil1" d="M15.2641 47.3126l-0.098 0.2696 -0.8269 0 0 -0.0381c0.2434,-0.2223 0.4148,-0.4029 0.5136,-0.544 0.0995,-0.1404 0.1489,-0.2688 0.1489,-0.3853 0,-0.0889 -0.0268,-0.1622 -0.0812,-0.2194 -0.0543,-0.0571 -0.1199,-0.0854 -0.1954,-0.0854 -0.0692,0 -0.1305,0.0198 -0.1856,0.06 -0.055,0.0409 -0.0952,0.0995 -0.1213,0.1778l-0.0381 0c0.0169,-0.1277 0.0614,-0.2258 0.1326,-0.2935 0.0713,-0.0684 0.1602,-0.1023 0.2667,-0.1023 0.1143,0 0.2089,0.036 0.2851,0.1094 0.0762,0.0726 0.1143,0.1594 0.1143,0.2582 0,0.0713 -0.017,0.1418 -0.0494,0.2131 -0.0515,0.1114 -0.1341,0.23 -0.2484,0.3542 -0.1714,0.1876 -0.2787,0.3005 -0.3217,0.3393l0.3662 0c0.0741,0 0.1263,-0.0028 0.1566,-0.0084 0.0296,-0.0057 0.0571,-0.017 0.0811,-0.0339 0.024,-0.0162 0.0452,-0.0402 0.0628,-0.0713l0.0381 0z"/>
  <path class="fil1" d="M2.8966 36.3592l0.2589 2.2578 1.6263 -2.2578 0.6844 0 0 0.077c-0.1489,0.0091 -0.2364,0.019 -0.2625,0.0289 -0.0459,0.0176 -0.0875,0.0536 -0.1249,0.1072 -0.0381,0.0536 -0.079,0.1574 -0.1235,0.3105l-0.5185 1.7772c-0.0304,0.1038 -0.0452,0.1849 -0.0452,0.2442 0,0.0536 0.0184,0.0945 0.0557,0.122 0.0523,0.0395 0.1348,0.06 0.2477,0.06l0.0501 0 -0.0191 0.0762 -1.1803 0 0.0211 -0.0762 0.0558 0c0.1044,0 0.1841,-0.0155 0.2398,-0.0459 0.0424,-0.0218 0.0805,-0.0635 0.1143,-0.1248 0.0339,-0.0614 0.0812,-0.1976 0.1419,-0.4086l0.4628 -1.6241 -1.6348 2.2796 -0.0825 0 -0.2632 -2.2796 -0.5002 1.7342c-0.0423,0.1475 -0.0635,0.2462 -0.0635,0.297 0,0.0516 0.0183,0.0904 0.0557,0.1172 0.0367,0.0268 0.127,0.0451 0.271,0.055l-0.0233 0.0762 -0.9236 0 0.0226 -0.0762 0.0557 0c0.1362,0 0.235,-0.0346 0.2957,-0.1037 0.0437,-0.0494 0.0903,-0.1574 0.1382,-0.3225l0.6103 -2.0898c-0.0458,-0.0466 -0.0889,-0.0783 -0.1305,-0.0952 -0.0416,-0.0163 -0.1178,-0.0297 -0.2293,-0.0388l0.0205 -0.077 0.6964 0z"/>
  <path class="fil1" d="M6.0517 39.7388l-0.098 0.2696 -0.8269 0 0 -0.0381c0.2434,-0.2223 0.4148,-0.4029 0.5136,-0.544 0.0995,-0.1404 0.1489,-0.2688 0.1489,-0.3853 0,-0.0889 -0.0268,-0.1622 -0.0812,-0.2194 -0.0543,-0.0571 -0.1199,-0.0854 -0.1954,-0.0854 -0.0692,0 -0.1305,0.0198 -0.1856,0.06 -0.055,0.0409 -0.0952,0.0995 -0.1213,0.1778l-0.0381 0c0.0169,-0.1277 0.0614,-0.2258 0.1326,-0.2935 0.0713,-0.0684 0.1602,-0.1023 0.2667,-0.1023 0.1143,0 0.2089,0.036 0.2851,0.1094 0.0762,0.0726 0.1143,0.1594 0.1143,0.2582 0,0.0713 -0.017,0.1418 -0.0494,0.2131 -0.0515,0.1114 -0.1341,0.23 -0.2484,0.3542 -0.1714,0.1876 -0.2787,0.3005 -0.3217,0.3393l0.3662 0c0.0741,0 0.1263,-0.0028 0.1566,-0.0084 0.0296,-0.0057 0.0571,-0.017 0.0811,-0.0339 0.024,-0.0162 0.0452,-0.0402 0.0628,-0.0713l0.0381 0z"/>
 </g>
</svg>
