<?xml version="1.0" encoding="UTF-8"?>
<!DOCTYPE svg PUBLIC "-//W3C//DTD SVG 1.1//EN" "http://www.w3.org/Graphics/SVG/1.1/DTD/svg11.dtd">
<!-- Creator: CorelDRAW -->
<svg xmlns="http://www.w3.org/2000/svg" xml:space="preserve" width="27mm" height="17mm" style="shape-rendering:geometricPrecision; text-rendering:geometricPrecision; image-rendering:optimizeQuality; fill-rule:evenodd; clip-rule:evenodd"
viewBox="0 0 27 17">
 <defs>
  <style type="text/css">
   <![CDATA[
    .fil0 {fill:#1F1A17;fill-rule:nonzero}
   ]]>
  </style>
 </defs>
 <g id="Layer_x0020_1">
  <metadata id="CorelCorpID_0Corel-Layer"/>
  <g>
   <path class="fil0" d="M21.4541 12.6407l-0.2984 0 -0.9096 -1.4032 0.2984 -0.1934 0.9096 1.4032 -0.2984 -0.0001 0.2984 0.1935zm0 0l-0.1493 0.23 -0.1491 -0.23 0.2984 0zm0.7611 -1.4999l0.1492 0.0967 -0.9103 1.4032 -0.2984 -0.1935 0.9104 -1.4032 0.1491 0.0968zm-0.7339 -8.7483l0 9.8756 -0.3528 0 0 -9.8756 0.3528 0z"/>
  </g>
  <path class="fil0" d="M25.5533 5.4745l-0.2089 0.8819 -0.0783 0c0.0127,-0.103 0.0191,-0.1792 0.0191,-0.2293 0,-0.1348 -0.06,-0.2547 -0.1793,-0.3584 -0.1192,-0.1038 -0.2836,-0.156 -0.4931,-0.156 -0.4283,0 -0.7783,0.2011 -1.0499,0.6033 -0.2166,0.3182 -0.3245,0.6745 -0.3245,1.0689 0,0.2618 0.067,0.4875 0.2003,0.678 0.1341,0.1898 0.3401,0.2851 0.6181,0.2851 0.0691,0 0.134,-0.0064 0.1954,-0.0184 0.0614,-0.0127 0.1538,-0.0402 0.278,-0.0825l0.2046 -0.7218c0.029,-0.0988 0.0438,-0.1785 0.0438,-0.2378 0,-0.0494 -0.0184,-0.0875 -0.0537,-0.1136 -0.0578,-0.0402 -0.1516,-0.0599 -0.2815,-0.0599l-0.0578 0 0.0226 -0.0805 1.1662 0 -0.0211 0.0805c-0.1059,0.0014 -0.1828,0.0141 -0.2315,0.0374 -0.0479,0.0232 -0.0896,0.0635 -0.1241,0.1199 -0.0233,0.0374 -0.0607,0.1453 -0.1136,0.3246l-0.2068 0.709c-0.1883,0.0812 -0.3407,0.1355 -0.4564,0.1623 -0.1158,0.0268 -0.2378,0.0402 -0.3662,0.0402 -0.2949,0 -0.5334,-0.0557 -0.7169,-0.1665 -0.1834,-0.1108 -0.3189,-0.2575 -0.4064,-0.4403 -0.0874,-0.1827 -0.1312,-0.364 -0.1312,-0.5446 0,-0.2427 0.0508,-0.4735 0.1531,-0.6915 0.1016,-0.2187 0.2293,-0.4028 0.381,-0.5538 0.1524,-0.151 0.3182,-0.2703 0.4974,-0.357 0.247,-0.12 0.5059,-0.1792 0.7775,-0.1792 0.1997,0 0.3803,0.0324 0.5412,0.0987 0.0649,0.0261 0.1122,0.0395 0.1425,0.0395 0.0346,0 0.0642,-0.0077 0.0882,-0.024 0.024,-0.0155 0.055,-0.0543 0.0938,-0.1142l0.0784 0z"/>
  <g>
   <path class="fil0" d="M1.9627 8.4497l0.08 -0.2875 1.5956 -0.5004 0.1064 0.3393 -1.5956 0.5004 0.08 -0.2874 -0.2664 0.2356zm0 0l-0.1816 -0.2054 0.2616 -0.0821 -0.08 0.2875zm1.2412 1.1352l-0.1332 0.1178 -1.108 -1.253 0.2664 -0.2356 1.108 1.253 -0.1332 0.1178zm17.9222 4.2215l-18.8113 -5.2311 0.0938 -0.339 18.8113 5.2311 -0.0938 0.339z"/>
  </g>
  <g>
   <path class="fil0" d="M20.4142 2.2795l0.0798 0.2874 -1.1081 1.2523 -0.2663 -0.2356 1.1081 -1.2523 0.0799 0.2874 0.1066 -0.3392zm0 0l0.2615 0.0821 -0.1817 0.2053 -0.0798 -0.2874zm-1.6491 -0.3315l0.0533 -0.1696 1.5958 0.5011 -0.1066 0.3392 -1.5958 -0.5011 0.0533 -0.1696zm-17.5282 5.6367l18.8113 -5.2312 0.0938 0.339 -18.8113 5.2312 -0.0938 -0.339z"/>
  </g>
  <path class="fil0" d="M11.7668 14.2713l0.6943 1.0731c0.1242,0.1898 0.2272,0.3119 0.3083,0.3648 0.0812,0.0529 0.1884,0.0797 0.3203,0.0797l-0.0225 0.0762 -1.1952 0 0.019 -0.0762c0.0953,-0.0099 0.1623,-0.0325 0.2011,-0.0684 0.0395,-0.036 0.0593,-0.0762 0.0593,-0.1221 0,-0.0416 -0.0071,-0.0811 -0.0205,-0.1199 -0.0113,-0.0276 -0.0515,-0.0953 -0.1199,-0.2025l-0.5687 -0.8911 -0.2752 0.9285c-0.0451,0.1488 -0.0677,0.2483 -0.0677,0.2998 0,0.0522 0.019,0.0917 0.0578,0.1193 0.0381,0.0282 0.1334,0.0465 0.2851,0.0564l-0.0332 0.0762 -1.1077 0 0.0268 -0.0762c0.1073,-0.0028 0.1799,-0.0127 0.2173,-0.0289 0.0551,-0.0254 0.0953,-0.0572 0.1214,-0.0953 0.036,-0.0564 0.0804,-0.1735 0.1326,-0.3513l0.4939 -1.6934c0.0374,-0.1291 0.0557,-0.2335 0.0557,-0.3118 0,-0.055 -0.0176,-0.0974 -0.0522,-0.1263 -0.0352,-0.0289 -0.1037,-0.043 -0.206,-0.043l-0.0416 0 0.0254 -0.077 1.052 0 -0.0212 0.077c-0.0868,-0.0015 -0.151,0.0077 -0.194,0.0289 -0.0593,0.0289 -0.1023,0.0663 -0.1298,0.1115 -0.0283,0.0451 -0.0685,0.1594 -0.1221,0.3407l-0.2173 0.7197 0.9962 -0.7507c0.1327,-0.0988 0.2194,-0.1778 0.2604,-0.2357 0.0247,-0.0352 0.0374,-0.0677 0.0374,-0.0966 0,-0.0247 -0.0127,-0.0494 -0.0381,-0.0727 -0.0254,-0.0233 -0.0642,-0.0381 -0.1172,-0.0451l0.0212 -0.077 0.8968 0 -0.0184 0.077c-0.0981,0.0162 -0.1806,0.0381 -0.2469,0.0649 -0.0671,0.0268 -0.1355,0.0635 -0.206,0.1107 -0.0205,0.0134 -0.1553,0.1157 -0.4029,0.3055l-0.858 0.6513z"/>
  <path class="fil0" d="M10.0568 2.4723l0.6943 1.0731c0.1242,0.1898 0.2272,0.3119 0.3083,0.3648 0.0812,0.0529 0.1884,0.0797 0.3203,0.0797l-0.0225 0.0762 -1.1952 0 0.019 -0.0762c0.0953,-0.0099 0.1623,-0.0325 0.2011,-0.0684 0.0395,-0.036 0.0593,-0.0762 0.0593,-0.1221 0,-0.0416 -0.0071,-0.0811 -0.0205,-0.1199 -0.0113,-0.0276 -0.0515,-0.0953 -0.1199,-0.2025l-0.5687 -0.8911 -0.2752 0.9285c-0.0451,0.1488 -0.0677,0.2483 -0.0677,0.2998 0,0.0522 0.019,0.0917 0.0578,0.1193 0.0381,0.0282 0.1334,0.0465 0.2851,0.0564l-0.0332 0.0762 -1.1077 0 0.0268 -0.0762c0.1073,-0.0028 0.1799,-0.0127 0.2173,-0.0289 0.0551,-0.0254 0.0953,-0.0572 0.1214,-0.0953 0.036,-0.0564 0.0804,-0.1735 0.1326,-0.3513l0.4939 -1.6934c0.0374,-0.1291 0.0557,-0.2335 0.0557,-0.3118 0,-0.055 -0.0176,-0.0974 -0.0522,-0.1263 -0.0352,-0.0289 -0.1037,-0.043 -0.206,-0.043l-0.0416 0 0.0254 -0.077 1.052 0 -0.0212 0.077c-0.0868,-0.0015 -0.151,0.0077 -0.194,0.0289 -0.0593,0.0289 -0.1023,0.0663 -0.1298,0.1115 -0.0283,0.0451 -0.0685,0.1594 -0.1221,0.3407l-0.2173 0.7197 0.9962 -0.7507c0.1327,-0.0988 0.2194,-0.1778 0.2604,-0.2357 0.0247,-0.0352 0.0374,-0.0677 0.0374,-0.0966 0,-0.0247 -0.0127,-0.0494 -0.0381,-0.0727 -0.0254,-0.0233 -0.0642,-0.0381 -0.1172,-0.0451l0.0212 -0.077 0.8968 0 -0.0184 0.077c-0.0981,0.0162 -0.1806,0.0381 -0.2469,0.0649 -0.0671,0.0268 -0.1355,0.0635 -0.206,0.1107 -0.0205,0.0134 -0.1553,0.1157 -0.4029,0.3055l-0.858 0.6513z"/>
 </g>
</svg>
