<?xml version="1.0" encoding="UTF-8"?>
<!DOCTYPE svg PUBLIC "-//W3C//DTD SVG 1.1//EN" "http://www.w3.org/Graphics/SVG/1.1/DTD/svg11.dtd">
<!-- Creator: CorelDRAW -->
<svg xmlns="http://www.w3.org/2000/svg" xml:space="preserve" width="190mm" height="40mm" style="shape-rendering:geometricPrecision; text-rendering:geometricPrecision; image-rendering:optimizeQuality; fill-rule:evenodd; clip-rule:evenodd"
viewBox="0 0 190 40">
 <defs>
  <style type="text/css">
   <![CDATA[
    .str1 {stroke:#1F1A17;stroke-width:0.1764}
    .str0 {stroke:#131516;stroke-width:0.1764}
    .str2 {stroke:#1F1A17;stroke-width:0.3528}
    .fil0 {fill:none}
    .fil2 {fill:#1F1A17;fill-rule:nonzero}
    .fil1 {fill:url(#id0)}
   ]]>
  </style>
  <linearGradient id="id0" gradientUnits="userSpaceOnUse" x1="174.279" y1="32.3401" x2="175.126" y2="32.3401">
   <stop offset="0" style="stop-color:white"/>
   <stop offset="1" style="stop-color:white"/>
  </linearGradient>
 </defs>
 <g id="Layer_x0020_1">
  <metadata id="CorelCorpID_0Corel-Layer"/>
  <polygon class="fil0 str0" points="174.767,32.8313 174.137,33.6163 173.507,34.4013 174.767,34.4013 176.028,34.4013 175.398,33.6163 "/>
  <g id="_139031928">
   <line id="_139034552" class="fil0 str0" x1="173.065" y1="34.4049" x2="176.204" y2= "34.4049" />
   <g>
    <line id="_139034360" class="fil0 str0" x1="173.368" y1="34.4481" x2="173.094" y2= "35.0671" />
    <line id="_139034048" class="fil0 str0" x1="173.928" y1="34.4481" x2="173.654" y2= "35.0671" />
    <line id="_139033600" class="fil0 str0" x1="174.488" y1="34.4481" x2="174.214" y2= "35.0671" />
    <line id="_139033288" class="fil0 str0" x1="175.048" y1="34.4481" x2="174.775" y2= "35.0671" />
    <line id="_139032976" class="fil0 str0" x1="175.608" y1="34.4481" x2="175.335" y2= "35.0671" />
    <line id="_139032664" class="fil0 str0" x1="176.168" y1="34.4481" x2="175.895" y2= "35.0671" />
   </g>
  </g>
  <rect class="fil0 str1" transform="matrix(0.884403 -0.884403 0.884403 0.884403 157.367 15.6371)" width="0.715" height="18.8861"/>
  <rect class="fil0 str1" transform="matrix(-0.872622 -0.872622 -0.872622 0.872622 157.294 15.6287)" width="0.715" height="18.8861"/>
  <circle class="fil1 str0" cx="174.703" cy="32.3401" r="0.423173"/>
  <polygon class="fil0 str0" points="140.303,32.6004 139.673,33.3853 139.043,34.1701 140.303,34.1701 141.564,34.1701 140.933,33.3853 "/>
  <g id="_139027392">
   <line id="_139030048" class="fil0 str0" x1="138.601" y1="34.174" x2="141.739" y2= "34.174" />
   <g>
    <line id="_139029736" class="fil0 str0" x1="138.903" y1="34.2172" x2="138.63" y2= "34.8362" />
    <line id="_139029288" class="fil0 str0" x1="139.464" y1="34.2172" x2="139.19" y2= "34.8362" />
    <line id="_139028976" class="fil0 str0" x1="140.024" y1="34.2172" x2="139.75" y2= "34.8362" />
    <line id="_139028664" class="fil0 str0" x1="140.584" y1="34.2172" x2="140.31" y2= "34.8362" />
    <line id="_139028352" class="fil0 str0" x1="141.144" y1="34.2172" x2="140.87" y2= "34.8362" />
    <line id="_139028040" class="fil0 str0" x1="141.704" y1="34.2172" x2="141.431" y2= "34.8362" />
   </g>
  </g>
  <circle class="fil1 str0" cx="140.238" cy="32.1091" r="0.423173"/>
  <circle class="fil1 str0" cx="157.359" cy="15.0048" r="0.423173"/>
  <line class="fil0 str1" x1="11.5003" y1="25.0515" x2="30.0957" y2= "6.3817" />
  <g>
   <path class="fil2" d="M25.0353 13.6981l0 -2.3389 0.1764 0 0 2.3389 -0.1764 0zm-0.061 0.3726l0.2984 -0.1935 -0.2984 0.0001 0.9096 -1.4032 0.2984 0.1934 -0.9096 1.4032 -0.2984 0zm0 0l0.2984 0 -0.1491 0.23 -0.1493 -0.23zm-0.7611 -1.4999l0.1491 -0.0968 0.9104 1.4032 -0.2984 0.1935 -0.9103 -1.4032 0.1492 -0.0967z"/>
  </g>
  <line class="fil0 str1" x1="11.5961" y1="27.7043" x2="30.105" y2= "9.1214" />
  <g>
   <path class="fil2" d="M27.3763 11.3567l0 -2.3384 0.1764 0 0 2.3384 -0.1764 0zm-0.061 0.3726l0.2984 -0.1935 -0.2984 0.0001 0.9096 -1.4032 0.2984 0.1934 -0.9096 1.4032 -0.2984 0zm0 0l0.2984 0 -0.1491 0.23 -0.1493 -0.23zm-0.7611 -1.4999l0.1491 -0.0968 0.9104 1.4032 -0.2984 0.1935 -0.9103 -1.4032 0.1492 -0.0967z"/>
  </g>
  <line class="fil0 str1" x1="48.7964" y1="25.0513" x2="30.2011" y2= "6.3817" />
  <g>
   <path class="fil2" d="M35.0848 13.6975l0 -2.3383 0.1764 0 0 2.3383 -0.1764 0zm-0.061 0.3726l0.2984 -0.1935 -0.2984 0.0001 0.9096 -1.4032 0.2984 0.1934 -0.9096 1.4032 -0.2984 0zm0 0l0.2984 0 -0.1491 0.23 -0.1493 -0.23zm-0.7611 -1.4999l0.1491 -0.0968 0.9104 1.4032 -0.2984 0.1935 -0.9103 -1.4032 0.1492 -0.0967z"/>
  </g>
  <g>
   <path class="fil2" d="M30.0366 8.7201l0 -2.3381 0.1764 0 0 2.3381 -0.1764 0zm-0.061 0.3726l0.2984 -0.1935 -0.2984 0.0001 0.9096 -1.4032 0.2984 0.1934 -0.9096 1.4032 -0.2984 0zm0 0l0.2984 0 -0.1491 0.23 -0.1493 -0.23zm-0.7611 -1.4999l0.1491 -0.0968 0.9104 1.4032 -0.2984 0.1935 -0.9103 -1.4032 0.1492 -0.0967z"/>
  </g>
  <line class="fil0 str1" x1="48.7005" y1="27.7042" x2="30.1917" y2= "9.1213" />
  <g>
   <path class="fil2" d="M32.7441 11.3565l0 -2.3383 0.1764 0 0 2.3383 -0.1764 0zm-0.061 0.3726l0.2984 -0.1935 -0.2984 0.0001 0.9096 -1.4032 0.2984 0.1934 -0.9096 1.4032 -0.2984 0zm0 0l0.2984 0 -0.1491 0.23 -0.1493 -0.23zm-0.7611 -1.4999l0.1491 -0.0968 0.9104 1.4032 -0.2984 0.1935 -0.9103 -1.4032 0.1492 -0.0967z"/>
  </g>
  <rect class="fil0 str1" transform="matrix(0.884403 -0.884403 0.884403 0.884403 100.066 14.1174)" width="0.715" height="18.8861"/>
  <rect class="fil0 str1" transform="matrix(-0.872622 -0.872622 -0.872622 0.872622 90.9105 14.109)" width="0.715" height="18.8861"/>
  <line class="fil0 str1" x1="72.2672" y1="23.5317" x2="90.8626" y2= "4.862" />
  <g>
   <path class="fil2" d="M72.1789 25.8011l0 -2.3382 0.1764 0 0 2.3382 -0.1764 0zm-0.061 0.3726l0.2984 -0.1935 -0.2984 0.0001 0.9096 -1.4032 0.2984 0.1934 -0.9096 1.4032 -0.2984 0zm0 0l0.2984 0 -0.1491 0.23 -0.1493 -0.23zm-0.7611 -1.4999l0.1491 -0.0968 0.9104 1.4032 -0.2984 0.1935 -0.9103 -1.4032 0.1492 -0.0967z"/>
  </g>
  <g>
   <path class="fil2" d="M74.6115 23.3681l0 -2.3381 0.1764 0 0 2.3381 -0.1764 0zm-0.061 0.3726l0.2984 -0.1935 -0.2984 0.0001 0.9096 -1.4032 0.2984 0.1934 -0.9096 1.4032 -0.2984 0zm0 0l0.2984 0 -0.1491 0.23 -0.1493 -0.23zm-0.7611 -1.4999l0.1491 -0.0968 0.9104 1.4032 -0.2984 0.1935 -0.9103 -1.4032 0.1492 -0.0967z"/>
  </g>
  <g>
   <path class="fil2" d="M83.4298 14.5496l0 -2.3386 0.1764 0 0 2.3386 -0.1764 0zm-0.061 0.3726l0.2984 -0.1935 -0.2984 0.0001 0.9096 -1.4032 0.2984 0.1934 -0.9096 1.4032 -0.2984 0zm0 0l0.2984 0 -0.1491 0.23 -0.1493 -0.23zm-0.7611 -1.4999l0.1491 -0.0968 0.9104 1.4032 -0.2984 0.1935 -0.9103 -1.4032 0.1492 -0.0967z"/>
  </g>
  <g>
   <path class="fil2" d="M79.249 18.883l0 -2.338 0.1758 0 0 2.338 -0.1758 0zm-0.0613 0.3726l0.2984 -0.1935 -0.2984 0.0001 0.9096 -1.4032 0.2984 0.1934 -0.9096 1.4032 -0.2984 0zm0 0l0.2984 0 -0.1491 0.23 -0.1493 -0.23zm-0.7611 -1.4999l0.1491 -0.0968 0.9104 1.4032 -0.2984 0.1935 -0.9103 -1.4032 0.1492 -0.0967z"/>
  </g>
  <g>
   <path class="fil2" d="M76.7201 21.2597l0 -2.3382 0.1764 0 0 2.3382 -0.1764 0zm-0.061 0.3726l0.2984 -0.1935 -0.2984 0.0001 0.9096 -1.4032 0.2984 0.1934 -0.9096 1.4032 -0.2984 0zm0 0l0.2984 0 -0.1491 0.23 -0.1493 -0.23zm-0.7611 -1.4999l0.1491 -0.0968 0.9104 1.4032 -0.2984 0.1935 -0.9103 -1.4032 0.1492 -0.0967z"/>
  </g>
  <g>
   <path class="fil2" d="M81.2613 16.7192l0 -2.3385 0.1764 0 0 2.3385 -0.1764 0zm-0.061 0.3726l0.2984 -0.1935 -0.2984 0.0001 0.9096 -1.4032 0.2984 0.1934 -0.9096 1.4032 -0.2984 0zm0 0l0.2984 0 -0.1491 0.23 -0.1493 -0.23zm-0.7611 -1.4999l0.1491 -0.0968 0.9104 1.4032 -0.2984 0.1935 -0.9103 -1.4032 0.1492 -0.0967z"/>
  </g>
  <g>
   <path class="fil2" d="M85.8023 12.1776l0 -2.3379 0.1764 0 0 2.3379 -0.1764 0zm-0.061 0.3726l0.2984 -0.1935 -0.2984 0.0001 0.9096 -1.4032 0.2984 0.1934 -0.9096 1.4032 -0.2984 0zm0 0l0.2984 0 -0.1491 0.23 -0.1493 -0.23zm-0.7611 -1.4999l0.1491 -0.0968 0.9104 1.4032 -0.2984 0.1935 -0.9103 -1.4032 0.1492 -0.0967z"/>
  </g>
  <line class="fil0 str1" x1="72.3631" y1="26.1846" x2="90.8719" y2= "7.6017" />
  <g>
   <path class="fil2" d="M88.1428 9.8367l0 -2.3382 0.1764 0 0 2.3382 -0.1764 0zm-0.061 0.3726l0.2984 -0.1935 -0.2984 0.0001 0.9096 -1.4032 0.2984 0.1934 -0.9096 1.4032 -0.2984 0zm0 0l0.2984 0 -0.1491 0.23 -0.1493 -0.23zm-0.7611 -1.4999l0.1491 -0.0968 0.9104 1.4032 -0.2984 0.1935 -0.9103 -1.4032 0.1492 -0.0967z"/>
  </g>
  <line class="fil0 str1" x1="118.646" y1="23.5316" x2="100.05" y2= "4.862" />
  <g>
   <path class="fil2" d="M118.557 25.8011l0 -2.3382 0.1764 0 0 2.3382 -0.1764 0zm-0.061 0.3726l0.2984 -0.1935 -0.2984 0.0001 0.9096 -1.4032 0.2984 0.1934 -0.9096 1.4032 -0.2984 0zm0 0l0.2984 0 -0.1491 0.23 -0.1493 -0.23zm-0.7611 -1.4999l0.1491 -0.0968 0.9104 1.4032 -0.2984 0.1935 -0.9103 -1.4032 0.1492 -0.0967z"/>
  </g>
  <g>
   <path class="fil2" d="M116.125 23.3678l0 -2.3382 0.1764 0 0 2.3382 -0.1764 0zm-0.061 0.3726l0.2984 -0.1935 -0.2984 0.0001 0.9096 -1.4032 0.2984 0.1934 -0.9096 1.4032 -0.2984 0zm0 0l0.2984 0 -0.1491 0.23 -0.1493 -0.23zm-0.7611 -1.4999l0.1491 -0.0968 0.9104 1.4032 -0.2984 0.1935 -0.9103 -1.4032 0.1492 -0.0967z"/>
  </g>
  <g>
   <path class="fil2" d="M107.307 14.5496l0 -2.3386 0.1764 0 0 2.3386 -0.1764 0zm-0.061 0.3726l0.2984 -0.1935 -0.2984 0.0001 0.9096 -1.4032 0.2984 0.1934 -0.9096 1.4032 -0.2984 0zm0 0l0.2984 0 -0.1491 0.23 -0.1493 -0.23zm-0.7611 -1.4999l0.1491 -0.0968 0.9104 1.4032 -0.2984 0.1935 -0.9103 -1.4032 0.1492 -0.0967z"/>
  </g>
  <g>
   <path class="fil2" d="M111.487 18.8828l0 -2.3378 0.1764 0 0 2.3378 -0.1764 0zm-0.061 0.3726l0.2984 -0.1935 -0.2984 0.0001 0.9096 -1.4032 0.2984 0.1934 -0.9096 1.4032 -0.2984 0zm0 0l0.2984 0 -0.1491 0.23 -0.1493 -0.23zm-0.7611 -1.4999l0.1491 -0.0968 0.9104 1.4032 -0.2984 0.1935 -0.9103 -1.4032 0.1492 -0.0967z"/>
  </g>
  <g>
   <path class="fil2" d="M114.016 21.2597l0 -2.3382 0.1764 0 0 2.3382 -0.1764 0zm-0.061 0.3726l0.2984 -0.1935 -0.2984 0.0001 0.9096 -1.4032 0.2984 0.1934 -0.9096 1.4032 -0.2984 0zm0 0l0.2984 0 -0.1491 0.23 -0.1493 -0.23zm-0.7611 -1.4999l0.1491 -0.0968 0.9104 1.4032 -0.2984 0.1935 -0.9103 -1.4032 0.1492 -0.0967z"/>
  </g>
  <g>
   <path class="fil2" d="M109.475 16.7188l0 -2.3381 0.1764 0 0 2.3381 -0.1764 0zm-0.061 0.3726l0.2984 -0.1935 -0.2984 0.0001 0.9096 -1.4032 0.2984 0.1934 -0.9096 1.4032 -0.2984 0zm0 0l0.2984 0 -0.1491 0.23 -0.1493 -0.23zm-0.7611 -1.4999l0.1491 -0.0968 0.9104 1.4032 -0.2984 0.1935 -0.9103 -1.4032 0.1492 -0.0967z"/>
  </g>
  <g>
   <path class="fil2" d="M104.934 12.1776l0 -2.3379 0.1764 0 0 2.3379 -0.1764 0zm-0.061 0.3726l0.2984 -0.1935 -0.2984 0.0001 0.9096 -1.4032 0.2984 0.1934 -0.9096 1.4032 -0.2984 0zm0 0l0.2984 0 -0.1491 0.23 -0.1493 -0.23zm-0.7611 -1.4999l0.1491 -0.0968 0.9104 1.4032 -0.2984 0.1935 -0.9103 -1.4032 0.1492 -0.0967z"/>
  </g>
  <g>
   <path class="fil2" d="M99.8856 7.2004l0 -2.3388 0.1764 0 0 2.3388 -0.1764 0zm-0.061 0.3726l0.2984 -0.1935 -0.2984 0.0001 0.9096 -1.4032 0.2984 0.1934 -0.9096 1.4032 -0.2984 0zm0 0l0.2984 0 -0.1491 0.23 -0.1493 -0.23zm-0.7611 -1.4999l0.1491 -0.0968 0.9104 1.4032 -0.2984 0.1935 -0.9103 -1.4032 0.1492 -0.0967z"/>
  </g>
  <line class="fil0 str1" x1="118.55" y1="26.1845" x2="100.041" y2= "7.6016" />
  <g>
   <path class="fil2" d="M102.593 9.8367l0 -2.3382 0.1764 0 0 2.3382 -0.1764 0zm-0.061 0.3726l0.2984 -0.1935 -0.2984 0.0001 0.9096 -1.4032 0.2984 0.1934 -0.9096 1.4032 -0.2984 0zm0 0l0.2984 0 -0.1491 0.23 -0.1493 -0.23zm-0.7611 -1.4999l0.1491 -0.0968 0.9104 1.4032 -0.2984 0.1935 -0.9103 -1.4032 0.1492 -0.0967z"/>
  </g>
  <g>
   <path class="fil2" d="M74.1519 31.7476l0.2984 0 0.9096 1.4032 -0.2984 0.1934 -0.9096 -1.4032 0.2984 0.0001 -0.2984 -0.1935zm0 0l0.1493 -0.23 0.1491 0.23 -0.2984 0zm-0.7611 1.4999l-0.1492 -0.0967 0.9103 -1.4032 0.2984 0.1935 -0.9104 1.4032 -0.1491 -0.0968zm0.7339 4.8497l0 -5.977 0.3528 0 0 5.977 -0.3528 0z"/>
  </g>
  <path class="fil2" d="M73.1524 33.4246l-0.2131 2.3311c-0.0113,0.1093 -0.0162,0.1806 -0.0162,0.2152 0,0.055 0.0098,0.0973 0.031,0.1263 0.0261,0.0395 0.0614,0.0691 0.1058,0.0889 0.0452,0.019 0.1207,0.0289 0.2265,0.0289l-0.0226 0.0762 -1.1034 0 0.0225 -0.0762 0.0473 0c0.0896,0 0.163,-0.0198 0.2194,-0.0579 0.0395,-0.0268 0.0706,-0.0698 0.0932,-0.1305 0.0148,-0.043 0.0296,-0.1432 0.043,-0.302l0.0332 -0.3556 -0.8023 0 -0.285 0.3867c-0.0649,0.0868 -0.1051,0.1496 -0.1221,0.187 -0.0162,0.0381 -0.0246,0.0733 -0.0246,0.1065 0,0.0444 0.0176,0.0818 0.0536,0.1136 0.036,0.0317 0.0952,0.0494 0.1778,0.0522l-0.0226 0.0762 -0.829 0 0.0226 -0.0762c0.1023,-0.0042 0.1919,-0.0388 0.2702,-0.1023 0.0776,-0.0642 0.1933,-0.2011 0.3478,-0.4106l1.6743 -2.2775 0.0727 0zm-0.4093 0.6879l-0.8128 1.1056 0.7049 0 0.1079 -1.1056z"/>
  <path class="fil2" d="M74.1133 34.631l0.0642 -0.6117c0.0176,-0.1735 0.036,-0.2907 0.0536,-0.3513 0.0261,-0.0868 0.0628,-0.1489 0.1108,-0.187 0.0472,-0.0381 0.1009,-0.0564 0.1601,-0.0564 0.0494,0 0.0889,0.0134 0.1179,0.0409 0.0289,0.0275 0.043,0.0628 0.043,0.1058 0,0.031 -0.0064,0.0663 -0.0205,0.1051 -0.0176,0.0522 -0.0691,0.1672 -0.1531,0.345l-0.285 0.6096 -0.091 0z"/>
  <g>
   <path class="fil2" d="M90.7836 7.1145l0 -2.3381 0.1764 0 0 2.3381 -0.1764 0zm-0.061 0.3726l0.2984 -0.1935 -0.2984 0.0001 0.9096 -1.4032 0.2984 0.1934 -0.9096 1.4032 -0.2984 0zm0 0l0.2984 0 -0.1491 0.23 -0.1493 -0.23zm-0.7611 -1.4999l0.1491 -0.0968 0.9104 1.4032 -0.2984 0.1935 -0.9103 -1.4032 0.1492 -0.0967z"/>
  </g>
  <line class="fil0 str2" x1="64.4169" y1="19.7063" x2="57.9528" y2= "19.7063" />
  <line class="fil0 str2" x1="64.4169" y1="20.6145" x2="57.9528" y2= "20.6145" />
  <g>
   <path class="fil2" d="M116.838 31.7476l0.2984 0 0.9096 1.4032 -0.2984 0.1934 -0.9096 -1.4032 0.2984 0.0001 -0.2984 -0.1935zm0 0l0.1493 -0.23 0.1491 0.23 -0.2984 0zm-0.7611 1.4999l-0.1492 -0.0967 0.9103 -1.4032 0.2984 0.1935 -0.9104 1.4032 -0.1491 -0.0968zm0.7339 4.8497l0 -5.977 0.3528 0 0 5.977 -0.3528 0z"/>
  </g>
  <path class="fil2" d="M120.451 32.9423l-0.2131 2.3311c-0.0113,0.1093 -0.0162,0.1806 -0.0162,0.2152 0,0.055 0.0098,0.0973 0.031,0.1263 0.0261,0.0395 0.0614,0.0691 0.1058,0.0889 0.0452,0.019 0.1207,0.0289 0.2265,0.0289l-0.0226 0.0762 -1.1034 0 0.0225 -0.0762 0.0473 0c0.0896,0 0.163,-0.0198 0.2194,-0.0579 0.0395,-0.0268 0.0706,-0.0698 0.0932,-0.1305 0.0148,-0.043 0.0296,-0.1432 0.043,-0.302l0.0332 -0.3556 -0.8023 0 -0.285 0.3867c-0.0649,0.0868 -0.1051,0.1496 -0.1221,0.187 -0.0162,0.0381 -0.0246,0.0733 -0.0246,0.1065 0,0.0444 0.0176,0.0818 0.0536,0.1136 0.036,0.0317 0.0952,0.0494 0.1778,0.0522l-0.0226 0.0762 -0.829 0 0.0226 -0.0762c0.1023,-0.0042 0.1919,-0.0388 0.2702,-0.1023 0.0776,-0.0642 0.1933,-0.2011 0.3478,-0.4106l1.6743 -2.2775 0.0727 0zm-0.4093 0.6879l-0.8128 1.1056 0.7049 0 0.1079 -1.1056z"/>
  <path class="fil2" d="M121.412 34.1487l0.0642 -0.6117c0.0176,-0.1735 0.036,-0.2907 0.0536,-0.3513 0.0261,-0.0868 0.0628,-0.1489 0.1108,-0.187 0.0472,-0.0381 0.1009,-0.0564 0.1601,-0.0564 0.0494,0 0.0889,0.0134 0.1179,0.0409 0.0289,0.0275 0.043,0.0628 0.043,0.1058 0,0.031 -0.0064,0.0663 -0.0205,0.1051 -0.0176,0.0522 -0.0691,0.1672 -0.1531,0.345l-0.285 0.6096 -0.091 0z"/>
  <g>
   <path class="fil2" d="M99.7102 14.5774l0.2984 0 0.9096 1.4032 -0.2984 0.1934 -0.9096 -1.4032 0.2984 0.0001 -0.2984 -0.1935zm0 0l0.1493 -0.23 0.1491 0.23 -0.2984 0zm-0.7611 1.4999l-0.1492 -0.0967 0.9103 -1.4032 0.2984 0.1935 -0.9104 1.4032 -0.1491 -0.0968zm0.7339 4.8496l0 -5.9769 0.3528 0 0 5.9769 -0.3528 0z"/>
  </g>
  <path class="fil2" d="M98.7106 16.2544l-0.2131 2.3311c-0.0113,0.1093 -0.0162,0.1806 -0.0162,0.2152 0,0.055 0.0098,0.0973 0.031,0.1263 0.0261,0.0395 0.0614,0.0691 0.1058,0.0889 0.0452,0.019 0.1207,0.0289 0.2265,0.0289l-0.0226 0.0762 -1.1034 0 0.0225 -0.0762 0.0473 0c0.0896,0 0.163,-0.0198 0.2194,-0.0579 0.0395,-0.0268 0.0706,-0.0698 0.0932,-0.1305 0.0148,-0.043 0.0296,-0.1432 0.043,-0.302l0.0332 -0.3556 -0.8023 0 -0.285 0.3867c-0.0649,0.0868 -0.1051,0.1496 -0.1221,0.187 -0.0162,0.0381 -0.0246,0.0733 -0.0246,0.1065 0,0.0444 0.0176,0.0818 0.0536,0.1136 0.036,0.0317 0.0952,0.0494 0.1778,0.0522l-0.0226 0.0762 -0.829 0 0.0226 -0.0762c0.1023,-0.0042 0.1919,-0.0388 0.2702,-0.1023 0.0776,-0.0642 0.1933,-0.2011 0.3478,-0.4106l1.6743 -2.2775 0.0727 0zm-0.4093 0.6879l-0.8128 1.1056 0.7049 0 0.1079 -1.1056z"/>
  <path class="fil2" d="M99.6715 17.4608l0.0642 -0.6117c0.0176,-0.1735 0.036,-0.2907 0.0536,-0.3513 0.0261,-0.0868 0.0628,-0.1489 0.1108,-0.187 0.0472,-0.0381 0.1009,-0.0564 0.1601,-0.0564 0.0494,0 0.0889,0.0134 0.1179,0.0409 0.0289,0.0275 0.043,0.0628 0.043,0.1058 0,0.031 -0.0064,0.0663 -0.0205,0.1051 -0.0176,0.0522 -0.0691,0.1672 -0.1531,0.345l-0.285 0.6096 -0.091 0z"/>
  <g>
   <path class="fil2" d="M91.0051 14.7668l0.2984 0 0.9096 1.4032 -0.2984 0.1934 -0.9096 -1.4032 0.2984 0.0001 -0.2984 -0.1935zm0 0l0.1493 -0.23 0.1491 0.23 -0.2984 0zm-0.7611 1.4999l-0.1492 -0.0967 0.9103 -1.4032 0.2984 0.1935 -0.9104 1.4032 -0.1491 -0.0968zm0.7339 4.85l0 -5.9773 0.3528 0 0 5.9773 -0.3528 0z"/>
  </g>
  <path class="fil2" d="M94.6179 15.9616l-0.2131 2.3311c-0.0113,0.1093 -0.0162,0.1806 -0.0162,0.2152 0,0.055 0.0098,0.0973 0.031,0.1263 0.0261,0.0395 0.0614,0.0691 0.1058,0.0889 0.0452,0.019 0.1207,0.0289 0.2265,0.0289l-0.0226 0.0762 -1.1034 0 0.0225 -0.0762 0.0473 0c0.0896,0 0.163,-0.0198 0.2194,-0.0579 0.0395,-0.0268 0.0706,-0.0698 0.0932,-0.1305 0.0148,-0.043 0.0296,-0.1432 0.043,-0.302l0.0332 -0.3556 -0.8023 0 -0.285 0.3867c-0.0649,0.0868 -0.1051,0.1496 -0.1221,0.187 -0.0162,0.0381 -0.0246,0.0733 -0.0246,0.1065 0,0.0444 0.0176,0.0818 0.0536,0.1136 0.036,0.0317 0.0952,0.0494 0.1778,0.0522l-0.0226 0.0762 -0.829 0 0.0226 -0.0762c0.1023,-0.0042 0.1919,-0.0388 0.2702,-0.1023 0.0776,-0.0642 0.1933,-0.2011 0.3478,-0.4106l1.6743 -2.2775 0.0727 0zm-0.4093 0.6879l-0.8128 1.1056 0.7049 0 0.1079 -1.1056z"/>
  <path class="fil2" d="M95.5788 17.168l0.0642 -0.6117c0.0176,-0.1735 0.036,-0.2907 0.0536,-0.3513 0.0261,-0.0868 0.0628,-0.1489 0.1108,-0.187 0.0472,-0.0381 0.1009,-0.0564 0.1601,-0.0564 0.0494,0 0.0889,0.0134 0.1179,0.0409 0.0289,0.0275 0.043,0.0628 0.043,0.1058 0,0.031 -0.0064,0.0663 -0.0205,0.1051 -0.0176,0.0522 -0.0691,0.1672 -0.1531,0.345l-0.285 0.6096 -0.091 0z"/>
  <polygon class="fil0 str0" points="47.6173,32.8313 46.9869,33.6163 46.3567,34.4013 47.6173,34.4013 48.8776,34.4013 48.2475,33.6163 "/>
  <g>
   <line class="fil0 str0" x1="45.9151" y1="34.4049" x2="49.0534" y2= "34.4049" />
   <g>
    <line class="fil0 str0" x1="46.2174" y1="34.4481" x2="45.9438" y2= "35.0671" />
    <line class="fil0 str0" x1="46.7775" y1="34.4481" x2="46.504" y2= "35.0671" />
    <line class="fil0 str0" x1="47.3377" y1="34.4481" x2="47.0642" y2= "35.0671" />
    <line class="fil0 str0" x1="47.8978" y1="34.4481" x2="47.6243" y2= "35.0671" />
    <line class="fil0 str0" x1="48.458" y1="34.4481" x2="48.1845" y2= "35.0671" />
    <line class="fil0 str0" x1="49.0182" y1="34.4481" x2="48.7446" y2= "35.0671" />
   </g>
  </g>
  <rect class="fil0 str1" transform="matrix(0.884403 -0.884403 0.884403 0.884403 30.2171 15.6371)" width="0.715" height="18.8861"/>
  <rect class="fil0 str1" transform="matrix(-0.872622 -0.872622 -0.872622 0.872622 30.1436 15.6287)" width="0.715" height="18.8861"/>
  <circle class="fil1 str0" cx="47.5524" cy="32.3401" r="0.423173"/>
  <polygon class="fil0 str0" points="13.153,32.6004 12.5229,33.3853 11.8923,34.1701 13.153,34.1701 14.4135,34.1701 13.7833,33.3853 "/>
  <g>
   <line class="fil0 str0" x1="11.4508" y1="34.174" x2="14.5891" y2= "34.174" />
   <g>
    <line class="fil0 str0" x1="11.7531" y1="34.2172" x2="11.4796" y2= "34.8362" />
    <line class="fil0 str0" x1="12.3132" y1="34.2172" x2="12.0397" y2= "34.8362" />
    <line class="fil0 str0" x1="12.8734" y1="34.2172" x2="12.5999" y2= "34.8362" />
    <line class="fil0 str0" x1="13.4335" y1="34.2172" x2="13.16" y2= "34.8362" />
    <line class="fil0 str0" x1="13.9937" y1="34.2172" x2="13.7202" y2= "34.8362" />
    <line class="fil0 str0" x1="14.5539" y1="34.2172" x2="14.2803" y2= "34.8362" />
   </g>
  </g>
  <circle class="fil1 str0" cx="13.0881" cy="32.1091" r="0.423173"/>
  <circle class="fil1 str0" cx="30.209" cy="15.0048" r="0.423173"/>
  <g>
   <path class="fil2" d="M11.4119 27.3207l0 -2.3379 0.1764 0 0 2.3379 -0.1764 0zm-0.061 0.3726l0.2984 -0.1935 -0.2984 0.0001 0.9096 -1.4032 0.2984 0.1934 -0.9096 1.4032 -0.2984 0zm0 0l0.2984 0 -0.1491 0.23 -0.1493 -0.23zm-0.7611 -1.4999l0.1491 -0.0968 0.9104 1.4032 -0.2984 0.1935 -0.9103 -1.4032 0.1492 -0.0967z"/>
  </g>
  <g>
   <path class="fil2" d="M13.845 24.8879l0 -2.3383 0.1764 0 0 2.3383 -0.1764 0zm-0.061 0.3726l0.2984 -0.1935 -0.2984 0.0001 0.9096 -1.4032 0.2984 0.1934 -0.9096 1.4032 -0.2984 0zm0 0l0.2984 0 -0.1491 0.23 -0.1493 -0.23zm-0.7611 -1.4999l0.1491 -0.0968 0.9104 1.4032 -0.2984 0.1935 -0.9103 -1.4032 0.1492 -0.0967z"/>
  </g>
  <g>
   <path class="fil2" d="M22.6627 16.0689l0 -2.3381 0.1764 0 0 2.3381 -0.1764 0zm-0.061 0.3726l0.2984 -0.1935 -0.2984 0.0001 0.9096 -1.4032 0.2984 0.1934 -0.9096 1.4032 -0.2984 0zm0 0l0.2984 0 -0.1491 0.23 -0.1493 -0.23zm-0.7611 -1.4999l0.1491 -0.0968 0.9104 1.4032 -0.2984 0.1935 -0.9103 -1.4032 0.1492 -0.0967z"/>
  </g>
  <g>
   <path class="fil2" d="M18.4818 20.4027l0 -2.3382 0.1764 0 0 2.3382 -0.1764 0zm-0.061 0.3726l0.2984 -0.1935 -0.2984 0.0001 0.9096 -1.4032 0.2984 0.1934 -0.9096 1.4032 -0.2984 0zm0 0l0.2984 0 -0.1491 0.23 -0.1493 -0.23zm-0.7611 -1.4999l0.1491 -0.0968 0.9104 1.4032 -0.2984 0.1935 -0.9103 -1.4032 0.1492 -0.0967z"/>
  </g>
  <g>
   <path class="fil2" d="M15.9532 22.7796l0 -2.3378 0.1764 0 0 2.3378 -0.1764 0zm-0.061 0.3726l0.2984 -0.1935 -0.2984 0.0001 0.9096 -1.4032 0.2984 0.1934 -0.9096 1.4032 -0.2984 0zm0 0l0.2984 0 -0.1491 0.23 -0.1493 -0.23zm-0.7611 -1.4999l0.1491 -0.0968 0.9104 1.4032 -0.2984 0.1935 -0.9103 -1.4032 0.1492 -0.0967z"/>
  </g>
  <g>
   <path class="fil2" d="M20.4944 18.2387l0 -2.3385 0.1764 0 0 2.3385 -0.1764 0zm-0.061 0.3726l0.2984 -0.1935 -0.2984 0.0001 0.9096 -1.4032 0.2984 0.1934 -0.9096 1.4032 -0.2984 0zm0 0l0.2984 0 -0.1491 0.23 -0.1493 -0.23zm-0.7611 -1.4999l0.1491 -0.0968 0.9104 1.4032 -0.2984 0.1935 -0.9103 -1.4032 0.1492 -0.0967z"/>
  </g>
  <g>
   <path class="fil2" d="M48.7083 27.3207l0 -2.3379 0.1764 0 0 2.3379 -0.1764 0zm-0.061 0.3726l0.2984 -0.1935 -0.2984 0.0001 0.9096 -1.4032 0.2984 0.1934 -0.9096 1.4032 -0.2984 0zm0 0l0.2984 0 -0.1491 0.23 -0.1493 -0.23zm-0.7611 -1.4999l0.1491 -0.0968 0.9104 1.4032 -0.2984 0.1935 -0.9103 -1.4032 0.1492 -0.0967z"/>
  </g>
  <g>
   <path class="fil2" d="M46.2756 24.8876l0 -2.3386 0.1764 0 0 2.3386 -0.1764 0zm-0.061 0.3726l0.2984 -0.1935 -0.2984 0.0001 0.9096 -1.4032 0.2984 0.1934 -0.9096 1.4032 -0.2984 0zm0 0l0.2984 0 -0.1491 0.23 -0.1493 -0.23zm-0.7611 -1.4999l0.1491 -0.0968 0.9104 1.4032 -0.2984 0.1935 -0.9103 -1.4032 0.1492 -0.0967z"/>
  </g>
  <g>
   <path class="fil2" d="M37.4577 16.0689l0 -2.3381 0.1764 0 0 2.3381 -0.1764 0zm-0.061 0.3726l0.2984 -0.1935 -0.2984 0.0001 0.9096 -1.4032 0.2984 0.1934 -0.9096 1.4032 -0.2984 0zm0 0l0.2984 0 -0.1491 0.23 -0.1493 -0.23zm-0.7611 -1.4999l0.1491 -0.0968 0.9104 1.4032 -0.2984 0.1935 -0.9103 -1.4032 0.1492 -0.0967z"/>
  </g>
  <g>
   <path class="fil2" d="M41.6384 20.4023l0 -2.3378 0.1764 0 0 2.3378 -0.1764 0zm-0.061 0.3726l0.2984 -0.1935 -0.2984 0.0001 0.9096 -1.4032 0.2984 0.1934 -0.9096 1.4032 -0.2984 0zm0 0l0.2984 0 -0.1491 0.23 -0.1493 -0.23zm-0.7611 -1.4999l0.1491 -0.0968 0.9104 1.4032 -0.2984 0.1935 -0.9103 -1.4032 0.1492 -0.0967z"/>
  </g>
  <g>
   <path class="fil2" d="M44.1669 22.7796l0 -2.3382 0.1764 0 0 2.3382 -0.1764 0zm-0.061 0.3726l0.2984 -0.1935 -0.2984 0.0001 0.9096 -1.4032 0.2984 0.1934 -0.9096 1.4032 -0.2984 0zm0 0l0.2984 0 -0.1491 0.23 -0.1493 -0.23zm-0.7611 -1.4999l0.1491 -0.0968 0.9104 1.4032 -0.2984 0.1935 -0.9103 -1.4032 0.1492 -0.0967z"/>
  </g>
  <g>
   <path class="fil2" d="M39.6262 18.2384l0 -2.3382 0.1764 0 0 2.3382 -0.1764 0zm-0.061 0.3726l0.2984 -0.1935 -0.2984 0.0001 0.9096 -1.4032 0.2984 0.1934 -0.9096 1.4032 -0.2984 0zm0 0l0.2984 0 -0.1491 0.23 -0.1493 -0.23zm-0.7611 -1.4999l0.1491 -0.0968 0.9104 1.4032 -0.2984 0.1935 -0.9103 -1.4032 0.1492 -0.0967z"/>
  </g>
  <line class="fil0 str2" x1="133.441" y1="20.6145" x2="126.977" y2= "20.6145" />
  <line class="fil0 str2" x1="130.209" y1="23.8466" x2="130.209" y2= "17.3825" />
  <g>
   <path class="fil2" d="M140.092 30.474l-0.2984 0 -0.9096 -1.4032 0.2984 -0.1934 0.9096 1.4032 -0.2984 -0.0001 0.2984 0.1935zm0 0l-0.1493 0.23 -0.1491 -0.23 0.2984 0zm0.7611 -1.4999l0.1492 0.0967 -0.9103 1.4032 -0.2984 -0.1935 0.9104 -1.4032 0.1491 0.0968zm-0.7339 -4.8496l0 5.9769 -0.3528 0 0 -5.9769 0.3528 0z"/>
  </g>
  <path class="fil2" d="M138.794 25.916l-0.2131 2.3311c-0.0113,0.1093 -0.0162,0.1806 -0.0162,0.2152 0,0.055 0.0098,0.0973 0.031,0.1263 0.0261,0.0395 0.0614,0.0691 0.1058,0.0889 0.0452,0.019 0.1207,0.0289 0.2265,0.0289l-0.0226 0.0762 -1.1034 0 0.0225 -0.0762 0.0473 0c0.0896,0 0.163,-0.0198 0.2194,-0.0579 0.0395,-0.0268 0.0706,-0.0698 0.0932,-0.1305 0.0148,-0.043 0.0296,-0.1432 0.043,-0.302l0.0332 -0.3556 -0.8023 0 -0.285 0.3867c-0.0649,0.0868 -0.1051,0.1496 -0.1221,0.187 -0.0162,0.0381 -0.0246,0.0733 -0.0246,0.1065 0,0.0444 0.0176,0.0818 0.0536,0.1136 0.036,0.0317 0.0952,0.0494 0.1778,0.0522l-0.0226 0.0762 -0.829 0 0.0226 -0.0762c0.1023,-0.0042 0.1919,-0.0388 0.2702,-0.1023 0.0776,-0.0642 0.1933,-0.2011 0.3478,-0.4106l1.6743 -2.2775 0.0727 0zm-0.4093 0.6879l-0.8128 1.1056 0.7049 0 0.1079 -1.1056z"/>
  <path class="fil2" d="M139.755 27.1224l0.0642 -0.6117c0.0176,-0.1735 0.036,-0.2907 0.0536,-0.3513 0.0261,-0.0868 0.0628,-0.1489 0.1108,-0.187 0.0472,-0.0381 0.1009,-0.0564 0.1601,-0.0564 0.0494,0 0.0889,0.0134 0.1179,0.0409 0.0289,0.0275 0.043,0.0628 0.043,0.1058 0,0.031 -0.0064,0.0663 -0.0205,0.1051 -0.0176,0.0522 -0.0691,0.1672 -0.1531,0.345l-0.285 0.6096 -0.091 0z"/>
  <g>
   <path class="fil2" d="M174.604 30.474l-0.2984 0 -0.9096 -1.4032 0.2984 -0.1934 0.9096 1.4032 -0.2984 -0.0001 0.2984 0.1935zm0 0l-0.1493 0.23 -0.1491 -0.23 0.2984 0zm0.7611 -1.4999l0.1492 0.0967 -0.9103 1.4032 -0.2984 -0.1935 0.9104 -1.4032 0.1491 0.0968zm-0.7339 -4.8496l0 5.9769 -0.3528 0 0 -5.9769 0.3528 0z"/>
  </g>
  <path class="fil2" d="M177.586 25.3304l-0.2131 2.3311c-0.0113,0.1093 -0.0162,0.1806 -0.0162,0.2152 0,0.055 0.0098,0.0973 0.031,0.1263 0.0261,0.0395 0.0614,0.0691 0.1058,0.0889 0.0452,0.019 0.1207,0.0289 0.2265,0.0289l-0.0226 0.0762 -1.1034 0 0.0225 -0.0762 0.0473 0c0.0896,0 0.163,-0.0198 0.2194,-0.0579 0.0395,-0.0268 0.0706,-0.0698 0.0932,-0.1305 0.0148,-0.043 0.0296,-0.1432 0.043,-0.302l0.0332 -0.3556 -0.8023 0 -0.285 0.3867c-0.0649,0.0868 -0.1051,0.1496 -0.1221,0.187 -0.0162,0.0381 -0.0246,0.0733 -0.0246,0.1065 0,0.0444 0.0176,0.0818 0.0536,0.1136 0.036,0.0317 0.0952,0.0494 0.1778,0.0522l-0.0226 0.0762 -0.829 0 0.0226 -0.0762c0.1023,-0.0042 0.1919,-0.0388 0.2702,-0.1023 0.0776,-0.0642 0.1933,-0.2011 0.3478,-0.4106l1.6743 -2.2775 0.0727 0zm-0.4093 0.6879l-0.8128 1.1056 0.7049 0 0.1079 -1.1056z"/>
  <path class="fil2" d="M178.547 26.5368l0.0642 -0.6117c0.0176,-0.1735 0.036,-0.2907 0.0536,-0.3513 0.0261,-0.0868 0.0628,-0.1489 0.1108,-0.187 0.0472,-0.0381 0.1009,-0.0564 0.1601,-0.0564 0.0494,0 0.0889,0.0134 0.1179,0.0409 0.0289,0.0275 0.043,0.0628 0.043,0.1058 0,0.031 -0.0064,0.0663 -0.0205,0.1051 -0.0176,0.0522 -0.0691,0.1672 -0.1531,0.345l-0.285 0.6096 -0.091 0z"/>
  <g>
   <path class="fil2" d="M157.365 13.7861l-0.2984 0 -0.9096 -1.4032 0.2984 -0.1934 0.9096 1.4032 -0.2984 -0.0001 0.2984 0.1935zm0 0l-0.1493 0.23 -0.1491 -0.23 0.2984 0zm0.7611 -1.4999l0.1492 0.0967 -0.9103 1.4032 -0.2984 -0.1935 0.9104 -1.4032 0.1491 0.0968zm-0.7339 -4.85l0 5.9773 -0.3528 0 0 -5.9773 0.3528 0z"/>
  </g>
  <path class="fil2" d="M154.011 11.5547l-0.1962 0.5397 -1.6538 0 0 -0.0762c0.4861,-0.4438 0.829,-0.8064 1.0273,-1.0873 0.1983,-0.2815 0.2977,-0.5383 0.2977,-0.7711 0,-0.1778 -0.0543,-0.3239 -0.1636,-0.4382 -0.1087,-0.1143 -0.2385,-0.1714 -0.3902,-0.1714 -0.1383,0 -0.2618,0.0402 -0.3711,0.1206 -0.1094,0.0805 -0.1905,0.199 -0.2427,0.3542l-0.077 0c0.0346,-0.2547 0.1228,-0.4501 0.266,-0.587 0.1426,-0.1362 0.3204,-0.2046 0.5341,-0.2046 0.2272,0 0.417,0.0734 0.5694,0.2194 0.1524,0.1461 0.2286,0.3182 0.2286,0.5165 0,0.1418 -0.0331,0.2843 -0.0995,0.4261 -0.1016,0.223 -0.2674,0.4593 -0.496,0.7091 -0.3429,0.3747 -0.5573,0.6004 -0.6427,0.678l0.7316 0c0.1489,0 0.2533,-0.0056 0.3133,-0.0169 0.06,-0.0106 0.1143,-0.0331 0.1623,-0.067 0.048,-0.0339 0.0903,-0.0819 0.1263,-0.1439l0.0762 0z"/>
  <path class="fil2" d="M156.368 9.2278l-0.2131 2.3311c-0.0113,0.1093 -0.0162,0.1806 -0.0162,0.2152 0,0.055 0.0098,0.0973 0.031,0.1263 0.0261,0.0395 0.0614,0.0691 0.1058,0.0889 0.0452,0.019 0.1207,0.0289 0.2265,0.0289l-0.0226 0.0762 -1.1034 0 0.0225 -0.0762 0.0473 0c0.0896,0 0.163,-0.0198 0.2194,-0.0579 0.0395,-0.0268 0.0706,-0.0698 0.0932,-0.1305 0.0148,-0.043 0.0296,-0.1432 0.043,-0.302l0.0332 -0.3556 -0.8023 0 -0.285 0.3867c-0.0649,0.0868 -0.1051,0.1496 -0.1221,0.187 -0.0162,0.0381 -0.0246,0.0733 -0.0246,0.1065 0,0.0444 0.0176,0.0818 0.0536,0.1136 0.036,0.0317 0.0952,0.0494 0.1778,0.0522l-0.0226 0.0762 -0.829 0 0.0226 -0.0762c0.1023,-0.0042 0.1919,-0.0388 0.2702,-0.1023 0.0776,-0.0642 0.1933,-0.2011 0.3478,-0.4106l1.6743 -2.2775 0.0727 0zm-0.4093 0.6879l-0.8128 1.1056 0.7049 0 0.1079 -1.1056z"/>
  <path class="fil2" d="M157.329 10.4342l0.0642 -0.6117c0.0176,-0.1735 0.036,-0.2907 0.0536,-0.3513 0.0261,-0.0868 0.0628,-0.1489 0.1108,-0.187 0.0472,-0.0381 0.1009,-0.0564 0.1601,-0.0564 0.0494,0 0.0889,0.0134 0.1179,0.0409 0.0289,0.0275 0.043,0.0628 0.043,0.1058 0,0.031 -0.0064,0.0663 -0.0205,0.1051 -0.0176,0.0522 -0.0691,0.1672 -0.1531,0.345l-0.285 0.6096 -0.091 0z"/>
 </g>
</svg>
