<?xml version="1.0" encoding="UTF-8"?>
<!DOCTYPE svg PUBLIC "-//W3C//DTD SVG 1.1//EN" "http://www.w3.org/Graphics/SVG/1.1/DTD/svg11.dtd">
<!-- Creator: CorelDRAW -->
<svg xmlns="http://www.w3.org/2000/svg" xml:space="preserve" width="56mm" height="22mm" style="shape-rendering:geometricPrecision; text-rendering:geometricPrecision; image-rendering:optimizeQuality; fill-rule:evenodd; clip-rule:evenodd"
viewBox="0 0 56 22">
 <defs>
  <style type="text/css">
   <![CDATA[
    .str0 {stroke:#1F1A17;stroke-width:0.1764}
    .fil0 {fill:none}
    .fil1 {fill:#1F1A17;fill-rule:nonzero}
   ]]>
  </style>
 </defs>
 <g id="Layer_x0020_1">
  <metadata id="CorelCorpID_0Corel-Layer"/>
  <line class="fil0 str0" x1="11.7081" y1="4.7262" x2="52.3074" y2= "4.7262" />
  <path class="fil0 str0" d="M11.7081 4.7262c13.9178,12.5039 27.3848,10.3604 40.5993,0"/>
  <line class="fil0 str0" x1="32.0078" y1="4.7262" x2="31.9162" y2= "13.3118" />
  <circle class="fil0 str0" cx="6.2971" cy="5.7759" r="2.3099"/>
  <path class="fil1" d="M6.1313 4.5146l0.2589 2.2578 1.6263 -2.2578 0.6844 0 0 0.077c-0.1489,0.0091 -0.2364,0.019 -0.2625,0.0289 -0.0459,0.0176 -0.0875,0.0536 -0.1249,0.1072 -0.0381,0.0536 -0.079,0.1574 -0.1235,0.3105l-0.5185 1.7772c-0.0304,0.1038 -0.0452,0.1849 -0.0452,0.2442 0,0.0536 0.0184,0.0945 0.0557,0.122 0.0523,0.0395 0.1348,0.06 0.2477,0.06l0.0501 0 -0.0191 0.0762 -1.1803 0 0.0211 -0.0762 0.0558 0c0.1044,0 0.1841,-0.0155 0.2398,-0.0459 0.0424,-0.0218 0.0805,-0.0635 0.1143,-0.1248 0.0339,-0.0614 0.0812,-0.1976 0.1419,-0.4086l0.4628 -1.6241 -1.6348 2.2796 -0.0825 0 -0.2632 -2.2796 -0.5002 1.7342c-0.0423,0.1475 -0.0635,0.2462 -0.0635,0.297 0,0.0516 0.0183,0.0904 0.0557,0.1172 0.0367,0.0268 0.127,0.0451 0.271,0.055l-0.0233 0.0762 -0.9236 0 0.0226 -0.0762 0.0557 0c0.1362,0 0.235,-0.0346 0.2957,-0.1037 0.0437,-0.0494 0.0903,-0.1574 0.1382,-0.3225l0.6103 -2.0898c-0.0458,-0.0466 -0.0889,-0.0783 -0.1305,-0.0952 -0.0416,-0.0163 -0.1178,-0.0297 -0.2293,-0.0388l0.0205 -0.077 0.6964 0z"/>
  <path class="fil1" d="M36.4551 16.8244l0.2589 2.2578 1.6263 -2.2578 0.6844 0 0 0.077c-0.1489,0.0091 -0.2364,0.019 -0.2625,0.0289 -0.0459,0.0176 -0.0875,0.0536 -0.1249,0.1072 -0.0381,0.0536 -0.079,0.1574 -0.1235,0.3105l-0.5185 1.7772c-0.0304,0.1038 -0.0452,0.1849 -0.0452,0.2442 0,0.0536 0.0184,0.0945 0.0557,0.122 0.0523,0.0395 0.1348,0.06 0.2477,0.06l0.0501 0 -0.0191 0.0762 -1.1803 0 0.0211 -0.0762 0.0558 0c0.1044,0 0.1841,-0.0155 0.2398,-0.0459 0.0424,-0.0218 0.0805,-0.0635 0.1143,-0.1248 0.0339,-0.0614 0.0812,-0.1976 0.1419,-0.4086l0.4628 -1.6241 -1.6348 2.2796 -0.0825 0 -0.2632 -2.2796 -0.5002 1.7342c-0.0423,0.1475 -0.0635,0.2462 -0.0635,0.297 0,0.0516 0.0183,0.0904 0.0557,0.1172 0.0367,0.0268 0.127,0.0451 0.271,0.055l-0.0233 0.0762 -0.9236 0 0.0226 -0.0762 0.0557 0c0.1362,0 0.235,-0.0346 0.2957,-0.1037 0.0437,-0.0494 0.0903,-0.1574 0.1382,-0.3225l0.6103 -2.0898c-0.0458,-0.0466 -0.0889,-0.0783 -0.1305,-0.0952 -0.0416,-0.0163 -0.1178,-0.0297 -0.2293,-0.0388l0.0205 -0.077 0.6964 0z"/>
  <path class="fil1" d="M39.0987 19.538l-0.134 0.4664c0.0599,-0.1094 0.1107,-0.1919 0.1531,-0.247 0.0656,-0.0854 0.1291,-0.1474 0.1912,-0.1862 0.0367,-0.0219 0.0747,-0.0332 0.1143,-0.0332 0.0345,0 0.0635,0.0113 0.086,0.0332 0.0226,0.0218 0.0339,0.0501 0.0339,0.0846 0,0.0339 -0.0078,0.0783 -0.0233,0.1327l-0.0734 0.2624c0.1122,-0.2102 0.2188,-0.3577 0.319,-0.4423 0.0557,-0.0466 0.1107,-0.0706 0.1658,-0.0706 0.0317,0 0.0571,0.0113 0.0776,0.0325 0.0204,0.0218 0.0303,0.0557 0.0303,0.1008 0,0.0403 -0.0056,0.0826 -0.0183,0.127l-0.1136 0.4022c-0.0247,0.0875 -0.0374,0.1362 -0.0374,0.1461 0,0.0091 0.0035,0.0176 0.0091,0.0246 0.0043,0.005 0.0099,0.0071 0.017,0.0071 0.007,0 0.019,-0.0063 0.036,-0.0198 0.0395,-0.0303 0.0762,-0.0698 0.1107,-0.1199l0.0339 0.0219c-0.0169,0.0275 -0.0473,0.0656 -0.091,0.1136 -0.0445,0.0487 -0.0812,0.0811 -0.1122,0.0987 -0.031,0.017 -0.06,0.0254 -0.0861,0.0254 -0.024,0 -0.0444,-0.0084 -0.0607,-0.0246 -0.0162,-0.0163 -0.0239,-0.0367 -0.0239,-0.0607 0,-0.0332 0.0141,-0.1002 0.0423,-0.1997l0.0938 -0.3316c0.0212,-0.0769 0.0332,-0.1192 0.0346,-0.1277 0.0014,-0.0127 0.0028,-0.0254 0.0028,-0.0381 0,-0.0169 -0.0035,-0.0303 -0.0113,-0.0402 -0.0084,-0.0099 -0.0176,-0.0141 -0.0282,-0.0141 -0.0289,0 -0.0593,0.0148 -0.0917,0.0444 -0.0953,0.0875 -0.1842,0.2096 -0.2667,0.3676 -0.0543,0.1044 -0.1051,0.2378 -0.1531,0.4001l-0.1559 0 0.1764 -0.6252c0.0197,-0.0677 0.0296,-0.1129 0.0296,-0.1354 0,-0.0184 -0.0043,-0.0325 -0.012,-0.0417 -0.0071,-0.0084 -0.0169,-0.0134 -0.0275,-0.0134 -0.0226,0 -0.0473,0.0085 -0.0727,0.0247 -0.0409,0.0268 -0.0945,0.0847 -0.1595,0.1729 -0.0649,0.0882 -0.1157,0.1729 -0.1516,0.2533 -0.017,0.0381 -0.0579,0.1594 -0.1228,0.3648l-0.1531 0 0.1912 -0.6696 0.0247 -0.0868c0.0049,-0.0134 0.0077,-0.0226 0.0077,-0.0289 0,-0.0155 -0.007,-0.029 -0.0211,-0.0409 -0.0134,-0.012 -0.0311,-0.0184 -0.0522,-0.0184 -0.0092,0 -0.0339,0.0042 -0.0748,0.0127l-0.0092 -0.0381 0.3563 -0.0656z"/>
  <path class="fil1" d="M41.1624 19.538l-0.2018 0.7006 -0.0226 0.0946c-0.0021,0.0084 -0.0035,0.0162 -0.0035,0.0225 0,0.0113 0.0035,0.0205 0.0106,0.029 0.0056,0.0063 0.0127,0.0091 0.0205,0.0091 0.0091,0 0.0211,-0.0056 0.0352,-0.0162 0.0269,-0.0205 0.0628,-0.0614 0.108,-0.1242l0.0346 0.0247c-0.0473,0.072 -0.096,0.1263 -0.1468,0.1637 -0.0501,0.0381 -0.0967,0.0564 -0.139,0.0564 -0.0296,0 -0.0522,-0.007 -0.067,-0.0218 -0.0148,-0.0148 -0.0219,-0.0367 -0.0219,-0.0649 0,-0.0339 0.0071,-0.0783 0.0226,-0.1334l0.0219 -0.0776c-0.0903,0.1178 -0.1736,0.2004 -0.2491,0.2469 -0.055,0.0339 -0.1079,0.0508 -0.1602,0.0508 -0.0508,0 -0.0938,-0.0204 -0.1305,-0.062 -0.0367,-0.0424 -0.055,-0.0995 -0.055,-0.1722 0,-0.1101 0.0331,-0.2251 0.0988,-0.3471 0.0656,-0.1214 0.1495,-0.2187 0.2504,-0.2921 0.0798,-0.0579 0.1546,-0.0868 0.2244,-0.0868 0.0423,0 0.0769,0.0113 0.1051,0.0332 0.0282,0.0218 0.0494,0.0585 0.0635,0.1093l0.0374 -0.1178 0.1644 -0.0247zm-0.3683 0.0536c-0.0437,0 -0.091,0.0212 -0.1404,0.0621 -0.0705,0.0586 -0.1326,0.1453 -0.1877,0.2611 -0.0543,0.115 -0.0818,0.2187 -0.0818,0.3118 0,0.0466 0.0113,0.084 0.0346,0.1108 0.024,0.0275 0.0508,0.0409 0.0811,0.0409 0.0748,0 0.1566,-0.055 0.2448,-0.1665 0.1179,-0.1475 0.1764,-0.2985 0.1764,-0.4537 0,-0.0585 -0.0113,-0.1009 -0.0339,-0.127 -0.0225,-0.0261 -0.0536,-0.0395 -0.0931,-0.0395z"/>
  <path class="fil1" d="M41.5942 19.538c0.0339,0.036 0.0593,0.072 0.0762,0.1079 0.0127,0.0247 0.0331,0.0896 0.0614,0.1955l0.091 -0.1369c0.024,-0.0332 0.0529,-0.0642 0.0875,-0.0945 0.0345,-0.0297 0.0649,-0.0501 0.091,-0.0614 0.0169,-0.0071 0.0346,-0.0106 0.055,-0.0106 0.0297,0 0.0529,0.0085 0.0706,0.024 0.0176,0.0155 0.0268,0.0353 0.0268,0.0578 0,0.0261 -0.0057,0.0445 -0.0155,0.0537 -0.0198,0.0176 -0.0417,0.0261 -0.0664,0.0261 -0.0148,0 -0.0303,-0.0036 -0.0465,-0.0092 -0.0325,-0.0113 -0.0544,-0.0169 -0.0649,-0.0169 -0.017,0 -0.0367,0.0098 -0.0593,0.0289 -0.0423,0.036 -0.0938,0.1051 -0.1531,0.2081l0.0847 0.3556c0.0134,0.0544 0.0247,0.0868 0.0331,0.0974 0.0092,0.0106 0.0184,0.0162 0.0268,0.0162 0.0149,0 0.0318,-0.0085 0.0508,-0.024 0.0381,-0.0317 0.0706,-0.0733 0.0974,-0.1241l0.036 0.019c-0.0431,0.0811 -0.0988,0.1489 -0.1651,0.2025 -0.0381,0.0303 -0.0699,0.0451 -0.096,0.0451 -0.0388,0 -0.0698,-0.0218 -0.0924,-0.0649 -0.0141,-0.0268 -0.0444,-0.1425 -0.0896,-0.3471 -0.108,0.1863 -0.194,0.3069 -0.2589,0.3605 -0.0417,0.0346 -0.0826,0.0515 -0.1214,0.0515 -0.0275,0 -0.0529,-0.0098 -0.0755,-0.0296 -0.0169,-0.0155 -0.0247,-0.036 -0.0247,-0.0614 0,-0.0225 0.0071,-0.0416 0.0226,-0.0564 0.0148,-0.0155 0.0339,-0.0233 0.0557,-0.0233 0.0219,0 0.0452,0.0113 0.0699,0.0332 0.0183,0.0162 0.0317,0.024 0.0416,0.024 0.0085,0 0.0191,-0.0057 0.0318,-0.0163 0.0324,-0.0268 0.0769,-0.0832 0.1326,-0.17 0.0557,-0.0868 0.0924,-0.1496 0.1094,-0.1877 -0.0424,-0.1679 -0.0657,-0.2561 -0.0692,-0.266 -0.0155,-0.0444 -0.0367,-0.0762 -0.0621,-0.0945 -0.0254,-0.0191 -0.0628,-0.0282 -0.1122,-0.0282 -0.0162,0 -0.0345,0.0007 -0.055,0.0021l0 -0.0374 0.2759 -0.0487z"/>
 </g>
</svg>
