<?xml version="1.0" encoding="UTF-8"?>
<!DOCTYPE svg PUBLIC "-//W3C//DTD SVG 1.1//EN" "http://www.w3.org/Graphics/SVG/1.1/DTD/svg11.dtd">
<!-- Creator: CorelDRAW -->
<svg xmlns="http://www.w3.org/2000/svg" xml:space="preserve" width="96mm" height="20mm" style="shape-rendering:geometricPrecision; text-rendering:geometricPrecision; image-rendering:optimizeQuality; fill-rule:evenodd; clip-rule:evenodd"
viewBox="0 0 96 20">
 <defs>
  <style type="text/css">
   <![CDATA[
    .str0 {stroke:#1F1A17;stroke-width:0.1764}
    .fil0 {fill:none}
    .fil1 {fill:#1F1A17;fill-rule:nonzero}
   ]]>
  </style>
 </defs>
 <g id="Layer_x0020_1">
  <metadata id="CorelCorpID_0Corel-Layer"/>
  <line class="fil0 str0" x1="6.9682" y1="11.87" x2="86.8704" y2= "12.279" />
  <line class="fil0 str0" x1="10.4392" y1="16.9571" x2="83.8014" y2= "17.4344" />
  <line class="fil0 str0" x1="7.2049" y1="12.1061" x2="10.4823" y2= "16.9761" />
  <line class="fil0 str0" x1="13.611" y1="11.9039" x2="16.6863" y2= "16.8789" />
  <line class="fil0 str0" x1="19.7771" y1="11.9349" x2="22.8276" y2= "16.852" />
  <line class="fil0 str0" x1="25.7885" y1="11.9657" x2="28.929" y2= "16.9002" />
  <line class="fil0 str0" x1="31.7526" y1="11.9915" x2="35.0304" y2= "16.9485" />
  <line class="fil0 str0" x1="38.014" y1="12.029" x2="41.1318" y2= "16.9967" />
  <line class="fil0 str0" x1="43.9555" y1="12.088" x2="47.2332" y2= "17.045" />
  <line class="fil0 str0" x1="50.2165" y1="12.0917" x2="53.3346" y2= "17.0933" />
  <line class="fil0 str0" x1="56.1582" y1="12.1845" x2="59.4359" y2= "17.1415" />
  <line class="fil0 str0" x1="62.397" y1="12.1538" x2="65.5373" y2= "17.1898" />
  <line class="fil0 str0" x1="68.361" y1="12.281" x2="71.6387" y2= "17.238" />
  <line class="fil0 str0" x1="74.5546" y1="12.2163" x2="77.7401" y2= "17.2863" />
  <line class="fil0 str0" x1="80.8137" y1="12.1532" x2="83.8415" y2= "17.3345" />
  <line class="fil0 str0" x1="13.611" y1="11.9036" x2="10.439" y2= "17.1095" />
  <line class="fil0 str0" x1="19.6467" y1="11.9012" x2="16.643" y2= "17.0124" />
  <line class="fil0 str0" x1="25.6513" y1="11.9434" x2="22.7874" y2= "16.9844" />
  <line class="fil0 str0" x1="31.7527" y1="11.9917" x2="28.8888" y2= "17.0327" />
  <line class="fil0 str0" x1="37.854" y1="12.0399" x2="34.9902" y2= "17.0809" />
  <line class="fil0 str0" x1="43.9554" y1="12.0882" x2="41.0916" y2= "17.1292" />
  <line class="fil0 str0" x1="50.0568" y1="12.1364" x2="47.193" y2= "17.1774" />
  <line class="fil0 str0" x1="56.1582" y1="12.1847" x2="53.2944" y2= "17.2257" />
  <line class="fil0 str0" x1="62.2596" y1="12.2329" x2="59.3957" y2= "17.274" />
  <line class="fil0 str0" x1="68.361" y1="12.2812" x2="65.4971" y2= "17.3222" />
  <line class="fil0 str0" x1="74.4624" y1="12.3295" x2="71.5985" y2= "17.3705" />
  <line class="fil0 str0" x1="80.8694" y1="12.2483" x2="77.6999" y2= "17.4187" />
  <line class="fil0 str0" x1="86.8704" y1="12.2788" x2="83.8013" y2= "17.467" />
  <line class="fil0 str0" x1="6.4666" y1="7.2587" x2="47.3116" y2= "7.2587" />
  <line class="fil0 str0" x1="6.4666" y1="2.5351" x2="47.3116" y2= "2.5351" />
  <g>
   <path class="fil1" d="M6.3784 6.7715l0 -4.2364 0.1764 0 0 4.2364 -0.1764 0zm-0.061 0.3726l0.2984 -0.1935 -0.2984 0.0001 0.9096 -1.4032 0.2984 0.1934 -0.9096 1.4032 -0.2984 0zm0 0l0.2984 0 -0.1491 0.23 -0.1493 -0.23zm-0.7611 -1.4999l0.1491 -0.0968 0.9104 1.4032 -0.2984 0.1935 -0.9103 -1.4032 0.1492 -0.0967z"/>
  </g>
  <g>
   <path class="fil1" d="M11.2761 7.0696l0 -4.2364 0.1764 0 0 4.2364 -0.1764 0zm-0.061 0.3726l0.2984 -0.1935 -0.2984 0.0001 0.9096 -1.4032 0.2984 0.1934 -0.9096 1.4032 -0.2984 0zm0 0l0.2984 0 -0.1491 0.23 -0.1493 -0.23zm-0.7611 -1.4999l0.1491 -0.0968 0.9104 1.4032 -0.2984 0.1935 -0.9103 -1.4032 0.1492 -0.0967z"/>
  </g>
  <g>
   <path class="fil1" d="M16.4114 7.056l0 -4.2364 0.1764 0 0 4.2364 -0.1764 0zm-0.061 0.3726l0.2984 -0.1935 -0.2984 0.0001 0.9096 -1.4032 0.2984 0.1934 -0.9096 1.4032 -0.2984 0zm0 0l0.2984 0 -0.1491 0.23 -0.1493 -0.23zm-0.7611 -1.4999l0.1491 -0.0968 0.9104 1.4032 -0.2984 0.1935 -0.9103 -1.4032 0.1492 -0.0967z"/>
  </g>
  <g>
   <path class="fil1" d="M21.5467 7.0424l0 -4.2364 0.1764 0 0 4.2364 -0.1764 0zm-0.061 0.3726l0.2984 -0.1935 -0.2984 0.0001 0.9096 -1.4032 0.2984 0.1934 -0.9096 1.4032 -0.2984 0zm0 0l0.2984 0 -0.1491 0.23 -0.1493 -0.23zm-0.7611 -1.4999l0.1491 -0.0968 0.9104 1.4032 -0.2984 0.1935 -0.9103 -1.4032 0.1492 -0.0967z"/>
  </g>
  <g>
   <path class="fil1" d="M26.682 7.0288l0 -4.2364 0.1764 0 0 4.2364 -0.1764 0zm-0.061 0.3726l0.2984 -0.1935 -0.2984 0.0001 0.9096 -1.4032 0.2984 0.1934 -0.9096 1.4032 -0.2984 0zm0 0l0.2984 0 -0.1491 0.23 -0.1493 -0.23zm-0.7611 -1.4999l0.1491 -0.0968 0.9104 1.4032 -0.2984 0.1935 -0.9103 -1.4032 0.1492 -0.0967z"/>
  </g>
  <g>
   <path class="fil1" d="M31.8174 7.0152l0 -4.2364 0.1764 0 0 4.2364 -0.1764 0zm-0.061 0.3726l0.2984 -0.1935 -0.2984 0.0001 0.9096 -1.4032 0.2984 0.1934 -0.9096 1.4032 -0.2984 0zm0 0l0.2984 0 -0.1491 0.23 -0.1493 -0.23zm-0.7611 -1.4999l0.1491 -0.0968 0.9104 1.4032 -0.2984 0.1935 -0.9103 -1.4032 0.1492 -0.0967z"/>
  </g>
  <g>
   <path class="fil1" d="M36.9527 7.0016l0 -4.2364 0.1764 0 0 4.2364 -0.1764 0zm-0.061 0.3726l0.2984 -0.1935 -0.2984 0.0001 0.9096 -1.4032 0.2984 0.1934 -0.9096 1.4032 -0.2984 0zm0 0l0.2984 0 -0.1491 0.23 -0.1493 -0.23zm-0.7611 -1.4999l0.1491 -0.0968 0.9104 1.4032 -0.2984 0.1935 -0.9103 -1.4032 0.1492 -0.0967z"/>
  </g>
  <g>
   <path class="fil1" d="M42.088 6.988l0 -4.2364 0.1764 0 0 4.2364 -0.1764 0zm-0.061 0.3726l0.2984 -0.1935 -0.2984 0.0001 0.9096 -1.4032 0.2984 0.1934 -0.9096 1.4032 -0.2984 0zm0 0l0.2984 0 -0.1491 0.23 -0.1493 -0.23zm-0.7611 -1.4999l0.1491 -0.0968 0.9104 1.4032 -0.2984 0.1935 -0.9103 -1.4032 0.1492 -0.0967z"/>
  </g>
  <g>
   <path class="fil1" d="M47.2233 6.9744l0 -4.2364 0.1764 0 0 4.2364 -0.1764 0zm-0.061 0.3726l0.2984 -0.1935 -0.2984 0.0001 0.9096 -1.4032 0.2984 0.1934 -0.9096 1.4032 -0.2984 0zm0 0l0.2984 0 -0.1491 0.23 -0.1493 -0.23zm-0.7611 -1.4999l0.1491 -0.0968 0.9104 1.4032 -0.2984 0.1935 -0.9103 -1.4032 0.1492 -0.0967z"/>
  </g>
  <line class="fil0 str0" x1="47.3526" y1="7.2594" x2="87.0799" y2= "7.2594" />
  <line class="fil0 str0" x1="47.3526" y1="2.5351" x2="87.0799" y2= "2.5351" />
  <g>
   <path class="fil1" d="M47.2644 6.7715l0 -4.2364 0.1764 0 0 4.2364 -0.1764 0zm-0.061 0.3726l0.2984 -0.1935 -0.2984 0.0001 0.9096 -1.4032 0.2984 0.1934 -0.9096 1.4032 -0.2984 0zm0 0l0.2984 0 -0.1491 0.23 -0.1493 -0.23zm-0.7611 -1.4999l0.1491 -0.0968 0.9104 1.4032 -0.2984 0.1935 -0.9103 -1.4032 0.1492 -0.0967z"/>
  </g>
  <g>
   <path class="fil1" d="M52.1621 7.0696l0 -4.2364 0.1764 0 0 4.2364 -0.1764 0zm-0.061 0.3726l0.2984 -0.1935 -0.2984 0.0001 0.9096 -1.4032 0.2984 0.1934 -0.9096 1.4032 -0.2984 0zm0 0l0.2984 0 -0.1491 0.23 -0.1493 -0.23zm-0.7611 -1.4999l0.1491 -0.0968 0.9104 1.4032 -0.2984 0.1935 -0.9103 -1.4032 0.1492 -0.0967z"/>
  </g>
  <g>
   <path class="fil1" d="M57.2974 7.056l0 -4.2364 0.1764 0 0 4.2364 -0.1764 0zm-0.061 0.3726l0.2984 -0.1935 -0.2984 0.0001 0.9096 -1.4032 0.2984 0.1934 -0.9096 1.4032 -0.2984 0zm0 0l0.2984 0 -0.1491 0.23 -0.1493 -0.23zm-0.7611 -1.4999l0.1491 -0.0968 0.9104 1.4032 -0.2984 0.1935 -0.9103 -1.4032 0.1492 -0.0967z"/>
  </g>
  <g>
   <path class="fil1" d="M62.4327 7.0424l0 -4.2364 0.1764 0 0 4.2364 -0.1764 0zm-0.061 0.3726l0.2984 -0.1935 -0.2984 0.0001 0.9096 -1.4032 0.2984 0.1934 -0.9096 1.4032 -0.2984 0zm0 0l0.2984 0 -0.1491 0.23 -0.1493 -0.23zm-0.7611 -1.4999l0.1491 -0.0968 0.9104 1.4032 -0.2984 0.1935 -0.9103 -1.4032 0.1492 -0.0967z"/>
  </g>
  <g>
   <path class="fil1" d="M67.568 7.0288l0 -4.2364 0.1764 0 0 4.2364 -0.1764 0zm-0.061 0.3726l0.2984 -0.1935 -0.2984 0.0001 0.9096 -1.4032 0.2984 0.1934 -0.9096 1.4032 -0.2984 0zm0 0l0.2984 0 -0.1491 0.23 -0.1493 -0.23zm-0.7611 -1.4999l0.1491 -0.0968 0.9104 1.4032 -0.2984 0.1935 -0.9103 -1.4032 0.1492 -0.0967z"/>
  </g>
  <g>
   <path class="fil1" d="M72.7033 7.0152l0 -4.2364 0.1764 0 0 4.2364 -0.1764 0zm-0.061 0.3726l0.2984 -0.1935 -0.2984 0.0001 0.9096 -1.4032 0.2984 0.1934 -0.9096 1.4032 -0.2984 0zm0 0l0.2984 0 -0.1491 0.23 -0.1493 -0.23zm-0.7611 -1.4999l0.1491 -0.0968 0.9104 1.4032 -0.2984 0.1935 -0.9103 -1.4032 0.1492 -0.0967z"/>
  </g>
  <g>
   <path class="fil1" d="M77.8387 7.0016l0 -4.2364 0.1764 0 0 4.2364 -0.1764 0zm-0.061 0.3726l0.2984 -0.1935 -0.2984 0.0001 0.9096 -1.4032 0.2984 0.1934 -0.9096 1.4032 -0.2984 0zm0 0l0.2984 0 -0.1491 0.23 -0.1493 -0.23zm-0.7611 -1.4999l0.1491 -0.0968 0.9104 1.4032 -0.2984 0.1935 -0.9103 -1.4032 0.1492 -0.0967z"/>
  </g>
  <g>
   <path class="fil1" d="M82.974 6.988l0 -4.2364 0.1764 0 0 4.2364 -0.1764 0zm-0.061 0.3726l0.2984 -0.1935 -0.2984 0.0001 0.9096 -1.4032 0.2984 0.1934 -0.9096 1.4032 -0.2984 0zm0 0l0.2984 0 -0.1491 0.23 -0.1493 -0.23zm-0.7611 -1.4999l0.1491 -0.0968 0.9104 1.4032 -0.2984 0.1935 -0.9103 -1.4032 0.1492 -0.0967z"/>
  </g>
  <g>
   <path class="fil1" d="M86.9917 6.8314l0 -4.2364 0.1764 0 0 4.2364 -0.1764 0zm-0.061 0.3726l0.2984 -0.1935 -0.2984 0.0001 0.9096 -1.4032 0.2984 0.1934 -0.9096 1.4032 -0.2984 0zm0 0l0.2984 0 -0.1491 0.23 -0.1493 -0.23zm-0.7611 -1.4999l0.1491 -0.0968 0.9104 1.4032 -0.2984 0.1935 -0.9103 -1.4032 0.1492 -0.0967z"/>
  </g>
  <g>
   <path class="fil1" d="M7.122 13.4856l0 6.074 -0.1764 0 0 -6.074 0.1764 0zm0.061 -0.3726l-0.2984 0.1935 0.2984 -0.0001 -0.9096 1.4032 -0.2984 -0.1934 0.9096 -1.4032 0.2984 0zm0 0l-0.2984 0 0.1491 -0.23 0.1493 0.23zm0.7611 1.4999l-0.1491 0.0968 -0.9104 -1.4032 0.2984 -0.1935 0.9103 1.4032 -0.1492 0.0967z"/>
  </g>
  <g>
   <path class="fil1" d="M87.026 13.7126l0 6.074 -0.1764 0 0 -6.074 0.1764 0zm0.061 -0.3726l-0.2984 0.1935 0.2984 -0.0001 -0.9096 1.4032 -0.2984 -0.1934 0.9096 -1.4032 0.2984 0zm0 0l-0.2984 0 0.1491 -0.23 0.1493 0.23zm0.7611 1.4999l-0.1491 0.0968 -0.9104 -1.4032 0.2984 -0.1935 0.9103 1.4032 -0.1492 0.0967z"/>
  </g>
  <path class="fil1" d="M5.0206 15.4801l-0.2131 2.3311c-0.0113,0.1093 -0.0162,0.1806 -0.0162,0.2152 0,0.055 0.0098,0.0973 0.031,0.1263 0.0261,0.0395 0.0614,0.0691 0.1058,0.0889 0.0452,0.019 0.1207,0.0289 0.2265,0.0289l-0.0226 0.0762 -1.1034 0 0.0225 -0.0762 0.0473 0c0.0896,0 0.163,-0.0198 0.2194,-0.0579 0.0395,-0.0268 0.0706,-0.0698 0.0932,-0.1305 0.0148,-0.043 0.0296,-0.1432 0.043,-0.302l0.0332 -0.3556 -0.8023 0 -0.285 0.3867c-0.0649,0.0868 -0.1051,0.1496 -0.1221,0.187 -0.0162,0.0381 -0.0246,0.0733 -0.0246,0.1065 0,0.0444 0.0176,0.0818 0.0536,0.1136 0.036,0.0317 0.0952,0.0494 0.1778,0.0522l-0.0226 0.0762 -0.829 0 0.0226 -0.0762c0.1023,-0.0042 0.1919,-0.0388 0.2702,-0.1023 0.0776,-0.0642 0.1933,-0.2011 0.3478,-0.4106l1.6743 -2.2775 0.0727 0zm-0.4093 0.6879l-0.8128 1.1056 0.7049 0 0.1079 -1.1056z"/>
  <path class="fil1" d="M89.0215 15.7416l0.029 -0.077 1.0004 0c0.1679,0 0.3175,0.0262 0.4495,0.0791 0.1312,0.0522 0.23,0.1249 0.2956,0.2187 0.0656,0.0938 0.0981,0.1933 0.0981,0.2977 0,0.1616 -0.0586,0.3069 -0.175,0.4375 -0.1164,0.1298 -0.3062,0.2265 -0.5694,0.2878 0.17,0.0635 0.2942,0.1475 0.3746,0.2526 0.0798,0.1044 0.12,0.2195 0.12,0.345 0,0.139 -0.036,0.2724 -0.108,0.3994 -0.0712,0.1263 -0.1636,0.2251 -0.2758,0.2949 -0.1122,0.0706 -0.2477,0.1221 -0.4064,0.1552 -0.1129,0.0233 -0.2893,0.0353 -0.5292,0.0353l-1.0273 0 0.0268 -0.0762c0.108,-0.0028 0.1807,-0.0134 0.2195,-0.031 0.055,-0.024 0.0945,-0.0551 0.1178,-0.0932 0.0332,-0.0522 0.0769,-0.1721 0.1319,-0.3598l0.5024 -1.6969c0.043,-0.1432 0.0642,-0.2441 0.0642,-0.3019 0,-0.0508 -0.0191,-0.091 -0.0565,-0.1207 -0.0381,-0.0296 -0.11,-0.0444 -0.2166,-0.0444 -0.0232,0 -0.0451,-0.0007 -0.0656,-0.0021zm0.4191 1.1634c0.0896,0.0028 0.1545,0.0042 0.1948,0.0042 0.2864,0 0.4995,-0.062 0.6399,-0.1869 0.1397,-0.1249 0.2095,-0.2808 0.2095,-0.4685 0,-0.1418 -0.043,-0.2526 -0.1284,-0.3316 -0.0853,-0.079 -0.2215,-0.1186 -0.4092,-0.1186 -0.0494,0 -0.1129,0.0078 -0.1898,0.0247l-0.3168 1.0767zm-0.4071 1.3808c0.1489,0.0197 0.2653,0.0289 0.3493,0.0289 0.2152,0 0.4057,-0.0649 0.5715,-0.194 0.1665,-0.1299 0.249,-0.3055 0.249,-0.5271 0,-0.1693 -0.0508,-0.302 -0.1538,-0.3972 -0.1023,-0.0953 -0.2681,-0.1425 -0.4967,-0.1425 -0.0444,0 -0.0981,0.0021 -0.1616,0.0063l-0.3577 1.2256z"/>
 </g>
</svg>
