<?xml version="1.0" encoding="UTF-8"?>
<!DOCTYPE svg PUBLIC "-//W3C//DTD SVG 1.1//EN" "http://www.w3.org/Graphics/SVG/1.1/DTD/svg11.dtd">
<!-- Creator: CorelDRAW -->
<svg xmlns="http://www.w3.org/2000/svg" xmlns:xlink="http://www.w3.org/1999/xlink" xml:space="preserve" width="92mm" height="32mm" style="shape-rendering:geometricPrecision; text-rendering:geometricPrecision; image-rendering:optimizeQuality; fill-rule:evenodd; clip-rule:evenodd"
viewBox="0 0 92 32">
 <defs>
  <style type="text/css">
   <![CDATA[
    .str1 {stroke:#1F1A17;stroke-width:0.1764}
    .str0 {stroke:#131516;stroke-width:0.1764}
    .str2 {stroke:#1F1A17;stroke-width:0.3528}
    .fil0 {fill:none}
    .fil2 {fill:#1F1A17;fill-rule:nonzero}
    .fil3 {fill:url(#id0)}
    .fil1 {fill:url(#id1)}
   ]]>
  </style>
  <linearGradient id="id0" gradientUnits="userSpaceOnUse" x1="62.0487" y1="25.0162" x2="74.7726" y2="25.0162">
   <stop offset="0" style="stop-color:white"/>
   <stop offset="1" style="stop-color:white"/>
  </linearGradient>
  <linearGradient id="id1" gradientUnits="userSpaceOnUse" xlink:href="#id0" x1="66.6411" y1="14.2205" x2="67.3618" y2="14.2205">
  </linearGradient>
 </defs>
 <g id="Layer_x0020_1">
  <metadata id="CorelCorpID_0Corel-Layer"/>
  <polygon class="fil0 str0" points="5.921,14.5367 6.5764,15.3527 7.2319,16.1687 5.921,16.1687 4.6101,16.1687 5.2655,15.3527 "/>
  <g id="_155631016">
   <line id="_156063464" class="fil0 str0" x1="7.6914" y1="16.1729" x2="4.4274" y2= "16.1729" />
   <g>
    <line id="_156203816" class="fil0 str0" x1="7.377" y1="16.2178" x2="7.6614" y2= "16.8616" />
    <line id="_143617824" class="fil0 str0" x1="6.7944" y1="16.2178" x2="7.0789" y2= "16.8616" />
    <line id="_155714224" class="fil0 str0" x1="6.2118" y1="16.2178" x2="6.4963" y2= "16.8616" />
    <line id="_156062112" class="fil0 str0" x1="5.6292" y1="16.2178" x2="5.9137" y2= "16.8616" />
    <line id="_156098568" class="fil0 str0" x1="5.0466" y1="16.2178" x2="5.3311" y2= "16.8616" />
    <line id="_155263792" class="fil0 str0" x1="4.464" y1="16.2178" x2="4.7485" y2= "16.8616" />
   </g>
  </g>
  <polygon class="fil0 str0" points="67.0014,14.6052 67.6569,15.4212 68.3124,16.2372 67.0014,16.2372 65.6905,16.2372 66.346,15.4212 "/>
  <g id="_156062688">
   <line id="_156064584" class="fil0 str0" x1="68.7718" y1="16.2413" x2="65.5078" y2= "16.2413" />
   <g>
    <line id="_155841816" class="fil0 str0" x1="68.4574" y1="16.2863" x2="68.7419" y2= "16.9301" />
    <line id="_155526840" class="fil0 str0" x1="67.8748" y1="16.2863" x2="68.1593" y2= "16.9301" />
    <line id="_155169984" class="fil0 str0" x1="67.2922" y1="16.2863" x2="67.5767" y2= "16.9301" />
    <line id="_155266816" class="fil0 str0" x1="66.7096" y1="16.2863" x2="66.9941" y2= "16.9301" />
    <line id="_155840192" class="fil0 str0" x1="66.1271" y1="16.2863" x2="66.4115" y2= "16.9301" />
    <line id="_156540864" class="fil0 str0" x1="65.5445" y1="16.2863" x2="65.829" y2= "16.9301" />
   </g>
  </g>
  <circle class="fil1 str0" cx="67.0014" cy="14.2205" r="0.360343"/>
  <circle class="fil1 str0" cx="5.92099" cy="14.1521" r="0.360343"/>
  <line class="fil0 str1" x1="6.2812" y1="11.2361" x2="48.0335" y2= "11.2361" />
  <line class="fil0 str1" x1="6.2812" y1="8.6961" x2="48.0335" y2= "8.6961" />
  <g>
   <path class="fil2" d="M6.193 10.7489l0 -2.0528 0.1764 0 0 2.0528 -0.1764 0zm-0.061 0.3726l0.2984 -0.1935 -0.2984 0.0001 0.9096 -1.4032 0.2984 0.1934 -0.9096 1.4032 -0.2984 0zm0 0l0.2984 0 -0.1491 0.23 -0.1493 -0.23zm-0.7611 -1.4999l0.1491 -0.0968 0.9104 1.4032 -0.2984 0.1935 -0.9103 -1.4032 0.1492 -0.0967z"/>
  </g>
  <g>
   <path class="fil2" d="M11.1995 10.9092l0 -2.0528 0.1764 0 0 2.0528 -0.1764 0zm-0.061 0.3726l0.2984 -0.1935 -0.2984 0.0001 0.9096 -1.4032 0.2984 0.1934 -0.9096 1.4032 -0.2984 0zm0 0l0.2984 0 -0.1491 0.23 -0.1493 -0.23zm-0.7611 -1.4999l0.1491 -0.0968 0.9104 1.4032 -0.2984 0.1935 -0.9103 -1.4032 0.1492 -0.0967z"/>
  </g>
  <g>
   <path class="fil2" d="M16.4489 10.9019l0 -2.0528 0.1764 0 0 2.0528 -0.1764 0zm-0.061 0.3726l0.2984 -0.1935 -0.2984 0.0001 0.9096 -1.4032 0.2984 0.1934 -0.9096 1.4032 -0.2984 0zm0 0l0.2984 0 -0.1491 0.23 -0.1493 -0.23zm-0.7611 -1.4999l0.1491 -0.0968 0.9104 1.4032 -0.2984 0.1935 -0.9103 -1.4032 0.1492 -0.0967z"/>
  </g>
  <g>
   <path class="fil2" d="M21.6983 10.8946l0 -2.0529 0.1764 0 0 2.0529 -0.1764 0zm-0.061 0.3726l0.2984 -0.1935 -0.2984 0.0001 0.9096 -1.4032 0.2984 0.1934 -0.9096 1.4032 -0.2984 0zm0 0l0.2984 0 -0.1491 0.23 -0.1493 -0.23zm-0.7611 -1.4999l0.1491 -0.0968 0.9104 1.4032 -0.2984 0.1935 -0.9103 -1.4032 0.1492 -0.0967z"/>
  </g>
  <g>
   <path class="fil2" d="M26.9477 10.8873l0 -2.0529 0.1764 0 0 2.0529 -0.1764 0zm-0.061 0.3726l0.2984 -0.1935 -0.2984 0.0001 0.9096 -1.4032 0.2984 0.1934 -0.9096 1.4032 -0.2984 0zm0 0l0.2984 0 -0.1491 0.23 -0.1493 -0.23zm-0.7611 -1.4999l0.1491 -0.0968 0.9104 1.4032 -0.2984 0.1935 -0.9103 -1.4032 0.1492 -0.0967z"/>
  </g>
  <g>
   <path class="fil2" d="M32.1971 10.88l0 -2.0529 0.1764 0 0 2.0529 -0.1764 0zm-0.061 0.3726l0.2984 -0.1935 -0.2984 0.0001 0.9096 -1.4032 0.2984 0.1934 -0.9096 1.4032 -0.2984 0zm0 0l0.2984 0 -0.1491 0.23 -0.1493 -0.23zm-0.7611 -1.4999l0.1491 -0.0968 0.9104 1.4032 -0.2984 0.1935 -0.9103 -1.4032 0.1492 -0.0967z"/>
  </g>
  <g>
   <path class="fil2" d="M37.4464 10.8727l0 -2.0529 0.1764 0 0 2.0529 -0.1764 0zm-0.061 0.3726l0.2984 -0.1935 -0.2984 0.0001 0.9096 -1.4032 0.2984 0.1934 -0.9096 1.4032 -0.2984 0zm0 0l0.2984 0 -0.1491 0.23 -0.1493 -0.23zm-0.7611 -1.4999l0.1491 -0.0968 0.9104 1.4032 -0.2984 0.1935 -0.9103 -1.4032 0.1492 -0.0967z"/>
  </g>
  <g>
   <path class="fil2" d="M42.6958 10.8654l0 -2.0529 0.1764 0 0 2.0529 -0.1764 0zm-0.061 0.3726l0.2984 -0.1935 -0.2984 0.0001 0.9096 -1.4032 0.2984 0.1934 -0.9096 1.4032 -0.2984 0zm0 0l0.2984 0 -0.1491 0.23 -0.1493 -0.23zm-0.7611 -1.4999l0.1491 -0.0968 0.9104 1.4032 -0.2984 0.1935 -0.9103 -1.4032 0.1492 -0.0967z"/>
  </g>
  <g>
   <path class="fil2" d="M47.9452 10.858l0 -2.0528 0.1764 0 0 2.0528 -0.1764 0zm-0.061 0.3726l0.2984 -0.1935 -0.2984 0.0001 0.9096 -1.4032 0.2984 0.1934 -0.9096 1.4032 -0.2984 0zm0 0l0.2984 0 -0.1491 0.23 -0.1493 -0.23zm-0.7611 -1.4999l0.1491 -0.0968 0.9104 1.4032 -0.2984 0.1935 -0.9103 -1.4032 0.1492 -0.0967z"/>
  </g>
  <line class="fil0 str2" x1="6.2813" y1="13.7761" x2="89.8152" y2= "13.7761" />
  <path class="fil2" d="M50.7301 4.4106l-0.1426 0.4748c0.1503,-0.1764 0.2844,-0.2991 0.4022,-0.3697 0.1178,-0.0705 0.2378,-0.1051 0.3605,-0.1051 0.1228,0 0.2272,0.048 0.314,0.1453 0.0868,0.0974 0.1305,0.2237 0.1305,0.3796 0,0.3027 -0.1234,0.611 -0.3697,0.925 -0.2469,0.3133 -0.5341,0.4699 -0.8622,0.4699 -0.0691,0 -0.1298,-0.0071 -0.1827,-0.0226 -0.0536,-0.0148 -0.1129,-0.0416 -0.1792,-0.0804l-0.151 0.5334c-0.0303,0.1044 -0.0451,0.1728 -0.0451,0.2046 0,0.0303 0.0077,0.0557 0.0239,0.0776 0.0156,0.0212 0.0417,0.0374 0.077,0.0494 0.0359,0.012 0.1072,0.0176 0.213,0.0176l-0.0183 0.0762 -0.9737 0 0.0205 -0.0762c0.1284,-0.0056 0.2145,-0.0275 0.2596,-0.0663 0.0445,-0.0388 0.0918,-0.1453 0.1418,-0.3203l0.5229 -1.8105c0.0317,-0.115 0.0472,-0.1855 0.0472,-0.213 0,-0.0374 -0.0106,-0.0664 -0.0317,-0.0868 -0.0219,-0.0212 -0.0543,-0.0311 -0.0981,-0.0311 -0.0402,0 -0.0959,0.005 -0.1679,0.0141l0 -0.0804 0.7091 -0.1051zm-0.4812 1.6531c0.0854,0.1023 0.2004,0.1531 0.345,0.1531 0.0713,0 0.1446,-0.0198 0.2187,-0.06 0.0748,-0.0395 0.1475,-0.0988 0.218,-0.1778 0.0713,-0.0783 0.1348,-0.1686 0.1912,-0.2716 0.0565,-0.1023 0.1073,-0.2237 0.1524,-0.3627 0.0445,-0.139 0.0671,-0.2772 0.0671,-0.4134 0,-0.1101 -0.0254,-0.1947 -0.0755,-0.2533 -0.0501,-0.0586 -0.1094,-0.0875 -0.1764,-0.0875 -0.1489,0 -0.2964,0.0854 -0.4417,0.2561 -0.1453,0.1708 -0.2519,0.3704 -0.3196,0.599l-0.1792 0.6181z"/>
  <path class="fil2" d="M52.2301 6.7819c-0.0578,-0.0282 -0.1023,-0.0677 -0.1333,-0.1185 -0.0311,-0.0508 -0.0466,-0.1065 -0.0466,-0.1679 0,-0.0939 0.0353,-0.1743 0.1058,-0.242 0.0706,-0.067 0.1609,-0.1009 0.271,-0.1009 0.0903,0 0.1686,0.0219 0.2349,0.0656l0.2004 0c0.0296,0 0.0473,0.0014 0.0515,0.0028 0.0049,0.0014 0.0085,0.005 0.0106,0.0092 0.0042,0.0056 0.0063,0.0169 0.0063,0.0325 0,0.0183 -0.0021,0.0303 -0.0056,0.0373 -0.0014,0.0036 -0.0057,0.0064 -0.0106,0.0085 -0.0049,0.0021 -0.0226,0.0028 -0.0522,0.0028l-0.1228 0c0.0388,0.0501 0.0579,0.1129 0.0579,0.1905 0,0.0882 -0.0339,0.1637 -0.1016,0.2265 -0.0671,0.0621 -0.1581,0.0939 -0.2717,0.0939 -0.0465,0 -0.0945,-0.0071 -0.1439,-0.0205 -0.0303,0.0261 -0.0508,0.0487 -0.0614,0.0684 -0.0106,0.0198 -0.0155,0.036 -0.0155,0.0501 0,0.012 0.0056,0.0233 0.0169,0.0339 0.0113,0.0113 0.0332,0.019 0.0664,0.024 0.0197,0.0028 0.0677,0.0049 0.1446,0.007 0.1418,0.0036 0.2342,0.0085 0.2759,0.0149 0.0642,0.0091 0.1157,0.0324 0.1538,0.0712 0.0381,0.0388 0.0571,0.0861 0.0571,0.1425 0,0.0776 -0.0367,0.151 -0.1093,0.2195 -0.1073,0.1002 -0.2477,0.1502 -0.4205,0.1502 -0.1334,0 -0.2456,-0.0296 -0.3373,-0.0896 -0.0515,-0.0345 -0.0776,-0.0705 -0.0776,-0.1072 0,-0.0169 0.0042,-0.0332 0.0113,-0.0501 0.012,-0.0254 0.036,-0.0607 0.0727,-0.1065 0.0049,-0.0057 0.0402,-0.0431 0.1051,-0.1115 -0.0353,-0.0212 -0.0607,-0.0402 -0.0755,-0.0572 -0.0148,-0.0169 -0.0226,-0.0359 -0.0226,-0.0571 0,-0.0247 0.0099,-0.0529 0.0296,-0.0847 0.0198,-0.0324 0.065,-0.0783 0.1362,-0.1376zm0.1799 -0.5799c-0.0515,0 -0.0938,0.0204 -0.1284,0.0607 -0.0346,0.0409 -0.0515,0.103 -0.0515,0.1876 0,0.1087 0.0233,0.1926 0.0699,0.2526 0.0359,0.0459 0.0811,0.0685 0.1368,0.0685 0.0523,0 0.0953,-0.0198 0.1292,-0.0586 0.0338,-0.0395 0.0501,-0.1009 0.0501,-0.1856 0,-0.1093 -0.0233,-0.1947 -0.0713,-0.2568 -0.0346,-0.0458 -0.0797,-0.0684 -0.1348,-0.0684zm-0.1905 0.925c-0.0324,0.0352 -0.0571,0.0677 -0.0733,0.098 -0.0163,0.0304 -0.0247,0.0586 -0.0247,0.084 0,0.0331 0.0197,0.0621 0.0599,0.0868 0.0685,0.0423 0.1687,0.0642 0.2985,0.0642 0.1242,0 0.2159,-0.0219 0.2744,-0.0656 0.0593,-0.0438 0.0882,-0.0911 0.0882,-0.1404 0,-0.036 -0.0176,-0.0614 -0.0522,-0.0762 -0.036,-0.0156 -0.1072,-0.024 -0.2131,-0.0269 -0.1552,-0.0042 -0.2744,-0.012 -0.3577,-0.0239z"/>
  <path class="fil2" d="M53.1939 6.5371c-0.0007,0.1404 0.0338,0.2505 0.1023,0.3302 0.0691,0.0804 0.1503,0.12 0.2434,0.12 0.0614,0 0.1157,-0.017 0.1616,-0.0508 0.0458,-0.0346 0.0839,-0.0925 0.115,-0.1757l0.0324 0.0211c-0.0148,0.0946 -0.0564,0.18 -0.1263,0.2576 -0.0698,0.0776 -0.1566,0.1164 -0.2617,0.1164 -0.1136,0 -0.211,-0.0445 -0.2921,-0.1327 -0.0805,-0.0889 -0.1214,-0.2074 -0.1214,-0.357 0,-0.1622 0.0416,-0.2885 0.1249,-0.3789 0.0833,-0.091 0.187,-0.1361 0.3126,-0.1361 0.1058,0 0.1933,0.0353 0.2617,0.1051 0.0677,0.0699 0.1023,0.1637 0.1023,0.2808l-0.6547 0zm0 -0.06l0.4381 0c-0.0028,-0.0606 -0.0106,-0.1037 -0.0211,-0.1284 -0.0177,-0.0388 -0.0431,-0.0691 -0.077,-0.091 -0.0345,-0.0219 -0.0698,-0.0331 -0.1072,-0.0331 -0.0571,0 -0.1087,0.0225 -0.1538,0.067 -0.0452,0.0444 -0.0713,0.1058 -0.079,0.1855z"/>
  <path class="fil2" d="M54.2515 6.1526l0 0.2124c0.0797,-0.1419 0.1609,-0.2124 0.2441,-0.2124 0.0381,0 0.0692,0.0113 0.0939,0.0346 0.0247,0.0225 0.0373,0.0494 0.0373,0.0797 0,0.0268 -0.0091,0.0501 -0.0268,0.0684 -0.0176,0.0184 -0.0395,0.0275 -0.0642,0.0275 -0.024,0 -0.0508,-0.0112 -0.0811,-0.0352 -0.0296,-0.024 -0.0522,-0.036 -0.0663,-0.036 -0.0127,0 -0.0261,0.007 -0.0402,0.0211 -0.0311,0.0283 -0.0635,0.0748 -0.0967,0.139l0 0.4544c0,0.0522 0.0071,0.0917 0.0198,0.1185 0.0091,0.0184 0.0246,0.0339 0.0479,0.0466 0.0226,0.012 0.0551,0.0184 0.0981,0.0184l0 0.0374 -0.4847 0 0 -0.0374c0.048,0 0.0839,-0.0071 0.1072,-0.0226 0.017,-0.0113 0.0297,-0.0282 0.036,-0.0529 0.0035,-0.0113 0.0057,-0.0452 0.0057,-0.1002l0 -0.3669c0,-0.1101 -0.0029,-0.1757 -0.0071,-0.1969 -0.0042,-0.0211 -0.0127,-0.0359 -0.0247,-0.0458 -0.012,-0.0099 -0.0268,-0.0148 -0.0451,-0.0148 -0.0212,0 -0.0452,0.0056 -0.072,0.0155l-0.0106 -0.0367 0.2865 -0.1157 0.043 0z"/>
  <path class="fil2" d="M3.4735 15.6636l-0.2088 0.9073 -0.0748 0 -0.0078 -0.2279c-0.007,-0.0826 -0.0232,-0.1559 -0.0479,-0.2208 -0.0247,-0.065 -0.0621,-0.1207 -0.1115,-0.1687 -0.0494,-0.0472 -0.1122,-0.0846 -0.1884,-0.1114 -0.0755,-0.0269 -0.1595,-0.0403 -0.2519,-0.0403 -0.2469,0 -0.4621,0.0678 -0.647,0.2025 -0.2356,0.1722 -0.4205,0.4156 -0.5538,0.7296 -0.1101,0.2589 -0.1658,0.5214 -0.1658,0.7874 0,0.2716 0.0797,0.4882 0.2377,0.6505 0.1588,0.1616 0.3648,0.2427 0.6181,0.2427 0.1919,0 0.3627,-0.043 0.5115,-0.1284 0.1496,-0.0854 0.2886,-0.2166 0.417,-0.3944l0.0967 0c-0.151,0.2413 -0.3196,0.4184 -0.5038,0.532 -0.1848,0.1136 -0.4064,0.1707 -0.6639,0.1707 -0.2286,0 -0.4311,-0.048 -0.6075,-0.1439 -0.1764,-0.096 -0.3111,-0.23 -0.4029,-0.4043 -0.0924,-0.1736 -0.139,-0.3598 -0.139,-0.5602 0,-0.3055 0.0826,-0.6033 0.2463,-0.8925 0.1637,-0.2893 0.3887,-0.5172 0.6745,-0.6823 0.2864,-0.1651 0.5743,-0.2476 0.8657,-0.2476 0.1362,0 0.2893,0.0317 0.4586,0.0966 0.0741,0.0275 0.1284,0.0416 0.1609,0.0416 0.0331,0 0.0621,-0.007 0.0875,-0.0204 0.0247,-0.0141 0.0656,-0.0536 0.1234,-0.1178l0.0769 0z"/>
  <path class="fil2" d="M70.46 15.7518l0.0247 -0.077 0.8953 0c0.3789,0 0.6597,0.0438 0.8417,0.1306 0.1828,0.0868 0.3288,0.2236 0.4375,0.4099 0.1086,0.187 0.1637,0.3873 0.1637,0.6011 0,0.1828 -0.0318,0.3613 -0.0946,0.5341 -0.0628,0.1729 -0.1333,0.3112 -0.2131,0.4156 -0.079,0.1037 -0.2003,0.2187 -0.3647,0.3443 -0.1637,0.1249 -0.3415,0.218 -0.5327,0.278 -0.1919,0.06 -0.4311,0.0896 -0.7176,0.0896l-1.1867 0 0.0268 -0.0762c0.1094,-0.0028 0.182,-0.0127 0.2194,-0.0289 0.0551,-0.024 0.096,-0.0558 0.1221,-0.0953 0.0395,-0.0578 0.0847,-0.1742 0.1341,-0.3492l0.496 -1.6955c0.0388,-0.1333 0.0578,-0.2384 0.0578,-0.3139 0,-0.0537 -0.0176,-0.0953 -0.0536,-0.1242 -0.036,-0.0289 -0.1058,-0.043 -0.211,-0.043l-0.0451 0zm0.7338 0.0783l-0.6075 2.0983c-0.0459,0.1566 -0.0685,0.254 -0.0685,0.2914 0,0.0218 0.0071,0.043 0.0219,0.0642 0.0141,0.0204 0.0339,0.0338 0.0586,0.0409 0.0359,0.0127 0.0938,0.019 0.1735,0.019 0.2166,0 0.4177,-0.0225 0.6026,-0.0677 0.1855,-0.0444 0.3372,-0.1108 0.4558,-0.199 0.1686,-0.1284 0.3026,-0.3048 0.4035,-0.5291 0.1002,-0.2251 0.1503,-0.4805 0.1503,-0.7669 0,-0.3239 -0.0769,-0.5652 -0.2314,-0.7225 -0.1538,-0.1581 -0.3796,-0.2371 -0.6759,-0.2371 -0.0727,0 -0.1672,0.0028 -0.2829,0.0085z"/>
  <g>
   <path class="fil2" d="M6.897 28.7486l-0.0001 -0.2984 1.4028 -0.9103 0.1936 0.2983 -1.4028 0.9103 -0.0001 -0.2983 -0.1934 0.2984zm0 0l-0.23 -0.1491 0.2299 -0.1493 0.0001 0.2984zm1.5004 0.7604l-0.0967 0.1492 -1.4037 -0.9096 0.1934 -0.2984 1.4037 0.9096 -0.0967 0.1492zm58.3819 -0.852l-59.5097 0.0302 0 -0.1758 59.5097 -0.0302 0 0.1758zm0.3727 0.0611l-0.1937 -0.2982 0.0002 0.2983 -1.4036 -0.9089 0.1933 -0.2984 1.4036 0.9089 0.0002 0.2983zm0 0l-0.0002 -0.2983 0.2301 0.149 -0.2299 0.1493zm-1.4996 0.762l-0.0968 -0.1492 1.4027 -0.911 0.1937 0.2982 -1.4027 0.9111 -0.0969 -0.1491z"/>
  </g>
  <line class="fil0 str1" x1="6.7825" y1="26.9235" x2="6.7825" y2= "30.8178" />
  <g>
   <path class="fil2" d="M67.3811 28.7638l-0.0004 -0.2983 1.402 -0.9116 0.1938 0.2981 -1.402 0.9116 -0.0003 -0.2984 -0.1931 0.2986zm0 0l-0.2302 -0.1489 0.2298 -0.1494 0.0004 0.2983zm1.501 0.7591l-0.0966 0.1493 -1.4044 -0.9084 0.1931 -0.2986 1.4044 0.9085 -0.0965 0.1492zm20.4461 -0.8502l-21.5747 0.0294 0 -0.1758 21.5747 -0.0294 0 0.1758zm0.3728 0.0608l-0.1939 -0.298 0.0005 0.2983 -1.4045 -0.9077 0.1931 -0.2987 1.4044 0.9078 0.0004 0.2983zm0 0l-0.0004 -0.2983 0.2302 0.1488 -0.2298 0.1495zm-1.4989 0.7632l-0.097 -0.149 1.402 -0.9122 0.1939 0.298 -1.4019 0.9123 -0.097 -0.1491z"/>
  </g>
  <line class="fil0 str1" x1="67.2664" y1="26.9388" x2="67.2664" y2= "30.8331" />
  <line class="fil0 str1" x1="89.8153" y1="26.637" x2="89.8153" y2= "30.5313" />
  <path class="fil2" d="M79.7248 22.5166l-0.707 2.4595c-0.0345,0.1228 -0.0515,0.1983 -0.0515,0.2258 0,0.0205 0.0064,0.0374 0.0198,0.0515 0.0127,0.0134 0.0289,0.0205 0.0487,0.0205 0.0261,0 0.0543,-0.0113 0.0846,-0.0353 0.0713,-0.0565 0.1468,-0.1439 0.2251,-0.2625l0.0621 0.0642c-0.1312,0.1849 -0.2512,0.3133 -0.3619,0.3867 -0.0812,0.0522 -0.1581,0.0783 -0.2315,0.0783 -0.0522,0 -0.0959,-0.0177 -0.1312,-0.0536 -0.0353,-0.036 -0.0529,-0.0769 -0.0529,-0.1242 0,-0.0494 0.0226,-0.151 0.0663,-0.3055l0.5602 -1.9389c0.0459,-0.1587 0.0684,-0.2497 0.0684,-0.273 0,-0.0332 -0.0134,-0.06 -0.0395,-0.0819 -0.0261,-0.0211 -0.067,-0.0317 -0.122,-0.0317 -0.0318,0 -0.0797,0.0049 -0.1447,0.0141l0 -0.0762 0.707 -0.1178z"/>
  <path class="fil2" d="M79.8907 25.0375l0.3407 -0.1658 0.0339 0 0 1.1832c0,0.0783 0.0035,0.1277 0.0099,0.1468 0.007,0.019 0.0204,0.0338 0.0409,0.0444 0.0205,0.0106 0.0628,0.0162 0.1263,0.0177l0 0.0381 -0.5271 0 0 -0.0381c0.0657,-0.0015 0.1087,-0.0071 0.1278,-0.017 0.0197,-0.0106 0.0331,-0.024 0.0402,-0.0409 0.0077,-0.0162 0.012,-0.067 0.012,-0.151l0 -0.7563c0,-0.1023 -0.0036,-0.168 -0.0106,-0.1969 -0.005,-0.0219 -0.0134,-0.0381 -0.0261,-0.0487 -0.0127,-0.0098 -0.0282,-0.0155 -0.0466,-0.0155 -0.0254,0 -0.0607,0.0113 -0.1058,0.0325l-0.0155 -0.0325z"/>
  <line class="fil0 str1" x1="68.5649" y1="24.957" x2="70.0858" y2= "24.0713" />
  <rect class="fil3" x="62.0487" y="23.4449" width="12.7239" height="3.1427"/>
  <path class="fil2" d="M32.4344 23.2414l-0.707 2.4595c-0.0345,0.1228 -0.0515,0.1983 -0.0515,0.2258 0,0.0205 0.0064,0.0374 0.0198,0.0515 0.0127,0.0134 0.0289,0.0205 0.0487,0.0205 0.0261,0 0.0543,-0.0113 0.0846,-0.0353 0.0713,-0.0565 0.1468,-0.1439 0.2251,-0.2625l0.0621 0.0642c-0.1312,0.1849 -0.2512,0.3133 -0.3619,0.3867 -0.0812,0.0522 -0.1581,0.0783 -0.2315,0.0783 -0.0522,0 -0.0959,-0.0177 -0.1312,-0.0536 -0.0353,-0.036 -0.0529,-0.0769 -0.0529,-0.1242 0,-0.0494 0.0226,-0.151 0.0663,-0.3055l0.5602 -1.9389c0.0459,-0.1587 0.0684,-0.2497 0.0684,-0.273 0,-0.0332 -0.0134,-0.06 -0.0395,-0.0819 -0.0261,-0.0211 -0.067,-0.0317 -0.122,-0.0317 -0.0318,0 -0.0797,0.0049 -0.1447,0.0141l0 -0.0762 0.707 -0.1178z"/>
  <path class="fil2" d="M33.322 26.7571l-0.098 0.2696 -0.8269 0 0 -0.0381c0.2434,-0.2223 0.4148,-0.4029 0.5136,-0.544 0.0995,-0.1404 0.1489,-0.2688 0.1489,-0.3853 0,-0.0889 -0.0268,-0.1622 -0.0812,-0.2194 -0.0543,-0.0571 -0.1199,-0.0854 -0.1954,-0.0854 -0.0692,0 -0.1305,0.0198 -0.1856,0.06 -0.055,0.0409 -0.0952,0.0995 -0.1213,0.1778l-0.0381 0c0.0169,-0.1277 0.0614,-0.2258 0.1326,-0.2935 0.0713,-0.0684 0.1602,-0.1023 0.2667,-0.1023 0.1143,0 0.2089,0.036 0.2851,0.1094 0.0762,0.0726 0.1143,0.1594 0.1143,0.2582 0,0.0713 -0.017,0.1418 -0.0494,0.2131 -0.0515,0.1114 -0.1341,0.23 -0.2484,0.3542 -0.1714,0.1876 -0.2787,0.3005 -0.3217,0.3393l0.3662 0c0.0741,0 0.1263,-0.0028 0.1566,-0.0084 0.0296,-0.0057 0.0571,-0.017 0.0811,-0.0339 0.024,-0.0162 0.0452,-0.0402 0.0628,-0.0713l0.0381 0z"/>
  <line class="fil0 str1" x1="48.0755" y1="11.2361" x2="89.8278" y2= "11.2361" />
  <line class="fil0 str1" x1="48.0755" y1="8.6961" x2="89.8278" y2= "8.6961" />
  <g>
   <path class="fil2" d="M47.9873 10.7489l0 -2.0528 0.1764 0 0 2.0528 -0.1764 0zm-0.061 0.3726l0.2984 -0.1935 -0.2984 0.0001 0.9096 -1.4032 0.2984 0.1934 -0.9096 1.4032 -0.2984 0zm0 0l0.2984 0 -0.1491 0.23 -0.1493 -0.23zm-0.7611 -1.4999l0.1491 -0.0968 0.9104 1.4032 -0.2984 0.1935 -0.9103 -1.4032 0.1492 -0.0967z"/>
  </g>
  <g>
   <path class="fil2" d="M52.9937 10.9092l0 -2.0528 0.1764 0 0 2.0528 -0.1764 0zm-0.061 0.3726l0.2984 -0.1935 -0.2984 0.0001 0.9096 -1.4032 0.2984 0.1934 -0.9096 1.4032 -0.2984 0zm0 0l0.2984 0 -0.1491 0.23 -0.1493 -0.23zm-0.7611 -1.4999l0.1491 -0.0968 0.9104 1.4032 -0.2984 0.1935 -0.9103 -1.4032 0.1492 -0.0967z"/>
  </g>
  <g>
   <path class="fil2" d="M58.2431 10.9019l0 -2.0528 0.1764 0 0 2.0528 -0.1764 0zm-0.061 0.3726l0.2984 -0.1935 -0.2984 0.0001 0.9096 -1.4032 0.2984 0.1934 -0.9096 1.4032 -0.2984 0zm0 0l0.2984 0 -0.1491 0.23 -0.1493 -0.23zm-0.7611 -1.4999l0.1491 -0.0968 0.9104 1.4032 -0.2984 0.1935 -0.9103 -1.4032 0.1492 -0.0967z"/>
  </g>
  <g>
   <path class="fil2" d="M63.4925 10.8946l0 -2.0529 0.1764 0 0 2.0529 -0.1764 0zm-0.061 0.3726l0.2984 -0.1935 -0.2984 0.0001 0.9096 -1.4032 0.2984 0.1934 -0.9096 1.4032 -0.2984 0zm0 0l0.2984 0 -0.1491 0.23 -0.1493 -0.23zm-0.7611 -1.4999l0.1491 -0.0968 0.9104 1.4032 -0.2984 0.1935 -0.9103 -1.4032 0.1492 -0.0967z"/>
  </g>
  <g>
   <path class="fil2" d="M68.7419 10.8873l0 -2.0529 0.1764 0 0 2.0529 -0.1764 0zm-0.061 0.3726l0.2984 -0.1935 -0.2984 0.0001 0.9096 -1.4032 0.2984 0.1934 -0.9096 1.4032 -0.2984 0zm0 0l0.2984 0 -0.1491 0.23 -0.1493 -0.23zm-0.7611 -1.4999l0.1491 -0.0968 0.9104 1.4032 -0.2984 0.1935 -0.9103 -1.4032 0.1492 -0.0967z"/>
  </g>
  <g>
   <path class="fil2" d="M73.9913 10.88l0 -2.0529 0.1764 0 0 2.0529 -0.1764 0zm-0.061 0.3726l0.2984 -0.1935 -0.2984 0.0001 0.9096 -1.4032 0.2984 0.1934 -0.9096 1.4032 -0.2984 0zm0 0l0.2984 0 -0.1491 0.23 -0.1493 -0.23zm-0.7611 -1.4999l0.1491 -0.0968 0.9104 1.4032 -0.2984 0.1935 -0.9103 -1.4032 0.1492 -0.0967z"/>
  </g>
  <g>
   <path class="fil2" d="M79.2407 10.8727l0 -2.0529 0.1764 0 0 2.0529 -0.1764 0zm-0.061 0.3726l0.2984 -0.1935 -0.2984 0.0001 0.9096 -1.4032 0.2984 0.1934 -0.9096 1.4032 -0.2984 0zm0 0l0.2984 0 -0.1491 0.23 -0.1493 -0.23zm-0.7611 -1.4999l0.1491 -0.0968 0.9104 1.4032 -0.2984 0.1935 -0.9103 -1.4032 0.1492 -0.0967z"/>
  </g>
  <g>
   <path class="fil2" d="M84.49 10.8654l0 -2.0529 0.1764 0 0 2.0529 -0.1764 0zm-0.061 0.3726l0.2984 -0.1935 -0.2984 0.0001 0.9096 -1.4032 0.2984 0.1934 -0.9096 1.4032 -0.2984 0zm0 0l0.2984 0 -0.1491 0.23 -0.1493 -0.23zm-0.7611 -1.4999l0.1491 -0.0968 0.9104 1.4032 -0.2984 0.1935 -0.9103 -1.4032 0.1492 -0.0967z"/>
  </g>
  <g>
   <path class="fil2" d="M89.6512 10.8581l0 -7.9649 0.3528 0 0 7.9649 -0.3528 0zm0.0272 0.3726l0.2984 -0.1935 -0.2984 0.0001 0.9096 -1.4032 0.2984 0.1934 -0.9096 1.4032 -0.2984 0zm0 0l0.2984 0 -0.1491 0.23 -0.1493 -0.23zm-0.7611 -1.4999l0.1491 -0.0968 0.9104 1.4032 -0.2984 0.1935 -0.9103 -1.4032 0.1492 -0.0967z"/>
  </g>
  <path class="fil2" d="M84.0767 1.0321l1.1035 0c0.2893,0 0.5059,0.0628 0.6491,0.187 0.1432,0.1249 0.2152,0.2773 0.2152,0.4558 0,0.1425 -0.0459,0.2801 -0.1369,0.4135 -0.091,0.134 -0.2258,0.2427 -0.405,0.3259 -0.1792,0.0833 -0.3725,0.1249 -0.5806,0.1249 -0.1299,0 -0.2943,-0.0233 -0.4939,-0.0706l-0.2237 0.7649c-0.0522,0.182 -0.0783,0.3019 -0.0783,0.3598 0,0.0444 0.0183,0.0804 0.0557,0.1094 0.0374,0.0296 0.1263,0.0479 0.2667,0.0564l-0.0204 0.0762 -1.1148 0 0.0233 -0.0762c0.146,0 0.2476,-0.0254 0.3048,-0.0755 0.0571,-0.0508 0.1185,-0.1891 0.1848,-0.417l0.4629 -1.5952c0.055,-0.1919 0.0825,-0.3203 0.0825,-0.3845 0,-0.0487 -0.019,-0.0882 -0.0585,-0.12 -0.0395,-0.0317 -0.1256,-0.0508 -0.2597,-0.0578l0.0233 -0.077zm0.3859 1.3067c0.156,0.0402 0.2816,0.06 0.3768,0.06 0.1496,0 0.2865,-0.031 0.4099,-0.0931 0.1235,-0.0621 0.2202,-0.1553 0.2893,-0.2787 0.0699,-0.1242 0.1044,-0.2533 0.1044,-0.3867 0,-0.1397 -0.0423,-0.2497 -0.1277,-0.3309 -0.0861,-0.0811 -0.2152,-0.122 -0.3887,-0.122 -0.0939,0 -0.2075,0.012 -0.3415,0.0352l-0.3225 1.1162z"/>
  <path class="fil2" d="M86.3203 4.3362c-0.0578,-0.0282 -0.1023,-0.0677 -0.1333,-0.1185 -0.0311,-0.0508 -0.0466,-0.1065 -0.0466,-0.1679 0,-0.0939 0.0353,-0.1743 0.1058,-0.242 0.0706,-0.067 0.1609,-0.1009 0.271,-0.1009 0.0903,0 0.1686,0.0219 0.2349,0.0656l0.2004 0c0.0296,0 0.0473,0.0014 0.0515,0.0028 0.0049,0.0014 0.0085,0.005 0.0106,0.0092 0.0042,0.0056 0.0063,0.0169 0.0063,0.0325 0,0.0183 -0.0021,0.0303 -0.0056,0.0373 -0.0014,0.0036 -0.0057,0.0064 -0.0106,0.0085 -0.0049,0.0021 -0.0226,0.0028 -0.0522,0.0028l-0.1228 0c0.0388,0.0501 0.0579,0.1129 0.0579,0.1905 0,0.0882 -0.0339,0.1637 -0.1016,0.2265 -0.0671,0.0621 -0.1581,0.0939 -0.2717,0.0939 -0.0465,0 -0.0945,-0.0071 -0.1439,-0.0205 -0.0303,0.0261 -0.0508,0.0487 -0.0614,0.0684 -0.0106,0.0198 -0.0155,0.036 -0.0155,0.0501 0,0.012 0.0056,0.0233 0.0169,0.0339 0.0113,0.0113 0.0332,0.019 0.0664,0.024 0.0197,0.0028 0.0677,0.0049 0.1446,0.007 0.1418,0.0036 0.2342,0.0085 0.2759,0.0149 0.0642,0.0091 0.1157,0.0324 0.1538,0.0712 0.0381,0.0388 0.0571,0.0861 0.0571,0.1425 0,0.0776 -0.0367,0.151 -0.1093,0.2195 -0.1073,0.1002 -0.2477,0.1502 -0.4205,0.1502 -0.1334,0 -0.2456,-0.0296 -0.3373,-0.0896 -0.0515,-0.0345 -0.0776,-0.0705 -0.0776,-0.1072 0,-0.0169 0.0042,-0.0332 0.0113,-0.0501 0.012,-0.0254 0.036,-0.0607 0.0727,-0.1065 0.0049,-0.0057 0.0402,-0.0431 0.1051,-0.1115 -0.0353,-0.0212 -0.0607,-0.0402 -0.0755,-0.0572 -0.0148,-0.0169 -0.0226,-0.0359 -0.0226,-0.0571 0,-0.0247 0.0099,-0.0529 0.0296,-0.0847 0.0198,-0.0324 0.065,-0.0783 0.1362,-0.1376zm0.1799 -0.5799c-0.0515,0 -0.0938,0.0204 -0.1284,0.0607 -0.0346,0.0409 -0.0515,0.103 -0.0515,0.1876 0,0.1087 0.0233,0.1926 0.0699,0.2526 0.0359,0.0459 0.0811,0.0685 0.1368,0.0685 0.0523,0 0.0953,-0.0198 0.1292,-0.0586 0.0338,-0.0395 0.0501,-0.1009 0.0501,-0.1856 0,-0.1093 -0.0233,-0.1947 -0.0713,-0.2568 -0.0346,-0.0458 -0.0797,-0.0684 -0.1348,-0.0684zm-0.1905 0.925c-0.0324,0.0352 -0.0571,0.0677 -0.0733,0.098 -0.0163,0.0304 -0.0247,0.0586 -0.0247,0.084 0,0.0331 0.0197,0.0621 0.0599,0.0868 0.0685,0.0423 0.1687,0.0642 0.2985,0.0642 0.1242,0 0.2159,-0.0219 0.2744,-0.0656 0.0593,-0.0438 0.0882,-0.0911 0.0882,-0.1404 0,-0.036 -0.0176,-0.0614 -0.0522,-0.0762 -0.036,-0.0156 -0.1072,-0.024 -0.2131,-0.0269 -0.1552,-0.0042 -0.2744,-0.012 -0.3577,-0.0239z"/>
  <path class="fil2" d="M87.2841 4.0914c-0.0007,0.1404 0.0338,0.2505 0.1023,0.3302 0.0691,0.0804 0.1503,0.12 0.2434,0.12 0.0614,0 0.1157,-0.017 0.1616,-0.0508 0.0458,-0.0346 0.0839,-0.0925 0.115,-0.1757l0.0324 0.0211c-0.0148,0.0946 -0.0564,0.18 -0.1263,0.2576 -0.0698,0.0776 -0.1566,0.1164 -0.2617,0.1164 -0.1136,0 -0.211,-0.0445 -0.2921,-0.1327 -0.0805,-0.0889 -0.1214,-0.2074 -0.1214,-0.357 0,-0.1622 0.0416,-0.2885 0.1249,-0.3789 0.0833,-0.091 0.187,-0.1361 0.3126,-0.1361 0.1058,0 0.1933,0.0353 0.2617,0.1051 0.0677,0.0699 0.1023,0.1637 0.1023,0.2808l-0.6547 0zm0 -0.06l0.4381 0c-0.0028,-0.0606 -0.0106,-0.1037 -0.0211,-0.1284 -0.0177,-0.0388 -0.0431,-0.0691 -0.077,-0.091 -0.0345,-0.0219 -0.0698,-0.0331 -0.1072,-0.0331 -0.0571,0 -0.1087,0.0225 -0.1538,0.067 -0.0452,0.0444 -0.0713,0.1058 -0.079,0.1855z"/>
  <path class="fil2" d="M88.3417 3.7069l0 0.2124c0.0797,-0.1419 0.1609,-0.2124 0.2441,-0.2124 0.0381,0 0.0692,0.0113 0.0939,0.0346 0.0247,0.0225 0.0373,0.0494 0.0373,0.0797 0,0.0268 -0.0091,0.0501 -0.0268,0.0684 -0.0176,0.0184 -0.0395,0.0275 -0.0642,0.0275 -0.024,0 -0.0508,-0.0112 -0.0811,-0.0352 -0.0296,-0.024 -0.0522,-0.036 -0.0663,-0.036 -0.0127,0 -0.0261,0.007 -0.0402,0.0211 -0.0311,0.0283 -0.0635,0.0748 -0.0967,0.139l0 0.4544c0,0.0522 0.0071,0.0917 0.0198,0.1185 0.0091,0.0184 0.0246,0.0339 0.0479,0.0466 0.0226,0.012 0.0551,0.0184 0.0981,0.0184l0 0.0374 -0.4847 0 0 -0.0374c0.048,0 0.0839,-0.0071 0.1072,-0.0226 0.017,-0.0113 0.0297,-0.0282 0.036,-0.0529 0.0035,-0.0113 0.0057,-0.0452 0.0057,-0.1002l0 -0.3669c0,-0.1101 -0.0029,-0.1757 -0.0071,-0.1969 -0.0042,-0.0211 -0.0127,-0.0359 -0.0247,-0.0458 -0.012,-0.0099 -0.0268,-0.0148 -0.0451,-0.0148 -0.0212,0 -0.0452,0.0056 -0.072,0.0155l-0.0106 -0.0367 0.2865 -0.1157 0.043 0z"/>
 </g>
</svg>
