<?xml version="1.0" encoding="UTF-8"?>
<!DOCTYPE svg PUBLIC "-//W3C//DTD SVG 1.1//EN" "http://www.w3.org/Graphics/SVG/1.1/DTD/svg11.dtd">
<!-- Creator: CorelDRAW -->
<svg xmlns="http://www.w3.org/2000/svg" xml:space="preserve" width="62mm" height="53mm" style="shape-rendering:geometricPrecision; text-rendering:geometricPrecision; image-rendering:optimizeQuality; fill-rule:evenodd; clip-rule:evenodd"
viewBox="0 0 62 53">
 <defs>
  <style type="text/css">
   <![CDATA[
    .str1 {stroke:#1F1A17;stroke-width:0.1764}
    .str0 {stroke:#131516;stroke-width:0.1764}
    .fil0 {fill:none}
    .fil1 {fill:#1F1A17;fill-rule:nonzero}
    .fil2 {fill:url(#id0)}
   ]]>
  </style>
  <linearGradient id="id0" gradientUnits="userSpaceOnUse" x1="54.3884" y1="36.6916" x2="55.5718" y2="36.6916">
   <stop offset="0" style="stop-color:white"/>
   <stop offset="1" style="stop-color:white"/>
  </linearGradient>
 </defs>
 <g id="Layer_x0020_1">
  <metadata id="CorelCorpID_0Corel-Layer"/>
  <polygon class="fil0 str0" points="55.0708,37.3791 54.1896,38.4763 53.3083,39.5734 55.0708,39.5734 56.8334,39.5734 55.9521,38.4763 "/>
  <g id="_156334824">
   <line id="_229463248" class="fil0 str0" x1="52.6905" y1="39.579" x2="57.079" y2= "39.579" />
   <g>
    <line id="_229462936" class="fil0 str0" x1="53.1133" y1="39.6394" x2="52.7308" y2= "40.505" />
    <line id="_229462624" class="fil0 str0" x1="53.8966" y1="39.6394" x2="53.5141" y2= "40.505" />
    <line id="_229462312" class="fil0 str0" x1="54.6799" y1="39.6394" x2="54.2974" y2= "40.505" />
    <line id="_156619664" class="fil0 str0" x1="55.4632" y1="39.6394" x2="55.0807" y2= "40.505" />
    <line id="_156619352" class="fil0 str0" x1="56.2465" y1="39.6394" x2="55.864" y2= "40.505" />
    <line id="_156619040" class="fil0 str0" x1="57.0297" y1="39.6394" x2="56.6473" y2= "40.505" />
   </g>
  </g>
  <rect class="fil0 str1" transform="matrix(1.2367 -1.2367 1.2367 1.2367 30.7394 13.3352)" width="0.715" height="18.8861"/>
  <path class="fil1" d="M19.5766 47.0025l-0.4028 1.4012 -0.0452 0.1884c-0.0042,0.0176 -0.0064,0.0324 -0.0064,0.0451 0,0.0219 0.0071,0.0417 0.0205,0.0579 0.0113,0.0127 0.0247,0.0183 0.0416,0.0183 0.0177,0 0.041,-0.0105 0.0699,-0.0324 0.0543,-0.0402 0.1256,-0.1228 0.2152,-0.2484l0.0705 0.0494c-0.0952,0.1433 -0.1933,0.2526 -0.2935,0.3281 -0.1009,0.0748 -0.194,0.1122 -0.2794,0.1122 -0.0592,0 -0.1037,-0.0148 -0.1333,-0.0445 -0.0297,-0.0296 -0.0445,-0.0726 -0.0445,-0.1291 0,-0.067 0.0156,-0.1559 0.0459,-0.2667l0.043 -0.1545c-0.1806,0.2357 -0.3464,0.4001 -0.4981,0.4939 -0.1086,0.067 -0.2159,0.1009 -0.3203,0.1009 -0.1009,0 -0.1877,-0.0416 -0.2604,-0.1249 -0.0733,-0.0832 -0.1093,-0.1983 -0.1093,-0.3443 0,-0.2187 0.0656,-0.4501 0.1968,-0.6936 0.132,-0.2427 0.2992,-0.4374 0.5017,-0.5834 0.158,-0.1158 0.3076,-0.1736 0.4487,-0.1736 0.084,0 0.1538,0.0219 0.2096,0.0656 0.0557,0.0445 0.098,0.1171 0.127,0.2194l0.0747 -0.2356 0.3281 -0.0494zm-0.7359 0.1072c-0.0882,0 -0.1813,0.0417 -0.2808,0.1242 -0.1404,0.1171 -0.2653,0.2907 -0.3753,0.5207 -0.1094,0.23 -0.1644,0.4381 -0.1644,0.6244 0,0.0939 0.024,0.1679 0.0705,0.2223 0.0466,0.0543 0.1009,0.0811 0.1616,0.0811 0.1496,0 0.3133,-0.1108 0.4897,-0.3323 0.2356,-0.2949 0.3534,-0.5976 0.3534,-0.9073 0,-0.1172 -0.0225,-0.2018 -0.0684,-0.2548 -0.0452,-0.0522 -0.1072,-0.0783 -0.1863,-0.0783z"/>
  <g>
   <path class="fil1" d="M31.2618 51.1348l-0.0006 -0.2983 1.4014 -0.9124 0.194 0.298 -1.4014 0.9124 -0.0005 -0.2984 -0.1929 0.2987zm0 0l-0.2303 -0.1487 0.2297 -0.1496 0.0006 0.2983zm1.5014 0.7582l-0.0964 0.1494 -1.405 -0.9076 0.1929 -0.2987 1.405 0.9076 -0.0965 0.1493zm20.0566 -0.8625l-21.1857 0.0424 0 -0.1758 21.1857 -0.0424 0 0.1758zm0.3729 0.0606l-0.1941 -0.2979 0.0007 0.2983 -1.4051 -0.9068 0.1929 -0.2988 1.405 0.9068 0.0006 0.2984zm0 0l-0.0006 -0.2984 0.2303 0.1487 -0.2297 0.1497zm-1.4984 0.7642l-0.0971 -0.149 1.4014 -0.9131 0.1941 0.2979 -1.4013 0.9131 -0.0971 -0.1489z"/>
  </g>
  <line class="fil0 str1" x1="30.9794" y1="48.77" x2="30.9794" y2= "52.7208" />
  <line class="fil0 str1" x1="53.3069" y1="48.4638" x2="53.3069" y2= "52.4146" />
  <g>
   <path class="fil1" d="M8.9991 51.1234l-0.0006 -0.2983 1.4014 -0.9124 0.194 0.298 -1.4014 0.9124 -0.0005 -0.2984 -0.1929 0.2987zm0 0l-0.2303 -0.1487 0.2297 -0.1496 0.0006 0.2983zm1.5014 0.7582l-0.0964 0.1494 -1.405 -0.9076 0.1929 -0.2987 1.405 0.9076 -0.0965 0.1493zm20.0566 -0.8625l-21.1857 0.0424 0 -0.1758 21.1857 -0.0424 0 0.1758zm0.3729 0.0606l-0.1941 -0.2979 0.0007 0.2983 -1.4051 -0.9068 0.1929 -0.2988 1.405 0.9068 0.0006 0.2984zm0 0l-0.0006 -0.2984 0.2303 0.1487 -0.2297 0.1497zm-1.4984 0.7642l-0.0971 -0.149 1.4014 -0.9131 0.1941 0.2979 -1.4013 0.9131 -0.0971 -0.1489z"/>
  </g>
  <line class="fil0 str1" x1="8.7167" y1="48.762" x2="8.7167" y2= "52.7128" />
  <path class="fil1" d="M44.5539 47.4971l-0.4028 1.4012 -0.0452 0.1884c-0.0042,0.0176 -0.0064,0.0324 -0.0064,0.0451 0,0.0219 0.0071,0.0417 0.0205,0.0579 0.0113,0.0127 0.0247,0.0183 0.0416,0.0183 0.0177,0 0.041,-0.0105 0.0699,-0.0324 0.0543,-0.0402 0.1256,-0.1228 0.2152,-0.2484l0.0705 0.0494c-0.0952,0.1433 -0.1933,0.2526 -0.2935,0.3281 -0.1009,0.0748 -0.194,0.1122 -0.2794,0.1122 -0.0592,0 -0.1037,-0.0148 -0.1333,-0.0445 -0.0297,-0.0296 -0.0445,-0.0726 -0.0445,-0.1291 0,-0.067 0.0156,-0.1559 0.0459,-0.2667l0.043 -0.1545c-0.1806,0.2357 -0.3464,0.4001 -0.4981,0.4939 -0.1086,0.067 -0.2159,0.1009 -0.3203,0.1009 -0.1009,0 -0.1877,-0.0416 -0.2604,-0.1249 -0.0733,-0.0832 -0.1093,-0.1983 -0.1093,-0.3443 0,-0.2187 0.0656,-0.4501 0.1968,-0.6936 0.132,-0.2427 0.2992,-0.4374 0.5017,-0.5834 0.158,-0.1158 0.3076,-0.1736 0.4487,-0.1736 0.084,0 0.1538,0.0219 0.2096,0.0656 0.0557,0.0445 0.098,0.1171 0.127,0.2194l0.0747 -0.2356 0.3281 -0.0494zm-0.7359 0.1072c-0.0882,0 -0.1813,0.0417 -0.2808,0.1242 -0.1404,0.1171 -0.2653,0.2907 -0.3753,0.5207 -0.1094,0.23 -0.1644,0.4381 -0.1644,0.6244 0,0.0939 0.024,0.1679 0.0705,0.2223 0.0466,0.0543 0.1009,0.0811 0.1616,0.0811 0.1496,0 0.3133,-0.1108 0.4897,-0.3323 0.2356,-0.2949 0.3534,-0.5976 0.3534,-0.9073 0,-0.1172 -0.0225,-0.2018 -0.0684,-0.2548 -0.0452,-0.0522 -0.1072,-0.0783 -0.1863,-0.0783z"/>
  <rect class="fil0 str1" transform="matrix(-1.22023 -1.22023 -1.22023 1.22023 30.6366 13.3234)" width="0.715" height="18.8861"/>
  <circle class="fil2 str0" cx="54.9801" cy="36.6916" r="0.591742"/>
  <polygon class="fil0 str0" points="6.8778,37.0562 5.9966,38.1534 5.1153,39.2505 6.8778,39.2505 8.6404,39.2505 7.7591,38.1534 "/>
  <g>
   <line class="fil0 str0" x1="4.4975" y1="39.2561" x2="8.886" y2= "39.2561" />
   <g>
    <line class="fil0 str0" x1="4.9203" y1="39.3165" x2="4.5378" y2= "40.1821" />
    <line class="fil0 str0" x1="5.7036" y1="39.3165" x2="5.3211" y2= "40.1821" />
    <line class="fil0 str0" x1="6.4869" y1="39.3165" x2="6.1044" y2= "40.1821" />
    <line class="fil0 str0" x1="7.2702" y1="39.3165" x2="6.8877" y2= "40.1821" />
    <line class="fil0 str0" x1="8.0535" y1="39.3165" x2="7.671" y2= "40.1821" />
    <line class="fil0 str0" x1="8.8367" y1="39.3165" x2="8.4543" y2= "40.1821" />
   </g>
  </g>
  <circle class="fil2 str0" cx="6.7871" cy="36.3687" r="0.591742"/>
  <circle class="fil2 str0" cx="30.7281" cy="12.4509" r="0.591742"/>
  <line class="fil0 str1" x1="4.5668" y1="26.4997" x2="30.5696" y2= "0.3929" />
  <g>
   <path class="fil1" d="M4.4786 29.8672l0 -3.4637 0.1764 0 0 3.4637 -0.1764 0zm-0.061 0.3726l0.2984 -0.1935 -0.2984 0.0001 0.9096 -1.4032 0.2984 0.1934 -0.9096 1.4032 -0.2984 0zm0 0l0.2984 0 -0.1491 0.23 -0.1493 -0.23zm-0.7611 -1.4999l0.1491 -0.0968 0.9104 1.4032 -0.2984 0.1935 -0.9103 -1.4032 0.1492 -0.0967z"/>
  </g>
  <g>
   <path class="fil1" d="M7.8802 26.4648l0 -3.4637 0.1764 0 0 3.4637 -0.1764 0zm-0.061 0.3726l0.2984 -0.1935 -0.2984 0.0001 0.9096 -1.4032 0.2984 0.1934 -0.9096 1.4032 -0.2984 0zm0 0l0.2984 0 -0.1491 0.23 -0.1493 -0.23zm-0.7611 -1.4999l0.1491 -0.0968 0.9104 1.4032 -0.2984 0.1935 -0.9103 -1.4032 0.1492 -0.0967z"/>
  </g>
  <g>
   <path class="fil1" d="M20.211 14.1332l0 -3.4637 0.1764 0 0 3.4637 -0.1764 0zm-0.061 0.3726l0.2984 -0.1935 -0.2984 0.0001 0.9096 -1.4032 0.2984 0.1934 -0.9096 1.4032 -0.2984 0zm0 0l0.2984 0 -0.1491 0.23 -0.1493 -0.23zm-0.7611 -1.4999l0.1491 -0.0968 0.9104 1.4032 -0.2984 0.1935 -0.9103 -1.4032 0.1492 -0.0967z"/>
  </g>
  <g>
   <path class="fil1" d="M14.3645 20.1931l0 -3.4637 0.1764 0 0 3.4637 -0.1764 0zm-0.061 0.3726l0.2984 -0.1935 -0.2984 0.0001 0.9096 -1.4032 0.2984 0.1934 -0.9096 1.4032 -0.2984 0zm0 0l0.2984 0 -0.1491 0.23 -0.1493 -0.23zm-0.7611 -1.4999l0.1491 -0.0968 0.9104 1.4032 -0.2984 0.1935 -0.9103 -1.4032 0.1492 -0.0967z"/>
  </g>
  <g>
   <path class="fil1" d="M10.8286 23.5172l0 -3.4637 0.1764 0 0 3.4637 -0.1764 0zm-0.061 0.3726l0.2984 -0.1935 -0.2984 0.0001 0.9096 -1.4032 0.2984 0.1934 -0.9096 1.4032 -0.2984 0zm0 0l0.2984 0 -0.1491 0.23 -0.1493 -0.23zm-0.7611 -1.4999l0.1491 -0.0968 0.9104 1.4032 -0.2984 0.1935 -0.9103 -1.4032 0.1492 -0.0967z"/>
  </g>
  <g>
   <path class="fil1" d="M17.1786 17.1672l0 -3.4637 0.1764 0 0 3.4637 -0.1764 0zm-0.061 0.3726l0.2984 -0.1935 -0.2984 0.0001 0.9096 -1.4032 0.2984 0.1934 -0.9096 1.4032 -0.2984 0zm0 0l0.2984 0 -0.1491 0.23 -0.1493 -0.23zm-0.7611 -1.4999l0.1491 -0.0968 0.9104 1.4032 -0.2984 0.1935 -0.9103 -1.4032 0.1492 -0.0967z"/>
  </g>
  <g>
   <path class="fil1" d="M23.5286 10.8172l0 -3.4637 0.1764 0 0 3.4637 -0.1764 0zm-0.061 0.3726l0.2984 -0.1935 -0.2984 0.0001 0.9096 -1.4032 0.2984 0.1934 -0.9096 1.4032 -0.2984 0zm0 0l0.2984 0 -0.1491 0.23 -0.1493 -0.23zm-0.7611 -1.4999l0.1491 -0.0968 0.9104 1.4032 -0.2984 0.1935 -0.9103 -1.4032 0.1492 -0.0967z"/>
  </g>
  <line class="fil0 str1" x1="4.7008" y1="30.2093" x2="30.5826" y2= "4.224" />
  <g>
   <path class="fil1" d="M26.8016 7.5434l0 -3.4637 0.1764 0 0 3.4637 -0.1764 0zm-0.061 0.3726l0.2984 -0.1935 -0.2984 0.0001 0.9096 -1.4032 0.2984 0.1934 -0.9096 1.4032 -0.2984 0zm0 0l0.2984 0 -0.1491 0.23 -0.1493 -0.23zm-0.7611 -1.4999l0.1491 -0.0968 0.9104 1.4032 -0.2984 0.1935 -0.9103 -1.4032 0.1492 -0.0967z"/>
  </g>
  <line class="fil0 str1" x1="56.7196" y1="26.4995" x2="30.717" y2= "0.3929" />
  <g>
   <path class="fil1" d="M56.6314 29.867l0 -3.4637 0.1764 0 0 3.4637 -0.1764 0zm-0.061 0.3726l0.2984 -0.1935 -0.2984 0.0001 0.9096 -1.4032 0.2984 0.1934 -0.9096 1.4032 -0.2984 0zm0 0l0.2984 0 -0.1491 0.23 -0.1493 -0.23zm-0.7611 -1.4999l0.1491 -0.0968 0.9104 1.4032 -0.2984 0.1935 -0.9103 -1.4032 0.1492 -0.0967z"/>
  </g>
  <g>
   <path class="fil1" d="M53.2298 26.4646l0 -3.4637 0.1764 0 0 3.4637 -0.1764 0zm-0.061 0.3726l0.2984 -0.1935 -0.2984 0.0001 0.9096 -1.4032 0.2984 0.1934 -0.9096 1.4032 -0.2984 0zm0 0l0.2984 0 -0.1491 0.23 -0.1493 -0.23zm-0.7611 -1.4999l0.1491 -0.0968 0.9104 1.4032 -0.2984 0.1935 -0.9103 -1.4032 0.1492 -0.0967z"/>
  </g>
  <g>
   <path class="fil1" d="M40.899 14.133l0 -3.4637 0.1764 0 0 3.4637 -0.1764 0zm-0.061 0.3726l0.2984 -0.1935 -0.2984 0.0001 0.9096 -1.4032 0.2984 0.1934 -0.9096 1.4032 -0.2984 0zm0 0l0.2984 0 -0.1491 0.23 -0.1493 -0.23zm-0.7611 -1.4999l0.1491 -0.0968 0.9104 1.4032 -0.2984 0.1935 -0.9103 -1.4032 0.1492 -0.0967z"/>
  </g>
  <g>
   <path class="fil1" d="M46.7455 20.1929l0 -3.4637 0.1764 0 0 3.4637 -0.1764 0zm-0.061 0.3726l0.2984 -0.1935 -0.2984 0.0001 0.9096 -1.4032 0.2984 0.1934 -0.9096 1.4032 -0.2984 0zm0 0l0.2984 0 -0.1491 0.23 -0.1493 -0.23zm-0.7611 -1.4999l0.1491 -0.0968 0.9104 1.4032 -0.2984 0.1935 -0.9103 -1.4032 0.1492 -0.0967z"/>
  </g>
  <g>
   <path class="fil1" d="M50.2814 23.517l0 -3.4637 0.1764 0 0 3.4637 -0.1764 0zm-0.061 0.3726l0.2984 -0.1935 -0.2984 0.0001 0.9096 -1.4032 0.2984 0.1934 -0.9096 1.4032 -0.2984 0zm0 0l0.2984 0 -0.1491 0.23 -0.1493 -0.23zm-0.7611 -1.4999l0.1491 -0.0968 0.9104 1.4032 -0.2984 0.1935 -0.9103 -1.4032 0.1492 -0.0967z"/>
  </g>
  <g>
   <path class="fil1" d="M43.9314 17.167l0 -3.4637 0.1764 0 0 3.4637 -0.1764 0zm-0.061 0.3726l0.2984 -0.1935 -0.2984 0.0001 0.9096 -1.4032 0.2984 0.1934 -0.9096 1.4032 -0.2984 0zm0 0l0.2984 0 -0.1491 0.23 -0.1493 -0.23zm-0.7611 -1.4999l0.1491 -0.0968 0.9104 1.4032 -0.2984 0.1935 -0.9103 -1.4032 0.1492 -0.0967z"/>
  </g>
  <g>
   <path class="fil1" d="M37.5814 10.817l0 -3.4637 0.1764 0 0 3.4637 -0.1764 0zm-0.061 0.3726l0.2984 -0.1935 -0.2984 0.0001 0.9096 -1.4032 0.2984 0.1934 -0.9096 1.4032 -0.2984 0zm0 0l0.2984 0 -0.1491 0.23 -0.1493 -0.23zm-0.7611 -1.4999l0.1491 -0.0968 0.9104 1.4032 -0.2984 0.1935 -0.9103 -1.4032 0.1492 -0.0967z"/>
  </g>
  <g>
   <path class="fil1" d="M30.5221 3.8566l0 -3.4637 0.1764 0 0 3.4637 -0.1764 0zm-0.061 0.3726l0.2984 -0.1935 -0.2984 0.0001 0.9096 -1.4032 0.2984 0.1934 -0.9096 1.4032 -0.2984 0zm0 0l0.2984 0 -0.1491 0.23 -0.1493 -0.23zm-0.7611 -1.4999l0.1491 -0.0968 0.9104 1.4032 -0.2984 0.1935 -0.9103 -1.4032 0.1492 -0.0967z"/>
  </g>
  <line class="fil0 str1" x1="56.5856" y1="30.2091" x2="30.7038" y2= "4.2238" />
  <g>
   <path class="fil1" d="M34.3084 7.5432l0 -3.4637 0.1764 0 0 3.4637 -0.1764 0zm-0.061 0.3726l0.2984 -0.1935 -0.2984 0.0001 0.9096 -1.4032 0.2984 0.1934 -0.9096 1.4032 -0.2984 0zm0 0l0.2984 0 -0.1491 0.23 -0.1493 -0.23zm-0.7611 -1.4999l0.1491 -0.0968 0.9104 1.4032 -0.2984 0.1935 -0.9103 -1.4032 0.1492 -0.0967z"/>
  </g>
  <path class="fil1" d="M43.64 5.6969l-0.0599 0.2152 -0.345 0c0.0261,0.0741 0.0388,0.1439 0.0388,0.2088 0,0.1821 -0.0769,0.3436 -0.2315,0.4854 -0.1552,0.1426 -0.369,0.2209 -0.6406,0.2357 -0.146,0.0444 -0.2554,0.0967 -0.3288,0.1573 -0.0275,0.0219 -0.0409,0.0445 -0.0409,0.0685 0,0.0275 0.012,0.0522 0.0367,0.0755 0.0254,0.0225 0.0875,0.0458 0.1884,0.0691l0.4007 0.0931c0.2223,0.0523 0.369,0.1143 0.4403,0.1856 0.0705,0.0734 0.1058,0.1573 0.1058,0.2526 0,0.1129 -0.0416,0.2159 -0.1249,0.3097 -0.0839,0.0939 -0.2053,0.1672 -0.3661,0.2202 -0.1609,0.0529 -0.338,0.0797 -0.532,0.0797 -0.1715,0 -0.3267,-0.0205 -0.4671,-0.0614 -0.1411,-0.0402 -0.2413,-0.0952 -0.302,-0.1637 -0.0607,-0.0691 -0.091,-0.1404 -0.091,-0.2131 0,-0.0592 0.0198,-0.1213 0.0586,-0.1848 0.0395,-0.0642 0.0889,-0.1171 0.1481,-0.1588 0.0374,-0.0261 0.1426,-0.0875 0.3161,-0.1855 -0.0635,-0.0494 -0.0952,-0.1044 -0.0952,-0.1637 0,-0.055 0.0282,-0.1136 0.0839,-0.1757 0.0558,-0.0621 0.1743,-0.1298 0.3542,-0.2046 -0.151,-0.0289 -0.2716,-0.0924 -0.3605,-0.1898 -0.0889,-0.0981 -0.1334,-0.2067 -0.1334,-0.3267 0,-0.1954 0.0861,-0.3711 0.2576,-0.5249 0.1714,-0.1545 0.4,-0.2314 0.685,-0.2314 0.1038,0 0.1884,0.0099 0.2547,0.031 0.0657,0.0205 0.1299,0.0529 0.192,0.0967l0.558 0zm-0.7175 0.3245c0,-0.11 -0.0303,-0.1968 -0.0917,-0.2603 -0.0614,-0.0635 -0.1418,-0.0953 -0.2406,-0.0953 -0.1559,0 -0.2843,0.0784 -0.3859,0.235 -0.1009,0.1566 -0.1517,0.3189 -0.1517,0.4889 0,0.1059 0.0324,0.1927 0.0973,0.2604 0.0642,0.0677 0.1433,0.1009 0.2357,0.1009 0.0727,0 0.1432,-0.0198 0.2116,-0.06 0.0685,-0.0395 0.1256,-0.0945 0.1729,-0.1651 0.0466,-0.0705 0.084,-0.1594 0.1115,-0.2688 0.0275,-0.1087 0.0409,-0.187 0.0409,-0.2357zm-0.9899 1.4182c-0.1115,0.0508 -0.1961,0.1164 -0.2533,0.1961 -0.0571,0.0805 -0.0853,0.1588 -0.0853,0.2357 0,0.091 0.0409,0.1665 0.1234,0.2258 0.1186,0.0853 0.2921,0.1277 0.5214,0.1277 0.1969,0 0.3655,-0.0332 0.5052,-0.1002 0.1397,-0.067 0.2095,-0.1531 0.2095,-0.2589 0,-0.0544 -0.0254,-0.1052 -0.0776,-0.1532 -0.0515,-0.0486 -0.1517,-0.0874 -0.3005,-0.1178 -0.0812,-0.0169 -0.2957,-0.0684 -0.6428,-0.1552z"/>
  <path class="fil1" d="M44.2292 7.3112l0 0.3224 -0.0338 0c-0.0268,-0.1016 -0.06,-0.1707 -0.1009,-0.2067 -0.0409,-0.0367 -0.0932,-0.055 -0.1567,-0.055 -0.0486,0 -0.0874,0.0127 -0.1171,0.0381 -0.0296,0.0254 -0.0444,0.0536 -0.0444,0.0846 0,0.0388 0.0113,0.072 0.0331,0.0995 0.0212,0.0282 0.0649,0.0586 0.1306,0.0896l0.1509 0.0734c0.1397,0.0684 0.2096,0.1587 0.2096,0.2702 0,0.0861 -0.0325,0.1552 -0.0974,0.2082 -0.0656,0.0529 -0.1383,0.079 -0.2187,0.079 -0.0578,0 -0.1242,-0.0106 -0.1983,-0.0311 -0.0232,-0.007 -0.0416,-0.0105 -0.0564,-0.0105 -0.0155,0 -0.0282,0.0091 -0.0367,0.0275l-0.0346 0 0 -0.3387 0.0346 0c0.0191,0.0967 0.0558,0.1693 0.1101,0.2187 0.055,0.0487 0.1157,0.0734 0.1834,0.0734 0.0473,0 0.0861,-0.0141 0.1164,-0.0423 0.0297,-0.0275 0.0445,-0.0614 0.0445,-0.1009 0,-0.0473 -0.0162,-0.0875 -0.0501,-0.1193 -0.0332,-0.0324 -0.1002,-0.0733 -0.1997,-0.1234 -0.1002,-0.0494 -0.1658,-0.0946 -0.1968,-0.1341 -0.0311,-0.0395 -0.0466,-0.0889 -0.0466,-0.1489 0,-0.0783 0.0268,-0.1432 0.0804,-0.1954 0.0537,-0.0522 0.1228,-0.0783 0.2075,-0.0783 0.0367,0 0.0818,0.0078 0.1354,0.0233 0.0346,0.0106 0.0586,0.0155 0.0699,0.0155 0.0113,0 0.0197,-0.0021 0.0261,-0.0071 0.0063,-0.0049 0.0134,-0.0155 0.0219,-0.0317l0.0338 0z"/>
  <path class="fil1" d="M45.2636 7.9949l-0.0113 0.2907 -0.8354 0 0 -0.0374 0.6287 -0.8368 -0.3105 0c-0.0663,0 -0.1107,0.0042 -0.1312,0.0127 -0.0205,0.0084 -0.0374,0.0247 -0.0508,0.0494 -0.0183,0.0338 -0.0289,0.0769 -0.0317,0.1277l-0.0417 0 0.0064 -0.2625 0.7937 0 0 0.0381 -0.6343 0.8396 0.345 0c0.0727,0 0.1214,-0.0063 0.1475,-0.0183 0.0254,-0.012 0.0466,-0.0332 0.0621,-0.0635 0.0113,-0.0219 0.0205,-0.0685 0.0282,-0.1397l0.0353 0z"/>
  <path class="fil1" d="M21.71 25.1231l-0.707 2.4595c-0.0345,0.1228 -0.0515,0.1983 -0.0515,0.2258 0,0.0205 0.0064,0.0374 0.0198,0.0515 0.0127,0.0134 0.0289,0.0205 0.0487,0.0205 0.0261,0 0.0543,-0.0113 0.0846,-0.0353 0.0713,-0.0565 0.1468,-0.1439 0.2251,-0.2625l0.0621 0.0642c-0.1312,0.1849 -0.2512,0.3133 -0.3619,0.3867 -0.0812,0.0522 -0.1581,0.0783 -0.2315,0.0783 -0.0522,0 -0.0959,-0.0177 -0.1312,-0.0536 -0.0353,-0.036 -0.0529,-0.0769 -0.0529,-0.1242 0,-0.0494 0.0226,-0.151 0.0663,-0.3055l0.5602 -1.9389c0.0459,-0.1587 0.0684,-0.2497 0.0684,-0.273 0,-0.0332 -0.0134,-0.06 -0.0395,-0.0819 -0.0261,-0.0211 -0.067,-0.0317 -0.122,-0.0317 -0.0318,0 -0.0797,0.0049 -0.1447,0.0141l0 -0.0762 0.707 -0.1178z"/>
  <path class="fil1" d="M3.188 35.5451l-0.2131 2.3311c-0.0113,0.1093 -0.0162,0.1806 -0.0162,0.2152 0,0.055 0.0098,0.0973 0.031,0.1263 0.0261,0.0395 0.0614,0.0691 0.1058,0.0889 0.0452,0.019 0.1207,0.0289 0.2265,0.0289l-0.0226 0.0762 -1.1034 0 0.0225 -0.0762 0.0473 0c0.0896,0 0.163,-0.0198 0.2194,-0.0579 0.0395,-0.0268 0.0706,-0.0698 0.0932,-0.1305 0.0148,-0.043 0.0296,-0.1432 0.043,-0.302l0.0332 -0.3556 -0.8023 0 -0.285 0.3867c-0.0649,0.0868 -0.1051,0.1496 -0.1221,0.187 -0.0162,0.0381 -0.0246,0.0733 -0.0246,0.1065 0,0.0444 0.0176,0.0818 0.0536,0.1136 0.036,0.0317 0.0952,0.0494 0.1778,0.0522l-0.0226 0.0762 -0.829 0 0.0226 -0.0762c0.1023,-0.0042 0.1919,-0.0388 0.2702,-0.1023 0.0776,-0.0642 0.1933,-0.2011 0.3478,-0.4106l1.6743 -2.2775 0.0727 0zm-0.4093 0.6879l-0.8128 1.1056 0.7049 0 0.1079 -1.1056z"/>
  <path class="fil1" d="M58.8465 35.0594l0.029 -0.077 1.0004 0c0.1679,0 0.3175,0.0262 0.4495,0.0791 0.1312,0.0522 0.23,0.1249 0.2956,0.2187 0.0656,0.0938 0.0981,0.1933 0.0981,0.2977 0,0.1616 -0.0586,0.3069 -0.175,0.4375 -0.1164,0.1298 -0.3062,0.2265 -0.5694,0.2878 0.17,0.0635 0.2942,0.1475 0.3746,0.2526 0.0798,0.1044 0.12,0.2195 0.12,0.345 0,0.139 -0.036,0.2724 -0.108,0.3994 -0.0712,0.1263 -0.1636,0.2251 -0.2758,0.2949 -0.1122,0.0706 -0.2477,0.1221 -0.4064,0.1552 -0.1129,0.0233 -0.2893,0.0353 -0.5292,0.0353l-1.0273 0 0.0268 -0.0762c0.108,-0.0028 0.1807,-0.0134 0.2195,-0.031 0.055,-0.024 0.0945,-0.0551 0.1178,-0.0932 0.0332,-0.0522 0.0769,-0.1721 0.1319,-0.3598l0.5024 -1.6969c0.043,-0.1432 0.0642,-0.2441 0.0642,-0.3019 0,-0.0508 -0.0191,-0.091 -0.0565,-0.1207 -0.0381,-0.0296 -0.11,-0.0444 -0.2166,-0.0444 -0.0232,0 -0.0451,-0.0007 -0.0656,-0.0021zm0.4191 1.1634c0.0896,0.0028 0.1545,0.0042 0.1948,0.0042 0.2864,0 0.4995,-0.062 0.6399,-0.1869 0.1397,-0.1249 0.2095,-0.2808 0.2095,-0.4685 0,-0.1418 -0.043,-0.2526 -0.1284,-0.3316 -0.0853,-0.079 -0.2215,-0.1186 -0.4092,-0.1186 -0.0494,0 -0.1129,0.0078 -0.1898,0.0247l-0.3168 1.0767zm-0.4071 1.3808c0.1489,0.0197 0.2653,0.0289 0.3493,0.0289 0.2152,0 0.4057,-0.0649 0.5715,-0.194 0.1665,-0.1299 0.249,-0.3055 0.249,-0.5271 0,-0.1693 -0.0508,-0.302 -0.1538,-0.3972 -0.1023,-0.0953 -0.2681,-0.1425 -0.4967,-0.1425 -0.0444,0 -0.0981,0.0021 -0.1616,0.0063l-0.3577 1.2256z"/>
  <path class="fil1" d="M32.0818 16.195l-0.2088 0.9073 -0.0748 0 -0.0078 -0.2279c-0.007,-0.0826 -0.0232,-0.1559 -0.0479,-0.2208 -0.0247,-0.065 -0.0621,-0.1207 -0.1115,-0.1687 -0.0494,-0.0472 -0.1122,-0.0846 -0.1884,-0.1114 -0.0755,-0.0269 -0.1595,-0.0403 -0.2519,-0.0403 -0.2469,0 -0.4621,0.0678 -0.647,0.2025 -0.2356,0.1722 -0.4205,0.4156 -0.5538,0.7296 -0.1101,0.2589 -0.1658,0.5214 -0.1658,0.7874 0,0.2716 0.0797,0.4882 0.2377,0.6505 0.1588,0.1616 0.3648,0.2427 0.6181,0.2427 0.1919,0 0.3627,-0.043 0.5115,-0.1284 0.1496,-0.0854 0.2886,-0.2166 0.417,-0.3944l0.0967 0c-0.151,0.2413 -0.3196,0.4184 -0.5038,0.532 -0.1848,0.1136 -0.4064,0.1707 -0.6639,0.1707 -0.2286,0 -0.4311,-0.048 -0.6075,-0.1439 -0.1764,-0.096 -0.3111,-0.23 -0.4029,-0.4043 -0.0924,-0.1736 -0.139,-0.3598 -0.139,-0.5602 0,-0.3055 0.0826,-0.6033 0.2463,-0.8925 0.1637,-0.2893 0.3887,-0.5172 0.6745,-0.6823 0.2864,-0.1651 0.5743,-0.2476 0.8657,-0.2476 0.1362,0 0.2893,0.0317 0.4586,0.0966 0.0741,0.0275 0.1284,0.0416 0.1609,0.0416 0.0331,0 0.0621,-0.007 0.0875,-0.0204 0.0247,-0.0141 0.0656,-0.0536 0.1234,-0.1178l0.0769 0z"/>
 </g>
</svg>
