<?xml version="1.0" encoding="UTF-8"?>
<!DOCTYPE svg PUBLIC "-//W3C//DTD SVG 1.1//EN" "http://www.w3.org/Graphics/SVG/1.1/DTD/svg11.dtd">
<!-- Creator: CorelDRAW -->
<svg xmlns="http://www.w3.org/2000/svg" xml:space="preserve" width="44mm" height="41mm" style="shape-rendering:geometricPrecision; text-rendering:geometricPrecision; image-rendering:optimizeQuality; fill-rule:evenodd; clip-rule:evenodd"
viewBox="0 0 44 41">
 <defs>
  <style type="text/css">
   <![CDATA[
    .str0 {stroke:#1F1A17;stroke-width:0.1764}
    .fil2 {fill:none}
    .fil1 {fill:#1F1A17;fill-rule:nonzero}
    .fil0 {fill:url(#id1)}
   ]]>
  </style>
   <clipPath id="id0">
    <rect x="18" y="26" width="4" height="5"/>
   </clipPath>
  <linearGradient id="id1" gradientUnits="userSpaceOnUse" x1="1.027" y1="21.0093" x2="33.0219" y2="21.0093">
   <stop offset="0" style="stop-color:#DEDEDD"/>
   <stop offset="1" style="stop-color:#DEDEDD"/>
  </linearGradient>
 </defs>
 <g id="Layer_x0020_1">
  <metadata id="CorelCorpID_0Corel-Layer"/>
  <rect class="fil0 str0" x="1.02699" y="10.8101" width="31.9949" height="20.3985"/>
  <g>
   <path class="fil1" d="M1.2347 10.3796l-0.2984 0 -0.9096 -1.4032 0.2984 -0.1934 0.9096 1.4032 -0.2984 -0.0001 0.2984 0.1935zm0 0l-0.1493 0.23 -0.1491 -0.23 0.2984 0zm0.7611 -1.4999l0.1492 0.0967 -0.9103 1.4032 -0.2984 -0.1935 0.9104 -1.4032 0.1491 0.0968zm-0.7339 -7.4247l0 8.552 -0.3528 0 0 -8.552 0.3528 0z"/>
  </g>
  <path class="fil1" d="M3.6219 1.0515l-0.3309 1.1106 0.3683 0c0.1651,0 0.2893,-0.0261 0.3711,-0.0769 0.0819,-0.0508 0.1666,-0.1595 0.2533,-0.3267l0.0784 0 -0.2914 1.0209 -0.0826 0c0.0205,-0.0825 0.0311,-0.1503 0.0311,-0.2046 0,-0.084 -0.0283,-0.1489 -0.084,-0.1947 -0.0557,-0.0466 -0.1602,-0.0699 -0.3133,-0.0699l-0.3718 0 -0.2441 0.846c-0.0438,0.1503 -0.0663,0.2497 -0.0663,0.2991 0,0.0515 0.019,0.0903 0.0571,0.1179 0.0381,0.0282 0.1305,0.0465 0.278,0.0564l-0.0247 0.0762 -1.1077 0 0.0268 -0.0762c0.1072,-0.0028 0.1792,-0.0127 0.2145,-0.0289 0.055,-0.024 0.0959,-0.0558 0.122,-0.0953 0.0374,-0.0564 0.0812,-0.1728 0.1327,-0.3492l0.4939 -1.6891c0.0395,-0.1362 0.0599,-0.2434 0.0599,-0.3203 0,-0.036 -0.0091,-0.0664 -0.0268,-0.0918 -0.0183,-0.0254 -0.0444,-0.0444 -0.0797,-0.0571 -0.0353,-0.012 -0.1051,-0.0183 -0.2095,-0.0183l0.0247 -0.077 2.1745 0 -0.2068 0.7091 -0.079 0c0.0155,-0.0853 0.0233,-0.1552 0.0233,-0.2109 0,-0.091 -0.0254,-0.163 -0.0755,-0.2159 -0.0508,-0.0529 -0.115,-0.0903 -0.1933,-0.1122 -0.0551,-0.0141 -0.1785,-0.0212 -0.3704,-0.0212l-0.5518 0z"/>
  <g>
   <path class="fil1" d="M11.9334 31.4123l0.2984 0 0.9096 1.4032 -0.2984 0.1934 -0.9096 -1.4032 0.2984 0.0001 -0.2984 -0.1935zm0 0l0.1493 -0.23 0.1491 0.23 -0.2984 0zm-0.7611 1.4999l-0.1492 -0.0967 0.9103 -1.4032 0.2984 0.1935 -0.9104 1.4032 -0.1491 -0.0968zm0.7339 7.4247l0 -8.552 0.3528 0 0 8.552 -0.3528 0z"/>
  </g>
  <g>
   <path class="fil1" d="M32.2534 31.4123l0.2984 0 0.9096 1.4032 -0.2984 0.1934 -0.9096 -1.4032 0.2984 0.0001 -0.2984 -0.1935zm0 0l0.1493 -0.23 0.1491 0.23 -0.2984 0zm-0.7611 1.4999l-0.1492 -0.0967 0.9103 -1.4032 0.2984 0.1935 -0.9104 1.4032 -0.1491 -0.0968zm0.7339 7.4247l0 -8.552 0.3528 0 0 8.552 -0.3528 0z"/>
  </g>
  <g>
   <path class="fil1" d="M34.3129 10.895l0 -0.2984 1.4032 -0.9096 0.1934 0.2984 -1.4032 0.9096 0.0001 -0.2984 -0.1935 0.2984zm0 0l-0.23 -0.1493 0.23 -0.1491 0 0.2984zm1.4999 0.7611l-0.0967 0.1492 -1.4032 -0.9103 0.1935 -0.2984 1.4032 0.9104 -0.0968 0.1491zm7.4247 -0.7339l-8.552 0 0 -0.3528 8.552 0 0 0.3528z"/>
  </g>
  <path class="fil1" d="M34.9958 33.9733l0.029 -0.077 1.0004 0c0.1679,0 0.3175,0.0262 0.4495,0.0791 0.1312,0.0522 0.23,0.1249 0.2956,0.2187 0.0656,0.0938 0.0981,0.1933 0.0981,0.2977 0,0.1616 -0.0586,0.3069 -0.175,0.4375 -0.1164,0.1298 -0.3062,0.2265 -0.5694,0.2878 0.17,0.0635 0.2942,0.1475 0.3746,0.2526 0.0798,0.1044 0.12,0.2195 0.12,0.345 0,0.139 -0.036,0.2724 -0.108,0.3994 -0.0712,0.1263 -0.1636,0.2251 -0.2758,0.2949 -0.1122,0.0706 -0.2477,0.1221 -0.4064,0.1552 -0.1129,0.0233 -0.2893,0.0353 -0.5292,0.0353l-1.0273 0 0.0268 -0.0762c0.108,-0.0028 0.1807,-0.0134 0.2195,-0.031 0.055,-0.024 0.0945,-0.0551 0.1178,-0.0932 0.0332,-0.0522 0.0769,-0.1721 0.1319,-0.3598l0.5024 -1.6969c0.043,-0.1432 0.0642,-0.2441 0.0642,-0.3019 0,-0.0508 -0.0191,-0.091 -0.0565,-0.1207 -0.0381,-0.0296 -0.11,-0.0444 -0.2166,-0.0444 -0.0232,0 -0.0451,-0.0007 -0.0656,-0.0021zm0.4191 1.1634c0.0896,0.0028 0.1545,0.0042 0.1948,0.0042 0.2864,0 0.4995,-0.062 0.6399,-0.1869 0.1397,-0.1249 0.2095,-0.2808 0.2095,-0.4685 0,-0.1418 -0.043,-0.2526 -0.1284,-0.3316 -0.0853,-0.079 -0.2215,-0.1186 -0.4092,-0.1186 -0.0494,0 -0.1129,0.0078 -0.1898,0.0247l-0.3168 1.0767zm-0.4071 1.3808c0.1489,0.0197 0.2653,0.0289 0.3493,0.0289 0.2152,0 0.4057,-0.0649 0.5715,-0.194 0.1665,-0.1299 0.249,-0.3055 0.249,-0.5271 0,-0.1693 -0.0508,-0.302 -0.1538,-0.3972 -0.1023,-0.0953 -0.2681,-0.1425 -0.4967,-0.1425 -0.0444,0 -0.0981,0.0021 -0.1616,0.0063l-0.3577 1.2256z"/>
  <path class="fil1" d="M42.3606 6.6435l-0.2088 0.9073 -0.0748 0 -0.0078 -0.2279c-0.007,-0.0826 -0.0232,-0.1559 -0.0479,-0.2208 -0.0247,-0.065 -0.0621,-0.1207 -0.1115,-0.1687 -0.0494,-0.0472 -0.1122,-0.0846 -0.1884,-0.1114 -0.0755,-0.0269 -0.1595,-0.0403 -0.2519,-0.0403 -0.2469,0 -0.4621,0.0678 -0.647,0.2025 -0.2356,0.1722 -0.4205,0.4156 -0.5538,0.7296 -0.1101,0.2589 -0.1658,0.5214 -0.1658,0.7874 0,0.2716 0.0797,0.4882 0.2377,0.6505 0.1588,0.1616 0.3648,0.2427 0.6181,0.2427 0.1919,0 0.3627,-0.043 0.5115,-0.1284 0.1496,-0.0854 0.2886,-0.2166 0.417,-0.3944l0.0967 0c-0.151,0.2413 -0.3196,0.4184 -0.5038,0.532 -0.1848,0.1136 -0.4064,0.1707 -0.6639,0.1707 -0.2286,0 -0.4311,-0.048 -0.6075,-0.1439 -0.1764,-0.096 -0.3111,-0.23 -0.4029,-0.4043 -0.0924,-0.1736 -0.139,-0.3598 -0.139,-0.5602 0,-0.3055 0.0826,-0.6033 0.2463,-0.8925 0.1637,-0.2893 0.3887,-0.5172 0.6745,-0.6823 0.2864,-0.1651 0.5743,-0.2476 0.8657,-0.2476 0.1362,0 0.2893,0.0317 0.4586,0.0966 0.0741,0.0275 0.1284,0.0416 0.1609,0.0416 0.0331,0 0.0621,-0.007 0.0875,-0.0204 0.0247,-0.0141 0.0656,-0.0536 0.1234,-0.1178l0.0769 0z"/>
  <path class="fil1" d="M15.664 34.8906l-0.2131 2.3311c-0.0113,0.1093 -0.0162,0.1806 -0.0162,0.2152 0,0.055 0.0098,0.0973 0.031,0.1263 0.0261,0.0395 0.0614,0.0691 0.1058,0.0889 0.0452,0.019 0.1207,0.0289 0.2265,0.0289l-0.0226 0.0762 -1.1034 0 0.0225 -0.0762 0.0473 0c0.0896,0 0.163,-0.0198 0.2194,-0.0579 0.0395,-0.0268 0.0706,-0.0698 0.0932,-0.1305 0.0148,-0.043 0.0296,-0.1432 0.043,-0.302l0.0332 -0.3556 -0.8023 0 -0.285 0.3867c-0.0649,0.0868 -0.1051,0.1496 -0.1221,0.187 -0.0162,0.0381 -0.0246,0.0733 -0.0246,0.1065 0,0.0444 0.0176,0.0818 0.0536,0.1136 0.036,0.0317 0.0952,0.0494 0.1778,0.0522l-0.0226 0.0762 -0.829 0 0.0226 -0.0762c0.1023,-0.0042 0.1919,-0.0388 0.2702,-0.1023 0.0776,-0.0642 0.1933,-0.2011 0.3478,-0.4106l1.6743 -2.2775 0.0727 0zm-0.4093 0.6879l-0.8128 1.1056 0.7049 0 0.1079 -1.1056z"/>
  <g style="clip-path:url(#id0)">
  </g>
  <g>
   <polygon class="fil2" points="19.2832,26.6849 22.1032,26.6849 22.1032,30.9149 19.2832,30.9149 "/>
  </g>
 </g>
</svg>
