<?xml version="1.0" encoding="UTF-8"?>
<!DOCTYPE svg PUBLIC "-//W3C//DTD SVG 1.1//EN" "http://www.w3.org/Graphics/SVG/1.1/DTD/svg11.dtd">
<!-- Creator: CorelDRAW -->
<svg xmlns="http://www.w3.org/2000/svg" xmlns:xlink="http://www.w3.org/1999/xlink" xml:space="preserve" width="63mm" height="24mm" style="shape-rendering:geometricPrecision; text-rendering:geometricPrecision; image-rendering:optimizeQuality; fill-rule:evenodd; clip-rule:evenodd"
viewBox="0 0 63 24">
 <defs>
  <style type="text/css">
   <![CDATA[
    .str2 {stroke:#1F1A17;stroke-width:0.1764}
    .str0 {stroke:#1F1A17;stroke-width:0.3528}
    .str1 {stroke:#1F1A17;stroke-width:0.7056}
    .fil3 {fill:none}
    .fil2 {fill:#1F1A17;fill-rule:nonzero}
    .fil4 {fill:url(#id0)}
    .fil0 {fill:url(#id1)}
    .fil1 {fill:url(#id2)}
   ]]>
  </style>
  <linearGradient id="id0" gradientUnits="userSpaceOnUse" x1="54.9589" y1="11.1751" x2="61.1781" y2="11.1751">
   <stop offset="0" style="stop-color:#C2C1C1"/>
   <stop offset="1" style="stop-color:#C2C1C1"/>
  </linearGradient>
  <linearGradient id="id1" gradientUnits="userSpaceOnUse" xlink:href="#id0" x1="7.9689" y1="11.1751" x2="14.1881" y2="11.1751">
  </linearGradient>
  <linearGradient id="id2" gradientUnits="userSpaceOnUse" xlink:href="#id0" x1="34.4957" y1="22.2086" x2="34.4957" y2="18.6338">
  </linearGradient>
 </defs>
 <g id="Layer_x0020_1">
  <metadata id="CorelCorpID_0Corel-Layer"/>
  <path class="fil0" d="M7.9689 5.1822l3.0738 -1.5017c2.0972,3.0779 3.1454,10.4132 3.1454,14.9892l-3.5748 0c0,-4.576 -0.8468,-9.5857 -2.6444,-13.4875z"/>
  <rect class="fil1" transform="matrix(9.23616E-014 -1 3.78864 2.87724E-014 10.5587 22.2086)" width="3.5748" height="12.6363"/>
  <path class="fil2" d="M2.5775 19.4193l-0.1962 0.5397 -1.6538 0 0 -0.0762c0.4861,-0.4438 0.829,-0.8064 1.0273,-1.0873 0.1983,-0.2815 0.2977,-0.5383 0.2977,-0.7711 0,-0.1778 -0.0543,-0.3239 -0.1636,-0.4382 -0.1087,-0.1143 -0.2385,-0.1714 -0.3902,-0.1714 -0.1383,0 -0.2618,0.0402 -0.3711,0.1206 -0.1094,0.0805 -0.1905,0.199 -0.2427,0.3542l-0.077 0c0.0346,-0.2547 0.1228,-0.4501 0.266,-0.587 0.1426,-0.1362 0.3204,-0.2046 0.5341,-0.2046 0.2272,0 0.417,0.0734 0.5694,0.2194 0.1524,0.1461 0.2286,0.3182 0.2286,0.5165 0,0.1418 -0.0331,0.2843 -0.0995,0.4261 -0.1016,0.223 -0.2674,0.4593 -0.496,0.7091 -0.3429,0.3747 -0.5573,0.6004 -0.6427,0.678l0.7316 0c0.1489,0 0.2533,-0.0056 0.3133,-0.0169 0.06,-0.0106 0.1143,-0.0331 0.1623,-0.067 0.048,-0.0339 0.0903,-0.0819 0.1263,-0.1439l0.0762 0z"/>
  <path class="fil2" d="M4.5036 17.0197l0 1.8852 0.4819 -0.4403c0.1023,-0.0938 0.1616,-0.1531 0.1778,-0.1778 0.0113,-0.0169 0.0163,-0.0331 0.0163,-0.0493 0,-0.0283 -0.0113,-0.0515 -0.0339,-0.072 -0.0226,-0.0198 -0.06,-0.0311 -0.1129,-0.0339l0 -0.0663 0.8227 0 0 0.0663c-0.1129,0.0028 -0.2067,0.0198 -0.2815,0.0515 -0.0755,0.0318 -0.1581,0.0882 -0.2477,0.1701l-0.4854 0.448 0.4854 0.6138c0.1355,0.1701 0.2265,0.2773 0.2731,0.3232 0.0663,0.0642 0.1241,0.1065 0.1735,0.1256 0.0346,0.0141 0.0946,0.0211 0.1799,0.0211l0 0.0741 -0.92 0 0 -0.0741c0.0529,-0.0014 0.0882,-0.0099 0.1065,-0.024 0.0191,-0.0148 0.0283,-0.0345 0.0283,-0.0614 0,-0.0317 -0.0275,-0.0825 -0.0826,-0.1524l-0.5814 -0.7422 0 0.6279c0,0.1228 0.0092,0.204 0.0261,0.2421 0.017,0.0388 0.0417,0.0663 0.0734,0.0825 0.0318,0.0169 0.1009,0.0261 0.2068,0.0275l0 0.0741 -0.9631 0 0 -0.0741c0.0966,0 0.1686,-0.012 0.2166,-0.0353 0.0289,-0.0155 0.0515,-0.0388 0.0663,-0.0705 0.0205,-0.0452 0.031,-0.1242 0.031,-0.2357l0 -1.7236c0,-0.2195 -0.0049,-0.3535 -0.0141,-0.4022 -0.0098,-0.0487 -0.0261,-0.0825 -0.0479,-0.1016 -0.0219,-0.0183 -0.0508,-0.0275 -0.0868,-0.0275 -0.029,0 -0.072,0.0113 -0.1298,0.0353l-0.0353 -0.0727 0.5623 -0.2314 0.0945 0z"/>
  <path class="fil2" d="M6.6225 18.4131c0.1382,-0.1382 0.2194,-0.2173 0.2441,-0.2377 0.0621,-0.0529 0.1291,-0.0932 0.2004,-0.1221 0.0719,-0.0289 0.1425,-0.0437 0.213,-0.0437 0.1186,0 0.2209,0.0345 0.3062,0.1037 0.0854,0.0684 0.1426,0.1686 0.1715,0.2998 0.1418,-0.1658 0.2618,-0.2744 0.3598,-0.3259 0.0974,-0.0515 0.1983,-0.0776 0.3013,-0.0776 0.1009,0 0.1898,0.0261 0.2681,0.0776 0.0776,0.0515 0.139,0.1361 0.1849,0.2533 0.0303,0.0797 0.0451,0.2053 0.0451,0.376l0 0.8149c0,0.1186 0.0092,0.1997 0.0268,0.2435 0.0141,0.0303 0.0395,0.0564 0.0769,0.0776 0.0374,0.0211 0.0974,0.0324 0.1821,0.0324l0 0.0741 -0.9349 0 0 -0.0741 0.0395 0c0.0812,0 0.1447,-0.0162 0.1905,-0.048 0.0318,-0.0218 0.0543,-0.0571 0.0677,-0.1051 0.0057,-0.0233 0.0085,-0.0903 0.0085,-0.2004l0 -0.8149c0,-0.1545 -0.0183,-0.2631 -0.0557,-0.3266 -0.0536,-0.0882 -0.1397,-0.132 -0.2583,-0.132 -0.0733,0 -0.1467,0.0184 -0.2201,0.0543 -0.0741,0.0367 -0.163,0.1045 -0.2681,0.204l-0.0042 0.0225 0.0042 0.0889 0 0.9038c0,0.1292 0.0078,0.2096 0.0219,0.2413 0.0148,0.0318 0.0416,0.0586 0.0818,0.0798 0.0395,0.0211 0.108,0.0324 0.2046,0.0324l0 0.0741 -0.9574 0 0 -0.0741c0.1051,0 0.1771,-0.0127 0.2166,-0.0374 0.0388,-0.0247 0.0663,-0.0621 0.0811,-0.1115 0.0071,-0.0239 0.0106,-0.0917 0.0106,-0.2046l0 -0.8149c0,-0.1545 -0.0226,-0.2653 -0.0684,-0.3323 -0.0607,-0.0882 -0.1454,-0.1326 -0.254,-0.1326 -0.0748,0 -0.1482,0.0197 -0.2216,0.0599 -0.1143,0.0607 -0.2025,0.1292 -0.2645,0.2047l0 1.0152c0,0.1235 0.0091,0.2046 0.0261,0.2413 0.0169,0.0374 0.043,0.0657 0.0762,0.084 0.0338,0.0183 0.1023,0.0282 0.206,0.0282l0 0.0741 -0.9363 0 0 -0.0741c0.0868,0 0.1475,-0.0099 0.1821,-0.0282 0.0338,-0.0183 0.0606,-0.048 0.0783,-0.0889 0.0176,-0.0409 0.0268,-0.1192 0.0268,-0.2364l0 -0.7239c0,-0.2081 -0.0064,-0.3421 -0.0184,-0.4028 -0.0098,-0.0459 -0.0254,-0.0769 -0.0458,-0.0939 -0.0205,-0.0176 -0.0487,-0.0261 -0.0847,-0.0261 -0.0388,0 -0.0847,0.0106 -0.1383,0.0311l-0.031 -0.0748 0.5701 -0.2314 0.0889 0 0 0.4035z"/>
  <line class="fil3 str0" x1="15.8173" y1="18.6697" x2="9.6686" y2= "18.6697" />
  <g>
   <path class="fil2" d="M13.1995 5.791l0 -0.2984 1.4032 -0.9096 0.1934 0.2984 -1.4032 0.9096 0.0001 -0.2984 -0.1935 0.2984zm0 0l-0.23 -0.1493 0.23 -0.1491 0 0.2984zm1.4999 0.7611l-0.0967 0.1492 -1.4032 -0.9103 0.1935 -0.2984 1.4032 0.9104 -0.0968 0.1491zm7.4247 -0.7339l-8.552 0 0 -0.3528 8.552 0 0 0.3528z"/>
  </g>
  <g>
   <path class="fil2" d="M55.9376 5.2206l0 0.2984 -1.4032 0.9096 -0.1934 -0.2984 1.4032 -0.9096 -0.0001 0.2984 0.1935 -0.2984zm0 0l0.23 0.1493 -0.23 0.1491 0 -0.2984zm-1.4999 -0.7611l0.0967 -0.1492 1.4032 0.9103 -0.1935 0.2984 -1.4032 -0.9104 0.0968 -0.1491zm-7.4247 0.7339l8.552 0 0 0.3528 -8.552 0 0 -0.3528z"/>
  </g>
  <path class="fil4" d="M61.1781 5.1822l-3.0738 -1.5017c-2.0972,3.0779 -3.1454,10.4132 -3.1454,14.9892l3.5748 0c0,-4.576 0.8468,-9.5857 2.6444,-13.4875z"/>
  <path class="fil2" d="M47.9116 0.48l0.029 -0.077 1.0004 0c0.1679,0 0.3175,0.0262 0.4495,0.0791 0.1312,0.0522 0.23,0.1249 0.2956,0.2187 0.0656,0.0938 0.0981,0.1933 0.0981,0.2977 0,0.1616 -0.0586,0.3069 -0.175,0.4375 -0.1164,0.1298 -0.3062,0.2265 -0.5694,0.2878 0.17,0.0635 0.2942,0.1475 0.3746,0.2526 0.0798,0.1044 0.12,0.2195 0.12,0.345 0,0.139 -0.036,0.2724 -0.108,0.3994 -0.0712,0.1263 -0.1636,0.2251 -0.2758,0.2949 -0.1122,0.0706 -0.2477,0.1221 -0.4064,0.1552 -0.1129,0.0233 -0.2893,0.0353 -0.5292,0.0353l-1.0273 0 0.0268 -0.0762c0.108,-0.0028 0.1807,-0.0134 0.2195,-0.031 0.055,-0.024 0.0945,-0.0551 0.1178,-0.0932 0.0332,-0.0522 0.0769,-0.1721 0.1319,-0.3598l0.5024 -1.6969c0.043,-0.1432 0.0642,-0.2441 0.0642,-0.3019 0,-0.0508 -0.0191,-0.091 -0.0565,-0.1207 -0.0381,-0.0296 -0.11,-0.0444 -0.2166,-0.0444 -0.0232,0 -0.0451,-0.0007 -0.0656,-0.0021zm0.4191 1.1634c0.0896,0.0028 0.1545,0.0042 0.1948,0.0042 0.2864,0 0.4995,-0.062 0.6399,-0.1869 0.1397,-0.1249 0.2095,-0.2808 0.2095,-0.4685 0,-0.1418 -0.043,-0.2526 -0.1284,-0.3316 -0.0853,-0.079 -0.2215,-0.1186 -0.4092,-0.1186 -0.0494,0 -0.1129,0.0078 -0.1898,0.0247l-0.3168 1.0767zm-0.4071 1.3808c0.1489,0.0197 0.2653,0.0289 0.3493,0.0289 0.2152,0 0.4057,-0.0649 0.5715,-0.194 0.1665,-0.1299 0.249,-0.3055 0.249,-0.5271 0,-0.1693 -0.0508,-0.302 -0.1538,-0.3972 -0.1023,-0.0953 -0.2681,-0.1425 -0.4967,-0.1425 -0.0444,0 -0.0981,0.0021 -0.1616,0.0063l-0.3577 1.2256z"/>
  <path class="fil2" d="M50.4269 1.546l0.0642 -0.6117c0.0176,-0.1735 0.036,-0.2907 0.0536,-0.3513 0.0261,-0.0868 0.0628,-0.1489 0.1108,-0.187 0.0472,-0.0381 0.1009,-0.0564 0.1601,-0.0564 0.0494,0 0.0889,0.0134 0.1179,0.0409 0.0289,0.0275 0.043,0.0628 0.043,0.1058 0,0.031 -0.0064,0.0663 -0.0205,0.1051 -0.0176,0.0522 -0.0691,0.1672 -0.1531,0.345l-0.285 0.6096 -0.091 0z"/>
  <path class="fil2" d="M51.143 3.1166c0.0339,0.036 0.0593,0.072 0.0762,0.1079 0.0127,0.0247 0.0331,0.0896 0.0614,0.1955l0.091 -0.1369c0.024,-0.0332 0.0529,-0.0642 0.0875,-0.0945 0.0345,-0.0297 0.0649,-0.0501 0.091,-0.0614 0.0169,-0.0071 0.0346,-0.0106 0.055,-0.0106 0.0297,0 0.0529,0.0085 0.0706,0.024 0.0176,0.0155 0.0268,0.0353 0.0268,0.0578 0,0.0261 -0.0057,0.0445 -0.0155,0.0537 -0.0198,0.0176 -0.0417,0.0261 -0.0664,0.0261 -0.0148,0 -0.0303,-0.0036 -0.0465,-0.0092 -0.0325,-0.0113 -0.0544,-0.0169 -0.0649,-0.0169 -0.017,0 -0.0367,0.0098 -0.0593,0.0289 -0.0423,0.036 -0.0938,0.1051 -0.1531,0.2081l0.0847 0.3556c0.0134,0.0544 0.0247,0.0868 0.0331,0.0974 0.0092,0.0106 0.0184,0.0162 0.0268,0.0162 0.0149,0 0.0318,-0.0085 0.0508,-0.024 0.0381,-0.0317 0.0706,-0.0733 0.0974,-0.1241l0.036 0.019c-0.0431,0.0811 -0.0988,0.1489 -0.1651,0.2025 -0.0381,0.0303 -0.0699,0.0451 -0.096,0.0451 -0.0388,0 -0.0698,-0.0218 -0.0924,-0.0649 -0.0141,-0.0268 -0.0444,-0.1425 -0.0896,-0.3471 -0.108,0.1863 -0.194,0.3069 -0.2589,0.3605 -0.0417,0.0346 -0.0826,0.0515 -0.1214,0.0515 -0.0275,0 -0.0529,-0.0098 -0.0755,-0.0296 -0.0169,-0.0155 -0.0247,-0.036 -0.0247,-0.0614 0,-0.0225 0.0071,-0.0416 0.0226,-0.0564 0.0148,-0.0155 0.0339,-0.0233 0.0557,-0.0233 0.0219,0 0.0452,0.0113 0.0699,0.0332 0.0183,0.0162 0.0317,0.024 0.0416,0.024 0.0085,0 0.0191,-0.0057 0.0318,-0.0163 0.0324,-0.0268 0.0769,-0.0832 0.1326,-0.17 0.0557,-0.0868 0.0924,-0.1496 0.1094,-0.1877 -0.0424,-0.1679 -0.0657,-0.2561 -0.0692,-0.266 -0.0155,-0.0444 -0.0367,-0.0762 -0.0621,-0.0945 -0.0254,-0.0191 -0.0628,-0.0282 -0.1122,-0.0282 -0.0162,0 -0.0345,0.0007 -0.055,0.0021l0 -0.0374 0.2759 -0.0487z"/>
  <path class="fil2" d="M20.9413 1.0972l-0.2131 2.3311c-0.0113,0.1093 -0.0162,0.1806 -0.0162,0.2152 0,0.055 0.0098,0.0973 0.031,0.1263 0.0261,0.0395 0.0614,0.0691 0.1058,0.0889 0.0452,0.019 0.1207,0.0289 0.2265,0.0289l-0.0226 0.0762 -1.1034 0 0.0225 -0.0762 0.0473 0c0.0896,0 0.163,-0.0198 0.2194,-0.0579 0.0395,-0.0268 0.0706,-0.0698 0.0932,-0.1305 0.0148,-0.043 0.0296,-0.1432 0.043,-0.302l0.0332 -0.3556 -0.8023 0 -0.285 0.3867c-0.0649,0.0868 -0.1051,0.1496 -0.1221,0.187 -0.0162,0.0381 -0.0246,0.0733 -0.0246,0.1065 0,0.0444 0.0176,0.0818 0.0536,0.1136 0.036,0.0317 0.0952,0.0494 0.1778,0.0522l-0.0226 0.0762 -0.829 0 0.0226 -0.0762c0.1023,-0.0042 0.1919,-0.0388 0.2702,-0.1023 0.0776,-0.0642 0.1933,-0.2011 0.3478,-0.4106l1.6743 -2.2775 0.0727 0zm-0.4093 0.6879l-0.8128 1.1056 0.7049 0 0.1079 -1.1056z"/>
  <path class="fil2" d="M21.9022 2.3036l0.0642 -0.6117c0.0176,-0.1735 0.036,-0.2907 0.0536,-0.3513 0.0261,-0.0868 0.0628,-0.1489 0.1108,-0.187 0.0472,-0.0381 0.1009,-0.0564 0.1601,-0.0564 0.0494,0 0.0889,0.0134 0.1179,0.0409 0.0289,0.0275 0.043,0.0628 0.043,0.1058 0,0.031 -0.0064,0.0663 -0.0205,0.1051 -0.0176,0.0522 -0.0691,0.1672 -0.1531,0.345l-0.285 0.6096 -0.091 0z"/>
  <path class="fil2" d="M22.6183 3.8742c0.0339,0.036 0.0593,0.072 0.0762,0.1079 0.0127,0.0247 0.0331,0.0896 0.0614,0.1955l0.091 -0.1369c0.024,-0.0332 0.0529,-0.0642 0.0875,-0.0945 0.0345,-0.0297 0.0649,-0.0501 0.091,-0.0614 0.0169,-0.0071 0.0346,-0.0106 0.055,-0.0106 0.0297,0 0.0529,0.0085 0.0706,0.024 0.0176,0.0155 0.0268,0.0353 0.0268,0.0578 0,0.0261 -0.0057,0.0445 -0.0155,0.0537 -0.0198,0.0176 -0.0417,0.0261 -0.0664,0.0261 -0.0148,0 -0.0303,-0.0036 -0.0465,-0.0092 -0.0325,-0.0113 -0.0544,-0.0169 -0.0649,-0.0169 -0.017,0 -0.0367,0.0098 -0.0593,0.0289 -0.0423,0.036 -0.0938,0.1051 -0.1531,0.2081l0.0847 0.3556c0.0134,0.0544 0.0247,0.0868 0.0331,0.0974 0.0092,0.0106 0.0184,0.0162 0.0268,0.0162 0.0149,0 0.0318,-0.0085 0.0508,-0.024 0.0381,-0.0317 0.0706,-0.0733 0.0974,-0.1241l0.036 0.019c-0.0431,0.0811 -0.0988,0.1489 -0.1651,0.2025 -0.0381,0.0303 -0.0699,0.0451 -0.096,0.0451 -0.0388,0 -0.0698,-0.0218 -0.0924,-0.0649 -0.0141,-0.0268 -0.0444,-0.1425 -0.0896,-0.3471 -0.108,0.1863 -0.194,0.3069 -0.2589,0.3605 -0.0417,0.0346 -0.0826,0.0515 -0.1214,0.0515 -0.0275,0 -0.0529,-0.0098 -0.0755,-0.0296 -0.0169,-0.0155 -0.0247,-0.036 -0.0247,-0.0614 0,-0.0225 0.0071,-0.0416 0.0226,-0.0564 0.0148,-0.0155 0.0339,-0.0233 0.0557,-0.0233 0.0219,0 0.0452,0.0113 0.0699,0.0332 0.0183,0.0162 0.0317,0.024 0.0416,0.024 0.0085,0 0.0191,-0.0057 0.0318,-0.0163 0.0324,-0.0268 0.0769,-0.0832 0.1326,-0.17 0.0557,-0.0868 0.0924,-0.1496 0.1094,-0.1877 -0.0424,-0.1679 -0.0657,-0.2561 -0.0692,-0.266 -0.0155,-0.0444 -0.0367,-0.0762 -0.0621,-0.0945 -0.0254,-0.0191 -0.0628,-0.0282 -0.1122,-0.0282 -0.0162,0 -0.0345,0.0007 -0.055,0.0021l0 -0.0374 0.2759 -0.0487z"/>
  <path class="fil3 str1" d="M11.0427 3.6805c2.4307,4.5125 3.3578,9.478 3.0657,14.9892"/>
  <line class="fil3 str2" x1="14.0369" y1="13.8826" x2="19.9377" y2= "13.042" />
  <path class="fil2" d="M21.3772 11.0689l0 1.385c0.1524,-0.1679 0.2738,-0.2759 0.3634,-0.3239 0.0896,-0.0472 0.1792,-0.0712 0.2688,-0.0712 0.1072,0 0.1997,0.0296 0.2773,0.0889 0.0769,0.0592 0.134,0.1524 0.1714,0.2794 0.0261,0.0882 0.0388,0.249 0.0388,0.4833l0 0.6702c0,0.1193 0.0099,0.2018 0.0297,0.2456 0.0134,0.0331 0.0366,0.0592 0.0698,0.079 0.0332,0.019 0.0938,0.0289 0.182,0.0289l0 0.0741 -0.9299 0 0 -0.0741 0.0431 0c0.0882,0 0.1495,-0.0141 0.1841,-0.0409 0.0346,-0.0268 0.0586,-0.0663 0.072,-0.1185 0.0042,-0.0219 0.0063,-0.0868 0.0063,-0.1941l0 -0.6702c0,-0.2068 -0.0106,-0.3422 -0.0317,-0.4071 -0.0219,-0.0649 -0.0558,-0.1129 -0.1023,-0.1454 -0.0473,-0.0324 -0.1037,-0.0487 -0.1701,-0.0487 -0.067,0 -0.1375,0.0177 -0.2102,0.0537 -0.0734,0.0359 -0.1609,0.1079 -0.2625,0.2173l0 1.0004c0,0.1292 0.0071,0.2096 0.0212,0.2413 0.0148,0.0318 0.0416,0.0586 0.0811,0.0798 0.0388,0.0211 0.1066,0.0324 0.2032,0.0324l0 0.0741 -0.9384 0 0 -0.0741c0.084,0 0.1503,-0.0134 0.1983,-0.0395 0.0275,-0.0141 0.0501,-0.0402 0.0663,-0.0783 0.017,-0.0388 0.0247,-0.1171 0.0247,-0.2357l0 -1.7137c0,-0.2166 -0.0049,-0.3493 -0.0155,-0.3994 -0.0099,-0.0494 -0.0261,-0.0832 -0.0473,-0.1009 -0.0211,-0.0183 -0.0501,-0.0268 -0.0861,-0.0268 -0.0289,0 -0.0755,0.0106 -0.1404,0.0332l-0.0289 -0.0727 0.5666 -0.2314 0.0952 0z"/>
  <path class="fil2" d="M24.5974 12.1145l0 1.1472c0,0.2195 0.0049,0.3535 0.0155,0.4022 0.0106,0.0494 0.0268,0.0832 0.0494,0.1023 0.0233,0.0198 0.0494,0.0289 0.0797,0.0289 0.0431,0 0.0911,-0.0113 0.1447,-0.0353l0.0289 0.0727 -0.5666 0.2336 -0.0924 0 0 -0.4008c-0.163,0.1764 -0.2871,0.2872 -0.3725,0.3323 -0.0854,0.0459 -0.1757,0.0685 -0.2702,0.0685 -0.1066,0 -0.1983,-0.0304 -0.2766,-0.0918 -0.0776,-0.0613 -0.132,-0.1404 -0.1623,-0.237 -0.0303,-0.0967 -0.0451,-0.2329 -0.0451,-0.4093l0 -0.8452c0,-0.0896 -0.0099,-0.1517 -0.029,-0.1863 -0.019,-0.0345 -0.048,-0.0606 -0.0861,-0.0797 -0.0373,-0.0183 -0.1065,-0.0268 -0.2053,-0.0254l0 -0.0769 0.6633 0 0 1.2672c0,0.1764 0.031,0.2921 0.0924,0.3471 0.0614,0.0557 0.1354,0.0833 0.2222,0.0833 0.0593,0 0.1263,-0.0191 0.2011,-0.0558 0.0755,-0.0374 0.1644,-0.1086 0.2681,-0.2131l0 -1.0731c0,-0.1072 -0.0197,-0.1799 -0.0592,-0.218 -0.0396,-0.0374 -0.1207,-0.0579 -0.2449,-0.0607l0 -0.0769 0.6449 0zm-0.3471 -0.9793l-0.6096 0.7126 -0.0706 0 0.2173 -0.7126 0.4629 0z"/>
  <path class="fil2" d="M26.7 13.4275l-0.0233 0.5807 -1.67 0 0 -0.0741 1.2566 -1.675 -0.6202 0c-0.1334,0 -0.2209,0.0092 -0.2625,0.0261 -0.0409,0.0177 -0.0748,0.0501 -0.1009,0.0981 -0.0374,0.0692 -0.0585,0.1545 -0.0642,0.2568l-0.0825 0 0.012 -0.5256 1.5874 0 0 0.0769 -1.2685 1.6785 0.69 0c0.1446,0 0.2427,-0.012 0.2949,-0.0367 0.0515,-0.024 0.0931,-0.0663 0.1249,-0.127 0.0219,-0.0437 0.0402,-0.1369 0.0557,-0.2787l0.0706 0z"/>
  <path class="fil2" d="M27.8592 12.0588c0.2865,0 0.5165,0.1093 0.6908,0.3266 0.1474,0.1863 0.2208,0.4001 0.2208,0.6407 0,0.17 -0.0409,0.3415 -0.1221,0.515 -0.0811,0.1736 -0.1933,0.3048 -0.3358,0.393 -0.1425,0.0882 -0.3013,0.132 -0.4763,0.132 -0.2857,0 -0.5122,-0.1136 -0.6801,-0.3408 -0.1418,-0.1919 -0.2131,-0.4071 -0.2131,-0.6449 0,-0.1743 0.0431,-0.3464 0.1291,-0.5179 0.0861,-0.1714 0.1997,-0.2984 0.3401,-0.3803 0.1404,-0.0825 0.2893,-0.1234 0.4466,-0.1234zm-0.0642 0.1347c-0.0727,0 -0.146,0.0212 -0.2201,0.0649 -0.0734,0.0438 -0.1334,0.1193 -0.1785,0.2286 -0.0459,0.1087 -0.0685,0.2484 -0.0685,0.4191 0,0.2759 0.0551,0.5137 0.1644,0.7133 0.1094,0.1997 0.254,0.2999 0.4332,0.2999 0.1334,0 0.2435,-0.055 0.3309,-0.1651 0.0868,-0.1108 0.1299,-0.2999 0.1299,-0.5687 0,-0.3365 -0.072,-0.6011 -0.2173,-0.7937 -0.0974,-0.1327 -0.2223,-0.1983 -0.374,-0.1983z"/>
  <path class="fil2" d="M29.5999 11.4929l0 0.6216 0.4423 0 0 0.1446 -0.4423 0 0 1.2284c0,0.1228 0.0176,0.2053 0.0529,0.2477 0.0346,0.043 0.0797,0.0642 0.1347,0.0642 0.0459,0 0.0896,-0.0142 0.1327,-0.0424 0.0423,-0.0282 0.0755,-0.0698 0.0995,-0.1249l0.0804 0c-0.0487,0.1348 -0.1164,0.2364 -0.2046,0.3048 -0.0882,0.0685 -0.1792,0.1023 -0.2731,0.1023 -0.0635,0 -0.1255,-0.0176 -0.1862,-0.0529 -0.0607,-0.0352 -0.1051,-0.0853 -0.1341,-0.151 -0.0289,-0.0649 -0.0437,-0.1658 -0.0437,-0.3026l0 -1.2736 -0.2992 0 0 -0.0677c0.0755,-0.0303 0.1531,-0.0818 0.2322,-0.1538 0.079,-0.0727 0.1502,-0.1587 0.2116,-0.2575 0.0318,-0.0522 0.0762,-0.1482 0.1327,-0.2872l0.0642 0z"/>
  <path class="fil2" d="M30.7761 11.4929l0 0.6216 0.4423 0 0 0.1446 -0.4423 0 0 1.2284c0,0.1228 0.0176,0.2053 0.0529,0.2477 0.0346,0.043 0.0797,0.0642 0.1347,0.0642 0.0459,0 0.0896,-0.0142 0.1327,-0.0424 0.0423,-0.0282 0.0755,-0.0698 0.0995,-0.1249l0.0804 0c-0.0487,0.1348 -0.1164,0.2364 -0.2046,0.3048 -0.0882,0.0685 -0.1792,0.1023 -0.2731,0.1023 -0.0635,0 -0.1255,-0.0176 -0.1862,-0.0529 -0.0607,-0.0352 -0.1051,-0.0853 -0.1341,-0.151 -0.0289,-0.0649 -0.0437,-0.1658 -0.0437,-0.3026l0 -1.2736 -0.2992 0 0 -0.0677c0.0755,-0.0303 0.1531,-0.0818 0.2322,-0.1538 0.079,-0.0727 0.1502,-0.1587 0.2116,-0.2575 0.0318,-0.0522 0.0762,-0.1482 0.1327,-0.2872l0.0642 0z"/>
  <path class="fil3 str1" d="M58.6101 3.6805c-2.4307,4.5125 -3.3578,9.478 -3.0657,14.9892"/>
 </g>
</svg>
