<?xml version="1.0" encoding="UTF-8"?>
<!DOCTYPE svg PUBLIC "-//W3C//DTD SVG 1.1//EN" "http://www.w3.org/Graphics/SVG/1.1/DTD/svg11.dtd">
<!-- Creator: CorelDRAW -->
<svg xmlns="http://www.w3.org/2000/svg" xml:space="preserve" width="65mm" height="73mm" style="shape-rendering:geometricPrecision; text-rendering:geometricPrecision; image-rendering:optimizeQuality; fill-rule:evenodd; clip-rule:evenodd"
viewBox="0 0 65 73">
 <defs>
  <style type="text/css">
   <![CDATA[
    .str2 {stroke:#1F1A17;stroke-width:0.1764}
    .str0 {stroke:#131516;stroke-width:0.1764}
    .str1 {stroke:#1F1A17;stroke-width:0.3528}
    .fil1 {fill:none}
    .fil2 {fill:#1F1A17;fill-rule:nonzero}
    .fil0 {fill:url(#id0)}
   ]]>
  </style>
  <linearGradient id="id0" gradientUnits="userSpaceOnUse" x1="56.1801" y1="43.7607" x2="57.3635" y2="43.7607">
   <stop offset="0" style="stop-color:white"/>
   <stop offset="1" style="stop-color:white"/>
  </linearGradient>
 </defs>
 <g id="Layer_x0020_1">
  <metadata id="CorelCorpID_0Corel-Layer"/>
  <circle class="fil0 str0" cx="56.7718" cy="43.7607" r="0.591742"/>
  <circle class="fil0 str0" cx="8.5788" cy="43.4378" r="0.591742"/>
  <circle class="fil0 str0" cx="32.5198" cy="19.52" r="0.591742"/>
  <line class="fil1 str1" x1="8.5788" y1="42.8461" x2="31.9281" y2= "19.52" />
  <line class="fil1 str1" x1="56.3308" y1="43.0215" x2="32.9815" y2= "19.6954" />
  <line class="fil1 str1" x1="8.5788" y1="44.0295" x2="8.5389" y2= "61.4924" />
  <line class="fil1 str1" x1="56.8388" y1="44.0295" x2="56.7989" y2= "61.4924" />
  <line class="fil1 str1" x1="8.5389" y1="61.4924" x2="56.7989" y2= "61.4924" />
  <polygon class="fil1 str0" points="56.8233,62.5278 55.9421,63.625 55.0608,64.7221 56.8233,64.7221 58.5859,64.7221 57.7046,63.625 "/>
  <g id="_155464896">
   <line id="_155789208" class="fil1 str0" x1="54.443" y1="64.7277" x2="58.8315" y2= "64.7277" />
   <g>
    <line id="_155824576" class="fil1 str0" x1="54.8658" y1="64.7881" x2="54.4833" y2= "65.6537" />
    <line id="_155789280" class="fil1 str0" x1="55.6491" y1="64.7881" x2="55.2666" y2= "65.6537" />
    <line id="_155450104" class="fil1 str0" x1="56.4324" y1="64.7881" x2="56.0499" y2= "65.6537" />
    <line id="_155789056" class="fil1 str0" x1="57.2157" y1="64.7881" x2="56.8332" y2= "65.6537" />
    <line id="_155789352" class="fil1 str0" x1="57.999" y1="64.7881" x2="57.6165" y2= "65.6537" />
    <line id="_156459744" class="fil1 str0" x1="58.7822" y1="64.7881" x2="58.3998" y2= "65.6537" />
   </g>
  </g>
  <circle class="fil0 str0" cx="56.8234" cy="62.0107" r="0.484484"/>
  <polygon class="fil1 str0" points="8.5381,61.5941 7.6568,62.6912 6.7755,63.7884 8.5381,63.7884 10.3006,63.7884 9.4193,62.6912 "/>
  <g id="_155523936">
   <line id="_156051528" class="fil1 str0" x1="6.1338" y1="65.0267" x2="10.5223" y2= "65.0267" />
   <g>
    <line id="_155840192" class="fil1 str0" x1="6.5566" y1="65.0871" x2="6.1741" y2= "65.9527" />
    <line id="_157876208" class="fil1 str0" x1="7.3399" y1="65.0871" x2="6.9574" y2= "65.9527" />
    <line id="_155523624" class="fil1 str0" x1="8.1232" y1="65.0871" x2="7.7407" y2= "65.9527" />
    <line id="_155527152" class="fil1 str0" x1="8.9064" y1="65.0871" x2="8.524" y2= "65.9527" />
    <line id="_155525008" class="fil1 str0" x1="9.6897" y1="65.0871" x2="9.3073" y2= "65.9527" />
    <line id="_156023320" class="fil1 str0" x1="10.473" y1="65.0871" x2="10.0905" y2= "65.9527" />
   </g>
  </g>
  <circle class="fil1 str0" cx="8.53806" cy="64.4152" r="0.484484"/>
  <path class="fil2" d="M5.1287 41.1817l-0.2131 2.3311c-0.0113,0.1093 -0.0162,0.1806 -0.0162,0.2152 0,0.055 0.0098,0.0973 0.031,0.1263 0.0261,0.0395 0.0614,0.0691 0.1058,0.0889 0.0452,0.019 0.1207,0.0289 0.2265,0.0289l-0.0226 0.0762 -1.1034 0 0.0225 -0.0762 0.0473 0c0.0896,0 0.163,-0.0198 0.2194,-0.0579 0.0395,-0.0268 0.0706,-0.0698 0.0932,-0.1305 0.0148,-0.043 0.0296,-0.1432 0.043,-0.302l0.0332 -0.3556 -0.8023 0 -0.285 0.3867c-0.0649,0.0868 -0.1051,0.1496 -0.1221,0.187 -0.0162,0.0381 -0.0246,0.0733 -0.0246,0.1065 0,0.0444 0.0176,0.0818 0.0536,0.1136 0.036,0.0317 0.0952,0.0494 0.1778,0.0522l-0.0226 0.0762 -0.829 0 0.0226 -0.0762c0.1023,-0.0042 0.1919,-0.0388 0.2702,-0.1023 0.0776,-0.0642 0.1933,-0.2011 0.3478,-0.4106l1.6743 -2.2775 0.0727 0zm-0.4093 0.6879l-0.8128 1.1056 0.7049 0 0.1079 -1.1056z"/>
  <path class="fil2" d="M59.3471 41.5625l0.029 -0.077 1.0004 0c0.1679,0 0.3175,0.0262 0.4495,0.0791 0.1312,0.0522 0.23,0.1249 0.2956,0.2187 0.0656,0.0938 0.0981,0.1933 0.0981,0.2977 0,0.1616 -0.0586,0.3069 -0.175,0.4375 -0.1164,0.1298 -0.3062,0.2265 -0.5694,0.2878 0.17,0.0635 0.2942,0.1475 0.3746,0.2526 0.0798,0.1044 0.12,0.2195 0.12,0.345 0,0.139 -0.036,0.2724 -0.108,0.3994 -0.0712,0.1263 -0.1636,0.2251 -0.2758,0.2949 -0.1122,0.0706 -0.2477,0.1221 -0.4064,0.1552 -0.1129,0.0233 -0.2893,0.0353 -0.5292,0.0353l-1.0273 0 0.0268 -0.0762c0.108,-0.0028 0.1807,-0.0134 0.2195,-0.031 0.055,-0.024 0.0945,-0.0551 0.1178,-0.0932 0.0332,-0.0522 0.0769,-0.1721 0.1319,-0.3598l0.5024 -1.6969c0.043,-0.1432 0.0642,-0.2441 0.0642,-0.3019 0,-0.0508 -0.0191,-0.091 -0.0565,-0.1207 -0.0381,-0.0296 -0.11,-0.0444 -0.2166,-0.0444 -0.0232,0 -0.0451,-0.0007 -0.0656,-0.0021zm0.4191 1.1634c0.0896,0.0028 0.1545,0.0042 0.1948,0.0042 0.2864,0 0.4995,-0.062 0.6399,-0.1869 0.1397,-0.1249 0.2095,-0.2808 0.2095,-0.4685 0,-0.1418 -0.043,-0.2526 -0.1284,-0.3316 -0.0853,-0.079 -0.2215,-0.1186 -0.4092,-0.1186 -0.0494,0 -0.1129,0.0078 -0.1898,0.0247l-0.3168 1.0767zm-0.4071 1.3808c0.1489,0.0197 0.2653,0.0289 0.3493,0.0289 0.2152,0 0.4057,-0.0649 0.5715,-0.194 0.1665,-0.1299 0.249,-0.3055 0.249,-0.5271 0,-0.1693 -0.0508,-0.302 -0.1538,-0.3972 -0.1023,-0.0953 -0.2681,-0.1425 -0.4967,-0.1425 -0.0444,0 -0.0981,0.0021 -0.1616,0.0063l-0.3577 1.2256z"/>
  <path class="fil2" d="M3.568 59.1021l0.0247 -0.077 0.8953 0c0.3789,0 0.6597,0.0438 0.8417,0.1306 0.1828,0.0868 0.3288,0.2236 0.4375,0.4099 0.1086,0.187 0.1637,0.3873 0.1637,0.6011 0,0.1828 -0.0318,0.3613 -0.0946,0.5341 -0.0628,0.1729 -0.1333,0.3112 -0.2131,0.4156 -0.079,0.1037 -0.2003,0.2187 -0.3647,0.3443 -0.1637,0.1249 -0.3415,0.218 -0.5327,0.278 -0.1919,0.06 -0.4311,0.0896 -0.7176,0.0896l-1.1867 0 0.0268 -0.0762c0.1094,-0.0028 0.182,-0.0127 0.2194,-0.0289 0.0551,-0.024 0.096,-0.0558 0.1221,-0.0953 0.0395,-0.0578 0.0847,-0.1742 0.1341,-0.3492l0.496 -1.6955c0.0388,-0.1333 0.0578,-0.2384 0.0578,-0.3139 0,-0.0537 -0.0176,-0.0953 -0.0536,-0.1242 -0.036,-0.0289 -0.1058,-0.043 -0.211,-0.043l-0.0451 0zm0.7338 0.0783l-0.6075 2.0983c-0.0459,0.1566 -0.0685,0.254 -0.0685,0.2914 0,0.0218 0.0071,0.043 0.0219,0.0642 0.0141,0.0204 0.0339,0.0338 0.0586,0.0409 0.0359,0.0127 0.0938,0.019 0.1735,0.019 0.2166,0 0.4177,-0.0225 0.6026,-0.0677 0.1855,-0.0444 0.3372,-0.1108 0.4558,-0.199 0.1686,-0.1284 0.3026,-0.3048 0.4035,-0.5291 0.1002,-0.2251 0.1503,-0.4805 0.1503,-0.7669 0,-0.3239 -0.0769,-0.5652 -0.2314,-0.7225 -0.1538,-0.1581 -0.3796,-0.2371 -0.6759,-0.2371 -0.0727,0 -0.1672,0.0028 -0.2829,0.0085z"/>
  <path class="fil2" d="M60.0908 59.4165l-0.3203 1.1085 0.2624 0c0.1877,0 0.3232,-0.029 0.4078,-0.0861 0.084,-0.0572 0.156,-0.163 0.2166,-0.3175l0.0769 0 -0.2878 1.0174 -0.0826 0c0.0247,-0.0854 0.0374,-0.1588 0.0374,-0.2194 0,-0.0593 -0.012,-0.1066 -0.036,-0.1426 -0.0247,-0.0359 -0.0571,-0.0621 -0.0994,-0.0797 -0.0424,-0.0169 -0.1306,-0.0254 -0.266,-0.0254l-0.266 0 -0.271 0.9278c-0.0261,0.0896 -0.0395,0.1581 -0.0395,0.2046 0,0.036 0.0177,0.0678 0.0515,0.0953 0.024,0.019 0.0826,0.0289 0.1757,0.0289l0.2484 0c0.2688,0 0.484,-0.048 0.6455,-0.1425 0.1623,-0.0953 0.3077,-0.2611 0.4354,-0.4967l0.0769 0 -0.2646 0.7796 -2.1667 0 0.0268 -0.0762c0.1079,-0.0028 0.1799,-0.0127 0.2173,-0.0289 0.055,-0.0254 0.0952,-0.0572 0.1199,-0.0953 0.0374,-0.0564 0.0812,-0.175 0.132,-0.3556l0.4924 -1.6912c0.0381,-0.1361 0.0579,-0.2399 0.0579,-0.3118 0,-0.0522 -0.0184,-0.0932 -0.0551,-0.1228 -0.0366,-0.0296 -0.1079,-0.0444 -0.2137,-0.0444l-0.0438 0 0.0247 -0.077 2.0137 0 -0.1736 0.676 -0.0769 0c0.0099,-0.0635 0.0148,-0.1164 0.0148,-0.1588 0,-0.0734 -0.0176,-0.1347 -0.0536,-0.1841 -0.0473,-0.0635 -0.115,-0.1115 -0.2046,-0.1447 -0.0663,-0.0247 -0.2187,-0.0374 -0.4572,-0.0374l-0.3556 0z"/>
  <line class="fil1 str2" x1="7.0581" y1="34.4384" x2="33.0609" y2= "8.3316" />
  <g>
   <path class="fil2" d="M6.9699 37.8059l0 -3.4637 0.1764 0 0 3.4637 -0.1764 0zm-0.061 0.3726l0.2984 -0.1935 -0.2984 0.0001 0.9096 -1.4032 0.2984 0.1934 -0.9096 1.4032 -0.2984 0zm0 0l0.2984 0 -0.1491 0.23 -0.1493 -0.23zm-0.7611 -1.4999l0.1491 -0.0968 0.9104 1.4032 -0.2984 0.1935 -0.9103 -1.4032 0.1492 -0.0967z"/>
  </g>
  <g>
   <path class="fil2" d="M10.3715 34.4035l0 -3.4637 0.1764 0 0 3.4637 -0.1764 0zm-0.061 0.3726l0.2984 -0.1935 -0.2984 0.0001 0.9096 -1.4032 0.2984 0.1934 -0.9096 1.4032 -0.2984 0zm0 0l0.2984 0 -0.1491 0.23 -0.1493 -0.23zm-0.7611 -1.4999l0.1491 -0.0968 0.9104 1.4032 -0.2984 0.1935 -0.9103 -1.4032 0.1492 -0.0967z"/>
  </g>
  <g>
   <path class="fil2" d="M22.7023 22.0719l0 -3.4637 0.1764 0 0 3.4637 -0.1764 0zm-0.061 0.3726l0.2984 -0.1935 -0.2984 0.0001 0.9096 -1.4032 0.2984 0.1934 -0.9096 1.4032 -0.2984 0zm0 0l0.2984 0 -0.1491 0.23 -0.1493 -0.23zm-0.7611 -1.4999l0.1491 -0.0968 0.9104 1.4032 -0.2984 0.1935 -0.9103 -1.4032 0.1492 -0.0967z"/>
  </g>
  <g>
   <path class="fil2" d="M16.8558 28.1318l0 -3.4637 0.1764 0 0 3.4637 -0.1764 0zm-0.061 0.3726l0.2984 -0.1935 -0.2984 0.0001 0.9096 -1.4032 0.2984 0.1934 -0.9096 1.4032 -0.2984 0zm0 0l0.2984 0 -0.1491 0.23 -0.1493 -0.23zm-0.7611 -1.4999l0.1491 -0.0968 0.9104 1.4032 -0.2984 0.1935 -0.9103 -1.4032 0.1492 -0.0967z"/>
  </g>
  <g>
   <path class="fil2" d="M13.3199 31.4559l0 -3.4637 0.1764 0 0 3.4637 -0.1764 0zm-0.061 0.3726l0.2984 -0.1935 -0.2984 0.0001 0.9096 -1.4032 0.2984 0.1934 -0.9096 1.4032 -0.2984 0zm0 0l0.2984 0 -0.1491 0.23 -0.1493 -0.23zm-0.7611 -1.4999l0.1491 -0.0968 0.9104 1.4032 -0.2984 0.1935 -0.9103 -1.4032 0.1492 -0.0967z"/>
  </g>
  <g>
   <path class="fil2" d="M19.6699 25.1059l0 -3.4637 0.1764 0 0 3.4637 -0.1764 0zm-0.061 0.3726l0.2984 -0.1935 -0.2984 0.0001 0.9096 -1.4032 0.2984 0.1934 -0.9096 1.4032 -0.2984 0zm0 0l0.2984 0 -0.1491 0.23 -0.1493 -0.23zm-0.7611 -1.4999l0.1491 -0.0968 0.9104 1.4032 -0.2984 0.1935 -0.9103 -1.4032 0.1492 -0.0967z"/>
  </g>
  <g>
   <path class="fil2" d="M26.0199 18.7559l0 -3.4637 0.1764 0 0 3.4637 -0.1764 0zm-0.061 0.3726l0.2984 -0.1935 -0.2984 0.0001 0.9096 -1.4032 0.2984 0.1934 -0.9096 1.4032 -0.2984 0zm0 0l0.2984 0 -0.1491 0.23 -0.1493 -0.23zm-0.7611 -1.4999l0.1491 -0.0968 0.9104 1.4032 -0.2984 0.1935 -0.9103 -1.4032 0.1492 -0.0967z"/>
  </g>
  <line class="fil1 str2" x1="7.1921" y1="38.148" x2="33.0739" y2= "12.1627" />
  <g>
   <path class="fil2" d="M29.2929 15.4821l0 -3.4637 0.1764 0 0 3.4637 -0.1764 0zm-0.061 0.3726l0.2984 -0.1935 -0.2984 0.0001 0.9096 -1.4032 0.2984 0.1934 -0.9096 1.4032 -0.2984 0zm0 0l0.2984 0 -0.1491 0.23 -0.1493 -0.23zm-0.7611 -1.4999l0.1491 -0.0968 0.9104 1.4032 -0.2984 0.1935 -0.9103 -1.4032 0.1492 -0.0967z"/>
  </g>
  <line class="fil1 str2" x1="59.2109" y1="34.4382" x2="33.2083" y2= "8.3316" />
  <g>
   <path class="fil2" d="M59.1227 37.8057l0 -3.4637 0.1764 0 0 3.4637 -0.1764 0zm-0.061 0.3726l0.2984 -0.1935 -0.2984 0.0001 0.9096 -1.4032 0.2984 0.1934 -0.9096 1.4032 -0.2984 0zm0 0l0.2984 0 -0.1491 0.23 -0.1493 -0.23zm-0.7611 -1.4999l0.1491 -0.0968 0.9104 1.4032 -0.2984 0.1935 -0.9103 -1.4032 0.1492 -0.0967z"/>
  </g>
  <g>
   <path class="fil2" d="M55.7211 34.4033l0 -3.4637 0.1764 0 0 3.4637 -0.1764 0zm-0.061 0.3726l0.2984 -0.1935 -0.2984 0.0001 0.9096 -1.4032 0.2984 0.1934 -0.9096 1.4032 -0.2984 0zm0 0l0.2984 0 -0.1491 0.23 -0.1493 -0.23zm-0.7611 -1.4999l0.1491 -0.0968 0.9104 1.4032 -0.2984 0.1935 -0.9103 -1.4032 0.1492 -0.0967z"/>
  </g>
  <g>
   <path class="fil2" d="M43.3903 22.0717l0 -3.4637 0.1764 0 0 3.4637 -0.1764 0zm-0.061 0.3726l0.2984 -0.1935 -0.2984 0.0001 0.9096 -1.4032 0.2984 0.1934 -0.9096 1.4032 -0.2984 0zm0 0l0.2984 0 -0.1491 0.23 -0.1493 -0.23zm-0.7611 -1.4999l0.1491 -0.0968 0.9104 1.4032 -0.2984 0.1935 -0.9103 -1.4032 0.1492 -0.0967z"/>
  </g>
  <g>
   <path class="fil2" d="M49.2368 28.1316l0 -3.4637 0.1764 0 0 3.4637 -0.1764 0zm-0.061 0.3726l0.2984 -0.1935 -0.2984 0.0001 0.9096 -1.4032 0.2984 0.1934 -0.9096 1.4032 -0.2984 0zm0 0l0.2984 0 -0.1491 0.23 -0.1493 -0.23zm-0.7611 -1.4999l0.1491 -0.0968 0.9104 1.4032 -0.2984 0.1935 -0.9103 -1.4032 0.1492 -0.0967z"/>
  </g>
  <g>
   <path class="fil2" d="M52.7727 31.4557l0 -3.4637 0.1764 0 0 3.4637 -0.1764 0zm-0.061 0.3726l0.2984 -0.1935 -0.2984 0.0001 0.9096 -1.4032 0.2984 0.1934 -0.9096 1.4032 -0.2984 0zm0 0l0.2984 0 -0.1491 0.23 -0.1493 -0.23zm-0.7611 -1.4999l0.1491 -0.0968 0.9104 1.4032 -0.2984 0.1935 -0.9103 -1.4032 0.1492 -0.0967z"/>
  </g>
  <g>
   <path class="fil2" d="M46.4227 25.1057l0 -3.4637 0.1764 0 0 3.4637 -0.1764 0zm-0.061 0.3726l0.2984 -0.1935 -0.2984 0.0001 0.9096 -1.4032 0.2984 0.1934 -0.9096 1.4032 -0.2984 0zm0 0l0.2984 0 -0.1491 0.23 -0.1493 -0.23zm-0.7611 -1.4999l0.1491 -0.0968 0.9104 1.4032 -0.2984 0.1935 -0.9103 -1.4032 0.1492 -0.0967z"/>
  </g>
  <g>
   <path class="fil2" d="M40.0727 18.7557l0 -3.4637 0.1764 0 0 3.4637 -0.1764 0zm-0.061 0.3726l0.2984 -0.1935 -0.2984 0.0001 0.9096 -1.4032 0.2984 0.1934 -0.9096 1.4032 -0.2984 0zm0 0l0.2984 0 -0.1491 0.23 -0.1493 -0.23zm-0.7611 -1.4999l0.1491 -0.0968 0.9104 1.4032 -0.2984 0.1935 -0.9103 -1.4032 0.1492 -0.0967z"/>
  </g>
  <g>
   <path class="fil2" d="M33.0134 11.7953l0 -3.4637 0.1764 0 0 3.4637 -0.1764 0zm-0.061 0.3726l0.2984 -0.1935 -0.2984 0.0001 0.9096 -1.4032 0.2984 0.1934 -0.9096 1.4032 -0.2984 0zm0 0l0.2984 0 -0.1491 0.23 -0.1493 -0.23zm-0.7611 -1.4999l0.1491 -0.0968 0.9104 1.4032 -0.2984 0.1935 -0.9103 -1.4032 0.1492 -0.0967z"/>
  </g>
  <line class="fil1 str2" x1="59.0769" y1="38.1478" x2="33.1951" y2= "12.1625" />
  <g>
   <path class="fil2" d="M36.7997 15.4819l0 -3.4637 0.1764 0 0 3.4637 -0.1764 0zm-0.061 0.3726l0.2984 -0.1935 -0.2984 0.0001 0.9096 -1.4032 0.2984 0.1934 -0.9096 1.4032 -0.2984 0zm0 0l0.2984 0 -0.1491 0.23 -0.1493 -0.23zm-0.7611 -1.4999l0.1491 -0.0968 0.9104 1.4032 -0.2984 0.1935 -0.9103 -1.4032 0.1492 -0.0967z"/>
  </g>
  <path class="fil2" d="M46.1313 13.6356l-0.0599 0.2152 -0.345 0c0.0261,0.0741 0.0388,0.1439 0.0388,0.2088 0,0.1821 -0.0769,0.3436 -0.2315,0.4854 -0.1552,0.1426 -0.369,0.2209 -0.6406,0.2357 -0.146,0.0444 -0.2554,0.0967 -0.3288,0.1573 -0.0275,0.0219 -0.0409,0.0445 -0.0409,0.0685 0,0.0275 0.012,0.0522 0.0367,0.0755 0.0254,0.0225 0.0875,0.0458 0.1884,0.0691l0.4007 0.0931c0.2223,0.0523 0.369,0.1143 0.4403,0.1856 0.0705,0.0734 0.1058,0.1573 0.1058,0.2526 0,0.1129 -0.0416,0.2159 -0.1249,0.3097 -0.0839,0.0939 -0.2053,0.1672 -0.3661,0.2202 -0.1609,0.0529 -0.338,0.0797 -0.532,0.0797 -0.1715,0 -0.3267,-0.0205 -0.4671,-0.0614 -0.1411,-0.0402 -0.2413,-0.0952 -0.302,-0.1637 -0.0607,-0.0691 -0.091,-0.1404 -0.091,-0.2131 0,-0.0592 0.0198,-0.1213 0.0586,-0.1848 0.0395,-0.0642 0.0889,-0.1171 0.1481,-0.1588 0.0374,-0.0261 0.1426,-0.0875 0.3161,-0.1855 -0.0635,-0.0494 -0.0952,-0.1044 -0.0952,-0.1637 0,-0.055 0.0282,-0.1136 0.0839,-0.1757 0.0558,-0.0621 0.1743,-0.1298 0.3542,-0.2046 -0.151,-0.0289 -0.2716,-0.0924 -0.3605,-0.1898 -0.0889,-0.0981 -0.1334,-0.2067 -0.1334,-0.3267 0,-0.1954 0.0861,-0.3711 0.2576,-0.5249 0.1714,-0.1545 0.4,-0.2314 0.685,-0.2314 0.1038,0 0.1884,0.0099 0.2547,0.031 0.0657,0.0205 0.1299,0.0529 0.192,0.0967l0.558 0zm-0.7175 0.3245c0,-0.11 -0.0303,-0.1968 -0.0917,-0.2603 -0.0614,-0.0635 -0.1418,-0.0953 -0.2406,-0.0953 -0.1559,0 -0.2843,0.0784 -0.3859,0.235 -0.1009,0.1566 -0.1517,0.3189 -0.1517,0.4889 0,0.1059 0.0324,0.1927 0.0973,0.2604 0.0642,0.0677 0.1433,0.1009 0.2357,0.1009 0.0727,0 0.1432,-0.0198 0.2116,-0.06 0.0685,-0.0395 0.1256,-0.0945 0.1729,-0.1651 0.0466,-0.0705 0.084,-0.1594 0.1115,-0.2688 0.0275,-0.1087 0.0409,-0.187 0.0409,-0.2357zm-0.9899 1.4182c-0.1115,0.0508 -0.1961,0.1164 -0.2533,0.1961 -0.0571,0.0805 -0.0853,0.1588 -0.0853,0.2357 0,0.091 0.0409,0.1665 0.1234,0.2258 0.1186,0.0853 0.2921,0.1277 0.5214,0.1277 0.1969,0 0.3655,-0.0332 0.5052,-0.1002 0.1397,-0.067 0.2095,-0.1531 0.2095,-0.2589 0,-0.0544 -0.0254,-0.1052 -0.0776,-0.1532 -0.0515,-0.0486 -0.1517,-0.0874 -0.3005,-0.1178 -0.0812,-0.0169 -0.2957,-0.0684 -0.6428,-0.1552z"/>
  <path class="fil2" d="M46.7205 15.2499l0 0.3224 -0.0338 0c-0.0268,-0.1016 -0.06,-0.1707 -0.1009,-0.2067 -0.0409,-0.0367 -0.0932,-0.055 -0.1567,-0.055 -0.0486,0 -0.0874,0.0127 -0.1171,0.0381 -0.0296,0.0254 -0.0444,0.0536 -0.0444,0.0846 0,0.0388 0.0113,0.072 0.0331,0.0995 0.0212,0.0282 0.0649,0.0586 0.1306,0.0896l0.1509 0.0734c0.1397,0.0684 0.2096,0.1587 0.2096,0.2702 0,0.0861 -0.0325,0.1552 -0.0974,0.2082 -0.0656,0.0529 -0.1383,0.079 -0.2187,0.079 -0.0578,0 -0.1242,-0.0106 -0.1983,-0.0311 -0.0232,-0.007 -0.0416,-0.0105 -0.0564,-0.0105 -0.0155,0 -0.0282,0.0091 -0.0367,0.0275l-0.0346 0 0 -0.3387 0.0346 0c0.0191,0.0967 0.0558,0.1693 0.1101,0.2187 0.055,0.0487 0.1157,0.0734 0.1834,0.0734 0.0473,0 0.0861,-0.0141 0.1164,-0.0423 0.0297,-0.0275 0.0445,-0.0614 0.0445,-0.1009 0,-0.0473 -0.0162,-0.0875 -0.0501,-0.1193 -0.0332,-0.0324 -0.1002,-0.0733 -0.1997,-0.1234 -0.1002,-0.0494 -0.1658,-0.0946 -0.1968,-0.1341 -0.0311,-0.0395 -0.0466,-0.0889 -0.0466,-0.1489 0,-0.0783 0.0268,-0.1432 0.0804,-0.1954 0.0537,-0.0522 0.1228,-0.0783 0.2075,-0.0783 0.0367,0 0.0818,0.0078 0.1354,0.0233 0.0346,0.0106 0.0586,0.0155 0.0699,0.0155 0.0113,0 0.0197,-0.0021 0.0261,-0.0071 0.0063,-0.0049 0.0134,-0.0155 0.0219,-0.0317l0.0338 0z"/>
  <path class="fil2" d="M47.7549 15.9336l-0.0113 0.2907 -0.8354 0 0 -0.0374 0.6287 -0.8368 -0.3105 0c-0.0663,0 -0.1107,0.0042 -0.1312,0.0127 -0.0205,0.0084 -0.0374,0.0247 -0.0508,0.0494 -0.0183,0.0338 -0.0289,0.0769 -0.0317,0.1277l-0.0417 0 0.0064 -0.2625 0.7937 0 0 0.0381 -0.6343 0.8396 0.345 0c0.0727,0 0.1214,-0.0063 0.1475,-0.0183 0.0254,-0.012 0.0466,-0.0332 0.0621,-0.0635 0.0113,-0.0219 0.0205,-0.0685 0.0282,-0.1397l0.0353 0z"/>
  <path class="fil2" d="M34.5731 24.1337l-0.2088 0.9073 -0.0748 0 -0.0078 -0.2279c-0.007,-0.0826 -0.0232,-0.1559 -0.0479,-0.2208 -0.0247,-0.065 -0.0621,-0.1207 -0.1115,-0.1687 -0.0494,-0.0472 -0.1122,-0.0846 -0.1884,-0.1114 -0.0755,-0.0269 -0.1595,-0.0403 -0.2519,-0.0403 -0.2469,0 -0.4621,0.0678 -0.647,0.2025 -0.2356,0.1722 -0.4205,0.4156 -0.5538,0.7296 -0.1101,0.2589 -0.1658,0.5214 -0.1658,0.7874 0,0.2716 0.0797,0.4882 0.2377,0.6505 0.1588,0.1616 0.3648,0.2427 0.6181,0.2427 0.1919,0 0.3627,-0.043 0.5115,-0.1284 0.1496,-0.0854 0.2886,-0.2166 0.417,-0.3944l0.0967 0c-0.151,0.2413 -0.3196,0.4184 -0.5038,0.532 -0.1848,0.1136 -0.4064,0.1707 -0.6639,0.1707 -0.2286,0 -0.4311,-0.048 -0.6075,-0.1439 -0.1764,-0.096 -0.3111,-0.23 -0.4029,-0.4043 -0.0924,-0.1736 -0.139,-0.3598 -0.139,-0.5602 0,-0.3055 0.0826,-0.6033 0.2463,-0.8925 0.1637,-0.2893 0.3887,-0.5172 0.6745,-0.6823 0.2864,-0.1651 0.5743,-0.2476 0.8657,-0.2476 0.1362,0 0.2893,0.0317 0.4586,0.0966 0.0741,0.0275 0.1284,0.0416 0.1609,0.0416 0.0331,0 0.0621,-0.007 0.0875,-0.0204 0.0247,-0.0141 0.0656,-0.0536 0.1234,-0.1178l0.0769 0z"/>
 </g>
</svg>
