<?xml version="1.0" encoding="UTF-8"?>
<!DOCTYPE svg PUBLIC "-//W3C//DTD SVG 1.1//EN" "http://www.w3.org/Graphics/SVG/1.1/DTD/svg11.dtd">
<!-- Creator: CorelDRAW -->
<svg xmlns="http://www.w3.org/2000/svg" xml:space="preserve" width="260mm" height="86mm" style="shape-rendering:geometricPrecision; text-rendering:geometricPrecision; image-rendering:optimizeQuality; fill-rule:evenodd; clip-rule:evenodd"
viewBox="0 0 260 86">
 <defs>
  <style type="text/css">
   <![CDATA[
    .str0 {stroke:#1F1A17;stroke-width:0.1764}
    .str2 {stroke:#0093DD;stroke-width:0.7056}
    .str1 {stroke:#1F1A17;stroke-width:0.7056}
    .str3 {stroke:#DA251D;stroke-width:0.7056}
    .fil0 {fill:none}
    .fil1 {fill:#1F1A17;fill-rule:nonzero}
   ]]>
  </style>
 </defs>
 <g id="Layer_x0020_1">
  <metadata id="CorelCorpID_0Corel-Layer"/>
  <line class="fil0 str0" x1="82.51" y1="48.1408" x2="150.007" y2= "7.0684" />
  <line class="fil0 str0" x1="76.6945" y1="48.1046" x2="143.977" y2= "7.1626" />
  <line class="fil0 str0" x1="65.0623" y1="48.0322" x2="132.137" y2= "7.2168" />
  <line class="fil0 str0" x1="59.2471" y1="47.996" x2="126.231" y2= "7.2357" />
  <line class="fil0 str0" x1="53.4305" y1="47.9598" x2="120.377" y2= "7.2224" />
  <line class="fil0 str0" x1="47.6149" y1="47.9237" x2="114.561" y2= "7.1861" />
  <line class="fil0 str0" x1="41.7995" y1="47.8875" x2="108.811" y2= "7.1104" />
  <line class="fil0 str0" x1="35.9823" y1="47.8513" x2="103.111" y2= "7.0028" />
  <line class="fil0 str0" x1="30.1671" y1="47.815" x2="97.205" y2= "7.0218" />
  <line class="fil0 str0" x1="18.5352" y1="47.7427" x2="85.5062" y2= "6.9901" />
  <line class="fil0 str1" x1="12.7193" y1="47.7065" x2="79.9455" y2= "6.7987" />
  <line class="fil0 str1" x1="64.5667" y1="16.2666" x2="140.212" y2= "16.7427" />
  <polyline class="fil0 str1" points="48.8124,25.7976 105.96,26.172 124.334,26.2923 "/>
  <line class="fil0 str1" x1="88.2088" y1="48.2497" x2="156.254" y2= "6.8435" />
  <line class="fil0 str0" x1="24.1854" y1="47.8834" x2="91.3203" y2= "7.0311" />
  <g>
   <path class="fil1" d="M125.571 63.8312l-0.1733 -0.2428 0.6131 -1.5557 0.3308 0.1303 -0.6131 1.5558 -0.1734 -0.2428 0.0159 0.3552zm0 0l-0.2739 0.0123 0.1006 -0.2551 0.1733 0.2428zm1.663 -0.2524l0.008 0.1776 -1.671 0.0748 -0.0159 -0.3552 1.671 -0.0748 0.0079 0.1776zm13.2177 -10.4519l-14.6131 10.4381 -0.102 -0.1434 14.6131 -10.4381 0.102 0.1434zm0.339 -0.1669l-0.3309 -0.1303 0.1734 0.2428 -1.6705 0.0754 -0.016 -0.3552 1.6705 -0.0754 0.1735 0.2427zm0 0l-0.1735 -0.2427 0.2739 -0.0124 -0.1004 0.2551zm-0.7782 1.4912l-0.1654 -0.0651 0.6127 -1.5564 0.3309 0.1303 -0.6127 1.5564 -0.1655 -0.0652z"/>
  </g>
  <line class="fil0 str0" x1="125.399" y1="59.824" x2="125.392" y2= "66.7714" />
  <line class="fil0 str0" x1="140.801" y1="49.1366" x2="140.794" y2= "57.2402" />
  <path class="fil1" d="M132.223 55.335l-0.3877 1.428c0.1257,-0.1376 0.2348,-0.2321 0.3283,-0.2829 0.0936,-0.0508 0.1911,-0.0762 0.2926,-0.0762 0.1436,0 0.2609,0.0501 0.3516,0.1503 0.0913,0.1009 0.1365,0.237 0.1362,0.4099 -0.0004,0.2215 -0.0602,0.4424 -0.1808,0.6625 -0.1206,0.2194 -0.271,0.3909 -0.4529,0.5136 -0.1811,0.1221 -0.3602,0.1835 -0.5365,0.1835 -0.1969,0 -0.3984,-0.0776 -0.6058,-0.2335l0.5986 -2.164c0.0457,-0.1665 0.0686,-0.2646 0.0687,-0.2935 0,-0.036 -0.01,-0.0628 -0.0307,-0.0804 -0.0299,-0.0254 -0.0746,-0.0374 -0.1334,-0.0374 -0.0274,0 -0.0687,0.0049 -0.1249,0.0141l0.0002 -0.0783 0.6765 -0.1157zm-0.7613 2.7777c0.1301,0.0762 0.2449,0.1143 0.3437,0.1143 0.1148,0 0.2338,-0.0444 0.3574,-0.1333 0.1237,-0.0889 0.2308,-0.2392 0.3213,-0.4502 0.0912,-0.2102 0.1369,-0.4233 0.1373,-0.6385 0.0002,-0.127 -0.029,-0.2258 -0.0883,-0.2977 -0.0593,-0.0713 -0.1293,-0.1073 -0.2101,-0.1073 -0.1216,0 -0.2404,0.0515 -0.3561,0.1538 -0.1164,0.103 -0.1995,0.2456 -0.2492,0.429l-0.256 0.9299z"/>
  <line class="fil0 str0" x1="71.1243" y1="47.9187" x2="137.943" y2= "7.2589" />
  <line class="fil0 str1" x1="88.1451" y1="48.1986" x2="88.0951" y2= "77.1974" />
  <line class="fil0 str1" x1="88.1451" y1="48.1986" x2="88.0951" y2= "77.1974" />
  <line class="fil0 str1" x1="88.1451" y1="48.1986" x2="88.0951" y2= "77.1974" />
  <line class="fil0 str2" x1="108.406" y1="35.8909" x2="108.356" y2= "64.8897" />
  <line class="fil0 str2" x1="124.355" y1="26.3006" x2="124.305" y2= "55.2994" />
  <line class="fil0 str1" x1="140.304" y1="16.7103" x2="140.254" y2= "45.7092" />
  <line class="fil0 str1" x1="156.254" y1="6.8374" x2="156.203" y2= "36.1189" />
  <line class="fil0 str1" x1="12.7821" y1="47.7844" x2="12.7321" y2= "76.7832" />
  <line class="fil0 str3" x1="48.7625" y1="25.8063" x2="124.383" y2= "26.2836" />
  <line class="fil0 str1" x1="51.6261" y1="30.9617" x2="121.462" y2= "31.439" />
  <line class="fil0 str1" x1="48.8253" y1="25.8695" x2="51.6671" y2= "30.9807" />
  <line class="fil0 str1" x1="54.7311" y1="25.7724" x2="57.5729" y2= "30.8836" />
  <line class="fil0 str1" x1="60.5367" y1="25.6753" x2="63.419" y2= "30.8566" />
  <line class="fil0 str1" x1="66.3449" y1="25.7235" x2="69.2271" y2= "30.9049" />
  <line class="fil0 str1" x1="72.153" y1="25.7718" x2="75.0352" y2= "30.9531" />
  <line class="fil0 str1" x1="77.9611" y1="25.82" x2="80.8433" y2= "31.0014" />
  <line class="fil0 str1" x1="83.7692" y1="25.8683" x2="86.6514" y2= "31.0496" />
  <line class="fil0 str1" x1="89.5773" y1="25.9165" x2="92.4596" y2= "31.0979" />
  <line class="fil0 str1" x1="95.3854" y1="25.9648" x2="98.2677" y2= "31.1461" />
  <line class="fil0 str1" x1="101.194" y1="26.013" x2="104.076" y2= "31.1944" />
  <line class="fil0 str1" x1="107.002" y1="26.0613" x2="109.884" y2= "31.2426" />
  <line class="fil0 str1" x1="112.81" y1="26.1095" x2="115.692" y2= "31.2909" />
  <line class="fil0 str1" x1="118.618" y1="26.1578" x2="121.5" y2= "31.3391" />
  <line class="fil0 str1" x1="54.4853" y1="26.0029" x2="51.6259" y2= "31.1141" />
  <line class="fil0 str1" x1="60.391" y1="25.9058" x2="57.5317" y2= "31.017" />
  <line class="fil0 str1" x1="66.1069" y1="25.948" x2="63.3807" y2= "30.989" />
  <line class="fil0 str1" x1="71.9151" y1="25.9963" x2="69.1888" y2= "31.0373" />
  <line class="fil0 str1" x1="77.7232" y1="26.0445" x2="74.9969" y2= "31.0856" />
  <line class="fil0 str1" x1="83.5313" y1="26.0928" x2="80.8051" y2= "31.1338" />
  <line class="fil0 str1" x1="89.3394" y1="26.1411" x2="86.6132" y2= "31.1821" />
  <line class="fil0 str1" x1="95.1475" y1="26.1893" x2="92.4213" y2= "31.2303" />
  <line class="fil0 str1" x1="100.956" y1="26.2376" x2="98.2294" y2= "31.2786" />
  <line class="fil0 str1" x1="106.764" y1="26.2858" x2="104.037" y2= "31.3268" />
  <line class="fil0 str1" x1="112.572" y1="26.3341" x2="109.846" y2= "31.3751" />
  <line class="fil0 str1" x1="118.38" y1="26.3823" x2="115.654" y2= "31.4233" />
  <line class="fil0 str1" x1="124.188" y1="26.4306" x2="121.462" y2= "31.4716" />
  <line class="fil0 str1" x1="64.1792" y1="16.4199" x2="139.8" y2= "16.8973" />
  <line class="fil0 str1" x1="67.0429" y1="21.5753" x2="136.879" y2= "22.0527" />
  <line class="fil0 str1" x1="64.2421" y1="16.4831" x2="67.0839" y2= "21.5943" />
  <line class="fil0 str1" x1="70.1479" y1="16.386" x2="72.9896" y2= "21.4972" />
  <line class="fil0 str1" x1="75.9535" y1="16.2889" x2="78.8358" y2= "21.4702" />
  <line class="fil0 str1" x1="81.7616" y1="16.3371" x2="84.6439" y2= "21.5185" />
  <line class="fil0 str1" x1="87.5697" y1="16.3854" x2="90.452" y2= "21.5667" />
  <line class="fil0 str1" x1="93.3779" y1="16.4336" x2="96.2601" y2= "21.615" />
  <line class="fil0 str1" x1="99.186" y1="16.4819" x2="102.068" y2= "21.6632" />
  <line class="fil0 str1" x1="104.994" y1="16.5301" x2="107.876" y2= "21.7115" />
  <line class="fil0 str1" x1="110.802" y1="16.5784" x2="113.684" y2= "21.7597" />
  <line class="fil0 str1" x1="116.61" y1="16.6267" x2="119.493" y2= "21.808" />
  <line class="fil0 str1" x1="122.418" y1="16.6749" x2="125.301" y2= "21.8563" />
  <line class="fil0 str1" x1="128.226" y1="16.7232" x2="131.109" y2= "21.9045" />
  <line class="fil0 str1" x1="134.035" y1="16.7714" x2="136.917" y2= "21.9528" />
  <line class="fil0 str1" x1="69.902" y1="16.6166" x2="67.0427" y2= "21.7277" />
  <line class="fil0 str1" x1="75.8078" y1="16.5194" x2="72.9484" y2= "21.6306" />
  <line class="fil0 str1" x1="81.5237" y1="16.5617" x2="78.7975" y2= "21.6027" />
  <line class="fil0 str1" x1="87.3318" y1="16.6099" x2="84.6056" y2= "21.6509" />
  <line class="fil0 str1" x1="93.1399" y1="16.6582" x2="90.4137" y2= "21.6992" />
  <line class="fil0 str1" x1="98.948" y1="16.7064" x2="96.2218" y2= "21.7474" />
  <line class="fil0 str1" x1="104.756" y1="16.7547" x2="102.03" y2= "21.7957" />
  <line class="fil0 str1" x1="110.564" y1="16.8029" x2="107.838" y2= "21.8439" />
  <line class="fil0 str1" x1="116.372" y1="16.8512" x2="113.646" y2= "21.8922" />
  <line class="fil0 str1" x1="122.18" y1="16.8994" x2="119.454" y2= "21.9404" />
  <line class="fil0 str1" x1="127.989" y1="16.9477" x2="125.262" y2= "21.9887" />
  <line class="fil0 str1" x1="133.797" y1="16.9959" x2="131.071" y2= "22.0369" />
  <line class="fil0 str1" x1="139.605" y1="17.0442" x2="136.879" y2= "22.0852" />
  <line class="fil0 str1" x1="79.5236" y1="6.6165" x2="155.145" y2= "7.0939" />
  <line class="fil0 str1" x1="82.3873" y1="11.7719" x2="152.223" y2= "12.2493" />
  <line class="fil0 str1" x1="79.5865" y1="6.6797" x2="82.4283" y2= "11.7909" />
  <line class="fil0 str1" x1="85.4923" y1="6.5826" x2="88.334" y2= "11.6938" />
  <line class="fil0 str1" x1="91.2979" y1="6.4855" x2="94.1802" y2= "11.6668" />
  <line class="fil0 str1" x1="97.106" y1="6.5338" x2="99.9883" y2= "11.7151" />
  <line class="fil0 str1" x1="102.914" y1="6.582" x2="105.796" y2= "11.7634" />
  <line class="fil0 str1" x1="108.722" y1="6.6303" x2="111.605" y2= "11.8116" />
  <line class="fil0 str1" x1="114.53" y1="6.6785" x2="117.413" y2= "11.8599" />
  <line class="fil0 str1" x1="120.339" y1="6.7268" x2="123.221" y2= "11.9081" />
  <line class="fil0 str1" x1="126.147" y1="6.775" x2="129.029" y2= "11.9564" />
  <line class="fil0 str1" x1="131.955" y1="6.8233" x2="134.837" y2= "12.0046" />
  <line class="fil0 str1" x1="137.763" y1="6.8715" x2="140.645" y2= "12.0529" />
  <line class="fil0 str1" x1="143.571" y1="6.9198" x2="146.453" y2= "12.1011" />
  <line class="fil0 str1" x1="149.379" y1="6.968" x2="152.261" y2= "12.1494" />
  <line class="fil0 str1" x1="85.2464" y1="6.8132" x2="82.3871" y2= "11.9244" />
  <line class="fil0 str1" x1="91.1522" y1="6.7161" x2="88.2928" y2= "11.8273" />
  <line class="fil0 str1" x1="96.8681" y1="6.7583" x2="94.1419" y2= "11.7993" />
  <line class="fil0 str1" x1="102.676" y1="6.8065" x2="99.95" y2= "11.8475" />
  <line class="fil0 str1" x1="108.484" y1="6.8548" x2="105.758" y2= "11.8958" />
  <line class="fil0 str1" x1="114.292" y1="6.903" x2="111.566" y2= "11.9441" />
  <line class="fil0 str1" x1="120.101" y1="6.9513" x2="117.374" y2= "11.9923" />
  <line class="fil0 str1" x1="125.909" y1="6.9996" x2="123.183" y2= "12.0406" />
  <line class="fil0 str1" x1="131.717" y1="7.0478" x2="128.991" y2= "12.0888" />
  <line class="fil0 str1" x1="137.525" y1="7.0961" x2="134.799" y2= "12.1371" />
  <line class="fil0 str1" x1="143.333" y1="7.1443" x2="140.607" y2= "12.1853" />
  <line class="fil0 str1" x1="149.141" y1="7.1926" x2="146.415" y2= "12.2336" />
  <line class="fil0 str1" x1="154.949" y1="7.2408" x2="152.223" y2= "12.2818" />
  <line class="fil0 str2" x1="32.8929" y1="35.6083" x2="32.8429" y2= "64.6071" />
  <line class="fil0 str2" x1="48.7605" y1="25.8376" x2="48.7105" y2= "54.8364" />
  <line class="fil0 str1" x1="64.2172" y1="16.5587" x2="64.1672" y2= "45.5575" />
  <line class="fil0 str1" x1="79.731" y1="6.7873" x2="79.6809" y2= "35.7861" />
  <line class="fil0 str3" x1="108.406" y1="35.9589" x2="115.147" y2= "26.2321" />
  <line class="fil0 str3" x1="91.0576" y1="35.9254" x2="115.147" y2= "26.2321" />
  <line class="fil0 str3" x1="91.0576" y1="35.9254" x2="98.5374" y2= "26.1227" />
  <line class="fil0 str3" x1="73.6333" y1="35.7811" x2="98.5375" y2= "26.1227" />
  <line class="fil0 str3" x1="73.5689" y1="35.7051" x2="79.6978" y2= "26.0011" />
  <line class="fil0 str3" x1="57.0903" y1="35.0064" x2="79.6978" y2= "26.0011" />
  <line class="fil0 str3" x1="57.0903" y1="35.0064" x2="62.9137" y2= "25.89" />
  <line class="fil0 str3" x1="38.7871" y1="35.6363" x2="62.9137" y2= "25.89" />
  <line class="fil0 str3" x1="39.1738" y1="35.4796" x2="48.8125" y2= "25.7977" />
  <line class="fil0 str2" x1="33.0293" y1="35.1406" x2="48.9284" y2= "54.4809" />
  <line class="fil0 str2" x1="48.8111" y1="25.6124" x2="32.9793" y2= "64.0711" />
  <line class="fil0 str2" x1="108.406" y1="35.9589" x2="124.305" y2= "55.2992" />
  <line class="fil0 str2" x1="124.188" y1="26.4307" x2="108.356" y2= "64.8893" />
  <line class="fil0 str1" x1="171.933" y1="2.3792" x2="247.554" y2= "2.8566" />
  <line class="fil0 str1" x1="174.796" y1="7.5346" x2="244.632" y2= "8.012" />
  <line class="fil0 str1" x1="171.996" y1="2.4424" x2="174.837" y2= "7.5536" />
  <line class="fil0 str1" x1="177.901" y1="2.3453" x2="180.743" y2= "7.4565" />
  <line class="fil0 str1" x1="183.707" y1="2.2482" x2="186.589" y2= "7.4295" />
  <line class="fil0 str1" x1="189.515" y1="2.2965" x2="192.397" y2= "7.4778" />
  <line class="fil0 str1" x1="195.323" y1="2.3447" x2="198.206" y2= "7.5261" />
  <line class="fil0 str1" x1="201.131" y1="2.393" x2="204.014" y2= "7.5743" />
  <line class="fil0 str1" x1="206.94" y1="2.4412" x2="209.822" y2= "7.6226" />
  <line class="fil0 str1" x1="212.748" y1="2.4895" x2="215.63" y2= "7.6708" />
  <line class="fil0 str1" x1="218.556" y1="2.5377" x2="221.438" y2= "7.7191" />
  <line class="fil0 str1" x1="224.364" y1="2.586" x2="227.246" y2= "7.7673" />
  <line class="fil0 str1" x1="230.172" y1="2.6342" x2="233.054" y2= "7.8156" />
  <line class="fil0 str1" x1="235.98" y1="2.6825" x2="238.862" y2= "7.8638" />
  <line class="fil0 str1" x1="241.788" y1="2.7307" x2="244.67" y2= "7.9121" />
  <line class="fil0 str1" x1="177.656" y1="2.5759" x2="174.796" y2= "7.6871" />
  <line class="fil0 str1" x1="183.561" y1="2.4788" x2="180.702" y2= "7.5899" />
  <line class="fil0 str1" x1="189.277" y1="2.521" x2="186.551" y2= "7.562" />
  <line class="fil0 str1" x1="195.085" y1="2.5692" x2="192.359" y2= "7.6102" />
  <line class="fil0 str1" x1="200.893" y1="2.6175" x2="198.167" y2= "7.6585" />
  <line class="fil0 str1" x1="206.702" y1="2.6657" x2="203.975" y2= "7.7067" />
  <line class="fil0 str1" x1="212.51" y1="2.714" x2="209.783" y2= "7.755" />
  <line class="fil0 str1" x1="218.318" y1="2.7622" x2="215.592" y2= "7.8033" />
  <line class="fil0 str1" x1="224.126" y1="2.8105" x2="221.4" y2= "7.8515" />
  <line class="fil0 str1" x1="229.934" y1="2.8588" x2="227.208" y2= "7.8998" />
  <line class="fil0 str1" x1="235.742" y1="2.907" x2="233.016" y2= "7.948" />
  <line class="fil0 str1" x1="241.55" y1="2.9553" x2="238.824" y2= "7.9963" />
  <line class="fil0 str1" x1="247.358" y1="3.0035" x2="244.632" y2= "8.0445" />
  <line class="fil0 str2" x1="161.717" y1="56.274" x2="161.667" y2= "85.2729" />
  <line class="fil0 str2" x1="177.666" y1="46.6838" x2="177.616" y2= "75.6826" />
  <line class="fil0 str2" x1="161.717" y1="56.3421" x2="177.499" y2= "46.8139" />
  <line class="fil0 str2" x1="161.717" y1="56.3421" x2="177.616" y2= "75.6823" />
  <line class="fil0 str2" x1="177.499" y1="46.8139" x2="161.667" y2= "85.2725" />
  <line class="fil0 str2" x1="34.1316" y1="34.6768" x2="49.8312" y2= "25.1234" />
  <line class="fil0 str2" x1="108.047" y1="36.1776" x2="123.747" y2= "26.6242" />
  <line class="fil0 str1" x1="12.7193" y1="47.7212" x2="88.3402" y2= "48.1986" />
  <line class="fil0 str1" x1="15.5829" y1="52.8766" x2="85.4187" y2= "53.354" />
  <line class="fil0 str1" x1="12.7821" y1="47.7844" x2="15.6239" y2= "52.8956" />
  <line class="fil0 str1" x1="18.6879" y1="47.6873" x2="21.5297" y2= "52.7985" />
  <line class="fil0 str1" x1="24.4935" y1="47.5902" x2="27.3758" y2= "52.7715" />
  <line class="fil0 str1" x1="30.3017" y1="47.6384" x2="33.1839" y2= "52.8198" />
  <line class="fil0 str1" x1="36.1098" y1="47.6867" x2="38.992" y2= "52.868" />
  <line class="fil0 str1" x1="41.9179" y1="47.7349" x2="44.8001" y2= "52.9163" />
  <line class="fil0 str1" x1="47.726" y1="47.7832" x2="50.6082" y2= "52.9645" />
  <line class="fil0 str1" x1="53.5341" y1="47.8314" x2="56.4164" y2= "53.0128" />
  <line class="fil0 str1" x1="59.3422" y1="47.8797" x2="62.2245" y2= "53.061" />
  <line class="fil0 str1" x1="65.1503" y1="47.9279" x2="68.0326" y2= "53.1093" />
  <line class="fil0 str1" x1="70.9585" y1="47.9762" x2="73.8407" y2= "53.1575" />
  <line class="fil0 str1" x1="76.7666" y1="48.0244" x2="79.6488" y2= "53.2058" />
  <line class="fil0 str1" x1="82.5747" y1="48.0727" x2="85.4569" y2= "53.254" />
  <line class="fil0 str1" x1="18.4421" y1="47.9179" x2="15.5827" y2= "53.029" />
  <line class="fil0 str1" x1="24.3479" y1="47.8207" x2="21.4885" y2= "52.9319" />
  <line class="fil0 str1" x1="30.0637" y1="47.8629" x2="27.3375" y2= "52.904" />
  <line class="fil0 str1" x1="35.8719" y1="47.9112" x2="33.1456" y2= "52.9522" />
  <line class="fil0 str1" x1="41.68" y1="47.9595" x2="38.9538" y2= "53.0005" />
  <line class="fil0 str1" x1="47.4881" y1="48.0077" x2="44.7619" y2= "53.0487" />
  <line class="fil0 str1" x1="53.2962" y1="48.056" x2="50.57" y2= "53.097" />
  <line class="fil0 str1" x1="59.1043" y1="48.1042" x2="56.3781" y2= "53.1452" />
  <line class="fil0 str1" x1="64.9124" y1="48.1525" x2="62.1862" y2= "53.1935" />
  <line class="fil0 str1" x1="70.7205" y1="48.2007" x2="67.9943" y2= "53.2417" />
  <line class="fil0 str1" x1="76.5287" y1="48.249" x2="73.8024" y2= "53.29" />
  <line class="fil0 str1" x1="82.3368" y1="48.2972" x2="79.6106" y2= "53.3382" />
  <line class="fil0 str1" x1="88.1449" y1="48.3455" x2="85.4187" y2= "53.3865" />
  <polyline class="fil0 str3" points="32.7307,35.4378 89.8787,35.8122 108.252,35.9325 "/>
  <line class="fil0 str1" x1="35.6822" y1="40.8262" x2="105.518" y2= "41.3036" />
  <line class="fil0 str1" x1="32.8814" y1="35.7341" x2="35.7231" y2= "40.8452" />
  <line class="fil0 str1" x1="38.7871" y1="35.6369" x2="41.6289" y2= "40.7481" />
  <line class="fil0 str1" x1="44.5928" y1="35.5398" x2="47.475" y2= "40.7212" />
  <line class="fil0 str1" x1="50.4009" y1="35.5881" x2="53.2831" y2= "40.7694" />
  <line class="fil0 str1" x1="56.209" y1="35.6363" x2="59.0912" y2= "40.8177" />
  <line class="fil0 str1" x1="62.0171" y1="35.6846" x2="64.8994" y2= "40.8659" />
  <line class="fil0 str1" x1="67.8252" y1="35.7328" x2="70.7075" y2= "40.9142" />
  <line class="fil0 str1" x1="73.6333" y1="35.7811" x2="76.5156" y2= "40.9624" />
  <line class="fil0 str1" x1="79.4415" y1="35.8293" x2="82.3237" y2= "41.0107" />
  <line class="fil0 str1" x1="85.2496" y1="35.8776" x2="88.1318" y2= "41.0589" />
  <line class="fil0 str1" x1="91.0577" y1="35.9259" x2="93.9399" y2= "41.1072" />
  <line class="fil0 str1" x1="96.8658" y1="35.9741" x2="99.748" y2= "41.1555" />
  <line class="fil0 str1" x1="102.674" y1="36.0224" x2="105.556" y2= "41.2037" />
  <line class="fil0 str1" x1="38.5413" y1="35.8675" x2="35.6819" y2= "40.9787" />
  <line class="fil0 str1" x1="44.4471" y1="35.7704" x2="41.5877" y2= "40.8816" />
  <line class="fil0 str1" x1="50.163" y1="35.8126" x2="47.4367" y2= "40.8536" />
  <line class="fil0 str1" x1="55.9711" y1="35.8609" x2="53.2449" y2= "40.9019" />
  <line class="fil0 str1" x1="61.7792" y1="35.9091" x2="59.053" y2= "40.9501" />
  <line class="fil0 str1" x1="67.5873" y1="35.9574" x2="64.8611" y2= "40.9984" />
  <line class="fil0 str1" x1="73.3954" y1="36.0056" x2="70.6692" y2= "41.0466" />
  <line class="fil0 str1" x1="79.2035" y1="36.0539" x2="76.4773" y2= "41.0949" />
  <line class="fil0 str1" x1="85.0117" y1="36.1021" x2="82.2854" y2= "41.1431" />
  <line class="fil0 str1" x1="90.8198" y1="36.1504" x2="88.0935" y2= "41.1914" />
  <line class="fil0 str1" x1="96.6279" y1="36.1986" x2="93.9017" y2= "41.2396" />
  <line class="fil0 str1" x1="102.436" y1="36.2469" x2="99.7098" y2= "41.2879" />
  <line class="fil0 str1" x1="108.244" y1="36.2951" x2="105.518" y2= "41.3362" />
  <g>
   <path class="fil1" d="M12.3389 82.1694l0 -0.2983 1.4028 -0.9101 0.1936 0.2983 -1.4029 0.9101 -0.0001 -0.2984 -0.1934 0.2984zm0 0l-0.23 -0.1491 0.23 -0.1492 0 0.2983zm1.5002 0.7607l-0.0967 0.1492 -1.4035 -0.9099 0.1934 -0.2984 1.4036 0.9099 -0.0968 0.1492zm73.7687 -0.848l-74.8963 0.026 0 -0.1758 74.8963 -0.026 0 0.1758zm0.3727 0.0612l-0.1936 -0.2983 0.0001 0.2984 -1.4035 -0.9091 0.1933 -0.2985 1.4035 0.9091 0.0002 0.2984zm0 0l-0.0002 -0.2984 0.2301 0.1491 -0.2299 0.1493zm-1.4997 0.7617l-0.0968 -0.1491 1.4029 -0.9109 0.1936 0.2983 -1.4029 0.9108 -0.0968 -0.1491z"/>
  </g>
  <line class="fil0 str0" x1="12.2244" y1="80.5885" x2="12.2244" y2= "83.9153" />
  <line class="fil0 str0" x1="88.0948" y1="80.6016" x2="88.0948" y2= "83.9284" />
  <line class="fil0 str0" x1="65.0028" y1="78.9086" x2="66.302" y2= "78.152" />
  <path class="fil1" d="M3.1967 61.2174l-0.5807 2.0073c0.2505,-0.3775 0.4459,-0.6287 0.587,-0.7529 0.1404,-0.1234 0.2745,-0.1855 0.4029,-0.1855 0.0663,0 0.1213,0.0226 0.1651,0.0677 0.0444,0.0459 0.0663,0.1066 0.0663,0.1821 0,0.091 -0.019,0.201 -0.0578,0.3309l-0.2519 0.8657c-0.0318,0.1051 -0.048,0.1629 -0.048,0.1735 0,0.0198 0.0056,0.0353 0.0176,0.048 0.012,0.012 0.0254,0.0184 0.0403,0.0184 0.0183,0 0.0388,-0.0085 0.062,-0.0269 0.0784,-0.0606 0.1567,-0.1446 0.2336,-0.2518l0.0642 0.0388c-0.0466,0.0733 -0.1122,0.1538 -0.1955,0.2413 -0.0832,0.0875 -0.1552,0.1481 -0.2151,0.182 -0.06,0.0332 -0.1129,0.0501 -0.1602,0.0501 -0.0508,0 -0.0924,-0.0162 -0.1249,-0.0487 -0.0324,-0.0317 -0.0487,-0.0741 -0.0487,-0.1249 0,-0.0607 0.024,-0.1735 0.0727,-0.3386l0.2378 -0.8269c0.0303,-0.1038 0.0451,-0.1849 0.0451,-0.2442 0,-0.0275 -0.0084,-0.0494 -0.0254,-0.0663 -0.0176,-0.0162 -0.0402,-0.0247 -0.0677,-0.0247 -0.0395,0 -0.0854,0.0155 -0.1362,0.0459 -0.0938,0.0578 -0.2018,0.1651 -0.3245,0.3224 -0.0332,0.0423 -0.1433,0.2145 -0.3309,0.5165 -0.0579,0.0966 -0.1052,0.2018 -0.1426,0.3161l-0.1319 0.424 -0.3104 0 0.6801 -2.365 0.0727 -0.2561c0,-0.036 -0.0148,-0.0678 -0.0445,-0.0953 -0.0296,-0.0275 -0.0663,-0.0409 -0.1086,-0.0409 -0.0247,0 -0.0628,0.0042 -0.1136,0.012l-0.0438 0.0064 0 -0.0805 0.7155 -0.1199z"/>
  <g>
   <path class="fil1" d="M7.0889 76.2702l-0.2984 0.0002 -0.9109 -1.4024 0.2982 -0.1936 0.9109 1.4023 -0.2983 0.0002 0.2985 0.1933zm0 0l-0.1491 0.2301 -0.1493 -0.2299 0.2984 -0.0002zm0.7598 -1.5006l0.1492 0.0966 -0.909 1.404 -0.2985 -0.1933 0.909 -1.404 0.1493 0.0967zm-0.8468 -26.8466l0.0254 27.9747 -0.1758 0 -0.0254 -27.9747 0.1758 0zm0.061 -0.3728l-0.2982 0.1938 0.2984 -0.0003 -0.9084 1.404 -0.2985 -0.1931 0.9083 -1.4041 0.2984 -0.0003zm0 0l-0.2984 0.0003 0.1489 -0.2301 0.1495 0.2298zm0.7625 1.4993l-0.1491 0.0969 -0.9116 -1.4024 0.2982 -0.1938 0.9116 1.4024 -0.1491 0.0969z"/>
  </g>
  <line class="fil0 str0" x1="5.508" y1="76.3848" x2="8.8348" y2= "76.3848" />
  <line class="fil0 str0" x1="5.5211" y1="47.4359" x2="8.8479" y2= "47.4359" />
  <line class="fil0 str0" x1="3.8281" y1="56.2468" x2="3.0715" y2= "55.7511" />
  <path class="fil1" d="M43.9979 79.7148l-2.0772 0 0.029 -0.0762c0.11,-0.0028 0.1834,-0.012 0.2208,-0.0268 0.0578,-0.0254 0.1009,-0.0579 0.1284,-0.0974 0.0423,-0.0635 0.0882,-0.1778 0.1362,-0.3436l0.4939 -1.7053c0.0416,-0.1404 0.062,-0.2434 0.062,-0.3097 0,-0.0522 -0.019,-0.0932 -0.0564,-0.1221 -0.0381,-0.0289 -0.1094,-0.043 -0.2145,-0.043 -0.0233,0 -0.0416,-0.0007 -0.0557,-0.0021l0.0247 -0.077 1.1437 0 -0.017 0.077c-0.1277,0 -0.2187,0.0119 -0.273,0.0366 -0.0536,0.0254 -0.0981,0.0657 -0.1341,0.1221 -0.0247,0.0374 -0.0656,0.1531 -0.122,0.3478l-0.4854 1.6757c-0.0374,0.127 -0.0558,0.2152 -0.0558,0.2646 0,0.0332 0.0184,0.0649 0.0558,0.0953 0.0232,0.0211 0.0762,0.031 0.1587,0.031l0.2709 0c0.1969,0 0.3535,-0.0247 0.4692,-0.0741 0.0854,-0.0374 0.1644,-0.0931 0.2357,-0.1679 0.0388,-0.0409 0.1065,-0.1439 0.2046,-0.3076l0.0536 -0.0932 0.0769 0 -0.273 0.7959z"/>
  <g>
   <path class="fil1" d="M39.313 70.0658l-0.0008 -0.2983 1.4005 -0.9137 0.1943 0.2978 -1.4005 0.9137 -0.0008 -0.2984 -0.1927 0.2989zm0 0l-0.2304 -0.1485 0.2296 -0.1498 0.0008 0.2983zm1.5022 0.7568l-0.0964 0.1495 -1.4058 -0.9063 0.1927 -0.2989 1.4058 0.9063 -0.0963 0.1494zm7.3703 -0.8439l-8.5003 0.0248 0 -0.1758 8.5003 -0.0248 0 0.1758z"/>
  </g>
  <g>
   <path class="fil1" d="M47.4301 62.4853l0.298 -0.0147 0.9783 1.3562 -0.2884 0.208 -0.9783 -1.3562 0.298 -0.0148 -0.3076 -0.1785zm0 0l0.1376 -0.2371 0.1604 0.2224 -0.298 0.0147zm-0.6856 1.536l-0.1538 -0.0892 0.8394 -1.4468 0.3076 0.1785 -0.8395 1.4467 -0.1537 -0.0892zm1.1157 5.8736l-0.3505 -7.0407 0.1758 -0.0082 0.3505 7.0407 -0.1758 0.0082z"/>
  </g>
  <g>
   <path class="fil1" d="M52.6868 66.2778l0.1749 0.2417 -0.6036 1.5595 -0.3316 -0.1283 0.6036 -1.5595 0.1748 0.2417 -0.0181 -0.3551zm0 0l0.2738 -0.014 -0.0989 0.2557 -0.1749 -0.2417zm-1.6614 0.2626l-0.009 -0.1776 1.6704 -0.085 0.0181 0.3551 -1.6704 0.0851 -0.0091 -0.1776zm-3.129 3.2791l4.5243 -3.2738 0.1034 0.1426 -4.5243 3.2738 -0.1034 -0.1426z"/>
  </g>
  <path class="fil1" d="M38.6104 71.1479c0.0466,0.0797 0.079,0.1545 0.0974,0.2236 0.0176,0.0699 0.0353,0.2068 0.0536,0.4107l0.091 1.0167c0.0826,-0.0988 0.2025,-0.2561 0.3599,-0.4713 0.0754,-0.1045 0.1693,-0.247 0.2808,-0.4276 0.0677,-0.1101 0.1086,-0.1877 0.1241,-0.2314 0.0078,-0.0219 0.012,-0.0452 0.012,-0.0685 0,-0.0148 -0.0042,-0.0275 -0.0141,-0.0373 -0.0099,-0.0092 -0.0346,-0.0205 -0.0755,-0.0339 -0.0409,-0.0127 -0.0748,-0.0374 -0.1016,-0.072 -0.0268,-0.0353 -0.0402,-0.0755 -0.0402,-0.1213 0,-0.0565 0.0169,-0.1016 0.0501,-0.1362 0.0325,-0.0346 0.0741,-0.0515 0.1235,-0.0515 0.0607,0 0.1122,0.0247 0.1552,0.0755 0.043,0.0501 0.0642,0.1192 0.0642,0.2074 0,0.1087 -0.0374,0.2335 -0.1115,0.3732 -0.0748,0.1397 -0.218,0.3542 -0.4304,0.6435 -0.2116,0.29 -0.4692,0.6054 -0.7704,0.9469 -0.2082,0.2356 -0.3627,0.3845 -0.4636,0.4459 -0.1002,0.0606 -0.1862,0.0917 -0.2582,0.0917 -0.043,0 -0.0804,-0.0162 -0.1129,-0.0487 -0.0324,-0.0325 -0.048,-0.0698 -0.048,-0.1129 0,-0.0536 0.0219,-0.1023 0.0671,-0.1467 0.0444,-0.0438 0.0931,-0.0657 0.1453,-0.0657 0.0275,0 0.0508,0.0057 0.0684,0.0184 0.0113,0.007 0.0233,0.0268 0.036,0.0593 0.0134,0.0317 0.0254,0.0536 0.0367,0.0649 0.0064,0.007 0.0148,0.0098 0.0247,0.0098 0.0078,0 0.0226,-0.0063 0.043,-0.0204 0.0762,-0.0466 0.1644,-0.1214 0.2646,-0.223 0.1327,-0.1354 0.23,-0.2455 0.2935,-0.3309l-0.1157 -1.3102c-0.019,-0.2166 -0.0479,-0.3485 -0.0868,-0.3951 -0.0388,-0.0466 -0.103,-0.0705 -0.194,-0.0705 -0.0289,0 -0.0811,0.0042 -0.1552,0.0127l-0.0183 -0.0762 0.6053 -0.1489z"/>
  <path class="fil1" d="M53.8188 66.4833c0.0677,0.0712 0.1185,0.1432 0.1531,0.2145 0.0247,0.0501 0.0656,0.1799 0.122,0.3908l0.1821 -0.273c0.0479,-0.0656 0.1065,-0.1291 0.1757,-0.1891 0.0684,-0.06 0.1291,-0.1009 0.1813,-0.1228 0.0331,-0.0141 0.0698,-0.0204 0.11,-0.0204 0.0593,0 0.1059,0.0155 0.1412,0.0473 0.0352,0.0317 0.0529,0.0705 0.0529,0.1157 0,0.0522 -0.0106,0.0882 -0.0311,0.1072 -0.0388,0.0346 -0.0825,0.0522 -0.1319,0.0522 -0.0289,0 -0.06,-0.0063 -0.0931,-0.019 -0.065,-0.0219 -0.1087,-0.0332 -0.1306,-0.0332 -0.0331,0 -0.0719,0.0198 -0.1178,0.0579 -0.0854,0.0719 -0.187,0.2102 -0.3055,0.4155l0.1693 0.7112c0.0261,0.1087 0.048,0.1743 0.0664,0.1955 0.0176,0.0211 0.0352,0.0317 0.0536,0.0317 0.0289,0 0.0628,-0.0155 0.1009,-0.0473 0.0762,-0.0635 0.1404,-0.146 0.1947,-0.2483l0.072 0.0374c-0.0868,0.163 -0.1969,0.2977 -0.3309,0.405 -0.0755,0.0606 -0.1397,0.091 -0.1919,0.091 -0.077,0 -0.1383,-0.0431 -0.1842,-0.1298 -0.0289,-0.0537 -0.0889,-0.2858 -0.1799,-0.695 -0.2145,0.3739 -0.3867,0.6138 -0.5165,0.7218 -0.0839,0.0684 -0.1651,0.103 -0.2441,0.103 -0.055,0 -0.1051,-0.0198 -0.151,-0.06 -0.0324,-0.0303 -0.0494,-0.0705 -0.0494,-0.122 0,-0.0452 0.0156,-0.0833 0.0459,-0.1136 0.0296,-0.0304 0.067,-0.0452 0.1115,-0.0452 0.0437,0 0.091,0.0219 0.1404,0.0663 0.036,0.0318 0.0635,0.0473 0.0825,0.0473 0.017,0 0.0381,-0.0113 0.0642,-0.0332 0.0649,-0.0522 0.1531,-0.1651 0.2646,-0.3386 0.1115,-0.1736 0.1849,-0.2992 0.2194,-0.3768 -0.086,-0.3344 -0.1319,-0.5115 -0.139,-0.5306 -0.0317,-0.0896 -0.0726,-0.1531 -0.1241,-0.1905 -0.0508,-0.0374 -0.1256,-0.0557 -0.2251,-0.0557 -0.0318,0 -0.0684,0.0014 -0.1094,0.0042l0 -0.0748 0.5518 -0.0966z"/>
  <path class="fil1" d="M44.9134 61.2431l1.3123 0 0 0.0515 -1.4301 1.4887 0.6053 0c0.1433,0 0.2343,-0.0057 0.2731,-0.0169 0.0388,-0.0113 0.0741,-0.0346 0.1065,-0.0699 0.0325,-0.036 0.0685,-0.1009 0.1087,-0.1947l0.0762 0 -0.1799 0.5623 -1.3455 0 0 -0.06 1.4301 -1.488 -0.5948 0c-0.1255,0 -0.2017,0.0036 -0.2278,0.0099 -0.0381,0.0085 -0.077,0.0303 -0.1143,0.0656 -0.0381,0.0346 -0.077,0.0931 -0.1172,0.1743l-0.0783 0 0.1757 -0.5228z"/>
  <path class="fil1" d="M209.043 14.4553c-0.194,0.1502 -0.3161,0.237 -0.3662,0.2603 -0.0741,0.0346 -0.1531,0.0522 -0.2371,0.0522 -0.1312,0 -0.2391,-0.0451 -0.3238,-0.1347 -0.0847,-0.0897 -0.127,-0.2075 -0.127,-0.3535 0,-0.0925 0.0204,-0.1722 0.0621,-0.2399 0.0564,-0.0931 0.1545,-0.1813 0.2942,-0.2646 0.1397,-0.0825 0.3725,-0.1827 0.6978,-0.3013l0 -0.0748c0,-0.1883 -0.0297,-0.3182 -0.0896,-0.3887 -0.06,-0.0699 -0.1475,-0.1051 -0.2618,-0.1051 -0.0868,0 -0.1559,0.0232 -0.2067,0.0705 -0.0522,0.0466 -0.0783,0.1002 -0.0783,0.1609l0.0042 0.1199c0,0.0635 -0.0162,0.1122 -0.0487,0.1468 -0.0324,0.0345 -0.0748,0.0515 -0.127,0.0515 -0.0515,0 -0.0931,-0.0177 -0.1256,-0.0536 -0.0324,-0.036 -0.0486,-0.0847 -0.0486,-0.1468 0,-0.1185 0.0606,-0.2272 0.182,-0.3267 0.1213,-0.0987 0.2914,-0.1488 0.5108,-0.1488 0.1679,0 0.3055,0.0282 0.4135,0.0846 0.0811,0.0431 0.1411,0.1101 0.1799,0.2011 0.0247,0.0593 0.0367,0.1799 0.0367,0.3634l0 0.6427c0,0.1806 0.0035,0.2914 0.0105,0.3323 0.0071,0.0403 0.0184,0.0678 0.0339,0.0812 0.0162,0.0141 0.0346,0.0211 0.055,0.0211 0.0219,0 0.0417,-0.0049 0.0579,-0.0148 0.0289,-0.0176 0.0847,-0.0684 0.1672,-0.151l0 0.1158c-0.1538,0.2067 -0.3013,0.3104 -0.4424,0.3104 -0.067,0 -0.1206,-0.0233 -0.1608,-0.0706 -0.0402,-0.0465 -0.0607,-0.127 -0.0621,-0.2398zm0 -0.1341l0 -0.7218c-0.2082,0.0833 -0.3422,0.1418 -0.4029,0.1757 -0.1093,0.0607 -0.187,0.1242 -0.2335,0.1905 -0.0473,0.0663 -0.0706,0.1383 -0.0706,0.2173 0,0.0988 0.0297,0.1813 0.0889,0.247 0.0593,0.0649 0.1277,0.098 0.2046,0.098 0.1052,0 0.2427,-0.0691 0.4135,-0.2067z"/>
  <path class="fil1" d="M209.812 11.8758l0 -0.0868c0.2096,0.103 0.3839,0.225 0.5229,0.3662 0.1968,0.201 0.3492,0.4367 0.4565,0.7076 0.1079,0.271 0.1615,0.5532 0.1615,0.8467 0,0.4268 -0.1051,0.8163 -0.3154,1.1684 -0.2102,0.352 -0.4854,0.6039 -0.8255,0.7556l0 -0.0762c0.1694,-0.0952 0.3091,-0.2236 0.4184,-0.3859 0.1094,-0.1616 0.1912,-0.3676 0.2442,-0.6181 0.0529,-0.2497 0.0797,-0.5108 0.0797,-0.7817 0,-0.2935 -0.0233,-0.5616 -0.0685,-0.8044 -0.0345,-0.1905 -0.0776,-0.3421 -0.1291,-0.4571 -0.0522,-0.1143 -0.1206,-0.2244 -0.206,-0.3302 -0.0854,-0.1066 -0.1982,-0.2075 -0.3387,-0.3041z"/>
  <path class="fil1" d="M204.117 41.3759c0.1835,-0.2547 0.381,-0.3824 0.5934,-0.3824 0.194,0 0.3633,0.0832 0.508,0.249 0.1446,0.1665 0.2173,0.393 0.2173,0.6816 0,0.3358 -0.1115,0.6068 -0.3351,0.8121 -0.1912,0.1764 -0.405,0.2646 -0.6407,0.2646 -0.11,0 -0.2222,-0.0198 -0.3358,-0.06 -0.1136,-0.0402 -0.23,-0.1002 -0.3486,-0.1799l0 -1.9615c0,-0.2152 -0.0049,-0.3471 -0.0155,-0.3972 -0.0099,-0.0494 -0.0261,-0.0832 -0.048,-0.1009 -0.0225,-0.0183 -0.0501,-0.0268 -0.0832,-0.0268 -0.0381,0 -0.0868,0.0106 -0.1447,0.0332l-0.0289 -0.0727 0.5687 -0.2314 0.0931 0 0 1.3723zm0 0.1326l0 1.1324c0.0699,0.0692 0.1425,0.1214 0.218,0.156 0.0748,0.0352 0.1517,0.0529 0.2308,0.0529 0.1248,0 0.242,-0.0692 0.3499,-0.2068 0.108,-0.1375 0.1623,-0.3379 0.1623,-0.6011 0,-0.2427 -0.0543,-0.429 -0.1623,-0.5595 -0.1079,-0.1298 -0.2307,-0.1954 -0.369,-0.1954 -0.0727,0 -0.146,0.019 -0.2187,0.0557 -0.0551,0.0275 -0.1256,0.0833 -0.211,0.1658z"/>
  <path class="fil1" d="M205.677 40.0904l0 -0.0868c0.2096,0.103 0.3839,0.225 0.5229,0.3662 0.1968,0.201 0.3492,0.4367 0.4565,0.7076 0.1079,0.271 0.1615,0.5532 0.1615,0.8467 0,0.4268 -0.1051,0.8163 -0.3154,1.1684 -0.2102,0.352 -0.4854,0.6039 -0.8255,0.7556l0 -0.0762c0.1694,-0.0952 0.3091,-0.2236 0.4184,-0.3859 0.1094,-0.1616 0.1912,-0.3676 0.2442,-0.6181 0.0529,-0.2497 0.0797,-0.5108 0.0797,-0.7817 0,-0.2935 -0.0233,-0.5616 -0.0685,-0.8044 -0.0345,-0.1905 -0.0776,-0.3421 -0.1291,-0.4571 -0.0522,-0.1143 -0.1206,-0.2244 -0.206,-0.3302 -0.0854,-0.1066 -0.1982,-0.2075 -0.3387,-0.3041z"/>
  <path class="fil1" d="M174.518 83.0732c-0.0508,0.2498 -0.151,0.4417 -0.2999,0.5758 -0.1488,0.1347 -0.3132,0.2018 -0.4939,0.2018 -0.2151,0 -0.4028,-0.0904 -0.5623,-0.271 -0.1601,-0.1806 -0.2399,-0.424 -0.2399,-0.7316 0,-0.2978 0.0889,-0.5398 0.266,-0.7253 0.1771,-0.1863 0.3895,-0.2794 0.6371,-0.2794 0.1863,0 0.3394,0.0494 0.4594,0.1481 0.1199,0.0981 0.1799,0.2004 0.1799,0.3069 0,0.0523 -0.017,0.0946 -0.0508,0.127 -0.0339,0.0325 -0.0812,0.0487 -0.1418,0.0487 -0.0812,0 -0.1426,-0.0261 -0.1842,-0.0783 -0.0233,-0.0289 -0.0388,-0.0847 -0.0459,-0.1658 -0.0077,-0.0811 -0.0359,-0.1432 -0.0839,-0.1863 -0.0487,-0.0409 -0.115,-0.0613 -0.2004,-0.0613 -0.1383,0 -0.2491,0.0508 -0.333,0.1524 -0.1115,0.1354 -0.1672,0.3139 -0.1672,0.5355 0,0.2257 0.055,0.4254 0.1665,0.5983 0.1108,0.1728 0.2603,0.2596 0.4494,0.2596 0.1348,0 0.2561,-0.0458 0.3634,-0.1383 0.0762,-0.0635 0.1496,-0.1785 0.2215,-0.3457l0.06 0.0289z"/>
  <path class="fil1" d="M174.752 80.9404l0 -0.0868c0.2096,0.103 0.3839,0.225 0.5229,0.3662 0.1968,0.201 0.3492,0.4367 0.4565,0.7076 0.1079,0.271 0.1615,0.5532 0.1615,0.8467 0,0.4268 -0.1051,0.8163 -0.3154,1.1684 -0.2102,0.352 -0.4854,0.6039 -0.8255,0.7556l0 -0.0762c0.1694,-0.0952 0.3091,-0.2236 0.4184,-0.3859 0.1094,-0.1616 0.1912,-0.3676 0.2442,-0.6181 0.0529,-0.2497 0.0797,-0.5108 0.0797,-0.7817 0,-0.2935 -0.0233,-0.5616 -0.0685,-0.8044 -0.0345,-0.1905 -0.0776,-0.3421 -0.1291,-0.4571 -0.0522,-0.1143 -0.1206,-0.2244 -0.206,-0.3302 -0.0854,-0.1066 -0.1982,-0.2075 -0.3387,-0.3041z"/>
  <polyline class="fil0 str3" points="166.201,35.4397 223.349,35.8141 241.722,35.9345 "/>
  <line class="fil0 str3" x1="241.876" y1="35.9609" x2="248.617" y2= "26.2341" />
  <line class="fil0 str3" x1="224.528" y1="35.9274" x2="248.617" y2= "26.2341" />
  <line class="fil0 str3" x1="224.528" y1="35.9274" x2="232.008" y2= "26.1247" />
  <line class="fil0 str3" x1="207.103" y1="35.7831" x2="232.008" y2= "26.1247" />
  <line class="fil0 str3" x1="207.039" y1="35.7071" x2="213.168" y2= "26.0031" />
  <line class="fil0 str3" x1="190.56" y1="35.0084" x2="213.168" y2= "26.0031" />
  <line class="fil0 str3" x1="190.56" y1="35.0084" x2="196.384" y2= "25.892" />
  <line class="fil0 str3" x1="172.257" y1="35.6383" x2="196.384" y2= "25.892" />
  <line class="fil0 str3" x1="172.644" y1="35.4816" x2="182.283" y2= "25.7997" />
  <line class="fil0 str3" x1="241.17" y1="35.9881" x2="256.869" y2= "26.4347" />
  <line class="fil0 str3" x1="165.912" y1="35.1368" x2="181.612" y2= "25.5834" />
  <polyline class="fil0 str3" points="181.716,25.9251 238.864,26.2995 257.237,26.4199 "/>
  <path class="fil1" d="M144.581 39.3813l0 0.9694 -0.0762 0c-0.0254,-0.1863 -0.0699,-0.3345 -0.1334,-0.4445 -0.0642,-0.1108 -0.1559,-0.1983 -0.2744,-0.2625 -0.1186,-0.0649 -0.2406,-0.0974 -0.3676,-0.0974 -0.1433,0 -0.2618,0.0438 -0.3556,0.1313 -0.0939,0.0875 -0.1404,0.187 -0.1404,0.2984 0,0.0854 0.0296,0.1637 0.0889,0.2336 0.0853,0.1037 0.2885,0.2413 0.6096,0.4134 0.2617,0.1404 0.4409,0.2484 0.5362,0.3239 0.0959,0.0748 0.17,0.1637 0.2215,0.2653 0.0515,0.1023 0.0776,0.2088 0.0776,0.3203 0,0.2123 -0.0825,0.3951 -0.2469,0.5489 -0.1651,0.1538 -0.3768,0.2307 -0.6357,0.2307 -0.0819,0 -0.1581,-0.0063 -0.23,-0.019 -0.0424,-0.0064 -0.1313,-0.0318 -0.2653,-0.0748 -0.1341,-0.0438 -0.2194,-0.0656 -0.2554,-0.0656 -0.0346,0 -0.0614,0.0105 -0.0819,0.031 -0.0197,0.0205 -0.0345,0.0635 -0.0444,0.1284l-0.0762 0 0 -0.961 0.0762 0c0.036,0.2011 0.0847,0.3514 0.1453,0.4516 0.0607,0.0995 0.1531,0.1827 0.278,0.2491 0.1242,0.0656 0.2611,0.0987 0.4099,0.0987 0.1722,0 0.3084,-0.0451 0.4086,-0.1361 0.0994,-0.0911 0.1495,-0.1983 0.1495,-0.3225 0,-0.0691 -0.019,-0.1383 -0.0564,-0.2088 -0.0381,-0.0706 -0.0974,-0.1355 -0.1771,-0.1962 -0.0536,-0.0416 -0.2004,-0.1291 -0.4403,-0.2638 -0.2399,-0.1341 -0.4099,-0.2413 -0.5115,-0.3211 -0.1016,-0.0804 -0.1778,-0.1686 -0.2307,-0.2645 -0.0522,-0.0967 -0.0783,-0.2032 -0.0783,-0.3189 0,-0.2011 0.0769,-0.374 0.2314,-0.5193 0.1545,-0.1454 0.3507,-0.218 0.5891,-0.218 0.1489,0 0.307,0.0359 0.4735,0.1093 0.0769,0.0346 0.1319,0.0515 0.1629,0.0515 0.036,0 0.0657,-0.0106 0.0882,-0.0317 0.0226,-0.0219 0.041,-0.0649 0.0551,-0.1291l0.0762 0z"/>
  <path class="fil1" d="M146.772 41.6672l-0.0233 0.5807 -1.67 0 0 -0.0741 1.2566 -1.675 -0.6202 0c-0.1334,0 -0.2209,0.0092 -0.2625,0.0261 -0.0409,0.0177 -0.0748,0.0501 -0.1009,0.0981 -0.0374,0.0692 -0.0585,0.1545 -0.0642,0.2568l-0.0825 0 0.012 -0.5256 1.5874 0 0 0.0769 -1.2685 1.6785 0.69 0c0.1446,0 0.2427,-0.012 0.2949,-0.0367 0.0515,-0.024 0.0931,-0.0663 0.1249,-0.127 0.0219,-0.0437 0.0402,-0.1369 0.0557,-0.2787l0.0706 0z"/>
  <path class="fil1" d="M147.324 41.0675c-0.0014,0.2815 0.0664,0.5017 0.2047,0.6618 0.1375,0.1595 0.2998,0.2392 0.4854,0.2392 0.1242,0 0.2321,-0.0339 0.3238,-0.1023 0.0917,-0.0677 0.1679,-0.1849 0.23,-0.35l0.0642 0.041c-0.0289,0.1891 -0.1129,0.3612 -0.2518,0.5157 -0.1397,0.1552 -0.314,0.2329 -0.5229,0.2329 -0.2279,0 -0.4226,-0.0882 -0.5842,-0.2653 -0.1622,-0.1771 -0.2427,-0.4156 -0.2427,-0.7148 0,-0.3238 0.0826,-0.5764 0.2491,-0.757 0.1658,-0.1813 0.3739,-0.2724 0.6251,-0.2724 0.2124,0 0.3867,0.0699 0.5228,0.2103 0.1362,0.1397 0.2046,0.3267 0.2046,0.5609l-1.3081 0zm0 -0.1199l0.8763 0c-0.007,-0.1214 -0.0211,-0.2068 -0.0437,-0.2561 -0.0339,-0.0769 -0.0854,-0.1376 -0.1538,-0.1821 -0.0685,-0.0437 -0.1397,-0.0663 -0.2138,-0.0663 -0.1143,0 -0.2166,0.0445 -0.3069,0.1334 -0.0903,0.0889 -0.1432,0.213 -0.1581,0.3711zm0.9857 -1.5727l-0.6096 0.7126 -0.0706 0 0.2174 -0.7126 0.4628 0z"/>
  <path class="fil1" d="M149.535 39.3086l0 2.5117c0,0.1186 0.0091,0.1969 0.0261,0.2357 0.0169,0.0381 0.0437,0.0677 0.0797,0.0875 0.036,0.0197 0.1023,0.0303 0.2004,0.0303l0 0.0741 -0.9278 0 0 -0.0741c0.0868,0 0.146,-0.0092 0.1771,-0.0275 0.0317,-0.0176 0.0571,-0.0473 0.0748,-0.0889 0.0176,-0.0409 0.0268,-0.1199 0.0268,-0.2371l0 -1.7201c0,-0.2138 -0.005,-0.345 -0.0141,-0.3937 -0.0099,-0.0487 -0.0254,-0.0825 -0.0466,-0.1002 -0.0219,-0.0183 -0.0487,-0.0268 -0.0819,-0.0268 -0.0359,0 -0.0811,0.0106 -0.1361,0.0332l-0.0353 -0.0727 0.5644 -0.2314 0.0925 0z"/>
  <path class="fil1" d="M150.614 40.2985l0 0.4261c0.158,-0.2843 0.321,-0.4261 0.4875,-0.4261 0.0755,0 0.1383,0.0232 0.1884,0.0691 0.0494,0.0466 0.0741,0.1002 0.0741,0.1602 0,0.0543 -0.0176,0.0995 -0.0536,0.1368 -0.036,0.0374 -0.0783,0.0558 -0.1284,0.0558 -0.048,0 -0.1023,-0.024 -0.1623,-0.0713 -0.06,-0.0472 -0.1044,-0.0712 -0.1334,-0.0712 -0.0247,0 -0.0515,0.0134 -0.0804,0.0409 -0.0621,0.0564 -0.1263,0.1496 -0.1919,0.2794l0 0.9073c0,0.1044 0.0127,0.1842 0.0388,0.2378 0.0183,0.0374 0.0501,0.0684 0.0953,0.0931 0.0458,0.0247 0.1107,0.0374 0.1961,0.0374l0 0.0741 -0.9694 0 0 -0.0741c0.0966,0 0.1686,-0.0155 0.2152,-0.0458 0.0345,-0.0219 0.0585,-0.0572 0.0726,-0.1052 0.0064,-0.024 0.0099,-0.0903 0.0099,-0.2011l0 -0.7337c0,-0.2202 -0.0042,-0.3514 -0.0134,-0.3937 -0.0085,-0.0416 -0.0254,-0.0727 -0.0494,-0.0917 -0.024,-0.0191 -0.0543,-0.029 -0.0903,-0.029 -0.0423,0 -0.0903,0.0106 -0.1446,0.0311l-0.0205 -0.0748 0.5729 -0.2314 0.0868 0z"/>
  <path class="fil1" d="M152.543 41.9749c-0.194,0.1502 -0.3161,0.237 -0.3662,0.2603 -0.0741,0.0346 -0.1531,0.0522 -0.2371,0.0522 -0.1312,0 -0.2391,-0.0451 -0.3238,-0.1347 -0.0847,-0.0897 -0.127,-0.2075 -0.127,-0.3535 0,-0.0925 0.0204,-0.1722 0.0621,-0.2399 0.0564,-0.0931 0.1545,-0.1813 0.2942,-0.2646 0.1397,-0.0825 0.3725,-0.1827 0.6978,-0.3013l0 -0.0748c0,-0.1883 -0.0297,-0.3182 -0.0896,-0.3887 -0.06,-0.0699 -0.1475,-0.1051 -0.2618,-0.1051 -0.0868,0 -0.1559,0.0232 -0.2067,0.0705 -0.0522,0.0466 -0.0783,0.1002 -0.0783,0.1609l0.0042 0.1199c0,0.0635 -0.0162,0.1122 -0.0487,0.1468 -0.0324,0.0345 -0.0748,0.0515 -0.127,0.0515 -0.0515,0 -0.0931,-0.0177 -0.1256,-0.0536 -0.0324,-0.036 -0.0486,-0.0847 -0.0486,-0.1468 0,-0.1185 0.0606,-0.2272 0.182,-0.3267 0.1213,-0.0987 0.2914,-0.1488 0.5108,-0.1488 0.1679,0 0.3055,0.0282 0.4135,0.0846 0.0811,0.0431 0.1411,0.1101 0.1799,0.2011 0.0247,0.0593 0.0367,0.1799 0.0367,0.3634l0 0.6427c0,0.1806 0.0035,0.2914 0.0105,0.3323 0.0071,0.0403 0.0184,0.0678 0.0339,0.0812 0.0162,0.0141 0.0346,0.0211 0.055,0.0211 0.0219,0 0.0417,-0.0049 0.0579,-0.0148 0.0289,-0.0176 0.0847,-0.0684 0.1672,-0.151l0 0.1158c-0.1538,0.2067 -0.3013,0.3104 -0.4424,0.3104 -0.067,0 -0.1206,-0.0233 -0.1608,-0.0706 -0.0402,-0.0465 -0.0607,-0.127 -0.0621,-0.2398zm0 -0.1341l0 -0.7218c-0.2082,0.0833 -0.3422,0.1418 -0.4029,0.1757 -0.1093,0.0607 -0.187,0.1242 -0.2335,0.1905 -0.0473,0.0663 -0.0706,0.1383 -0.0706,0.2173 0,0.0988 0.0297,0.1813 0.0889,0.247 0.0593,0.0649 0.1277,0.098 0.2046,0.098 0.1052,0 0.2427,-0.0691 0.4135,-0.2067zm0.2046 -2.4659l-0.6096 0.7126 -0.0706 0 0.2173 -0.7126 0.4629 0z"/>
  <path class="fil1" d="M154.957 41.5282c-0.0508,0.2498 -0.151,0.4417 -0.2999,0.5758 -0.1488,0.1347 -0.3132,0.2018 -0.4939,0.2018 -0.2151,0 -0.4028,-0.0904 -0.5623,-0.271 -0.1601,-0.1806 -0.2399,-0.424 -0.2399,-0.7316 0,-0.2978 0.0889,-0.5398 0.266,-0.7253 0.1771,-0.1863 0.3895,-0.2794 0.6371,-0.2794 0.1863,0 0.3394,0.0494 0.4594,0.1481 0.1199,0.0981 0.1799,0.2004 0.1799,0.3069 0,0.0523 -0.017,0.0946 -0.0508,0.127 -0.0339,0.0325 -0.0812,0.0487 -0.1418,0.0487 -0.0812,0 -0.1426,-0.0261 -0.1842,-0.0783 -0.0233,-0.0289 -0.0388,-0.0847 -0.0459,-0.1658 -0.0077,-0.0811 -0.0359,-0.1432 -0.0839,-0.1863 -0.0487,-0.0409 -0.115,-0.0613 -0.2004,-0.0613 -0.1383,0 -0.2491,0.0508 -0.333,0.1524 -0.1115,0.1354 -0.1672,0.3139 -0.1672,0.5355 0,0.2257 0.055,0.4254 0.1665,0.5983 0.1108,0.1728 0.2603,0.2596 0.4494,0.2596 0.1348,0 0.2561,-0.0458 0.3634,-0.1383 0.0762,-0.0635 0.1496,-0.1785 0.2215,-0.3457l0.06 0.0289z"/>
  <path class="fil1" d="M156.452 40.2985l0 0.6448 -0.0685 0c-0.0522,-0.2025 -0.1192,-0.34 -0.2011,-0.4134 -0.0825,-0.0727 -0.1869,-0.1094 -0.3132,-0.1094 -0.0967,0 -0.1743,0.0254 -0.2336,0.0769 -0.0592,0.0508 -0.0889,0.1073 -0.0889,0.1694 0,0.0769 0.0219,0.1432 0.0657,0.1982 0.043,0.0565 0.1298,0.1164 0.261,0.1799l0.3013 0.1468c0.2801,0.1362 0.4198,0.3161 0.4198,0.5397 0,0.1722 -0.0649,0.3105 -0.1954,0.4163 -0.1299,0.1051 -0.2759,0.1581 -0.4368,0.1581 -0.1164,0 -0.2483,-0.0205 -0.3972,-0.0621 -0.0452,-0.0134 -0.0826,-0.0205 -0.1115,-0.0205 -0.0317,0 -0.0564,0.0176 -0.0748,0.0536l-0.0677 0 0 -0.6759 0.0677 0c0.0388,0.1926 0.1129,0.338 0.2216,0.436 0.1086,0.0981 0.2307,0.1468 0.3654,0.1468 0.0953,0 0.1729,-0.0275 0.2329,-0.0833 0.0599,-0.0564 0.0896,-0.1234 0.0896,-0.2017 0,-0.0953 -0.0332,-0.175 -0.1002,-0.2399 -0.0663,-0.0649 -0.1997,-0.1468 -0.4001,-0.2463 -0.1996,-0.0987 -0.3302,-0.1884 -0.3922,-0.2681 -0.0621,-0.079 -0.0932,-0.1778 -0.0932,-0.2977 0,-0.1559 0.0536,-0.2865 0.1602,-0.3909 0.1065,-0.1044 0.2448,-0.1573 0.4141,-0.1573 0.0748,0 0.1651,0.0162 0.271,0.0479 0.0705,0.0205 0.1171,0.0311 0.1404,0.0311 0.0226,0 0.0395,-0.005 0.0522,-0.0148 0.012,-0.0099 0.0268,-0.0311 0.043,-0.0642l0.0685 0z"/>
  <line class="fil0 str0" x1="142.64" y1="39.9369" x2="114.251" y2= "28.7002" />
  <line class="fil0 str0" x1="158.216" y1="39.493" x2="171.692" y2= "35.6383" />
  <path class="fil1" d="M123.161 71.9451l1.3025 0 0 -0.8022c0,-0.1433 -0.0092,-0.2378 -0.0268,-0.283 -0.0141,-0.0345 -0.0431,-0.0642 -0.0868,-0.0889 -0.0593,-0.0331 -0.1221,-0.0493 -0.1884,-0.0493l-0.0988 0 0 -0.077 1.1988 0 0 0.077 -0.0995 0c-0.0656,0 -0.1284,0.0155 -0.1877,0.0472 -0.0444,0.0219 -0.0741,0.0558 -0.0903,0.1002 -0.0155,0.0452 -0.0233,0.1362 -0.0233,0.2738l0 1.809c0,0.1418 0.0085,0.2357 0.0268,0.2808 0.0134,0.0346 0.0417,0.0642 0.0847,0.0889 0.0607,0.0332 0.1242,0.0501 0.1898,0.0501l0.0995 0 0 0.0762 -1.1988 0 0 -0.0762 0.0988 0c0.1143,0 0.1983,-0.0339 0.2505,-0.1016 0.0346,-0.0437 0.0515,-0.1503 0.0515,-0.3182l0 -0.8537 -1.3025 0 0 0.8537c0,0.1418 0.0092,0.2357 0.0269,0.2808 0.0141,0.0346 0.043,0.0642 0.0874,0.0889 0.0593,0.0332 0.1214,0.0501 0.1877,0.0501l0.1016 0 0 0.0762 -1.2008 0 0 -0.0762 0.0987 0c0.1158,0 0.1997,-0.0339 0.2526,-0.1016 0.0325,-0.0437 0.0494,-0.1503 0.0494,-0.3182l0 -1.809c0,-0.1433 -0.0091,-0.2378 -0.0268,-0.283 -0.0141,-0.0345 -0.0423,-0.0642 -0.0847,-0.0889 -0.0606,-0.0331 -0.1241,-0.0493 -0.1905,-0.0493l-0.0987 0 0 -0.077 1.2008 0 0 0.077 -0.1016 0c-0.0663,0 -0.1284,0.0155 -0.1877,0.0472 -0.043,0.0219 -0.0726,0.0558 -0.0889,0.1002 -0.0169,0.0452 -0.0254,0.1362 -0.0254,0.2738l0 0.8022z"/>
  <path class="fil1" d="M126.406 71.4985c0.2865,0 0.5165,0.1093 0.6908,0.3266 0.1474,0.1863 0.2208,0.4001 0.2208,0.6407 0,0.17 -0.0409,0.3415 -0.1221,0.515 -0.0811,0.1736 -0.1933,0.3048 -0.3358,0.393 -0.1425,0.0882 -0.3013,0.132 -0.4763,0.132 -0.2857,0 -0.5122,-0.1136 -0.6801,-0.3408 -0.1418,-0.1919 -0.2131,-0.4071 -0.2131,-0.6449 0,-0.1743 0.0431,-0.3464 0.1291,-0.5179 0.0861,-0.1714 0.1997,-0.2984 0.3401,-0.3803 0.1404,-0.0825 0.2893,-0.1234 0.4466,-0.1234zm-0.0642 0.1347c-0.0727,0 -0.146,0.0212 -0.2201,0.0649 -0.0734,0.0438 -0.1334,0.1193 -0.1785,0.2286 -0.0459,0.1087 -0.0685,0.2484 -0.0685,0.4191 0,0.2759 0.0551,0.5137 0.1644,0.7133 0.1094,0.1997 0.254,0.2999 0.4332,0.2999 0.1334,0 0.2435,-0.055 0.3309,-0.1651 0.0868,-0.1108 0.1299,-0.2999 0.1299,-0.5687 0,-0.3365 -0.072,-0.6011 -0.2173,-0.7937 -0.0974,-0.1327 -0.2223,-0.1983 -0.374,-0.1983z"/>
  <path class="fil1" d="M128.821 71.4985l0 0.6448 -0.0685 0c-0.0522,-0.2025 -0.1192,-0.34 -0.2011,-0.4134 -0.0825,-0.0727 -0.1869,-0.1094 -0.3132,-0.1094 -0.0967,0 -0.1743,0.0254 -0.2336,0.0769 -0.0592,0.0508 -0.0889,0.1073 -0.0889,0.1694 0,0.0769 0.0219,0.1432 0.0657,0.1982 0.043,0.0565 0.1298,0.1164 0.261,0.1799l0.3013 0.1468c0.2801,0.1362 0.4198,0.3161 0.4198,0.5397 0,0.1722 -0.0649,0.3105 -0.1954,0.4163 -0.1299,0.1051 -0.2759,0.1581 -0.4368,0.1581 -0.1164,0 -0.2483,-0.0205 -0.3972,-0.0621 -0.0452,-0.0134 -0.0826,-0.0205 -0.1115,-0.0205 -0.0317,0 -0.0564,0.0176 -0.0748,0.0536l-0.0677 0 0 -0.6759 0.0677 0c0.0388,0.1926 0.1129,0.338 0.2216,0.436 0.1086,0.0981 0.2307,0.1468 0.3654,0.1468 0.0953,0 0.1729,-0.0275 0.2329,-0.0833 0.0599,-0.0564 0.0896,-0.1234 0.0896,-0.2017 0,-0.0953 -0.0332,-0.175 -0.1002,-0.2399 -0.0663,-0.0649 -0.1997,-0.1468 -0.4001,-0.2463 -0.1996,-0.0987 -0.3302,-0.1884 -0.3922,-0.2681 -0.0621,-0.079 -0.0932,-0.1778 -0.0932,-0.2977 0,-0.1559 0.0536,-0.2865 0.1602,-0.3909 0.1065,-0.1044 0.2448,-0.1573 0.4141,-0.1573 0.0748,0 0.1651,0.0162 0.271,0.0479 0.0705,0.0205 0.1171,0.0311 0.1404,0.0311 0.0226,0 0.0395,-0.005 0.0522,-0.0148 0.012,-0.0099 0.0268,-0.0311 0.043,-0.0642l0.0685 0z"/>
  <path class="fil1" d="M130.468 71.4985l0 0.6448 -0.0685 0c-0.0522,-0.2025 -0.1192,-0.34 -0.2011,-0.4134 -0.0825,-0.0727 -0.1869,-0.1094 -0.3132,-0.1094 -0.0967,0 -0.1743,0.0254 -0.2336,0.0769 -0.0592,0.0508 -0.0889,0.1073 -0.0889,0.1694 0,0.0769 0.0219,0.1432 0.0657,0.1982 0.043,0.0565 0.1298,0.1164 0.261,0.1799l0.3013 0.1468c0.2801,0.1362 0.4198,0.3161 0.4198,0.5397 0,0.1722 -0.0649,0.3105 -0.1954,0.4163 -0.1299,0.1051 -0.2759,0.1581 -0.4368,0.1581 -0.1164,0 -0.2483,-0.0205 -0.3972,-0.0621 -0.0452,-0.0134 -0.0826,-0.0205 -0.1115,-0.0205 -0.0317,0 -0.0564,0.0176 -0.0748,0.0536l-0.0677 0 0 -0.6759 0.0677 0c0.0388,0.1926 0.1129,0.338 0.2216,0.436 0.1086,0.0981 0.2307,0.1468 0.3654,0.1468 0.0953,0 0.1729,-0.0275 0.2329,-0.0833 0.0599,-0.0564 0.0896,-0.1234 0.0896,-0.2017 0,-0.0953 -0.0332,-0.175 -0.1002,-0.2399 -0.0663,-0.0649 -0.1997,-0.1468 -0.4001,-0.2463 -0.1996,-0.0987 -0.3302,-0.1884 -0.3922,-0.2681 -0.0621,-0.079 -0.0932,-0.1778 -0.0932,-0.2977 0,-0.1559 0.0536,-0.2865 0.1602,-0.3909 0.1065,-0.1044 0.2448,-0.1573 0.4141,-0.1573 0.0748,0 0.1651,0.0162 0.271,0.0479 0.0705,0.0205 0.1171,0.0311 0.1404,0.0311 0.0226,0 0.0395,-0.005 0.0522,-0.0148 0.012,-0.0099 0.0268,-0.0311 0.043,-0.0642l0.0685 0z"/>
  <path class="fil1" d="M132.537 72.8672l-0.0233 0.5807 -1.67 0 0 -0.0741 1.2566 -1.675 -0.6202 0c-0.1334,0 -0.2209,0.0092 -0.2625,0.0261 -0.0409,0.0177 -0.0748,0.0501 -0.1009,0.0981 -0.0374,0.0692 -0.0585,0.1545 -0.0642,0.2568l-0.0825 0 0.012 -0.5256 1.5874 0 0 0.0769 -1.2685 1.6785 0.69 0c0.1446,0 0.2427,-0.012 0.2949,-0.0367 0.0515,-0.024 0.0931,-0.0663 0.1249,-0.127 0.0219,-0.0437 0.0402,-0.1369 0.0557,-0.2787l0.0706 0z"/>
  <path class="fil1" d="M133.333 71.902c0.1382,-0.1382 0.2194,-0.2173 0.2441,-0.2377 0.0621,-0.0529 0.1291,-0.0932 0.2004,-0.1221 0.0719,-0.0289 0.1425,-0.0437 0.213,-0.0437 0.1186,0 0.2209,0.0345 0.3062,0.1037 0.0854,0.0684 0.1426,0.1686 0.1715,0.2998 0.1418,-0.1658 0.2618,-0.2744 0.3598,-0.3259 0.0974,-0.0515 0.1983,-0.0776 0.3013,-0.0776 0.1009,0 0.1898,0.0261 0.2681,0.0776 0.0776,0.0515 0.139,0.1361 0.1849,0.2533 0.0303,0.0797 0.0451,0.2053 0.0451,0.376l0 0.8149c0,0.1186 0.0092,0.1997 0.0268,0.2435 0.0141,0.0303 0.0395,0.0564 0.0769,0.0776 0.0374,0.0211 0.0974,0.0324 0.1821,0.0324l0 0.0741 -0.9349 0 0 -0.0741 0.0395 0c0.0812,0 0.1447,-0.0162 0.1905,-0.048 0.0318,-0.0218 0.0543,-0.0571 0.0677,-0.1051 0.0057,-0.0233 0.0085,-0.0903 0.0085,-0.2004l0 -0.8149c0,-0.1545 -0.0183,-0.2631 -0.0557,-0.3266 -0.0536,-0.0882 -0.1397,-0.132 -0.2583,-0.132 -0.0733,0 -0.1467,0.0184 -0.2201,0.0543 -0.0741,0.0367 -0.163,0.1045 -0.2681,0.204l-0.0042 0.0225 0.0042 0.0889 0 0.9038c0,0.1292 0.0078,0.2096 0.0219,0.2413 0.0148,0.0318 0.0416,0.0586 0.0818,0.0798 0.0395,0.0211 0.108,0.0324 0.2046,0.0324l0 0.0741 -0.9574 0 0 -0.0741c0.1051,0 0.1771,-0.0127 0.2166,-0.0374 0.0388,-0.0247 0.0663,-0.0621 0.0811,-0.1115 0.0071,-0.0239 0.0106,-0.0917 0.0106,-0.2046l0 -0.8149c0,-0.1545 -0.0226,-0.2653 -0.0684,-0.3323 -0.0607,-0.0882 -0.1454,-0.1326 -0.254,-0.1326 -0.0748,0 -0.1482,0.0197 -0.2216,0.0599 -0.1143,0.0607 -0.2025,0.1292 -0.2645,0.2047l0 1.0152c0,0.1235 0.0091,0.2046 0.0261,0.2413 0.0169,0.0374 0.043,0.0657 0.0762,0.084 0.0338,0.0183 0.1023,0.0282 0.206,0.0282l0 0.0741 -0.9363 0 0 -0.0741c0.0868,0 0.1475,-0.0099 0.1821,-0.0282 0.0338,-0.0183 0.0606,-0.048 0.0783,-0.0889 0.0176,-0.0409 0.0268,-0.1192 0.0268,-0.2364l0 -0.7239c0,-0.2081 -0.0064,-0.3421 -0.0184,-0.4028 -0.0098,-0.0459 -0.0254,-0.0769 -0.0458,-0.0939 -0.0205,-0.0176 -0.0487,-0.0261 -0.0847,-0.0261 -0.0388,0 -0.0847,0.0106 -0.1383,0.0311l-0.031 -0.0748 0.5701 -0.2314 0.0889 0 0 0.4035z"/>
  <path class="fil1" d="M136.382 72.2675c-0.0014,0.2815 0.0664,0.5017 0.2047,0.6618 0.1375,0.1595 0.2998,0.2392 0.4854,0.2392 0.1242,0 0.2321,-0.0339 0.3238,-0.1023 0.0917,-0.0677 0.1679,-0.1849 0.23,-0.35l0.0642 0.041c-0.0289,0.1891 -0.1129,0.3612 -0.2518,0.5157 -0.1397,0.1552 -0.314,0.2329 -0.5229,0.2329 -0.2279,0 -0.4226,-0.0882 -0.5842,-0.2653 -0.1622,-0.1771 -0.2427,-0.4156 -0.2427,-0.7148 0,-0.3238 0.0826,-0.5764 0.2491,-0.757 0.1658,-0.1813 0.3739,-0.2724 0.6251,-0.2724 0.2124,0 0.3867,0.0699 0.5228,0.2103 0.1362,0.1397 0.2046,0.3267 0.2046,0.5609l-1.3081 0zm0 -0.1199l0.8763 0c-0.007,-0.1214 -0.0211,-0.2068 -0.0437,-0.2561 -0.0339,-0.0769 -0.0854,-0.1376 -0.1538,-0.1821 -0.0685,-0.0437 -0.1397,-0.0663 -0.2138,-0.0663 -0.1143,0 -0.2166,0.0445 -0.3069,0.1334 -0.0903,0.0889 -0.1432,0.213 -0.1581,0.3711z"/>
  <path class="fil1" d="M138.497 71.4985l0 0.4261c0.158,-0.2843 0.321,-0.4261 0.4875,-0.4261 0.0755,0 0.1383,0.0232 0.1884,0.0691 0.0494,0.0466 0.0741,0.1002 0.0741,0.1602 0,0.0543 -0.0176,0.0995 -0.0536,0.1368 -0.036,0.0374 -0.0783,0.0558 -0.1284,0.0558 -0.048,0 -0.1023,-0.024 -0.1623,-0.0713 -0.06,-0.0472 -0.1044,-0.0712 -0.1334,-0.0712 -0.0247,0 -0.0515,0.0134 -0.0804,0.0409 -0.0621,0.0564 -0.1263,0.1496 -0.1919,0.2794l0 0.9073c0,0.1044 0.0127,0.1842 0.0388,0.2378 0.0183,0.0374 0.0501,0.0684 0.0953,0.0931 0.0458,0.0247 0.1107,0.0374 0.1961,0.0374l0 0.0741 -0.9694 0 0 -0.0741c0.0966,0 0.1686,-0.0155 0.2152,-0.0458 0.0345,-0.0219 0.0585,-0.0572 0.0726,-0.1052 0.0064,-0.024 0.0099,-0.0903 0.0099,-0.2011l0 -0.7337c0,-0.2202 -0.0042,-0.3514 -0.0134,-0.3937 -0.0085,-0.0416 -0.0254,-0.0727 -0.0494,-0.0917 -0.024,-0.0191 -0.0543,-0.029 -0.0903,-0.029 -0.0423,0 -0.0903,0.0106 -0.1446,0.0311l-0.0205 -0.0748 0.5729 -0.2314 0.0868 0z"/>
  <path class="fil1" d="M139.671 72.2675c-0.0014,0.2815 0.0664,0.5017 0.2047,0.6618 0.1375,0.1595 0.2998,0.2392 0.4854,0.2392 0.1242,0 0.2321,-0.0339 0.3238,-0.1023 0.0917,-0.0677 0.1679,-0.1849 0.23,-0.35l0.0642 0.041c-0.0289,0.1891 -0.1129,0.3612 -0.2518,0.5157 -0.1397,0.1552 -0.314,0.2329 -0.5229,0.2329 -0.2279,0 -0.4226,-0.0882 -0.5842,-0.2653 -0.1622,-0.1771 -0.2427,-0.4156 -0.2427,-0.7148 0,-0.3238 0.0826,-0.5764 0.2491,-0.757 0.1658,-0.1813 0.3739,-0.2724 0.6251,-0.2724 0.2124,0 0.3867,0.0699 0.5228,0.2103 0.1362,0.1397 0.2046,0.3267 0.2046,0.5609l-1.3081 0zm0 -0.1199l0.8763 0c-0.007,-0.1214 -0.0211,-0.2068 -0.0437,-0.2561 -0.0339,-0.0769 -0.0854,-0.1376 -0.1538,-0.1821 -0.0685,-0.0437 -0.1397,-0.0663 -0.2138,-0.0663 -0.1143,0 -0.2166,0.0445 -0.3069,0.1334 -0.0903,0.0889 -0.1432,0.213 -0.1581,0.3711z"/>
  <path class="fil1" d="M141.134 71.5542l0.8911 0 0 0.0769 -0.0586 0c-0.0536,0 -0.0945,0.0127 -0.1227,0.0388 -0.0283,0.0268 -0.0424,0.0614 -0.0424,0.1058 0,0.048 0.0148,0.1052 0.0438,0.1715l0.4402 1.0456 0.4424 -1.0851c0.0318,-0.0769 0.0473,-0.1355 0.0473,-0.1757 0,-0.019 -0.0057,-0.0346 -0.0162,-0.0473 -0.0156,-0.0204 -0.0346,-0.0345 -0.0579,-0.0423 -0.024,-0.0078 -0.0713,-0.0113 -0.1432,-0.0113l0 -0.0769 0.618 0 0 0.0769c-0.0712,0.0057 -0.1213,0.0198 -0.1488,0.043 -0.048,0.0417 -0.091,0.1108 -0.1299,0.2068l-0.6716 1.6249 -0.0847 0 -0.6759 -1.5981c-0.0304,-0.0741 -0.0593,-0.1277 -0.0868,-0.1602 -0.0282,-0.0324 -0.0628,-0.0592 -0.1058,-0.0811 -0.0233,-0.0127 -0.0699,-0.0247 -0.1383,-0.0353l0 -0.0769z"/>
  <path class="fil1" d="M143.999 71.4985l0 1.5218c0,0.1186 0.0091,0.1969 0.0268,0.2364 0.0183,0.0395 0.0437,0.0684 0.0776,0.0882 0.0338,0.019 0.0959,0.0289 0.1855,0.0289l0 0.0741 -0.92 0 0 -0.0741c0.0924,0 0.1545,-0.0092 0.1856,-0.0275 0.0317,-0.0176 0.0571,-0.0473 0.0755,-0.0889 0.019,-0.0409 0.0282,-0.1199 0.0282,-0.2371l0 -0.7302c0,-0.2053 -0.0064,-0.338 -0.0184,-0.3986 -0.0098,-0.0445 -0.0254,-0.0748 -0.0458,-0.0918 -0.0205,-0.0176 -0.0487,-0.0261 -0.0847,-0.0261 -0.0388,0 -0.0854,0.0106 -0.1404,0.0311l-0.0289 -0.0748 0.5701 -0.2314 0.0889 0zm0.2462 -0.9236l-0.6096 0.7126 -0.0706 0 0.2174 -0.7126 0.4628 0z"/>
  <path class="fil1" d="M145.074 70.9326l0 0.6216 0.4423 0 0 0.1446 -0.4423 0 0 1.2284c0,0.1228 0.0176,0.2053 0.0529,0.2477 0.0346,0.043 0.0797,0.0642 0.1347,0.0642 0.0459,0 0.0896,-0.0142 0.1327,-0.0424 0.0423,-0.0282 0.0755,-0.0698 0.0995,-0.1249l0.0804 0c-0.0487,0.1348 -0.1164,0.2364 -0.2046,0.3048 -0.0882,0.0685 -0.1792,0.1023 -0.2731,0.1023 -0.0635,0 -0.1255,-0.0176 -0.1862,-0.0529 -0.0607,-0.0352 -0.1051,-0.0853 -0.1341,-0.151 -0.0289,-0.0649 -0.0437,-0.1658 -0.0437,-0.3026l0 -1.2736 -0.2992 0 0 -0.0677c0.0755,-0.0303 0.1531,-0.0818 0.2322,-0.1538 0.079,-0.0727 0.1502,-0.1587 0.2116,-0.2575 0.0318,-0.0522 0.0762,-0.1482 0.1327,-0.2872l0.0642 0z"/>
  <path class="fil1" d="M146.018 72.2675c-0.0014,0.2815 0.0664,0.5017 0.2047,0.6618 0.1375,0.1595 0.2998,0.2392 0.4854,0.2392 0.1242,0 0.2321,-0.0339 0.3238,-0.1023 0.0917,-0.0677 0.1679,-0.1849 0.23,-0.35l0.0642 0.041c-0.0289,0.1891 -0.1129,0.3612 -0.2518,0.5157 -0.1397,0.1552 -0.314,0.2329 -0.5229,0.2329 -0.2279,0 -0.4226,-0.0882 -0.5842,-0.2653 -0.1622,-0.1771 -0.2427,-0.4156 -0.2427,-0.7148 0,-0.3238 0.0826,-0.5764 0.2491,-0.757 0.1658,-0.1813 0.3739,-0.2724 0.6251,-0.2724 0.2124,0 0.3867,0.0699 0.5228,0.2103 0.1362,0.1397 0.2046,0.3267 0.2046,0.5609l-1.3081 0zm0 -0.1199l0.8763 0c-0.007,-0.1214 -0.0211,-0.2068 -0.0437,-0.2561 -0.0339,-0.0769 -0.0854,-0.1376 -0.1538,-0.1821 -0.0685,-0.0437 -0.1397,-0.0663 -0.2138,-0.0663 -0.1143,0 -0.2166,0.0445 -0.3069,0.1334 -0.0903,0.0889 -0.1432,0.213 -0.1581,0.3711zm0.9857 -1.5727l-0.6096 0.7126 -0.0706 0 0.2174 -0.7126 0.4628 0z"/>
  <path class="fil1" d="M148.803 71.4985l0 0.6448 -0.0685 0c-0.0522,-0.2025 -0.1192,-0.34 -0.2011,-0.4134 -0.0825,-0.0727 -0.1869,-0.1094 -0.3132,-0.1094 -0.0967,0 -0.1743,0.0254 -0.2336,0.0769 -0.0592,0.0508 -0.0889,0.1073 -0.0889,0.1694 0,0.0769 0.0219,0.1432 0.0657,0.1982 0.043,0.0565 0.1298,0.1164 0.261,0.1799l0.3013 0.1468c0.2801,0.1362 0.4198,0.3161 0.4198,0.5397 0,0.1722 -0.0649,0.3105 -0.1954,0.4163 -0.1299,0.1051 -0.2759,0.1581 -0.4368,0.1581 -0.1164,0 -0.2483,-0.0205 -0.3972,-0.0621 -0.0452,-0.0134 -0.0826,-0.0205 -0.1115,-0.0205 -0.0317,0 -0.0564,0.0176 -0.0748,0.0536l-0.0677 0 0 -0.6759 0.0677 0c0.0388,0.1926 0.1129,0.338 0.2216,0.436 0.1086,0.0981 0.2307,0.1468 0.3654,0.1468 0.0953,0 0.1729,-0.0275 0.2329,-0.0833 0.0599,-0.0564 0.0896,-0.1234 0.0896,-0.2017 0,-0.0953 -0.0332,-0.175 -0.1002,-0.2399 -0.0663,-0.0649 -0.1997,-0.1468 -0.4001,-0.2463 -0.1996,-0.0987 -0.3302,-0.1884 -0.3922,-0.2681 -0.0621,-0.079 -0.0932,-0.1778 -0.0932,-0.2977 0,-0.1559 0.0536,-0.2865 0.1602,-0.3909 0.1065,-0.1044 0.2448,-0.1573 0.4141,-0.1573 0.0748,0 0.1651,0.0162 0.271,0.0479 0.0705,0.0205 0.1171,0.0311 0.1404,0.0311 0.0226,0 0.0395,-0.005 0.0522,-0.0148 0.012,-0.0099 0.0268,-0.0311 0.043,-0.0642l0.0685 0z"/>
  <line class="fil0 str0" x1="120.23" y1="70.3214" x2="109.443" y2= "62.2495" />
  <line class="fil0 str0" x1="151.218" y1="71.5005" x2="161.696" y2= "68.5032" />
  <path class="fil1" d="M166.624 17.8418l-0.7486 0 -0.9489 -1.3102c-0.0699,0.0021 -0.127,0.0035 -0.1715,0.0035 -0.0176,0 -0.0367,0 -0.0579,-0.0007 -0.0204,-0.0007 -0.0416,-0.0014 -0.0642,-0.0028l0 0.8142c0,0.1764 0.0198,0.2857 0.0579,0.3288 0.0529,0.0607 0.1312,0.091 0.2357,0.091l0.11 0 0 0.0762 -1.2008 0 0 -0.0762 0.1051 0c0.1185,0 0.2032,-0.0388 0.254,-0.1157 0.0289,-0.043 0.0437,-0.1446 0.0437,-0.3041l0 -1.8111c0,-0.1764 -0.0197,-0.2858 -0.0578,-0.3281 -0.0536,-0.0607 -0.1341,-0.091 -0.2399,-0.091l-0.1051 0 0 -0.077 1.0209 0c0.2977,0 0.5172,0.0219 0.6583,0.0657 0.1411,0.043 0.261,0.1227 0.3598,0.2391 0.0981,0.1172 0.1475,0.2555 0.1475,0.417 0,0.1722 -0.0558,0.3218 -0.1687,0.4488 -0.1121,0.1263 -0.2857,0.2159 -0.5214,0.2681l0.5786 0.8043c0.1319,0.1848 0.2462,0.3076 0.3408,0.3683 0.0952,0.06 0.2194,0.0988 0.3725,0.1157l0 0.0762zm-1.9911 -1.4407c0.0269,0 0.0494,0 0.0685,0.0007 0.019,0.0007 0.0353,0.0014 0.0473,0.0014 0.2674,0 0.4691,-0.0579 0.6046,-0.1736 0.1362,-0.1157 0.2039,-0.2632 0.2039,-0.4424 0,-0.1749 -0.055,-0.3175 -0.1644,-0.4268 -0.1093,-0.1094 -0.2547,-0.1644 -0.4353,-0.1644 -0.0797,0 -0.1877,0.0134 -0.3246,0.0395l0 1.1656z"/>
  <path class="fil1" d="M167.791 17.5688c-0.194,0.1502 -0.3161,0.237 -0.3662,0.2603 -0.0741,0.0346 -0.1531,0.0522 -0.2371,0.0522 -0.1312,0 -0.2391,-0.0451 -0.3238,-0.1347 -0.0847,-0.0897 -0.127,-0.2075 -0.127,-0.3535 0,-0.0925 0.0204,-0.1722 0.0621,-0.2399 0.0564,-0.0931 0.1545,-0.1813 0.2942,-0.2646 0.1397,-0.0825 0.3725,-0.1827 0.6978,-0.3013l0 -0.0748c0,-0.1883 -0.0297,-0.3182 -0.0896,-0.3887 -0.06,-0.0699 -0.1475,-0.1051 -0.2618,-0.1051 -0.0868,0 -0.1559,0.0232 -0.2067,0.0705 -0.0522,0.0466 -0.0783,0.1002 -0.0783,0.1609l0.0042 0.1199c0,0.0635 -0.0162,0.1122 -0.0487,0.1468 -0.0324,0.0345 -0.0748,0.0515 -0.127,0.0515 -0.0515,0 -0.0931,-0.0177 -0.1256,-0.0536 -0.0324,-0.036 -0.0486,-0.0847 -0.0486,-0.1468 0,-0.1185 0.0606,-0.2272 0.182,-0.3267 0.1213,-0.0987 0.2914,-0.1488 0.5108,-0.1488 0.1679,0 0.3055,0.0282 0.4135,0.0846 0.0811,0.0431 0.1411,0.1101 0.1799,0.2011 0.0247,0.0593 0.0367,0.1799 0.0367,0.3634l0 0.6427c0,0.1806 0.0035,0.2914 0.0105,0.3323 0.0071,0.0403 0.0184,0.0678 0.0339,0.0812 0.0162,0.0141 0.0346,0.0211 0.055,0.0211 0.0219,0 0.0417,-0.0049 0.0579,-0.0148 0.0289,-0.0176 0.0847,-0.0684 0.1672,-0.151l0 0.1158c-0.1538,0.2067 -0.3013,0.3104 -0.4424,0.3104 -0.067,0 -0.1206,-0.0233 -0.1608,-0.0706 -0.0402,-0.0465 -0.0607,-0.127 -0.0621,-0.2398zm0 -0.1341l0 -0.7218c-0.2082,0.0833 -0.3422,0.1418 -0.4029,0.1757 -0.1093,0.0607 -0.187,0.1242 -0.2335,0.1905 -0.0473,0.0663 -0.0706,0.1383 -0.0706,0.2173 0,0.0988 0.0297,0.1813 0.0889,0.247 0.0593,0.0649 0.1277,0.098 0.2046,0.098 0.1052,0 0.2427,-0.0691 0.4135,-0.2067zm0.2046 -2.4659l-0.6096 0.7126 -0.0706 0 0.2173 -0.7126 0.4629 0z"/>
  <path class="fil1" d="M170.206 17.1221c-0.0508,0.2498 -0.151,0.4417 -0.2999,0.5758 -0.1488,0.1347 -0.3132,0.2018 -0.4939,0.2018 -0.2151,0 -0.4028,-0.0904 -0.5623,-0.271 -0.1601,-0.1806 -0.2399,-0.424 -0.2399,-0.7316 0,-0.2978 0.0889,-0.5398 0.266,-0.7253 0.1771,-0.1863 0.3895,-0.2794 0.6371,-0.2794 0.1863,0 0.3394,0.0494 0.4594,0.1481 0.1199,0.0981 0.1799,0.2004 0.1799,0.3069 0,0.0523 -0.017,0.0946 -0.0508,0.127 -0.0339,0.0325 -0.0812,0.0487 -0.1418,0.0487 -0.0812,0 -0.1426,-0.0261 -0.1842,-0.0783 -0.0233,-0.0289 -0.0388,-0.0847 -0.0459,-0.1658 -0.0077,-0.0811 -0.0359,-0.1432 -0.0839,-0.1863 -0.0487,-0.0409 -0.115,-0.0613 -0.2004,-0.0613 -0.1383,0 -0.2491,0.0508 -0.333,0.1524 -0.1115,0.1354 -0.1672,0.3139 -0.1672,0.5355 0,0.2257 0.055,0.4254 0.1665,0.5983 0.1108,0.1728 0.2603,0.2596 0.4494,0.2596 0.1348,0 0.2561,-0.0458 0.3634,-0.1383 0.0762,-0.0635 0.1496,-0.1785 0.2215,-0.3457l0.06 0.0289z"/>
  <path class="fil1" d="M171.7 15.8924l0 0.6448 -0.0685 0c-0.0522,-0.2025 -0.1192,-0.34 -0.2011,-0.4134 -0.0825,-0.0727 -0.1869,-0.1094 -0.3132,-0.1094 -0.0967,0 -0.1743,0.0254 -0.2336,0.0769 -0.0592,0.0508 -0.0889,0.1073 -0.0889,0.1694 0,0.0769 0.0219,0.1432 0.0657,0.1982 0.043,0.0565 0.1298,0.1164 0.261,0.1799l0.3013 0.1468c0.2801,0.1362 0.4198,0.3161 0.4198,0.5397 0,0.1722 -0.0649,0.3105 -0.1954,0.4163 -0.1299,0.1051 -0.2759,0.1581 -0.4368,0.1581 -0.1164,0 -0.2483,-0.0205 -0.3972,-0.0621 -0.0452,-0.0134 -0.0826,-0.0205 -0.1115,-0.0205 -0.0317,0 -0.0564,0.0176 -0.0748,0.0536l-0.0677 0 0 -0.6759 0.0677 0c0.0388,0.1926 0.1129,0.338 0.2216,0.436 0.1086,0.0981 0.2307,0.1468 0.3654,0.1468 0.0953,0 0.1729,-0.0275 0.2329,-0.0833 0.0599,-0.0564 0.0896,-0.1234 0.0896,-0.2017 0,-0.0953 -0.0332,-0.175 -0.1002,-0.2399 -0.0663,-0.0649 -0.1997,-0.1468 -0.4001,-0.2463 -0.1996,-0.0987 -0.3302,-0.1884 -0.3922,-0.2681 -0.0621,-0.079 -0.0932,-0.1778 -0.0932,-0.2977 0,-0.1559 0.0536,-0.2865 0.1602,-0.3909 0.1065,-0.1044 0.2448,-0.1573 0.4141,-0.1573 0.0748,0 0.1651,0.0162 0.271,0.0479 0.0705,0.0205 0.1171,0.0311 0.1404,0.0311 0.0226,0 0.0395,-0.005 0.0522,-0.0148 0.012,-0.0099 0.0268,-0.0311 0.043,-0.0642l0.0685 0z"/>
  <path class="fil1" d="M173.05 15.8924c0.2865,0 0.5165,0.1093 0.6908,0.3266 0.1474,0.1863 0.2208,0.4001 0.2208,0.6407 0,0.17 -0.0409,0.3415 -0.1221,0.515 -0.0811,0.1736 -0.1933,0.3048 -0.3358,0.393 -0.1425,0.0882 -0.3013,0.132 -0.4763,0.132 -0.2857,0 -0.5122,-0.1136 -0.6801,-0.3408 -0.1418,-0.1919 -0.2131,-0.4071 -0.2131,-0.6449 0,-0.1743 0.0431,-0.3464 0.1291,-0.5179 0.0861,-0.1714 0.1997,-0.2984 0.3401,-0.3803 0.1404,-0.0825 0.2893,-0.1234 0.4466,-0.1234zm-0.0642 0.1347c-0.0727,0 -0.146,0.0212 -0.2201,0.0649 -0.0734,0.0438 -0.1334,0.1193 -0.1785,0.2286 -0.0459,0.1087 -0.0685,0.2484 -0.0685,0.4191 0,0.2759 0.0551,0.5137 0.1644,0.7133 0.1094,0.1997 0.254,0.2999 0.4332,0.2999 0.1334,0 0.2435,-0.055 0.3309,-0.1651 0.0868,-0.1108 0.1299,-0.2999 0.1299,-0.5687 0,-0.3365 -0.072,-0.6011 -0.2173,-0.7937 -0.0974,-0.1327 -0.2223,-0.1983 -0.374,-0.1983z"/>
  <path class="fil1" d="M175.464 15.8924l0 0.6448 -0.0685 0c-0.0522,-0.2025 -0.1192,-0.34 -0.2011,-0.4134 -0.0825,-0.0727 -0.1869,-0.1094 -0.3132,-0.1094 -0.0967,0 -0.1743,0.0254 -0.2336,0.0769 -0.0592,0.0508 -0.0889,0.1073 -0.0889,0.1694 0,0.0769 0.0219,0.1432 0.0657,0.1982 0.043,0.0565 0.1298,0.1164 0.261,0.1799l0.3013 0.1468c0.2801,0.1362 0.4198,0.3161 0.4198,0.5397 0,0.1722 -0.0649,0.3105 -0.1954,0.4163 -0.1299,0.1051 -0.2759,0.1581 -0.4368,0.1581 -0.1164,0 -0.2483,-0.0205 -0.3972,-0.0621 -0.0452,-0.0134 -0.0826,-0.0205 -0.1115,-0.0205 -0.0317,0 -0.0564,0.0176 -0.0748,0.0536l-0.0677 0 0 -0.6759 0.0677 0c0.0388,0.1926 0.1129,0.338 0.2216,0.436 0.1086,0.0981 0.2307,0.1468 0.3654,0.1468 0.0953,0 0.1729,-0.0275 0.2329,-0.0833 0.0599,-0.0564 0.0896,-0.1234 0.0896,-0.2017 0,-0.0953 -0.0332,-0.175 -0.1002,-0.2399 -0.0663,-0.0649 -0.1997,-0.1468 -0.4001,-0.2463 -0.1996,-0.0987 -0.3302,-0.1884 -0.3922,-0.2681 -0.0621,-0.079 -0.0932,-0.1778 -0.0932,-0.2977 0,-0.1559 0.0536,-0.2865 0.1602,-0.3909 0.1065,-0.1044 0.2448,-0.1573 0.4141,-0.1573 0.0748,0 0.1651,0.0162 0.271,0.0479 0.0705,0.0205 0.1171,0.0311 0.1404,0.0311 0.0226,0 0.0395,-0.005 0.0522,-0.0148 0.012,-0.0099 0.0268,-0.0311 0.043,-0.0642l0.0685 0z"/>
  <path class="fil1" d="M177.686 16.097l0 1.2446c0,0.1764 0.0197,0.2878 0.0578,0.3351 0.0515,0.0607 0.1193,0.091 0.2046,0.091l0.1722 0 0 0.0741 -1.131 0 0 -0.0741 0.0846 0c0.0551,0 0.1059,-0.0141 0.151,-0.0416 0.0452,-0.0275 0.0769,-0.0649 0.0939,-0.1115 0.0176,-0.0473 0.0261,-0.1383 0.0261,-0.273l0 -1.2446 -0.3683 0 0 -0.1489 0.3683 0 0 -0.1235c0,-0.1891 0.0303,-0.3492 0.091,-0.4797 0.0607,-0.1313 0.1531,-0.2371 0.278,-0.3175 0.1249,-0.0805 0.2646,-0.1207 0.4205,-0.1207 0.1446,0 0.278,0.0466 0.3993,0.1404 0.0798,0.0621 0.1193,0.132 0.1193,0.2089 0,0.0416 -0.0177,0.0804 -0.0537,0.1164 -0.0359,0.0367 -0.074,0.055 -0.1157,0.055 -0.0317,0 -0.0649,-0.0113 -0.1002,-0.0339 -0.0352,-0.0225 -0.0783,-0.0719 -0.1291,-0.1467 -0.0508,-0.0755 -0.098,-0.1256 -0.1404,-0.1524 -0.043,-0.0261 -0.0903,-0.0388 -0.1425,-0.0388 -0.0635,0 -0.1171,0.0169 -0.1616,0.0508 -0.0437,0.0331 -0.0755,0.0861 -0.0952,0.1566 -0.0191,0.0713 -0.0289,0.254 -0.0289,0.5489l0 0.1362 0.4882 0 0 0.1489 -0.4882 0z"/>
  <path class="fil1" d="M179.282 15.8924c0.2865,0 0.5165,0.1093 0.6908,0.3266 0.1474,0.1863 0.2208,0.4001 0.2208,0.6407 0,0.17 -0.0409,0.3415 -0.1221,0.515 -0.0811,0.1736 -0.1933,0.3048 -0.3358,0.393 -0.1425,0.0882 -0.3013,0.132 -0.4763,0.132 -0.2857,0 -0.5122,-0.1136 -0.6801,-0.3408 -0.1418,-0.1919 -0.2131,-0.4071 -0.2131,-0.6449 0,-0.1743 0.0431,-0.3464 0.1291,-0.5179 0.0861,-0.1714 0.1997,-0.2984 0.3401,-0.3803 0.1404,-0.0825 0.2893,-0.1234 0.4466,-0.1234zm-0.0642 0.1347c-0.0727,0 -0.146,0.0212 -0.2201,0.0649 -0.0734,0.0438 -0.1334,0.1193 -0.1785,0.2286 -0.0459,0.1087 -0.0685,0.2484 -0.0685,0.4191 0,0.2759 0.0551,0.5137 0.1644,0.7133 0.1094,0.1997 0.254,0.2999 0.4332,0.2999 0.1334,0 0.2435,-0.055 0.3309,-0.1651 0.0868,-0.1108 0.1299,-0.2999 0.1299,-0.5687 0,-0.3365 -0.072,-0.6011 -0.2173,-0.7937 -0.0974,-0.1327 -0.2223,-0.1983 -0.374,-0.1983zm-0.2702 -1.0583l0.3866 0 -0.455 0.7147 -0.0678 0 0.1362 -0.7147zm0.647 0l0.3866 0 -0.4508 0.7147 -0.0706 0 0.1348 -0.7147z"/>
  <path class="fil1" d="M181.023 15.3265l0 0.6216 0.4423 0 0 0.1446 -0.4423 0 0 1.2284c0,0.1228 0.0176,0.2053 0.0529,0.2477 0.0346,0.043 0.0797,0.0642 0.1347,0.0642 0.0459,0 0.0896,-0.0142 0.1327,-0.0424 0.0423,-0.0282 0.0755,-0.0698 0.0995,-0.1249l0.0804 0c-0.0487,0.1348 -0.1164,0.2364 -0.2046,0.3048 -0.0882,0.0685 -0.1792,0.1023 -0.2731,0.1023 -0.0635,0 -0.1255,-0.0176 -0.1862,-0.0529 -0.0607,-0.0352 -0.1051,-0.0853 -0.1341,-0.151 -0.0289,-0.0649 -0.0437,-0.1658 -0.0437,-0.3026l0 -1.2736 -0.2992 0 0 -0.0677c0.0755,-0.0303 0.1531,-0.0818 0.2322,-0.1538 0.079,-0.0727 0.1502,-0.1587 0.2116,-0.2575 0.0318,-0.0522 0.0762,-0.1482 0.1327,-0.2872l0.0642 0z"/>
  <path class="fil1" d="M182.722 17.5688c-0.194,0.1502 -0.3161,0.237 -0.3662,0.2603 -0.0741,0.0346 -0.1531,0.0522 -0.2371,0.0522 -0.1312,0 -0.2391,-0.0451 -0.3238,-0.1347 -0.0847,-0.0897 -0.127,-0.2075 -0.127,-0.3535 0,-0.0925 0.0204,-0.1722 0.0621,-0.2399 0.0564,-0.0931 0.1545,-0.1813 0.2942,-0.2646 0.1397,-0.0825 0.3725,-0.1827 0.6978,-0.3013l0 -0.0748c0,-0.1883 -0.0297,-0.3182 -0.0896,-0.3887 -0.06,-0.0699 -0.1475,-0.1051 -0.2618,-0.1051 -0.0868,0 -0.1559,0.0232 -0.2067,0.0705 -0.0522,0.0466 -0.0783,0.1002 -0.0783,0.1609l0.0042 0.1199c0,0.0635 -0.0162,0.1122 -0.0487,0.1468 -0.0324,0.0345 -0.0748,0.0515 -0.127,0.0515 -0.0515,0 -0.0931,-0.0177 -0.1256,-0.0536 -0.0324,-0.036 -0.0486,-0.0847 -0.0486,-0.1468 0,-0.1185 0.0606,-0.2272 0.182,-0.3267 0.1213,-0.0987 0.2914,-0.1488 0.5108,-0.1488 0.1679,0 0.3055,0.0282 0.4135,0.0846 0.0811,0.0431 0.1411,0.1101 0.1799,0.2011 0.0247,0.0593 0.0367,0.1799 0.0367,0.3634l0 0.6427c0,0.1806 0.0035,0.2914 0.0105,0.3323 0.0071,0.0403 0.0184,0.0678 0.0339,0.0812 0.0162,0.0141 0.0346,0.0211 0.055,0.0211 0.0219,0 0.0417,-0.0049 0.0579,-0.0148 0.0289,-0.0176 0.0847,-0.0684 0.1672,-0.151l0 0.1158c-0.1538,0.2067 -0.3013,0.3104 -0.4424,0.3104 -0.067,0 -0.1206,-0.0233 -0.1608,-0.0706 -0.0402,-0.0465 -0.0607,-0.127 -0.0621,-0.2398zm0 -0.1341l0 -0.7218c-0.2082,0.0833 -0.3422,0.1418 -0.4029,0.1757 -0.1093,0.0607 -0.187,0.1242 -0.2335,0.1905 -0.0473,0.0663 -0.0706,0.1383 -0.0706,0.2173 0,0.0988 0.0297,0.1813 0.0889,0.247 0.0593,0.0649 0.1277,0.098 0.2046,0.098 0.1052,0 0.2427,-0.0691 0.4135,-0.2067z"/>
  <path class="fil1" d="M184.082 15.8924l0 0.4261c0.158,-0.2843 0.321,-0.4261 0.4875,-0.4261 0.0755,0 0.1383,0.0232 0.1884,0.0691 0.0494,0.0466 0.0741,0.1002 0.0741,0.1602 0,0.0543 -0.0176,0.0995 -0.0536,0.1368 -0.036,0.0374 -0.0783,0.0558 -0.1284,0.0558 -0.048,0 -0.1023,-0.024 -0.1623,-0.0713 -0.06,-0.0472 -0.1044,-0.0712 -0.1334,-0.0712 -0.0247,0 -0.0515,0.0134 -0.0804,0.0409 -0.0621,0.0564 -0.1263,0.1496 -0.1919,0.2794l0 0.9073c0,0.1044 0.0127,0.1842 0.0388,0.2378 0.0183,0.0374 0.0501,0.0684 0.0953,0.0931 0.0458,0.0247 0.1107,0.0374 0.1961,0.0374l0 0.0741 -0.9694 0 0 -0.0741c0.0966,0 0.1686,-0.0155 0.2152,-0.0458 0.0345,-0.0219 0.0585,-0.0572 0.0726,-0.1052 0.0064,-0.024 0.0099,-0.0903 0.0099,-0.2011l0 -0.7337c0,-0.2202 -0.0042,-0.3514 -0.0134,-0.3937 -0.0085,-0.0416 -0.0254,-0.0727 -0.0494,-0.0917 -0.024,-0.0191 -0.0543,-0.029 -0.0903,-0.029 -0.0423,0 -0.0903,0.0106 -0.1446,0.0311l-0.0205 -0.0748 0.5729 -0.2314 0.0868 0z"/>
  <path class="fil1" d="M185.488 15.3265l0 0.6216 0.4423 0 0 0.1446 -0.4423 0 0 1.2284c0,0.1228 0.0176,0.2053 0.0529,0.2477 0.0346,0.043 0.0797,0.0642 0.1347,0.0642 0.0459,0 0.0896,-0.0142 0.1327,-0.0424 0.0423,-0.0282 0.0755,-0.0698 0.0995,-0.1249l0.0804 0c-0.0487,0.1348 -0.1164,0.2364 -0.2046,0.3048 -0.0882,0.0685 -0.1792,0.1023 -0.2731,0.1023 -0.0635,0 -0.1255,-0.0176 -0.1862,-0.0529 -0.0607,-0.0352 -0.1051,-0.0853 -0.1341,-0.151 -0.0289,-0.0649 -0.0437,-0.1658 -0.0437,-0.3026l0 -1.2736 -0.2992 0 0 -0.0677c0.0755,-0.0303 0.1531,-0.0818 0.2322,-0.1538 0.079,-0.0727 0.1502,-0.1587 0.2116,-0.2575 0.0318,-0.0522 0.0762,-0.1482 0.1327,-0.2872l0.0642 0z"/>
  <path class="fil1" d="M187.04 15.8924c0.2865,0 0.5165,0.1093 0.6908,0.3266 0.1474,0.1863 0.2208,0.4001 0.2208,0.6407 0,0.17 -0.0409,0.3415 -0.1221,0.515 -0.0811,0.1736 -0.1933,0.3048 -0.3358,0.393 -0.1425,0.0882 -0.3013,0.132 -0.4763,0.132 -0.2857,0 -0.5122,-0.1136 -0.6801,-0.3408 -0.1418,-0.1919 -0.2131,-0.4071 -0.2131,-0.6449 0,-0.1743 0.0431,-0.3464 0.1291,-0.5179 0.0861,-0.1714 0.1997,-0.2984 0.3401,-0.3803 0.1404,-0.0825 0.2893,-0.1234 0.4466,-0.1234zm-0.0642 0.1347c-0.0727,0 -0.146,0.0212 -0.2201,0.0649 -0.0734,0.0438 -0.1334,0.1193 -0.1785,0.2286 -0.0459,0.1087 -0.0685,0.2484 -0.0685,0.4191 0,0.2759 0.0551,0.5137 0.1644,0.7133 0.1094,0.1997 0.254,0.2999 0.4332,0.2999 0.1334,0 0.2435,-0.055 0.3309,-0.1651 0.0868,-0.1108 0.1299,-0.2999 0.1299,-0.5687 0,-0.3365 -0.072,-0.6011 -0.2173,-0.7937 -0.0974,-0.1327 -0.2223,-0.1983 -0.374,-0.1983zm0.5003 -1.0583l-0.6096 0.7126 -0.0706 0 0.2173 -0.7126 0.4629 0z"/>
  <line class="fil0 str0" x1="162.6" y1="15.8804" x2="151.812" y2= "7.8085" />
  <line class="fil0 str0" x1="188.995" y1="16.4032" x2="201.225" y2= "9.0915" />
  <path class="fil1" d="M61.4074 2.9277l0 0.9694 -0.0762 0c-0.0254,-0.1863 -0.0699,-0.3345 -0.1334,-0.4445 -0.0642,-0.1108 -0.1559,-0.1983 -0.2744,-0.2625 -0.1186,-0.0649 -0.2406,-0.0974 -0.3676,-0.0974 -0.1433,0 -0.2618,0.0438 -0.3556,0.1313 -0.0939,0.0875 -0.1404,0.187 -0.1404,0.2984 0,0.0854 0.0296,0.1637 0.0889,0.2336 0.0853,0.1037 0.2885,0.2413 0.6096,0.4134 0.2617,0.1404 0.4409,0.2484 0.5362,0.3239 0.0959,0.0748 0.17,0.1637 0.2215,0.2653 0.0515,0.1023 0.0776,0.2088 0.0776,0.3203 0,0.2123 -0.0825,0.3951 -0.2469,0.5489 -0.1651,0.1538 -0.3768,0.2307 -0.6357,0.2307 -0.0819,0 -0.1581,-0.0063 -0.23,-0.019 -0.0424,-0.0064 -0.1313,-0.0318 -0.2653,-0.0748 -0.1341,-0.0438 -0.2194,-0.0656 -0.2554,-0.0656 -0.0346,0 -0.0614,0.0105 -0.0819,0.031 -0.0197,0.0205 -0.0345,0.0635 -0.0444,0.1284l-0.0762 0 0 -0.961 0.0762 0c0.036,0.2011 0.0847,0.3514 0.1453,0.4516 0.0607,0.0995 0.1531,0.1827 0.278,0.2491 0.1242,0.0656 0.2611,0.0987 0.4099,0.0987 0.1722,0 0.3084,-0.0451 0.4086,-0.1361 0.0994,-0.0911 0.1495,-0.1983 0.1495,-0.3225 0,-0.0691 -0.019,-0.1383 -0.0564,-0.2088 -0.0381,-0.0706 -0.0974,-0.1355 -0.1771,-0.1962 -0.0536,-0.0416 -0.2004,-0.1291 -0.4403,-0.2638 -0.2399,-0.1341 -0.4099,-0.2413 -0.5115,-0.3211 -0.1016,-0.0804 -0.1778,-0.1686 -0.2307,-0.2645 -0.0522,-0.0967 -0.0783,-0.2032 -0.0783,-0.3189 0,-0.2011 0.0769,-0.374 0.2314,-0.5193 0.1545,-0.1454 0.3507,-0.218 0.5891,-0.218 0.1489,0 0.307,0.0359 0.4735,0.1093 0.0769,0.0346 0.1319,0.0515 0.1629,0.0515 0.036,0 0.0657,-0.0106 0.0882,-0.0317 0.0226,-0.0219 0.041,-0.0649 0.0551,-0.1291l0.0762 0z"/>
  <path class="fil1" d="M63.5988 5.2136l-0.0233 0.5807 -1.67 0 0 -0.0741 1.2566 -1.675 -0.6202 0c-0.1334,0 -0.2209,0.0092 -0.2625,0.0261 -0.0409,0.0177 -0.0748,0.0501 -0.1009,0.0981 -0.0374,0.0692 -0.0585,0.1545 -0.0642,0.2568l-0.0825 0 0.012 -0.5256 1.5874 0 0 0.0769 -1.2685 1.6785 0.69 0c0.1446,0 0.2427,-0.012 0.2949,-0.0367 0.0515,-0.024 0.0931,-0.0663 0.1249,-0.127 0.0219,-0.0437 0.0402,-0.1369 0.0557,-0.2787l0.0706 0z"/>
  <path class="fil1" d="M64.1505 4.6139c-0.0014,0.2815 0.0664,0.5017 0.2047,0.6618 0.1375,0.1595 0.2998,0.2392 0.4854,0.2392 0.1242,0 0.2321,-0.0339 0.3238,-0.1023 0.0917,-0.0677 0.1679,-0.1849 0.23,-0.35l0.0642 0.041c-0.0289,0.1891 -0.1129,0.3612 -0.2518,0.5157 -0.1397,0.1552 -0.314,0.2329 -0.5229,0.2329 -0.2279,0 -0.4226,-0.0882 -0.5842,-0.2653 -0.1622,-0.1771 -0.2427,-0.4156 -0.2427,-0.7148 0,-0.3238 0.0826,-0.5764 0.2491,-0.757 0.1658,-0.1813 0.3739,-0.2724 0.6251,-0.2724 0.2124,0 0.3867,0.0699 0.5228,0.2103 0.1362,0.1397 0.2046,0.3267 0.2046,0.5609l-1.3081 0zm0 -0.1199l0.8763 0c-0.007,-0.1214 -0.0211,-0.2068 -0.0437,-0.2561 -0.0339,-0.0769 -0.0854,-0.1376 -0.1538,-0.1821 -0.0685,-0.0437 -0.1397,-0.0663 -0.2138,-0.0663 -0.1143,0 -0.2166,0.0445 -0.3069,0.1334 -0.0903,0.0889 -0.1432,0.213 -0.1581,0.3711z"/>
  <path class="fil1" d="M66.3618 2.855l0 2.5117c0,0.1186 0.0091,0.1969 0.0261,0.2357 0.0169,0.0381 0.0437,0.0677 0.0797,0.0875 0.036,0.0197 0.1023,0.0303 0.2004,0.0303l0 0.0741 -0.9278 0 0 -0.0741c0.0868,0 0.146,-0.0092 0.1771,-0.0275 0.0317,-0.0176 0.0571,-0.0473 0.0748,-0.0889 0.0176,-0.0409 0.0268,-0.1199 0.0268,-0.2371l0 -1.7201c0,-0.2138 -0.005,-0.345 -0.0141,-0.3937 -0.0099,-0.0487 -0.0254,-0.0825 -0.0466,-0.1002 -0.0219,-0.0183 -0.0487,-0.0268 -0.0819,-0.0268 -0.0359,0 -0.0811,0.0106 -0.1361,0.0332l-0.0353 -0.0727 0.5644 -0.2314 0.0925 0z"/>
  <path class="fil1" d="M67.2056 4.6139c-0.0014,0.2815 0.0664,0.5017 0.2047,0.6618 0.1375,0.1595 0.2998,0.2392 0.4854,0.2392 0.1242,0 0.2321,-0.0339 0.3238,-0.1023 0.0917,-0.0677 0.1679,-0.1849 0.23,-0.35l0.0642 0.041c-0.0289,0.1891 -0.1129,0.3612 -0.2518,0.5157 -0.1397,0.1552 -0.314,0.2329 -0.5229,0.2329 -0.2279,0 -0.4226,-0.0882 -0.5842,-0.2653 -0.1622,-0.1771 -0.2427,-0.4156 -0.2427,-0.7148 0,-0.3238 0.0826,-0.5764 0.2491,-0.757 0.1658,-0.1813 0.3739,-0.2724 0.6251,-0.2724 0.2124,0 0.3867,0.0699 0.5228,0.2103 0.1362,0.1397 0.2046,0.3267 0.2046,0.5609l-1.3081 0zm0 -0.1199l0.8763 0c-0.007,-0.1214 -0.0211,-0.2068 -0.0437,-0.2561 -0.0339,-0.0769 -0.0854,-0.1376 -0.1538,-0.1821 -0.0685,-0.0437 -0.1397,-0.0663 -0.2138,-0.0663 -0.1143,0 -0.2166,0.0445 -0.3069,0.1334 -0.0903,0.0889 -0.1432,0.213 -0.1581,0.3711z"/>
  <path class="fil1" d="M69.328 4.2484c0.1382,-0.1382 0.2194,-0.2173 0.2441,-0.2377 0.0621,-0.0529 0.1291,-0.0932 0.2004,-0.1221 0.0719,-0.0289 0.1425,-0.0437 0.213,-0.0437 0.1186,0 0.2209,0.0345 0.3062,0.1037 0.0854,0.0684 0.1426,0.1686 0.1715,0.2998 0.1418,-0.1658 0.2618,-0.2744 0.3598,-0.3259 0.0974,-0.0515 0.1983,-0.0776 0.3013,-0.0776 0.1009,0 0.1898,0.0261 0.2681,0.0776 0.0776,0.0515 0.139,0.1361 0.1849,0.2533 0.0303,0.0797 0.0451,0.2053 0.0451,0.376l0 0.8149c0,0.1186 0.0092,0.1997 0.0268,0.2435 0.0141,0.0303 0.0395,0.0564 0.0769,0.0776 0.0374,0.0211 0.0974,0.0324 0.1821,0.0324l0 0.0741 -0.9349 0 0 -0.0741 0.0395 0c0.0812,0 0.1447,-0.0162 0.1905,-0.048 0.0318,-0.0218 0.0543,-0.0571 0.0677,-0.1051 0.0057,-0.0233 0.0085,-0.0903 0.0085,-0.2004l0 -0.8149c0,-0.1545 -0.0183,-0.2631 -0.0557,-0.3266 -0.0536,-0.0882 -0.1397,-0.132 -0.2583,-0.132 -0.0733,0 -0.1467,0.0184 -0.2201,0.0543 -0.0741,0.0367 -0.163,0.1045 -0.2681,0.204l-0.0042 0.0225 0.0042 0.0889 0 0.9038c0,0.1292 0.0078,0.2096 0.0219,0.2413 0.0148,0.0318 0.0416,0.0586 0.0818,0.0798 0.0395,0.0211 0.108,0.0324 0.2046,0.0324l0 0.0741 -0.9574 0 0 -0.0741c0.1051,0 0.1771,-0.0127 0.2166,-0.0374 0.0388,-0.0247 0.0663,-0.0621 0.0811,-0.1115 0.0071,-0.0239 0.0106,-0.0917 0.0106,-0.2046l0 -0.8149c0,-0.1545 -0.0226,-0.2653 -0.0684,-0.3323 -0.0607,-0.0882 -0.1454,-0.1326 -0.254,-0.1326 -0.0748,0 -0.1482,0.0197 -0.2216,0.0599 -0.1143,0.0607 -0.2025,0.1292 -0.2645,0.2047l0 1.0152c0,0.1235 0.0091,0.2046 0.0261,0.2413 0.0169,0.0374 0.043,0.0657 0.0762,0.084 0.0338,0.0183 0.1023,0.0282 0.206,0.0282l0 0.0741 -0.9363 0 0 -0.0741c0.0868,0 0.1475,-0.0099 0.1821,-0.0282 0.0338,-0.0183 0.0606,-0.048 0.0783,-0.0889 0.0176,-0.0409 0.0268,-0.1192 0.0268,-0.2364l0 -0.7239c0,-0.2081 -0.0064,-0.3421 -0.0184,-0.4028 -0.0098,-0.0459 -0.0254,-0.0769 -0.0458,-0.0939 -0.0205,-0.0176 -0.0487,-0.0261 -0.0847,-0.0261 -0.0388,0 -0.0847,0.0106 -0.1383,0.0311l-0.031 -0.0748 0.5701 -0.2314 0.0889 0 0 0.4035z"/>
  <path class="fil1" d="M72.3773 4.6139c-0.0014,0.2815 0.0664,0.5017 0.2047,0.6618 0.1375,0.1595 0.2998,0.2392 0.4854,0.2392 0.1242,0 0.2321,-0.0339 0.3238,-0.1023 0.0917,-0.0677 0.1679,-0.1849 0.23,-0.35l0.0642 0.041c-0.0289,0.1891 -0.1129,0.3612 -0.2518,0.5157 -0.1397,0.1552 -0.314,0.2329 -0.5229,0.2329 -0.2279,0 -0.4226,-0.0882 -0.5842,-0.2653 -0.1622,-0.1771 -0.2427,-0.4156 -0.2427,-0.7148 0,-0.3238 0.0826,-0.5764 0.2491,-0.757 0.1658,-0.1813 0.3739,-0.2724 0.6251,-0.2724 0.2124,0 0.3867,0.0699 0.5228,0.2103 0.1362,0.1397 0.2046,0.3267 0.2046,0.5609l-1.3081 0zm0 -0.1199l0.8763 0c-0.007,-0.1214 -0.0211,-0.2068 -0.0437,-0.2561 -0.0339,-0.0769 -0.0854,-0.1376 -0.1538,-0.1821 -0.0685,-0.0437 -0.1397,-0.0663 -0.2138,-0.0663 -0.1143,0 -0.2166,0.0445 -0.3069,0.1334 -0.0903,0.0889 -0.1432,0.213 -0.1581,0.3711z"/>
  <path class="fil1" d="M74.4898 4.2463c0.2215,-0.2674 0.4332,-0.4014 0.6343,-0.4014 0.1037,0 0.1926,0.0261 0.2667,0.0776 0.0748,0.0515 0.134,0.1369 0.1778,0.2554 0.0303,0.0825 0.0451,0.2095 0.0451,0.3803l0 0.8085c0,0.1193 0.0099,0.2011 0.0297,0.2435 0.0148,0.0345 0.0395,0.0613 0.0733,0.0811 0.0332,0.019 0.096,0.0289 0.187,0.0289l0 0.0741 -0.937 0 0 -0.0741 0.0395 0c0.0882,0 0.1503,-0.0141 0.1849,-0.0409 0.0353,-0.0268 0.06,-0.0663 0.0734,-0.1185 0.0056,-0.0205 0.0084,-0.0854 0.0084,-0.1941l0 -0.7754c0,-0.1721 -0.0225,-0.297 -0.067,-0.3753 -0.0451,-0.0776 -0.1206,-0.1164 -0.2265,-0.1164 -0.1637,0 -0.3273,0.0896 -0.4896,0.2688l0 0.9983c0,0.1277 0.007,0.2068 0.0226,0.2371 0.019,0.0402 0.0458,0.0699 0.0797,0.0882 0.0339,0.0183 0.1023,0.0282 0.2053,0.0282l0 0.0741 -0.9363 0 0 -0.0741 0.0417 0c0.0959,0 0.1615,-0.0247 0.1954,-0.0734 0.0332,-0.0493 0.0501,-0.1425 0.0501,-0.2801l0 -0.7034c0,-0.2272 -0.0049,-0.3655 -0.0155,-0.4149 -0.0099,-0.0501 -0.0261,-0.0839 -0.0473,-0.1016 -0.0212,-0.0176 -0.0501,-0.0268 -0.0861,-0.0268 -0.0381,0 -0.0846,0.0106 -0.1383,0.0311l-0.031 -0.0748 0.5708 -0.2314 0.0889 0 0 0.4014z"/>
  <line class="fil0 str0" x1="73.1068" y1="6.8814" x2="76.1416" y2= "12.6885" />
 </g>
</svg>
