<?xml version="1.0" encoding="UTF-8"?>
<!DOCTYPE svg PUBLIC "-//W3C//DTD SVG 1.1//EN" "http://www.w3.org/Graphics/SVG/1.1/DTD/svg11.dtd">
<!-- Creator: CorelDRAW -->
<svg xmlns="http://www.w3.org/2000/svg" xml:space="preserve" width="96mm" height="16mm" style="shape-rendering:geometricPrecision; text-rendering:geometricPrecision; image-rendering:optimizeQuality; fill-rule:evenodd; clip-rule:evenodd"
viewBox="0 0 96 16">
 <defs>
  <style type="text/css">
   <![CDATA[
    .str0 {stroke:#1F1A17;stroke-width:0.1764}
    .str1 {stroke:#131516;stroke-width:0.1764}
    .fil0 {fill:none}
    .fil2 {fill:#1F1A17;fill-rule:nonzero}
    .fil1 {fill:url(#id0)}
   ]]>
  </style>
  <linearGradient id="id0" gradientUnits="userSpaceOnUse" x1="8.0951" y1="10.3995" x2="9.0788" y2="10.3995">
   <stop offset="0" style="stop-color:white"/>
   <stop offset="1" style="stop-color:white"/>
  </linearGradient>
 </defs>
 <g id="Layer_x0020_1">
  <metadata id="CorelCorpID_0Corel-Layer"/>
  <line class="fil0 str0" x1="8.9461" y1="9.9075" x2="88.8483" y2= "10.3165" />
  <line class="fil0 str0" x1="12.4171" y1="14.9946" x2="85.7793" y2= "15.4719" />
  <line class="fil0 str0" x1="9.1828" y1="10.1436" x2="12.4602" y2= "15.0136" />
  <line class="fil0 str0" x1="15.5889" y1="9.9414" x2="18.6642" y2= "14.9164" />
  <line class="fil0 str0" x1="21.755" y1="9.9724" x2="24.8055" y2= "14.8895" />
  <line class="fil0 str0" x1="27.7664" y1="10.0032" x2="30.9069" y2= "14.9377" />
  <line class="fil0 str0" x1="33.7305" y1="10.029" x2="37.0083" y2= "14.986" />
  <line class="fil0 str0" x1="39.9919" y1="10.0665" x2="43.1097" y2= "15.0342" />
  <line class="fil0 str0" x1="45.9334" y1="10.1255" x2="49.2111" y2= "15.0825" />
  <line class="fil0 str0" x1="52.1944" y1="10.1292" x2="55.3125" y2= "15.1308" />
  <line class="fil0 str0" x1="58.1361" y1="10.222" x2="61.4138" y2= "15.179" />
  <line class="fil0 str0" x1="64.3749" y1="10.1913" x2="67.5152" y2= "15.2273" />
  <line class="fil0 str0" x1="70.3389" y1="10.3185" x2="73.6166" y2= "15.2755" />
  <line class="fil0 str0" x1="76.5325" y1="10.2538" x2="79.718" y2= "15.3238" />
  <line class="fil0 str0" x1="82.7916" y1="10.1907" x2="85.8194" y2= "15.372" />
  <line class="fil0 str0" x1="15.5889" y1="9.9411" x2="12.4169" y2= "15.147" />
  <line class="fil0 str0" x1="21.6246" y1="9.9387" x2="18.6209" y2= "15.0499" />
  <line class="fil0 str0" x1="27.6292" y1="9.9809" x2="24.7653" y2= "15.0219" />
  <line class="fil0 str0" x1="33.7306" y1="10.0292" x2="30.8667" y2= "15.0702" />
  <line class="fil0 str0" x1="39.8319" y1="10.0774" x2="36.9681" y2= "15.1184" />
  <line class="fil0 str0" x1="45.9333" y1="10.1257" x2="43.0695" y2= "15.1667" />
  <line class="fil0 str0" x1="52.0347" y1="10.1739" x2="49.1709" y2= "15.2149" />
  <line class="fil0 str0" x1="58.1361" y1="10.2222" x2="55.2723" y2= "15.2632" />
  <line class="fil0 str0" x1="64.2375" y1="10.2704" x2="61.3736" y2= "15.3115" />
  <line class="fil0 str0" x1="70.3389" y1="10.3187" x2="67.475" y2= "15.3597" />
  <line class="fil0 str0" x1="76.4403" y1="10.367" x2="73.5764" y2= "15.408" />
  <line class="fil0 str0" x1="82.8473" y1="10.2858" x2="79.6778" y2= "15.4562" />
  <line class="fil0 str0" x1="88.8483" y1="10.3163" x2="85.7792" y2= "15.5045" />
  <polygon class="fil0 str1" points="8.587,10.9245 9.4816,12.0383 10.3763,13.1521 8.587,13.1521 6.7976,13.1521 7.6923,12.0383 "/>
  <g id="_155915224">
   <line id="_155095392" class="fil0 str1" x1="11.0035" y1="13.1578" x2="6.5483" y2= "13.1578" />
   <g>
    <line id="_156372712" class="fil0 str1" x1="10.5743" y1="13.2191" x2="10.9626" y2= "14.0979" />
    <line id="_151979632" class="fil0 str1" x1="9.7791" y1="13.2191" x2="10.1674" y2= "14.0979" />
    <line id="_155789280" class="fil0 str1" x1="8.9839" y1="13.2191" x2="9.3722" y2= "14.0979" />
    <line id="_155526528" class="fil0 str1" x1="8.1887" y1="13.2191" x2="8.577" y2= "14.0979" />
    <line id="_155234408" class="fil0 str1" x1="7.3935" y1="13.2191" x2="7.7818" y2= "14.0979" />
    <line id="_155380472" class="fil0 str1" x1="6.5983" y1="13.2191" x2="6.9866" y2= "14.0979" />
   </g>
  </g>
  <circle class="fil1 str1" cx="8.58696" cy="10.3995" r="0.491853"/>
  <line class="fil0 str0" x1="8.4445" y1="5.324" x2="49.2895" y2= "5.324" />
  <line class="fil0 str0" x1="8.4445" y1="1.0458" x2="49.2895" y2= "1.0458" />
  <g>
   <path class="fil2" d="M8.3566 4.8369l0 -3.7911 0.1758 0 0 3.7911 -0.1758 0zm-0.0613 0.3726l0.2984 -0.1935 -0.2984 0.0001 0.9096 -1.4032 0.2984 0.1934 -0.9096 1.4032 -0.2984 0zm0 0l0.2984 0 -0.1491 0.23 -0.1493 -0.23zm-0.7611 -1.4999l0.1491 -0.0968 0.9104 1.4032 -0.2984 0.1935 -0.9103 -1.4032 0.1492 -0.0967z"/>
  </g>
  <g>
   <path class="fil2" d="M13.2543 5.1069l0 -3.7911 0.1758 0 0 3.7911 -0.1758 0zm-0.0613 0.3726l0.2984 -0.1935 -0.2984 0.0001 0.9096 -1.4032 0.2984 0.1934 -0.9096 1.4032 -0.2984 0zm0 0l0.2984 0 -0.1491 0.23 -0.1493 -0.23zm-0.7611 -1.4999l0.1491 -0.0968 0.9104 1.4032 -0.2984 0.1935 -0.9103 -1.4032 0.1492 -0.0967z"/>
  </g>
  <g>
   <path class="fil2" d="M18.3896 5.0946l0 -3.7911 0.1758 0 0 3.7911 -0.1758 0zm-0.0613 0.3726l0.2984 -0.1935 -0.2984 0.0001 0.9096 -1.4032 0.2984 0.1934 -0.9096 1.4032 -0.2984 0zm0 0l0.2984 0 -0.1491 0.23 -0.1493 -0.23zm-0.7611 -1.4999l0.1491 -0.0968 0.9104 1.4032 -0.2984 0.1935 -0.9103 -1.4032 0.1492 -0.0967z"/>
  </g>
  <g>
   <path class="fil2" d="M23.5249 5.0822l0 -3.7911 0.1758 0 0 3.7911 -0.1758 0zm-0.0613 0.3726l0.2984 -0.1935 -0.2984 0.0001 0.9096 -1.4032 0.2984 0.1934 -0.9096 1.4032 -0.2984 0zm0 0l0.2984 0 -0.1491 0.23 -0.1493 -0.23zm-0.7611 -1.4999l0.1491 -0.0968 0.9104 1.4032 -0.2984 0.1935 -0.9103 -1.4032 0.1492 -0.0967z"/>
  </g>
  <g>
   <path class="fil2" d="M28.6602 5.0699l0 -3.7911 0.1758 0 0 3.7911 -0.1758 0zm-0.0613 0.3726l0.2984 -0.1935 -0.2984 0.0001 0.9096 -1.4032 0.2984 0.1934 -0.9096 1.4032 -0.2984 0zm0 0l0.2984 0 -0.1491 0.23 -0.1493 -0.23zm-0.7611 -1.4999l0.1491 -0.0968 0.9104 1.4032 -0.2984 0.1935 -0.9103 -1.4032 0.1492 -0.0967z"/>
  </g>
  <g>
   <path class="fil2" d="M33.7956 5.0576l0 -3.7911 0.1758 0 0 3.7911 -0.1758 0zm-0.0613 0.3726l0.2984 -0.1935 -0.2984 0.0001 0.9096 -1.4032 0.2984 0.1934 -0.9096 1.4032 -0.2984 0zm0 0l0.2984 0 -0.1491 0.23 -0.1493 -0.23zm-0.7611 -1.4999l0.1491 -0.0968 0.9104 1.4032 -0.2984 0.1935 -0.9103 -1.4032 0.1492 -0.0967z"/>
  </g>
  <g>
   <path class="fil2" d="M38.9309 5.0453l0 -3.7911 0.1758 0 0 3.7911 -0.1758 0zm-0.0613 0.3726l0.2984 -0.1935 -0.2984 0.0001 0.9096 -1.4032 0.2984 0.1934 -0.9096 1.4032 -0.2984 0zm0 0l0.2984 0 -0.1491 0.23 -0.1493 -0.23zm-0.7611 -1.4999l0.1491 -0.0968 0.9104 1.4032 -0.2984 0.1935 -0.9103 -1.4032 0.1492 -0.0967z"/>
  </g>
  <g>
   <path class="fil2" d="M44.0662 5.033l0 -3.7911 0.1758 0 0 3.7911 -0.1758 0zm-0.0613 0.3726l0.2984 -0.1935 -0.2984 0.0001 0.9096 -1.4032 0.2984 0.1934 -0.9096 1.4032 -0.2984 0zm0 0l0.2984 0 -0.1491 0.23 -0.1493 -0.23zm-0.7611 -1.4999l0.1491 -0.0968 0.9104 1.4032 -0.2984 0.1935 -0.9103 -1.4032 0.1492 -0.0967z"/>
  </g>
  <g>
   <path class="fil2" d="M49.2012 5.0206l0 -3.791 0.1764 0 0 3.791 -0.1764 0zm-0.061 0.3726l0.2984 -0.1935 -0.2984 0.0001 0.9096 -1.4032 0.2984 0.1934 -0.9096 1.4032 -0.2984 0zm0 0l0.2984 0 -0.1491 0.23 -0.1493 -0.23zm-0.7611 -1.4999l0.1491 -0.0968 0.9104 1.4032 -0.2984 0.1935 -0.9103 -1.4032 0.1492 -0.0967z"/>
  </g>
  <line class="fil0 str0" x1="49.3305" y1="5.3248" x2="89.0578" y2= "5.3248" />
  <line class="fil0 str0" x1="49.3305" y1="1.0458" x2="89.0578" y2= "1.0458" />
  <g>
   <path class="fil2" d="M49.2426 4.8369l0 -3.7911 0.1758 0 0 3.7911 -0.1758 0zm-0.0613 0.3726l0.2984 -0.1935 -0.2984 0.0001 0.9096 -1.4032 0.2984 0.1934 -0.9096 1.4032 -0.2984 0zm0 0l0.2984 0 -0.1491 0.23 -0.1493 -0.23zm-0.7611 -1.4999l0.1491 -0.0968 0.9104 1.4032 -0.2984 0.1935 -0.9103 -1.4032 0.1492 -0.0967z"/>
  </g>
  <g>
   <path class="fil2" d="M54.1403 5.1069l0 -3.7911 0.1758 0 0 3.7911 -0.1758 0zm-0.0613 0.3726l0.2984 -0.1935 -0.2984 0.0001 0.9096 -1.4032 0.2984 0.1934 -0.9096 1.4032 -0.2984 0zm0 0l0.2984 0 -0.1491 0.23 -0.1493 -0.23zm-0.7611 -1.4999l0.1491 -0.0968 0.9104 1.4032 -0.2984 0.1935 -0.9103 -1.4032 0.1492 -0.0967z"/>
  </g>
  <g>
   <path class="fil2" d="M59.2756 5.0946l0 -3.7911 0.1758 0 0 3.7911 -0.1758 0zm-0.0613 0.3726l0.2984 -0.1935 -0.2984 0.0001 0.9096 -1.4032 0.2984 0.1934 -0.9096 1.4032 -0.2984 0zm0 0l0.2984 0 -0.1491 0.23 -0.1493 -0.23zm-0.7611 -1.4999l0.1491 -0.0968 0.9104 1.4032 -0.2984 0.1935 -0.9103 -1.4032 0.1492 -0.0967z"/>
  </g>
  <g>
   <path class="fil2" d="M64.4109 5.0822l0 -3.7911 0.1758 0 0 3.7911 -0.1758 0zm-0.0613 0.3726l0.2984 -0.1935 -0.2984 0.0001 0.9096 -1.4032 0.2984 0.1934 -0.9096 1.4032 -0.2984 0zm0 0l0.2984 0 -0.1491 0.23 -0.1493 -0.23zm-0.7611 -1.4999l0.1491 -0.0968 0.9104 1.4032 -0.2984 0.1935 -0.9103 -1.4032 0.1492 -0.0967z"/>
  </g>
  <g>
   <path class="fil2" d="M69.5462 5.0699l0 -3.7911 0.1758 0 0 3.7911 -0.1758 0zm-0.0613 0.3726l0.2984 -0.1935 -0.2984 0.0001 0.9096 -1.4032 0.2984 0.1934 -0.9096 1.4032 -0.2984 0zm0 0l0.2984 0 -0.1491 0.23 -0.1493 -0.23zm-0.7611 -1.4999l0.1491 -0.0968 0.9104 1.4032 -0.2984 0.1935 -0.9103 -1.4032 0.1492 -0.0967z"/>
  </g>
  <g>
   <path class="fil2" d="M74.6815 5.0576l0 -3.7911 0.1758 0 0 3.7911 -0.1758 0zm-0.0613 0.3726l0.2984 -0.1935 -0.2984 0.0001 0.9096 -1.4032 0.2984 0.1934 -0.9096 1.4032 -0.2984 0zm0 0l0.2984 0 -0.1491 0.23 -0.1493 -0.23zm-0.7611 -1.4999l0.1491 -0.0968 0.9104 1.4032 -0.2984 0.1935 -0.9103 -1.4032 0.1492 -0.0967z"/>
  </g>
  <g>
   <path class="fil2" d="M79.8169 5.0453l0 -3.7911 0.1758 0 0 3.7911 -0.1758 0zm-0.0613 0.3726l0.2984 -0.1935 -0.2984 0.0001 0.9096 -1.4032 0.2984 0.1934 -0.9096 1.4032 -0.2984 0zm0 0l0.2984 0 -0.1491 0.23 -0.1493 -0.23zm-0.7611 -1.4999l0.1491 -0.0968 0.9104 1.4032 -0.2984 0.1935 -0.9103 -1.4032 0.1492 -0.0967z"/>
  </g>
  <g>
   <path class="fil2" d="M84.9522 5.033l0 -3.7911 0.1758 0 0 3.7911 -0.1758 0zm-0.0613 0.3726l0.2984 -0.1935 -0.2984 0.0001 0.9096 -1.4032 0.2984 0.1934 -0.9096 1.4032 -0.2984 0zm0 0l0.2984 0 -0.1491 0.23 -0.1493 -0.23zm-0.7611 -1.4999l0.1491 -0.0968 0.9104 1.4032 -0.2984 0.1935 -0.9103 -1.4032 0.1492 -0.0967z"/>
  </g>
  <g>
   <path class="fil2" d="M88.9699 4.8911l0 -3.7911 0.1758 0 0 3.7911 -0.1758 0zm-0.0613 0.3726l0.2984 -0.1935 -0.2984 0.0001 0.9096 -1.4032 0.2984 0.1934 -0.9096 1.4032 -0.2984 0zm0 0l0.2984 0 -0.1491 0.23 -0.1493 -0.23zm-0.7611 -1.4999l0.1491 -0.0968 0.9104 1.4032 -0.2984 0.1935 -0.9103 -1.4032 0.1492 -0.0967z"/>
  </g>
  <path class="fil2" d="M4.4875 10.2303l-0.2131 2.3311c-0.0113,0.1093 -0.0162,0.1806 -0.0162,0.2152 0,0.055 0.0098,0.0973 0.031,0.1263 0.0261,0.0395 0.0614,0.0691 0.1058,0.0889 0.0452,0.019 0.1207,0.0289 0.2265,0.0289l-0.0226 0.0762 -1.1034 0 0.0225 -0.0762 0.0473 0c0.0896,0 0.163,-0.0198 0.2194,-0.0579 0.0395,-0.0268 0.0706,-0.0698 0.0932,-0.1305 0.0148,-0.043 0.0296,-0.1432 0.043,-0.302l0.0332 -0.3556 -0.8023 0 -0.285 0.3867c-0.0649,0.0868 -0.1051,0.1496 -0.1221,0.187 -0.0162,0.0381 -0.0246,0.0733 -0.0246,0.1065 0,0.0444 0.0176,0.0818 0.0536,0.1136 0.036,0.0317 0.0952,0.0494 0.1778,0.0522l-0.0226 0.0762 -0.829 0 0.0226 -0.0762c0.1023,-0.0042 0.1919,-0.0388 0.2702,-0.1023 0.0776,-0.0642 0.1933,-0.2011 0.3478,-0.4106l1.6743 -2.2775 0.0727 0zm-0.4093 0.6879l-0.8128 1.1056 0.7049 0 0.1079 -1.1056z"/>
  <path class="fil2" d="M93.5394 11.2391l0.029 -0.077 1.0004 0c0.1679,0 0.3175,0.0262 0.4495,0.0791 0.1312,0.0522 0.23,0.1249 0.2956,0.2187 0.0656,0.0938 0.0981,0.1933 0.0981,0.2977 0,0.1616 -0.0586,0.3069 -0.175,0.4375 -0.1164,0.1298 -0.3062,0.2265 -0.5694,0.2878 0.17,0.0635 0.2942,0.1475 0.3746,0.2526 0.0798,0.1044 0.12,0.2195 0.12,0.345 0,0.139 -0.036,0.2724 -0.108,0.3994 -0.0712,0.1263 -0.1636,0.2251 -0.2758,0.2949 -0.1122,0.0706 -0.2477,0.1221 -0.4064,0.1552 -0.1129,0.0233 -0.2893,0.0353 -0.5292,0.0353l-1.0273 0 0.0268 -0.0762c0.108,-0.0028 0.1807,-0.0134 0.2195,-0.031 0.055,-0.024 0.0945,-0.0551 0.1178,-0.0932 0.0332,-0.0522 0.0769,-0.1721 0.1319,-0.3598l0.5024 -1.6969c0.043,-0.1432 0.0642,-0.2441 0.0642,-0.3019 0,-0.0508 -0.0191,-0.091 -0.0565,-0.1207 -0.0381,-0.0296 -0.11,-0.0444 -0.2166,-0.0444 -0.0232,0 -0.0451,-0.0007 -0.0656,-0.0021zm0.4191 1.1634c0.0896,0.0028 0.1545,0.0042 0.1948,0.0042 0.2864,0 0.4995,-0.062 0.6399,-0.1869 0.1397,-0.1249 0.2095,-0.2808 0.2095,-0.4685 0,-0.1418 -0.043,-0.2526 -0.1284,-0.3316 -0.0853,-0.079 -0.2215,-0.1186 -0.4092,-0.1186 -0.0494,0 -0.1129,0.0078 -0.1898,0.0247l-0.3168 1.0767zm-0.4071 1.3808c0.1489,0.0197 0.2653,0.0289 0.3493,0.0289 0.2152,0 0.4057,-0.0649 0.5715,-0.194 0.1665,-0.1299 0.249,-0.3055 0.249,-0.5271 0,-0.1693 -0.0508,-0.302 -0.1538,-0.3972 -0.1023,-0.0953 -0.2681,-0.1425 -0.4967,-0.1425 -0.0444,0 -0.0981,0.0021 -0.1616,0.0063l-0.3577 1.2256z"/>
  <polygon class="fil0 str1" points="89.18,11.25 90.0746,12.3638 90.9693,13.4776 89.18,13.4776 87.3906,13.4776 88.2853,12.3638 "/>
  <g>
   <line class="fil0 str1" x1="91.5965" y1="13.4833" x2="87.1413" y2= "13.4833" />
   <g>
    <line class="fil0 str1" x1="91.1673" y1="13.5446" x2="91.5556" y2= "14.4234" />
    <line class="fil0 str1" x1="90.3721" y1="13.5446" x2="90.7604" y2= "14.4234" />
    <line class="fil0 str1" x1="89.5769" y1="13.5446" x2="89.9652" y2= "14.4234" />
    <line class="fil0 str1" x1="88.7817" y1="13.5446" x2="89.17" y2= "14.4234" />
    <line class="fil0 str1" x1="87.9865" y1="13.5446" x2="88.3748" y2= "14.4234" />
    <line class="fil0 str1" x1="87.1913" y1="13.5446" x2="87.5796" y2= "14.4234" />
   </g>
  </g>
  <circle class="fil1 str1" cx="89.18" cy="10.725" r="0.491853"/>
  <g>
   <line class="fil0 str1" x1="11.0035" y1="13.1578" x2="6.5483" y2= "13.1578" />
   <g>
    <line class="fil0 str1" x1="10.5743" y1="13.2191" x2="10.9626" y2= "14.0979" />
    <line class="fil0 str1" x1="9.7791" y1="13.2191" x2="10.1674" y2= "14.0979" />
    <line class="fil0 str1" x1="8.9839" y1="13.2191" x2="9.3722" y2= "14.0979" />
    <line class="fil0 str1" x1="8.1887" y1="13.2191" x2="8.577" y2= "14.0979" />
    <line class="fil0 str1" x1="7.3935" y1="13.2191" x2="7.7818" y2= "14.0979" />
    <line class="fil0 str1" x1="6.5983" y1="13.2191" x2="6.9866" y2= "14.0979" />
   </g>
  </g>
 </g>
</svg>
